<?xml version="1.0" standalone="no"?>
<!DOCTYPE svg PUBLIC "-//W3C//DTD SVG 20010904//EN"
 "http://www.w3.org/TR/2001/REC-SVG-20010904/DTD/svg10.dtd">
<svg version="1.0" xmlns="http://www.w3.org/2000/svg"
 width="700.000000pt" height="700.000000pt" viewBox="0 0 700.000000 700.000000"
 preserveAspectRatio="xMidYMid meet">
<metadata>
Created by potrace 1.14, written by Peter Selinger 2001-2017
</metadata>
<g transform="translate(0.000000,700.000000) scale(0.100000,-0.100000)"
fill="#000000" stroke="none">
<path d="M3628 6965 c-2 -2 -37 -6 -78 -9 -163 -14 -318 -46 -500 -102 -201
-63 -444 -180 -615 -298 -396 -271 -704 -652 -879 -1086 -38 -93 -89 -245
-102 -302 -2 -10 -6 -28 -9 -40 -10 -41 -36 -180 -40 -212 -8 -60 -16 -132
-20 -181 -2 -27 -7 -84 -10 -125 -3 -41 -8 -97 -10 -125 -2 -27 -7 -79 -10
-115 -2 -36 -7 -94 -10 -130 -3 -36 -7 -94 -10 -130 -5 -69 -13 -169 -20 -260
-5 -57 -11 -123 -20 -250 -4 -41 -8 -95 -10 -120 -2 -25 -7 -81 -10 -125 -3
-44 -8 -100 -10 -125 -2 -25 -7 -81 -10 -125 -3 -44 -8 -100 -10 -125 -2 -25
-6 -76 -10 -115 -3 -38 -8 -97 -10 -130 -6 -85 -15 -190 -21 -265 -3 -36 -7
-83 -9 -105 -1 -22 -6 -83 -11 -135 -15 -170 -10 -461 11 -567 2 -11 6 -38 9
-58 4 -21 16 -75 27 -119 154 -612 599 -1121 1186 -1357 76 -31 253 -86 303
-95 45 -8 75 -14 100 -21 14 -4 185 -8 380 -10 340 -2 360 -1 470 21 246 51
426 113 625 214 399 204 730 516 959 904 58 100 133 251 161 329 61 167 95
285 120 416 28 151 31 179 50 433 3 41 8 98 10 127 8 91 15 186 20 253 6 77
13 164 20 240 7 77 13 162 20 255 3 44 8 103 11 130 3 28 6 77 9 110 2 33 6
87 9 120 3 33 8 94 11 135 3 41 7 100 10 130 3 30 7 84 10 120 3 36 7 90 10
120 14 172 18 218 20 250 2 36 13 166 20 255 3 28 7 86 10 130 3 44 7 98 10
120 2 22 7 81 10 130 4 50 8 106 10 125 22 206 22 444 0 545 -3 11 -7 31 -9
45 -21 122 -72 274 -138 404 -205 411 -576 710 -1018 819 -121 29 -160 35
-360 52 -36 3 -90 8 -120 10 -154 13 -228 17 -372 20 -86 1 -158 1 -160 0z"/>
</g>
</svg>
