<?xml version="1.0" standalone="no"?>
<!DOCTYPE svg PUBLIC "-//W3C//DTD SVG 20010904//EN"
 "http://www.w3.org/TR/2001/REC-SVG-20010904/DTD/svg10.dtd">
<svg version="1.0" xmlns="http://www.w3.org/2000/svg"
 width="640.000000pt" height="640.000000pt" viewBox="0 0 640.000000 640.000000"
 preserveAspectRatio="xMidYMid meet">
<metadata>
Created by potrace 1.14, written by Peter Selinger 2001-2017
</metadata>
<g transform="translate(0.000000,640.000000) scale(0.100000,-0.100000)"
fill="#000000" stroke="none">
<path d="M3279 6396 c-3 -3 -55 -10 -159 -21 -14 -1 -38 -5 -55 -9 -60 -13
-80 -17 -100 -21 -115 -20 -379 -116 -500 -180 -173 -93 -267 -154 -390 -253
-117 -95 -280 -264 -367 -383 -114 -155 -110 -150 -148 -155 -19 -2 -46 -6
-60 -9 -14 -3 -37 -7 -51 -10 -65 -12 -213 -60 -310 -101 -158 -66 -306 -154
-439 -261 -69 -55 -247 -239 -298 -308 -28 -38 -56 -75 -62 -82 -5 -7 -10 -15
-10 -18 0 -4 -12 -25 -27 -48 -50 -76 -85 -141 -131 -247 -19 -45 -71 -191
-77 -220 -1 -8 -8 -33 -14 -55 -14 -54 -40 -206 -49 -285 -15 -138 -7 -456 13
-550 3 -14 7 -43 9 -65 3 -22 7 -47 10 -55 3 -8 8 -26 10 -40 8 -37 27 -113
34 -130 6 -18 5 -12 26 -85 10 -33 21 -64 25 -70 4 -5 18 -37 31 -70 25 -65
124 -260 144 -285 6 -8 18 -27 26 -43 7 -15 17 -27 22 -27 4 0 8 -5 8 -10 0
-10 100 -146 150 -203 119 -138 275 -275 441 -387 109 -74 119 -83 120 -113 0
-18 3 -41 5 -52 3 -11 6 -29 9 -40 49 -251 142 -479 278 -679 98 -146 234
-293 367 -398 41 -32 80 -62 86 -68 69 -54 361 -210 396 -210 8 0 18 -4 24 -9
17 -16 189 -65 266 -76 15 -2 31 -6 35 -8 4 -3 33 -8 63 -11 30 -4 69 -8 85
-10 17 -2 68 -7 115 -10 47 -4 112 -10 145 -13 140 -14 544 -7 571 10 5 3 30
8 55 11 56 6 259 64 277 78 6 6 12 8 12 5 0 -14 202 84 328 158 27 16 117 78
122 85 3 3 20 16 38 29 109 76 301 282 389 417 48 73 61 95 87 144 36 69 37
70 72 76 16 3 37 7 46 10 10 3 30 7 45 10 16 3 46 10 68 16 48 14 46 13 65 20
8 3 38 14 65 23 233 82 468 235 645 422 47 50 95 103 107 119 39 50 109 148
117 164 4 8 12 24 19 35 15 24 91 168 92 175 0 3 16 43 34 90 35 88 75 235 86
311 3 24 8 56 11 72 9 55 13 83 19 137 4 30 9 64 11 75 20 104 26 446 11 550
-5 28 -10 64 -13 80 -61 389 -239 757 -506 1049 -40 44 -84 89 -97 100 -13 12
-31 28 -40 37 -9 9 -54 46 -101 83 -107 84 -98 77 -145 106 -22 13 -42 26 -45
29 -3 4 -27 18 -55 33 l-50 27 -1 143 c-1 79 -4 157 -7 173 -3 17 -8 50 -12
75 -3 25 -10 59 -15 75 -5 17 -11 41 -14 55 -9 52 -60 179 -113 281 -144 280
-395 518 -673 638 -41 18 -82 36 -90 41 -30 15 -149 47 -202 55 -15 2 -31 6
-35 8 -12 8 -149 22 -293 32 -47 3 -103 8 -125 11 -48 6 -451 14 -456 10z"/>
</g>
</svg>
