<?xml version="1.0" encoding="utf-8"?>
<!-- Generator: Adobe Illustrator 25.2.1, SVG Export Plug-In . SVG Version: 6.00 Build 0)  -->
<svg version="1.1" id="Layer_1" xmlns="http://www.w3.org/2000/svg" xmlns:xlink="http://www.w3.org/1999/xlink" x="0px" y="0px"
	 viewBox="0 0 1767.7 1641.8" style="enable-background:new 0 0 1767.7 1641.8;" xml:space="preserve">
<path d="M139.6,1547.5c2.6,4.8,6.4,8.9,7.1,14.7c0.2,1.6,2,2.8,2.8,4.4c1.3,2.7,2.8,5.5,3.5,8.4c1.2,4.9-0.3,6.9-5.2,7.8
	c-3,0.6-6.1,0.7-9.1,1.1c-1.9,0.3-4,0.4-5.7,1.3c-6.2,3.2-12,1.9-17.7-1.2c-12.1-6.6-20.4-16.7-25.3-29.3c-3.3-8.6-8.9-15.4-14-22.8
	c-1.6-2.3-3.4-4.6-5-7c-5.2-7.8-10.3-15.7-15.4-23.6c-1.3-2-2.1-4.3-3.4-6.2c-2.7-4-5.7-7.7-8.3-11.8c-5-7.9-10.6-15.5-12.6-25.1
	c-0.8-4.2-2.7-8.5-5.1-12c-3.9-5.8-5.9-12.7-11.4-17.6c-2.9-2.5-4.7-6.3-7.1-9.4c-1.6-2.1-3.1-4.2-5.1-5.9c-2.3-2-2.9-4.3-2.6-7.1
	c0.4-3.2,6.6-10.4,9.6-11c1.4-0.2,3.1,0.1,4.4,0.8c4.7,2.5,7.6,6.4,9.1,11.6c1.6,5.5,3.3,11,5.7,16.2c1.7,3.7,5.1,6.5,7,10.1
	c3.7,6.9,7.5,14,10.3,21.3c3.3,8.7,7,17,12.4,24.6c3.2,4.4,5.5,9.5,8.4,14.1c2,3.1,4.4,5.9,6.5,9c3.7,5.5,7.2,11,10.8,16.6
	c0.6,0.9,0.9,2,1.3,3c0.5-0.3,1.1-0.7,1.6-1c0.5-1.4,0.9-2.8,1.6-4.1c1.1-2.1,2.1-4.6,3.8-6c7.6-6.4,16.2-10.6,26.3-10.6
	c1.9,0,4,0.3,5.8,1c4.4,1.5,8.6,1.9,12.1-1.3c8.5,4.4,17.1,6.9,26.3,7.3c6.5,0.3,13,1,19.6,1.7c9.6,1,19.2,2,28.8,3.3
	c10.1,1.4,20.2,3.1,30.3,4.6c5.2,0.8,10.5,1.5,15.7,2.2c7.2,0.9,14.4,1.8,21.6,2.5c4.3,0.4,8,2.8,12.7,2.8c18.5,0,36.7,3.6,55.1,4.9
	c5.4,0.4,11-0.5,16.5-0.9c0.7-0.1,1.4-0.9,2.5-1.7c-1.6-1.4-2.8-2.7-4.2-3.5c-7.2-4.1-14.3-8.6-21.9-12c-7.1-3.2-14.6-5.9-22.3-7.6
	c-8.2-1.8-11-7.3-5.6-14.9c1.1-1.5,1.2-4.2,0.8-6.1c-3.3-16.2-2.5-32.4-1.1-48.6c1.3-16,2.4-32,1.6-48.1
	c-0.5-10.5-0.2-21.1-0.3-31.7c0-4.2-0.4-8.4-0.1-12.5c0.8-11,2-21.9,2.6-32.9c0.4-7.9,0.1-15.8,0.1-23.8c0-7.3-0.1-14.5,0-21.8
	c0.1-8.4,0.4-16.6-2.4-24.8c-1.2-3.6-0.7-7.8-0.6-11.8c0.1-4.6-0.1-5.6-4.7-6.4c-6.7-1.2-13.5-1.8-20.3-2.5
	c-6.6-0.6-13.2-0.9-19.8-1.4c-0.6-0.1-1.5-0.5-1.9-0.3c-5,3.1-9.8,0-14.7-0.4c-9.6-0.7-19.3-1.3-29-2c-1.8-0.1-3.8,0.4-5.2-0.4
	c-5.4-2.9-11.1-1.5-16.8-1.7c-12.7-0.5-25.6-0.5-37.9-4.4c-1.4-0.5-3-0.6-4.6-0.6c-8.8-0.1-17.5,0.1-26.3-0.1
	c-2.8,0-5.6-0.5-8.4-0.9c-3.7-0.6-7.3-1.6-11-1.9c-6.7-0.6-9.1,1.9-9.2,8.7c0,2.9-0.1,5.8,0.1,8.6c1.1,10.7-1,21.1-2.6,31.5
	c-1.5,10.3-2.6,20.5-2.3,30.9c0.1,4.2-0.2,8.4-0.3,12.6c0,0.9,0,1.8-0.3,2.6c-3.9,9.3-5.7,19.4-9.4,28.7c-3,7.7-8.5,14.4-16.8,17.8
	c-6.1,2.6-6.6,4.6-4.3,10.6c2.6,6.7,4.9,13.6,5,20.9c0,0.8,0,1.9,0.4,2.4c5.3,5.9,6.7,13.6,9.5,20.7c1.4,3.4,3.7,6.4,5.5,9.6
	c1.1,1.9,2.2,3.7,3.1,5.6c1.3,3,2.4,6,4.1,10.3c1.5-2.2,2.7-3.2,2.9-4.4c0.6-2.8,0.7-5.7,0.9-8.5c0.6-6.8,1.1-13.6,1.6-20.4
	c0.1-1.1,0.5-2.2,0.3-3.3c-2.3-13.2,2.5-26.1,2-39.3c-0.2-5.7-0.1-11.4-0.1-17.2c0.1-11.9-0.3-23.8,0.6-35.7
	c1.5-20.8,3.6-41.7,5.8-62.4c0.5-4.2,2.5-8.4,4.2-12.4c1.1-2.4,3.8-3.6,6.2-2.1c3.7,2.3,7.7,4.8,7.5,10c-0.3,6.4-0.9,12.7-1.5,19.1
	c-0.2,2.6-1.2,5.2-1.1,7.8c0,14.2-3.2,28-4.4,42.1c-0.6,6.3,0.1,12.7,0.2,19.1c0.1,6.2,0.3,12.3,0.6,18.5c0.1,1.9,0.4,3.9,0.9,5.8
	c0.9,3,2.8,4.8,6.2,4.8c16.7,0.3,33.3,4.1,50.1,1c6.2-1.2,12.6-1.8,19-2.1c4.8-0.2,9.7,0.5,14.5,0.7c10.6,0.3,21.2,1,31.2,4.6
	c6.1,2.2,12.2,3,18.6,3.1c3,0.1,4.6-0.8,5-3.8c1.3-9.6,2.8-19.2,3.9-28.8c0.9-7.9,1.6-15.8,1.8-23.7c0.2-11.7-0.1-23.3-0.2-35
	c0-7.2-0.1-14.5,0.1-21.8c0.2-6.2,4.7-11.5,10.8-12.3c1.9-0.2,4.5,0.8,5.8,2.1c1,1,1,4,0.2,5.3c-3.7,6.1-3.4,12.3-3.1,19.1
	c0.5,10-0.3,20.1-0.5,30.2c-0.1,2.7-0.1,5.3-0.2,7.9c-0.4,11-0.8,22-1.4,33c-0.1,2.2-1,4.3-1.3,6.5c-0.6,3.7-1,7.4-1.5,11.1
	c-0.3,2.2-0.6,4.4-0.6,6.6c-0.1,3.5-0.4,7,0.1,10.4c1.1,6.6-5.1,12.5-11.4,9.7c-6.4-2.8-13.1-3.6-19.8-4.6c-6.1-0.9-12-2.7-18-3.9
	c-12.2-2.5-24.5-1.9-36.9-1.6c-11.7,0.3-23.4,0.2-35,0.3c-6.6,0-13.2,0.1-19.8,0.1c-5.7-0.1-11.4-0.3-17.1-0.4
	c-1.5,0-2.9,0.4-4.9,0.7c-0.2,3.5-0.4,6.7-0.7,10c-0.3,3.5-0.7,7-1,10.5c-0.3,3-0.5,6.1-0.7,9.1c-0.3,3.5-0.6,7-0.7,10.5
	c0,3.9,0.5,7.9,0.3,11.8c-0.2,4.6-0.8,9.1-1.2,13.7c-0.3,3.7-0.4,7.4-0.6,11.1c-0.2,3.3-0.8,6.5-0.8,9.8c0,4.4,0.1,8.8,0.5,13.1
	c0.4,3.9,1.7,7.7,2.2,11.6c1.5,10-2.5,14.5-11.8,16.3c-4.7,0.9-8.8-2.2-9.6-6.9c-0.4-2.8,0-5.7,0.3-8.5c0.5-4.8,1.5-9.6-3.9-12.8
	c-1.3-0.8-1.7-3.4-2.3-5.2c-3.3-11.4-6.4-22.8-9.7-34.2c-0.5-1.7-1.5-3.2-2.6-4.6c-6.6-9-9.4-19.5-12.4-30c-0.7-2.6-1.9-4.4-4.6-4.9
	c-7.7-1.5-14.2-5.4-20.4-10.1c-2.6-2-4.1-4.2-4.2-7c-0.2-4.8,0-9.7,0.3-14.5c0.5-7.9,1.3-15.8,2-23.7c0.4-4.8,0.9-9.6,1.3-14.4
	c0.9-11.8,1.8-23.7,2.8-35.6c0.4-4.8,1.6-9.6,1.9-14.4c0.3-4.6-0.1-9.2-0.2-13.7c0-0.4-0.3-0.9-0.2-1.3c2-5.1,0.3-10.4,1.1-15.4
	c2.7-17.3,2.3-34.7,2.7-52.1c0.3-13.8,0.5-27.6,0.5-41.5c0-4.1-0.8-8.3-1.3-12.4c-0.1-1.3-0.5-2.6-0.5-3.9
	c-0.1-6.2-0.3-12.2-2.2-18.3c-2.4-7.5,2.2-10.1,6.9-10.9c5.4-0.9,9.5,2.5,10.1,8.5c0.8,7.4,1.5,14.9,2.1,22.4c0.1,1.5,0.4,3.2,0,4.6
	c-3.5,11.4,0.4,22.8,0.5,34.1c0.1,7.1,4.2,8.6,10.6,5c3.1-1.8,5.6-3.8,7.6-7c1.6-2.4,4.5-3.9,6.7-5.7c12.9,3.8,25.8,5,38.8,5.4
	c8.1,0.2,16.3,0.9,24.4,1.1c8.5,0.2,17-0.1,25.5,0.2c6.6,0.2,13.1,0.9,19.7,1.6c4.1,0.4,8.3,1.1,12.4,1.8c6.5,1.1,13,2.1,19.5,3.3
	c11.8,2.2,23.7,2.6,35.7,1.3c3-0.3,6.1-0.2,9.2-0.1c20.9,1.1,41.5,5.7,62.5,5.5c2.4,0,4.7,0,7,0c2.4-23.4,1-46.1-0.2-68.7
	c-0.1-2-0.3-4.1,0.3-5.9c2.6-7.6-0.2-14.8-1.3-22.1c-0.1-0.5-0.8-1-1.5-1.7c-1.2,1-2.5,1.8-3.5,2.9c-4.6,5.1-9.7,9.4-16.2,11.9
	c-2.1,0.8-3.9,2.6-5.9,3.9c-3.4,2.3-6.8,4.6-10.2,6.9c-9.5,6.4-16.4,15-20.6,25.7c-4.2,10.7-17.1,15.4-28.7,10.5
	c-0.8-0.3-1.5-1-2.3-1.2c-5.3-1.4-8.3-4.7-8.7-10.2c-0.4-6,1-11.3,5.6-15.5c1.6-1.4,3-3.2,4-5c4.4-7.3,12.6-9.3,19.8-4.6
	c4.3,2.8,4.3,2.8,8.1-0.8c10.1-9.5,21.3-17.5,33.8-23.5c7.6-3.7,12-9.4,14.6-17.5c2.2-6.6,3.1-13.2,3.9-19.9
	c0.8-6.8-0.3-13-4.1-18.9c-1.9-2.9-2.7-6.4-4.3-10.4c-1.3,1.6-2.5,2.7-3.3,4.1c-1.7,2.8-2.9,5.9-6.6,6.9c-1,0.3-1.9,1.8-2.5,2.9
	c-2.3,4.5-4.2,9.2-6.8,13.5c-2.4,3.9-5.2,7.5-8.2,10.9c-3.7,4.2-7.6,8.4-11.9,12.1c-2.1,1.8-5.1,2.7-7.8,3.4c-4.6,1.3-7,3.6-7,8.8
	c0,7.1-3.8,12.5-9.2,16.7c-6.3,5-13.1,3.3-20.1,1.6c-7.5-1.8-9.8-8.1-11.3-13.9c-0.9-3.6,1.1-8.1,2.4-12c1.1-3.5,2.9-6.9,4.5-10.2
	c2.7-5.6,7.9-6.7,13.4-6.6c4.6,0,9.3,0.3,13.8,0.9c7,0.9,12.7-2.3,17.2-6.7c7.2-7.1,12.8-15.5,15.6-25.4c0.4-1.5,1.7-3,2.9-4.1
	c4.2-3.7,6.8-7.8,5.1-13.8c-1.4-5-2-10.3-3.3-15.3c-0.4-1.5-1.6-3.2-2.9-4c-3.6-2.1-7.6-3.4-11.1-5.6c-4.1-2.5-8.7-4.8-11.5-8.4
	c-3.4-4.4-6-9.8-5.5-15.9c0.5-6.1,0.8-12.3,1.2-18.4c0-0.7,0.1-1.3,0-2c-1.1-14.3-2.3-28.5-3.4-42.8c-0.4-4.6-0.5-9.2-0.9-13.8
	c-0.1-1-0.8-2-1.3-3.3c-1.6,0.3-3.1,0.6-4.6,0.7c-10.6,0.5-21.4,2.1-31.9,1.1c-7.3-0.7-13.5-6.1-17.8-12.6
	c-2.8-4.2-5.4-8.4-7.9-12.8c-0.8-1.4-1.3-3.4-1.2-5c0.3-5,1.2-10.1,1.4-15.1c0.4-10.8,3.7-21.2,2.8-32.1c-0.7-8.8,0-17.6,0.4-26.4
	c0.2-3.7,1.9-7.3,1.8-10.9c-0.4-17.2-1.4-34.3-1.6-51.5c-0.1-5.8-3.3-9.9-5.8-14.5c-0.4-0.8-1.7-1.2-2.7-1.5
	c-5.1-1.2-7.2-4.5-7.4-9.5c-0.1-2.6-0.7-5.2-1-7.9c-0.2-1.7-0.6-3.8,0-5.2c4.3-9,1.9-18.2,1.3-27.3c-0.2-2.4-0.4-4.8-0.2-7.3
	c0.1-1.5,0.4-3.5,1.4-4.2c4.8-3.5,4.1-8.6,4.3-13.3c0.4-9.7-0.3-19.5,0.9-29.1c1.8-14.8,2.2-29.9,6.9-44.2
	c2.5-7.6,6.2-14.9,9.3-22.3c0.6-1.4,1.4-2.9,1.3-4.3c-0.4-6.4,4.2-8.9,8.6-11.4c8.3-4.8,16.8-9.2,25.1-14.1c1.7-1,3.5-3,4-4.9
	c1.6-5.7,3.6-11.5,3.8-17.3c0.3-8.4,3.2-16,5.9-23.6c1.9-5.3,4.9-10.2,7.1-15.5c0.9-2.2,1.3-4.7,1.5-7.1c0.5-7.2,5.8-11.2,10.5-15.4
	c1.2-1.1,4.2-0.4,6.3-0.2c3.4,0.4,6.7,2.5,10.3,0.8c0.5-0.2,1.4-0.1,1.9,0.2c6.3,3.6,12.1,7.8,15.7,14.2c4.8,8.4,6.7,17.5,6.9,27.2
	c0.1,9.5,1.4,18.9,2.3,28.3c0.1,1.4,1.1,2.8,1.7,4.2c0.7,1.6,2,3.1,2.1,4.8c0.6,7.4,4.5,13,8.7,18.6c1.3,1.7,1.9,3.8,3.7,7.3
	c0.5-4.5,1.3-7.7,1.2-10.7c-0.3-7.7-1.2-15.4-1.5-23.1c-0.4-8.5,1.5-16.7,6.4-23.8c3.1-4.5,7-8.4,10.4-12.7c3.3-4.2,8.1-6,12.8-7.8
	c4.5-1.7,7-0.8,9.4,3.4c1.2,2.3,1.9,4.9,2.7,7.4c0.5,1.3,1,2.7,1.7,4.8c4-5.3,9-7.2,14.4-8.3c9.9-2.1,19.2,3.1,22.2,12.7
	c0.4,1.2,1,2.9,0.4,3.8c-3.3,5.5-4.4,12.5-10.2,16.3c-1,0.7-2.4,1.2-3.6,1c-6.6-0.6-13.1-1.6-18.2-6.3c-0.6-0.5-1.3-0.9-2.8-1.8
	c0.4,5.8-0.7,10.5,2.9,15.1c3.7,4.8,5.6,10.9,9.1,15.9c3.3,4.7,7.7,8.7,11.8,13.2c2.5-5.7,5.2-10.8,6.9-16.1c1-3,1.1-6.6,0.7-9.8
	c-1.1-8.8,4.6-14.2,9.9-19.1c3-2.8,8.4-3.3,12.9-3.9c3.8-0.5,8.3,4,9.1,8c0.4,1.9,0.5,3.9,0.8,5.9c0.3,1.7,0.6,3.3,1.2,6.3
	c1.6-2.8,2.5-4.4,3.4-6.1c3.3-6.5,7-7.8,14.1-6.6c3.5,0.6,7.5,0.1,11-0.9c6.2-1.8,11.5-0.4,17.2,2c8.3,3.6,13.2,9.8,16.5,17.8
	c1.8,4.5,2.3,8.8-0.4,13.2c-2,3.3-3.6,7.1-4.8,10.8c-1.3,3.9,0.3,6.1,4.4,6.1c4.8,0,9.7-0.2,14.4-0.8c6.5-0.9,10.4-4.8,10.5-11.4
	c0.1-8.1-0.1-16.3-1.1-24.4c-1.1-8.8-2.1-17.5,0-26.2c0.1-0.4-0.3-0.8-0.6-1.8c-8.4-2.1-17.1-4.2-26.2-3.8
	c-9.8,0.4-19.3-1.2-28.9-2.6c-4.3-0.6-8.8-0.3-13.1-0.1c-5.7,0.3-11.3,1-17,1.4c-1.7,0.1-3.5-0.1-5.2-0.5c-4.9-1-9.9-2.1-14.8-3.3
	c-3.2-0.8-6.4-1.6-9.5-2.9c-3.3-1.4-4.5-4.3-2.5-6.9c5.6-7.2,9.8-16,19.9-18.3c2.1-0.5,4.3-0.7,6.5-0.6c6.3,0.1,12.7,1.1,18.8,0.2
	c2.8-0.4,6.1-0.7,8.7-1.8c5.5-2.2,9.7-0.5,14.6,3.1c0.4-2,1.1-3.3,1-4.6c-0.4-5.4-0.2-10.5,2.9-15.3c2.8-4.4,1.1-8.9-0.4-13.7
	c-6.4-0.1-9.9-4.3-12.3-9.5c-4.3,0.2-6.4,2.3-6.9,6.1c-0.1,0.4-0.2,0.9-0.2,1.3c-2.5,10.1-8.7,13.1-18.2,9c-1.5-0.7-3.3-0.8-5-1
	c-6.3-0.5-8.8-3.4-7.7-9.5c0.7-3.9,1.8-7.7,2.8-11.5c1.2-4.5,0.6-6.5-3.3-8.8c-6.7-4-16.4-2.4-21.5,3.8c-3.3,4-6.7,8-9.8,12.2
	c-6.7,9.2-6.7,19.6-5.7,30.3c0.3,3.4,0.1,6.9,0.1,10.4c0,0.9-0.2,1.7-0.3,2.6c-0.1,1.9,0.6,4.4-0.4,5.6c-1.8,2.3-4.3,4.4-6.9,5.7
	c-5.5,2.7-10.9-0.4-11.4-6.5c-0.3-3.7,0.3-7.4,0.6-11.2c0.3-2.8,1.2-5.7,1.1-8.5c-0.4-10.3,3.1-19.8,6.2-29.4c0.6-2,1.9-3.9,3.2-5.6
	c4.3-5.8,8.6-11.6,13.2-17.2c1.4-1.7,3.6-2.9,5.6-4.2c6-3.8,12.7-5.8,19.8-6.5c2.5-0.3,3.2-2,2.9-4.3c-0.5-3-0.9-6.1-1.5-9.1
	c-1.7-9.4-1.1-18.9,3-27.2c3.6-7.5,7.4-15.7,15-20.1c5.2-3,11.1-6,17.7-2.7c1.1,0.6,2.8,1.2,3.7,0.8c8.1-4.1,13,1.2,17.6,6.2
	c3,3.3,5.4,7.5,7.1,11.7c2.7,6.4,4.9,13.1,6.8,19.8c2.2,7.6,0.8,15.3-0.3,23c-0.8,5.5-0.2,6.5,5.2,7.7c2.6,0.5,5.3,0.7,7.8,1.4
	c4.6,1.2,9.1,2.6,15,4.3c2.7-1.6,6.8-4.5,11.9-2.4c0.5,0.2,1.5,0.1,1.9-0.3c5.5-4.9,13.3-7.4,15.8-15.3c0.5-1.7,0.8-3.6,1.9-4.9
	c7.1-8.3,9.2-18.9,13.7-28.4c7.6-15.8,14.9-31.7,26.1-45.5c2.7-3.4,8-4.4,11.2-2.2c3.9,2.7,5.2,7.5,3.1,11.6
	c-8.2,16.2-16.8,32.3-24.5,48.8c-5.5,11.9-9.9,24.2-14.9,36.4c-5.9,14.2-12,28.3-17.7,42.6c-1.8,4.4-2.6,9.1-3.9,13.7
	c-0.8,2.5-1.8,5-2.6,7.5c-0.8,2.4-2.1,3.9-5.2,2.3c0.2,3,0.4,5.3,0.6,7.7c0.3,4.3,2.6,5.6,6.7,4c0.8-0.3,1.5-1,2.3-1.2
	c4.7-1.5,9.6,1.7,10.1,6.6c0.8,6.6,0.8,6.6,7.2,6.9c3.1,0.2,5.7-0.1,8.6-2c5.8-3.7,8.3-3,12.6,2.8c2.4,3.2,6.1,5.4,7.1,10
	c1.6,7.2-1,11.6-8.3,11.1c-8.3-0.5-16.5-2.2-24.7-3.3c-6.2-0.8-12.5-1.4-18.5-2.1c-5.1,6.9-4.6,14.3-3.4,21.4
	c1.3,8.1,2.8,16.1,1.8,24.2c-0.7,5.2-1.5,10.5-3.3,15.4c-2.1,5.7-7.4,8.5-12.8,10.7c-1.9,0.8-3.7,1.9-5.7,2.9
	c2.2,5.3,4.2,9.9,6.2,14.7c12.2,1.4,24.4,2.7,36.9,4.1c2.4-3.2,2.3-7,2.1-10.6c-0.4-7.9-0.5-15.6,0.6-23.6c1-7.9-0.4-16.2-1.1-24.3
	c-0.6-6.6,3.4-10.1,9.6-7.7c3.4,1.3,6.3,3.2,6.7,7.4c0.8,9.4,1.8,18.8,2.3,28.3c0.2,4.4-0.5,8.8-0.5,13.2c0,3.7,0.2,7.4,0.8,11
	c0.5,3.1,2.3,5.5,5.6,6.8c2,0.8,3.5,2.6,5.4,3.7c4.1,2.4,6.5,1.2,7.6-3.3c1.2-5.2,1.7-10.3,1.4-15.7c-0.2-6.1,1-12.2,1.1-18.3
	c0-8.5-0.8-17.1-0.6-25.6c0.1-4,1.7-8.1,2.9-12c1-3.1,3.5-3.4,6.4-3.3c3,0.1,4.4,1.4,4.9,4.2c0.9,4.6,5.5,4.3,8.5,6.8
	c2.6-3.5,5.7-4.9,9.8-4.2c2.6,0.5,3.9,1.7,3.9,4.4c0.3,9.9,0.8,19.8,0.8,29.6c0.1,8.6-0.4,17.1-0.6,25.7c-0.1,6.9,1,7.9,8.1,7.6
	c3.8-0.2,7.5-0.4,10.7-2.9c1.1-0.9,2.8-1.2,4.3-1.5c5.4-0.9,6-1.6,5.9-7.2c-0.2-5.7-0.3-11.4-0.3-17.2c0-8.9,2-10.6,11.6-8.9
	c2.1-3.4,4.7-7,9.2-7.3c4.7-0.3,8.2,1.7,7.8,7.2c3.9,0,7.1,0,10.2,0c0.2-0.8,0.4-1.3,0.4-1.7c-1-4.9-5.7-6.2-8.6-9.1
	c-3.3-3.4-5.8-5.9-10.9-5.5c-6.2,0.4-11-4-16.2-6.6c-10.6-5.3-21-10.8-32.6-14.2c-10.5-3.1-20.7-7.6-29.8-14c-6-4.2-6-8.7-0.2-13
	c1.4-1,2.7-2.3,3.8-3.6c6.1-6.7,14.7-8.9,23.2-5.4c2.7,1.2,5.2,3.2,7.5,5.2c5,4.5,9.6,9.3,16.3,11.9c4.1,1.5,7.5,5,11.3,7.5
	c1.2,0.8,2.7,1.6,4.1,1.8c5.8,0.8,10.8,3.4,15.7,6.5c7.8,5,15.7,9.7,23.5,14.5c0.2,0.1,0.5,0.1,0.6,0.2c7.7,9.2,19.6,12.5,28.5,20.2
	c7.8,6.7,16.6,12.1,26.4,15.8c3.4,1.3,6.7,3.7,10.1,5.6c4.7,2.6,8.9,1.7,13.3,0c2.8-1.1,5.5-2.7,8.1-4.3c0.8-0.5,1.7-1.7,1.6-2.5
	c0-0.9-1-2-1.8-2.5c-1.1-0.6-2.5-0.8-3.8-0.9c-3.3-0.2-4.9-1.9-5.9-5.1c-2.9-8.8-1.8-11.3,6.3-14.2c4.7,2.3,8.8,4.1,12.6,6.4
	c2.3,1.4,4.6,3.3,6.2,5.5c2,2.5,3.9,3.6,7.2,3.3c3.2-0.3,6.5,0.3,9.7,0.7c7.2,1,14.3,2,21.4,3.2c3,0.5,6.1,1.1,8.9,2.3
	c1.2,0.5,2.5,2.8,2.4,4.1c-0.1,1.2-2.1,3-3.4,3.2c-3.5,0.5-6.9,3.5-10.7,0.6c-0.8-0.6-2.5,0.2-3.9,0.2c-2.4,0-4.7-0.3-7.1-0.4
	c-3.3-0.1-6.8-1.1-9.8-0.1c-6.7,2.1-13,5.2-19.5,7.9c-3.2,1.3-6.4,2.8-9.7,4.2c-8.1,3.3-15.1,8.9-23.6,11.5c-3,0.9-5.5,3.4-8.5,5.3
	c8.6,7.9,18.1,13.2,27.8,18.2c3.5,1.8,6.9,3.9,10.4,5.8c7.7,4.1,15.6,7.9,23.2,12.2c7.6,4.3,14.9,9.1,22.3,13.7
	c0.7,0.5,1.6,0.9,2.4,1c9.7,0.5,19,3.5,28.9,2.8c12.5-0.9,25.1-0.8,37.7-1.1c5.3-0.2,10.6-1,15.9-0.7c10.6,0.5,21.1,1.2,31.6,2.3
	c8.2,0.8,16.2-0.4,24.3-1.7c3.7-0.6,7.4-1.5,11.1-1.7c13.1-0.7,26.3-1.2,39.4-1.8c1.1,0,2.3-0.1,3.2-0.5c7.7-3.8,15.8-6.7,22-13
	c3.4-3.4,6.9-6.7,10.7-9.7c2.5-2,5.7-3,8.1-4.9c3.5-2.8,3.5-5-0.1-7.1c-4.2-2.5-7.5-6.7-13.4-6.5c-2.4,0.1-5.3-1.9-7.4-3.7
	c-6.2-5.2-14.2-4.6-21.1-7.4c-2.6-1-5.3-1.9-7.9-2.8c-5.7-2.1-11.5-4.2-17.2-6.4c-2.6-1-5.2-2.1-7.8-3.1c-2.2-0.9-4.4-1.7-6.7-2.6
	c-2.4-1-5.2-1.5-7.2-3.1c-3.6-2.8-7.8-3.8-11.8-3.7c-9.4,0.1-18.8,0.9-28.2,1.9c-5,0.5-5.3,1.4-5.4,6.5c-0.2,11.7-0.2,23.4-0.5,35
	c-0.1,3.5-0.5,7-1.2,10.5c-1.1,5.9-5.5,9.2-11.5,9.8c-4.3,0.5-8.7,1.3-12.9,2.4c-5.9,1.5-11.5,1-17.5,0c-6.7-1.1-12.5-4.4-18.9-6.1
	c-6.7-1.8-12.7-6.8-14.1-14.4c-0.8-4.4,0-9.1,0.5-13.6c0.5-5.2,2-10.4,2-15.6c0-16.5-0.6-33-1-49.6c-0.2-9.4-0.7-18.8-0.9-28.3
	c-0.1-2.6-1.3-4.4-3.7-4.8c-3.5-0.5-5.2-3-7.2-5.2c-8-8.5-16-16.9-24-25.4c-2-2.1-4-4.2-5.5-6.5c-3-4.7-2.1-7.9,1.4-12
	c2.2-2.5,3.2-6.1,4.6-9.2c0.3-0.8,0-1.9,0.4-2.6c5.5-7.6,3.7-16.3,3.8-24.7c0-5.7-0.3-11.4-0.5-17.1c-0.1-3.9,1.5-5.8,5.6-6.9
	c4.2-1.2,8.5-2.4,12.6-3.8c2.4-0.8,4.6-2.2,6.8-3.5c5.7-3.5,12-3.6,18-2.3c7.4,1.6,15.3,2.2,21.9,6.8c1.7,1.2,4.2,1.8,6.3,1.6
	c14.6-1.4,28.9,1.7,43.3,2.8c3.7,0.3,7.4,0.9,9.9,4.5c1.8,2.7,2.9,5.3,2.2,8.6c-0.6,2.8-0.9,5.6-1.2,8.5
	c-0.9,11.6-2.2,23.2-2.3,34.8c-0.1,12.6-0.7,25-3.3,37.4c-0.7,3.4-0.1,7-0.4,10.6c-0.5,6.4-1.2,12.6-7.6,16.7
	c-4.2,2.6-5.3,7.9-5.8,12c-1.1,8.2-0.5,16.7-0.6,25.1c0,0.8,0.6,1.6,0.8,2.1c10.2,0.8,20,1.6,29.9,2.5c1.3,0.1,2.8,0.2,3.8,0.8
	c10.2,6.6,22.1,9.5,33.2,13.9c10,3.9,19.9,8.2,29.9,12.2c4.7,1.8,9.8,2.6,14.2,4.9c8.8,4.5,18.3,7.5,27.6,10.4
	c9.2,2.9,18.2,6.4,27.1,10c3.8,1.6,7.6,3.5,11.2,5.5c3.4,1.9,4.6,7.2,2,10.5c-2.9,3.8-4.2,8.2-5.4,12.6c-0.4,1.4-0.6,3-0.4,4.5
	c1.2,8.5,3.8,10.5,12.6,11.2c9,0.7,17.9,1.9,26.8,2.9c1.3,0.1,2.6,0,3.9-0.2c8.7-1.6,16.8,2.1,25.3,2.9c1.2,0.1,2.2,1.3,3.6,2.1
	c2.4-2.6,5-2.7,8.3-1.7c3.1,0.9,6.6,0.3,9.8,0.8c12.1,2,24.1,4.8,36.2,6.2c6.1,0.7,12.4,2.3,18.6,0.4c0.4-0.1,1-0.3,1.3-0.2
	c6.7,5,15.3-1.2,22.1,3.7c0.5,0.3,1.6-0.4,2.5-0.4c3.9,0.2,7.8,0.2,11.7,0.7c4.1,0.5,8.1,4.2,12.3,0.1c0.2-0.2,1.2,0.2,1.8,0.3
	c1.7,0.2,3.4,0.4,5.1,0.5c1.8,0,3.6-0.4,5.3-0.2c7.6,1,15.1,2.2,22.7,3.4c4.8,0.7,9.5,1.7,14.3,2.3c7.4,1,14.8,2.5,22.2,2.6
	c6.9,0.1,13.7,1.8,20.8,0.3c4.3-0.9,9.1,0.8,13.7,1.6c3,0.5,5.8,1.8,8.7,2.5c1.2,0.3,2.7,0.1,3.7-0.5c3.5-2.1,7.1-1.6,10.9-1.1
	c6.7,1,13.6,1.5,20.4,2c7.6,0.5,15.2,1.1,22.9,1.1c3.5,0,6.9-1.3,11-2.2c1.7,0.5,4.3,1.6,6.9,2.1c4.8,1,5.9,0.2,6.8-4.3
	c0.9-4.3,1.9-8.6,2.9-12.9c1.2-4.9,1.2-9.5-2.2-13.7c-3.9-4.8-7.6-9.7-9.2-15.8c-0.4-1.5-1.9-2.9-3.1-4.1
	c-4.2-4.4-8.3-8.8-11.2-14.3c-2.1-4-5.8-7-8.5-10.7c-1.1-1.5-2.1-3.3-2.2-5.1c-0.3-3.9-2.3-7.2-5.2-8.8c-6.1-3.3-9.7-9.1-13.7-14.1
	c-6.4-7.9-11.7-16.8-17.5-25.2c-8.2-11.8-16.5-23.6-24.7-35.5c-2.1-3.1-4.1-6.2-6.1-9.3c-6.1-9.1-12.4-18.1-18.1-27.5
	c-3.7-6.2-8.9-11-12.9-16.9c-6.7-9.8-14.2-19.1-20.6-29c-7.4-11.4-14.1-23.3-20.8-35.1c-1.1-1.9-1.8-5.2-0.9-6.8
	c2.9-5.1,6.6-9.7,10.3-14.3c0.9-1.2,3-1.4,4.8-2.2c12.4,19.2,24.9,37.8,36.5,56.9c6.6,10.9,13.4,21.5,21.6,31.2
	c8,9.4,13.8,20.2,20.6,30.4c3.3,5.1,7.5,9.7,11.3,14.5c1.5,1.9,3.4,3.5,4.3,5.7c3.3,8.1,8.9,14.6,14.3,21.2c1.9,2.3,2.8,5.5,4.7,7.9
	c4.8,5.7,9.4,11.4,12.7,18.2c1.5,3.2,5.1,5.4,7.4,8.3c5.3,6.5,9.8,13.7,15.8,19.3c3.3,3.1,5,7,8.1,10c2.9,2.9,6,5.7,8.7,8.7
	c5,5.5,9.7,11.2,14.6,16.7c2.2,2.4,5,4.3,7.2,6.7c2.5,2.7,5.3,5.5,6.8,8.8c1.2,2.5,1.6,6.6,0.4,8.8c-3.4,6.1-3.5,12.7-4.6,19.2
	c-2.1,13.2-4.2,26.5-6.3,39.7c-0.1,0.7-0.3,1.3-0.3,1.9c-0.9,17.4-4,34.5-6.9,51.6c-0.8,5-1.8,9.9-2.3,15c-0.5,4.5,0.5,8.9-0.4,13.7
	c-1.7,9.4-1.8,19.1-2.8,28.7c-1.1,10.5-2.6,20.9-3.8,31.4c-0.5,4.4-0.8,8.8-1.2,13.2c-1.1,11.4-2.3,22.8-3.5,34.2
	c-0.9,8.8-1.7,17.5-2.8,26.2c-0.2,1.9-1.2,3.7-2.2,6.7c5.1,8.5,10.7,17.6,16.2,26.8c1.7,2.8,3.2,5.8,4.8,8.7c0.5,1,0.7,2.2,1.4,3
	c6.8,7,10.7,15.9,15.6,24.1c2,3.3,5,5.8,6.6,9.6c2.2,5.4,6.1,10.1,8,15.6c2.7,7.7,8.8,12.5,13.4,18.6c3.5,4.6,3.9,5.8,3.5,10.5
	c3.1,2.5,6.6,4.6,9.1,7.4c2.5,2.9,3.9,6.6,5.9,10.1c0.6-0.4,1.4-0.7,1.4-1.2c0.7-5.8,1.5-11.7,1.8-17.5c0.3-5.7,2.2-10.7,4.8-15.6
	c0.5-1,1.5-1.8,1.8-2.8c1.3-5.7,3.6-11.5,3.5-17.2c-0.1-4.9,0.8-9.4,2.5-13.4c3.4-8.3,2.3-16.8,2.6-25.3c0.1-3.3-0.2-6.9,1.1-9.8
	c2.9-6.6,2.7-13.4,2.4-20.2c-0.3-5.2,0.7-10,1.7-15c0.9-4.5,0.7-9.2,1.6-13.6c3.5-18.2,5.7-36.6,7.4-55c0.6-6,2.2-11.5,3.8-17.2
	c1.7-5.6,1.7-11.7,2.4-17.6c0.6-5.2,1.2-10.5,1.8-15.7c0.3-2.4,1-4.8,0.8-7.2c-0.3-5.5,2.2-9.2,6.7-12.2c5.8,1.4,10.2,4.1,12.8,10.1
	c1.6,3.7,4.5,7,7.5,9.7c3.3,2.9,5.7,6.1,6.8,10.2c2,8.1,7,14.7,11,21.7c5.5,9.7,11.8,19,17.7,28.4c0.7,1.1,1.2,2.4,1.5,3.6
	c0.9,4.2,2.7,7.9,5.9,10.8c0.9,0.8,1.4,2.2,2,3.3c3.8,7.1,7.1,14.4,13.2,20.1c2.3,2.2,3,6.2,4.2,9.5c1,2.6,1.5,5.2,4.6,6.8
	c2,1.1,3.3,4,4.4,6.3c2.8,5.7,5.4,11.5,9.9,16.3c1.7,1.8,2.3,4.5,3.5,6.8c-4.3,3.3-8.4,4.4-13,2.2c-2,5,0.3,8.7,1.6,13.2
	c-2,1.9-4.2,3.9-7,6.6c-2.9-3.7-6.3-6.5-7.7-10.1c-2.5-6.6-6.3-12.3-9.4-18.5c-4.5-8.8-11.5-16.2-14.9-25.3c-1.5-4-5-5.1-6.8-8.4
	c-5.7-10.5-11.8-20.8-17.8-31.1c-2.8-4.9-6.7-9.1-8.3-14.8c-0.5-1.7-2.3-3-4.4-5.8c-1,6.3-2,11.1-2.6,15.9
	c-1.4,12.4-2.6,24.8-4.1,37.1c-0.3,2.5-1.7,4.8-2.5,7.2c-0.4,1.2-1.1,2.5-0.9,3.6c2.5,10.3-1.9,19.8-3.4,29.7c-0.1,1-1,2-0.8,2.8
	c2,7.4,0.5,19.3-2.8,25.8c-1.2,2.4-2.3,5.5-1.9,8.1c1.6,11.8-0.1,23.4-0.9,35.1c-0.7,9.7-4.3,19.3-4.8,29c-0.8,14.6-6.8,28.3-5.9,43
	c0.2,3.6-0.6,7.4-1.3,11.1c-1.6,7.9,0.6,14.3,5.5,20.7c5.3,6.9,9.3,14.7,12.8,22.8c3,7,7.6,13.3,11.8,19.8c2.8,4.4,6.9,8.1,6.6,14
	c0,0.8,0.4,1.8,1,2.2c4.6,3.3,6,8.7,8,13.3c3.5,8.1,10,13.9,14.4,21.3c0.6,0.9,1.4,1.7,1.9,2.7c2.3,4.7,4.8,9.2,7.9,13.6
	c2.3,3.3,3.2,7.7,4.7,11.6c0.6,1.6,0.6,4.2,1.7,4.8c6.3,3.5,7,11,11.4,15.6c9.5,10,13.2,23.2,20,34.7c2,3.5,3.6,7.2-0.1,10.9
	c-5.4,5.4-6.2,6.4-14.3,0.4c-1.6,3.4-2.9,6.8-4.7,9.9c-3.5,6.3-4.5,6.7-11.7,5.2c-4.3-0.9-8.6-1.9-12.9-2.9c-0.8-0.2-2-0.2-2.5-0.8
	c-4.1-5.3-9.8-2.7-14.7-2.7c-1.9,0-3.8,3-6,4.8c-0.6-0.5-1.5-1-1.7-1.7c-1.6-5.4-5.8-6.6-10.7-6.8c-5.5-0.3-10.8-0.6-16.1-2.9
	c-3.4-1.5-7.7-1-11.6-1.6c-2.4-0.4-4.7-1.2-7-1.9c-2.7-0.9-5.3-2.1-8.3-0.8c-0.4,0.2-0.9,0.2-1.3,0.1c-8.7-1.1-17.4-2.1-26.1-3.2
	c-6.8-0.9-13.5-1.4-20.1,1.6c-5.6-2.3-7.5-8.2-11.4-12.1c-1.1-1.1-2.3-3-3.2-2.9c-7.8,1.4-14.9-5.1-22.9-2c-0.9,0.3-2.1-0.4-3.2-0.5
	c-10.3-0.8-20.6-1.8-30.9-2.1c-5.3-0.2-6.2,1.5-7.4,7.1c-0.5,2.2-2.1,4.1-3.3,6.2c2.2,2.3,4.5,5.1,7.3,7.4c1.4,1.2,3.5,1.6,5.4,2
	c2.6,0.6,5.4,0.3,7.8,1.3c5.2,2.1,10.7,2,16.1,2.7c2.1,0.3,4.2,0.7,6.3,1.1c1.3,0.2,2.7,0.8,3.9,0.6c7.8-1.9,15.1,1.2,22.6,2.2
	c3,0.4,6.1,0.6,9.1,0.9c1.1,0.1,2.4-0.3,3.2,0.3c5.5,3.7,11.9,4.9,18.1,6.8c6.3,2,10.3,8,10.3,15c-0.1,8.8,4.9,12.6,13.6,10.2
	c2-0.6,3.6-0.1,5.6,0.1c5.7,0.7,11.4,0.9,16.9,3.1c1,0.4,2.8-1,4.2-1.6c2.8-1.1,5.7-3.2,8,0.8c0.2,0.4,1.2,0.7,1.7,0.7
	c8.2-1.2,15.3,3.1,22.9,4.6c2.3,0.4,4.6,1.9,6.7-0.5c0.4-0.5,1.7-0.8,2.4-0.6c2.9,0.8,5.8,1.7,8.7,2.6c0.8,2.8,1.5,5.7,2.5,9.4
	c-4.2-0.9-8-1.8-11.8-2.5c-1.8-0.3-4.5-0.9-5.5,0c-2.9,2.7-5.6,2.6-9.1,1.9c-3.1-0.6-6.7,0.6-9.7-0.2c-4.8-1.2-10-1.3-13.9-4.9
	c-2.2-2-4.6-3.8-7.4-0.8c-0.3,0.3-0.8,0.6-1.1,0.5c-4-1.2-8-2.4-13.1-3.9c0,0-0.9,0.9-2.1,1.4c-1.5,0.7-3.3,1.7-4.8,1.5
	c-2.2-0.3-4.3-2.1-6.5-2.4c-1.8-0.3-3.3,3.3-5.7,0.6c-0.3-0.3-1.3-0.2-1.8,0c-6.6,2.4-13,0.7-19.6-0.2c-2.8-0.4-5.6-0.1-9.5-0.2
	c-0.4-0.8-1.4-2.6-2.5-4.6c-1.4,0-3.6,0.7-4.3-0.1c-5.1-5.2-9.9-1.1-14.5,0.5c-2.7,1-4.9,1.3-7.5,0.2c-5.2-2.1-10.6-1.4-16.1-1.5
	c-6.2-0.1-12.8,1.5-18.9-1.7c-1.2-0.6-2.9-0.4-4.3-0.2c-3.9,0.5-7.8,1.2-11.8,1.8c-0.7,0.1-1.4,0.3-2,0c-5.7-2.5-11.8-2.6-17.7-3.6
	c-2.3-0.4-4.2-1.5-6.9-0.8c-1.3,0.3-3.2-1.6-5.4-2.7c-8.2,1.7-17.1,2-26,0.5c-5.3-0.9-10,0.8-14.7,2.5c-2.5,0.9-4.6,1.4-7.4,0.4
	c-3.2-1-6.9-0.4-10.4-0.6c-2.4-0.1-4.8-0.3-7.2-0.6c-3.8-0.5-6.8,0.6-9.6,3.4c-5.1,5.1-10.2,10.1-15.6,14.9
	c-1.8,1.6-4.3,2.3-6.1,3.9c-3.7,3.4-7.5,6.9-10.3,11c-3.1,4.4-8.1,5-12,7.6c-1.9,1.3-3.7,2.9-5.4,4.4c-1,0.9-1.6,2.2-2.7,2.8
	c-6.1,4-10.4,9.7-14.6,15.4c-0.5,0.7-1.1,1.6-1.8,1.9c-8.2,2.7-11.2,10.8-16.6,16.3c-2.8,2.8-2.9,5.7-0.5,8.8c0.8,1,1.8,2.4,1.7,3.5
	c-0.2,5.9,4.3,7.7,8.3,9.7c2.6,1.2,5.4,2,8,3c1.4,0.5,2.8,1.1,4.1,1.9c2.3,1.3,4.9,2.7,4.1,6c-0.8,3.1-4,3.8-6.4,3.8
	c-5.5,0-11-0.4-16.3-1.5c-4.2-0.8-8.2-3.4-12.4-4.1c-6.1-1-10.6-4.6-15.8-7.2c-5.1-2.5-11-3.3-16.2-5.6c-8.8-3.9-17.4-8.3-24.5-15.2
	c-1.1-1.1-2.4-2.3-3.7-2.5c-5-0.6-6.6-4.9-9.1-8c-2.1-2.7-0.9-5.8,2.5-6.7c2.9-0.8,6.1-0.9,9-0.5c8,1.2,15.5,0.1,23.1-2.5
	c3.2-1.1,6.9-1.3,10.3-1.3c6.4-0.1,12.9,0.9,18.7-2.5c6.4-3.7,13.5-6.1,19.9-9.5c5.5-2.9,9.3-9,13.9-13.6c8-8.1,10.9-18.6,13.1-29.3
	c0.4-1.8,0.2-4.2-0.6-5.8c-3.2-6.2-1.4-12.6-1.3-18.9c0.1-3.4,1.8-4.3,5.3-3.9c1.3,0.2,2.9,0.8,3.8,0.3c4.7-2.8,9.4-1.4,14.1-0.3
	c1.3,0.3,2.8,0.9,3.9,0.5c3.5-1.2,6,0.5,9.2,1.5c7.5,2.2,15.5,3,23.3,3.9c5.2,0.6,10.7-0.4,15.8,0.5c9.1,1.6,18,0.1,27-0.4
	c6.8-0.4,13.6-0.5,20.5-0.5c3.7,0,7.4,0.5,11.2,0.5c9.1,0.1,16.8,4.3,24.7,8.2c1.2-0.9,2.3-1.8,3.8-3c1.3,1.4,2.4,2.7,3.6,4
	c0.6-0.2,1.3-0.3,1.7-0.8c3.9-4.2,8.9-4.6,14-3.4c2.8,0.6,5.1,1.3,8.2,0.1c2.5-1,5.9,0.1,9,0.4c1.3,0.1,2.6,1,3.8,0.8
	c4.1-0.9,6.9,0.6,8.4,4.4c1.6-0.7,2.8-1.8,3.4-1.5c5.7,2.5,11.2,0.2,16.5-0.8c5.9-1.2,11.1,1.9,16.8,2c3.2,0,5-0.7,6-4.1
	c-2.4-3.1-5.2-5.1-9.6-5.5c-4.7-0.5-9.4-2.1-14-3.3c-3.4-0.9-6.7-2.4-10.1-2.8c-9.6-1.1-19.2-1.8-28.8-2.8c-2.4-0.2-4.8-0.8-7.1-1.5
	c-8.9-2.6-17.8-5.1-27.1-5.1c-2.8,0-5.7-0.6-8.5-1.4c-4.8-1.4-10,0.1-14.7-2.6c-1.4-0.8-3.8,0.5-5.8,0.6c-6.9,0.4-13.9,2.4-20.8-0.4
	c-7.7,2.5-14.5-2.7-21.9-2.7c-7.5,0-15.1-1.2-22.4-0.4c-8.8,1-17.3,0-25.9-1.5c-0.9-0.2-2,0.7-3,0.9c-1.2,0.2-3,0.6-3.7,0
	c-4.3-3.6-9.2-3.6-14.5-3.3c-5.8,0.3-11.6-0.8-17.4-0.6c-3.1,0.1-6.4,1.1-9.2,1.8c-5.4,1.4-8-1.4-10.8-4.2c-2.1-2.1-3.6-4.9-5.8-8
	c4.7-1.9,7.9-5.9,13.3-6.2c1.7-0.1,3.5-1.2,5.1-2.2c3.2-1.9,4.5-1.6,5.8,2.1c0.4,1.2,0.8,2.4,1.1,3.4c6.1,0,11.7,0,17.4,0
	c0.4,0,0.9-0.2,1.3-0.1c5.4,1.3,10.8,2.7,16.2,4.1c1.4,0.4,2.8,1.1,4.2,1.3c7.5,0.9,15.1,1.3,22.6,0.8c3.7-0.2,7.6-0.4,11.2,0.1
	c10.1,1.6,20.2,0.7,30.3,0.8c3.9,0,7.8,1.3,11.7,1.4c6.8,0.2,13.6,0.1,20.4,0.1c6.4,0,9.1-2.6,9.3-8.8c0.3-7.5-3.2-11.2-10.7-12.3
	c-7.3-1.1-14.5-2.7-21.8-4.1c-1.7-0.3-3.5-1.1-5.2-0.9c-7.4,1.2-14.3-1.3-21.4-2.6c-0.9-0.2-1.9-0.6-2.6-0.3
	c-6.2,2.6-12.4,0.4-18.1-0.9c-4.3-1-8.3-0.2-12.3-0.7c-4.1-0.5-8.1-1.3-12.1-2c-0.4-0.1-1-0.3-1.3-0.1c-6.2,4-12.4,0.2-18.6,0.1
	c-2.7-0.1-5.4-2.2-8.1-2.2c-9.1-0.2-18.2,0-27.3,0.2c-1.1,0-2.1,1.3-3.3,2.1c-2.4-3-4.7-6-7.4-9.4c2.2-3.3,4.2-6.7,6.6-9.8
	c2.6-3.2,6.5-3.2,9.7-1.8c13.7,6,28.2,6.2,42.7,6.4c2.4,0,4.7,0.7,7.1,0.8c2.9,0.1,6-0.4,8.8,0c9.3,1.3,18.5,3.3,27.8,4.4
	c6.1,0.7,12.3,1,18.4,0.6c8.7-0.6,16.9,1.4,25.2,3.2c6.2,1.3,12.5,2,18.8,2.7c5.4,0.6,10.9,1.1,16.3,1.4c1.1,0.1,2.3-0.6,4.5-1.3
	c-4.9-2.9-9.4-2.1-13.5-3.2c-2.9-0.8-6-1.4-8.8-2.4c-2.9-1-5.6-2.8-8.6-0.2c-0.6,0.5-2.3,0.4-3.1-0.1c-6.7-3.9-14.6-5.1-21-9.4
	c-0.3-0.2-0.9-0.6-1.2-0.4c-4.5,2.1-7.9-1.4-11.9-2.1c-7.7-1.4-15.4-2.8-23-4.7c-8-1.9-15.8-4.3-23.7-6.6c-1.4-0.4-3-1.1-4.1-2.1
	c-6.2-5.7-14.3-7.4-21.8-10.5c-1.1-0.5-2.6-0.4-3.7-0.2c-5.1,1.1-10.2,3-15.3,3.3c-12.5,0.7-25,2.1-37.4-1.5
	c-5-1.4-10.5-1.1-15.8-1.6c-5.3-0.4-10.5-0.8-15.8-1.3c-0.9-0.1-1.8-0.2-2.6-0.6c-8.7-3.5-17.4-7-26.1-10.5
	c-2.2-0.9-4.4-2.1-6.7-2.8c-10.8-3.3-20.5-8.9-30.3-14.2c-2.7-1.5-5.6-2.4-8.4-3.7c-12.6-5.6-23.6-13.7-33.9-22.6
	c-7.2-6.1-14.2-12.4-21.3-18.6c-1-0.8-2-1.6-2.9-2.2c-3.3,0.8-3.1,3.2-3.2,5.3c-0.2,5.9-0.1,11.9-0.6,17.8
	c-0.7,8.2-3,15.1-12.2,18.3c-5,1.7-9.2,5.7-13.8,8.7c-4.9,3.1-9.9,6.3-14.9,9.3c-1.7,1-3.8,1.3-5.5,2.2c-6.2,3.2-12.5,6.3-18.5,9.9
	c-3.5,2.1-6.7,4-11,3.5c-1.4-0.2-3.5,0.8-4.6,1.9c-4.6,4.7-10.4,5.8-16.5,6.2c-5.3,0.4-8.8-2.8-10.7-7.3c-1.8-4.6-4.1-8.3-8.6-11.1
	c-3.6-2.2-6.2-6.1-9.2-9.3c-7.8-8-15.4-16.1-25.1-22c-5.3-3.3-9.9-7.9-14.6-12.1c-4.7-4.2-8.9-8.9-13.5-13.2
	c-4.4-4-9.6-6.7-15.7-5.2c-9.2,2.3-18.4,0.5-27.6,0.4c-6.2-0.1-12.3,0.3-18.5,0.5c-6.4,0.3-11.9,3.1-16.9,6.8
	c-8,5.9-14.5,13.3-21.2,20.5c-8.4,8.9-16.3,18.2-26.1,25.7c-2.3,1.8-4.3,4.1-6.7,6.3c3.7,5.1,8.8,7.8,13.5,10.9
	c10.5,6.8,21.2,13.2,30.4,21.7c0.6,0.6,1.3,1.3,2.1,1.6c11.2,4.1,17.8,13.9,26.6,20.9c5,3.9,10.7,6.8,16.1,10.2c1.7,1,3.4,2,4.9,3.2
	c5.1,4.5,11.1,6.8,17.4,8.6c2.5,0.7,4.9,1.9,7.1,3.4c7.9,5.5,15.6,11.3,23.4,17c1.1,0.8,2.1,2.1,3.2,2.1c7.2,0.3,12.4,5.4,18.7,7.8
	c8.4,3.2,16.6,7.8,25.3,9.1c7.2,1,12.3,4.8,18.4,7.3c3.6,1.5,7.6,2.3,11.4,2.4c3.8,0.2,6.9,0.9,9,4.7c3.8-6.6,10.3-6.9,15.7-5.4
	c5.5,1.5,10.9,1.7,16.2,1.2c10.3-0.8,20.4-1.1,30.3,2.2c0.7,0.2,1.7,0,2.5-0.2c7.7-1.8,15.3-3.7,23-5.4c1.7-0.4,3.5,0.3,5.2,0.2
	c4.3-0.1,8.7-0.3,13-0.4c1.5-0.1,3.1-0.3,4.5-0.1c4.1,0.7,7.4-0.7,11.2-2.3c5.3-2.3,11-5.9,17.6-1.7c0.9-2.9,1.6-5.3,2.1-7
	c4.6-2.7,9-4.8,12.7-7.7c3.4-2.6,5.8-6.5,9.1-9.3c8.2-6.8,15.2-15.1,23.7-21.6c7.4-5.7,13.5-13,20.2-19.5
	c4.8-4.7,8.9-10.1,14.8-13.7c0.8-0.5,1.1-1.8,1.8-2.6c5.3-5.7,12-9.4,19.1-12.3c4.2-1.7,6.3-0.3,6.1,4c-0.6,11.3,3.7,21.7,5,32.6
	c0.1,0.4,0.3,0.9,0.2,1.3c-1.8,9.5-0.3,19.7-5.9,28.3c-0.8,1.3-1.8,2.8-3.1,3.4c-7.9,3.6-10.4,11.4-14.5,18
	c-4.3,7.1-8.3,14.4-13.2,21.1c-4.4,6.1-9.7,11.7-14.8,17.2c-3.2,3.5-7.1,6.4-10.5,9.8c-4.8,4.8-9.3,9.8-14,14.7
	c-1.6,1.7-3.4,3.2-5.2,4.6c-1.7,1.4-4.2,2.3-5.1,4c-2.4,4.9-5.1,9.4-10,12.4c-3.1,1.9-5.6,4.8-8.7,6.7c-3.7,2.2-8.6-0.6-9.6-5
	c-0.9-4.3,1-9.2,4.6-11.6c1.1-0.7,2.7-1,3.4-1.9c4-5.8,9.7-9.2,15.7-12.3c0.9-0.5,1.8-1.3,2.4-2.2c9.4-12.9,21.6-22.8,33.4-33.3
	c4.3-3.8,7.8-8.5,9.4-14.7c1-3.9,4.4-7.2,6.8-10.8c1.2-1.8,2.4-3.5,3.6-5.2c3.9-5.6,7.5-11.4,11.7-16.6c2.8-3.5,5.2-6.9,5.9-11.4
	c0.2-1.5,0.3-3.2,1.1-4.5c4.3-7.5,2.1-14.3-2.1-20.9c-0.8-1.3-1.4-2.7-2.4-4.4c-6.5,3.8-11.6,8.7-16.4,13.9
	c-5.3,5.8-10.5,11.8-15.9,17.5c-5.7,6-11.5,12.6-19.3,16.4c-0.6,0.3-1.1,0.7-1.6,1.2c-7.8,8.6-15.6,17.2-23.2,25.8
	c-1.3,1.4-1.7,3.8-3.1,4.9c-3.9,3.2-7.9,6.9-13.7,3.2c-4.3,5.3-10.1,5.7-16.1,6c-14.1,0.8-28.3,0.1-42.4,0.9
	c-7.7,0.4-15.9-1.1-23.3,2.7c-0.7,0.4-1.9,0.6-2.6,0.2c-4.9-2.4-10-0.3-14.9-0.7c-5.9-0.5-11.9,0.1-17.6-2.7c-1.9-0.9-4.7-0.1-7,0.3
	c-6.9,1.1-13.7,3.1-20.6,3.5c-5.8,0.3-11.4,2-17.6,0.9c-8.6-1.5-17.5-0.8-26.3-1.3c-8.8-0.6-17.5,0.3-26.2,1.2c-0.7,0.1-1.4,0.2-2,0
	c-11.8-4.1-24.3-3.3-36.4-4.9c-6.5-0.9-12.9-2.4-19.2-4.3c-2.2-0.7-4.1-3.2-5.7-5.2c-4.3-5.5-10.3-8.6-16.6-13.5
	c0.2,2.7,0.1,4.2,0.5,5.5c2.4,7.5,4.9,15,7.5,22.4c1.4,4.2,4.2,6.6,8.9,6.3c0.9-0.1,1.9-0.2,2.6,0.1c10.6,5.1,22.5,1.8,33.3,5.3
	c1.9,0.6,3.8,1.1,5.7,1.5c2.1,0.5,4.1,0.8,6.2,1.2c2.2,0.4,4.3,0.6,6.5,1c7.9,1.6,15.8,3.4,23.8,4.8c8.2,1.5,16.6,2.6,24.8,3.9
	c5.8,0.9,11.6,2.3,17.4,2.9c2.4,0.2,5.1-0.9,7.6-1.8c3.2-1.1,6.2-2,9.5-0.1c1.4,0.8,3.4,0.9,5.1,0.9c13,0.5,26,0.8,39,1.5
	c9,0.5,17.9,1.6,26.8,2.2c9,0.6,18.1,0.6,27.1,1.1c7,0.4,14,0.9,21,1.7c3.9,0.4,5.2,2.6,5.2,7.6c0,4.5-0.7,5.4-5.2,6
	c-2.6,0.3-5.2,0.3-7.9,0.6c-2.3,0.2-4.7,0.5-7,0.9c-1.5,0.2-3,1.1-4.5,1c-10.9-0.8-21.8,1.5-32.7,1.2c-1.9-0.1-3.9-0.4-5.8-0.7
	c-0.9-0.1-1.8-1-2.5-0.7c-5.4,2.1-10.8,0.2-16.2,0.1c-5.2-0.1-10.5,0.9-15.8,1.1c-5.8,0.2-11.6,0-17.4-0.1
	c-6.8-0.1-13.7,0.2-20.4-0.2c-11.4-0.8-22.7,1.9-34.1,1.7c-15.7-0.2-31.4,0.3-47.1-0.2c-7.7-0.3-15.2-2-23-0.4
	c-2.1,0.4-4.4-0.2-6.6-0.5c-10.3-1-20.5-2.2-30.8-2.9c-3.6-0.2-7.5,0.4-11,1.3c-6.4,1.7-12.6,4.4-19.1,0.6c-2,3.2-1.3,4.8,1.4,6.3
	c4.5,2.6,8.8,5.3,13.1,8.2c6.2,4.3,10.5,10.4,15,16.3c0.7,0.9,1.2,1.8,1.7,2.5c0.7,0.1,1.2,0.3,1.6,0.2c11.2-2.6,22.6-2.9,33.9-4.3
	c3.5-0.4,7.1-0.3,10.6-0.5c12.1-0.8,24.1-1.8,36.2-2.5c3.5-0.2,7,0.6,10.5,0.6c9.9-0.1,19.8-0.4,29.6-0.5
	c14.9-0.1,29.9-0.1,44.8-0.2c3.1,0,6.2-0.3,9.2-0.8c11-1.8,22-0.1,32.9,0.2c7.7,0.2,15.3,2.2,22.9,3.4c1,0.2,1.9,1,2.6,1.8
	c3.1,3.4,5.7,7.2,9.1,10.2c2.9,2.6,3.7,5.5,2.7,8.9c-1.6,5.4-1.9,10.8-1.6,16.3c0.1,2-1,4.2-1.8,6.2c-0.8,2-1.3,3.8,1.2,5.2
	c3-1.9,3-4.6,2-7.5c-1.1-3.2-1-6,2.1-8.2c0.8-0.5,1.5-1.9,1.4-2.8c0-6.7,3.5-11.6,8-16.8c10.8-0.7,22.3-3.3,33.3,3.8
	c0.2,1.8,0.5,3.9,0.7,5.5c2.4,1.6,4.4,3,6.5,4.4c1.4,0.9,2.9,1.8,4.4,2.6c0.3,0.2,1.1-0.1,1.2,0.1c3.6,6.5,12.2,6.8,15.9,13.1
	c0.6,0.9,1.2,1.9,2.1,2.5c7.4,5.8,14.8,11.5,22.2,17.3c4.6,3.5,8.3,7.7,10.5,13.6c7.3,0.2,10.2,6.7,14.8,10.9
	c8.2,7.3,15.9,15.2,23.8,22.8c6.2,5.9,12.3,11.8,18.6,17.6c5.2,4.9,10.7,9.5,15.8,14.4c7.7,7.4,15.1,15.2,22.8,22.6
	c5.6,5.4,11.6,10.5,17.3,15.8c3.4,3.2,4.2,7.1,2.1,11.2c-1.6,3.3-7.7,3.7-10.9,0.7c-14-13.6-28.9-26.2-42-40.9
	c-9.6-10.8-20.7-20.3-31-30.5c-7.2-7.1-14.2-14.3-21.5-21.3c-6.7-6.5-13.7-12.9-20.6-19.2c-1.6-1.4-3.6-2.5-5.5-3.6
	c-6.8-4.1-11.5-10.6-17.5-15.6c-4.7-3.9-9.6-7.5-14.4-11.2c-4.5-3.5-8.8-7.1-13.4-10.3c-6.3-4.4-12.6-8.7-19.2-12.6
	c-2.1-1.2-5-1.2-7.6-1.7c-3.4,7.4-6.4,14.3-6.7,22.3c-0.2,5.6-2.1,11.2-3.1,16.8c-0.7,4.1-1.6,8.1-1.9,12.2
	c-0.5,8.6-0.5,17.1-0.8,25.7c-0.1,1.5-0.3,3.1-0.9,4.5c-3.2,8.7-3.3,17.7-2.5,26.8c0.2,2.2,0.4,4.4,0.3,6.6
	c-0.2,13.2-0.5,26.4-0.9,39.6c-0.1,2.6-0.8,5.2-1.6,7.7c-1,2.9-7.5,6.6-10.2,5.4c-2.2-1-3.7-3.7-5.9-6.1c-0.8,0.7-2.1,2.1-3.6,3.3
	c-1.4,1.1-2.8,2.2-4.4,2.7c-3.7,1-7.2-2.3-5.6-5.6c2.7-5.3,1.7-10.8,1.7-16.2c0-2.4-0.4-4.8,1.9-6.6c0.7-0.6,1.1-2.1,0.9-3
	c-1.9-10.1,0.4-20.1,0.4-30.1c0-6.3,2.1-13-1-19.3c-0.7-1.4,0.2-3.9,1-5.6c1.9-4.2,2.1-8.4,1.4-12.9c-1.2-7.2-1.6-14.3,1.6-21.3
	c1.3-2.9,1.3-6.4,1.4-9.7c0.3-9.2-0.2-18.4,2.6-27.5c1.2-3.9,0.3-8.9-0.9-12.9c-2.2-6.8-8.6-8.3-14.7-9.2
	c-19.9-3.1-39.9-2.6-59.9-1.9c-3.2,0.1-6.5-1.8-10.7-3.1c-5.4,4.3-12.3,5.2-19.7,1.6c-5.6,3.2-5.6,3.2-9.3-1.5
	c-1.6,2.4-3.6,3.4-6.7,2.7c-2.4-0.5-5.2,0.4-7.8,0.6c-7.3,0.8-7.3,0.8-12.7-3.4c-4.8,3.2-10.2,4.4-16,3.5c-1-0.2-2.1,0-3.2,0.2
	c-0.6,0.1-1.2,0.8-1.8,0.7c-6.4-0.7-12.8-0.1-19.6,0.8c0.2-2.1,0.3-3.6,0.4-6c-2.6,0.9-5.6,1.1-6.7,2.6c-4.6,6.3-11,6.5-17.7,5.9
	c-3.8-0.3-6.7,0.7-9.8,2.8c-5.3,3.7-5.4,9.4-4.6,14.2c0.9,5,0.1,9.6-0.8,14.2c-1.8,9.6-3.1,19.1-1.4,28.8c0.6,3.4,0.6,7,0.4,10.6
	c-0.1,3.8,0.9,7.3,1.4,10.9c0.5,3.3-2.7,6.9-3,10.6c-0.6,6.9-0.1,13.9-0.2,20.9c-0.1,6.6-0.6,13.2-0.5,19.8
	c0.1,6.8,0.7,13.6,0.9,20.4c0.2,4.1,0,8.2,0,13.2c2.6,2.3,4.9,5.6,3.3,10.3c-0.3,1-0.1,2.2,0.1,3.3c0.7,6.6-0.6,8.3-6.2,11.6
	c-3.8,2.2-8.2,0.7-9.6-3.6c-0.9-2.6-0.9-5.6-1.3-8.3c-0.3-2.2-0.7-4.5-1.3-8.3c-3.5,4.7-5.9,8.2-8.5,11.5c-0.8,1-3,2.4-3.4,2.1
	c-1.2-0.9-2.6-2.6-2.6-4c-0.3-7.9-0.6-15.8,0-23.6c0.5-7.6,2.1-15,4.5-22.4c1.7-5.4,2.1-11.2,2.6-16.9c0.5-5.7,0.2-11.4,0.5-17.1
	c0.6-9,1.4-17.9,2.1-26.9c0.1-1.1,0.3-2.2,0.2-3.3c-2.3-18,0.5-36,1.1-53.9c0.2-6.5,0.9-13.2-3.1-19.1c-2.2-3.3-3.6-6.6-8.2-8.4
	c-6.3-2.5-11.6-7.4-17.4-11.1c-1.4-0.8-3.3-1-5-1c-2.6,0.1-5.6,1.5-7.8,0.7c-5.4-2-9.5-0.3-14,2.5c-6.3,3.9-13.2,6.8-19.8,10.3
	c-1.1,0.6-1.8,1.9-3,2.6c-2.4,1.4-4.8,3.1-7.5,3.9c-16.8,5.1-32.6,11.7-44.1,25.8c-0.7,0.8-1.6,1.6-2.5,2.1c-4.5,2.6-9,5.1-13.4,7.7
	c-9.9,5.8-20.6,10.3-29.3,18.3c-5.2,4.8-12,8-18,12.1c-2.5,1.7-5.8,3.5-6.7,6c-2.7,7.7-12.3,11.1-12.3,20.6c0,5.4-1.5,10.9-1.8,16.4
	c-0.4,8.1-0.3,16.3-0.4,24.4c0,4,0.4,8,0,11.9c-1,9.8-3.1,12.3-14.7,9.5c-0.8-4.5-2-9.4-2.6-14.3c-0.4-3.4-1-6.1-3.4-8.9
	c-4.7-5.5-3.9-11.9-0.6-17.9c2.1-3.8,2.5-7.3,0.5-11.9c-3.1,2.2-6.3,3.8-8.7,6.2c-4.4,4.4-8.9,8.7-14.3,12
	c-7.2,4.5-12.6,10.8-16.8,18.2c-1.3,2.3-2.8,4-5.4,5.3c-3,1.5-5.4,4.5-7.7,7.1c-7.7,8.7-15,17.7-22.8,26.3
	c-5.8,6.3-13.1,11.5-18,18.4c-4.7,6.6-11,11.1-16.1,17.1c-2.9,3.4-11.4,3.4-14,0.1c-0.7-0.9-0.8-2.4-0.8-3.7c0-6.6,3.3-10.9,9-14.2
	c4.3-2.5,8.5-5.5,12.1-9c4.8-4.8,8.9-10.3,13.5-15.3c2-2.3,4.5-4.2,6.7-6.3c1.7-1.6,3.2-3.4,4-6.1c-1.1,0.3-2.2,0.5-3.2,1.1
	c-1,0.5-1.7,1.7-2.7,1.9c-5.4,1.4-8.5,5.9-12.4,9.3c-4.7,4-9,8.2-14.5,11.1c-2.3,1.2-3.8,4-6.2,6.5c-0.9,0.1-2.6,0.2-3.8,0.3
	c-1.4,2.5-2,5.3-3.7,6.4c-3.7,2.5-5.4,5.6-5.2,10.2c-7.8,0-11.9,5.8-16.9,10.1c-2.6,2.2-5.3,4.8-8.4,5.9c-2,0.7-5.9-0.1-7-1.7
	c-1.4-1.9-2-5.7-1.1-7.9c3.1-7.3,6.9-13.9,15.7-16.6c3.9-1.2,6.6-6.2,10.2-8.9c5.1-3.9,10.7-7.3,16-10.8c0.9-0.6,2.3-0.8,2.8-1.6
	c6.6-10.1,16.9-16.4,25.4-24.7c3.1-3,6.9-5.2,10.2-8c3.2-2.7,6.2-5.5,9.3-8.3c9.7-8.8,19.3-17.7,28.9-26.5c5-4.5,10.1-8.8,15-13.3
	c6.9-6.2,13.5-12.9,20.8-18.8c5.6-4.6,12.5-7.7,17.7-12.7c5-4.7,11.6-6.8,16.4-11.6c1.1-1.1,3.2-1.2,4.4-2.3
	c1.2-1.1,1.4-3.2,2.6-4.2c6.7-5.9,13.2-12.1,21.3-16.2c1.1-0.6,2.2-1.6,2.9-2.6c5.2-9.1,14.3-13.9,22.1-20.2c1.2-1,2.2-2.1,3.5-3
	c4.5-3.4,9.2-6.7,13.6-10.3c4.3-3.5,8.2-7.5,12.3-11.2c2.9-2.7,5.8-5.5,9-7.7c6.5-4.4,13.4-8.2,20-12.6c2.7-1.8,4.8-4.5,8.7-3.3
	c0.6,0.2,2-1,2.4-1.9c3.9-8.4,12.7-10.8,19.3-15.9c0.2-0.1,0.5-0.1,0.6-0.2c6-5.5,12.5-10.2,19.6-14.1c0.8-0.5,0.6-3,0.7-4.6
	c0-0.3-0.5-0.7-0.9-0.9c-6.8-4.9-10.6-12.8-17.6-17.4c-1.1-0.7-2-1.8-3.2-2.2c-6.9-2.5-11.5-7.7-15.9-13.2c-2.1-2.6-3.7-5.5-7.2-6.5
	c-0.6-0.2-1.2-0.7-1.6-1.1c-5.5-4.9-10.9-10.1-16.7-14.7c-3.2-2.6-7.2-4.2-10.5-6.6c-6.1-4.3-12.4-8.6-18-13.5
	c-2.1-1.8-2.6-5.5-4-8.2c-0.6-1.2-1.4-2.9-2.5-3.3c-2-0.7-3,0.8-3.8,2.7c-2.1,4.9-4.5,9.6-9.6,12.5c2.3,6.7,7.5,11,11.4,16.1
	c1.3,1.7,3.1,3.2,4.6,4.7c5.5,5.6,3.4,14.8-4.2,16.9c-3.8,1-8,1.5-11.4-1.2c-5.8-4.6-11.6-9.3-17.3-14.1c-3.5-3-6.9-5.7-11.7-6.9
	c-4-1.1-7.5-4.2-11.3-6.4c-2.4-1.4-4.7-3.2-7.3-4c-1.2-0.4-3.4,0.9-4.3,2.1c-0.5,0.8,0.1,3.1,1,4.1c2.7,2.9,5.6,5.7,8.7,7.9
	c5.9,4.3,11,9.1,15.6,14.8c2,2.5,5.2,3.9,7.4,6.2c2.5,2.6,4.6,5.7,6.8,8.7c1,1.4,1.5,3.3,2.8,4.4c11.1,9.5,14.8,26.3,7.3,38.5
	c-4,6.4-9.9,11.7-15.3,17c-6.1,6-12.4,11.7-19,17.1c-4.8,3.9-9.8,7.8-15.3,10.2c-6.3,2.7-10.9,7.4-16,11.4c-2,1.6-4.2,3-6.4,4.4
	c-1.3,0.8-3.1,1.1-4,2.2c-7.8,9.2-19.8,12.9-27.9,21.8c-1.2,1.3-2.7,2.6-4.3,2.9c-7.2,1.7-11.5,7.6-17.2,11.5
	c-0.4,0.2-0.7,0.7-1,0.8c-8.5,1.5-12.4,9.1-18.4,14c-1.3,1.1-2.8,2-4.2,3.1c-2.9,2.1-6.3,3.4-8.4,6.8c-1.1,1.7-3.9,2.8-6.1,3.3
	c-4.1,1-7.4,2.6-9.4,6.4c-3.3,6.1-9.9,8.4-15.1,12.3c-3.7,2.8-7.9,4.8-11.5,7.6c-5.5,4.3-11.6,7.7-17.5,11.3
	c-7,4.3-13.2,9.8-20,14.5c-4.3,3-8.8,5.9-13.6,7.8c-6.2,2.5-11.5,6.3-16.4,10.8c-5.1,4.7-9.3,5.6-15.5,3c-1.6-0.7-3.2-1.6-4.9-1.6
	c-14.3,0.1-28.1-3.7-42.1-6.1c-9.5-1.7-19-3.6-28.6-5c-5-0.8-10.1-0.7-15.1-1.1c-9.9-0.7-19.8-1.3-29.7-2
	c-10.8-0.8-21.5-1.8-32.2-2.6c-0.9-0.1-1.8,0.1-2.6,0c-6.9-1.1-14-1.7-20.8-3.6c-8.8-2.4-17.8-2.7-26.8-3.8c-19-2.5-38-5-57-7.5
	c-6.3-0.8-12.6-1.8-19-2.5c-5.9-0.7-11.7-1.6-17.6-1.8c-8.1-0.3-16.2-0.1-25.4-0.1c1.4,2.2,1.9,3.7,2.9,4.5c5.1,4.3,5.6,4.8,7.4,9.9
	c1.9-1,3.6-2,5.7-3.1c0.4,0.6,1.1,1.8,1.8,2.9c5.2-2.5,5.2-2.5,2.2-8.3c2.3-2.1,4.1-0.6,5.6,1c1.5,1.7,3.3,3.6,3.8,5.7
	c0.5,2.2-0.3,4.7-0.7,7c-0.4,2.4-1.8,3.8-4.4,4.3C145.1,1546,142.3,1546.9,139.6,1547.5c0.9-2.2,1.4-4.3-0.2-6.9
	C136.6,1543.5,138.7,1545.4,139.6,1547.5z M1196.7,907.8c3.2,0.3,4.8-1.3,5.1-4.3c0.1-1.9-0.1-3.8-0.2-5.7c1.1-0.9,2.7-1.6,3.2-2.8
	c2.5-5.8,4.5-11.8,7-17.6c1-2.3,2.4-4.6,4.2-6.3c2.7-2.6,3.9-5.7,4.2-9.3c0.9-12.7-2.5-24.7-5.9-36.7c-2.4-8.8-6.4-10.5-14.2-7.8
	c0.3,1.4,0.7,2.8,1,4.3c1.1,5.1,2.4,10.2,3,15.4c1.1,9.3,1.6,18.7,2.7,28.1c0.9,7.4-0.3,14.7-2.9,21.3c-1.6,4-3.2,7.4-2.2,11.6
	c-3.4,2.4-5.5,5.4-4.9,9.9c-1.3,3.5-2.5,7.1-3.8,10.6C1199.8,912.8,1199.8,912.8,1196.7,907.8z M938.5,992.2
	c-2.7-6.1-9.6-10-15.2-8.5c1,4.5,4.5,6.1,8.3,7.2c2.3,0.6,4.7,0.8,7,1.2c-1.2,1.8-1.6,3.3,0.6,5c4.1,3.3,8.8,5.1,14,6.1
	c-2.9-3.4-5.9-6.7-9.3-9.5C942.6,992.5,940.3,992.7,938.5,992.2z M1353,984.1c1,2,1.9,3.9,2.9,5.9c0.3-4.4,0.3-4.4-3-5.7
	c-0.3-1-0.3-2.3-1-3.1c-2.7-3.3-5.3-6.8-8.6-9.4c-1.8-1.4-4.6-3.4-7.8-1.2c3.7,7,10.4,9.7,16.3,13.5
	C1352,984.2,1352.5,984,1353,984.1z M447.3,860.2c14.5,1,28.7-0.8,43.1-2.7c0-5.6-0.2-10.4,0-15.2c0.2-3.7,0.2-7.5,1.2-11.1
	c1.9-7,4.8-13.7,6.5-20.7c1.9-7.5,3.4-15.1,4.2-22.7c1.5-15.2,1-30.4,0-45.5c-0.1-2.2-0.5-4.4-0.8-6.6c-0.5-4.8-0.9-9.6-1.4-14.4
	c-0.4-3.7,1.2-6.7,4.1-8.4c5.7-3.3,11.4-6.7,17.6-8.8c10.3-3.5,21.2-4.4,31.2-9.7c10.2-5.4,21.6-8.5,32.5-12.5
	c4.5-1.7,9.5-2.4,13.8-4.5c10.3-5.1,21.5-6,32.6-7.8c13.4-2.3,27-4,38.7-12c0.7-0.5,1.6-0.8,2.4-0.9c7.3-1.3,13.9-4.9,20.7-7.6
	c1.3-0.5,2.3-1.8,3.5-2.7c-4.3-4.3-8.3-8.3-12.4-12.2c-0.3-0.3-0.8-0.4-1.2-0.5c-7.5-1.8-12.2-7.3-17-12.8c-1.4-1.5-3.3-3.1-5.2-3.6
	c-7.9-2-14.2-7-20.6-11.4c-4.9-3.4-8.3-9.1-15.2-9.3c-1.3,0-2.5-1.6-3.8-2.5c-5.1-3.5-10.6-5.1-16.8-4.8c-4.4,0.2-8.8-0.4-13.2-0.6
	c-2.6-0.1-5.3-0.5-7.9-0.3c-18.7,1.3-37.3,2.2-55.7-2.8c-1.2-0.3-2.6,0-4,0c-2.9,0-5.8,0.1-8.6-0.1c-16.9-1.3-33.8-2.5-50.6-4.1
	c-11.2-1.1-22.2-0.2-33.4,0.7c-5.6,0.5-11.4,1-17,0.1c-11.1-1.7-22.2-3-33.5-2c-4.1,0.4-8.4-0.1-12.5,0.3
	c-6.3,0.6-12.2,2.2-15.3,8.7c-0.8,1.6-2.3,2.8-3.8,4.6c-3.5-11.5-4.1-8.6-13.4-9.8c-2.4,3.7-2,8-2.1,12c-0.2,13.8,0.4,27.7,0,41.6
	c-0.4,14.6-3.3,28.8-6.9,42.9c-2,7.9-7.8,11.2-16,9.5c-0.8-0.2-1.6,0-2.7,0c-0.6,5.6-0.6,10.6,2.2,15.6c1.5,2.7,1.9,6.3,1.8,9.4
	c-0.2,5-1.2,10-1.8,15.1c-0.6,5-1.5,10.1-1.4,15.1c0,7.3,1.2,14.5,1,21.8c-0.4,9.2-1.3,18.4-5.6,26.9c-1.1,2.2-1.8,4.5,0.2,6.9
	c4.7-2,9.3-3.8,13.8-5.9c2.9-1.3,3.9-3.7,4.2-6.9c0.8-7.1,2.7-14,7.9-19.2c4.4-4.5,8.1-10,14.6-11.9c6.2-1.9,6.1-1.9,5.7-8.1
	c-0.4-6.5-1.9-13.2,2.2-19.3c0.6-1,0.4-2.6,0.4-3.9c-0.2-6.8-0.6-13.7-0.6-20.5c0-4.4,0.3-8.8,1.2-13.1c1.4-6.6,5-11.6,11.9-13.6
	c5.3-1.5,10.5-3.5,15.9-3.9c6-0.4,12.5-0.5,17.8,3.4c3.8,2.8,7,6.6,10.5,9.9c1.3,1.3,2.7,2.6,4.6,4.4c0.8-2,1.6-3.1,1.6-4.3
	c0.1-5.3,0-10.6,0.1-15.9c0.2-21.1,0.3-42.3,0.7-63.4c0.1-4.8,1.5-9.6,2.3-14.3c0.5-2.4,1.9-3.9,4.5-4c2.4,0,3.6,1.4,4.2,3.5
	c1,4,2.2,7.8,1.8,12.3c-0.8,8.8-0.7,17.6-0.8,26.4c0,9.2,0.3,18.5,0.2,27.8c0,5-0.5,10-0.7,15c-0.4,9.4-0.8,18.9-1.2,28.3
	c-0.4,8.9-3.2,17.7-0.8,26.8c1.3,5.1,1.9,10.4,2.2,15.7c0.8,14.5,1.4,29.1,2,43.6c0.1,2.1-0.1,4.4,2.9,5.9c0.6-1.6,1.4-3,1.4-4.3
	c-0.2-16.9,2-33.8,0-50.7c-0.1-1.1,0.2-2.2,0.3-3.3c0.9-12.7,2-25.4,2.5-38.2c0.3-6.1-0.5-12.3-0.7-18.5
	c-0.7-19.8-1.4-39.6-1.9-59.4c-0.1-3.7,0.7-7.4,1.6-11c1.1-4.3,2.8-8.3,1.8-12.9c-0.6-2.7,0.8-4.7,2.9-6.2c1.7-1.2,3.5-1,4.6,0.7
	c2,3.1,4,6.2,5.4,9.6c1,2.3,1.6,5.4,1,7.7c-2.9,9.9-3.3,20-3,30.1c0.1,4.8,0.8,9.7,0.8,14.5c0,14.3-0.2,28.6-0.4,42.9
	c-0.2,12.6-0.3,25.1-0.6,37.7c-0.2,12.8-1,25.5,0.7,38.2c1.6,11.4,1.3,22.9-0.4,34.3c-0.4,2.3-1,4.8-2.2,6.8c-1.8,3-4.8,4.4-8.5,3.8
	c-3.6-0.5-5.4-2.8-6.4-5.9c-0.4-1.2-0.6-2.6-0.8-3.9c-0.5-2.9-2.2-3.6-4.8-2.8c-1.5,0.5-2.7,1.5-4.2,1.9c-3.8,1.2-7.1-0.4-8.3-4.3
	c-0.7-2.3-0.8-4.8-1.3-7.2c-0.4-1.7-1.2-3.4-1.7-5c-4.5,3.4-8.2,6.3-12.4,9.5c2.9,5.2,0.7,9.8-3.2,13.8c-4,0.2-6.7-1.4-9-4.1
	c-2.4-2.8-5.1-5.5-7.8-8c-1.8-1.7-3.8-2.1-5.8,0c-1.8,1.9-3.9,3.4-5.6,5.3c-2.3,2.6-3.9,6.2-6.7,8.1c-4.4,3-4.5,7.3-4.9,11.6
	c-0.2,1.8,0.1,3.5-0.1,5.3c-0.9,8.1-1.5,16.2-3.1,24.2c-1.4,7.3-4,14.3-5.6,21.6c-1.1,4.7-2.4,9.6-1.9,14.2
	c0.8,6.2,0.7,12.2,0.1,18.4c-0.3,2.8-0.1,5.6,2.7,8.9c0.7-2.4,1.4-3.9,1.5-5.4c0.2-4.4,0-8.8,0.1-13.2c0.1-6,4.6-9.3,10.3-7.2
	c2.4,0.9,4.4,3,6.5,4.5c4-6.6,0.3-16.3,9-21.9c3,1.4,6.3,2.9,9.6,4.6c1.9,0.9,3.5,2.9,5.4,3c7.2,0.5,10.3,4.9,11.9,11.1
	c0.4,1.7,0.6,3.5,0.6,5.2c0,10.4,0,20.7-0.1,31.1c-0.1,4.7-0.5,9.4-3.4,13.3c-3.6,4.9-7.7,9.5-11.5,14.2c-0.9,1.2-1.8,2.4-3.2,4.4
	c9.3,1.9,17.4,2.8,25.4,0.8c10.8-2.8,21.9-1.8,32.8-2.9c3.9-0.4,7.9-0.5,11.9-0.5c12.1,0.1,24.2,0.3,36.3,0.5c1.3,0,2.6,0.2,3.9,0.4
	c7.8,0.8,13.6,5.7,20,9.4c3.1,1.8,3.4,4.2,3,7.3c-0.5,3.9-0.8,7.8-1.2,11.7c-1.1,13.1,1.8,26.1,1.7,39.2c-0.1,8.1,0.6,16.3,1.1,24.4
	c0.7,10.7,1.6,21.4,2.4,32.1c0.3,4.4,0.7,8.7,0.9,13.1c0.2,6.6,0.2,13.2,0.3,19.8c0.1,3.5,0.4,7.1,0.2,10.6
	c-0.3,5.4-2.6,7.7-7.5,8.4c-5,0.7-9.5-1.6-11.2-6c-0.9-2.3-1.9-4.6-2.1-6.9c-0.5-6.1-3-12.6,3-17.9c1-0.9,0.9-3.3,1.1-5
	c0.6-5.2,1.2-10.5,1.5-15.7c0.2-2.3-0.1-4.7-0.5-7c-0.7-3.8-2.2-7.6-2.4-11.4c-0.6-9.9-0.6-19.8-1.1-29.7
	c-0.6-11.4-1.6-22.8-2.2-34.2c-0.3-5.7,0-11.5-0.1-17.2c-0.1-2.6,0.1-5.4-1.4-8.2c-1.5,3-2.4,5.5-4,7.5c-3.6,4.8-11,3.8-13-1.8
	c-1.6-4.4-4.6-6.1-9-6.2c-10.8-0.2-21.6-0.7-32.4-0.8c-5.5,0-11,0.6-16.4,1.2c-9,1.1-17.9,2.4-26.8,3.5c-2.1,0.3-4.3,0.5-6.5,0.7
	c-2.2,10.5-3.3,20.5-3.1,30.6c0.1,3.5,0.4,7,0.7,10.5c1,12.3,2.1,24.5,2.9,36.8c0.4,6.3,0.8,12.7,0.4,19c-0.4,5.9-3.2,10.9-9,13.7
	c-3.7,1.8-6,1.6-7.3-2.4c-2.7-8.2-6.6-16.5-3.4-25.6c0.5-1.4,0.6-3,0.6-4.5c-0.2-15.4-0.6-30.9-0.6-46.3c0-16.8-1.1-33.8,5-50.6
	c-6.9-1.5-11.6-5.7-12.8-12.6c-6.7-1.7-6.7-1.6-11.7-0.2c-1.3,0.3-3.1,0.1-4.2-0.6c-5.5-3-11.2-5.9-16.4-9.5
	c-4.9-3.5-10-6.3-15.8-7.9c-5.3-1.5-7.8-5.6-8.4-10.8c-0.8-7.2-0.6-14.5-2.1-21.5c-1.9-8.7-1.2-17,0.3-25.5
	c1.4-7.6,2.3-15.3,3.9-22.8c2.2-10.3,4.9-20.5,7.3-30.8c0.4-1.6,0-3.3,0-6.2c-3.5,1.7-6.1,2.7-8.5,4.1c-5.1,2.9-10.5,4-15.9,1.8
	c-3.4-1.4-6.1-4.2-10-7c-0.5,2.8-1.1,5.2-1.3,7.7c-0.3,5.1-0.4,10.1-0.6,15.2c-0.2,3.3-0.7,6.5-0.7,9.8c0,8.2,0.2,16.3,0.3,24.4
	c0.2,14.1-0.6,28.3,0.7,42.3c1,11.7,2,23.3,0.7,34.9c-0.3,3.1,0.6,5.4,2.6,7.8c4.5,5.2,10.1,8.6,16.6,10.3c5.1,1.3,9.2,4,10.8,8.8
	c1.5,4.6,4.5,5.9,8.4,7.3c6.1,2.2,9.6,7.1,12.2,12.8c2.2,5,4.3,10.1,6.4,15.1c0.5,1.2,1,2.4,1.3,3.7c1,3.6,1.4,7.5,3,10.8
	c3.6,7.2,3.4,14.3,1.8,21.9c-0.9,4.4-2.3,8.9-1,13.5c10,1.7,10.8,2.1,12.4,11.7c1.4,8.2,2.1,16.6,2.7,24.9c0.5,7,2.3,12.8,7.6,18.2
	c4.4,4.6,10.3,8.4,12,15.4c0.3,1.4,3,2.2,4.5,3.3c2.3,1.6,5.3,2.7,6.9,4.8c2.3,3,4.6,4,8.4,3.4c5.4-0.8,8.1,1.1,10.5,6.1
	c0.8,1.7,1.5,3.4,2.3,5.4c3.2-3.7,3.3-4,1.8-6.2c-0.8-1.1-2-1.8-2.7-2.9c-4.5-6.1-4.4-13.2,0.9-16.3c4.2-2.4,9.2-3.2,13-6.7
	c1-1,3.8-0.2,5.8,0c1.3,0.2,2.5,0.8,3.7,1.3c18.1,7.8,37.3,10.1,56.7,11c4.5,0.2,8,2.1,11.7,4c2.4,1.2,2.5,4.4,0.5,6.2
	c-1.6,1.4-3.6,2.6-5.7,3c-3,0.6-6.1,0.5-9.2,0.7c-4.8,0.2-9.7-0.5-14.2,2.2c-1.7,9.6-7.9,18.1-6.5,28.8c2.3,0.7,4.7,1.9,7.2,2.2
	c8.9,1.1,17.9,2.1,26.8,2.7c6.4,0.4,12.8,0.3,19.2,0.2c1.4,0,3.7-0.8,3.9-1.6c1-4.9,5.3-8.8,4.3-14.3c-0.3-1.9,0-3.9,0.2-5.9
	c0.8-8.5,2.3-17-0.5-25.5c-1.1-3.4,1.9-7.3,5.5-7.2c3.5,0.1,7.2,0.4,10.2,1.9c5.5,2.6,10.5,6.1,15.8,9.2c1.8,1.1,3.8,2,5.8,3.1
	c6-7.3,14.1-5.1,21.3-5.4c2.3-0.1,5,1,8,0.7c8-0.9,11.6,2.9,11.2,10.6c-0.3,6.6-0.5,13.2-0.5,19.8c0,5,0.4,10.1,0.6,14.8
	c7.3,4.3,18.7,2.7,25,2c3.3-0.4,5-2.4,5-5.9c0-3.5-0.2-7.1,0.7-10.5c1.8-6.8,1.7-13.5,0.8-20.3c-0.2-1.7-0.6-3.5-0.5-5.2
	c0.3-7,1-14.1,1.1-21.1c0.2-21.4,0.2-42.8,0.2-64.2c0-0.7,0-1.3,0-2c-0.9-11.6,2.7-22.1,7.6-32.4c1.1-2.2,2.5-3.2,4.9-3.7
	c4.3-0.9,4.7-1.8,4.6-6.4c-0.1-3.7-0.2-7.4,0.3-11.1c0.7-4.9,1.6-9.8,5.2-13.3c-2.2-1.9-4.6-3.2-5.5-5.1c-1.7-3.5-2.5-7.4-3.6-11.2
	c-0.5-1.7-0.6-3.6-1.6-4.9c-2.5-3.1-5.3-5.9-8.1-8.7c-3.5-3.4-3.4-6.9,0.8-9.6c2.7-1.8,5.6-3.3,8.1-4.8c-0.6-11-1.3-21.5-1.8-32.1
	c-0.3-7.9-0.8-15.9-0.5-23.8c0.4-16.5,1.5-33.1,1.8-49.6c0.3-13-0.1-25.9-0.2-38.9c0-5.3-1-7.1-4.1-6.8c-5.8,0.6-7-0.8-8.1,6.1
	c-0.1,0.7-0.5,1.3-0.4,1.9c0.8,7.7-0.4,15.3-1.5,22.9c-0.2,1.3,0.2,2.6,0.3,3.9c0.5,4.8,1.5,9.6,1.4,14.4c0,7.7-1,15.3-1.1,23
	c-0.4,28.7-0.7,57.3-1,85.9c0,0.9,0,1.8,0,2.6c1,9.4,2.4,18.8,3,28.2c0.4,6.3-0.2,12.7-0.5,19.1c-0.1,2.6-1.4,4.4-3.6,5.9
	c-4,2.6-7.7,1.2-11.2-0.6c-3.6-1.8-2.6-5.2-2.3-8.2c0.4-3.9,1.7-7.9,1.4-11.7c-0.9-10.5-2.5-20.9-2-31.5c0.4-9.4-0.2-18.9-0.1-28.4
	c0.3-22,0.9-44.1,1.2-66.1c0.1-10.8-0.3-21.6-0.4-32.4c0-8.8,0.2-17.6,0.2-26.4c0-3.1,0.5-6.4-0.4-9.2c-1.1-3.4-3-6.9-5.5-9.3
	c-2.6-2.5-6.3-3.9-9.7-5.5c-1.2-0.6-2.7-0.6-4.5-1c-1,8.9-2,17.2-2.7,25.5c-0.8,8.6-1.2,17.1-1.8,25.7c-0.6,8.6-1.5,17.1-2,25.7
	c-1,16.9,0.8,33.9-2.8,50.8c-3.1,14.8-3.3,30.2-9.7,44.3c-2.5,5.6-4,11.7-6.2,17.4c-2,5-7.9,7.7-12.5,5.2c-3.7-2-6-1.6-9.3,0.9
	c-4.7,3.6-10,0.9-10.1-5.2c-0.1-3.5,1.8-7.1,3-10.5c0.8-2.4,2.2-4.7,2.9-7.2c1-3.1,1.6-6.4,2.5-9.6c3.8-13.6,5.2-27.5,5.9-41.5
	c0.3-5.3,0.9-10.5,1.5-15.8c1.5-12.9,3.4-25.7,4.4-38.6c0.9-10.5,0.7-21.1,1.1-31.7c0.1-3,1.6-6.7,0.4-9c-2.4-4.9-1-9.7-0.4-14.1
	c1.2-9.4,1.5-18.7-0.3-28c-0.2-1.1-0.3-2.2-0.3-3.3c-0.1-7-0.3-7.3-8.4-8.3c-4.1,7.9-8.5,15.9-12.4,24.2
	c-4.3,9.1-8.8,18.2-10.8,28.3c-0.4,1.9-1.4,3.7-2.3,5.4c-4.8,8.4-9.5,16.9-11.9,26.4c-0.8,3.2-1.3,6.6-2.5,9.5
	c-2.9,6.8-5.8,13.7-9.5,20.1c-3.9,6.8-10.1,11.5-18.2,11.3c-9.9-0.2-19.5,1-29.3,2.2c-2.4,0.3-4.9,0.5-7.2,0.1
	c-6.8-1.2-9.8-5.7-8.4-12.4c0.4-1.9,1-3.8,1.4-5.8L447.3,860.2z M331.2,1225.9c0,13.1,0.2,25.7-0.1,38.2c-0.1,6.1-1.7,12.3-1.3,18.4
	c0.8,13.1-0.3,25.9-1.3,38.9c-0.7,9.2-0.9,18.5-1.1,27.7c-0.2,7.5-0.2,15-0.2,22.5c0,4.6,0.3,9.2,0.5,13.8c0.2,4.2,0.6,8.4,0.5,12.5
	c-0.8,24.4-1.7,48.8-2.5,73.2c-0.1,4.4,0.9,8.2,4.6,11.1c1.6,1.3,2.8,3.3,4,5c3.4,4.8,7,9.4,12.5,12.1c6.3,3.1,12.4,6.3,18.7,9.3
	c6.8,3.2,13.4,7,20.5,8.9c6.7,1.8,12.8,4.6,18.8,7.8c10.7,5.7,21.3,11.2,32.9,14.9c3.1,1,5.7,1.5,8.8-0.3c1.5-0.9,4-1.2,5.7-0.6
	c8.2,2.9,14.3-2.1,20-5.9c4.4-3,9.6-5.8,12.4-11c0.7-1.3,3-1.7,4.6-2.4c6.4-3,13.7-4.8,17.9-11.2c0.4-0.5,0.9-1,1.4-1.4
	c8.5-6.6,8.5-7,2.2-15.1c-0.4-0.5-0.7-1.2-1.1-1.6c-5.4-5.1-10.4-10.8-16.3-15.2c-7.5-5.6-15.7-10.3-23.6-15.4
	c-3.3-2.2-6.4-4.6-9.7-6.7c-10.6-6.7-21.3-13.1-31.8-19.9c-2-1.3-3.5-3.9-4.6-6.2c-1-2.2-0.2-4.7,2-5.7c4-1.8,7.7-3.3,12.6-2.3
	c14.9,3.1,25.3,13.8,37.6,21.2c6,3.6,11.1,8.7,17.3,11.8c5,2.5,9.5,6.1,15,8c4.2,1.4,8,3.1,12.5,2.4c0.6-0.1,1.3,0.2,1.9,0.4
	c11.1,3.8,21.1,1.7,30.1-5.8c0.9-0.8,2.4-0.7,3.6-1.2c5.5-2,11.6-3.1,16.5-6.2c7.7-4.9,14.7-11,21.9-16.6c1.7-1.3,3.2-3,4.8-4.5
	c1.3-1.2,2.4-2.7,3.8-3.6c6.4-4.4,12.9-8.7,19.4-13c1.6-1.1,3.5-1.9,5.2-2.9c2.4-1.4,5.3-2.4,7.1-4.4c3.7-4.3,7.9-7.6,13.3-9.4
	c1.3-0.5,2.4-1.8,3.5-2.9c4.9-4.7,9.2-10.2,14.8-13.8c4.3-2.9,7-6.9,10.6-10.2c1.6-1.5,2.9-3.6,4.8-4.4c5.7-2.5,6.9-8,9.4-12.6
	c0.8-1.4,0.9-3.5,0.6-5.1c-0.8-5-1.6-10.1-3.2-14.8c-1.7-4.7-4.3-9.2-6.7-13.6c-1.3-2.4-2.8-5-4.7-6.9c-4.5-4.4-9.4-8.5-14.1-12.7
	c-8.3-7.4-16.5-14.9-23.3-23.9c-0.6-0.8-1.5-1.5-2.4-2.2c-9.1-7.3-18.1-14.6-27.2-21.7c-1.5-1.1-3.5-1.8-5.4-2.1
	c-19.6-2.7-39.1-6.2-59-5.1c-2,0.1-4,0.3-6,0.1c-17.5-1.9-35-4-52.5-5.9c-13.3-1.4-26.6-2.6-40-3.8c-10.7-0.9-21.5-1.4-32.2-2.3
	c-6.8-0.6-13.5-1.7-20.3-2.3c-14.5-1.3-29-2.5-43.4-3.4C344.6,1225.6,338.1,1225.9,331.2,1225.9z M1178.2,782.8
	c-0.6,4,0.2,8.7-4.6,11.3c-4.6,2.4-7.9-1.3-11.6-2.9c-0.2-0.1-0.4-0.3-0.5-0.4c-4.4-3.2-8.6-6.6-13.2-9.5c-2.1-1.4-4.9-2.3-7.4-2.5
	c-7.1-0.6-9.8,2.1-9.5,9.2c0.3,8.4,0.2,16.8,1.3,25c1.1,8.2-0.2,16.1-0.8,24.2c-0.6,7.8,0.6,15.8,1.1,23.7c0.2,4.1,1.3,8.3,0.8,12.3
	c-0.9,7.9-5.3,10.2-13.1,8.6c-3.7-0.8-5.2-3.8-7.9-5.5c-5.7-3.5-6.5-8.6-6.5-14.7c0-9.7-0.6-19.4-1.3-29c-0.6-7.2-2-14.4-2.7-21.6
	c-1.4-13.3-1.9-26.8-8.3-39.1c-0.6-1.1-0.5-2.6-0.8-3.9c-2.9-11.5-9.3-21-18.7-27.9c-6.3-4.7-14-7.4-20.7-11.5
	c-11.3-7-22.6-14-33.6-21.6c-6.5-4.5-13.3-6.7-21-6.4c-5.9,0.2-11.8,1.1-17.7,1.3c-6.8,0.2-8.6,2.5-9.9,9.4
	c-3.1,16.4,1.8,33.1-2.2,49.3c-0.1,0.2,0,0.4,0,0.7c1.6,9.8,1.3,19.6,0.1,29.4c-0.5,4.3,1,7,3.8,9.9c5.3,5.4,11.9,8.7,18.3,12.6
	c9.3,5.7,19,9.5,29.5,12.5c12.8,3.7,22.9,10.9,24.9,25.5c0.2,1.2,1,2.4,1.7,3.5c2.8,4.8,5.6,9.5,5.7,15.2c0.1,5.1-0.1,10.1-0.4,15.2
	c-0.8,11.9-2.7,23.6-5.8,35.1c-1.1,4-2.2,8.1-2.7,12.2c-2.3,16.8-4.5,33.7-4,50.7c0.1,1.7-0.3,3.7-1.2,4.9c-1.6,2.1-1.4,3.9-0.9,6.2
	c0.9,3.7,0.6,7-2.9,9.4c-3.8,2.5-7.8,3.3-11.8,0.7c-5.5-3.6-10.8-7.6-16.4-11.1c-4.4-2.8-9-5.6-13.8-7.5c-4.7-1.9-7.3,0.6-7.3,5.8
	c0,2.8-0.5,5.6-0.8,8.8c4.5,3.1,7.7,8.7,14.4,8.7c0.8,0,1.7,0.7,2.2,1.2c4.8,4.8,9.6,9.5,14.3,14.4c2.2,2.3,2.6,4.9,1,7.9
	c-0.9,1.7-1.8,3.5-1.9,5.4c-0.2,3,0.2,6.1,0.2,9.2c0,2.9,1.3,4.6,4.3,4.7c3.9,0.2,7.9,0.6,11.8,0.5c14.5-0.4,29-0.9,43.5-1.4
	c1.9-0.1,4,0.4,5.8,0c6.9-1.4,13.7-2.9,20.5-4.6c3.6-0.9,7-1.2,10.3,0.6c6.6,3.5,14.8,5.2,17.5,13.7c0.2,0.8,1,1.4,1.7,1.9
	c3.8,2.6,4.2,6,3.8,10.4c-0.6,5.4-1.6,11.6,0.4,16.3c1.8,4.6,2.3,8.5,1.1,13.3c2.5,1,4.7,1.8,6.9,2.8c2.3,1.1,5,2,6.8,3.7
	c4.3,4,8.2,8.5,12.4,12.6c2.9,2.9,6.4,5.1,10.6,6.6c0.5-0.7,0.9-1.3,1.3-1.8c3.2-5,4.1-5.4,9.6-4.1c1.3,0.3,2.6,0.9,3.8,0.7
	c8-1.2,14.7-5.4,21.1-10c3.7-2.7,5.5-6.8,6.9-10.9c2.3-6.8,7.1-12.6,6.7-20.5c-0.3-5.9-0.4-12.1,1.2-17.7c1.6-5.8,2.2-11.6,2.6-17.5
	c0.3-4.2,0.9-8.4,2-12.4c2.4-8.8,10.8-12.3,18.6-8.1c4.8,2.6,7.1,7.6,6.4,13.2c-0.2,1.9,0.2,3.8,0.4,5.7c1.1,9.9,5.3,19.5,3.3,29.9
	c-0.6,3.2,2.1,5.3,4.8,3.8c3.2-1.8,6-4.3,8.9-6.6c2.2-1.7,4.1-4,6.5-5.3c2.6-1.4,3.3-3.1,3.2-5.8c0-4.8,0.4-9.7,0.5-14.5
	c0.1-6.3-0.2-12.7-0.1-19.1c0.2-8.1,0.7-16.2,1-24.2c0.2-4.7,3.2-7.7,6.9-8.3c4.3-0.7,8.8-0.7,12.9,3.1c6.6,6.2,4.6,14.8,7.7,21.9
	c0.4,0.9-0.7,2.4-1.2,3.6c-3.3,7-1.3,13.9-0.4,20.8c5-1,9.3-1.4,13.2-2.9c4.3-1.6,8.2-4.1,12.2-6.1c0.3-4.2,0.6-8.3,1-12.4
	c0.3-3.5,1.2-7,0.9-10.4c-0.5-5.8-2.8-11.7,1.2-16.1c-3.4-4.5-6.2-8.4-9.2-12.1c-0.9-1.2-2-2.6-3.3-3.1c-5.7-2.4-9.3-7.3-13.6-11.3
	c-0.9-0.9-2-1.6-3-2.5c-3.3-2.8-6.8-5.5-9.9-8.6c-2.8-2.7-4.3-6.8-9.3-6.6c-0.9,0-2.4-1.4-2.8-2.5c-1.9-4.6-5.2-6.1-10.3-4.6
	c-0.3-2.9-0.2-5.7-3.6-6.5c-2.5-0.6-4.8-2.4-7.3-2.8c-3.7-0.6-6.4,2.5-6.2,6.5c0.1,3.1,0.7,6.2,0.2,9.2c-2,12.4-0.1,24.7,0.7,36.9
	c0.4,7.1-1.9,13.4-3.1,20c-0.4,2.2-4.2,4.4-6.8,5.4c-3.6,1.4-7.7,1.8-11.5,0.2c-1.9-0.8-4.3-1.9-5.1-3.5c-2.6-5.5-5.6-11.2-6.5-17.1
	c-2.2-13.7-3.2-27.4-1.6-41.4c0.8-7.2,2.2-14.8-0.5-22.2c-1.4-3.8-1.5-8.2-1.8-12.3c-0.4-5-0.3-10-0.5-15c-0.5-0.1-1-0.2-1.4-0.3
	c-1.1,2.1-2.2,4.1-3.1,6.2c-1,2.4-1.7,5-2.7,7.4c-5,11.2-11.2,22-13.2,34.4c-0.6,3.9-1.4,7.8-2,11.7c-2.6,15.2-5.1,30.3-7.7,45.5
	c-1.4,8.2-2.7,16.5-4.4,24.7c-1.3,6.2-3.3,12.3-4.6,18.6c-1,4.7-1.6,9.5-2.3,14.3c-0.6,4.2,1.3,7.7,3.5,11.1c1.9,3,5,2.3,7.6,3
	c4.6,1.2,9.9,1.4,11.2,7.6c-1.4,2.7-2.6,5.5-4.1,8.2c-1,1.7-2.1,3.7-3.7,4.5c-4.8,2.7-9.7,5.4-14.9,6.9c-2.5,0.8-6.5,0-8.6-1.7
	c-4.7-3.5-8.7-8-12.9-12.2c-1.4-1.4-2.6-3.2-4.3-4c-4.9-2.3-5.4-6.9-5.5-11.2c-0.2-5.8,0.7-11.7,1-17.5c0.1-1.3-0.2-2.6-0.2-4
	c0-2.8-0.3-5.7,0.1-8.5c1.2-6.9,2.3-13.9,4.1-20.7c1.9-7,4.6-13.7,6.8-20.6c2.4-7.8,5.1-15.5,6.7-23.5c2.3-11.4,4.1-22.9,5.6-34.4
	c1.6-12.2,1.9-24.6,8.5-35.5c0.3-0.5,0.3-1.3,0.5-1.9c2.3-8.9,4.5-17.8,7-26.7c3-10.6,5.7-21.1,3.4-32.4c-1-5.1-0.4-10.7-1.9-15.7
	c-2-7-1.2-15.1-7.6-20.7c-1.2-1-1.3-4.5-0.5-6.2c1.2-2.8,2.4-6.2,6.3-7.1c1.3-0.3,2.7-1.4,3.4-2.6c4.3-6.9,11.7-8,17.6-2.5
	c2.1,1.9,4.4,3.6,6.4,5.5c3.9,3.8,7.6,7.7,11.3,11.7c0.7,0.8,0.9,2,1.3,3c1.9,5.5,3.8,11.1,5.8,16.6c0.2,0.6,1.1,1,1.5,1.3
	c3.7-7.5,7.3-14.7,10.9-21.9c0.6-1.1,1.5-2.4,2.5-2.9c6.6-3.5,13.5-4.8,20.5-1.2c4.5,2.3,9.1,1.9,14.4,0.3c0.6,0.8,1.3,2,2.3,2.9
	c1.6,1.4,3.4,2.2,5.1,0c1.8-2.3,1.5-6-0.7-7c-3.2-1.4-6.6-3.6-9.8-3.4c-5.6,0.4-9.5-2.4-13.8-4.9c-2.7-1.6-5.3-3.7-8.3-4.7
	c-6.2-2.1-12.6-3.6-19-5.3c-13.1-3.7-26.3-7.3-39.4-11c-2.3-0.7-4.5-1.8-6.7-2.8c-6.5-3.2-12.8-6.6-19.4-9.7
	c-5.7-2.7-11.6-5.1-17.3-7.7c-5.8-2.6-11.3-6.7-17.4-7.6c-7.1-1.1-12.8-4.3-18.9-7.2c-5.1-2.4-10.4-1.9-15.8-2.9
	c0.3,1.4,0.8,2.5,1.6,3c4.7,2.8,9.2,6,14.2,8.1c8.1,3.4,16.3,6.4,22.7,12.8c1.2,1.2,3.1,1.8,4.8,2.2c7.7,1.5,12.3,8.5,19.6,10.8
	c1.9,0.6,3.3,2.8,5,4.2C1174.1,780,1175.7,781.1,1178.2,782.8z M1057,674.6c-1.9,0.5-3.3,1-4.8,1.2c-3.5,0.5-7,1.7-10.4,1.2
	c-8.7-1.1-17.3-3-25.9-4.3c-16.5-2.6-33-5-49.5-7.5c-3-0.4-6.1-0.5-9.2-0.7c-18.2-1.3-36.5,1.2-54.7-2c-8.2-1.4-16.7-0.6-25.1-0.8
	c-3.5-0.1-7-0.6-10.6-0.7c-4.8,0-6.2,1.6-6.4,6.4c-0.1,2.8,0.8,4.5,3.2,6.6c5.5,4.7,11.1,7.2,18.6,5.8c7.5-1.4,14.8,0.7,22.1,2.8
	c3.4,1,6.9,2,10.3,2.1c13.4,0.2,26.8,0.1,40.3-0.1c1.7,0,3.7-1.1,5.1-2.2c6.3-5.4,10.1-5.2,15.7,0.7c1.3,1.4,3.6,2.5,5.6,2.6
	c5.2,0.4,10.5,0.5,15.8,0.3c3.7-0.1,7.3-1.1,11-1.5c2.3-0.2,4.8-0.4,7.1,0c4.9,0.8,8.8,3.7,12.9,6.3c10.9,7,22.2,13.4,33,20.5
	c4.4,3,8.7,5.6,13.9,7c3.9,1,7,1.2,10.7-0.6c4.3-2.2,8.9-2.5,13.8-0.4c10.7,4.6,21.6,8.8,32.4,13c3.2,1.3,6.6,2.5,9.8,3.6
	c2.2,0.8,4.5,1.4,6.7,2.2c3.1,1.1,6.1,2.3,9.1,3.5c1.6,0.6,3.4,1.2,4.8,2c6,3.6,11.6,7.8,18.8,8.9c0.8,0.1,1.7,0.6,2.4,1
	c11.5,5.6,22.9,11,35.6,13.6c7.5,1.6,14.7,4.7,21.8,7.5c7.3,2.8,15.9,1.3,22.3,6.9c0.6,0.5,1.8,0.2,2.6,0.5c2.1,0.7,4,1.6,6.1,2.3
	c3.9,1.4,7.7,3.4,11.7,4.1c6.7,1.1,13.3,2.1,20.2,2.2c8.5,0.1,16.6,4.2,23.1,10.2c2.6,2.4,5.3,4.3,8.8,3.3c2.9-0.8,4.4,0.3,6,2.5
	c2.2,3.1,4.8,6.6,8.8,6.5c6.7-0.2,11.5,3.9,17.3,5.8c3.8,1.2,5.1,4.3,3.5,7.9c-1.8,4-3.6,8-7.8,10.1c-6.5-3-12.7-6.4-19.3-8.8
	c-8.3-3-16.6-5.6-23.7-11.2c-2.3-1.8-5.7-3.4-9.4-1.1c4.2,4.3,3.8,8.6,0.9,12.8c-2.2,3.2-2.5,6.4-1.8,10.1
	c1.5,6.9,2.9,13.8,4.4,20.7c0.4,1.7,1.2,3.6,0.9,5.2c-1.4,7.1,0.6,14,0.5,21c-0.1,5.3,0.9,10.9-3.3,15.7c-5.2,6.1-12.1,6.7-19,7.1
	c-5,0.3-10.2-0.1-15.1-0.9c-6.1-1.1-14,0.7-16.1-8.4c-0.1-0.4-0.4-0.9-0.8-1.1c-1.7-0.7-4.1-2.2-5.1-1.6c-1.8,1-4.1,3.4-4.1,5.3
	c-0.2,7.4,0.4,14.8,0.8,22.2c0,0.7,0.8,1.4,1.5,2.6c0.9-1.4,1.5-2.2,2.1-3.1c2.9-4.8,9.1-6.5,14.1-3.9c4.8,2.4,9.7,4.8,15.3,7.6
	c0.2,2.3,1.3,5.4,5.8,6.4c0.3-2.7,0.2-5.4,0.9-7.8c0.5-1.7,1.7-4,3.1-4.4c4.7-1.4,9.6-1.7,13.4,2.6c0.9,1,1.4,2.4,2.4,3.1
	c9.9,6.3,15.4,17.3,25.2,23.5c0.4,0.2,0.7,0.6,0.9,1c2.8,4.3,6,8.2,11.8,8.6c0.9,0.1,1.6,1.3,2.5,2c4.7,3.9,9.5,7.8,14.1,11.8
	c3.5,3,7.3,5.8,10.1,9.3c2.8,3.5,6.1,5.8,10.2,7.4c-4.8-7.8-7.7-16.7-16.1-21.8c-3.5-2.1-7.2-4.5-7.9-9.3c-0.1-0.7-1.1-1.8-1.7-1.8
	c-3.9,0.2-4.3-3.1-5.8-5.4c-2.7-4-5.6-7.9-8.2-12c-2.8-4.4-4.6-9.2-3.2-14.4c0.5-1.8,2.1-4.4,3.6-4.7c5.1-1,9.7-3.8,15.2-3.4
	c2.1,0.2,4.3-0.7,6.7-1.1c0-1.2,0.4-2.3-0.1-2.8c-4.4-5.5-4.9-12.5-7.6-18.7c-2.2-5-3.4-10.6-6.5-14.9c-2.7-3.7-3.2-7.5-4-11.6
	c-0.6-2.9,0.8-4.7,3.2-5.8c1.8-0.8,3.7-1.7,5.6-1.8c7.7-0.6,15.4-1.3,23.1-1.3c8.8,0,17.5,0.7,26.3,1.1c1.5,0.1,3.3,0.3,4.6-0.3
	c4.7-2.3,8.9-0.7,13.4,0.8c6.5,2,13.1,4,19.8,5.1c6.3,1,12.7,0.8,19.1,1.3c1.9,0.2,4.4,0.5,5.5,1.7c5,5.3,9.3,11.3,13.5,17.3
	c1,1.4,1.4,3.1,2,4.7c7.6-1.4,9.4-3.5,10.1-9.9c0.6-5.2,1-10.7,3.1-15.3c2.9-6.3,3.3-12.7,3.5-19.3c0.1-2.2,0.5-4.4,1-6.5
	c2.2-9.4,5.2-18.6,6.7-28.1c1.6-10.2,1.8-20.5,2.6-30.8c0.6-8.3,1-16.5,4.6-24.4c1.2-2.7,0.5-6.4,0.6-9.6c0.1-2.8-0.6-5.9,0.4-8.4
	c5.8-14.5,3.7-29.8,4.4-44.7c0.1-2.2-0.2-4.5-1-6.5c-0.7-1.6-2.3-3.5-3.8-3.8c-5.4-1.1-10.8-1.9-16.3-2.1
	c-9.9-0.4-19.9,0.3-29.3-3.8c-1-0.4-2.2-0.7-3.2-0.7c-12.2,0.8-23.4-4.8-35.6-4.8c-8.4,0-16.8-0.7-25.2,0.4c-6.5,0.9-9.2,4-9.2,10.5
	c0,8.4,0.8,16.8-0.1,25.1c-1.5,13.9,1.2,27.6,0.6,41.4c-0.3,5.7,0.5,11.4,0.8,17.2c0.2,4.4,0.8,8.8,0.7,13.2
	c-0.2,6-8.2,14.5-14,15.5c-2.9,0.5-4.7-0.9-6-3.1c-2.1-3.6-5.5-4.6-9.3-5.4c-3.3-0.7-7.2-1.8-9.4-4c-3.1-3.2-6.7-4-10.5-4.7
	c-4.9-0.8-10.4-0.4-14.8-2.3c-6.7-3-13.7-3.1-20.5-4.6c-1.4-0.3-3.3-0.7-4.1-1.7c-4-4.7-9.8-4.2-15-5.4c-3.4-0.7-7.7-0.5-10-2.5
	c-5.8-5-12.4-7-19.6-8c-0.6-0.1-1.2-0.5-1.9-0.7c-3.5-1.2-6.7-1-10,1.3c-2.9,2-6.2,3.7-9.6,4.2c-4,0.7-8.4,0.8-12.2-0.3
	c-5.7-1.6-11-4.4-16.4-6.7c-4.6-2-9.2-5.2-13.9-5.6c-9-0.6-15.7-6.2-23.7-9.1c-5.2-1.8-10.1-4.8-15.6-6.3
	c-6.7-1.8-13.2-4.5-19.8-7.1c-1.6-0.6-3-1.9-4.1-3.2c-1.6-1.8-3.3-2.2-5.7-2.3c-5.9-0.5-11.9-1-17.5-2.9c-7.4-2.4-14.4-6.1-21.6-9.2
	c-7.6-3.3-15.7-5.8-22.8-10C1067.2,689.9,1058.8,685.7,1057,674.6z M671.3,953.4c7.1,2,13.9,4,20.7,5.7c7,1.8,13.4,2.6,20.6-1.5
	c7-4,13.9-7.7,20-13.1c3.2-2.9,5.8-7.3,10.9-6.6c0.8-1.7,1-3.5,2.1-4.3c8-6.2,16.1-12,24.1-18.2c4.2-3.2,8.2-6.6,12.1-10.2
	c2.2-2.1,4.6-4.7,3.4-8c-2.7-7.6-2.6-15-0.1-22.6c0.4-1.1,0-2.6-0.4-3.8c-2.4-6.8-0.5-13.2,2.8-19c1.2-2.2,4.1-4.1,6.6-4.9
	c7.1-2.2,8.5-3.6,8.4-11c-0.3-19.2-0.6-38.4-0.7-57.5c-0.1-17,0.3-33.9-0.2-50.9c-0.4-13.3,0-26.4,2-39.5c0.5-3.2,0.4-6.6,0.2-9.9
	c-0.3-6.3-4.2-8.5-10-5.7c-1.6,0.8-2.9,2.1-4.5,2.6c-13.7,4.6-27.5,9.2-41.3,13.7c-12.3,4-24.8,7.9-37.1,11.9
	c-5.2,1.7-10.3,3.4-15.4,5.1c0.2,1.2,0.2,1.9,0.4,2.4c2.5,6.2,2,8.6-3.4,12.2c-2.9,1.9-6,3.9-9.3,4.9c-5.6,1.7-7.6,5.4-7.9,10.8
	c-0.4,5.9-0.8,11.9-1.5,17.8c-0.3,2.6,0.4,4.1,2.8,5.2c3,1.4,5.9,3,8.7,4.7c8.4,5.1,9.8,9.8,6.2,18.7c-2.1,5-6.5,6.1-11,7.2
	c-4.4,1.1-8.8,2.2-13.2,3.2c0,8.9,0,17.1,0,25.2c0,5.5,0.3,10.9,0.1,16.3c-0.2,6.8-1.8,13.7-1,20.3c1,8.2,0.3,16.2-0.3,24.3
	c-0.5,6.6-0.6,13.2-0.6,19.7c0,6.6,0.4,13.2,0.7,19.8c0.2,3.7,0.5,7.4,1.1,11.1c1.1,6.9,2.3,13.8,3.5,20.7
	C670.8,951,671,951.9,671.3,953.4z M1344.2,762.7c3,0.8,5.5,1.3,8,2c3.9,1.2,6.9-1.5,10.4-2.4c0.7-0.2,1-3,1-4.6
	c0-3.3-0.6-6.5-0.5-9.8c0.4-11,0.9-21.9-0.3-32.9c-0.6-5.7,0.6-11.8,1.9-17.5c1.3-5.8,1.6-11.6,0.7-17.4c-0.2-1.4-0.7-3.3-1.8-4.1
	c-2.3-1.6-1.9-3.6-1.9-5.8c0.1-4.8-5.9-11.5-10.7-11.5c-6.8,0-13.7,0-20.3,1.3c-7.2,1.5-13.9-0.2-20.8-1.2c-4.3-0.6-8.6-1.3-13-1.4
	c-7.9-0.2-15.9,0.9-23.2-3.2c-1.4-0.8-3.4-0.8-5.2-0.8c-10.8-0.3-21.6,0-32.2-0.9c-10-0.8-19.8-0.4-29.6,0.9
	c-6.3,0.8-12.7,1.2-19.1,1.8c-5.9,0.5-11.8,1.2-17.8,1.6c-5,0.4-9.4,2-12,4.6c-4.6,0.4-8.4-0.2-11.3,1.1c-6.8,3-13.8,4.5-21,5.3
	c-4.1,0.5-6.4,2.7-8.3,5.7c-3.1,5-5.9,10.1-9.1,15.5c3.8,2.1,7.2,5,11.2,6.2c8.4,2.6,16.2,6.2,24.2,9.7c3.7,1.7,7.4,3.8,11.3,4.9
	c6.3,1.8,11.8,4.5,15.7,9.2c2.1-0.1,4.6-0.9,5.3-0.1c2.9,3,6.8,2.9,10.2,4.1c7,2.5,13.2,7.2,21.1,7.1c0.6,0,1.3,0.4,1.9,0.6
	c5.2,1.6,10.5,3.2,15.7,4.9c2.1,0.7,4.4,1,6.2,2c5.4,3.2,11.4,3.2,17.3,3.3c1.2,0,2.9-0.3,3.6-1.1c4.8-5.5,10.4-6,16.7-3.2
	c1,0.4,2.2,0.3,3.2,0.6c4,1,8.1,1.7,11.9,3.3c6.2,2.5,12,6.2,18.3,8.4c10,3.5,20.2,6.2,30.4,9.1c2.2,0.6,4.7,0.3,7.1,0.5
	c0.6,0,1.3,0.2,2.1,0.4C1342.6,760.3,1343.6,761.7,1344.2,762.7z M1586.5,1237c0.6-8.5,1.2-16.3,1.7-24.2c-4.2-6.1-0.7-12.6-1-18.9
	c-0.7-14.2-2.8-28.3-3.2-42.6c-0.2-6.3,0.8-12.2,1.8-18.3c0.4-2.6,1.2-5.1,1.1-7.7c-0.6-10.1-2.1-20.2-2.3-30.3
	c-0.2-10.1-5.4-19.6-3-29.9c0.1-0.4-0.2-0.8-0.3-1.3c-2.4-7.3-4.8-14.5-7.2-21.8c-0.3-0.8-0.8-1.6-1.3-2.3
	c-2.2-3.8-4.4-7.6-6.6-11.4c-2.4-4.2-4-8.9-8.7-11.4c-0.7-0.4-1.2-1.2-1.6-2c-4.1-7.9-8.1-15.9-12.3-23.8c-1.6-2.9-3.6-5.5-5.6-8.1
	c-1.5-1.9-3.9-1.4-4.6,0.9c-0.4,1.2-0.2,2.6-0.3,3.9c-0.5,9.9-1.1,19.8-1.5,29.7c-0.2,6.8-0.3,13.7,0.1,20.5c0.4,6.5-1,9.9-6.8,12.8
	c-1.4,0.7-3.1,0.9-4.3,1.7c-1.5,1.1-3.6,2.4-3.9,4c-1.6,6.6-3.3,13.3-3.8,20.1c-1,12.9-1.1,26-1.9,38.9c-0.3,5.2-0.5,10.7-1.9,15.6
	c-1.6,5.4-3.7,10.5-2.7,16.3c0.4,2.1-1.2,5-0.3,6.4c3,4.7,2.1,9.7,2.6,14.7c0.8,8.1-4.6,18.3-12.3,21.4c-3.7,1.5-4.8,3.7-4.4,6.9
	c0.8,8.5,1.9,17,3.1,25.5c0.2,1.2,1.5,3,2.6,3.3c4,1,8.1,1.5,12.2,2c7.5,0.9,15.1,1.3,22.4,2.8c3.9,0.8,7.5,3.3,11.3,5.1
	c2.5-0.4,5.3-1.5,8.1-1.3c5.4,0.4,10.8,1.5,16.1,2.2c2.6,0.4,5.4,0.1,7.8,1.1C1579.5,1239.3,1582.9,1238.7,1586.5,1237z M858,846.8
	c6.7,3.9,12.8,3.3,18.6,4c13.1,1.8,26.1,3.7,39.2,5.4c5.5,0.7,6.3,0,6.1-5.5c-0.3-8.6-0.4-17.2-1.3-25.7c-0.9-8.6,2.6-15.9,6-23.3
	c2-4.4,6.3-5,10.1-6.8c3.5-1.6,5.8-4,5.4-8.7c-0.5-5.7,0.1-11.5,0.1-17.2c0-11.7-0.9-23.5,0.3-35c0.8-8.2,0.7-16.1,0.3-24.2
	c-0.4-9.5-1.3-11-10.6-10.7c-12.7,0.3-25.1-0.8-37.2-4.5c-5.8-1.8-11.2-0.9-16.9,0.3c-6.2,1.3-12.5,2.5-18.8,3.1
	c-4.8,0.5-9.7,0-14.5-0.2c-3.2-0.1-4.9,1.1-5.3,4.5c-0.5,4.6-1.6,9.1-2,13.7c-1.7,19.8-3.5,39.5-4.5,59.3
	c-0.5,8.3,0.7,16.6,1.1,25.1c1.6,0,2.7,0,3.7,0c5.2,0.3,10.1,1.1,13.8,5.2c2,2.3,4.3,4.4,6,6.9c2.8,4.2,4.4,8.3,2.7,14.1
	C858.3,833.2,858.6,840.3,858,846.8z M96.2,1175.5c1.8,2.4,3.5,3.9,4.1,5.8c1.1,3.8,3.6,5.2,7.1,5.9c8.2,1.5,16.4,3.3,24.6,4.7
	c3.4,0.6,6.9,0.3,10.4,0.4c3.1,0.2,6.5-0.3,9.2,0.8c4.6,1.9,9.2,1.8,13.9,1.9c6.4,0.2,12.8,0.4,19.2,1c9,0.8,17.9,2.2,26.8,3
	c10.5,1,21.1,1.6,31.6,2.4c4.5,0.3,8.9,3.7,13.7,0.9c0.3-0.2,0.8,0.2,1.3,0.2c7.9,0.1,15.8,0.1,23.7,0.1c2,0,4-0.3,5.9-0.1
	c8.7,1.1,17.4,2.2,26.1,3.5c6.9,1,13.8,2.8,20.8,3.5c10.5,1.1,21.1,1.3,31.7,2.2c17.8,1.6,35.5,3.6,53.3,5.3
	c9.8,0.9,19.8,1,29.5,2.2c10.2,1.3,20.5,2,30.7,3.4c11.2,1.5,22.6,0.6,34,2.5c9.8,1.6,20,1.2,30,2.7c9,1.3,18.2-0.1,27.3,1.2
	c5.2,0.8,10.6-0.1,15.8,0.5c5.7,0.6,10.7-0.2,15.9-2.6c4.9-2.2,9.8-5.9,16.2-2.8c2.9,1.4,8.5-2.2,10.1-5.4c1.7-3.5,3.9-6.4,7.2-8.3
	c4.2-2.4,8.3-4.8,12.6-7c8.2-4.3,16.2-3,24,1.3c2.7,1.5,5.4,3,8.3,4c6,2.1,10.9,5.5,14.4,11c3,4.7,8.3,5.7,12.8,8.5
	c2.9-5.6-0.2-9.6-1.8-13.2c-2.8-5.9-3.7-12.1-5-18.3c-1.1-5-2.6-9.9-3.9-14.6c-6.9-0.3-11.9,7.4-18.5,2.2c-2.3,1.9-4.2,4-6.5,5.2
	c-2.6,1.3-5.8,2.9-8.4,2.5c-2.9-0.5-4.9-0.3-7.4,1.1c-10.2,5.8-21.3,8.4-32.9,8.5c-9.6,0.1-19.3-1-28.9-1.6
	c-1.3-0.1-2.6-0.4-3.9-0.6c-5.7-0.6-11.4-1.6-17.1-1.6c-15.4-0.2-30.8,0.2-46.3,0c-14.3-0.2-28.6-0.6-42.9-1.1c-22-0.9-44-2.7-66-3
	c-18.5-0.2-37,0.8-55.5-1.8c-8.3-1.2-16.6-1.7-25-2.1c-9.6-0.6-19.3-0.4-28.8-1.2c-14.7-1.2-29.3-3.1-43.9-4.4
	c-12.3-1.1-24.6-1.5-36.9-2.4c-5.9-0.4-11.8-1.2-17.7-1.9c-9.2-1.2-18.4-3.8-27.5-3.4c-14.9,0.6-29.5-3-44.3-1.2
	c-0.8,0.1-1.7-0.5-2.6-0.5c-2.2-0.2-4.3-0.3-6.5-0.2c-2.9,0.1-5.7,0.4-8.5,0.5C113.3,1175.2,105.1,1175.3,96.2,1175.5z M561.5,723.9
	c0.6,1.1,1.3,1.9,1.3,2.6c-0.2,4.4,2.1,7,5.7,8.8c6.5,3.2,12.8,6.7,19.4,9.6c1.4,0.6,3.8-0.1,5.5-0.8c6.7-2.6,12,0.4,12.4,7.6
	c0.2,3.5,0.9,6,4.5,7.1c1,0.3,1.9,1.1,2.7,1.8c8.4,7,17.7,12.5,28.1,15.5c7.2,2,14.8,1.4,22.4-2.6c-2.1-1.4-3.4-2.4-4.8-3.3
	c-7.3-4.5-14.9-8.5-21.8-13.5c-11.5-8.4-22.5-17.5-33.8-26.1c-2.6-2-4.6-3.9-4-7.6c0.7-3.9,2.7-6,6.6-7.3c7.7-2.4,16-3.1,23.2-7.2
	c3.8-2.1,8.1-3.3,12.3-4.5c6.1-1.9,12.5-2.9,18.3-5.3c8.1-3.4,16-7.3,24.8-8.6c3.7-0.5,7.4-1.4,10.9-2.5
	c14.5-4.2,29.1-8.3,43.6-12.8c11.3-3.6,22.5-7.6,33.5-11.8c7.8-2.9,15.1-7.1,22.9-9.5c5.5-1.7,8.7-4.5,10.2-9.8
	c0.4-1.5,1.5-2.7,1.8-4.2c0.2-1.1,0.1-3-0.7-3.5c-4.9-3.6-9.7-7.4-15-10.3c-11-6-22.8-10.2-33-17.6c-6.8-4.8-14.8-7.9-19.6-15.2
	c-1.4-2.2-2.8-4.5-4.6-6.4c-2.5-2.6-3.5-5.5-3.5-9c0-3.1,0-6.2-0.1-9.3c-0.2-7.8-1.8-8.8-8.6-5.5c-4.9,2.4-9.7,5.3-14.8,6.9
	c-4.8,1.5-8.5,3.1-9.2,7.8c-3.2,0-6.3-0.8-8.5,0.2c-7,2.9-14.3,3-23.2,3.7c3.7,3,6.3,5.2,9.2,7.2c7.6,5.3,15.3,10.3,22.9,15.6
	c7.1,5.1,14,10.6,21.1,15.7c7.4,5.3,14,12.1,23.7,13.6c1.7,0.3,3.4,0.9,5.1,1.4c6.3,2.1,7.8,7.9,2.7,12c-2.1,1.7-5,2.5-7.7,3.1
	c-5.8,1.4-11.7,2.1-17.3,3.8c-6.5,1.9-12.8,4.5-19,7c-14.1,5.5-28,11.5-42.2,16.7c-8.8,3.2-17.6,6.8-27.4,6.6
	c-8.6-0.2-17,1.7-25,5.3c-4,1.8-8.2,3.2-12.4,4.2c-9.8,2.5-19.4,5.6-28.3,10.6c-2.1,1.2-4.5,1.9-6.6,3c-7.2,3.6-14.4,7.2-21.6,10.8
	C549.3,725.6,550.9,726.1,561.5,723.9z M1145.4,645.1c-0.1-0.3-0.1-0.6-0.3-0.7c-0.6-0.3-1.2-0.5-1.8-0.7c-11.1-2.5-22-0.8-32.5,2.9
	c-3.8,1.3-5.9,0.1-7.9-2.5c-2.4-3.1-2.4-6.5,0-9.5c2.2-2.7,4.7-5,6.8-7.3c-1.2-4.1-2.4-8.1-3.4-11.7c3.2-2.6,6-4.5,8.3-6.8
	c2.9-3,5-6.7,4.2-11.1c-0.4-2.3-1.5-4.5-2.5-7.1c-3.4-0.4-6.8-1-9.8,1.6c-4.3,3.7-9.3,6.8-13,11.1c-4.8,5.5-10.6,9.2-16.7,12.8
	c-1.1,0.7-2.6,1-3.4,1.9c-5.3,5.5-13.1,4.7-19.4,7.6c-0.5,0.2-1.3,0-2,0c-4.1-0.4-8.3-1.2-12.4-1.3c-10.8-0.3-21.6-0.6-32.4-0.5
	c-11.7,0.1-23.3,0.8-35,1.1c-9.2,0.2-18.5,0-27.8,0c-6.4,0-12.8,0.2-19.2,0.2c-11.7,0.1-23.4,0.2-35,0.2c-4.4,0-8.8,0.2-13.2-0.1
	c-6.6-0.4-13.2-1.6-19.8-1.5c-5.2,0.1-8.5-2.4-10.9-6.1c-4.3-6.5-10.2-10.4-17.7-12.1c-0.8-0.2-1.6-0.7-2.4-1.1
	c-10.2-5.5-20.3-11.3-30.8-16.3c-11.5-5.4-22.1-12.8-34.4-16.4c-1.2-0.3-2.5-1.1-3.3-2.1c-3.3-3.6-6.9-3.3-10.8-1.4
	c-1.4,3.4,0.4,5.9,2.2,8.5c6.1,8.6,14.4,14.7,22.8,20.6c4,2.8,7.7,5.9,11.8,8.4c7.7,4.6,15.5,9.1,23.5,13.2
	c8.1,4.3,16.5,8.1,24.7,12.2c2.9,1.5,5.7,3.2,8.5,4.9c1.9-1.4,3.4-2.6,5-3.8c6.5-5.1,11.7-3.6,14.7,3.9c1,2.3,2.5,5.4,4.5,6.1
	c4.4,1.7,9.3,2.6,14,3.1c8.5,1,17.3,0.7,25.6,2.3c6.4,1.2,12.6,1.5,19,0.9c1.5-0.2,3.1-0.3,4.6-0.3c18.7,0.5,37.4,1.1,56,3.2
	c8.5,1,17.2,1.7,25.4,4.1c8.7,2.5,17.4,2.3,26.2,3.3c2.7,0.3,4.6-1,4.6-4.2c0-3.1,0.5-6.2,0.4-9.2c-0.1-4.9,2.4-7.6,6.6-9.5
	c4.5-2.1,6.7-1.4,7.8,3.3c0.8,3.4,0.8,7,1.1,10.5c0.5,4.7,2.4,6.2,7.1,5.3c2.1-0.4,4.2-1.8,6.3-1.7c8.3,0.5,16.6,1.6,24.9,2
	c6.1,0.3,12.3,0.2,18.3-0.5c3.8-0.4,7.6-2,11.3-3.2c3-1,6.3,0,8.9-0.6C1137.4,650.3,1141.3,647.2,1145.4,645.1z M874.8,1361.1
	c2.5,0.3,4.4,0.8,6.3,0.7c11.7-0.7,23.2,1.6,34.9,2.2c2,0.1,4,0.2,5.9,0.7c7.2,1.9,14.6,2,22,1.6c2.4-0.1,4.9-0.4,7.2,0.2
	c8.8,2.4,17.7,2.8,26.7,2.7c6.7-0.1,13.4-1.6,20.1-2.5c0.4-0.1,0.8-0.8,1.5-1.6c-5.3-0.7-10-1.2-14.8-1.9
	c-7.8-1.3-15.6-2.7-23.4-4.1c-4.1-0.7-8.1-2-12.2-2.4c-16.5-1.4-32.7-3.9-48.8-7.9c-5.6-1.4-11.5-3-14.2-8.8
	c-1.8-3.9-3-8.1-4.1-12.2c-0.7-2.5-0.6-5.1-1.1-7.6c-0.9-4.7-0.9-9.1,3.2-12.7c1.5-1.4,2.4-3.5,3.6-5.3c1.3-2.1,0.8-3.8-1.1-5.2
	c-4.2-3.1-8.5-6.2-12.8-9.2c-9.3-6.5-18.8-12.8-28.1-19.5c-5.8-4.2-11.2-9.1-17.1-13.2c-3.6-2.5-7.4-5.6-12.3-3.9
	c-1.4-2.4-2.6-6.1-3.8-6.1c-5.1,0-7.3-4.7-11.4-6.2c-1.9-0.7-3.5-2.4-5.2-3.7c-4.4-3.2-8.6-6.8-13.2-9.7c-5-3-11.9-2.7-15-8.8
	c-0.2-0.3-0.7-0.6-1.1-0.7c-3.8-1.4-7.5-2.9-11.9-4.5c0.3,1.7,0.4,3.4,1,4.9c3.5,8.4,4.2,17,2.8,25.9c-0.2,1.3,0.3,3.1,1.2,4.2
	c4.1,4.8,8.2,9.8,12.8,14.1c5.7,5.3,12.1,9.9,18,15.1c2.1,1.8,4.9,4.2,5.2,6.6c0.6,5,4.3,6.1,7.6,8.1c2.2,1.4,4.5,2.6,6.5,4.3
	c3.3,2.8,6.2,6.2,9.8,8.8c5.2,3.7,8.7,9.2,15,11.7c3.7,1.5,7.6,4.2,9.8,7.4c4.5,6.5,10.6,10.5,17.3,13.8
	c8.9,4.3,13.4,10.8,13.3,20.6C874.8,1357.9,874.8,1359,874.8,1361.1z M1043.6,1187.5c0.6,0.2,1.1,0.5,1.7,0.7
	c2.3-3.7,5.3-3.4,8.8-2.8c5.5,1,10.9,0.3,15.9-2.7c6-3.6,12.2-6.9,18.2-10.4c9.4-5.6,18.9-11.2,28.2-16.9c1.4-0.9,3-2.3,3.4-3.8
	c2.3-7.6,3.8-15.4,3.3-23.3c-0.7-9.6-2-19.2-2.8-28.8c-0.6-7.2-0.5-14.5-0.8-21.8c-0.4-6.8-1-7.3-7.5-5.9
	c-20.4,4.5-40.7,9.1-61.8,13.8c-0.8,3.9-2.1,8.2-2.4,12.5c-0.7,9.2-0.8,18.4-1.3,27.7c-0.8,16.9-0.3,33.9-2.9,50.8
	C1042.9,1180.1,1043.5,1183.8,1043.6,1187.5z M717.3,981.8c-0.2,0.5-0.5,1-0.7,1.5c3.5,2.2,6.7,5.2,10.4,6.3
	c13.9,4.3,25.8,12.8,39.2,18.2c9.7,3.9,18.5,10,27.7,15.2c3.4,1.9,6.7,4.3,10.3,5.9c11.6,5.2,23.5,9.6,33.7,17.5
	c1.3,1,3.2,1.3,4.8,2c1.4,0.6,2.9,1,4.2,1.8c7,4,13.9,8.3,21,12.2c7.6,4.2,15.4,8.2,23.2,12.4c12.3,6.6,24.1,14.2,37.6,18.3
	c3.8,1.1,7.1,3.4,10.8,4.9c4.5,1.9,8,0.5,9.4-4c1.2-3.7,1.8-7.7,2.6-11.6c0.3-1.5-0.1-3.3,0.6-4.5c4-6.8,6-15.1,14.3-19.2
	c-5.9-2.3-11.7-3.5-17.7-4c-0.2,0-0.4,0.1-0.6,0.2c-6.4,3.2-11.2-0.4-15.2-4.3c-2.5-2.4-4.9-4.3-8.1-5.2c-4.4-1.2-8.9-2.3-13.5-3
	c-9.1-1.4-18.3-2.5-27.4-3.8c-3.5-0.5-7-2.2-10.3-2c-4.8,0.4-7.5-1.1-9.3-5.3c-1.1-2.5-2.4-5.1-6.4-4.4c-2.2,0.4-4.7-1.4-4.4-3.9
	c0.8-6.9-3.3-8.8-8.9-9.6c-1.3-0.2-2.6-0.5-3.8-0.8c-5.3-1.4-6.9-4.6-5.2-9.9c1.2-3.7,2.7-7.5,3.4-11.3c1.4-8.1,4.1-11.3,12.3-13.4
	c2.2-0.5,4.3-1.3,7.4-2.3c-5.1-4.3-9.5-6.7-13.6-7.2c-6.1,4.3-11.4,7.7-16.4,11.7c-3.2,2.5-7.4,3.9-9.1,8.1c-1.4,3.4-2.5,7-4.3,10.2
	c-5,8.8-13.5,12.7-22.8,9.6c-12.9-4.3-25.5-9.5-38.3-14.2c-2.6-1-5.4-2.2-8.2-2.1c-3.5,0.1-5.9-1.4-8.1-3.7
	C732,982.3,725,981,717.3,981.8z M892.2,1096.7c0-0.6,0-1.1,0-1.7c-5.6-2.8-9.6-7.7-15.7-10.3c-9-3.8-17.4-9.1-26.1-13.9
	c-6.9-3.8-13.9-7.3-20.5-11.6c-8.1-5.3-16.4-10.2-25.4-13.9c-6.7-2.8-13.3-5.8-19.6-9.3c-4.9-2.8-9.1-6.9-14-9.7
	c-5.8-3.2-11.8-5.9-18-8c-6.2-2.1-10.8-6.8-17.5-8.2c-5.9-1.2-11.2-5.3-16.9-7.9c-12.4-5.6-24.7-11.2-37.2-16.6
	c-7.4-3.1-8.7-2.5-14.5,4c6.3,5.2,6.5,5.6,6.2,14.4c-0.1,1.3-0.3,2.7-0.1,4c0.3,2.1,0.9,4.1,1.4,6.1c0.4-0.3,0.7-0.7,1.1-1.1
	c3.6,1.3,7.3,2.4,10.7,3.9c10.3,4.7,19.6,11.3,30.3,15.4c7.5,2.8,14.5,7,21.8,10.5c2,1,4,1.9,5.9,2.9c6,3.1,12,6.3,18,9.4
	c3.7,1.9,7.3,3.8,11.1,5.6c4.2,1.9,8.7,3.3,12.6,5.6c14.8,8.5,29.4,17.5,44.2,25.9c6,3.4,11.3,8.2,18.6,9.5c3,0.5,5.5,2.8,4.9,6.8
	c-0.2,1,0.3,2,0.4,2.8c3.1,1.2,5-0.1,6.8-1.9c6.2-6,13.3-10,22.1-10.7C886,1098.7,889.1,1097.5,892.2,1096.7z M923,874.8
	c-3.3-1-5.6-1.9-7.9-2.3c-9.9-2-19.8-4.1-29.8-5.8c-6.3-1-12.7-1.2-19-1.8c-4.1-0.3-6.8,1.5-7.8,5.6c-1.7,7-4.1,14-4.7,21.1
	c-0.7,9.4,0.2,18.9,0.1,28.3c-0.1,5.8,2.3,9.8,7.5,12c2.4,1,3.4,2.6,3.3,5c-0.3,6.9-0.3,14-5.8,20.6c5.9,1.4,11.1,2.8,16.4,3.9
	c1.9,0.4,4.3,0.8,5.8,0c6.8-3.9,13.8-3.6,20.7-1.7c0.7-0.6,1.1-0.8,1.4-1.1c5.3-6.5,5.8-6.6,13.8-3.6c1,0.4,2.3,0.9,3.1,0.5
	c3.6-1.7,7.9-3.2,8.6-7.5c0.6-3.7-0.7-7.3-4.1-9.8c-1.5-1.1-3.1-2.9-3.3-4.6c-0.8-5.4-1.6-10.9-1.4-16.3c0.4-9.9,1.6-19.7,2.4-29.6
	C922.6,883.7,922.7,879.6,923,874.8z M1514.6,1032.4c0.9-6.8,1.5-13.6,0.1-20.3c-1-4.8-3.5-8-8.7-8.5c-3.7-0.4-7.4-0.8-11.1-1.4
	c-10.9-1.6-22.3,0.8-32.9-4.4c-3.3-1.6-5.2-3.1-5.1-6.6c0.1-3.7-1.8-5.8-4.3-8.3c-4.7-4.8-8.6-10.1-7.9-17.8
	c0.8-8.8-1.6-16.8-7.6-23.3c-2.7,0.5-5,1.5-7.3,1.3c-5-0.3-10-1.2-14.9-1.9c-2.2-0.3-4.5-0.4-6.3-1.5c-5.3-3-11.8-3.8-16.3-8.5
	c-0.8-0.8-2.4-1.3-3.6-1.3c-6.4,0.2-12.7,0.6-19.1,1.1c-1.4,0.1-2.7,1.1-3.8,1.6c0.3,12.4,9.4,17.5,17.7,23c2.2,1.4,3.7,2.7,4.8,4.9
	c1.6,3.6,3.4,7.2,8,7.9c2.5,0.4,3.1,2.5,3.9,4.8c1.4,4.1,2.6,8.5,5.1,11.9c2.9,4.1,6.9,7.2,10.4,10.8c2.1,2.1,4.5,2.8,7.2,1.4
	c6.4-3.4,12.4-1.3,18.3,1.6c3.7,1.8,7.4,3.7,11.3,4.9c2.6,0.8,3.8,2,4,4.4c0.1,1.5,0.2,3.1,0.1,4.6c-0.2,8.8,2.7,12.6,11.3,14.2
	c10.5,2,21.1,4,31.7,5.4C1504.3,1033.4,1509.4,1034.8,1514.6,1032.4z M239.9,652.8c2.9,0.2,4.7-0.6,5.3-3.2c0.5-2.1,1.2-4.2,2-6.3
	c1.3-3.4,3.2-6.4,7.1-7.2c4.7-1.1,7-3.7,7.4-8.7c0.5-6,4.6-10.4,9.6-12.5c7.2-2.9,14.7-3.4,22.1,1c3,1.8,5,3.6,4.8,7.1
	c-0.4,6.6-0.9,13.1-1.2,19.7c-0.4,7-0.7,14.1-0.6,21.1c0,1.4,1.4,3.6,2.6,4c5.1,1.6,10.5,2.7,16.4,4.1c1.3-9.1,3.1-17.7,3.6-26.3
	c0.7-12.3,0.5-24.6,0.5-37c0-7-0.6-14.1-0.9-21.1c-0.1-2.5-0.3-5.2-3.5-5.5c-5.9-0.5-11.9-0.8-17.8-0.9c-4.1-0.1-8.3,0.8-12.4,0.3
	c-6.4-0.8-12.7-2.3-19.2-3.6c-4.7,10-5.8,8.7-15.3,9.6c-1.1,0.1-2.9-0.1-3.2,0.4c-2.8,5.9-10.7,7.7-11.8,14.9c-0.3,2-1,3.8-1.2,5.8
	c-0.5,5.1-3.8,8.5-8.3,9c-5.3,0.7-7.5,3.8-8.3,7.9c-1.1,5.4-3.9,9.2-8.1,12.4c-0.8,0.6-1.3,1.6-2.4,3c2.8,1.5,4.9,2.8,7.2,3.8
	c2.6,1.1,4.4,0.5,6-2.1c5.2-8.4,10.2-5.4,14.2,0.2c1.3,1.8,2.1,3.9,3.1,5.8C238.4,650,239.2,651.5,239.9,652.8z M1290.5,1091.6
	c-4,0.4-8.6-0.8-10.7,3.6c-3.5,7.2-9.9,9.7-16.9,11.2c-4.8,1-9.3,2-13.2,5c-1.9,1.5-3.4,3.4-5.4,4.6c-8,4.8-16.1,9.5-24.2,14.2
	c-1.1,0.7-2.6,0.8-3.6,1.6c-3.4,2.7-6.9,5.4-10,8.4c-1.8,1.8-2.5,4.3-5.6,5.1c-2.6,0.7-2.5,3.5,0,4.9c5.5,3.1,11.5,5.5,16.7,9
	c6.3,4.1,15.2,2,20.1,8.9c6,0.9,10.6,4.9,15.9,7.1c9,3.8,18.4,8.4,28.9,6.6c1-0.2,2.1,0.5,3.2,0.6c5.6,0.8,7.3-1.3,5.8-6.7
	c-0.9-3.4-2.4-6.8-2.5-10.2c-0.2-9.2,0-18.5,0.3-27.7c0.5-14.3,1.3-28.5,1.9-42.8C1291.3,1094,1290.8,1092.9,1290.5,1091.6z
	 M1534.5,938c-0.5,0.3-1,0.6-1.4,0.9c1.3,2.9,2.4,6,4.1,8.7c3.5,5.6,7.7,10.7,10.9,16.5c7,12.4,13.5,25.1,20.3,37.6
	c1.5,2.7,3.5,5.1,5.1,7.7c5.3,9,11.5,17.6,14.9,27.7c0.1,0.4,0.4,0.8,0.7,1.1c5.1,6.7,9.9,13.4,11.9,21.8c0.5,2.3,1.9,4.5,3.5,6.3
	c3.5,3.9,5,8.7,7.2,13.2c0.5,1,0.6,2.2,1.2,3.1c6.5,10.7,13,21.3,19.5,31.9c3.7,6.1,7.4,12.3,11.2,18.4c3.3,5.4,6.8,10.7,10,16.1
	c3.2,5.5,6.2,11.1,9,16.8c3,6,6.3,11.9,9.7,17.7c3.6,6.2,5.4,13.3,8.5,19.8c2.4,4.9,5.6,9.3,8.5,13.9c6,9.4,12,18.9,18.4,28.9
	c7.1-3.3,10,0.8,12.3,6.6c1.2,3,3.2,5.7,5.1,8.4c1.1,1.7,2.5,3.2,5.1,1.5c-1.4-4.1-2.3-8.4-4.2-12.3c-1.8-3.9-4.5-7.4-6.8-11
	c-2.7-4.2-6.1-8.2-7.9-12.7c-4.1-10.3-10.6-19.1-16.4-28.4c-3.5-5.5-7.6-10.6-10.8-16.3c-6.8-11.8-13-23.9-19.6-35.8
	c-3.8-6.9-7.8-13.7-11.7-20.5c-1.6-2.9-2.8-6.1-5-8.5c-4.3-4.8-5.1-11.4-9.6-16.2c-3.5-3.7-5.2-9-7.8-13.6c-1.5-2.7-3.2-5.3-4.5-8
	c-1.5-3.1-1.1-6,2-8c2.4-1.5,3.3-3.8,4.3-6.3c4.6-12.2,5.1-25.2,8.1-37.8c0.8-3.1-0.1-6.6,0.5-9.8c2.3-13.1,6.2-26,5.5-39.6
	c0-0.6,0.3-1.3,0.4-1.9c0.5-4.1,1.1-8.3,1.4-12.4c0.1-0.9-0.8-2-1.9-4.4c-1.3,5.6-1.8,9.8-3.2,13.6c-5,14-5.8,28.8-8.4,43.3
	c-2.4,13.2-3.7,26.6-5.9,39.9c-1.4,8.7-4.2,10.7-14.1,10.8c-0.9-1.9-2-4-3-6.2c-3.5-7.2-8.4-13.6-10.4-21.6
	c-0.8-3.2-3.8-5.8-5.8-8.7c-1.8-2.7-3.2-6-5.6-8.2c-4.6-4.2-8.2-9-11.1-14.5c-1.5-2.9-3-5.9-5.1-8.3c-4.5-4.9-7.7-10.4-11.1-16
	c-2.1-3.5-5.3-6.3-4.9-11c0.1-0.6-1.1-1.3-1.6-2c-3.7-5.3-7.7-10.4-11.1-15.9c-2.8-4.4-4.8-9.3-7.3-13.8
	C1536.8,939.4,1535.5,938.8,1534.5,938z M1013.8,855.3c0.8,4.7,1.8,9.1,2.4,13.5c1.7,11.4-0.7,22.6-1.4,33.9
	c-0.1,1.2-1.2,2.3-1.6,3.6c-1.4,4.4-3.7,8.8-3.8,13.2c-0.2,5.9-1.6,11.3-3.1,16.8c-0.3,1.2-0.9,2.4-1.8,3.3c-1.9,2-4.1,3.8-6,5.6
	c-2.7-0.3-5.5-0.1-7.7-1.2c-2.4-1.2-4.2-3.6-6.3-5.5c-1.1-1-2.2-2.3-3.5-2.9c-7.8-3.9-15.8-7.5-23.6-11.4c-5.9-3-11.7-6.1-14.1-13.1
	c-0.7-2.1-2.4-3.7-5.4-2.5c0.2,6.7,0.3,13.5,0.8,20.2c0.1,1.4,1.6,2.9,2.7,4.1c0.8,0.9,2.1,1.5,3.1,2.4c6.7,6.2,12.8,13.3,21.7,16.8
	c3.7,1.4,7.4,2.9,10.8,4.8c7.8,4.3,15.3,9.2,23.2,13.4c6.7,3.6,13.7,6.7,21.1,10.3c0.6-1.7,1.4-3.2,1.7-4.8
	c2-11.7,3.9-23.4,5.8-35.1c1.4-8.7,2.8-17.3,4.2-26c0.7-4.6,0.8-9.4,2.4-13.6c2-5.2,1.8-10.3,1.8-15.6c0-6.2,0-12.3-0.1-18.5
	c0-1.5,0-3.2-0.7-4.4c-1.9-3.2-4.1-6.3-6.4-9.2c-3-3.8-6.2-4.2-10.4-1.7C1017.5,852.8,1015.5,854.1,1013.8,855.3z M1644.2,1243.7
	c2-0.8,4.3-2.6,5.4-2.1c6,3.1,13.2,0.2,19,4.1c0.5,0.3,1.3,0.2,1.9,0.2c2.8-0.2,5.6-0.3,8.3-0.7c2-0.3,4-1.2,6.8-2.1
	c-1.4-3.4-2.1-6.2-3.6-8.4c-3.9-6.1-8.2-11.9-12.2-17.9c-1-1.4-1.5-3.2-2.2-4.8c-1.6-3.8-2.8-7.8-4.8-11.5c-3.1-5.8-6.7-11.3-9.8-17
	c-3.6-6.5-6.5-13.4-10.4-19.8c-3.5-5.8-3.9-12.9-10.3-17.7c-4.7-3.5-6.6-10.6-9.8-16c-1.7-2.8-3.6-5.5-5.9-9.1
	c-0.5,4.1-1.2,6.8-0.9,9.3c0.2,2.5,1.4,4.9,2,7.4c0.6,2.3,1.3,4.8,1.3,7.2c-0.1,8.1-0.6,16.3-0.9,24.4c-0.1,2.6-0.3,5.3-0.1,7.9
	c0.6,7,1.7,13.9,1.9,20.9c0.2,7.9-0.5,15.8-0.5,23.7c0,5.8,0.4,11.7,0.6,17.7C1628.8,1240,1637.6,1237.4,1644.2,1243.7z
	 M929.4,458.3c3.8,1.4,8.4-1,12.3,1.4c0.4,0.2,1.2-0.3,1.9-0.4c3.5-0.4,7-0.7,10.5-1c2.4-0.2,4.9-0.2,7.2-0.9
	c1.2-0.3,2.7-1.8,2.9-2.9c1.9-10.8,4.4-21.5,4.1-32.6c-0.3-8.8,0.2-17.6,0.6-26.4c0.2-6.2,1-12.3,1.2-18.5c0.2-5-0.1-5.3-4.7-6.2
	c-4.1-0.9-8.2-2-12.4-2.2c-6.5-0.4-13-2.5-19.7-0.4c-6.6,2.1-6.8,2.2-6.9,9.1c-0.1,13.2,0,26.4,0,39.7c0,4.4-0.4,8.8-0.2,13.2
	c0.2,5.9,0.4,11.9,1,17.8C927.5,451.2,928.5,454.3,929.4,458.3z M328.6,547c-0.8-8.1-0.8-14.5-2.1-20.6c-1.4-6.6-2.3-13.3-6.3-19.3
	c-4.1-6-10-9.7-15-14.6c-1-1-3.8-0.8-5.5-0.3c-11.9,3.6-21.9,10.7-31.6,18.1c-2.9,2.2-6.4,3.8-9.7,5.4c-4.8,2.2-9.7,4.1-14.7,5.8
	c-4,1.4-6,4.5-7.2,8c-1.7,4.8-2.7,9.7-4,14.7c-0.4,1.5-0.5,3-0.7,4.6c-0.1,1.2,0,2.5,0,3.8c2.6-9.1,5.9-10.7,14.5-6.8
	c1.7,0.8,3.5,1.6,6,2.7c0.5-3.3,0.8-5.9,1.1-8.4c0.7-4.9,3.7-7.4,8.6-6.5c3.2,0.5,5.9,0,8.9-1.1c6.3-2.2,12.8-3.6,19,0.6
	c3,2,3.3,5.5,0.3,7.5c-1.9,1.2-4.1,1.8-5.8,3.1c-4,3.1-10,4.7-9.6,11.8c5,1.5,10.1,0.5,14.7-1c6.8-2.3,13.2-5.9,19.9-8.7
	C315.4,543.1,321.5,541.4,328.6,547z M1398.1,1036.3c-3.7,2.6-3.5,4.7-3.2,6.9c0.5,3.5,1.1,7,1.2,10.5c0.1,7-0.4,14-0.2,21
	c0.5,11.4,2.1,22.8,2,34.2c-0.1,12.9-1.4,25.8-2.4,38.8c-0.5,6.5-3.1,8.9-9.7,8.4c-3.8-0.3-4.5,1.3-4.8,4.4
	c-0.3,3.7-0.8,7.5-1.8,11.1c-1,3.4-0.9,6.1,1.6,9c1.4,1.6,1.5,4.5,2.2,6.8c0.5,1.6,0.7,3.6,1.8,4.8c5,6.2,10,12.4,19.5,11.2
	c1.8-0.2,3.9,0.6,5.8,1.1c11.1,2.6,22.2,5.3,33.3,7.9c0.8,0.2,1.7,0.2,2.5,0.3c1.4-3.7,3-22.8,1.9-25.5c-0.4-0.9-1.3-2.3-2.1-2.3
	c-5.9-0.2-11.5-3.4-17.7,1c-6.9,4.8-17.5,4.5-20.6-7c-0.8-3-1.4-6-1.5-9.1c-0.3-8.3,0.2-16.7-0.4-25c-1.4-21.5-3.3-43-4.9-64.6
	c-0.5-6.6-0.3-13.1-0.5-19.7c-0.2-5-0.5-10.1-0.9-15.1C1399,1042.7,1398.6,1040,1398.1,1036.3z M736.5,1095.4
	c-0.4,2.3-0.9,3.9-1,5.6c-0.3,4.7,0.2,8.7,5.9,10.2c2.9,0.8,6.1,2.2,8,4.3c5.9,6.6,14.3,9.3,20.8,14.9c1.1,1,2.6,1.7,4,2.3
	c12.8,5.3,25.6,10.6,38.4,15.7c2.4,0.9,4.9,1.4,7.2,2.1c6.1-8.3,15.8-12.3,19.5-21.9c0.1-0.3,0.6-0.7,1-0.8c5-1.8,5.4-6.6,7.9-10.6
	c-6-1.1-11.3-1.5-15.9-5.4c-3.3-2.8-8.2-3.7-12.3-5.4c-6,7-7.7,7.4-15.5,3.9c-5.2-2.3-5.2-2.3-8.5,2c-2.5,3.2-5.4,5.4-9.6,4.1
	c-3.3-1-6.9-2-9.6-4C764.8,1103.8,750.2,1101.5,736.5,1095.4z M1263.7,824.8c-6.2,0-7.2,0.9-8.6,6c-0.4,1.5-1.1,2.8-1.6,4.3
	c-0.8,2.7-1.8,5.3-2.1,8.1c-0.4,3.9-0.2,7.9-0.3,11.9c0,5.3,3.1,9.6,8.3,10.3c4.4,0.6,5.8,3.5,7.4,7c2,4.5,3.8,9.7,7.3,12.9
	c3.7,3.4,9.1,5.2,14.1,6.9c6.1,2,10.9-1.3,11.7-7.8c0.5-4.5-0.4-9.3,0.6-13.6c1.1-4.6,0.2-8.7-0.8-12.9c-1-4.3-1.7-8.6-2.6-12.9
	c-3.1-14.4-5.4-14.4-16.3-14.1c-0.7,0-1.4,0.2-2,0c-1.6-0.5-3.6-0.8-4.5-1.9C1271.2,825.1,1266.7,826.1,1263.7,824.8z
	 M1309.8,1171.1c3.1-2.5,5.3-5.1,8.2-6.4c4.8-2.2,7-5.7,6.9-10.8c0-6.8-0.1-13.7,0.2-20.5c0.1-2.1,0.6-5.1,1.9-5.9
	c4.7-2.9,5-7.5,5.9-12c1.8-9,0.6-18.2,1.9-27.4c1.2-7.7-0.1-15.7-0.4-23.6c-0.1-3.2-1.8-4.8-4.5-4.1c-6.8,1.6-12.5,5.1-17.2,10.4
	c-3.2,3.6-2.6,7.8-2.9,11.9c-0.2,3.3-0.4,6.6-0.6,9.9c-0.8,16.2-1.8,32.5-2.5,48.7c-0.3,7.5-0.4,15-0.3,22.4
	C1306.7,1166.4,1306.7,1169.5,1309.8,1171.1z M265,833.7c0.2-1.1,0.6-2.6,0.7-4.1c0.3-10-0.5-20,3.2-29.8
	c2.5-6.8,5.3-12.5,13.1-14.1c1-0.2,1.9-0.9,2.7-1.4c-1.3-7.4-2.6-14.5-3.8-21.5c-1.7-9.7-5.3-18.6-12.3-25.7c-5-5.1-9.6-4.2-12,2.6
	c-1.9,5.3-3.1,11-3.5,16.6c-1.1,12.7-1.6,25.5-2.3,38.2c-0.5,9.2-1.4,18.4-1.7,27.7c-0.2,5.8,0.1,5.6,5.5,7.2
	C257.7,830.3,260.9,832,265,833.7z M987,1112.9c0.3,0,0.6,0.1,0.9,0.1c0,1.5,0,3.1,0,4.6c0,9.6,4.7,16,13,20.3
	c3.7,1.9,7.1,4.4,10.7,6.5c2.1,1.2,4.2,2.4,6.4,3.2c3.3,1.2,4.4,0.5,5-2.8c0.4-2.4,0.2-5,1.3-7.1c3.3-6.2,2.7-12.8,2.8-19.3
	c0.1-4.1,0.6-8.3,1.1-12.4c0.5-4.3,1.6-8.7,1.9-13c0.5-5.7-0.6-6.8-6.2-6.3c-9.8,0.9-19.5,2.1-29.2,3.4c-2.2,0.3-4.9,0.7-5.3,4
	C988.8,1100.4,987.8,1106.6,987,1112.9z M766.2,979c2,1.3,3.1,2.4,4.5,2.9c6,2.2,12,4,17.9,6.4c8.7,3.5,9.9,3.2,14.8-5.1
	c0.4-0.8,0.6-1.7,1.1-2.4c2.1-2.7,3.9-5.9,6.5-8c7.1-5.8,14.8-10.8,21.9-16.7c3-2.6,6-6.1,7.1-9.8c0.8-2.5-0.7-7.1-2.8-8.9
	c-3.7-3.2-8.5-5.2-13-7.4c-0.7-0.3-2.1,0.4-3,1.1c-4.8,3.4-9.6,6.7-14.2,10.3c-7,5.6-13.7,11.7-20.9,17
	C778.5,964.1,773.1,971.5,766.2,979z M243.5,700.2c6.3-4.1,9-4.3,13.1,1.2c3.3,4.4,7,5.3,12,5.1c7.5-0.3,14.2,2.1,19.9,7.1
	c0.9,0.8,1.8,1.5,3.5,2.9c0.1-10,0.7-18.9-0.2-27.4c-1.4-0.5-1.9-0.8-2.2-0.7c-8,1.7-14.4-2.9-21.1-5.9c-1.7-0.8-3.1-3-3.9-4.9
	c-0.9-2.2-0.9-4.7-1.1-7.1c-0.7-6.2-6.2-9.2-11.1-5.5c-4.9,3.7-10.1,6.2-16,7.4c-1.6,0.3-3.1,1.5-4.7,2.3c-4.4,2.4-8.8,4-13.9,2.4
	c-1.1-0.4-2.3-0.5-4.3-1c1.8,4.4,2.9,8.2,4.9,11.5c1.4,2.3,3.7,4.5,6.1,5.6C230.6,695.7,236.9,697.7,243.5,700.2z M842.7,863.5
	c-0.5-0.2-1-0.8-1.6-0.8c-10-1.2-19.8-4.1-30-1.7c-1.4,0.3-3,0-4.5-0.1c-5.5-0.6-6.7,0.3-6.8,5.9c-0.1,6.6-0.8,13.3,0.6,19.6
	c1.7,7.9,5.5,15.1,13.8,18.7c4,1.7,7.7,4.2,11.5,6.2c3.7,2,7.5,3.9,11.3,5.8C839,898.7,840.8,881.2,842.7,863.5z M1505.9,960.1
	c-1-6.3-3.6-11.6-7.9-16.2c-2.3-2.5-4.3-5.5-6.1-8.4c-1.9-3.2-2.9-7-5.1-9.8c-3.8-4.7-9.3-7.9-11.9-13.8c-0.5-1.2-2.3-1.9-3.7-2.5
	c-1.4-0.5-3.4,0-4.5-0.8c-5.9-4.8-12.6-2.3-19-2.3c-2.8,0-4.3,2.2-3.8,5c0.3,1.5,0.9,2.9,1.7,4.3c2.4,4.4,5.2,8.7,7.4,13.2
	c3.7,7.4,5.9,15.4,10.6,22.5c3.6,5.4,7.5,7,13.3,7.5c9,0.7,18.3-2,27.1,2C1504.3,960.9,1504.6,960.7,1505.9,960.1z M223.8,846.5
	c1.2-1.6,2.6-2.7,3.1-4.2c4-11,6.4-22.3,6.9-34.1c0.8-18.7,1.9-37.4,3.1-56c0.5-7.2,2.2-14.4,2.5-21.6c0.5-13.2,0.2-13.3-12.1-18.1
	c-0.2-0.1-0.4,0-0.9,0c-0.3,0.6-1,1.3-1.1,2.1c-0.6,6.1-1.3,12.2-1.7,18.4c-0.8,13-1.3,25.9-2,38.9c-0.1,1.3-0.5,2.6-0.7,3.9
	c-0.5,3.4-1.3,6.9-1.4,10.3c-0.1,7.7,0.3,15.4,0.1,23.1c-0.1,8.8-0.6,17.5-1,26.3C218.4,840,220.4,843.2,223.8,846.5z M322.2,897.4
	c-0.8,5.8-0.1,11.4,2.4,16.7c0.5,1,1.8,2.3,2.8,2.3c0.9,0,2.2-1.3,2.7-2.3c0.7-1.3,0.8-3,1-4.5c0.5-6.2,0.7-12.3,1.4-18.5
	c0.7-6.5-0.3-13.2,3-19.4c4.2-7.8,5-16.7,5.6-25.3c0.5-7,0.4-14.1,0-21.1c-0.5-6.7,1.8-12,6-16.9c3.8-4.5,7.5-9.2,11.1-13.8
	c2.9-3.8,2.8-5.8,0.3-9.9c-0.9-1.4-1.4-3.2-1.6-4.9c-0.4-3.3-2.2-5.3-5.2-6.1c-3.2-0.8-6.5-0.2-8.2,2.8c-1.8,3.2-3.5,6.7-4.1,10.3
	c-1,5.8-1,11.8-1.4,17.7c-0.6,8.3-0.8,16.6-3.9,24.5c-1.4,3.6-2.3,7.5-3.4,11.3c-2,7.2-4.7,14.3-5.7,21.6
	C323.4,873.7,323,885.6,322.2,897.4z M500,361.9c1.2,2.3,2.5,4.2,3.4,6.4c1.7,3.8,4.3,7.5,4.5,11.4c0.4,7.8,1.8,15.8-1.1,23.5
	c-1,2.5-1.7,5.4,1,7.2c3.6,2.5,2.3,5.1,0.9,8c-1,2.2-1.8,4.5-2.7,6.7c0.4,0.2,0.8,0.5,1.3,0.7c1.9-1.9,3.8-3.8,5.7-5.8
	c5.3-5.5,11.5-10.1,15.3-16.9c1-1.9,2.8-3.4,4-5.2c1.6-2.6,3.3-5.2,4.3-8c1.9-5.4,3.9-10.5,8.4-14.6c3.3-3,0.9-10.3-3.5-11.1
	c-4.7-0.8-9.7-1.5-14.4-1.1c-5.6,0.5-10.3-0.7-14-4C508.8,360,505,360.8,500,361.9z M858.6,1354.6c-1.2,0.3-2.2,0.5-3.2,0.9
	c-4.8,2.2-9.6,4.4-14.3,6.7c-2.7,1.4-5.4,2.9-7.8,4.7c-8.5,6.3-16.7,12.8-25.2,19c-5.6,4.1-11.3,8-17,12.1c-1.6,1.1-3.2,2.3-4.8,3.4
	c-6.9,5-13.9,9.9-20.7,15.1c-1.1,0.9-1.6,2.7-2.3,4c0.4,0.3,0.7,0.6,1.1,0.9c2.4-1.3,4.6-3.3,7.1-3.9c9.3-2.3,17.4-7.2,25.8-11.4
	c5.8-2.9,11.6-6.1,17-9.8c6.5-4.5,12.8-9.1,20.9-10.3c6-0.9,11.8-2.8,18.2-4.4c0.8-4,1.8-8.5,2.6-13
	C856.9,1364.1,861.2,1360.1,858.6,1354.6z M396.8,748.4c1.6-2.4,2.5-4.1,3.6-5.6c10.1-13.9,6.3-40.1-8-49c-2.5-1.5-3.8-5-7.7-3.8
	c-3.1,0.9-6.8,0.6-9.6,2c-6.5,3.1-7.6,19.6-1.2,23.1c4,2.2,6.1,5.2,8.3,8.7c1.3,2,3.1,3.7,4.5,5.7c1.7,2.3,3.5,4.5,4.8,7
	C393.4,739.9,394.8,743.8,396.8,748.4z M366.5,454.6c-6,6.4-11.7,11.4-10.9,20.2c0.7,7.7,1,15.4,1.6,23.1c0.1,1.5,0.5,2.9,0.6,3.7
	c3,1.3,6,1.7,7.6,3.3c3.4,3.6,6.4,7.8,9.1,11.9c2.5,3.8,4.5,7.8,6.8,11.7c7.2-1.3,13.9-1.6,20.3-3.9c-4.3-5-8.1-9.2-11.8-13.5
	c-2.5-3-5-6-7.4-9.1c-1.9-2.4-4.4-4.6-5.2-7.4c-3.6-11.9-10.1-23-9.4-36.1C368,457.8,367.4,457,366.5,454.6z M753.4,1202.3
	c3.3-3.2,3.7-2.2,12.3-5.8c6.4-2.7,11.1-2.1,16.1,1.7c0.3,0.2,0.8,0,0.7,0c3.3-1.8,6.2-3.2,9.3-4.9c1.8-6.7-2.2-11.1-7.5-14.7
	c-4.5-3-9.2-5.9-13.9-8.8c-6.7-4-13.5-7.9-21.5-9.8C745.4,1174.7,746.2,1188.6,753.4,1202.3z M674,1050.8c-0.6,0-1.2,0-1.8,0
	c-0.2,1-0.6,2-0.6,3c0.4,10.5,0.9,21,1.4,31.5c0.2,4.2,0.4,8.3,0.5,12.5c0.1,2.9,1,5.1,4,6.2c3,1,4.4,3.3,5.2,6.2
	c1.5,5.7,5.8,8.9,11.4,11.8c0.6-4.9,1.1-9.2,1.5-13.5c0.8-8.7,1.6-17.4,2.4-26.2c0.2-2.8-0.2-5.2-3-6.7c-4.6-2.5-8.9-5.8-13.7-7.8
	c-4.1-1.7-5.7-4.2-5.9-8.3C675.3,1056.7,674.6,1053.8,674,1050.8z M749.9,969.6c4.5-2.1,6.6-7.4,11.3-10.4
	c8.8-5.8,16.1-14.1,24.7-20.4c5.9-4.4,10.7-9.5,15-15.3c0.8-1.1,1.2-2.5,2.1-4.5c-2.7-0.2-5.1,0.3-6.4-0.7c-3.8-2.8-6.2-0.2-8.7,1.6
	c-6,4.4-11.8,9-17.6,13.7c-7.8,6.3-15.6,12.5-23.1,19.1c-2.9,2.6-5.3,5.8-7.7,9c-0.9,1.2-1.9,3.4-1.4,4.3c0.6,1.1,2.7,1.6,4.3,2.1
	C744.5,968.6,746.7,968.9,749.9,969.6z M909.8,439.4c0.5-4.2-0.7-7.3-5.9-9c-7-2.3-11-9.2-18.4-10.4c-0.8-0.1-1.5-1.5-2.2-2.3
	c-1.3-1.5-2.3-3.5-4-4.3c-2-1-4.8-1.9-6.6-1.2c-3.9,1.6-5.2,11.8-2.2,15.2c3.1,3.5,6.8,6.4,9.2,10.3c5.8,8.9,12.8,15.3,24,15.4
	c0.4,0,0.8,0.3,1.2,0.5c2.5,0.6,3.8-0.5,4.1-2.9C909.5,446.8,909.6,443.1,909.8,439.4z M516.9,803.9c0.6,0.1,1.2,0.2,1.7,0.3
	c0.4-0.5,1.1-0.9,1.2-1.4c1.3-8.2,8.6-14.4,8-23.3c0-0.6,0.5-1.2,0.8-1.8c2.2-4,4.5-8,6.6-12.1c3.3-6.2,6.7-12.3,9.6-18.7
	c2-4.2,0.9-7.3-3-9.5c-7.1-3.9-14.2-7.7-23.5-8.7c1,6.8,1.2,13.4,2.9,19.6c2.1,7.3,2.4,14.7,2.9,22.2c0.6,8.3-1.2,16-4.8,23.6
	C517.8,797,517.6,800.6,516.9,803.9z M908.5,387.1c-11.6-0.9-20.9-7.7-32-8.5c-0.2,2-0.3,3.1-0.4,4.2c-0.7,5.2,0.7,9,5.7,12
	c5.8,3.4,10.6,8.3,16.1,12.3c3.3,2.4,6.9,4.2,10.8,6.5C911.6,404.5,909.6,396.1,908.5,387.1z M1343.7,1139
	c-0.9,4.9-1.8,8.5-2.2,12.2c-0.5,3.9-0.4,7.9-1,11.7c-1.2,7.7,0.2,10.4,7.3,13.2c1.6,0.6,3.2,1.3,4.9,1.9c3.9,1.5,5.8,0.6,6.6-3.6
	c1.1-5.6,1.9-11.3,2.6-16.9c0.3-2.8-0.4-5.3-3.6-6.3c-3.3-1.1-5.4-3.3-7.4-6.2C1349.3,1142.8,1346.6,1141.4,1343.7,1139z
	 M969.4,990.7c1.2-2.2,2.6-4,3.3-6.1c2.3-7.3,1.9-11.2-5.4-14.5c-7-3.1-13.6-7.1-20.5-10.4c-1.6-0.8-4.2-1.6-5.4-0.8
	c-2.4,1.5-4.1,4.1-6.6,6.8C947.2,973.8,956.8,984.1,969.4,990.7z M1479.5,1204c0,0,0.1,0,0.1,0c0-4.2,0.4-8.4-0.1-12.5
	c-0.9-6.6-6.7-3.1-10.2-4.2c-2.6-0.9-6-0.7-6.7,3.3c-1.3,7.4-2.6,14.8-0.6,22.2c0.4,1.3,1.2,3,2.3,3.6c2.7,1.4,5.6,2.6,8.6,3.3
	c4.8,1.1,7.2-0.9,7.2-5.8C1480.1,1210.6,1479.7,1207.3,1479.5,1204z M1374.7,870.5c-2.6,3.1-1.1,5.6,0.1,8.1
	c1.9,4.1,4.1,8.1,5.6,12.3c1.3,3.9,3,5,6.6,3.1c2.1-1.1,4.1-2.6,6.3-3.5c4-1.6,8.3-2.7,12.2-4.5c1.5-0.7,2.9-2.8,3.2-4.4
	c0.2-1.1-1.4-3-2.6-3.7c-2.2-1.2-4.7-2.4-7.2-2.6C1390.7,874.6,1382.4,874.5,1374.7,870.5z M68.1,1284.3c-3.5,3.5-1.9,8.3-3.2,12.4
	c-1.3,4.1-0.6,8.1,0.4,12.3c1.2,4.6,1.4,9.4,2.2,14.1c0.1,0.7,0.9,1.3,1.7,2.5c1.6-1.8,3.1-3.1,4.1-4.7c4.9-8.5,6.1-18.2,8.1-27.5
	c0.3-1.4-1.1-4-2.4-4.7C75.6,1286.8,71.8,1285.7,68.1,1284.3z M929.7,565.9c3.5-8.2,2.7-15.5,2.4-22.7c-0.3-7-0.1-14.1-0.4-21.2
	c-0.3-7.2-0.6-14.5-1.7-21.7c-1.1-6.9,1.4-14.3-2.6-21c-1.1,1.5-1.7,3-1.8,4.5c-0.2,2.2,0.1,4.4,0,6.6c-0.7,15.8-1.6,31.7,1.1,47.4
	c0.6,3.4,0.6,7,0.3,10.5C926.6,553.9,927.1,559.2,929.7,565.9z M498.1,494c-1.7-2.4-3.7-4.7-5.2-7.4c-1.8-3.4-4.8-2.5-7.5-2.5
	c-2.9,0-4.9,1.4-5.9,4.3c-2.5,7.2-1.8,14.2,1.2,21c1.1,2.5,2.9,4.3,6.9,4.6C490.9,507.8,494.3,501.3,498.1,494z M1658.5,865.8
	c-0.5-0.1-0.9-0.1-1.4-0.2c-0.6,0.9-1.4,1.8-1.6,2.7c-1.4,7.3-3.2,14.6-4,22c-0.8,7.8-0.6,15.6-1.2,23.4c-0.4,5.5-1.2,10.9-1.8,16.3
	c-0.9,8.1-1.9,16.1-2.7,24.2c-0.1,0.5,0.6,1,1.2,1.9c0.8-0.8,1.7-1.3,1.8-1.9c1.2-6.5,3-12.9,3.1-19.4c0.1-9.6,2.5-19,2.3-28.7
	c-0.1-5.2,2.9-10.2,2.7-15.9c-0.2-6.7,1.4-13.4,2.1-20.2C1659,868.6,1658.6,867.2,1658.5,865.8z M1006.1,851.2
	c0.2-3.6-0.1-5.6,0.4-7.5c1-3.5-0.4-5.2-3.6-6.5c-7.1-3-14.5-5.7-20-11.6c-0.6-0.6-1.5-1.4-2.2-1.4c-5.7,0.6-9.3-3.2-13.4-6.2
	c-1.2-0.8-3-0.8-4.6-1.1c0.3,1.6,0.2,3.4,0.9,4.6c1,1.7,2.4,3.2,4.1,4.2c5.5,3.5,11.3,6.6,16.8,10c4.2,2.6,8.4,5.3,12.5,8.2
	C1000.1,846,1002.6,848.3,1006.1,851.2z M298.7,470.3c0.6-0.2,1.2-0.3,1.8-0.4c0.9-5.9,1.4-11.9-0.4-17.8c-1.4-4.6-3.3-9.1-5-13.6
	c-1.2-3.2-2.7-6.2-5.6-8.5c-2.3,2.4-1.5,4.9-1,7.1c1.3,7.1,3.3,14.1,1.8,21.5c-0.2,1.1,0.5,2.7,1.2,3.6
	C293.7,464.9,296.2,467.6,298.7,470.3z M709.2,1357.3c1.8-1.9,3.4-2.9,4.1-4.4c1.2-2.3,1.7-4.8,2.6-7.2c1.8-4.7,1.5-9.1-2-12.9
	c-2.5-2.7-5.2-5.3-7.9-7.8c-1-0.9-2.3-1.4-4.6-2.8C704.1,1334.2,706.5,1344.9,709.2,1357.3z M964.5,1009.5c-0.4,0.6-0.8,1.1-1.2,1.7
	c1,1.1,1.8,2.3,2.9,3.2c4.1,2.9,9.1,5,12.2,8.7c4.1,5,9.7,7.4,14.5,11.2c1,0.8,3.4,0.7,4.6,0c0.9-0.5,1.3-2.7,1.2-4
	c-0.3-3.4-3.4-4.2-5.9-5.5c-1.8-0.9-3.6-2.1-5.4-3.1c-0.7-0.4-1.5-1.2-2.2-1.1c-4.7,0.4-7.4-2.8-10.8-5.2
	C971.3,1013.2,967.8,1011.5,964.5,1009.5z M1379.9,698.4c-3.9,2.3-4,5-3.4,7.9c2,11,2.7,22.1,1.4,33.3c-0.3,2.8,0,5.7-0.1,8.5
	c0,2.8,0.8,5.1,4,7.8c0.7-6.2,1.8-11.3,1.6-16.3c-0.5-12-1.7-23.9-2.6-35.9C1380.7,702.3,1380.3,700.9,1379.9,698.4z M574.6,911.2
	c0.5,0.1,1.1,0.2,1.6,0.2c1.3-4.1,2.9-8.2,3.7-12.3c0.8-4.3,1.1-8.7,1.3-13.1c0.4-8.1,0.6-16.2,0.8-24.3c0.1-6.4,0-12.8,0-19.2
	c-0.1,0-0.3,0-0.4,0C579.3,865.4,576.9,888.3,574.6,911.2z M268.4,488.9c4.6-2.9,8.3-5.3,12.1-7.7c0.2-3.7-4.8-19.7-7.7-23.3
	c-1.5,8.7-3,17-4.4,25.2C268.2,484.7,268.4,486.4,268.4,488.9z M1403,905.7c0.4,2.7,0.8,5.2,1.1,7.5c2.9,0,5.1-0.3,7.1,0.1
	c4.8,0.9,9.5,2.1,14.9,3.4C1418.6,903,1417.5,901.8,1403,905.7z M384.2,902.6c-6.4,10.8-3.8,23.4-11.9,32.5
	C381.6,934.1,386.9,915.7,384.2,902.6z M1114.5,782.8c2.7-5.3,5.3-10.5,7.9-15.6c-4.6-2.1-8.7-4-13.8-6.4
	C1109,769.1,1113.8,775.5,1114.5,782.8z M909.1,361.3c-5.8-0.4-11.3-1.4-16.5,2.8c2.9,3.5,6.4,4.9,10.2,6c6,1.9,6.6,1.5,6.8-4.9
	C909.6,364,909.3,362.7,909.1,361.3z M1362,1319.9c-2.4,5.2-1.2,10.4-1.1,15.8c6.8-1.3,10.2-5.3,11.1-11.8
	C1369,1322.7,1366,1321.5,1362,1319.9z M732.1,518.9c-2,3.5-1.8,6.7,0.7,9.1c2.7,2.6,9.2,1.8,13.5-1.2
	C742.9,521.6,737.5,520.4,732.1,518.9z M543.4,1481.7c-0.2-0.7-0.4-1.3-0.6-2c-2.8,0.6-5.6,1.6-8.4,1.8c-3.1,0.2-6.3-0.4-10-0.7
	c0.8,2.1,1.2,3.7,1.9,4.9c1.6,2.5,3.9,4,7.1,3.9c2.8-0.2,4.4-1.3,4.8-4.3c0.1-0.7,1.5-1.2,2.3-1.7
	C541.4,1482.9,542.4,1482.3,543.4,1481.7z M413.3,756.7c-2.7,2.3-5.1,4.7-4.4,8.3c0.6,2.8,1.9,5.4,2.5,8.1c0.6,2.8,0.7,5.7,0.9,8.6
	c0.5,0,1,0,1.5-0.1C414.4,773.3,413.3,765.1,413.3,756.7z M953.8,1037.2c5.8,1.2,10.7,3.6,16.3,2.2
	C964.4,1030.2,961.2,1029.7,953.8,1037.2z M476.4,293.5c-4-8-9.1-2.6-13-3.7c-2.4-0.6-4.4,1.3-4.6,4.8
	C464.7,296.4,469.7,292.9,476.4,293.5z M1527.1,1245.9c-1.6-1.3-2.1-2-2.8-2.2c-3.3-0.9-6.7-1.8-10-2.4c-2.9-0.5-6-1.1-8.3,2.3
	C1512.8,1245.4,1519.1,1247.7,1527.1,1245.9z M245.1,854.6c2.1,1.6,4.2,3.8,6.3,1.5c1-1.1,0.9-3.7,0.4-5.4c-0.2-1-2.2-2.3-3.2-2.2
	C245.2,849.1,246,852.3,245.1,854.6z M515.5,545.9c-2.6,2-4.8,3.7-7.1,5.4c2.2,2.9,4.4,3.6,6.7,2.1
	C517.3,551.8,517.5,549.5,515.5,545.9z M80.6,1215.9c3.9-1.1,4-3.9,3.2-6.3c-0.9-2.6-3.3-3.4-6.1-3.2
	C78.7,1209.7,79.6,1212.5,80.6,1215.9z M1660.7,846.7c-4,3.8-4.1,4.9-0.6,11.4C1661.6,854.4,1662.8,851,1660.7,846.7z M1665.8,796.1
	c3.2-3.3,3.3-7.2,1.6-11.1C1666.8,788.8,1666.3,792.5,1665.8,796.1z M1491.9,1173c1.4-2.7,2.4-4.9-0.1-6.7c-0.5-0.4-2.7,0.4-3.1,1.2
	C1487.3,1170.2,1488.6,1171.9,1491.9,1173z M390,769.8c-2.7,5.2-2.1,6.2,3.6,6.2C394.4,772.8,391.6,771.9,390,769.8z M1493.7,1118.1
	c-2.8,4.6-2.8,4.6-0.6,11.4C1493.6,1125.8,1495.6,1122.2,1493.7,1118.1z M629.2,727.7c0,0.5,0,1.1,0,1.6c1.7,0.8,3.5,1.6,5.2,2.4
	c0.4-0.3,0.7-0.6,1.1-0.9c-0.5-1.5-0.7-3.9-1.5-4.2C632.6,726.3,630.8,727.3,629.2,727.7z M673.8,714.9c-6.1-2.2-6.1-2.2-7.3,2.7
	C669.1,716.6,671.4,715.8,673.8,714.9z M657.3,1113.9c-2,3.8-2.6,7.4,0.7,10.7C657.8,1121,657.6,1117.5,657.3,1113.9z M637.2,723.9
	c2.2,2.4,3.4,3.6,5.3,5.7c0.5-2.9,0.7-4.5,1-6.5C641.7,723.3,640.4,723.5,637.2,723.9z M994,1073.7c0-0.6,0-1.1,0-1.7
	c-2-0.6-4-0.8-7,1.7C990.1,1073.7,992.1,1073.7,994,1073.7z M1010.5,1364.9c-1.8,0.6-3.7,1.1-6.5,2
	C1007.6,1369,1009.3,1368,1010.5,1364.9z M76.9,1191.3c3.1-3.3,3.1-3.3,1.2-6.9C77.7,1186.8,77.4,1188.4,76.9,1191.3z M928.5,573.5
	c0.6,0,1.2-0.1,1.7-0.1c-0.2-1.6-0.3-3.2-0.5-4.8c-0.4,0-0.8,0.1-1.2,0.1C928.5,570.3,928.5,571.9,928.5,573.5z M573.2,922.5
	c2.7-3.1,2.7-3.1,0.6-5.7C573.5,919.1,573.4,920.8,573.2,922.5z M1118.8,807.8c-0.5,0-1,0-1.4,0c0.2,1.6,0.3,3.2,0.5,4.8
	c0.3,0,0.7-0.1,1-0.1C1118.8,810.9,1118.8,809.3,1118.8,807.8z M655.7,1101.9c0.2,0,0.3,0,0.5,0c-0.1-2.1-0.2-4.1-0.3-6.2
	c-0.1,0-0.1,0-0.2,0C655.7,1097.8,655.7,1099.8,655.7,1101.9z M1379.2,674.5c1.9-1.2,3-2.5,0.8-5.4
	C1379.7,671.7,1379.4,673.1,1379.2,674.5z M679.1,710.2c0.2,0.5,0.4,1.1,0.6,1.6c1.1-0.5,2.2-1,3.4-1.5c-0.2-0.4-0.3-0.8-0.5-1.2
	C681.5,709.5,680.3,709.9,679.1,710.2z M1493.4,1104.7c0.2,0,0.4,0,0.6,0c0-1.9,0-3.7,0-5.6c-0.2,0-0.4,0-0.6,0
	C1493.4,1101,1493.4,1102.9,1493.4,1104.7z M1145.3,1464.2c-0.4,0-0.8-0.1-1.2-0.1c0.1,1,0.2,2,0.3,3c0.3,0,0.6-0.1,0.9-0.1
	C1145.3,1466.1,1145.3,1465.1,1145.3,1464.2z M654.6,720.9c-0.3-0.8-0.6-1.8-0.8-1.8c-0.7,0.1-1.7,0.3-2,0.8c-0.2,0.5,0.3,1.3,0.5,2
	C653,721.6,653.7,721.3,654.6,720.9z M656.8,1155.3c0.5,0.1,1,0.2,1.4,0.3c0.2-1.1,0.4-2.3,0.6-3.4c-0.5-0.1-1-0.2-1.4-0.3
	C657.2,1153,657,1154.2,656.8,1155.3z M895.9,1019.4c-0.8-0.5-1.3-1-1.8-1c-0.5,0-1,0.7-1.5,1c0.6,0.4,1.1,1.1,1.8,1.2
	C894.8,1020.8,895.3,1020,895.9,1019.4z M417.6,1160.8c-0.7,0.6-1.6,1.1-1.5,1.2c0.3,0.7,0.7,1.3,1.3,1.8c0.1,0.1,1.3-0.6,1.3-0.8
	C418.5,1162.3,418.1,1161.7,417.6,1160.8z M1661.4,828.6c0.3,0.1,0.7,0.1,1,0.2c0-1.7,0-3.4,0-5.2c-0.3,0-0.7,0-1,0
	C1661.4,825.3,1661.4,826.9,1661.4,828.6z M967.2,1107.2c-0.3-0.1-0.6-0.1-0.9-0.2c0,1.1,0,2.2,0,3.3c0.3,0,0.6,0,0.9-0.1
	C967.2,1109.2,967.2,1108.2,967.2,1107.2z M859.7,998.1c0.6-0.7,1-1.1,1.4-1.6c-0.4-0.4-0.9-1.1-1.2-1c-0.5,0.1-1.2,0.7-1.3,1.2
	C858.5,996.9,859.2,997.5,859.7,998.1z M1190.9,927.2c0.5,0,1,0,1.5,0c0-1.2,0-2.4,0-3.7c-0.3,0-0.5-0.1-0.8-0.1
	C1191.4,924.7,1191.2,926,1190.9,927.2z M1649.6,896.2c-0.8-0.5-1.4-1.1-1.9-1.1c-0.4,0-1.1,0.8-1.1,1.2c0,0.5,0.7,1.1,1.1,1.3
	C1648.1,897.6,1648.6,897,1649.6,896.2z M130.3,1531.2c-0.4-0.2-0.9-0.7-1.5-0.7c-0.2,0-0.9,0.9-0.8,1.2c0.2,0.5,0.9,0.7,1.3,1.1
	C129.5,1532.4,129.7,1532.1,130.3,1531.2z"/>
<path d="M1194.8,359.9c-1,18.7-1.7,37.3-3.1,56c-0.4,5.9-1.3,11.7-0.3,17.7c1.2,6.8-4.6,9.7-12.3,10.4c-1.3,0.1-2.7-0.2-3.9-0.7
	c-8.6-3.8-18.3-4.3-26.4-9.9c-4-2.8-9.2-4-13.9-5.7c-10.2-3.5-20.5-6.6-30.7-10.3c-8.2-3-16.3-6.5-24.2-10.3
	c-1.8-0.8-3.4-3.6-3.7-5.7c-0.9-5.8-1-11.8-1.5-17.7c-1.1-13.2-2.4-26.3-3.1-39.5c-0.5-9.9-4.5-19.4-3.4-29.4
	c0.3-2.4,0.1-4.9,0.5-7.2c1.1-6.7,4.9-9.9,11.6-10.2c7.3-0.3,14.3-0.5,20.7,4.2c2.8,2.1,7.2,1.9,10.7,3.1c9.4,3.1,18.7,6.5,28.1,9.6
	c3.5,1.2,7.2,2.1,10.9,2.8c10.2,1.9,19.8,5.7,29.1,10.2c3,1.4,5.8,3.2,8.8,4.6c3.9,1.8,5.5,4.7,5.4,8.9c-0.1,6.4,0,12.8,0,19.2
	C1194.4,359.8,1194.6,359.8,1194.8,359.9z M1100.5,401c-0.7-1.6-0.9-2.5-1.5-3c-6.2-5.9-7.3-13.1-7.6-21.5
	c-0.5-15.1,1.4-30.4-2.1-45.5c-1.1-4.6-0.5-9.7,4.1-13.1c2-1.5,1.6-3.5,0.6-5.3c-1.4-2.5-9.1-4.5-12.1-3.2c-2.9,1.3-3.7,4.7-2.5,9.2
	c1.5,5.5,3.1,11,4,16.6c1,6.5,1.4,13,2,19.6c0.9,11.2,2.1,22.3,2.6,33.5C1088.4,396.9,1090,399.1,1100.5,401z M1150.9,419.6
	c7.6,5.6,16.2,7,24,10.3c2.7,1.1,3.7-1.4,3.8-3.9c0.1-5.3,0.2-10.6,0.4-15.8c0.2-7.5,0-15,0.8-22.3c0.6-5.9,2.3-11.6,0.8-17.7
	c-0.5-2.1-0.2-4.4-0.4-6.6c-0.5-5.4-1-10.9-1.8-16.3c-0.2-1.3-1.2-2.5-1.9-4c-0.7,0.9-1.1,1.2-1.1,1.5c-0.1,10.8-0.2,21.6-0.1,32.4
	c0.1,9.3,0.5,18.5,0.6,27.8c0,4-0.8,7.4-4.4,10.4c-5.9,4.9-11.7,7.5-19,3.5C1152.5,418.8,1152.2,419,1150.9,419.6z M1130.6,410.6
	c-2.8-5.8-5.8-6.9-17.2-6.4C1119.1,408.5,1125,409.2,1130.6,410.6z M1166.9,340.4c-2-4.1-4.5-5.5-8.3-5.6
	C1161.6,339.7,1161.6,339.7,1166.9,340.4z M1109.4,404.3c0.4-0.8,0.7-1.5,1.1-2.3c-1.3-0.5-2.7-1-4-1.4c-0.1,0-0.8,1.4-0.7,1.5
	C1106.9,402.8,1108.2,403.5,1109.4,404.3z"/>
<path d="M1314.5,170.4c0,5.3,0.2,10.6-0.1,15.8c-0.4,6.1-0.5,12.4-2,18.3c-2.6,9.7-2.1,19.7-3.4,29.5c-1.5,11.6-2.1,23.2-2.3,34.9
	c-0.1,8.9-1.4,17.9-5.8,26c-0.3,0.6-0.5,1.3-0.5,1.9c0,6.8,0,13.6,0,20.4c0,1.1,0.1,2.2-0.1,3.3c-2.5,13.1-5,26.2-7.5,39.3
	c-0.2,0.9-0.6,1.8-0.5,2.6c1.7,13.4-3.2,26.1-4.3,39.2c-1.7,19.7-5.1,39.2-7.4,58.8c-1,8.1-0.9,16.3-1.7,24.4
	c-0.7,7.4-1.9,14.8-3.1,22.2c-0.6,4.1-1.4,8.2-2.3,12.3c-0.9,4-1.3,8.3-4.3,11.6c-0.8,0.9-1.1,2.5-1.1,3.7c0.1,3.4-2.5,5-4,7.5
	c-3.4,5.5-8.1,6-13.4,6.5c-2.5,0.3-3.8-0.9-4.5-2.8c-0.5-1.4-0.5-3-0.5-4.6c0.2-6.1-0.1-12.3,0.9-18.3c1.7-9.9,0.7-20.2,4-30
	c1.4-4.3,1.4-9.1,1.9-13.7c1.2-9.8,2.4-19.6,3.6-29.4c1.3-10.5,2.8-20.9,3.9-31.4c1.2-12,1.9-24.2,3.2-36.2
	c1.2-10.5,2.9-20.9,4.4-31.3c0.2-1.1,0.4-2.3,1-3.1c1.9-2.5,1.8-4.6-0.1-7.2c-0.9-1.2-1-3.4-0.8-5c0.9-8.1,2-16.2,3-24.2
	c0.3-2.4,1-4.9,0.7-7.2c-0.6-4.1-0.2-7.8,1.6-11.5c0.6-1.2,0.1-3,0.3-4.4c0.3-3,0.1-6.4,1.4-9c2.1-4.1,1.4-8.1,1.1-12.2
	c-0.2-2.6-0.5-5.2-0.9-7.8c-0.9-5,1.7-9.4,2.3-14.1c1.7-13.3,3.3-26.6,4.8-40c1.5-14.2,2.9-28.5,4.2-42.8
	c0.7-8.4,5.9-13.5,12.4-17.6c1-0.6,2.8-1.1,3.7-0.7c4.3,2.4,9.4,4.5,10.6,10.1c1.1,5.3,1.8,10.8,2.7,16.1
	C1315.3,170.3,1314.9,170.4,1314.5,170.4z M1281.7,348.3c1-1.2,1.8-1.8,1.9-2.5c1.2-6.5,2.5-13,3.3-19.5c0.9-7,1.1-14,1.9-21
	c0.9-8.3,2.3-16.5,3.2-24.9c0.5-4.1,0.3-8.3,0.8-12.5c0.7-6,2.1-12,2.8-18c1.2-10.4,2.2-20.9,3.1-31.3c0.3-3.4-0.2-6.9-0.2-10.3
	c0-1.9-0.1-4.4,1-5.4c2.6-2.5,2.8-5.3,2.9-8.4c0-4.5,2.4-9,0-13.6c-0.3-0.5-0.1-1.3,0.2-1.9c2.8-7.4-1.3-13.7-3.4-20.3
	c-1.6,8.2-3.5,16.4-2.5,24.8c0.7,6,1.8,12.1-2.2,17.8c-1.1,1.6-1,4.2-1.1,6.4c-0.7,7.9-1.3,15.7-1.8,23.6c-0.7,11.8-4.4,23.1-4.5,35
	c0,6.5-2.2,13-2.8,19.5c-1.3,15.1-2.2,30.2-3.3,45.3c-0.3,4.6-0.4,9.2-0.5,13.9C1280.3,345.8,1281.1,346.7,1281.7,348.3z
	 M1271.2,442.2c-4.6,16.7-6,33.6-6.2,50.7C1269.5,476.2,1270,459.1,1271.2,442.2z M1278.6,386.9c-0.5,0-1-0.1-1.4-0.2
	c-2.7,8.8-2.7,8.8-0.1,13.1C1277.6,395.6,1278.1,391.3,1278.6,386.9z M1274.2,426.7c-3.4,2.3-3.4,2.3-2.3,8.5
	C1276.6,433.1,1273.7,429.7,1274.2,426.7z M1275.5,406.6c-0.5-0.1-0.9-0.2-1.4-0.4c-0.1,2.9-0.3,5.8-0.4,8.8c0.4,0,0.8,0.1,1.2,0.1
	C1275.1,412.2,1275.3,409.4,1275.5,406.6z"/>
<path d="M1215.9,395.6c1.9-15,3.9-30,5.7-45c0.9-8,1.3-16.2,2.1-24.2c1.1-12,2.3-24.1,3.4-36.1c0.5-5.9,1.2-11.9,1.2-17.8
	c0.1-6.4-0.3-12.6,2.2-18.8c1.2-2.8,0.7-6.6,0.2-9.8c-0.7-4.9,0.6-9,2.8-13.2c0.9-1.6,1.6-3.6,1.5-5.4c-1-12,0.6-23.7,1.9-35.5
	c0.9-8.7,0.4-17.5,0.9-26.3c0.5-7.4,1.7-14.8,2.5-22.2c0.9-8.1,1.8-16.1,0.9-24.4c-0.6-5.8,0.8-11.8,1.6-17.7
	c0.7-4.8,2-9.4,2.8-14.2c0.8-5.1,3.1-7,8-6.1c0.7,0.1,1.3,0.4,1.9,0.6c3.9,1.1,9,0,10.5,5.2c1.1,3.9,3.9,7.5,2.3,12
	c-0.3,1-0.3,2.4,0.1,3.2c4.2,7.6,0.4,15.1-0.2,22.7c-0.5,7.4-2,14.8-2.8,22.2c-1.8,17.9-3.3,35.8-5.1,53.7
	c-1.1,10.7-2.3,21.4-3.4,32.1c-0.1,0.9,0.1,1.9-0.3,2.6c-4.7,10.4-2.7,21.6-3.8,32.4c-1.4,12.8-3.1,25.6-2.6,38.7
	c0.2,6.1-0.9,12.3-1.8,18.3c-2.1,14.4-2.9,28.8-3.3,43.3c-0.3,10.3-1.4,20.6-2.6,30.9c-0.6,5.3-2.5,10-6,14.4
	c-2.7,3.4-4,7.6-8.7,9.2c-4.4,1.5-5.5,1-8-2.8C1215.8,410.7,1216.8,403.1,1215.9,395.6z M1257.4,109.7c-2.9,4.6-3.2,9.1-0.8,14.4
	C1256.8,119.8,1257,115.3,1257.4,109.7z"/>
<path d="M1176.4,239.2c0.6-8.8,0.9-17.5,1.9-26.2c0.9-8,2.8-16,4-24c0.8-5,1.2-10,1.8-15c0.9-8.1,2.2-16.1,2.8-24.2
	c0.9-12.9,3.3-25.6,1-38.7c-1.1-6.5,0.5-13.6,1.5-20.3c0.7-4.7,2.5-9.2,3.7-13.9c0.3-1.5,0.1-3,0.1-4.6c-0.1-7.3-0.6-14.6-0.1-21.8
	c0.3-3.8,1.8-7.7,3.8-11c2.5-4.2,7-4.4,10.6-0.9c4,3.8,7.9,7.6,11.5,11.7c1.3,1.5,2.2,4,2.1,5.9c-0.6,8.3-1.3,16.5-2.6,24.7
	c-2.4,15.1-2.4,30.2-2.5,45.4c0,2.8-0.4,5.7-0.7,8.5c-0.5,4.1-1.3,8.3-1.7,12.4c-1,10.7-1.6,21.5-2.7,32.2c-0.6,5.2-1.9,10.4-3,15.5
	c-1.8,8.2-2.4,16.4-2.4,24.8c-0.1,7.4-2.2,14.8-2.6,22.2c-0.4,6.7-1.7,13.1-4.9,19c-1.2,2.2-2.8,4.4-4.6,6.3c-5.7,5.8-12.2,4-15-3.8
	c-2.1-5.8-1.7-11.7-1.7-17.6c0-2.2,0-4.4,0-6.6C1176.6,239.2,1176.5,239.2,1176.4,239.2z M1204.7,80.3c-0.4,0-0.8-0.1-1.2-0.1
	c-0.4,2.9-0.8,5.8-1.2,8.7c-0.2,2.2,0.3,4.8-0.7,6.5c-3.4,5.5-1.2,11-0.8,17.8c1.4-8.5,2.8-15.6,3.8-22.7
	C1205.1,87.2,1204.7,83.7,1204.7,80.3z M1191.5,221.1c0.3,0.2,0.5,0.4,0.8,0.5c0-3.3,0-6.6,0-10c-0.3,0-0.5,0-0.8,0
	C1191.5,214.8,1191.5,217.9,1191.5,221.1z"/>
<path d="M1164.7,43.7c0,12.1-1.2,24-3.4,36c-1.4,7.7-1.3,15.7-1.8,23.6c-0.6,9.5-1.1,18.9-1.9,28.3c-0.3,3.7-1.5,7.3-1.7,11
	c-0.7,11.4-1.2,22.8-1.6,34.2c-0.1,4,0.6,7.9,0.3,11.9c-0.6,9.2-1.3,18.4-2.4,27.6c-0.5,4.3-2.2,8.5-3.1,12.7
	c-0.6,3-2.2,4.7-5.1,5.5c-3,0.8-5.9,0.5-7.7-2.3c-3.3-5.1-6-10.3-7.2-16.7c-2.2-12.5,0.6-24.5,1.1-36.8c0.2-4.8,1.2-9.5,1.7-14.3
	c0.3-3,0.7-6.2,0.2-9.2c-1.2-7-1.5-13.8-0.5-20.9c1.1-7.3,0.5-15-0.1-22.4c-0.5-7.1-0.8-14,1.1-20.9c2-7.6,1.6-15.2,0.7-23
	c-0.6-5.4,0.1-10.9,0-16.4c0-2.1-0.2-4.3-0.6-6.4c-1-4.8-1-9.3,2.9-12.8c2.3-2.1,1.7-4.1,0.5-6.5c-3.5-7.3-1.2-19,4.7-24.1
	c2.5-2.2,5.3-2.3,7.7-0.3c3.2,2.7,6.2,5.5,9.5,8.1c5.4,4.4,6.7,10.4,6.7,16.9C1164.7,32.2,1164.7,37.9,1164.7,43.7z M1144,107.2
	c0.5,0,0.9,0,1.4,0c0.9-7.4,1.9-14.9,2.7-22.3c0.4-3.7-0.2-7.6,0.9-11c2.7-8.1,2.1-16.5,2.6-24.7c0.3-5.5,0-11-0.3-16.5
	c-0.2-3.6-0.9-7.1-6.5-7.7c-0.7,4.8-2,9.4-2,14.1c0.1,9.6,0.4,19.3,1.6,28.8c1.3,10.6-0.8,21-0.9,31.4
	C1143.5,101.9,1143.8,104.5,1144,107.2z"/>
<path d="M793,499.1c-1.3,1.1-2.1,1.8-2.9,2.5c-5.8,5-11.5,5.5-18,1.9c-2.8-1.6-5.9-2.9-8.8-4.3c-5.1-2.5-10.3-4.3-15.2-7.6
	c-6.7-4.5-14.6-7-21.9-10.7c-3.3-1.7-6.5-3.7-9.1-6.2c-3.7-3.7-7.6-6.2-13-7.1c-4-0.7-7.8-2.7-11.7-4.2c-1.2-0.5-2.5-1.6-3.6-1.5
	c-5,0.6-7-3.5-9.2-6.4c-3.1-4.2,0.1-12.6,5.1-13.4c2.5-0.4,5.9,0.7,7.9,2.4c7.5,5.9,16.5,9,24.7,13.8c8,4.6,15.9,9.3,23.8,14
	c9.9,5.7,20.4,9.9,31.5,13.1C780.7,487.5,788,491.6,793,499.1z"/>
<path d="M1707,1334.1c3.9-2.2,6.9-3.3,10.6-1.5c1.6,0.8,3.7,0.6,5.6,0.7c1.9,0.1,3.9,0.1,5.8,0c2.1-0.1,4.2-0.3,6.3-0.2
	c2.8,0.1,5.8,0,8.3,1c3,1.2,3.1,5.8,0.2,6.8c-5.3,1.9-10.8,4-16.3,4.5c-4.8,0.4-10-1-14.8-2.3
	C1708.7,1342,1708.8,1337.7,1707,1334.1z"/>
<path d="M120.3,1452.3c2,2.7,2.7,4.7,0.2,7C116.9,1457.4,117,1455.3,120.3,1452.3z"/>
<path d="M1691.7,538.5c-0.2-4.3,2.8-4.3,5.1-5.2C1696.3,535.8,1695.5,538,1691.7,538.5z"/>
<path d="M941.3,312.1c-1.5,0.8-2.9,1.6-4.9,2.8C937.3,310.6,937.3,310.6,941.3,312.1z"/>
<path d="M121.1,1465.8c0.1,1.3,0.3,2.6,0.4,3.8c-0.3,0.1-0.6,0.3-0.8,0.4c-0.5-0.7-1.2-1.2-1.4-1.9c-0.2-0.7,0.2-1.5,0.3-2.2
	C120.1,1465.8,120.6,1465.8,121.1,1465.8z"/>
<path d="M447.6,859.9c-4.4,2.6-8.4,4.1-13.3,0.3c-2.2-1.7-5.9-1.2-8.9-1.8c-6.5-1.3-9.2-5.2-6.7-11.4c1.6-4.1,2-7.8,1.5-12.1
	c-0.9-8.2,3.3-11.2,11.2-8.6c2.1,0.7,4.6,0.7,6.9,0.5c6.1-0.4,7.6,0.6,8.8,6.7c1,4.9,1.7,9.9,2.8,14.9c1,4.4,0,8.2-2.6,11.8
	L447.6,859.9z"/>
<path d="M581.7,1007.8c0,4.8,0,9.7,0,14.6c0,1.1-0.2,2.5,0.3,3.2c4.5,6.3-0.2,13.1,0.9,19.6c0.5,2.5,0,5.2-0.2,7.8
	c-0.1,2.2,0.2,4.6-0.5,6.6c-3.4,9.6-1.6,19.1-0.1,28.6c0.4,2.5,0.2,5.1,0,7.7c-0.3,5.9-0.6,11.9-1.1,17.8c-0.9,10-5.5,12.7-14.8,9.2
	c-1.7-0.7-3.7-0.9-5.5-0.8c-6.7,0.4-11.3-3.2-11.8-9.8c-0.3-3.7-0.3-7.4-0.3-11.1c0-1.1,0.1-2.7,0.8-3.1c4.2-2.9,2.9-7.1,2.7-10.9
	c-0.7-13.4-1.6-26.8-2.2-40.2c-0.5-12.1-1.1-24.2-0.8-36.3c0.2-8.5,1.6-17,2.8-25.5c0.6-4.5,5-6.1,9.8-4.5c2.8,0.9,5.8,1.8,8.8,2.1
	c5.4,0.5,9.9,4.5,10.4,10c0.2,2.6,0.2,5.3,0.2,7.9c0,2.4,0,4.8,0,7.3C581.4,1007.8,581.5,1007.8,581.7,1007.8z"/>
<path d="M587.3,1096.8c3-3.3,3.2-8.2,3-13.1c-0.5-12.8-1.2-25.5-1.3-38.3c-0.1-9,0.7-18,1.4-27c0.1-1.8,1.2-3.9,2.6-5.1
	c3.5-3,7.4-5.3,11-8.2c4.3-3.6,7.4,0.2,10.8,1.6c2.9,1.2,2.6,4,2.6,6.8c-0.2,12.7-2.5,25.3-1.2,38.1c0.6,6.3-0.6,12.7-0.8,19.1
	c-0.4,9.7-0.5,19.4-1,29.1c-0.2,4.4-0.7,8.8-1.4,13.1c-0.8,4.8-9.9,11.9-14.7,11.8c-3.1-0.1-5.9-2.1-6.7-5.4c-0.5-2.1-0.6-4.4-1-6.5
	C589.5,1107.9,588.5,1103,587.3,1096.8z"/>
</svg>
