<?xml version="1.0" encoding="utf-8"?>
<!-- Generator: Adobe Illustrator 25.2.1, SVG Export Plug-In . SVG Version: 6.00 Build 0)  -->
<svg version="1.1" id="Layer_1" xmlns="http://www.w3.org/2000/svg" xmlns:xlink="http://www.w3.org/1999/xlink" x="0px" y="0px"
	 viewBox="0 0 1602.6 1073.7" style="enable-background:new 0 0 1602.6 1073.7;" xml:space="preserve">
<path d="M740.5,416.2c-1.4,2.6-2.4,4.4-3.3,6.2c-0.1-0.2-0.2-0.4-0.3-0.6c-4.1,3.9-8.1,7.8-11.8,11.3c-5.1-1.2-10.8-2.3-16.4-4
	c-1.6-0.5-3.1-2.4-4.1-4c-2.6-4.1-4.7-7.9-3.4-13.5c1.5-5.9,2.6-11.7,6-16.8c2.5-3.7,4.6-4.4,7.5-2.5c2-1.2,3.8-3.2,5-2.9
	c2.2,0.6,4.1,2.5,6.6,4.1c0.1-0.8,0.2-2.3,0.4-3.9c0.3-0.1,0.8-0.3,0.8-0.3c2.4,3.8,6.5,3.9,10.1,3.9c3.9,0,7.7-1.4,11.6-2.2
	c9-1.9,17.9-3.9,26.9-5.7c6.2-1.3,12.4-2.5,18.6-3.7c0.8-0.2,1.7-0.4,2.5-0.3c4,0.6,7.7,3.4,12,0.9c0.6-0.3,2.2,1.2,3.2,0.8
	c1.7-0.3,3.5-1,5.2-0.8c4.9,0.5,9.5,2.1,14.8,0.3c3.3-1.1,8,0.7,11.6,2.2c5,2.1,8.9,0.7,12.9-2.1c3.9-2.8,7.9-5.6,11.8-8.3
	c3.1-2.2,3.7-7.7,1.1-11.4c-2-2.8-4.9-2.4-8.8,0.6c-5.6,4.3-11.7,4.7-12.9-3.7c-0.6-3.8-2.6-7.7-4.9-10.9c-6-8-12.5-15.6-19.1-23.1
	c-1.7-1.9-4.5-3.2-7-3.8c-7.7-1.8-14.8-5.9-23.4-4.5c-6.2,1-12.8-0.6-19.1-0.1c-5.1,0.4-10,2.3-15,3.7c-5,1.4-10,2.7-14.8,4.5
	c-2.5,1-4.6,3.2-6.9,4.7c-6.5,4.3-14.1,8.5-15.2,16.8c-0.9,6.8-8.3,9-8.4,15.3c-2.5,0.5-4.8,0.9-7,1.3c-0.5,0.3-1,0.5-1.4,0.8
	c-0.4-2.8-0.8-5.5-1.2-8.3c-0.1-0.7,0.1-1.6-0.2-2c-5.3-5.4-1.6-10.8,0.5-15.7c2.2-5.2,5.6-9.5,11.6-11.3c2.5-0.8,4.3-3.8,6.9-4.9
	c5.7-2.4,11.6-4.1,17.4-6.3c5.7-2.2,11-5.9,16.8-6.7c10.5-1.6,21.2-1.8,31.8-2.1c4.7-0.2,9.6,1.2,14.3,0.8c10.7-1,19.5,4.2,28.4,8.7
	c15.9,8.2,30.5,18.4,42.2,32.2c5.3,6.2,10.4,12.6,16.2,18.4c2,2.1,4.9,4.2,8.8,2.7c1.4-0.5,3.6,0.9,4.4,2.2c1.1,1.7,2.2,3.5,3.3,5.2
	c0.8-1.4,1.7-2.8,2.8-4.5c0.5,0.7,0.8,2,1.5,2.1c7,1.7,11.1,6.2,14.3,12.4c1,1.8,4.6,2.6,7.1,3.2c6.4,1.3,8.4,4.2,6.4,10.5
	c1.7-0.1,3.3-0.2,6-0.3c1.3,6.8,3,13.7,4,20.7c1.9,13.4-0.6,26.6-3.9,39.4c-2.1,8.2-7.8,14.7-14.2,20.4c-1.9,1.7-3.8,4.4-4.1,6.9
	c-1.3,9.5-1.9,19-3.1,28.5c-1.1,9.1-2.7,18.2-4,27.3c-0.7,5-1.4,10-1.8,15c-0.3,3.9,1.3,4.8,4.9,3.2c12.8-5.6,23.5-13.8,32.3-24.8
	c8-9.9,16.8-19.2,24-29.6c6.4-9.3,11.4-19.7,16.6-29.8c12.1-23.3,18.6-48.6,24.4-74c3.4-15,6.1-30.1,8.9-45.2
	c0.9-4.6-2.8-3.9-5.6-4.2c-9.5-1-19.2-1.4-28.5-3.5c-6.6-1.5-13.1-4.4-17.8-10.1c-1.8-2.2-5.2-2.9-7.6-4.7
	c-5.3-3.9-10.8-7.5-15.3-12.1c-2.4-2.4-3.1-6.6-3.8-10.4c-6.7-3.7-10.4-10.3-15.1-16.4c-4.3-5.5-6.6-11.7-9.8-17.6
	c-1.5-2.7-1.2-6.3-1.8-9.5c-0.2-1-0.6-2-0.9-3.1c-0.9-3.4-3.8-6.6-0.8-10.3c0.3-0.3,0.5-1.2,0.3-1.4c-5.9-6.6,0.6-15.1-3.5-22.2
	c-2.8-4.8-4-10.5-6.2-15.7c-2.8-6.6-6-13-9-19.6c-0.3-0.7-0.5-1.9-0.2-2.1c3.4-2.5,0.9-5.2,0.4-7.7c-0.1-0.6-1.1-1.2-1-1.7
	c1.5-8.6-5.1-15.8-4-24.3c0.1-1,0.2-2.2-0.3-2.9c-5.1-7.4-1.2-15.9-2.9-23.6c-2.7-12.8,1.7-24.3,4.4-36.2c1.9-8.4,3-17.1,4.9-25.5
	c0.8-3.5,2.5-6.9,4.2-10.2c4.8-9,9.5-18.1,14.7-26.8c1.7-2.9,4.6-5.2,7.3-7.3c1.8-1.4,4.5-3.7,5.6-0.2c2.1-0.8,4-1,5-2
	c1.8-1.9,2.9-4.5,4.5-6.6c1.4-1.8,3.1-3.4,4.5-4.9c1.2,2.2,2.1,3.4,2.6,4.8c0.4,1.2,0.7,2.9,0.1,3.8c-1,1.4-2.5,2.8-4.1,3.5
	c-7.5,3.1-11.8,9.2-16,15.9c-8.3,13.4-12.7,28.2-17.3,43.2c-5.4,17.7-7.2,35.5-5.5,53.7c1.4,15.4,4.2,30.7,7,45.9
	c0.9,4.8,3.8,9.1,6.1,14.3c7.5-9,17.3-13.6,27.4-17.2c13.3-4.7,26.7-5.1,39.6,1.6c6.1,3.2,12.2,6.4,18,10c2.6,1.6,4.4,4.3,6.6,6.5
	c0.6,0.5,1.2,1.3,1.9,1.4c10.5,1.9,13.5,10.6,17.3,18.7c1.2,2.7,3.7,4.8,4.9,7.5c2.3,5.1,4.1,10.4,6.1,15.6c0.8,2,1.3,4.1,2.2,6.8
	c6.5-5.1,13.6-8.5,17.3-15.8c0.9-1.7,2.7-2.9,4.1-4.3c1-1.1,2.3-2,2.9-3.3c3.5-7.4,6.8-14.8,10.2-22.2c5.1-11.1,7.6-22.7,3.6-34.6
	c-1.5-4.3-4.2-8.3-6.8-12.2c-4.3-6.6-10.8-9.1-18.6-8.8c-5.5,0.2-11.1-0.2-15.8-3.3c-1.8-1.2-2.5-3.9-3.6-5.9
	c5.3-3.4,6.6-7.3,4.4-12.2c1.3-0.3,3.1-0.2,3.8-1c3.9-4.6,9.3-4.5,13-1.8c4.7,3.6,10.7,4.8,14.9,8.9c4.4,4.2,9.2,8.4,12.4,13.5
	c4,6.4,7.5,13.2,8.3,21.1c0.4,4.4,2.2,8.9,1.6,13.2c-1.4,9.4-2.7,19.1-6.2,27.9c-3.8,9.7-9.5,18.7-15.1,27.5
	c-4.3,6.8-9.7,12.9-14.9,19.1c-2,2.3-4.8,4-7.4,5.8c-5.1,3.7-3.8,9.7-4.6,14.5c-1.2,6.8-0.3,13.9-0.4,20.9
	c-0.1,6.8-0.1,13.7-0.3,20.5c-0.1,2.7-0.8,5.3-0.9,8c-0.1,2.5,0.3,5.1,0.6,9.5c7.8-3.8,14.5-6.4,20.4-10.2c2.4-1.6,4.1-5.8,4.3-8.9
	c0.6-11.2,2.9-21.9,6.2-32.5c1.7-5.4,5.1-10.2,7-15.5c4.7-13,11.8-24.4,22.6-33.2c5.8-4.8,11.7-9.6,18-13.8
	c3.1-2.1,7.1-3.5,10.8-3.8c7.6-0.5,11.3-6.7,16.9-10.5c-0.9-0.2-1.7-0.3-3.8-0.8c1.8-2.9,3.4-5.3,5-7.8c0.5-2.2-3.1-6.9,4.3-5.1
	c0.2-1.7,0.7-3.5,0.5-5.2c-0.1-1-2-2.1-1.9-2.9c0.8-5,2.1-10,3.1-15c1.5-7.5,2.9-15,4.3-22.5c0.1-0.3-0.2-0.8,0-1
	c3.8-6.1-0.6-11.8-0.7-17.7c0-3,0.3-5.9,0.6-8.9c0.1-1.3,0.7-2.8,0.4-4c-1.2-5.2-3.6-10.3-3.9-15.5c-0.4-7.9-5.3-13.1-10.4-17.1
	c-4.3-3.3-10.8-3.8-16.4-5.6c-4.7-1.5-9.4-3.1-14.1-4.5c-9.5-2.7-19-5.4-28.6-8c-7-1.8-14-3.4-22.2-5.4c-1.2,6.9-3.1,13.8-3.5,20.9
	c-0.4,7-4.6,11.8-8,17.1c-1.4,2.2-5.1,4-8.6,2c-3.9-2.3-8.3-3.9-11.5-6.9c-1.8-1.7-1.7-5.5-2.5-8.7c5.6,3.5,10.1,6.5,14.8,9.1
	c2.2,1.2,3.5,0.1,5.3-2c5.9-6.7,5.2-14.8,5.6-22.7c0.1-2.2,0.8-4.5,0.7-6.7c-0.2-4.9-5.3-8.1-9.8-6.2c-3.7,1.5-7,4.1-10.7,5.1
	c-5.7,1.6-7.1,6-9.1,10.5c-0.6,1.4-2.4,2.3-3.7,3.5c0.1-1.8-0.4-3.8,0.2-5.3c3.3-8.4,9.8-13.2,17.6-17.6c4-2.2,7.1-3.2,11.5-3.3
	c12.8-0.5,24.3,4.5,36.4,7.2c8,1.8,16.2,2.8,24.2,4.6c2.9,0.7,5.6,2.8,9,4.6c1.2-1.5,5.2,3.2,7.1-1.2c1.4,1.3,2.7,2.6,4,3.8
	c3.1-5.6,3-7.3-1.5-12.5c-2.3-2.7-4.4-5-4.8-9c-0.2-2.2-0.6-6-4.9-6.3c-1-0.1-1.9-2.8-2.9-4.4c-6.2-0.3-9.7-4.5-8-10
	c0.8-2.6,2.3-3.2,3.8-1.1c2.9,4,5.5,8.3,8,12.3c0.1-0.4,0.3-1.6,0.6-3.2c0.9,0.2,2,0.1,2.4,0.6c4.4,5.3,8.7,10.7,13,16.1
	c5.2,6.6,9.9,13.6,15.7,19.6c2.4,2.5,6.8,3.7,10.4,4.3c15.5,2.4,31.1,4.4,46.7,6.4c2.9,0.4,6-0.5,8.9-0.2c4,0.3,7.9,1.5,11.8,1.7
	c2.1,0.1,4.5-0.4,6.3-1.5c4.2-2.5,7.8-5.8,12-8.2c11.2-6.5,22.2-3.8,32.3,2.4c7.1,4.3,15.1,8.7,19.8,15.2
	c7.4,10.2,13.3,22,14.5,34.9c1.1,11.5,1.6,23.5-0.8,34.6c-2.7,12.7-3.6,26.4-11.7,37.5c-4.4,6-8.4,12.6-15.7,15.8
	c-6.2,2.8-12.6,4.2-19.8,1.7c-2.1,10-3.5,19.7-6.2,29.1c-2.8,9.8-5.9,19.7-10.3,28.9c-5.7,11.7-2.2,14.9,4.9,23.3
	c8.2,9.6,16.7,19.3,26.4,27.2c7.9,6.5,17.7,10.8,27,15.4c7.1,3.5,14.8,6,22.3,8.8c1,0.4,2.2,0.1,3.4,0.2c4,0.4,8,0.6,11.9,1.4
	c4.7,0.9,9.1,4.3,14.3,1.5c1-0.5,2.9-0.4,4,0.2c7.8,4.1,15.4,0.9,23.1-0.2c6.5-0.9,13.3-0.3,19.8-1.6c9.8-2,19.4-5.1,29.1-8
	c6.4-1.9,12.7-4.1,18.9-6.6c2.3-0.9,4.2-3,6.4-4.2c7-3.6,14.5-6.2,21-10.5c9.3-6.2,18.3-13.1,26.5-20.6
	c10.4-9.6,20.2-19.9,29.8-30.4c3.3-3.6,5.2-8.5,7.7-12.9c3.6-6.4,7.3-12.7,10.6-19.2c2.4-4.7,4.7-9.6,6.2-14.7
	c1.5-5.2,1.8-10.7,3-16.1c0.6-3,2.1-5.7,2.6-8.7c0.7-3.5,0.7-7,1.3-10.5c0.5-3.1,1.3-6.2,2-9.2c0.8-3,2.3-6,2.5-9.1
	c1-13.4,1.6-26.8,2.3-40.2c0.1-1-0.3-2.3,0.1-3c6.2-9.9,1.3-19.9,0.5-29.9c-1.2-15.2-3-30.3-3.8-45.5c-0.5-9.5-0.5-19.2,1.1-28.4
	c1.2-7,5.4-13.5,8.5-20.1c0.4-0.8,2.4-1.2,3.5-1c0.7,0.1,1.7,1.6,1.8,2.5c0.2,2,0.4,4.3-0.4,6c-7.2,14.5-6.2,29.3-3.6,44.7
	c2.3,13.7,3,27.8,4.3,41.7c0.9,9.3,1.7,18.7,2.3,28.1c0.2,3.7,0,7.4-0.2,11.1c-0.6,9.5-1.3,19.1-1.9,28.6c-0.1,2.3,0.4,4.6,0.5,6.9
	c0.1,3.8,0.5,7.7-0.1,11.5c-2.3,14.9-5.1,29.7-7.3,44.6c-2.6,17.8-12.4,32.4-20.8,47.5c-3.4,6.1-9,10.9-13.4,16.4
	c-9.9,12.5-22.7,21.7-35,31.3c-4.8,3.7-8.7,8.4-13.4,12.2c-2.9,2.4-6.3,4.2-9.8,5.8c-3,1.4-7.8-0.1-7.9,5.6c0,0.3-2.8,1-4.1,0.8
	c-3.8-0.5-3.6,1.5-2.9,3.8c-2.2,1.2-4.1,2.6-6.2,3.4c-4.4,1.5-9,2.3-13.3,4c-3.1,1.2-5.8,3.5-8.8,5.2c-1,0.6-2.3,1.2-3.3,1
	c-6.8-1.5-12.2,2.8-18.2,4.2c-6.8,1.7-13.4,2.2-20.5,0.7c-4.9-1.1-10.1-0.7-15.1-0.9c-0.8,0-1.7,0.2-2.5,0.1
	c-9.3-1-18.6-2.1-27.8-3.2c-1.1-0.1-2.7-0.4-3.2-1.1c-2.6-4.3-6.6-2.7-10.3-3.1c-7.1-0.9-14-2.7-20.9-4.2c-2.1-0.5-4.2-1.2-6.3-1.7
	c-2.7-0.8-5.7-1.1-8.2-2.3c-10.4-5.3-21.6-9.8-30.9-16.7c-8.1-6-16.8-11.3-23.2-19.8c-4.5-6-11.4-10.2-17.2-15.2
	c0.3-0.7,0.7-1.3,1-2c-1.8,2.7-3.8,5.2-5.5,8c-5.4,9.4-10.4,18.9-16,28.2c-2.2,3.7-5.3,6.8-8.2,10.1c-6.1,6.9-11.9,14-18.4,20.5
	c-8.6,8.7-15.6,19-26.6,25.4c-6.4,3.7-11.4,9.7-17.7,13.7c-14,8.8-27.8,18.6-45.8,17.5c-5.4-0.3-10.9,1.2-16.4,1.4
	c-1.9,0.1-5.4-1.3-5.5-2.3c-0.3-2.7,0-6.4,1.7-8.1c2.7-2.7,6.4-5,10.1-6.1c13.8-4,25.1-12.1,36.5-20.2c4.4-3.1,7.2-8.3,11.3-12
	c7.9-7,16.4-13.4,24.3-20.4c2.8-2.5,4.6-6.3,7.3-9c12.2-12.1,22.1-26,30.5-40.8c5.9-10.3,11.4-21.3,14.5-32.6c1.5-5.5-2-13-4.7-18.9
	c-5-11.1-14.6-18.5-24.8-24c-5.4-2.9-12.9-1.8-19.5-2.2c-2.6-0.2-5.5-0.1-7.8,0.8c-3.7,1.4-5.7,4.2-7.2,8.2
	c-2.9,8.1-7.7,15.5-10.4,23.6c-2.6,7.9-7.5,14.1-11.8,20.8c-3.8,5.8-7.4,11.9-11.8,17.3c-2.1,2.5-6,3.4-8.8,5.3
	c-5.1,9.3-10,18.7-20.2,20.9c-1.3,2.7-1.6,4.5-2.7,5.5c-2,2.1-4.2,4.3-6.7,5.4c-4.1,1.8-5.3,5.3-5.7,8.8c-0.4,4.9,0.3,9.9,0.4,14.8
	c0.2,7.4,0.9,14.8,0.3,22.2c-0.5,6.5-5.6,9-11.5,6.6c-1.2-12.2-2.3-24.5-3.5-36.8c0.5-0.2,0.9-0.5,1.4-0.8c-1.6-0.3-3.1-0.8-4.7-0.8
	c-6.3,0-12.3,2-18,4.5c-1.8,0.8-3.3,3.4-3.9,5.5c-5.8,20-11,40.2-16.9,60.2c-4.4,14.9-9.7,29.7-14.5,44.5
	c-5.8,17.6-13.6,34.3-23.3,49.8c-10.1,16.1-21.4,31.6-32.9,46.8c-7.8,10.2-16.5,19.8-25.8,28.7c-4.3,4.1-10.8,6.5-16.8,8.2
	c-4,1.2-5.8,2.7-6.9,6.5c-4.3,15.3-8.3,30.7-13.7,45.7c-5.6,15.6-12.3,30.8-19.3,45.8c-4,8.6-9,16.8-14.6,24.5
	c-7.8,10.6-18,18.8-28.9,26c-4,2.6-8.8,4.8-13.5,5.6c-2.9,0.5-6.3-2.2-9.6-3.3c-14.2-5.1-21.8-16.7-26.5-29.6
	c-2.9-7.9-4.9-16.9-0.8-26c1.9-4.1,1.7-9.5,1.6-14.2c-0.1-6.3,4.6-9.7,7.7-13.9c2.2-3,10,1.6,10.4,6.2c0.3,3.7,0.2,7.4,0.3,11.1
	c0.2,9.4,0.2,18.8,0.7,28.2c0.4,7.6,4.6,13.3,10.3,17.9c1.1,0.9,3.6,1.1,4.8,0.5c5.5-3,11-5.9,15.9-9.7c3.5-2.7,6.1-6.7,8.9-10.2
	c1.8-2.4,3.6-4.9,4.8-7.6c8.2-18,16.6-36,24.4-54.2c2.9-6.9,4.3-14.5,6.5-21.7c0.9-3-0.4-4.2-3.1-4.2c-5.6-0.1-10.5,1.5-15.6,4.3
	c-4.6,2.5-8.3,7.2-15.2,6.5c-4.4-0.5-9.2,3.6-13.9,5.6c-0.5,0.2-0.9,0.5-1.4,0.6c-3.6,0.7-7.5,3.4-10.7-0.8
	c-1.9-2.5-0.3-12.1,2.3-14.2c1-0.8,2.8-1.2,4.1-0.9c5.6,0.9,11.3,2,16.8,3.3c1.6,0.4,2.8,1.9,4.7,3.3c0.8-1.1,2.3-2.2,2.7-3.5
	c0.8-3.1,2.4-3.9,5.6-4.1c2.3-0.2,4.7-2.6,6.6-4.4c6-6.1,11.5-12.8,17.6-18.7c7.6-7.4,8.4-17,9.2-26.5c1.6-18.2,2.5-36.5,4.1-54.7
	c0.8-9.2,1.6-18.2-1-27.1c-0.7-2.2-2.8-4.9-5-5.7c-14.4-5.7-24.4-16-31.7-29.2c-7.5-13.6-13-27.9-13.3-43.8c0-1.4-1.5-3.2-2.8-4.2
	c-2.8-2-5.8-3.8-8.9-5.4c-2.2-1.1-4.7-2.2-7.1-2.4c-6-0.7-12-1.1-18-1.1c-9,0-18.1,0.4-27.1,0.7c-3.7,0.1-7.4,0-11,0.7
	c-5.2,1-10.3,2.8-15.6,3.8c-3.8,0.7-7.8,0.6-11.7,1.2c-1,0.2-2.7,2.3-2.5,3C737.4,409.6,739.2,413.3,740.5,416.2z M1115.5,411.3
	c7.1,1.4,12.9,1,18-1.4c6-2.8,11.5-6.7,17-10.5c7.8-5.4,15.5-11,22.8-16.9c6.2-5,12-10.7,17.6-16.3c5.5-5.5,10.6-11.4,15.8-17.3
	c3.1-3.5,5.3-8.1,9-10.6c5.2-3.6,6.4-9.2,9.4-13.9c1.8-2.8,3.9-5.5,5.7-8.4c2.5-4.2,5-8.5,7-12.9c2.8-6,8.7-10.9,7.2-18.6
	c-0.3-1.3,0.1-3.7,0.9-4.1c3.8-1.7,5-4.6,6.1-8.4c3.3-11,7.6-21.8,10.9-32.8c2.5-8.3,4.2-16.9,6.3-25.3c1.2-4.7,8.6-8.5,13.2-7.4
	c2,0.5,4.3,0.1,6.4,0.1c0.5-0.5,1-0.9,1.5-1.3c-8.7-5.5-7-11.8-3.2-18.4c3.6,1.7,14.9-0.7,17.7-3.5c3.7-3.8,6-16.2,4.2-20.2
	c-2.5,0.5-5,1.8-6.9,1.2c-5.2-1.8-9.4-11.7-7.4-16.7c5-12.5,2.3-24.2-3.6-35.5c-1.1-2.2-2.3-4.9-4.2-6c-7.2-4-14.6-8.1-22.3-10.9
	c-4.1-1.5-8.3-4.2-13.7-1.9c-4.4,1.8-9.8,1.4-14.7,1.9c-0.4,0-0.8-0.5-1.3-0.6c-5.4-1.7-10.7-3.6-16.1-5.1c-4.2-1.1-6.2,0.4-4.7,5
	c1.2,3.6-1.2,9.5,6.1,9.1c0.2,0,0.4,0.5,0.6,0.8c3.2,4.1,6.5,8.2,9.7,12.4c1.2,1.6,1.9,3.4,2.9,5.2c5.5-7.2,8.1-13.7,15.8-16
	c4.4-1.4,6.9,0.9,9.5,2.7c1.4,1,2.1,4.2,1.7,6.1c-2.1,10.2-4.6,20.3-7,30.5c-0.5,1.9-1.9,4.2-1.4,5.7c2.4,7,3.4,14.5,8.8,20.6
	c3.7,4.2,8,8.8,7.1,15.5c-0.4,3,0,6.2-0.4,9.2c-0.9,6.4-1.8,12.9-3.4,19.2c-2.2,9-4.9,18-7.4,26.9c-0.8,2.9-0.9,6.1-2.2,8.7
	c-3.2,6.5-6.4,13-10.3,19.1c-6,9.5-10.5,19.7-19.1,27.9c-7.4,7.1-12.2,17.1-17,26.5c-7.5,14.8-20,25-31.2,36.5
	c-7.4,7.5-16.3,13.5-23.2,21.4c-7.6,8.6-16.7,14.8-26.1,20.8C1123.8,405.4,1120.2,408,1115.5,411.3z M1175.7,93.9
	c0.9,5.8,1.8,11.3,2.6,16.7c0.3,2.5,0,5.1,0.8,7.4c3,8.4,3.3,17.2,3.1,25.9c0,1.6-0.9,4.2-2,4.6c-4.4,1.6-2.9,5-1.8,6.9
	c3,4.9,1.9,9.5,0.8,14.4c-0.9,3.5-2.5,7.2-2.1,10.6c0.8,8.7-3.2,16.3-5.4,24.2c-1,3.8-0.1,5.5,2.8,6.7c3,1.1,6.1,1.7,9.2,2.5
	c11.3,3,22.6,5.8,32.1,13.2c1.7,1.3,4,2,5.5,3.4c4,4,7.7,8.3,11.7,12.3c0.8,0.9,2.4,1.7,3.4,1.5c0.8-0.2,1.6-1.8,2-3
	c1.5-5,3.3-10,4-15.1c0.8-5.6,1.7-11.7,0.4-17c-1.8-7.4-5.6-14.3-8.4-21.5c-0.9-2.3-2.3-4.6-2.6-7c-1.5-13.2-3.2-26.4-3.9-39.6
	c-1-17.3-11.9-33.3-28-39.5c-6.9-2.6-13.8-5-20.7-7.5C1178.1,93.9,1176.9,94,1175.7,93.9z M1035.5,252.6c-0.2-0.9-0.6-2.7-1.2-4.4
	c-1.1-3.3-2-6.7-3.4-9.9c-1.4-3.3-2.9-6.8-5-9.7c-2.9-4.1-6.4-7.7-9.8-11.5c-3.6-4-7.2-8-11-11.7c-1.9-1.8-4.3-3.3-6.7-4.5
	c-6.8-3.3-13.6-7.4-20.8-9.3c-7.8-2.1-15.5,0-23.5,3.1c-10,3.8-16.2,9.6-19.4,19.7c-1.3,4.1,0.1,6.7,1.9,9.6c0.9,1.4,2,2.7,3.1,3.9
	c7.4,8.5,14.7,17.2,25.1,22c8,3.7,16.2,8.1,24.8,9.2c11.5,1.5,21.3,9.6,34.2,6.6C1032.6,263.5,1035.3,263,1035.5,252.6z
	 M1020.3,280.8c-5.3,1.1-9.5,2.6-13.7,2.7c-26.8,0.8-50.3-7.6-70.8-26.5c0,2-0.3,3.4,0.1,4.6c1.7,5.3,3.5,10.5,5.6,15.7
	c2,5,3.6,10.6,7,14.3c3.3,3.6,4.5,8.3,8.7,11.5c9,7,16.6,15.6,25.1,23.3c6,5.4,13.7,7.9,21.1,10.8c9.5,3.8,18.9,5.5,28.9,3.6
	c1.3-0.2,3-1.3,3.4-2.4c1-3,1.9-6.2,2-9.3c0.5-10.5,1-21.1,0.9-31.6c0-6.6-0.9-13.1-1.4-19.6
	C1030.6,277.7,1025.1,282.7,1020.3,280.8z M800.7,729.2c-0.5,0.2-1,0.5-1.6,0.8c0.7,1.7,1,3.9,2.3,4.9c3.7,2.8,7.6,5.7,11.9,7.2
	c2.8,1,6.7,0.3,9.5-1c3.9-1.8,7.1-5.1,10.8-7.3c12.1-7,20.3-18,27.6-29.3c7.1-10.9,12.4-22.9,18-34.6c3.6-7.7,6.6-15.7,9.2-23.8
	c4.9-15.5,9.6-31.1,13.9-46.8c1.9-6.9,4.5-13.8,2.4-21.2c-1.1-3.9,0.2-7.5,2.9-10.7c1.1-1.3,1.7-3.2,1.9-5c1.4-11.7,2.9-23.3,4-35
	c0.6-6.5,0.7-13.1,0.9-19.6c0.4-9.2,0.4-18.5,1.3-27.7c0.4-4.2,1.1-9.4,7.6-9.4c1.2,0,2.7-1.9,3.6-3.2c1.7-2.3,2.7-5.2,4.6-7.2
	c4.1-4.2,1.9-7.5-1-11.2c-1.6,1.9-2.6,4.3-4.4,5c-3.4,1.2-7.5,2.7-10.7,1.8c-7.1-2-13.6-12.5-9.6-14.4c0.6,0.9,1.3,1.9,2.7,4
	c0-3.1,0-4.8,0-6.3c0.7-0.4,1.1-0.7,1.3-0.7c3.8,0.6,6.8,0.5,7.3-4.7c0.3-3.2,2.4-6.2,3.5-9.3c0.1-0.3-0.5-0.9-0.6-1.3
	c-0.2-1.5-0.3-3-0.3-4.5c0-1.9,0.8-4.2,0.1-5.7c-2.9-5.8-6.1-11.5-9.7-16.8c-6.7-9.8-18.2-15.9-29.8-12c-1.7,0.5-3.6,1.8-4.3,3.3
	c-6.9,12.9-3.2,34.9,8.7,43.7c13.6,10.1,18.5,24.7,23.3,39.6c1.5,4.5,2.2,9.5,2.2,14.2c0,9.7-0.6,19.4-1.3,29.1
	c-0.8,11.2-2.1,22.4-3.2,33.6c-0.1,1-0.2,2.1-0.7,2.9c-3.1,5.2-3.4,10.8-3.4,16.8c0,8.3-0.4,17-2.5,25c-4.2,15.5-9.7,30.6-14.6,45.8
	c-2.4,7.3-3,15.2-8.2,21.5c-0.3,0.4-0.3,0.9-0.5,1.4c-3.5,8.5-6.2,17.4-10.7,25.3c-5.8,10.2-13,19.8-19.9,29.4
	c-2.7,3.8-5.6,7.5-9.2,10.3c-4.2,3.4-9.2,5.9-14,8.7c-6.5,3.7-14.5,2.2-19.5-3.6C802.2,730.4,801.4,729.8,800.7,729.2z
	 M1086.3,312.3c0.4,0.4,0.9,0.7,1.3,1.1c2-1.6,4.1-3,5.9-4.8c2.9-2.9,5.7-6,8.3-9.1c4.3-5.1,9.8-9.7,12.2-15.6
	c2.5-6.2,6.3-10.8,11-15c0.7-0.7,1.7-1.3,2.1-2.1c2.6-5.7,5.1-11.5,7.7-17.2c1.9-4.3,3.9-8.5,5.8-12.9c0.5-1.2,0.7-2.7,0.9-4
	c-1.7-0.1-3.7-0.7-5.2-0.1c-2.3,0.9-4.2,2.8-6.5,3.9c-11.2,5.8-18.9,15.3-25.7,25.3c-4.3,6.5-6.9,14.2-10.3,21.2
	C1089.3,292.3,1087,302.1,1086.3,312.3z M719.5,392.4c-3.6,3.2-6.5,6.3-9.9,8.6c-6.2,4.1-7.2,12.2-2.8,18.1c3.7,4.9,9.1,5.1,14,6.8
	c6.3,2.2,9.5-2.8,12.5-6.5c2.1-2.6,0.6-6-2.1-8.3c-0.7-0.6-1.4-1.8-1.3-2.7c0.5-7-1.8-12-9.1-13.8
	C720.4,394.4,720.1,393.5,719.5,392.4z M866.4,449.7c-2.1,7.1,0.9,11.6,5.4,16.8c7.4,8.5,19.4,5.7,27.1,13.1
	c0.6-2.3,0.8-4.2,0.6-6.1c-1.1-9.9-8-16.3-14.2-22.9c-5.5-5.8-7.1-5.8-14.6-2.5C869.3,448.8,867.9,449.2,866.4,449.7z M920.7,389.3
	c-0.7,0.4-1.5,0.8-2.2,1.2c0.6,1.8,0.7,3.9,1.8,5.2c5.8,7.2,8,15.7,7.1,24.6c-1,9.3-0.9,19.5-11.3,24.7c2.6,4.3,5.1,3.2,7.1,0.3
	c1.8-2.6,3.2-5.5,4.5-8.4c3-6.6,5.7-7.2,11.1-2.4c0.8,0.7,1.9,1,2.9,1.4c0.4-1.1,1.2-2.3,1.1-3.4c-0.2-3.2-0.4-6.4-1.3-9.4
	c-1.9-6.2-3.4-12.8-6.7-18.2C931.1,399,925.5,394.4,920.7,389.3z M793.8,672.6c-6.4,14.8-9.5,43.4,4,56.2
	C790.4,710.9,793.3,692.3,793.8,672.6z M1248.4,193.6c2.5-5.3,0.9-10.9-3.8-14.8c-2.7-2.2-3.8-1.3-4.4,1.7
	C1239.4,184.8,1243.4,191.4,1248.4,193.6z M830.9,391.3c6.6,2.8,13.2,5.7,19.8,8.5C845.3,394,838.4,391.8,830.9,391.3z"/>
<path d="M618.7,667.3c6.1,1.3,7.4,7,8.4,11.3c2.1,9.2,3.8,18.8,0.2,28c-2.4,6.1-5.2,12.2-8.9,17.7c-1.5,2.2-5.7,2.9-8.7,3.8
	c-6.2,1.8-10.5,5.2-13.9,11c-4.2,7.2-10.5,13.3-15.5,20c-4.3,5.7-8.1,11.8-12.2,17.7c-2.5,3.6-4.1,6.4-3.2,11.9
	c1.1,7.1-1.4,15.1-3.7,22.2c-4.5,14.1-13.3,26-21.1,38.3c-2.4,3.8-4.4,7.9-6.3,12.1c-1.4,3.2,2,8.4,5.8,11.2c7.3,5.4,16,4.4,24,5
	c4.4,0.3,9.4-2.1,13.5-4.4c7.4-4.3,15.3-8.4,21-14.4c7-7.3,12.2-16.4,17.9-24.9c2.9-4.3,5.5-9,7.7-13.7c6.1-13,11.2-26.6,18-39.1
	c5.1-9.3,7.3-19.6,11.8-29.1c6.5-13.6,11.2-28.1,17.8-41.7c7.5-15.4,16.1-30.4,24.4-45.4c7.5-13.4,15.4-26.7,23-40.1
	c0.8-1.4,1.3-4,0.5-5.1c-3.2-4.9-5.7-10.2-10.4-14.1c-2.7-2.2-4.1-5.9-6-8.9c-1-1.6-2.1-3.2-3.2-4.8c-3.1-4.7-1.6-9.2,0.4-13.8
	c9,4.6,12.6,15.7,23.2,17.9c5.5,1.2,11,4.4,16.4,1.2c2.7-1.6,4.1-5,6.6-7.2c3.1-2.8,6.4-5.3,10-7.4c2.4-1.4,5.6-1.6,6.7,1.9
	c0.8,2.7,1.7,6,0.8,8.4c-2,5.8-5.1,11.2-8,17.3c7.6,2.7,14.3,1.7,21.1,0.6c3.2-0.5,6.3-1.5,9.4-1.8c8-0.5,13.7-5.1,20.1-9.2
	c9.4-6,15.2-14.7,21.8-23c1.3-1.6,4-2.1,6.1-3c0.4,0.4,0.8,0.8,1.2,1.2c0-1.2,0.5-2.9-0.1-3.7c-3.3-4-1-7.4,0.4-11.2
	c1.5-3.9,2.1-8.2,3.7-12c0.9-2.1,3-5,4.8-5.2c3.5-0.3,5.8,2.5,4.8,6c-2,7-4.3,14-7.1,20.7c-1.6,4-4.4,7.5-6.4,11.4
	c-2.6,5.2-4.7,10.6-7.2,15.8c-11.3,23.7-31.6,33.8-56.3,37.7c-10.3,1.6-20-0.8-29.8-3.2c-3.2-0.8-5.3-0.4-7.6,1.9
	c-18,17-32.7,36.3-42.7,59.1c-4.5,10.4-10.1,20.3-14.8,30.6c-4.2,9.2-7.7,18.8-11.5,28.2c-0.6,1.6-0.9,3.5-2.1,4.6
	c-7.9,7.2-7.9,18.1-12.3,26.9c-2.7,5.4-3.1,12.7-7,16.5c-4.4,4.3-3,9.1-5,13.3c-1.2,2.7-3,5-4.5,7.6c-4.6,8.1-8.4,16.8-13.9,24.3
	c-8.7,11.8-18.1,23-27.9,33.9c-4.9,5.5-11.1,9.9-16.9,14.4c-1.8,1.4-4.3,1.9-6.6,2.3c-4.8,0.9-9.8,1.4-14.6,2.2
	c-10.8,1.7-19.8-1.3-26.7-9.8c-2-2.4-3.1-5.5-4.8-8.2c-1.5-2.5-2.5-6-6.4-2.1c-4.3,4.3-9,8.3-13.8,12.1c-5,4-10.3,7.5-15.4,11.4
	c-2.5,1.9-4.7,4.2-7.1,6.2c-1.3,1.1-3,1.8-4.9,2.2c-5.2,5.5-5.2,5.5-9.9,1.3c10.1-8.2,20.4-16.3,30.3-24.7
	c5.8-5,11.4-10.4,16.5-16.2c1.3-1.5,1.6-5.2,0.8-7.2c-3-6.8-6.9-13.2-10.2-19.8c-1.3-2.6-2.7-2.5-4.8-1.3
	c-7.5,3.9-14.8,8.5-22.7,11.5c-15.1,5.8-30.5,10.9-46,16c-6.1,2-12.5,2.9-18.8,4.3c-0.9,0.2-2,0.2-2.9,0.1
	c-10.3-0.9-18.8,1.4-26.4,9.7c-5.6,6.1-14,9.7-21.2,14.4c-1.7,1.1-3.4,2.2-5.3,2.8c-2,0.6-5,1.7-6.1,0.8c-3.6-3-6.7-0.8-10.3-0.5
	c-4.3,0.4-8.9-0.5-13-1.7c-4.5-1.4-8.7-3.9-13.1-5.7c-5.9-2.3-11.8-4.7-17.8-6.6c-7.9-2.4-15.2-6.7-23.9-7
	c-13.7-0.5-27.4-2.5-41.2-0.4c-6,0.9-11.9,1.4-17.9,2.2c-17.7,2.2-34.2,8.2-50.3,15.7c-8.8,4.1-18.4,6.8-26.9,11.4
	c-14.2,7.6-28.1,15.8-41.6,24.6c-10.2,6.6-19.8,14.2-29.3,21.8c-12.1,9.8-22.4,21-29.4,35.2c-5,10.2-10.9,19.9-16.5,29.9
	c-0.4,0.7-1,1.4-1.1,2.2c-1.6,8.7-3.7,17.4-4.6,26.1c-0.9,8.5-0.5,17.2-0.7,26.2c-0.9,0-2.6,0-3.8,0c-0.5-1.9-0.9-3.4-1.3-4.9
	c-1.8,1.2-3.5,2.5-5.6,4c-0.2-1.1-0.7-2.2-0.7-3.2c0.1-8.9-0.1-17.8,0.6-26.6c0.2-2.3,0-4.2-0.1-6.4c-0.2-2.8,0.6-5.6,1.2-8.4
	c0.7-3.2,1.5-6.4,2.3-9.6c1-4,1.4-8.4,3.2-12c4.3-8.6,9.8-16.7,13.9-25.4c4.7-9.9,12.9-16.9,19.4-25.4c5.7-7.5,12.8-14,19.7-20.4
	c5.6-5.1,11.5-10.1,18-14c10.4-6.3,21.1-12.1,32.1-17.2c13.9-6.5,28.2-12.2,42.3-18.3c4.4-1.9,8.4-4.7,12.8-6.3
	c5.2-1.9,10.7-3.1,16-4.6c3.2-0.9,6.2-2.2,9.5-2.9c8.7-1.7,17.7-2.4,26.1-5c13.2-4,25.8,0.6,38.7,1.5c6.8,0.5,13.7,1.2,20.4,2.6
	c10.4,2.2,20.7,5,31.1,7.5c3.6,0.8,7.2,1.3,10.8,2.2c2.6,0.6,5.3,1.2,7.7,2.3c4.3,2,8.5,3.7,13.5,2.9c2.2-0.4,4.7,0.6,6.9,1.5
	c8.2-1.2,11.5-8.2,15.9-15.2c-1.4-1.2-2.9-3-4.9-3.9c-11.8-5.2-19.6-14.3-25.6-25.2c-5.2-9.5-9.8-19.3-14.5-29.1
	c-1.8-3.7,0.2-11.4,3.4-14c0.9-0.7,2.1-1.2,3.2-1.3c5.8-0.5,14,4.7,15.5,10.5c1.8,6.5,2.4,13.4,4.4,19.8c3.2,10.6,10,18.2,19.9,22.7
	c7.9-4,12-11.1,14.1-18.3c2.3-8.2,5.4-17.1,1.8-26c-0.3-0.6-0.8-1.4-0.6-1.9c2.1-7.1-4.3-10.6-6.7-15.8c-1.2-2.6-2.1-5.4-3.4-8.9
	c-2,2.4-3.5,4.2-5.5,6.5c-2-3-5.7-5.1-0.4-8.4c3.3-2.1,2.7-5.4,0.1-8.8c-3.2-4.4-6-9.2-8.5-14.1c-0.8-1.7,0.1-4.2,0.3-7.1
	c-0.5-3.8-11.6-1.3-7-11.2c5,9,15.3,11.9,18.6,22.3c2.2,6.8,5.9,9,13.3,5.9c8.2-3.4,16.8-4.3,25.6-1.2c3.4,1.2,7.5,0.1,11.2,0.3
	c1.3,0.1,2.7,0.4,3.9,1c2,1.1,3.8,2.7,5.9,3.7c0.8,0.4,2.9,0.2,3.1-0.3c1.6-4.7,4.8-2.7,7.5-1.8c7.1,2.5,14.2,5,21.2,7.9
	c5.5,2.3,10.6,6.1,16.3,7.6c9.8,2.6,19.4,5.9,30.2,3.1c5.8-1.6,11.8-2.3,17.5-4.9c3.4-1.5,7.3-1.9,10.9-2.9c0.8-0.2,1.9-0.8,2.3-1.5
	c6.1-10.6,12.5-21.1,17.8-32.1c2.2-4.5,2.5-10.1,3.1-15.2c0.2-1.2-1.2-3.1-2.4-3.9c-3.3-2.2-6.9-3.7-10.2-5.8
	c-5.6-3.6-9.9-8.5-12.6-14.7c-3.8-8.7-6.5-18-3.6-27.2c2.5-8.1,6.6-15.8,11-23.1c2.6-4.2,7.1-7.3,11.1-10.6c1.1-0.9,3.2-0.8,4.9-1
	c0.3-0.1,0.9,0.5,1.1,0.4c9.3-4.7,9.4-4.1,22.5-3.7c8,0.2,14,4.1,20.9,7.5c0-1.1,0-2.3,0-4.6c1.4,1.9,2.4,2.8,2.9,3.9
	c1.1,2.3,1.9,4.4,5.2,4.5c1.5,0.1,3,2.1,4.2,3.4c2.7,3.1,5.2,6.3,7.7,9.5c0.5,0.7,0.2,1.9,0.2,2.9c-2.2,3-4,2.6-5.4-0.7
	c-0.6-1.4-1.4-2.7-2.2-3.9c-5.2-7.5-12.9-11.8-21-14.8c-8-3-16.2-6.6-25.3-2.6c-3.3,1.5-7.4,1.2-10.5,1.6
	c-4.3,3.6-8.9,6.6-12.3,10.5c-3.3,3.8-5.4,8.7-8.3,13.6c0.1,0-1-0.1-2-0.2c0,7-0.5,13.6,0.1,20.1c1.5,16.8,10.2,28.3,28.8,28.1
	c6.4,0,8.5,2.8,6.1,8.9c-3.8,9.8-7.5,19.6-11.8,29.2c-2.4,5.4-5.1,11.1-8.9,15.5c-8.7,10-17.9,19.6-27.5,28.8
	c-6.7,6.4-14.5,11.7-21.7,17.5c-6.8,5.5-15.2,8.8-21.8,14.6c-0.5,0.4-2.1-0.4-1.9-0.3c-5.3,6.5-13.4,6.9-19,11.5
	c-5.8,4.7-14.1,6.8-21.5,9.1c-7.7,2.4-15.7,3.9-23.6,5.4c-7.7,1.5-15.5,2.9-23.2,3.4c-7.8,0.5-15.7-0.3-23.6-0.5
	c1,1,2.2,1.6,3.5,1.8c11.8,1.9,23.4,5,35.7,2.2c9.1-2.1,18.7-2.3,27.9-4.1c8-1.6,15.7-4.3,23.6-6.5c2.5-0.7,5.2-1.2,7.5-2.3
	c6-2.8,11.8-5.9,17.7-8.9c2.5-1.3,5.4-2.3,7.2-4.3c2.8-3,5.5-4.7,8.2-3.4c2.8-2.5,4.7-4.6,7.1-6.3c1.6-1.1,3.9-1.2,5.5-2.3
	c2.2-1.5,3.8-3.8,6-5.4c18.4-13.6,35-29,48.8-47.3c4.7-6.3,10-12.2,14.1-18.9c6.3-10.2,11.7-20.9,17.6-31.3c0.8-1.3,2.7-2.3,4.3-2.9
	c3.6-1.4,7.4-2.2,10.9-3.8c7.6-3.2,14.4-13.3,14-20.6c4.4,1.6,5.1-1,3.8-4c-0.8-2-3-3.5-4.4-5c1.6-1.4,3.7-2.8,3.5-3
	c-1-1.8-2.4-3.3-4-5.2c0.1-0.9,1.2-4.2,0.6-4.4C617.3,674.2,619.8,670.2,618.7,667.3z M384.4,794c-0.3,3.6-0.7,7.2-1.1,11
	c4,0.9,5.1-1,3.9-4.6C386.5,798.2,385.3,796.2,384.4,794c-0.2-1.2-0.3-2.5-0.4-3.7c0.6-0.2,1.2-0.4,1.8-0.5
	c1.7,4.7,3.5,9.4,5.2,14.1c3,8.2,5.1,16.5,5.2,25.2c0.1,5.5,0.3,11,1.2,16.5c0.3,2.3,2.2,5.9,3.7,6.1c5.6,0.6,11.6,1,17-0.3
	c9.3-2.3,18.8-3.8,27.2-9.3c4.7-3.1,10.8-4,15.7-7c7.2-4.4,13.9-9.7,20.8-14.6c2.7-1.9,3-3.4-0.5-4.9c-1-0.4-1.6-2-2.2-3.2
	c-2.1-4.5-3.7-9.3-9.8-10.2c-1.6-0.2-3.7-2.2-4.3-3.9c-2.2-6.2-8.7-6.9-12.9-10.6c-2.7-2.4-7.7-1.9-10.9-4
	c-4.5-2.9-8.4-6.6-14.5-5.8c-1.4,0.2-3.2-0.9-4.6-1.7c-10.6-6.2-22.1-7.9-34.1-7.1c-7.9,0.5-11.2,5.5-8.2,12.2
	c0.8,1.7,2.5,2.9,3.7,4.4C379.2,792,379.3,792.8,384.4,794z M527.9,844.9c-1-7-3.2-12.3-9.2-14.4c-2.1-0.8-5.5,1.1-8,2.3
	c-2.4,1.2-4,2.9-1.4,5.9c2.3,2.6,3.8,5.9,6.1,8.5c1.8,2,5.2,5.1,6.3,4.6C524.3,850.5,525.9,847.3,527.9,844.9z M322.6,809.7
	c1.7,3.3,3.3,6.2,4.8,9.1c1.5,2.9,3.1,5.8,4.7,8.6c0.6-0.2,1.1-0.3,1.7-0.5c-0.4-4.7-0.2-9.6-1.3-14.2
	C331.3,808.1,325.2,806.6,322.6,809.7z"/>
<path d="M360.1,598.8c12.7,0.7,25.5,1,38.2,2.4c4.3,0.5,8.7,3.3,12.3,6.1c4.5,3.5,4.7,6.7,0.2,10.3c-5.1,4.1-10.3,9.1-18.1,6.9
	c-3.2-0.9-6.7-0.8-10-1.2c-5.2-0.6-7.3,2.4-8.5,7c-1.8,6.8-6.2,10.5-11.7,8.8c-3.2-1-5.9-4.3-8.5-6.9c-1.5-1.4-2.4-3.3-3.6-5
	c-2.2,1.6-5.4,2.8-6.5,5c-1.7,3.3-2.9,7.4-2.5,11c0.9,7.4-2.2,12.8-7.2,17.4c-1.5,1.3-5,1.6-7.1,0.9c-3.2-1.1-7.8-1.9-6.8-7.2
	c1.7-8,3.5-16,5.4-24c1.2-5.1,2.6-10.1,3.5-15.2c1.5-8.2,12-15.9,21.7-15.6c3,0.1,6.1,0,9.1,0C360.1,599.3,360.1,599.1,360.1,598.8z
	 M390.2,616.7c0.4-0.6,0.8-1.2,1.2-1.9c-2.2-2.3-4.2-6.2-6.7-6.7c-4.4-0.7-9.1,0.6-13.7,1.4c-0.4,0.1-0.8,2.9-0.4,4.1
	c0.3,0.8,2,1.4,3.2,1.6c2.7,0.4,5.5,0.5,8.2,0.8C384.8,616.2,387.5,616.4,390.2,616.7z"/>
<path d="M1456.3,247.8c-2.7-1.5-3.6-7.9-0.8-11.2c0.8-0.9,1.9-2.5,1.6-3.2c-2.5-5.7,1.7-9.1,4.4-12.9c1.4-2,3.9-3.2,5.9-4.6
	c9.4-6.8,19.4-8.8,30.2-3.8c0.8,0.4,1.3,1.3,1.9,2c0.8,1.2,1.3,2.9,2.3,3.8c7.5,6.4,8.3,14.5,5.6,23.2
	c-5.5,17.3-20.1,26.2-38.1,24.1c-6.3-0.7-9.2-5.7-12.7-9.7C1455.2,254.2,1456.3,250.7,1456.3,247.8z M1499.8,232.1
	c0.1-0.8,0.5-2,0.4-3.1c-0.1-1.3-0.5-2.6-1-3.8c-3.8-8.7-18.8-11.1-25.8-1.8c-1.3,1.7-2.8,4.1-4.5,4.5c-5.7,1.3-6.3,5.2-7.8,10
	c-2.6,8.4,1.5,13.5,6.5,18.7c4.3,4.5,10.4,2.3,14.2,0.8C1492.4,252.9,1501.1,248.5,1499.8,232.1z"/>
<path d="M1413.6,303c-0.2,7-3.9,11.9-9.3,15.8c-1.3,1-2.5,2.2-3.6,3.4c-2.8,2.9-6.2,4.1-10,3.5c-4.3-0.7-8.6-1.7-12.8-2.9
	c-6.8-1.9-8.4-8.3-11.2-13.7c-0.8-1.5-1.7-2.9-2.1-4.4c-0.6-1.9-1.3-4.1-1.1-6c0.8-4.9,1.8-9.8,3.2-14.6c0.7-2.5,2-5.1,3.8-6.9
	c9.3-8.9,22.7-8.9,32.2-0.3C1406.7,280.6,1413.9,297.6,1413.6,303z M1405,301.3c-0.2-7.6-3.9-13.1-8.4-18.5
	c-3.3-3.9-7.5-4.2-11.7-3.6c-4.4,0.7-7.8,3-8.4,8.1c-0.2,1.3-0.7,2.8-1.5,3.6c-3.4,3.5-3.6,7.6-2.3,11.7c1.3,4.2,2.2,9.5,5.2,12
	c3.4,2.8,8.9,3.2,13.6,4.5c0.7,0.2,1.8,0,2.4-0.4C1399.7,314.1,1405.9,309.8,1405,301.3z"/>
<path d="M1546.8,138.6c1.1-4.2,2.3-8.3,3.3-12.3c1.6-0.6,3-1.1,4.3-1.6c-1-2-1.7-4.3-3-6c-2.4-3.1-5.9-5.5-3.9-10.7
	c-5-0.4-9.9-0.8-14.8-1.1c-8.4-0.4-15.4,6.2-15.8,14.7c-0.1,3.5-0.7,7.1-0.4,10.5c0.5,6.1,3.8,9,9.9,8.4c5.4-0.5,10.7-1.7,16-2.6
	c2.3,5.4,2,6-3.5,7c-3.1,0.6-6.2,1.8-9.3,2.1c-3.5,0.3-7,0-10.5-0.3c-3.9-0.4-4.9-4.2-7.2-6.5c-6.7-6.5-5.3-14.4-5.4-22
	c0-6.5,3.5-10.6,9.8-12.8c4.9-1.8,9.8-3.8,14.8-5.2c2.6-0.7,6-1.1,8.3-0.1c8.4,3.8,18.1,6.5,18.9,18.5c0.5,6.6,0.1,12.6-5.4,17.2
	c-1.7,1.4-3.3,2.9-4.9,4.3C1547.8,139.6,1547.3,139.1,1546.8,138.6z"/>
<path d="M670.8,543.9c2.9-6.5-3.3-9.9-4.9-14.9c-2.6-8.3-7.3-16.5-3.5-25.8c0.3-0.7,0.5-1.7,0.2-2.4c-2.9-9.7-0.3-19.4-0.2-29.1
	c0-1.4,1.3-3.8,2.4-4c2.2-0.4,6-0.4,6.8,0.8c1.7,2.9,4.7,5.3,3.1,10.1c-2.3,7.3-4.5,14.9-3.2,23c1,5.9,0.4,12.1,0.6,18.1
	c0.1,2.5,0.1,5.1,0.7,7.5c1.6,6.4,3.7,12.7,5.3,19.2c0.3,1.2-0.6,3.7-1.5,4c-1.2,0.4-3.4-0.4-4.2-1.4
	C671.4,547.8,671.3,545.7,670.8,543.9z"/>
<path d="M656.4,445.5c0.2-5.2,3-7.6,10.1-8.9c4.5-0.8,7.5,1.1,9,5.3c1.6,4.4-3.8,15.4-8.2,17c-2.2,0.8-8.7-2.2-9.3-4.5
	C657.4,451.4,657,448.4,656.4,445.5z"/>
<path d="M333.9,685.6c0.3,1.6,1.5,4.2,0.9,6.5c-0.8,3.1-2.2,7.3-4.6,8.3c-2.5,1.1-8,0.1-9.3-1.8c-1.8-2.7-1.1-7.2-1.3-10.9
	c-0.1-1.5,0.3-3,0.4-4.5c0.3-3.6-0.1-8.3,5.6-7.1C331.9,677.3,335.7,678.8,333.9,685.6z"/>
<path d="M1062.1,5.2c6.2,1,13.7-2.8,17.9,5.6c0.4,0.8,2.4,0.9,3.7,1.1c5.2,0.8,10.5,1.2,15.7,2.3c1.6,0.3,2.8,2.4,4.1,3.7
	c-1.9,1.1-3.8,3.3-5.6,3.1c-3-0.3-5.8-2.1-8.8-3.1c-4.5-1.7-9.1-3.2-13.6-4.9c-1.9-0.7-3.9-1.1-5.6-2.2c-2.2-1.4-3.6-4.6-7.2-2.8
	c-0.1,0.1-0.9-1.1-1.4-1.7C1061.6,6.1,1061.9,5.7,1062.1,5.2z"/>
<path d="M975.7,12.4c-3.5,4.8-14.6,9.7-18.9,8.2c0.7-2.1,1.4-4.3,2.2-6.8c0.8,0.6,1.7,1.3,2.8,2.2c3.7-5,8.7-4.9,14-3.2
	C975.8,12.8,975.7,12.4,975.7,12.4z"/>
<path d="M680.7,551c2.6,3.7,5.1,6.8,6.9,10.2c1.2,2.3,0.2,4.2-3,3.9C678.4,564.4,676.2,557.8,680.7,551z"/>
<path d="M340,718c-2.7,1.7-4,3.4-5.4,3.4c-3.4,0.1-5.7-1.6-5.3-5.6c0.2-3.1,1.5-6,4.6-5C336,711.6,337.4,714.9,340,718z"/>
<path d="M992.5,5.3c-0.2,1.8-0.3,3.1-0.4,4.1c-2.9,1-5.5,2-8.2,2.7c-0.1,0-1.5-2.8-1.1-3.3c1.3-1.7,3-3.4,5-4.3
	C988.8,3.9,990.6,4.9,992.5,5.3z"/>
<path d="M1046.5,1.1c3.9,1.8,6.7,3.1,9.4,4.3c-5.1,2.6-16.4-0.9-16.7-5.4c1.4,1,2.7,2.7,4.1,2.8C1044.7,2.9,1046.1,1.3,1046.5,1.1z"
	/>
<path d="M1030.7,82.8c1.7,0.4,3.3,0.7,5.3,1.2c0.2,1.4,0.4,3.1,0.6,4.8c-0.5,0.4-1,0.8-1.5,1.2c-1.9-1.9-3.8-3.8-5.7-5.7
	C1029.8,83.8,1030.3,83.3,1030.7,82.8z"/>
<path d="M975.7,12.4l0.1,0.4c0.6-2.3,1.2-4.6,1.8-6.9c0.7,0.2,1.4,0.3,2.1,0.5c-0.4,2.5-0.9,5-1.3,7.6
	C977.5,13.4,976.6,12.9,975.7,12.4z"/>
<path d="M1028.4,4.3c-2.1-0.3-4.2-0.6-6.2-1c-0.2,0,0-1.4,0-2.1c2.2,0.2,4.3,0.5,6.5,0.7C1028.6,2.7,1028.5,3.5,1028.4,4.3z"/>
</svg>
