<?xml version="1.0" encoding="utf-8"?>
<!-- Generator: Adobe Illustrator 25.2.1, SVG Export Plug-In . SVG Version: 6.00 Build 0)  -->
<svg version="1.1" id="Layer_1" xmlns="http://www.w3.org/2000/svg" xmlns:xlink="http://www.w3.org/1999/xlink" x="0px" y="0px"
	 viewBox="0 0 1613.9 1336.7" style="enable-background:new 0 0 1613.9 1336.7;" xml:space="preserve">
<path d="M973.5,1231.2c-3.8,1.1-7.8,2.4-9.2-4c-3.8,4.6-7.9,4.9-13,2.8c-2.3-1-6.1,1.6-8.6,0.8c-6.1-1.9-13.9-0.9-17.1-8.6
	c-3.8,2.8-10.9,1.3-15.8-3.2c-5.6-5.2-11.1-10.6-16.8-15.7c-0.7-0.6-2.8-0.8-3.4-0.3c-6.5,5.5-10.4,12-10.3,21.1
	c0.1,5.5,3.1,11.7-2.9,16.9c5.4,0.8,6.2,4.4,7.8,8.3c1.8,4.4,5.9,7.9,9.2,11.6c1.6,1.8,3.7,3.1,5.7,4.4c1.5,1,3.2,2.3,5,2.4
	c15.7,1.5,31.3,2.8,47,4c2.3,0.2,4.8-0.5,7.1-1c7-1.3,14-2.9,21-4c2.3-0.3,4.7,0.4,7.1,0.8c1.3,0.2,2.7,0.4,4.1,0.7
	c0.1-0.4,0.2-0.8,0.4-1.3c-1-0.6-2-1.1-4-2.2c3.2-1.5,5.7-2.6,8.2-3.8c0.4,1.9,0.7,3.8,1.2,6.3c2.2-2.2,6.3-2.3,5.7-7.1
	c-0.1-1,1.6-2.2,2.5-3.4c0.4,1.3,1.2,2.7,1.2,4.1c0,2.1,0.1,5.3-1.1,6.2c-2.4,1.7-5.8,2-8.7,3c-3.7,1.3-7.2,3.2-11,4.1
	c-8.3,2-16.7,3.5-25,5.1c-6.7,1.3-13.4,3-20.4,1.7c-3.1-0.6-6.4,0.3-9.5,0c-3.5-0.3-7-1.6-10.5-2c-8-0.8-15.3-3.5-22.4-7.2
	c-2.8-1.5-6.7-1.9-8.5-4.1c-6.8-8.4-15.4-15.8-15.3-28.1c0-2.4-2.4-4.9-4.2-8.2c-4.6,9.9-9.4,19-13.1,28.6c-1.6,4.2-1.1,9.3-1.5,14
	c-0.5,6.7,1.5,12.8,4,18.8c0.3,0.8,1,1.5,1.6,2c4.1,3.4,7.8,7.5,12.5,9.7c5.3,2.5,11.4,3.6,17.3,4.8c4.2,0.8,8.5,1,12.8,1.2
	c1.7,0.1,3.4-0.6,5.1-0.6c1.6-0.1,3.3,0,4.9,0.3c2.5,0.4,5.2,1.8,7.5,1.4c21.1-3.8,42.5-6.7,62.6-15c10-4.1,20.2-7.6,30.2-11.7
	c4.4-1.8,8.4-4.5,12.7-6.6c2.4-1.2,5-2.2,7.5-3.3c0.9-0.4,2.4-0.4,2.8-1.1c5.1-7.9,14.9-7.8,21.7-12.9c1.2-0.9,4.9,1.6,8.8,2.9
	c-4,3-6.8,5.1-9.1,6.8c-2.1-1.5-3.7-2.6-5.2-3.7c0,1.8,0,3.6,0,5.3c0.2,0.5,0.4,1,0.6,1.5c-3.8,0.2-7.6,0.4-11.7,0.6
	c0.5,5-4.4,6.3-7.8,8.7c-4.6,3.1-9.3,6.8-14.4,8.4c-9.4,3-17.6,9.9-28.3,8.9c-0.8-0.1-2.1,0.1-2.4,0.6c-6,10-17,9.3-26.1,11.9
	c-9.9,2.8-20.2,3.8-30.4,5.3c-2.8,0.4-5.7-0.6-8.6-1c0.1-0.5,0.2-0.9,0.2-1.4c-2.3,1.7-4.6,3.3-7.2,5.2c0,0.2,0.1,0.8,0.4,1.4
	c0.9,1.9,1.9,3.8,2.8,5.6c-2.5,0.8-5.3,2.8-7.4,2.2c-6.1-1.7-11.9-4.5-17.9-6.8c-0.7-0.3-1.7-0.4-2.3-0.1
	c-5.5,2.2-10.4,1.3-14.7-2.8c-0.4-0.4-0.9-1.1-1.1-1c-6.6,3.1-9.9-3.9-15.3-5c-3.5-0.7-6.4-4.2-9.4-6.6c-2.9-2.4-5.6-5.2-8.8-8.1
	c2.6-4-0.9-6-3.7-9.2c-3.4-3.8-5.4-8.9-7.7-13.6c-0.3-0.6,2.1-3.5,2.9-3.4c1.5,0.3,3.2,1.7,4,3.2c0.7,1.2,0.1,3,0.1,4.6
	c7.6,2.9,6.8,14.8,16.1,16.5c-4-8.6-6.7-17-5.5-26.3c0.9-7.3,0.3-15.1,2.8-21.9c3.7-10.4,9.5-20,14.3-30c1.2-2.5,2.6-5,2.9-7.7
	c1.3-13,6.3-24.9,10.5-37c1-3,0.8-6.4,1-9.7c0.5-7.6,0.9-15.3,1.4-23.2c-4.1,0.1-5.8,4.1-7.7,7.5c-4.4,8.1-8.6,16.3-12.8,24.6
	c-1.2,2.4-2,5.1-2.8,7.7c-1.3,4.1-2.3,8.3-3.9,12.3c-0.5,1.3-2.5,2.1-3.7,3c0.4,0.6,1.8,1.8,1.5,2.4c-2,5.1-3.9,10.2-6.6,14.9
	c-1.7,3-3.3,5.3-4,9.1c-0.5,3.4,0.5,6.9-0.9,10c-0.8,1.8-2.4,3.2-3.2,4.3c0,2.9,0.9,6-0.2,8.2c-2.3,4.8-1.5,9.3-0.8,14.1
	c0.5,3.2,0.1,6.6,0.1,10.2c-9.9-3-11.6-8.7-6.3-16.6c0.7-1.1,0.1-3,0.3-4.5c0.4-4,0.8-8,1.4-12c0.8-5.2,1.8-10.3,3-15.4
	c0.4-2,1.6-3.8,3.5-5.3c-0.1-1.6-0.7-3.4-0.2-4.9c2.1-6,4.5-11.8,6.7-17.7c2.4-6.5,4.6-13,7-19.4c1.2-3.2,2.6-6.3,4-9.4
	c4.9-10.1,9.4-20.5,14.9-30.2c7-12.3,14.8-24.1,22.3-36.1c7.4-11.8,15.8-23,18.1-37.6c1.3-8.6,4.1-17.1,7.2-25.2
	c3.6-9,8.2-17.5,12.7-26.2c5.1-9.8,9.9-19.8,15.7-29.2c6-9.7,13-18.9,19.6-28.2c3.9-5.4,8-10.7,12.5-16.8c-2.1,0.9-3.3,1.2-4.5,1.9
	c-7.1,4.2-14.3,8.1-21.1,12.7c-11.4,7.9-22.4,16.3-33.6,24.6c-5.5,4-10.7,8.5-16.4,12.1c-4.9,3.1-7,6.9-6.5,12.7
	c0.3,3.8,0.5,7.6,0,11.3c-0.3,2.3-2.2,4.3-3.1,6.5c-0.6,1.5-1,4.5-0.6,4.6c5.4,2.2,3.1,6.1,2.4,9.6c-0.1,0.3-0.4,0.6-0.5,0.9
	c-0.6,5.9-1.2,11.7-1.7,17.6c-0.5,5.9-0.4,12-1.5,17.8c-0.4,1.9-3.6,4.5-5.7,4.6c-2.9,0.2-5.1-1.9-5.2-5.7
	c-0.3-11,2.9-21.3,5.7-31.8c1-3.8,0.3-8.1,0.4-12.2c0.1-5.1,0.4-10.3,0.4-15.4c0-1.4-0.4-2.8-0.6-4.3c-1.4,0.3-3,0.1-4.1,0.9
	c-12.4,8.4-25.4,16.2-36.8,25.8c-6.9,5.7-14.2,10.1-22,13.8c-13.9,6.8-28.1,13-42.4,18.9c-4.5,1.9-9.7,2.4-14.6,3.2
	c-8.4,1.3-17.2,1.5-25.3,3.8c-7.5,2.2-14.8,2.2-22.2,1.6c-9.7-0.9-19.4-2.6-29.1-3.9c-13.1-1.8-24.9-6.5-35.3-14.6
	c-7.9-6.1-16-12.1-21.3-20.8c-4.7-7.7-8.7-15.8-13.5-23.5c-1.3-2-4.2-3.9-6.6-4.1c-12.4-0.9-24.9-1.9-37.2-1.4
	c-6.4,0.3-12.8,3.5-19.1,5.5c-10,3.2-19.8,6.7-29.9,9.7c-14.7,4.3-29.3,9-44.3,12.1c-19.5,4.1-39.2,6.9-58.9,10
	c-19.2,3-38.5,6.4-57.9,8.3c-15.1,1.5-30.4,1.2-45.5,1.4c-11.4,0.1-22.8,0-34.2-0.6c-15.8-0.9-31.6-2.4-47.4-3.9
	c-6.8-0.6-13.6-1.7-20.4-2.7c-1.5-0.2-3.6-0.6-4.2-1.6c-1.4-2.1-2.7-4.8-2.5-7.1c0.1-1.1,3.8-2.7,5.8-2.7c4.1,0.1,8.3,0.7,12.2,1.9
	c22.1,7,45,6.1,67.7,6.6c16.2,0.4,32.5,0.9,48.7,0.1c14.6-0.7,29.2-2.8,43.7-4.6c12-1.4,24-3.2,35.9-4.9c6-0.9,11.9-1.9,17.9-3
	c13.2-2.4,26.6-4.1,39.7-7.3c13.8-3.4,27.3-8.3,40.9-12.6c3.7-1.2,7.5-2.3,11.3-3.6c-0.5-0.7-0.7-1.1-0.8-1.1
	c-12.6,3.5-25,0.9-37.5-0.8c-8.7-1.2-17.1-3.2-26.1-1.4c-9.4,1.9-18.4-1.6-27.3-4.4c-17.8-5.6-35.8-10.2-53.4-16.4
	c-14.7-5.1-28.8-12.2-43.4-17.7c-15.6-5.9-28.7-15.8-41.9-25.6c-8.4-6.2-16.5-12.7-24.7-19.1c-7.2-5.6-10.9-13.6-13.9-21.8
	c-3.5-9.6-6.6-19.5-9.1-29.4c-2.9-11.5,1.2-22.3,5.5-32.5c6.1-14.6,15.1-27.5,29.5-35.2c6.7-3.6,14.3-5.8,21.7-7.8
	c8.7-2.3,17.7-3.5,26.6-5.7c-2-0.1-4-0.6-5.9-0.3c-16.1,3-32.4,5.2-48.2,9.5c-13.7,3.8-24.8,12.5-32.9,24.7
	c-6,9.2-10.7,18.9-11.5,29.9c-0.4,5.8,0.4,11.6,0.5,17.5c0.1,5.4-2,8.4-6.2,8.3c-4.2-0.2-6.3-3.2-6.6-7.2c-1-12.7-0.7-25.3,5.7-36.8
	c5-9.1,10.2-18.3,16.6-26.5c7.8-9.9,18.5-16.6,31-22.2c-2.9-1.3-5-2.3-7.2-3.3c-2.4-1-4.8-1.8-7.3-2.7c-21-7.6-41.4-16.4-60.9-27.3
	c-13.3-7.4-26.1-15.8-39.6-22.7c-16.2-8.2-31.5-17.6-45.6-29c-8.4-6.8-17.2-13-25.5-19.8c-8.4-7-16.4-14.7-24.7-21.9
	c-13-11.3-25-23.5-34.9-37.7c-8.1-11.6-16.8-22.9-21.4-36.6c-3.4-9.9-7.6-19.5-10.8-29.4c-1.2-3.8-0.5-8.2-1.1-12.2
	c-0.7-5.3-2.3-10.5-2.7-15.8c-0.7-8.2-2.1-16.8-0.7-24.7c2.1-11.1,5.8-22,14.7-30.5c3.7-3.5,4.9-9.5,8.4-13.4
	c6.5-7.2,12.4-15.5,22.8-17.9c6.3-1.5,10.2,1.4,9.2,7c-0.3,1.7-2,4-3.4,4.3c-12.4,2.9-18.8,12.6-25.3,22c-4.8,6.8-9.3,14-12.6,21.6
	c-2.2,5.2-3.1,11.6-2.7,17.3c1,13.5,2.4,27.1,5,40.3c1.8,9,5.6,17.7,9.1,26.2c8.9,21.5,22.6,39.8,38.7,56.2
	c11.4,11.6,23.9,22.1,35.2,33.7c9.8,10,22.2,16.3,33,24.8c15.9,12.7,34,21.8,51.4,31.9c15.2,8.8,30.3,17.8,46,25.6
	c11.7,5.8,24.2,9.9,36.4,14.7c5.8,2.2,11.6,4.3,17.4,6.3c1.4,0.5,3,0.5,4.5,0.8c0.2-0.5,0.4-1.1,0.6-1.6c-6.7-2.8-13.5-5.6-20.2-8.5
	c-12.7-5.6-25.7-10.7-38-17c-19.5-10-38.7-20.7-57.9-31.5c-8.2-4.6-15.9-10.2-23.7-15.5c-7.2-4.9-14.5-9.9-21.4-15.3
	c-2.9-2.2-5-5.4-7.4-8.2c-0.7-0.8-1.3-1.6-2.1-2.2c-9.2-7.4-19.4-13.8-27.5-22.3c-12.8-13.3-24.9-27.5-35.9-42.3
	c-7.2-9.8-12-21.3-17.9-32.1c-2.6-4.8-4.9-9.9-7.6-14.7c-6.1-11.1-7.1-23.5-7.8-35.6c-0.4-6.7,2.4-13.7,4.1-20.4
	c1.4-5.5,3.2-10.9,5-16.2c2.6-7.3,7.7-12.7,13.7-17.4c5.3-4,10.1-8.8,15.8-12.2c5.4-3.2,12.3-1,14.9,3.8c0.9,1.6,1.4,4.2,0.7,5.7
	c-0.5,1.2-3.2,2.2-4.9,2.1c-7.4-0.7-12.2,3.4-17.8,7.5c-8.5,6.4-13,15.3-16.6,24.4c-2.9,7.1-3.3,15.4-4,23.2
	c-1.1,13.7,4.8,25.9,9.9,38c5.2,12.1,12.5,23.2,19.7,34.4c11.9,18.3,27.9,32.8,42.5,48.6c3.5,3.8,8,6.5,12.7,9.1
	c-3.8-4.5-7.4-9.1-11.3-13.5c-10.6-11.7-21.5-23.2-28.8-37.3c-7-13.5-12-27.9-18.4-41.7c-5.9-12.8-7.1-26.5-8.8-40.1
	c-0.7-5.4,1.2-11.2,2-16.8c0.3-1.9,0.7-3.9,1.5-5.7c1.1-2.6,1.9-5.9,4-7.4c6.3-4.6,12.9-8.9,19.8-12.5c5-2.7,10.8-0.2,13.1,4.7
	c1.9,4,0.4,6.9-4.1,7.1c-5.7,0.2-11.2,1.2-15.3,5.3c-3,3.1-6.5,6.8-7.4,10.7c-2.4,10.6-2.4,21.5,0,32.3c3.3,14.7,9.5,28.2,15.8,41.8
	c7.4,16,16.8,30.4,28.6,43.5c12.6,13.9,25.2,27.7,39.8,39.5c5.2,4.2,10.8,8.1,16.1,12.2c7.3,5.5,14.4,11,21.8,16.3
	c19.9,14.4,40.8,27.1,62.8,38c17.4,8.6,34.8,16.9,52.2,25.4c0.4-0.6,0.8-1.2,1.2-1.8c-3.4-2.4-6.8-4.7-10.1-7.2
	c-6.9-5.3-13.5-11-20.7-15.8c-17.9-12.2-32-28.5-47.7-43.1c-4.1-3.8-6.3-9.5-9.5-14.3c-1-1.6-1.9-3.4-3.4-4.4
	c-9.9-6.9-16.9-16.6-23.2-26.4c-9-14.2-16.8-29.1-25.3-43.7c-3.1-5.3-7.1-10.1-9.9-15.6c-4.8-9.6-9.1-19.4-13.2-29.3
	c-1.3-3.2-2.2-7.5,2.5-9.3c4.8-1.9,7.5,0.2,9.6,5.7c4,10.4,8.1,20.7,12.6,30.8c4.2,9.4,8.4,18.9,13.6,27.8
	c4.6,7.9,10.4,15.2,16,22.5c9,11.7,18.7,22.8,27.3,34.8c10.6,14.9,24.9,26.2,37.2,39.4c4.9,5.2,11.1,9.1,16.8,13.5
	c8.4,6.3,16.6,12.9,25.3,18.7c12.2,8.2,24.8,15.9,37.3,23.6c2.5,1.6,5.6,2.2,9.2,3.5c-11.8-10.4-23.3-19.8-33.9-30.2
	c-12.8-12.6-24.9-25.8-36.9-39.2c-8.2-9.1-16.1-18.6-23.6-28.4c-6.7-8.7-12.7-18-18.8-27.1c-4.2-6.3-8-12.8-12.2-19.1
	c-2.2-3.3-2.7-6.6,0.6-9.2c3.2-2.5,8.3-0.7,10.5,3c7.5,13,14.5,26.4,22.8,38.8c6.6,9.9,14.9,18.7,22.7,27.8
	c8.6,10,17.2,20.1,26.4,29.5c15.3,15.8,31.5,30.5,49.7,43c1,0.7,2.4,1,4.3,0.7c-1.8-2.2-3.4-4.5-5.4-6.4
	c-7.9-7.2-13.3-16.4-19.5-24.9c-14-19-24.2-39.7-29.9-62.7c-2-8.3-4.9-16.5-7.3-24.7c-4.5-15.4-5.2-31.2-5.7-47.1
	c-0.6-21.1,3.5-41.2,14-59.6c3.7-6.5,9.4-12.1,14.7-17.5c2.8-2.8,6.4-1.5,9.2,1.3c3.1,3.1,1.4,6-0.2,8.9c-0.4,0.7-1.3,1.1-2.1,1.5
	c-9.2,5-14.1,13.5-17,22.8c-3.1,10.1-6.5,20.6-6.9,31c-0.6,14.7,1.4,29.6,2.2,44.4c0.7,15.2,8.5,28.4,11.9,42.8
	c3,13.1,8.8,25,15.8,36.2c12.2,19.6,24.8,39.1,44.8,52c1.6,1,3.2,2.2,4.5,3.5c3.8,3.8,7.7,4.2,12.6,1.9c15.6-7.2,32.1-7.1,48-2.7
	c9.4,2.6,17.8,8.6,28,13.7c-3-31-7.4-60.9-12-90.8c-0.8,0-1.6-0.1-2.4-0.2c-1,4.3-2.6,8.7-2.8,13.1c-0.5,14-0.1,28-1,41.9
	c-0.3,4.3-4,8.3-6.4,12.9c-4.7-14-3.6-27.5-3.8-40.9c-0.2-11.4,0.1-22.8-0.8-34.1c-0.9-10.4-2.8-20.8-4.9-31.1
	c-3.3-16.3-7.1-32.6-10.8-48.9c0-0.2-0.5-0.4-1.3-1.1c-1.3,30.4-2.6,60.3-3.8,88.6c-2.5,2-4.2,3.3-6.2,4.9
	c-4.3-11-2.8-22.8-5.2-34.3c-0.4,2.1-0.9,4.1-1.2,6.2c-1.7,12-3.2,24-4.8,36c-0.5,3.5-2.2,6.5-5.9,5.5c-2.9-0.8-4.7-3.2-3.2-7.2
	c1.1-2.9,0.2-6.5,0.5-9.7c1-10.1,2.4-20.1,3.3-30.2c1.2-13,2.1-26.1,3.3-39.1c0.3-3.4,1.5-6.7,1.7-10c1.3-28.1,2.1-56.2-1-84.2
	c-1.5-13.7-4.8-27.4-11.5-39.8c-0.6-1.2-2.7-2.2-4.1-2.2c-15.3,0.1-30.6,0.3-45.9,0.6c-4.3,0.1-8.6,0.5-12.8,0
	c-2.2-0.3-4.1-2.4-6.1-3.7c1.8-1.3,3.5-3.5,5.3-3.7c10.3-0.6,20.6-0.5,31-0.9c6.3-0.3,12.6-0.9,18.3-4.2c1-0.6,2.6-0.1,4.3-0.1
	c-2.2-3.6-4.1-7.5-6.8-10.7c-1.5-1.8-4.2-3.1-6.5-3.4c-5.8-0.8-11.7-0.9-17.5-1.4c-12.9-1.1-25.8-2.1-38.6-3.5
	c-9.5-1-19-1.9-28.2-3.9c-15.4-3.4-31-5.8-45.4-13.2c-9.3-4.8-16.5-11.5-23.3-19c-4-4.3-6.2-8.9-5.9-14.9c0.1-1.3-1.3-3.6-2.3-3.8
	c-1.8-0.3-4.7,0-5.5,1.1c-7.3,10.3-15.7,20.3-20.9,31.7c-5.6,12.2-2.5,26.9,13,33.4c16.6,6.9,33.4,13,51.5,14.3
	c16.5,1.2,33.1,1.4,49.6,2c2.6,0.1,5.1-0.7,7.7-0.8c4.5-0.2,6.9,2.6,7.2,6.6c0.4,4.3-3,5.7-6.6,5.5c-22.6-1.4-45.1-3-67.7-4.4
	c-6.8-0.4-13.8,0.4-20.3-1.1c-9.3-2-19.2-4.1-27.2-8.9c-9.2-5.5-16.8-14-24.9-21.3c-1.1-1-1.6-3-1.9-4.6
	c-2.6-12.3-3.9-24.6,2.9-36.1c6.3-10.8,13.5-21,19.2-32.1c2.5-5,6.6-6.4,10.6-8.8c7.2-4.5,14.2-9.4,21.3-14.1
	c2.1-1.4,4.4-2.6,6.6-3.9c4.4-2.6,9.1-4.1,12.6-8.6c1.9-2.5,6.7-3.2,10.3-4.2c6.2-1.8,12.6-3.2,18.8-4.9c6.3-1.6,12.6-3.3,18.9-5
	c3.6-1,7.2-2.2,10.9-3.1c11.4-2.7,22.8-5.3,34.1-8c2.8-0.7,5.5-1.7,8.3-2.5c0.2-0.5,0.4-1,0.6-1.6c-4.6-3-9-6.4-13.8-8.9
	c-13.4-6.9-26.7-14-40.5-20c-12.1-5.2-24.8-8.9-37.2-13.4c-3.8-1.4-7.3-3.5-11-5c-4.8-2-9.4-3.3-14.1,0.6c-6.1,5-12.2,9.9-13.1,18.6
	c-0.5,4.7,1.3,7.9,5.5,9.4c11.9,4.2,23.4,10.1,36.8,7.9c4.4-0.7,9-0.3,13.4,0.2c2,0.2,3.8,2.1,5.6,3.2c-1.5,1.7-2.8,4.4-4.7,5
	c-4,1.3-8.4,1.4-12.6,2.1c-16.1,2.7-32.5,5.4-48.6,1.9c-7.8-1.7-15-6.3-22.2-10.3c-3.5-1.9-4.9-13.3-3-18.1
	c3.8-9.1,9.8-16.7,16.3-24.1c9-10.4,20.4-17.7,31.6-25c4.8-3.1,10.5-4.9,15.7-7.4c10.1-4.8,19.8-10.2,30.2-14.2
	c12.6-4.8,25.7-8.4,38.6-12.5c13.5-4.2,27.1-8,40.4-12.6c27.1-9.3,55.1-14.5,83.4-17.7c15-1.7,30.3-3.8,45.3-2.9
	c16.7,0.9,32.6-5.1,49.1-4c0.2,0,0.4-0.5,1-1.1c-4.7-4.9-10.8-7.4-17.2-7.8c-21-1-42.1-1.4-63.1-2.1c-6.7-0.2-13.4-1.3-20.1-1.1
	c-16.3,0.5-32.7,0.8-48.9,2.5c-32,3.5-63.3,11-94.2,19.6c-20.2,5.7-39.9,13.1-59.5,20.6c-11.3,4.3-22.1,10.1-32.8,15.9
	c-5,2.7-9.2,7-13.7,10.5c-2,1.6-4.1,3-6.1,4.7c-7.8,6.3-16.3,11.9-23.1,19.1c-3.8,4-6.8,10.6-6.8,16c0,10.2,7.3,16.6,16.4,20.3
	c3.4,1.3,5.3,3.1,4.3,6.3c-1.2,3.9-4.4,2.1-7,1.3c-9.8-2.9-17.7-7.9-22.1-17.8c-3.9-9-0.5-16.5,3.3-24.1
	c6.3-12.5,17.9-19.8,28.5-27.8c9.7-7.2,19.6-14.3,30.2-19.9c13.1-6.8,27.3-11.6,40.7-18c21.3-10.1,44.2-14.2,66.9-19.4
	c19.8-4.6,39.6-9.3,59.6-12.9c21.4-3.9,43-5.7,64.9-4.2c16.2,1.1,32.5,0.2,48.7,0.6c10.5,0.2,21,0.8,31.5,1.6
	c13.6,1,27.2,1.9,40.7,3.8c17.3,2.6,34.5,6.2,51.8,9.3c1.2,0.2,2.4,0.4,3.5,0.7c4.4,1.3,6.2-0.6,7.1-4.8c1.9-8.8,4-17.5,6.4-26.1
	c1-3.5,3.8-5.5,7.5-4.7c3.4,0.7,5.2,5,4,8.9c-0.2,0.8-0.7,1.6-0.9,2.4c-2,8.2-3.9,16.4-6,24.6c-1,4,0.6,6.3,4.2,7.5
	c5.5,1.9,11.2,3.5,16.6,5.8c2.4,1,4.3,3.5,6.4,5.4c-0.3,0.6-0.5,1.2-0.8,1.9c-7.6-1.7-15.3-3.1-22.8-5.1c-3.4-0.9-5.5-1.2-6.5,3
	c-1.3,5.5-3.2,10.9-4.7,16.4c-1.8,6.7-0.3,10.1,6.2,12c11.9,3.4,23.9,6.3,35.9,9.4c0.5,0.1,1,0.1,1.5,0.2c13.6,4,15.2,3,22-9.4
	c7.1-12.8,14.9-25.3,22.2-38c1.3-2.2,1.6-5,3-7.1c1.9-2.9,4.1-5.7,6.8-7.9c0.8-0.6,4.1,0.6,5.1,2c1.2,1.7,2.5,4.9,1.7,6.3
	c-4.3,7.6-9.1,14.9-13.8,22.2c-1.7,2.6-3.9,5-5.4,7.7c-4.2,7.6-8.3,15.4-12.1,23.2c-0.8,1.6-0.2,3.9-0.2,5.9c1.7-0.9,3.5-1.6,5-2.8
	c6.5-5.3,13.1-10.5,19.3-16.2c5.7-5.2,10.7-11,16.2-16.3c6.3-6,12.5-12,19.3-17.3c5.5-4.3,11.6-7.7,17.7-11.2c1.2-0.7,3.3,0,5,0
	c-0.5,1.5-0.5,3.6-1.5,4.5c-10.8,9.3-21.8,18.2-32.5,27.6c-7.4,6.5-14.2,13.6-21.2,20.5c-3,3-5.8,6.2-8.6,9.5
	c-1,1.2-1.7,2.6-3.2,4.9c15.7,2.2,30.2,4.2,44.6,6.2c4,0.6,8.1,1.5,12.1,1.6c2.3,0.1,5-0.4,6.8-1.7c9.4-6.6,18.6-13.4,27.7-20.4
	c2.4-1.8,4.3-4.5,6.7-6.2c3.3-2.4,2.8-4.3-0.2-6.3c-6.4-4-12.8-8-19.2-12c-1.2-0.7-2.3-1.6-3.5-2.3c0.2-0.5,0.4-1.1,0.6-1.7
	c3.8,0.8,7.9,1.1,11.5,2.5c6.1,2.3,12,5.1,17.7,8.2c3.1,1.7,5.2,1,8-0.5c5.4-2.8,11.1-5.3,17-6.9c1.8-0.5,4.6,2.4,6.9,3.8
	c-1.5,1.6-2.8,3.6-4.6,4.6c-3.9,2.3-8.1,4.1-11.9,6c12.2,9.3,23.6,18.2,35.3,26.9c3.7,2.7,5.7,8.4,12.4,6.1
	c4.5-1.5,9.4-1.8,12.9-5.7c0.6-0.7,2.1-0.6,3.2-0.9c1.3,8.8-3.1,14.5-11.5,15.1c-3.1,0.2-5.7,0.4-5.9,4.7c-0.1,1.6-2.1,3.2-3.7,5.5
	c1.9-0.5,3.2-0.9,4.6-1.2c0.1,0.5,0.4,1,0.4,1.4c-2.1,12.2-11.3,19.6-23.8,19.2c-11.9-0.4-23.7-0.7-35.6-1.4
	c-10.5-0.6-20.3,0.8-28.4,8.3c1.4,1.5,3.5,3,4.5,5.1c2.7,5.5,0.5,8.3-5.5,7.8c-1.2-0.1-2.4-0.2-3.6-0.5c-11.4-3.1-21.2,0.6-31.2,7.7
	c7.2,4.7,14.2,9.3,21.2,13.8c0.3-0.4,0.6-0.8,0.9-1.2c-0.8-0.9-1.6-1.7-2.3-2.6c-1.7-2.1-4.1-4.2-0.8-6.9c3-2.4,5.9-4,9.4-0.3
	c9.8,10.4,20.5,19.7,32.2,28.2c11.7,8.4,21.9,18.7,33.1,27.8c8.8,7.2,18.4,13.3,26.8,20.9c11,9.9,24,17.4,33.4,29.3
	c7.7,9.8,6,23.2-4.8,29c-1.6,0.8-4.2-0.4-5.3-0.5c-1.6-4.4-2.8-7.9-4.1-11.3c-1.5-3.8-3.1-7.6-4.6-11.4c-2.4-6-8.2-8.7-12.8-12.2
	c-11.2-8.7-22.8-17.1-34.2-25.5c-13.9-10.2-27.9-20.2-41.8-30.3c-4.3-3.2-8.2-7-12.5-10.2c-5.5-4-11.1-7.8-16.8-11.5
	c-7.7-4.9-15.6-9.6-23.5-14.3c-0.3,0.3-0.7,0.6-1,0.9c4.3,4.3,8.1,9.2,12.9,12.8c9.2,6.9,19.2,12.7,28.4,19.5
	c8.6,6.3,17.2,12.8,24.7,20.3c6.8,6.7,12.1,14.8,18.2,22.5c2.8-0.4,7.5-2.4,10.6-1c6.9,3.1,14.4,6.1,18.7,13.3c2.4,4,5.6,7.7,7.5,12
	c1.2,2.8,0.8,6.4,0.6,9.7c-0.1,1.2-1.2,3.2-2.2,3.4c-1.4,0.3-3.6-0.2-4.6-1.1c-4.1-3.9-8.1-7.9-11.6-12.3c-2.8-3.5-6.1-5.2-10.2-4.4
	c-5.4,1.1-6.5-2.2-7.6-6.1c-0.6-2.4-1.2-4.8-1.9-7.4c-5.9,3.4-14.5,0.9-19.6-4c-5.5-5.3-11.8-9.9-17.8-14.7c-2.6-2-5-1.2-6.5,1.5
	c-1.4,2.7-1.1,4.8,2,6.8c4.1,2.7,7.3,6.7,11.2,9.7c2.4,1.8,5.5,2.7,8,4.3c4.1,2.6,8.2,5.3,12.1,8.1c4.4,3.1,8.7,6.4,12.9,9.7
	c8.1,6.3,16.5,12.3,24.3,19c5.6,4.7,11,9.9,15.4,15.7c3.3,4.3,5.2,9.9,7.1,15.1c0.5,1.5-0.6,5-1.7,5.4c-2.4,0.7-5.4,0.5-7.9-0.2
	c-2-0.5-3.8-2.3-5.4-3.3c-0.7,0.3-1.2,0.4-1.2,0.6c-3.4,8.8-5.7,10.4-14.5,5.9c-9.5-4.9-18.3-11.3-27.3-17.2
	c-17.1-11.3-34-23-51.3-33.8c-5.2-3.3-11.8-4.5-17.8-6.4c-3.9-1.2-7.8-2.1-13.3-3.5c0.8,5.3,1.2,9.5,2.1,13.5
	c1.7,7.6,4.4,13.5,13,16.8c18.8,7.2,37.2,15.7,55.6,24c10.7,4.8,20.9,11,31.8,15.3c12.5,4.9,21.8,15.2,34.3,20
	c0.6,0.2,1.2,0.8,1.4,1.4c2.1,7,4.3,14,6.1,21.2c0.4,1.5-0.9,3.4-1.4,5c-1.7-0.5-3.7-0.7-5.1-1.7c-7-4.7-13.7-9.9-20.9-14.4
	c-7.7-4.8-15.7-8.9-23.6-13.2c-10.7-5.7-21.4-11.5-32.3-16.9c-11.5-5.8-24-8.5-36.7-10.2c-5.7-0.8-11.3-2.3-17.1-3.1
	c-3.7-0.5-4.5-2.8-5.1-6c-2.3-10.9-5.5-21.5-7.3-32.5c-1.4-8.1-6-16.2-1.3-24.6c0.6-1.1,2-2.1,3.2-2.6c7.3-2.8,14,0.1,20.6,2.5
	c8.3,3.1,16.4,6.7,24.4,10.6c5.2,2.6,9.7,6.7,15,8.9c6.5,2.7,12.1,8.2,20.1,7.3c2.6-0.3,5.4,1.5,8.5,1.5c-3.2-2.3-6.5-4.5-9.7-6.8
	c-6.2-4.4-12.3-9.2-18.8-13.2c-6.9-4.3-14.1-8.1-21.4-11.8c-8.1-4.1-16.3-7.9-24.6-11.4c-3.8-1.6-8-2.3-12.1-3.2
	c-2.3-0.5-4.7-0.9-7.1-1.3c-9.9-1.4-10.8-5.9-12.7-16.1c-0.4-1.9,0.9-4.2,1.5-6.3c0.8-2.5,2-4.8,2.5-7.3c1.2-6.3,5.6-9.8,12-8.5
	c6.2,1.3,12.3,3.4,18.3,5.6c3.7,1.3,3.8,3.2,1.3,9.7c-5.2-1.7-10.3-3.6-15.5-5.1c-6.2-1.8-7.6-0.8-9,5.5c-0.4,1.8-0.4,3.8-0.5,5.7
	c-0.2,3.7,1.3,5.4,5.1,6.4c8.6,2.2,17.9,3.6,25.4,8c8.1,4.7,16.7,7,25.1,10.4c0.4,0.2,0.9,0.2,2.5,0.4c-2-1.8-3.1-3.2-4.4-4
	c-6.6-3.6-8.2-8.8-5.3-15.9c1.2-2.8,1.8-5.9,2.7-8.8c1.1-3.9-1.3-5.6-4.3-7.1c-4.2-2.1-8.9-3.7-12.2-6.9
	c-11.2-10.8-24.5-18.4-37.7-26.2c-6.6-4-9.6-3.2-14.4,3c-6.5,8.3-13.4,16.4-19.4,25.1c-6.2,9-11.5,18.5-17,28
	c-11.4,19.8-16.1,41.7-20.2,63.8c-1.1,5.7-1.5,11.6-1.5,17.5c0,1.7,1.7,4,3.3,4.9c2.8,1.6,6,2.4,9.1,3.4c9.3,3,18.7,5.8,28,8.8
	c11.8,3.9,23.6,7.5,35.1,11.9c21,8.1,41.9,16.4,62.5,25.3c11.6,5,22.4,11.8,33.8,17.3c6.6,3.2,13.7,5.5,20.5,8.4
	c6.3,2.7,12.5,5.5,18.5,8.8c14,7.5,27.9,15.4,41.8,23.1c1.5,0.8,2.9,1.8,4.7,2.9c4.3-7.7,4.4-16.2,5.2-24.5
	c2.4-23.7,4.3-47.4,6.3-71.1c1.7-19.1,3.2-38.1,5-57.2c0.8-8,1.9-16,2.9-24c0.1-1,0.2-2.1,0.3-3.1c0.7-16.4,1.7-32.8,1.9-49.1
	c0.2-18.9,0-37.9-0.6-56.8c-0.2-5.2-2.2-10.3-3.6-15.5c-1.1-4.2-1.8-8.2,2.9-10.8c0.8-0.5,1.9-1.4,1.9-2.2c0.1-5.6,0-11.3-0.1-16.9
	c0-0.2-0.8-0.5-1.3-0.8c0.4-3.4,1.8-7.1,1.1-10.2c-2.3-10.6-5.2-21-8-31.5c-2.1-7.8-4.9-9.9-10.9-8.1c-3.5,1-6.9,2.5-10.9,4
	c5.2,7.6,10.2,14.7,14.8,22c4.9,7.8,9.4,15.9,14,23.8c-1,0.9-2.2,1.6-3,2.7c-2.5,3.3-5,2.9-7.4-0.2c-8.9-11.7-15-25.6-27.4-34.5
	c-0.6-0.4-0.7-1.6-1.2-2.2c-2.3-2.3-3.6-5.5-8.3-3.2c-4.9,2.4-9.1-0.8-8.1-6.1c0.8-4.5-1.4-6.9-4.4-8.9c-12.1-8.1-24.3-15.9-36.4-24
	c-15.4-10.3-32.4-17.4-49.5-24.1c-16-6.3-32.6-10.8-49-15.9c-16.3-5-32.6-9.9-48.9-14.7c-11.7-3.5-23.6-6.6-35.2-10.5
	c-6.9-2.4-13.5-5.9-20.1-9c-0.8-0.4-1.7-0.9-2-1.6c-0.7-1.6-1.1-3.4-1.6-5.1c1.4-0.3,2.9-1.1,4.2-1c11.7,1.3,23.3,2.6,34.9,4.3
	c20.9,3,42,6,62.9,3.2c11.2-1.5,20.5,0.7,30.2,5.2c15,7,30.8,12.6,45.3,20.6c19.4,10.7,39,21.4,54.8,37.4
	c5.6,5.6,11.8,10.4,17.6,15.8c2.3,2.2,4.4,2.8,7.4,1.6c4-1.5,8.3-2.1,12.3-3.6c3.6-1.4,3.6-2.9,1.2-6c-1.3-1.7-1.5-4.1-2.6-5.9
	c-7.7-11.9-15.4-23.8-23.2-35.7c-4.8-7.3-9.5-14.7-15-21.5c-4.9-6.1-10.3-12-16.3-17.1c-13-11.2-25.8-22.8-40-32.4
	c-14.2-9.7-29.6-17.8-45-25.6c-10.6-5.4-22.2-8.7-33.2-13.4c-2-0.9-3-4-4.4-6.1c2-1.1,4.3-3.4,6-3.1c5,0.9,10.2,2.3,14.7,4.6
	c13,6.5,25.8,13.1,39.3,18.7c8.6,3.5,16.5,9.1,24.2,14.5c10.7,7.5,20.8,15.7,31.1,23.7c2.5,2,4.8,4.2,7.2,6.3c0.5-0.5,1-1.1,1.5-1.6
	c-4.1-4-8-8.4-12.3-12.1c-13.2-11.2-26.4-22.2-39.9-33c-6.1-4.9-12.7-9.1-19.1-13.7c-3.2-2.3-2.9-5-0.7-7.9c2.3-3.1,5-2.2,7.2-0.5
	c6,4.5,11.8,9.3,17.8,14c5.5,4.3,11.2,8.4,16.5,13c8.8,7.5,17.6,15,26,22.9c7.9,7.5,15.5,15.4,22.7,23.6c6.3,7.3,11.8,15.4,17.7,23
	c5.4,7.1,11.1,13.9,16.3,21.2c3.7,5.3,6.6,11.1,10,16.6c2.8,4.6,5.9,9.1,8.8,13.8c2.2,3.6,4.1,7.3,7.4,10.7c-1.3-4.7-2.4-9.5-4-14
	c-3.8-10.3-7.6-20.6-11.9-30.7c-2.9-6.9-6.5-13.5-9.7-20.3c-1.3-2.8-2.5-5.6-3.7-8.5c-4.5-11.4-9.9-22.2-18.1-31.5
	c-6.3-7.1-12-14.8-17.7-22.4c-1.3-1.8-1.2-4.6-1.8-7c2.2-0.1,4.4-0.6,6.6-0.2c6.3,1,8.6,6.8,11.4,11.1c8.6,13.1,17.9,26.1,24.3,40.3
	c8.1,18.3,19.4,35.2,24.2,55c1.6,6.5,5.8,12.4,8.8,18.6c1,2.1,2.4,4.2,2.8,6.5c1.1,5.9,4.7,7,9.8,5.8c2.2-0.5,4.5-0.4,6.7-0.7
	c7-0.8,7.5-1.5,6.6-8.4c-0.9-6.8-1.7-13.6-2.5-20.4c-1.7-14.9-3.5-29.8-5-44.7c-0.5-5.1-0.1-10.3-0.1-14.9c1.8-1.5,3.2-2.6,5-4
	c3.9,28.7,7.8,57.3,11.7,85.8c3-25.8-0.6-52,6.8-77.7c0.3,2.2,1.1,4.4,0.8,6.5c-2.7,18.9-0.6,37.7,1.1,56.5
	c0.4,5.1,0.7,10.3,1.6,15.4c0.2,1.3,2.2,3.4,3.3,3.3c11.9-0.3,23.7-0.8,35.6-1.7c1.2-0.1,3.1-3.2,3-4.8c-0.4-9.1-1.6-18.2-2-27.3
	c-0.4-10.5-0.3-21-0.4-31.6c-0.1-3.6-0.1-7.2-0.7-10.7c-1.4-8.1-3.2-16.1-4.7-24.2c-0.7-3.6,0.2-7.1,4.1-7.7
	c4.3-0.6,5.3,2.6,6.4,6.4c5,17.6,1.1,35.7,3,53.4c1.4,13.5,3.1,27,4.5,40.5c0.5,4.5,2.6,5.9,7.2,5.7c11.4-0.4,22.7-0.2,34.1-0.3
	c1,0,2-0.2,3.3-0.4c2.5-15.9,4.7-31.7,7.7-47.3c1.9-9.7,5.2-19.2,7.8-28.8c1.3-4.8,1.9-9.9,3.6-14.5c1.3-3.5,3.2-7.2,8.9-7.5
	c-1.2,8.9-1.6,17.6-3.7,25.7c-5,19.3-10.8,38.4-11.8,58.4c-0.2,4.3-1.5,8.5-1.6,12.8c0,1.6,2.1,3.2,3.3,4.7c0.2,0.2,0.7,0.1,1,0.1
	c18.7,4.2,20.7,2.6,27.4-15.5c6.2-17,13.5-33.6,21-50.1c1.9-4.1,5.9-7.4,9.4-10.5c1.3-1.2,4.1-0.7,6.2-1c0.2,0.6,0.4,1.2,0.6,1.8
	c-3.9,6.4-8,12.7-11.8,19.1c-1,1.7-0.9,4-1.8,5.7c-2,3.7-4.3,7.2-6.5,10.7c-0.4,0.7-1.3,1.6-1.2,2.2c1.2,6.2-1.6,11.3-3.8,16.8
	c-2.8,7.4-4.7,15.1-7.4,22.5c-1.3,3.7-0.5,5.3,3,6.7c9.4,3.6,18.8,7.6,28.3,11.1c1.2,0.5,3.9-0.9,4.8-2.2
	c5.9-7.7,11.7-15.6,17.2-23.6c7.7-11.4,15.2-23,22.6-34.7c6.3-9.9,11.6-20.5,18.7-29.8c5-6.5,7.2-14.9,14.7-19.9
	c5.2-3.4,4.3-5.3-1.3-7.9c-1.9-0.9-3.1-3.3-4.7-5c5.3-3.4,12.8,0.4,13.4,6.5c0.5,5,0.4,9.3-3.1,14.2c-8.2,11.2-17.3,22-21.9,35.5
	c-0.3,0.8-0.8,1.5-1.3,2.2c-5,7.4-10.2,14.7-15.1,22.2c-2.9,4.5-5,9.7-8.1,14.1c-5.8,8.2-12.1,16-17.9,24.2c-2.1,2.9-3.9,6-5.2,9.2
	c-0.4,1,0.7,3.4,1.8,4.2c3.9,3.1,5.1,7,5.2,11.8c0,2.5,1.4,4.9,2.5,8.4c0.1-0.2-0.1,1.1-0.9,1.5c-6.6,3.2-7.2,10-9.5,15.8
	c-1.8,4.4-2.8,9.3-5.3,13.2c-5,7.6-4.2,16.5-6.5,24.6c-1.8,6-2,12.5-3.2,18.8c-0.5,2.7-1.8,5.3-2.8,7.9c-0.3,0.7-0.5,1.5-0.5,2.3
	c0,3.2,0.3,6.4,0.2,9.6c-0.4,9.4-1.2,18.8-1.3,28.2c-0.2,14.1,0.1,28.3,0.3,42.4c0.2,19.1,0.6,38.2,0.9,57.3
	c0.1,8.1,0.1,16.2,0.6,24.3c0.3,5.1,1.5,10.1,2.3,15.1c0.2,1,0.6,2.1,0.5,3.1c-1.3,10.8,2.9,21,3,31.7c0.1,10.7,1.4,21.3,2.3,32
	c0.1,1.2,0.3,2.4,0.5,3.6c0.8,4.7-2.1,8.1-6.7,6.9c-4.6-1.1-8.8-3.5-13.2-5.3c-4-1.7-8.1-3.3-13.2-5.4c0,3.3-0.1,5.2,0,7
	c0.6,9.1,1.6,18.1,1.9,27.2c0.4,11.3,0.1,22.7,0.6,34c0.7,15.5,1.8,30.9,2.8,46.3c0.3,4.3,0.9,8.6,0.9,12.9c0,5,2.7,7,7.1,7.8
	c8.2,1.6,16.4,3.4,25.1,5.2c0-4,0.3-7.9-0.1-11.7c-1.7-15.4-2.6-30.9-5.7-46.1c-3.1-15.6-0.6-31.3-2.9-46.8
	c-0.4-2.5-1.2-6.5,3.7-6.3c3.8,0.2,4.1,2.6,4.3,6c1,15.8,2.2,31.5,3.9,47.2c2.1,19.4,4.9,38.8,7.3,58.2c2.2,18.4,4.2,36.9,6.3,55.3
	c0.2,1.3,0.7,2.5,2.3,3.8c0.4-5.4,1.1-10.7,1.3-16.1c0.8-15.8,1.8-31.6,2.2-47.4c0.6-19.8,0.8-39.5,1.1-59.3
	c0.1-3.1,0.3-6.2,0.3-9.3c-0.3-20-0.8-40-1-60c-0.1-6.4,0.5-12.8,0.3-19.1c-0.4-17.9-1-35.8-1.5-53.7c0-0.2-0.1-0.4,0-0.5
	c4-14.5-7.1-21.6-14.9-30.3c-1.6-1.7-3.6-3.7-3.9-5.8c-1.1-6.7-1.8-13.6-1.9-20.4c-0.1-4.7,3.3-7,7.6-5.2c3.2,1.3,6,3.7,8.9,5.8
	c1.8,1.3,3.2,3,5.7,5.2c0.9-5.2,1.9-9.5,2.4-13.9c0.9-8.7,1.1-17.5,2.2-26.2c0.9-7.3,2.3-14.6,4.4-21.7c2.8-9.2,12.9-17.7,24.8-12.7
	c1.9,0.8,4.7-0.5,6.8,0.1c1.8,0.4,3.2,2.1,5,3.3c-3.8,2.8-3.8,2.8-3.8,10.9c-7.6,3.6-9.3,10.5-10,17.9c-1.4,14.5-2.7,29-3.9,43.5
	c-0.6,7.2-1.3,14.5-1.5,21.7c-0.1,3.2,0.9,6.4,1.5,9.6c0.1,0.6,0.6,1.7,1,1.7c7.6,0.5,6.9,8.7,11.3,12.3c4.6,3.7,8.4,8.5,12.6,12.8
	c6.3,6.5,12.5,13.2,19.2,19.4c10,9.3,20.5,18,30.3,27.5c3.7,3.5,5.9,8.6,8.7,12.9c0.1,0.1,0.2,0.3,0.1,0.5
	c-1.4,6.1-2.9,12.2-4.4,18.2c-0.7,0.3-1.4,0.6-2.1,0.8c-4.4-3.6-9.3-6.8-13.2-11c-9.6-10.2-18.4-21.1-28-31.2
	c-6-6.3-13-11.6-19.4-17.6c-6.2-5.9-12.2-12-18.4-18.2c-0.6,7.9-1.5,16.4-2,24.9c-0.6,11.4-0.9,22.8-1.3,34.2
	c-0.4,11.5-0.9,23-1.2,34.5c-0.2,9.5,0,18.9,0,28.4c0,9.3-0.1,18.5,0.1,27.8c0.1,6.7,0.8,13.4,0.9,20c0.1,8.7-0.4,17.4-0.4,26
	c0,5.6,0.7,11.2,1,16.8c0.2,4.6,0.5,9.2,0.1,13.7c-0.6,7.4-2.3,14.8-2.3,22.2c-0.1,19.8,0.6,39.7,0.8,59.5
	c0.2,15.6,1.1,31.2-0.1,46.6c-1.4,19.3-0.4,38.5-1,57.8c-0.3,8.8,0.1,17.5,0.3,26.3c0.2,6.6,0.7,7.3,7.1,7
	c12.2-0.6,24.4-1.5,36.6-2.5c13.8-1.1,27.5-1.1,41.1,1.8c1.5,0.3,3.4,0.8,4.1,1.9c1.2,2,2.5,4.7,2,6.7c-0.4,1.4-3.7,3-5.6,2.8
	c-6.9-0.6-13.7-1.9-20.5-3.1c-11.1-1.8-22-0.4-32.9,1.8c-4.4,0.9-8.9,1.2-13.4,1.3c-6.1,0.2-12.3,0.1-20,0.1
	c1.5,1.7,2.1,2.9,2.7,2.9c6.3,0.6,12.6,1.2,19,1.6c10,0.5,20,0.3,29.9,1.3c6.8,0.7,13.4,3,20.2,4.2c4.4,0.8,8.9,0.8,13.4,1.4
	c5.2,0.7,8.4,4.1,7.3,8.7c-1,4.6-5.1,5-8.7,4.1c-7.5-1.9-14.8-4.3-22.2-6.4c-2.7-0.8-5.4-1.5-8.1-1.6c-11.6-0.5-23.3-0.7-34.9-1.2
	c-2.1-0.1-4.1-1.2-6.1-1.8c-0.7-0.2-1.5-0.7-2.2-0.6c-3.8,0.9-7.6,2-12.5,3.3c0.7,7.9,1.4,16.4,2,24.9c0.1,2,0.3,4.4-0.7,5.9
	c-2.6,4.1-8,3.7-9.7-0.9c-1.2-3.3-1.4-7-1.8-10.6c-0.8-6.2-1.6-12.5-2.5-19.9c-15.5,3.3-30,6.5-44.4,9.4c-2.6,0.5-5.4,0-8.1,0.2
	c-1.6,0.1-3.2,0.6-4.6,1.4c-1.9,1-3.6,2.5-5.4,3.7c-2.7-3.6-10.1-2.8-13.2,0.8c-1.4,1.7-3.5,2.8-5.7,3.7c-2.7,2.4-3.5,6.7-9.3,5.3
	c-2.1-0.5-5,2.3-7.7,3.7c-3-4.8-0.4-6.7,3.3-8.3c5.7-2.5,11.5-4.9,17.2-7.6c7.2-3.4,14.2-7.7,21.6-10.4c6.6-2.4,13.7-3.3,20.6-4.9
	c9.7-2.3,19.3-4.8,29-7.1c-0.1-0.5-0.1-1-0.2-1.5c-6.3,1.1-12.7,1.9-19,3.2c-14.3,3-28.7,6-42.8,9.6c-5.3,1.4-10.4,4.3-15.2,7.1
	c-2.6,1.5-4.4,3.1-6.7-0.4c0.4,1.5,0.7,3,1.1,4.7c-3.5,0.7-7,1.5-11.2,2.3c-1.8,4.4-2.5,4.6-6.2,0.6c-2.9,3.6-2.9,3.6-17,8.3
	c0.4,0.4,0.7,0.7,1.1,1.1c-1.8,2-3.2,4.7-5.4,5.8c-6.8,3.6-14,6.3-20.7,10c-2.6,1.4-4.4,4.4-6.7,6.5c-2.5,2.3-4.1,6.1-8.5,5.2
	c-0.6-0.1-1.4,0.6-2,1c-7.5,5.1-15.1,10-22.3,15.4c-5.9,4.4-11.2,9.5-16.8,14.3c-0.5,0.4-1,0.9-1.6,1.2c-6.2,3.5-7.7,11.9-2.8,16.7
	c0.8,0.7,3.2,0.9,4,0.3c8.3-7,16.4-14.2,24.5-21.3c0.7-0.6,1.9-1.7,2.4-1.4c3.8,1.6,4.4-1,5.2-3.6c1.2-4,3.1-6.6,6.5-4.2
	c1.4-1.9,2.5-3.4,3.7-4.8c1.1-1.3,2.6-2.3,3.6-3.7c3.8-5,9.3-7.2,14.6-10c4.9-2.6,9.3-6.4,14-9.5c8.4-5.7,15.6-13.1,25.3-16.9
	c1.1-0.4,2.3-0.3,3.5-0.4c0.1,1.3,0.3,2.6,0.1,3.8c-0.3,1.5-0.9,2.9-1.6,5.1c-3,0-6.9,0-9.2,0c-3.5,3.2-6.2,5.6-8.8,8
	c-0.9,0.9-1.6,2.1-2.6,2.9c-2.9,2.2-5.9,4.4-8.9,6.5c-3.2,2.2-6.8,4-9.7,6.5c-7.4,6.3-14.3,13.1-21.8,19.3
	c-4.3,3.6-9.3,6.3-14.3,9.7c0.3-1.4,0.5-2.5,0.8-3.7c-0.6-0.1-1.2-0.2-1.8-0.3c-0.4,2.6-0.8,5.2-1.2,7.8
	c-7.1,6.5-14.6,13.4-22.9,21.1c-1.9,9.7,5.8,16.2,12.5,22.9c3.1,3.1,6.6,3.9,11.1,1.5c9.7-5.2,19.8-9.8,29.8-14.6
	c5-2.5,10-4.9,14.8-7.8c3.3-2,5.8-5.3,9.1-6.9c11.4-5.7,23-10.8,34.5-16.2c5.2-2.4,10.3-5.2,15.6-7.5c3.2-1.4,6.8-1.8,10.1-2.9
	c2.8-0.9,5.4-2.1,8.1-3.3c2.8-1.2,5.5-2.8,8.5-3.6c6.8-1.8,13.7-3,20.5-4.7c7.8-1.9,15.4-4.5,23.2-6.2c15.8-3.3,31.3-8.1,47.9-2.8
	c8.2,2.6,17.5,3,26.2,2.5c4.5-0.3,9-4.4,12.8-7.7c8.3-7.1,16.4-14.4,24.2-22.1c10.2-10.2,20.2-20.8,29.9-31.6
	c11.9-13.1,23.7-26.3,35-39.8c6.7-8,12.6-16.7,18.7-25.1c6-8.2,12.2-16.2,17.8-24.6c8.3-12.4,16.2-25.1,24.1-37.7
	c8.4-13.3,17-26.6,25-40.2c6.3-10.7,12-21.8,18-32.8c0.9-1.6,2.2-3,3.1-4.7c6.6-12.5,13.9-24.6,19.4-37.5c4.1-9.6,8.4-19,14.2-27.7
	c7.7-11.6,17.3-20.5,31.7-22.3c6.7-0.8,12.8,1.7,18.9,5c10.1,5.4,13.8,15.3,18.8,24c3.7,6.5,5.4,14.3,7.2,21.7
	c2.5,10.5,4.2,21.1,6.4,31.7c0.7,3.3,2.1,6.4,2.7,9.7c0.4,2.3,1.6,5.3-2,6.6c-0.3,0.1-0.1,1.8,0.1,2.7c0.7,2.3,2.3,4.7,2.1,6.9
	c-1,10.1-3.2,20.1-3.8,30.1c-1.1,20.7-6.2,41.3-1,62.1c1.4,5.7,2.4,11.4,3.5,17.1c0.7,4,0.4,7.2-4.9,7.7c-1.3,0.1-3.5,2.5-3.5,3.9
	c-0.2,8.1,0.1,16.2,0.3,24.3c0.1,4.3,0.2,8.6,0.5,12.9c0.9,11.8,1.7,23.6,3,35.3c0.9,8,3.1,15.8,4.2,23.8
	c1.7,12.3,2.3,24.7,4.7,36.9c3.1,15.5,4.7,31.5,11.6,46.1c1.4,3,1.6,6.7,1.6,10.1c0,1.3-1.9,3.7-3,3.6c-1.6,0-3.9-1.3-4.7-2.7
	c-1.4-2.5-2-5.5-2.6-8.3c-1.9-8.7-3.8-17.4-5.4-26.1c-2.1-11.8-3.9-23.6-5.9-35.4c-1-5.9-2.1-11.8-2.9-17.7
	c-1-7.1-1.8-14.1-2.7-21.2c-1.7-13.3-3.5-26.6-5-39.9c-0.7-6.7-0.7-13.4-1.2-20.2c-0.1-1.6-0.6-3.2-1-4.8c-0.5,0-1,0-1.5,0
	c-0.6,4-1.3,7.9-1.6,11.9c-0.9,11.9-1.9,23.7-2.3,35.6c-0.3,11.7,0.1,23.4,0.4,35.1c0.3,11.6,0.8,23.2,1.5,34.7
	c0.2,2.5,1.7,4.9,2.1,7.4c0.6,4.2,0.6,8.5,1.1,12.7c0.5,4.4,1.5,8.7,2,13.1c0.7,6.5,1.1,12.9,1.6,19.4c0.2,2.2,0.4,4.5,0.9,6.7
	c1.4,6.5,3,12.9,4.3,19.4c1.8,8.9,3,17.9,5.1,26.7c0.9,3.7,3.6,6.9,5.5,10.3c0.3,0.6,1.2,1,1.3,1.6c1.7,11,10.8,18.6,13.3,29.1
	c0.5,2.1,1.1,4.7,0.3,6.5c-0.8,1.9-2.9,3.8-4.8,4.6c-0.8,0.3-3.5-2.1-4.1-3.7c-3.5-8.6-6.5-17.3-9.8-26c-0.8-2.1-1.7-4.1-2.6-6.2
	c-4.2-9.7-8.4-19.3-13.2-30.3c-0.5,2.5-1,4-1,5.4c0.1,3.8-0.1,7.7,0.8,11.2c1.8,6.9,4.3,13.7,6.4,20.6c2,6.7,3.9,13.5,5.7,20.3
	c2.6,9.7,4.7,19.4,7.5,29c1.1,3.7,3.8,6.9,5.5,10.5c2.8,6,4.8,12.4,8,18.1c4.6,8.1,10.1,15.8,15,23.7c3.6,5.8,7.1,11.7,10.1,17.8
	c0.7,1.3-0.4,4.1-1.5,5.5c-2.1,2.7-4.8,1.3-6.7-0.5c-1.8-1.8-3.2-4.1-4.4-6.3c-6.7-11.7-13.7-23.3-19.8-35.4
	c-5.6-11.3-10.8-22.8-14.9-34.7c-5.3-15.2-9.3-30.8-13.8-46.2c-2.7-9.4-5.3-18.9-7.8-28.4c-0.4-1.7-0.7-3.4-0.8-5.1
	c-1.4-20.6-2.2-41.3-4.5-61.8c-1.3-11.4-3.4-22.6-3.1-34.3c0.6-19.8-0.2-39.6,0.5-59.4c0.3-9.4,2.9-18.7,3.8-28.1
	c1.1-10.8,1.5-21.7,2.3-32.5c0.4-5.8,0.5-11.8,1.5-17.5c2.3-13.1,5.6-25.9,7.4-39.1c1.2-8.7,1.6-17.7,0.5-26.3
	c-2.5-19.3-6.1-38.4-9.4-57.6c-0.9-4.9-2.3-9.8-3.8-14.5c-0.6-1.8-1.9-3.4-3.9-6.7c-9.1,11.9-17.6,22.5-25.4,33.6
	c-5.8,8.2-10,17.5-15.8,25.7c-9.2,12.9-19.2,25.3-28.6,38.1c-5.9,8-11.2,16.4-16.8,24.7c-6.3,9.3-12.8,18.6-19,27.9
	c-4.8,7.2-9.1,14.7-14.1,21.8c-2.4,3.3-6.2,5.7-8.6,9c-11.8,16.3-23.3,32.9-35.2,49.2c-7.5,10.4-15.3,20.6-23.1,30.9
	c-4.2,5.6-8.4,11.2-12.7,16.7c-3.7,4.8-7.6,9.5-11.4,14.3c-4.8,6.2-9.4,12.6-14.4,18.7c-2.6,3.2-2.4,6.2-0.3,8.9
	c5.3,7.1,6.3,15.6,8.1,23.8c1,4.8,1.2,9.9,1.2,14.9c0,1.9-1.3,5.4-2.3,5.6c-3.1,0.5-6.7,0-7.6-4.3c-1.2-6.3-2.3-12.6-3.6-18.8
	c-0.6-3-1.4-6-2.4-9c-1.2-3.5-3.9-4.2-6.3-1.7c-4.2,4.4-8.1,9.2-11.8,14.2c-6.2,8.3-12.1,17-18.4,25.3c-3.2,4.2-7.1,8-10.9,11.7
	c-1.3,1.3-3.5,1.7-5.2,2.5c-0.6-0.4-1.2-0.8-1.7-1.2c1.1-3.2,1.5-6.8,3.4-9.4c6.5-8.8,13.5-17.1,20.2-25.7c3.8-5,7.3-10.3,10.9-15.5
	c0.3-0.5,0.3-1.2,0.6-2.1c-4.8,4.3-9.3,8.3-13.7,12.3c-8.3,7.6-17.1,14.8-24.4,23.2c-4.3,5-9.9,8.4-13.8,12.8c-4.4,5-12.6,8-13,16.5
	c-0.1,0.9-2.3,1.8-3.9,3c-0.2-1.4-0.4-2.3-0.4-2.7c-13.1,20.7-32.8,35.1-51.1,50.9c-0.5-0.4-1-0.7-1.5-1.1c0.5-1,0.8-2.2,1.6-3
	c9.1-9.2,18.3-18.4,27.4-27.7c3.5-3.7,6.6-7.8,10.1-11.5c0.9-0.9,2.8-1,4.5-1.6c0.3-1,0.8-2.8,1.2-4.7c0.3-1.1,0.4-2.3,0.7-3.4
	c-1.3,0.1-2.9-0.3-3.7,0.3c-5.7,4.9-11.4,9.7-16.6,15c-8.2,8.3-18.1,14.1-28.3,19.7c-3.7,2-6.5,5.9-9.7,8.9
	c-0.2,0.2-0.2,0.9-0.3,0.9c-9.3,1.5-11.6,13.1-21.3,14.5c-2.7,0.4-5,3.4-7.6,5c-4.7,3-9.5,5.6-15.5,5.3c-2-0.1-4.1,2.2-6.5,3.5
	c2.3,2.6,3.7,4.3-0.5,6.6c-8.1,4.6-15.3,10.8-25.1,12.3c-2.5,0.4-4.1,5-6.7,6.6c-5.9,3.5-12.2,6.2-18.2,9.5
	c-2.4,1.3-4.2,3.5-6.6,4.8c-6.4,3.3-13.1,6.3-19.5,9.6c-4.7,2.4-9,4.5-12.1-3.3c9.6-4.3,19.5-8.8,29.5-13.2c0.6-0.3,1.7-0.3,1.9-0.7
	c3.3-6.7,10.7-8.1,16.3-10.9c10.1-5.1,18.8-12.2,28.8-17.3c3.2-1.7,5.5-5.6,8.8-6.6c9.8-3.1,16.6-10.9,25.7-15.1
	c5.7-2.6,10.3-7.5,15.4-11.4c16.2-12.6,32.8-24.7,48.4-37.9c11.6-9.9,21.8-21.4,32.8-32.1c3.1-3.1,7.2-5.3,10-8.6
	c7.2-8.3,13.8-17,20.9-25.3c5.5-6.5,11.5-12.6,17.2-18.9c0.6-0.7,0.9-1.6,1.4-2.4c-0.3-0.3-0.7-0.7-1.1-1c-2.2,2.2-4.4,4.4-6.7,6.6
	c-6.8,6.4-13.7,12.8-20.5,19.3c-4.4,4.2-8.6,8.5-12.9,12.7c-3.8,3.7-8.7,6.6-11.4,10.9c-4.5,7.3-12.5,10.1-18.1,16
	c-4.8,5.1-10.3,9.4-15.5,14c-5.3,4.7-10.5,9.7-16.1,14c-10.2,7.8-20.8,15.2-31.2,22.7c-5.3,3.8-10.6,7.8-16.1,11.4
	c-2.8,1.9-6.1,3-9,4.8c-7.6,4.6-15.1,9.6-22.8,14.1c-4,2.3-8.4,3.9-12.8,5.5c-8.3,2.9-16.8,5.3-25.2,8.3c-2.7,1-4.8,3.8-7.6,4.6
	c-9.5,2.7-19,5.4-28.7,7.1c-7.4,1.3-15.2,1.2-22.7,2c-4.9,0.5-9.7,1.6-14.5,2.4c0.4-1.3,0.4-3,1.3-3.7c7.4-6.4,20.7-8.8,28.8-4.4
	c1.2,0.7,3.7-0.2,5.4-1c1.7-0.8,2.9-2.8,4.6-3.3c10.6-3.3,21.3-6.4,32-9.5c5.5-1.6,10.8-2.7,15.6-7c3.8-3.5,10.2-4,15-6.7
	c12.9-7.3,25.6-15,38.2-22.8c8.1-5,15.9-10.5,23.7-15.9c5.2-3.6,10.4-7.2,15.2-11.2c13.4-11.1,26.6-22.5,40.4-34.2
	c-1.3-0.4-2-0.9-2.4-0.7c-5.1,2.4-10.3,4.5-15,7.4c-7.1,4.4-13.4,9.9-20.8,13.8c-7.1,3.8-14.3,7.3-21.2,11.4
	c-9,5.4-17.9,11.2-27.4,15.8c-8.5,4.1-17.7,7-26.6,10.2c-4.6,1.6-9.2,2.6-13.6,5.6c-4.7,3.2-10.7,4.6-16.1,6.7
	c-0.6,0.2-1.3,0.2-2,0.1c-2.9-0.5-5.9-1.1-8.8-1.7l0.2,0.1c2.9-1.9,5.8-4.2,10.2-2.3c-0.5-5.2,2.8-5.6,6.8-6.3
	c5.1-0.8,10.9,0.1,14.9-5c1.6-2.1,4.4-3.4,6.8-4.7c3.8-2,7.8-3.6,11.7-5.5c3.3-1.6,6.6-3.2,9.9-4.8c5.8-2.7,11.8-4.9,17.3-8
	c11.4-6.5,22.6-13.4,33.7-20.4c14.6-9.2,29.4-18.1,43.6-28c9-6.4,16.8-14.4,25.3-21.6c8.6-7.3,17.5-14.2,26.1-21.6
	c5.3-4.6,10.1-9.8,15.1-14.7c2.2-2.2,1.3-3.9-0.8-5.6c-4.7-3.7-12.6-2.7-17.3,1.5c-5.3,4.8-11,9.2-16.8,13.4
	c-6.5,4.7-13.2,8.9-19.9,13.3c-2.2,1.5-4.5,2.9-7,3.9c-4.6,1.9-11.3,2.2-13.7,5.6c-4.8,6.9-13.2,6.4-18.8,11.7
	c-4.8,4.4-12.6,5.6-19.2,8.1c-6.8,2.6-13.7,5.1-20.6,7.5c-9.7,3.3-19.5,6.5-29.3,9.7c-11.1,3.6-23.1,1.9-34.2,6.1
	c-4.2,1.6-9.2,1.2-13.8,1.6c-1.5,0.1-3-0.2-4.6-0.4c0.2-1.8,0.3-3.6,0.6-6c6.2,4.5,8.7,3.9,11.8-2.1c2,0.2,4.1,1,6,0.6
	c9-1.8,18-3.6,26.8-6.1c14.3-4.1,29-7.5,42.7-13.2c17-7.1,33.2-16.3,49.8-24.5c13.6-6.7,26.6-14.3,38.3-23.9c4.1-3.4,8-7,12.8-11.3
	c-5.1-1.2-9-1.8-12.7-3c-9.5-3.1-19-4.8-29.1-3c-2.7,0.5-5.6-0.6-8.6-0.9c-8.2,5.3-18.6,5.6-28,7.9c-1.5-0.9-4.2-2.2-4.7-1.6
	c-3.8,4.8-8.7,6.1-14.4,6.6c-2.9,0.2-7.3-1.4-8.5,3.7c-0.1,0.4-1.8,0.5-2.7,0.6c-2.1,0-4.9-1-6.2,0c-9.2,6.8-21.4,6.7-30.5,13.7
	c-2.9,2.2-7.5,2-11.1,3.5c-5.3,2.2-10.2,5.1-15.4,7.5c-4.5,2.1-9.1,3.8-14.7,6.2c2.4,0.3,3.7,0.4,5,0.6c0.1,0.4,0.2,0.8,0.2,1.3
	c-6.2,2.3-12.3,4.7-17.1,6.5c-5.9,4.2-10.4,8.7-15.9,10.9c-7.1,2.8-13.3,6-18.1,12.5c0.7,0.6,1.3,1.4,2.1,1.9
	c5.7,3.6,13.9,2.7,17.7,9.9c0.3,0.6,2.6,0.4,3.8,0.1c0.4-0.1,0.3-1.9,0.4-2.9c1.8-0.1,3.8-0.6,5.6-0.2c1.2,0.3,2.1,1.9,3.1,2.9
	c-1.1,0.8-2.1,2.3-3.2,2.4c-5.6,0.4-11.3-0.1-16.8,0.7c-4,0.6-4.7-0.5-4.2-3.9c0.2-1.1,0.1-2.2,0.2-3.8c-3.4,4.4-7.3,4.2-12.1,1.4
	c-2.9-1.7-6.9-3-10.1-2.5c-7.1,1.1-12.7,5.5-17.9,10.5c-4.2,4-7.5,9.6-14.8,9c-0.4,6-4.4,7.1-8.7,6.5c-0.5,9.8-7.9,14.4-13.9,20.9
	c1.6,2.4,2.9,5.5,5.2,7.6c4,3.9,9.5,6.6,12.6,11c3.8,5.5,8.7,6.8,14.5,7c0.6,2.9,1.2,5.5,1.8,8.9c-6.6-1.9-12.2-3.5-17.7-5.3
	c-1.2-0.4-2.4-1.6-3-2.8c-1.2-2.1-1.8-4.4-3-6.5c-0.4-0.7-1.7-0.8-2.5-1.3c-0.2,0.9-0.3,1.8-0.6,3.4c-2.1-1.5-3.9-2.4-5.3-3.8
	c-2.9-2.8-5.4-6-8.4-8.8c-0.8-0.7-3.1-1.2-3.6-0.7c-4.8,4.9-9.4,9.9-13.9,15c-1.8,2.1-3,4.8-5.1,6.6c-7.5,6.6-6.9,16.1,1.4,21.8
	c3.3,2.3,6.2,5.2,9.7,8.2c3-0.9,9.7,2.2,12.5,5.6c1.6,1.9,5.4,4.5,6.6,3.8c3.3-1.8,5.8-0.5,8.8-0.2c3.7,0.4,7.3,3.6,11.3,0.8
	c0.4-0.3,1.7,0.7,2.6,0.9c0.9,0.2,2.4,0.6,2.7,0.2c3.9-4.8,6.9-0.6,10.6,0.7c-0.9,1.5-1.6,2.7-2.6,4.4
	C970,1230.1,971.7,1230.6,973.5,1231.2z M603,450.3c-0.6,6.3-1.2,12.7-1.8,19c0.7,0.1,1.4,0.1,2.2,0.2c0.4-7,0.7-14,1.1-21.1
	c0.2-4.6,0.3-9.3,0.7-13.9c0.3-3.5,0.9-7.1,1.6-10.5c1.9-8.9,4.1-17.7,6.1-26.5c1.8-8.4,3.4-16.8,5.3-25.2
	c1.2-5.2,2.8-10.2,4.1-15.3c3.4-12.9,6.7-25.9,10-38.8c0.3-1.3,0.2-2.6,0.3-4c-0.5-0.3-1.1-0.6-1.6-0.9c-3.7,5.7-7.8,11.2-11.1,17
	c-3.1,5.3-5.5,11-8.2,16.5c-3.8,8-9.2,15.3-8.6,24.9c0.6,8.9,1.1,17.9,0.7,26.9c-0.6,16-1.9,32-2.8,48
	C601,447.7,602.3,449,603,450.3z M908.7,684.1c2.2-2.8,5.6-5.1,6-7.8c1.8-13.1,2.9-26.4,4.1-39.6c0.6-6.2,0.6-12.4,1-18.6
	c1.2-17.9,2.6-35.7,3.9-53.6c0.7-10.1,1-20.3,2-30.4c0.4-4.5-1.7-5.7-5.4-6.4c-0.4,1.2-1,2.2-1.1,3.1c-1.3,9-2.4,18.1-3.7,27.2
	c-0.9,6.3-2.1,12.5-2.7,18.8c-0.8,9.5-1.2,19-1.8,28.6c-0.3,4.3-3.5,5.4-7,5.3c-3.8-0.1-3.6-3.1-3.8-6c-0.2-2.2-1.1-5.3-2.7-6.3
	c-6.1-3.8-12.7-6.7-18.9-10.2c-10.8-6-21.2-12.8-32.3-18.2c-15.6-7.6-31.6-14.3-47.4-21.3c-15.4-6.8-30.8-13.6-46.3-20
	c-11.7-4.8-23.9-8.7-35.5-13.7c-10.2-4.3-19.7-10.1-30-14.3c-8.4-3.4-17.2-5.7-26-7.9c-11.4-2.9-16.1-5.9-14-14.7
	c-4.4-3.7-5.6,1.7-6.3,3.2c-1.6,3.4-2.3,7.4-2.2,11.2c0,1.2,3.4,2.8,5.5,3.5c9.4,2.8,19,4.8,28.2,8c13.5,4.6,26.8,9.7,40,15
	c21.4,8.5,42.7,17,63.8,26.1c15.5,6.6,30.9,13.4,45.7,21.4c12.6,6.8,24.2,15.3,36.3,23c4.8,3,5.2,4.5,1,8.5
	c-2.5,2.3-2.9,4.1,0.2,6.1c6.3,4.2,12.3,9.2,19.1,12.2c5,2.3,3.6,4.8,2.8,9c-2.8-0.6-5.6-0.6-7.8-1.8c-15.4-7.9-30.5-16.4-46-24.1
	c-19.7-9.8-39.7-18.9-59.5-28.5c-4.9-2.4-9.8-5-14.5-7.8c-3.2-1.9-3.9-4.5-1.4-7.8c2.1-2.7,1.1-7.5-2.2-8.9
	c-7.6-3.4-15.4-6.4-22.1-9.2c-0.8,4.2-2.1,8-2.3,11.9c-0.3,6.2-3.9,6.7-8.9,6.9c-9.1,0.4-17.2-2.8-25.3-6.2c-7.1-3-14-6.7-21.3-9
	c-11.3-3.5-22.8-6.1-34.4-9.1c-0.8,6-1.9,12-2.4,18c-0.7,8.9-4.5,11.4-13.7,6.8c-0.5,7.7-0.9,14.7-1.2,21.8
	c-0.3,7.5-0.6,15.1-0.8,22.7c-0.2,12.4-1.1,24.9-0.3,37.3c0.5,7.1,1.1,13.8-0.1,21c-1.1,6.6-0.5,13.5-0.2,20.2
	c0.3,6.5,1.2,12.9,1.7,19.4c0.2,3.4-1.4,5-5,4.8c-4.2-0.2-9-5.8-8.9-11.2c0-6.7,0.2-13.4,0.4-20.1c0.2-11.9,0.6-23.7,0.7-35.6
	c0.1-11.6,0-23.1,0.1-34.7c0-8,0-16,0-24c-2.7,19.2-4.2,38.6-5.7,58c-0.2,2.9-0.5,5.8-0.8,8.8c-1.2,9-3.4,18.1-3.5,27.1
	c-0.1,13.8-1.7,27.4-4.3,41c-0.6,2.8-1.7,5.2-5.6,5.3c-4,0.1-4.1-2.3-4.5-4.8c-0.4-2.5-1-5.2-0.8-7.7c0.9-13.1,2-26.2,3.2-39.2
	c1.1-12.5,2.5-25,3.4-37.5c1-15,1.8-30,2-45c0.2-8.7-0.9-17.4-1.4-26.1c-6.9,0.8-9.7-1.2-10.5-7.3c-0.4-3.1-0.3-6.2-0.3-9.3
	c-0.3-14.5-0.5-28.9-1-43.4c-0.1-4.1-0.9-8.2-1.4-12.3c-2-14.5-4-29-6-43.5c-0.6,0-1.2,0.1-1.7,0.1c-2.7,4.3-6.1,7.5-4.4,14.1
	c3.6,13.5,5.8,27.5,4.2,41.5c-0.6,4.9-3.2,9.6-4.5,14.5c-0.7,2.7-1.3,5.5-1.1,8.3c0.3,4.6,1.7,9.1,1.8,13.6
	c0.1,16.7,3.1,33.3,2.1,50.2c-0.6,11.7,1,23.6,1.5,35.4c0.3,6.9,0.4,13.8,0.9,20.7c0.7,9.5,2.1,19,2.5,28.6
	c0.5,11.3,0.9,22.7,0.3,33.9c-0.4,7.3,3.3,16.2-5.8,21.3c-5.2-2.4-5.5-2.4-5.7-7.7c-0.2-7.2,0-14.5,0.1-21.7
	c0.2-9.5,0.9-19,0.5-28.4c-0.6-15.8-2.1-31.6-2.7-47.5c-0.4-9.1,0.6-18.3,0.2-27.4c-0.8-14.8-2.1-29.5-3.4-44.3
	c-0.2-2.8-1.1-5.5-1.6-8.3c-0.5,0-1,0.1-1.5,0.1c-0.2,3.2-0.6,6.4-0.4,9.5c0.5,11.1,3.2,22,1,33.3c-1.4,7.1-0.8,14.6-1.3,22
	c-0.6,9.6-1.4,19.2-2.2,28.8c-0.5,5.6-1.2,11.2-1.7,16.9c-0.2,2.8-0.7,5.5-0.5,8.3c1.5,14.8-0.3,29.3-3.5,43.7c-1-0.5-2-1-3-1.5
	c-0.1,2.1,1.3,3.3,1.2,4.5c-0.2,2.9-0.5,6.1-1.9,8.4c-0.8,1.2-4,1-6.1,1.4c-0.1-2.4-0.5-4.8-0.3-7.1c0.5-4.5,1.7-8.8,2-13.3
	c0.8-11.7,1.3-23.4,1.9-35.1c0.6-10,1.4-20,1.8-30c0.2-4.6-0.4-9.3-0.1-13.9c0.5-6.7,1.9-13.3,2.5-20c0.8-8.4,1.6-16.8,1.5-25.2
	c-0.1-10-1-19.9-1.8-29.9c-0.8-10-1-20.1-3.1-29.8c-2.6-11.4-7-22.3-10.6-33.4c-2.2-6.5-5.9-8.3-12.8-7.9
	c-6.1,0.4-12.3-0.4-18.5-0.5c-8.4-0.2-16.8-0.3-25.2-0.1c-1.3,0-3.6,1.5-3.8,2.7c-1.8,8.6-4.5,17.2-4.5,25.9
	c0,19.6,1.5,39.2,2.4,58.8c0.9,18.4,2.2,36.8,3,55.3c0.5,13.7,1.9,27.2,5.7,40.4c3.1,10.7,5.1,21.6,5,32.9c0,6.7,1.5,13.4,2.2,20.2
	c0.7,8,1.2,16,1.8,24c0.3,4.1,0.1,8.3,0.6,12.3c0.6,4.5,2.1,8.9,2.5,13.5c0.8,8.6,0.8,17.3,1.8,25.8c0.4,3.1,2.5,6.3,4.5,8.9
	c3.3,4.3,7.6,7.9,10.5,12.5c4.9,7.8,9.3,15.9,13.4,24.1c3.3,6.6-0.7,13-7.9,12.6c-7.2-0.3-14.5-0.8-21.6-2.4c-16-3.5-32-7-48.5-4.8
	c-12.4,1.7-24,5.4-31.8,15.9c-5.7,7.7-9.1,16.3-3.9,26c3,5.6,5.7,11.4,4.1,18.2c-0.2,1.1,1.1,2.7,2.1,3.8c4.7,4.7,9.4,9.5,14.3,13.9
	c6.5,5.9,13,11.8,20,17.2c4.2,3.2,9,5.8,13.8,8c14.5,6.7,29,13.3,43.8,19.5c11.8,5,24.1,9,36,13.9c16.3,6.7,32.4,13.8,50.5,14.2
	c1.3,0,2.7-0.2,5.4-0.4c-3.2-2.8-5.2-4.6-7.2-6.4c-6.8-6.1-13.8-11.8-20.2-18.3c-12.5-12.8-21.5-28.1-28.6-44.4
	c-2-4.7-2.7-10.2-3.2-15.4c-0.1-1.2,2.4-3.2,4.1-4c2.6-1.3,5-0.4,6.2,2.5c0.9,2.1,2,4.2,2.2,6.4c1,10.7,6.2,19.7,12.1,27.9
	c6.8,9.6,14.9,18.3,23.1,26.8c3.1,3.2,7.8,4.9,13.1,8.1c-1.3-3.8-2.4-6.1-2.9-8.4c-2.6-12.3-4.4-24.8-7.8-36.8
	c-3.9-13.7-2.6-27.4-2.9-41.2c-0.1-4,2.5-6.7,6.2-6.9c4.1-0.2,5.2,3.1,5.1,6.9c-0.2,6.1,0.3,12.1-0.2,18.2c-1.2,13,3,24.8,7.6,37.5
	c0.5-1.3,0.8-1.8,0.8-2.2c0.1-13.8,0.1-27.7,0.1-41.5c0-5.1,2.4-8.7,6-8.8c4.2-0.2,7.6,3.7,7.5,8.8c-0.1,3.6,0.1,7.3-0.5,10.9
	c-4,24-0.7,47.3,5.9,70.3c0.6,2.2,1.1,6.2,5.8,4.6c7.5-2.5,15.2-4.5,22.7-6.9c19.3-6.2,38.6-12.6,58-18.7c10.5-3.3,21-6.6,31.7-9.4
	c10.2-2.7,20.5-4.8,30.7-7.3c18.6-4.5,37-9.7,55.7-13.6c14.1-2.9,28.6-4.1,42.9-6.3c1.4-0.2,3.4-1.9,3.6-3.1
	c2.3-16.8,4.2-33.5,6.3-50.3c1-8,2.1-16,3.1-24c0.7-5.3,1.4-10.6,1.9-15.9c1-10,1.9-20.1,3-30.1c0.4-4,1.2-7.9,1.7-11.9
	c0.3-2.6-0.1-5.2,0.1-7.8c1.3-12.5,2.9-24.9,3.9-37.4c0.2-2.6-1.1-6.3-3-8c-8.6-7.6-17.5-14.9-26.5-22c-6-4.7-12.3-9.3-18.7-13.4
	c-8.3-5.4-16.9-10.5-25.4-15.5c-8.8-5.3-17.5-10.9-26.7-15.4c-10.6-5.2-21.9-9-32.6-14.2c-10-4.8-19.3-10.9-29.1-15.9
	c-20.2-10.2-41.3-18.7-63.1-24.8c-9.1-2.6-18.8-3.3-28.9-5c0,10.6,0,19.7,0,28.8c0,10-0.5,20,0,30c0.5,11.3,2,22.6,2.8,33.9
	c0.2,3.6-1.1,6.9-5.5,7.1c-4.3,0.2-6.2-2.1-5.9-6.9c0-0.7,0.1-1.4,0.1-2c-0.4-18.3-0.9-36.5-1.3-54.8c0-1.2,0-2.4,0-3.6
	c-0.5-15.5-1-31-1.2-46.5c0-1.6,2.2-4.4,3.7-4.5c2-0.2,5.4,1.2,5.9,2.7c1.3,4.1,4.5,4.2,7.6,5.2c7.8,2.4,15.7,4.7,23.5,7.2
	c4.8,1.6,9.4,3.8,14.2,5.3c6.3,2,12.9,3.2,19.2,5.4c6.6,2.3,13,5.3,19.3,8.2c7.3,3.3,14.7,6.6,21.8,10.2c8.6,4.4,16.7,10,25.6,13.5
	c20.8,8.1,40.7,17.7,59.1,30.5c12.7,8.9,26.1,16.9,39,25.6c6.4,4.3,12.3,9.3,18.5,14c3,2.2,6.1,4.1,10.5,7
	c0.4-12.4,0.8-22.9,1.1-33.4c0-1.1-0.3-2.6-1.1-3.3c-7.6-6.6-14.7-14-23.1-19.3c-15.6-9.8-32-18.5-48.2-27.5
	c-12-6.6-24-13.2-36.4-19.1c-10.2-4.9-21-8.7-31.2-13.4c-1.8-0.8-3.9-4.6-3.3-6.1c1.3-3.4,4.5-4.4,8-2.1c1.1,0.7,2.4,1.3,3.6,1.8
	c21,8.1,41.5,17.1,60.8,28.9c8.6,5.3,17.5,10,26.3,14.9c4.5,2.5,9,4.9,13.4,7.5c10.4,6.3,20.8,12.8,31.8,19.6
	c1.5-8.4,2.8-16.3,4.3-24.2c0.5-2.7,0.4-6.2,4.8-5.7c4,0.5,6,3.3,5.3,7.3c-0.7,3.7-1.3,7.4-1.7,11.1
	C902.8,670.4,902.9,670.4,908.7,684.1z M964.1,1031.4c10.7-7.9,21.1-15.9,31.8-23.4c9.7-6.7,19.6-12.9,29.6-19.1
	c8.9-5.5,18.1-10.7,27.2-15.8c3.7-2.1,7.7-3.6,11.4-5.4c4.7-2.3,9.3-4.9,14.1-7c0.9-0.4,2.6,0.9,3.8,1.3c2.2-6.3,9.1-8.3,14.4-10.7
	c9.9-4.6,20.6-7.6,31-10.9c2.6-0.8,3.8-2,3.5-4.7c-1.1-9.7-1.7-19.5-3.2-29.2c-1.4-9.3-4.2-18.5-5.1-27.8
	c-2.9-28.8-5.2-57.7-7.6-86.6c-0.8-9.8-1-19.6-1.6-29.4c-1.1-18.9-2.3-37.8-3.1-56.8c-0.2-5.5-1.1-9.9-7.5-11
	c-11.1-2-22.3-3.8-33.3-6.1c-6.4-1.3-8-0.5-8,7.2c0,15.4-0.1,30.8,0.2,46.2c0.2,11.5,0.9,23.1,1.6,34.6c0.6,8.9,1.8,17.8,2.2,26.7
	c0.8,19.1,1.3,38.2,2,57.3c0.4,9.5,1.4,18.9,1.4,28.4c0.1,7.5-1,15-1.3,22.5c-0.2,5.1,0,10.2,0,14.3c-3.2,0.7-5,1.1-7,1.5
	c4.4,6.1,4.3,7.8-0.5,12.8c4.8,4.3,3.3,9.6-3.2,12.4c-7.8,3.3-15.5,6.8-23.2,10.3c-1.8,0.8-3.3,3.2-4.8,3.1
	c-8.2-0.7-11.3,7.3-17.5,10c-3.9,1.7-6.5,6.1-9.9,9.1c-6.1,5.6-12.4,11-18.5,16.5c-4.2,3.8-8,8.1-12.5,11.7
	C965.5,1017.4,960.9,1025.6,964.1,1031.4z M1023.7,901.1c-0.4-3.2-1-6.5-1.1-9.7c-0.3-13.6-0.5-27.2-0.8-40.8
	c-0.1-6.9-0.6-13.7-0.4-20.6c0.3-9.1,1.4-18.2,1.5-27.3c0.2-14.8-0.1-29.6-0.1-44.5c0-23.2,0-46.3,0.2-69.4c0.1-4.6-1.6-6.2-5.9-6.2
	c-5.9,0-11.7,0-17.6-0.2c-3.6-0.1-4.9,1.7-4.9,5c0.1,7.1,0,14.2,0.2,21.3c0.3,7.8,0.6,15.5,1.3,23.3c1.6,18.7,3.6,37.4,5.1,56.1
	c1.9,23.4,3.5,46.8,5.1,70.2c0.6,8.6,0.7,17.2,0.9,25.9c0.1,3.2-1.7,6.1-4.9,4.7c-3.2-1.4-7.2-2.9-6.5-8.5
	c0.8-7.1,0.8-14.4,0.4-21.6c-0.6-9.9-2.8-19.9-2.6-29.8c0.5-31.5-4.8-62.5-6.8-93.8c-0.8-13.1-1.5-26.1-2.3-39.2
	c-0.2-3.5-0.8-7.1-1.3-11.1c-2.7,0.7-4.9,2-6.9,1.7c-3.9-0.6-4.5,1.8-4.8,4.4c-0.3,2.8,0.1,5.8,0,8.6c-0.4,8.4-0.8,16.8-1.3,25.3
	c-0.1,1.3-0.6,2.7-0.8,4c-0.5,4.4-1.3,8.8-1.4,13.1c-0.2,5,0.4,9.9,0.3,14.9c-0.3,8.8-0.9,17.5-1.4,26.3c-0.7,13.4-1.2,26.8-2,40.2
	c-1,16.7-2.3,33.3-3.2,49.9c-0.3,5,0.6,10-4.4,12.2c0.9,5.4,2.7,10.3,2.2,14.9c-0.6,5.2,1.8,5.7,5.4,5.6c10-0.4,19.9-1.2,29.9-1.6
	c7.1-0.3,14.2,0.1,21.3-0.3C1019.3,904.2,1023.4,906.6,1023.7,901.1z M1055.3,376.2c0.8,0.1,1.6,0.1,2.4,0.2
	c0.2,3.6,0.7,7.2,0.7,10.8c-0.1,13.3-0.6,26.7-0.6,40c0,9.1,0.8,18.3,0.7,27.4c-0.2,15-0.7,30-1.4,45c-0.3,6.7,0.4,8.4,6.7,10
	c9.8,2.4,19.7,4.8,29.5,7.2c5.7,1.4,5.9,1.2,5.8-4.4c-0.3-13.8-0.9-27.5-0.9-41.2c0-11.3,0.9-22.7,1.1-34.1
	c0.1-6.3-0.9-12.6-1.1-18.9c-0.5-15-0.8-29.9-1.3-44.8c-0.1-1.5-1-3.8-2.2-4.3c-8.2-3.9-16.8-7-25.9-5.8c-4.5,0.6-8.7,3.8-12.8,6.2
	c-3.8,2.3-7.1,0.9-8.2-3.5c-0.5-1.8-1.7-4.2-3.1-4.7c-7.6-2.6-10.3-0.7-11.3,7.2c-0.2,1.4-0.3,2.8-0.3,4.1
	c-0.1,8.8-1.2,17.7-0.1,26.3c1,8.5-1,16.8-0.1,25.3c1,9.7-0.2,19.6-0.6,29.4c-0.3,7.2-1,14.4-1.1,21.6c-0.2,8.9-0.1,17.8-0.1,27.2
	c5.3,0.8,9.6,1.4,14,2c0.6-1.8,1.2-2.8,1.4-4c1.7-13.2,3.4-26.5,4.8-39.8c0.7-7,0.7-14.1,0.9-21.2c0.4-16.9,0.6-33.7,1.2-50.6
	C1053.6,384.5,1054.7,380.4,1055.3,376.2z M1144,936.1c8.7-2.1,16.5-4,24.4-5.8c7.6-1.8,8.2-2,7.5-9.6c-1.4-14.4-3.6-28.8-5.1-43.2
	c-1.5-14.2-2.7-28.4-3.9-42.6c-1.2-14.4-2.1-28.9-3.6-43.3c-2.2-21.3-4.9-42.5-7.4-63.8c-0.6-5.6-0.8-10.8-7.1-13.9
	c-9-4.3-17.5-9.7-27.2-15.2c-0.7,3.3-1.4,5.2-1.4,7.2c0.5,16.8,1,33.6,1.8,50.4c0.3,6.5,1.6,13,2.2,19.5c1.3,13.7,2.7,27.4,3.7,41.2
	c1.2,15.3,1.8,30.7,3,45.9c0.7,8.4,2,16.8,3.4,25.1c1.6,9.6,3.5,19.2,5.4,28.8C1140.9,923,1142.5,929.2,1144,936.1z M266.7,233.2
	c1.3,0.9,2.1,1.6,2.9,2.1c12.4,7.1,24.7,14.2,37.1,21.4c3.2,1.9,6.3,4.1,9.6,6c5.6,3.2,11.6,5.8,17,9.3c7.1,4.5,13.7,9.9,20.8,14.4
	c6.9,4.4,14.4,7.8,21.2,12.3c12.2,8.1,24,16.7,36.1,25c10,6.9,20.3,13.3,27.2,23.9c3,4.6,7,9.2,11.7,12c9.4,5.7,16.5,13.6,23.8,21.2
	c8.2,8.6,15.6,18,23.3,27.1c0.6,0.7,1.4,1.3,2.1,2c0.5-0.3,1-0.7,1.5-1c-3.1-5.3-6.2-10.6-9.2-16c-3.8-7-6.9-14.5-11.4-20.9
	c-8.9-12.7-18.6-24.8-28.1-37.1c-1.1-1.5-2.8-2.5-4-3.9c-5.1-6.5-9.5-13.7-15.4-19.4c-9.7-9.5-20.1-18.1-30.5-26.8
	c-6-5.1-12.5-9.5-18.8-14.4c-8.2-6.4-16.2-13.1-24.5-19.3c-7-5.1-15.1-8.9-21.5-14.6c-7.4-6.5-15.4-11.6-24.3-15.3
	c-3.5-1.5-7.8-2.7-11.3-2C289.8,221.5,277.6,224.9,266.7,233.2z M374,351.4c2.5,0.4,5.1,0.7,7.6,1.2c4.2,0.9,8.9,5.5,7.8,8.2
	c-1.7,4.4-5.6,3.9-9.6,3.9c-9.5-0.1-19.2-2-28.5,2.2c-5.5,2.5-6.2,3.4-2.3,7.8c5.1,5.6,10.3,11.1,15.5,16.6
	c-1.8,2.3,0.3,7.4,3.1,9.2c3.3,2.1,7.4,4.1,9.2,7.2c1.7,3.1,1.5,6.5,5.5,8.8c2.8,1.6,4,5.9,5.9,9c0.7,1.2,1.6,2.2,2.2,3.5
	c3.2,6.3,6.6,12.6,9.6,19c3.1,6.5,6.3,13,8.6,19.8c2.9,8.5,4.9,17.2,7.3,25.8c2.8,9.8,5.6,19.6,8.3,29.4c1.4,5.3,2.5,10.6,4,15.9
	c0.2,0.9,1.3,1.6,1.9,2.5c0.4-0.2,0.8-0.3,1.2-0.5c-0.8-4-1.2-8.1-2.6-11.9c-3.6-10.3-5.3-20.9-6.3-31.8c-0.8-9.2-1.6-18.5-2.2-27.7
	c-0.9-13.4-2.5-26.9,0.8-40.2c0.8-3.3,2.1-6.8,1.8-10.1c-0.8-8.5,1.6-14.9,10.7-18.5c0.3,1.5,0.8,2.8,0.7,4
	c-0.1,2.4-0.6,4.7-0.7,7.1c-0.4,9.1-0.2,18.2-2.9,27.1c-2.5,8.1-0.4,16.1,1.6,24.2c6.7-2.3,6.4-7.2,6.4-12.1c0-6.6,1.3-8.2,6.6-8
	c5,0.2,5.2,4.2,5,7.9c-0.3,6.5-1.1,13-1.3,19.5c-0.2,5.6,0,11.2,0,16.8c0.6,0.1,1.2,0.1,1.8,0.2c2.2-21,4.2-42,13.1-62.1
	c-1.6,0.2-2.3,0.2-2.8,0.4c-5.5,2.2-9.6,0-11.8-5.4c-3.2-7.6-1.3-16.2,5.2-23.3c1.1-1.2,1.9-4.3,1.2-5.1c-3.3-3.8-6.8-7.8-11-10.4
	c-3.5-2.2-8.2-2.5-12.3-3.6c-10.3-2.9-20.6-5.7-30.8-8.6c-3.7-1-4.1-3.6-3.7-6.9c0.5-3.6,2.9-4.8,6.1-5c1.6-0.1,3.2-0.3,5.2-0.5
	C403.4,349.9,402.5,349.8,374,351.4z M581.2,375.2c0.6,0,1.3,0.1,1.9,0.1c3.8-7.9,10.4-14.6,10.6-24.1c0.2-9.1-0.5-18.3-0.3-27.4
	c0.3-11.2,1.3-22.3,1.6-33.5c0.4-16.2-1.5-32.4,2.3-48.5c0.5-2-0.9-5.1-2.5-6.7c-2.1-2.1-5.1-3.4-7.8-4.8
	c-8.2-4-14.6-10.1-20.3-17.2c1.2-1.9,2.1-3.7,3.3-5.4c5-6.7,9.6-8.2,17.8-6.4c3.5,0.8,7.2,1.1,10.8,0.7c1.6-0.2,3.8-2.3,4.2-3.9
	c1.1-3.8,1.2-7.8,1.8-11.8c2-13.1-0.2-15.7-13.7-16.3c-0.9,0-1.7-0.1-2.6-0.1c-12.4,0.3-24.9,0.5-37.3,1.1c-7,0.3-13.9,1.4-21.5,2.2
	c0.9,2.2,1.4,3.5,1.9,4.6c5.4,12.3,11.3,24.5,16.1,37c3.4,8.9,5.5,18.4,8,27.6c2.4,9.1,4.3,18.4,7.1,27.5c2.3,7.8,2,15.9,5.1,23.9
	c4.2,11,4.8,23.4,6.7,35.2C576.8,344.6,579,359.9,581.2,375.2z M1108,667.7c0-4.6,0.2-8.8,0-12.8c-0.9-19.3-1.9-38.6-2.9-57.8
	c-1-19.8-1.8-39.6-2.9-59.4c-0.1-1.5-1.3-3.8-2.6-4.3c-13.6-5.7-28.1-6.4-44-8.2c0,11-0.3,21.3,0.1,31.5c0.6,15.1,1.8,30.2,2.6,45.3
	c0.8,15.7,1.5,31.3,2.1,47c0.4,10.9,0.3,10.9,10.8,12.7C1083.3,663.5,1095.3,665.6,1108,667.7z M1023.3,361.9
	c-16.2-2.4-31.8-1-47.3,1.7c-1.1,0.2-2.4,2.6-2.5,4.1c-0.2,6.6,0,13.3,0.2,20c0,1.2,0.5,2.3,0.7,3.5c0.4,2.5,0.7,5.1,1,7.6
	c1,8.7,2.1,17.4,2.8,26.1c0.6,7,1.1,14,1.2,21.1c0.1,7.9-0.5,15.8-0.4,23.8c0.2,9.4,0.8,18.8,1.5,28.2c0.1,1.5,1.9,4.2,2.9,4.2
	c11.4,0.1,22.8-0.2,34.2-0.7c1.2,0,3.1-2.1,3.4-3.5c0.8-3.7,1.2-7.5,1.2-11.3c0.5-23.4,1-46.8,1.3-70.3c0.2-14-0.1-27.9-0.2-41.9
	C1023.3,370.4,1023.3,366.2,1023.3,361.9z M1034.2,683.3c-0.2,1.7-0.6,3-0.6,4.3c-0.3,17-0.7,34-0.8,50.9
	c-0.1,11.6,0.2,23.1,0.2,34.7c0,12.7-0.2,25.4-0.4,38.2c0,2.4,0,4.8-0.1,7.3c-0.2,13.9-0.7,27.8-0.7,41.8c0,19.2,0.5,38.5,0.6,57.7
	c0,3.3,0.1,6.9-1.3,9.7c-1.4,2.9-4.2,6.5-6.9,7c-3.8,0.6-4-3.3-4-6.8c0.1-2.6-1-5.3-1.7-8.4c-1.3,0.6-2.5,0.9-3.3,1.6
	c-3.2,2.8-6.7,5.4-9.5,8.6c-6.7,7.4-13.3,15-19.6,22.8c-1.6,2-1.1,5.2-5,6.2c-1.8,0.5-3.1,4.2-3.9,6.8c-1.6,5-2.5,10.2-4.3,15.1
	c-0.5,1.4-3,2-4.1,2.8c-0.4,2.4-0.7,5.1-1.2,7.8c-0.4,2.4-1.1,4.7-1.2,7.1c-0.1,1.1,0.7,2.6,1.6,3.3c0.4,0.3,2.1-0.6,3-1.2
	c7-5.7,13.9-11.5,20.9-17.2c2.6-2.1,5.5-3.9,8.3-6c9.6-7.2,18.6-15.2,29.5-20.7c8.3-4.2,15.7-10.3,23.5-15.7c0.5-0.3,0.7-1.1,1-1.7
	c-4.6-5.6-4.9-6.6-5-13.1c0-0.6-0.3-1.2-0.7-1.7c-4.2-5.7-4-8.9,0.3-12.5c-0.8-2.6-1.9-4.6-1.9-6.7c-0.1-10,0.4-19.9,0.2-29.9
	c-0.3-14.4-1.1-28.8-1.6-43.2c-0.1-2.9,0.2-5.8,0.2-8.7c0-7.4-1.2-14.9,0-22.1c3.2-18.6,2.4-37.2,2.4-55.8c0-15.1-1.5-30.3-2.2-45.4
	C1045.3,687.3,1044.4,685.8,1034.2,683.3z M960.9,691.3c-5.2,1.4-9.2,2.3-13,3.6c-1.2,0.4-2.6,1.8-3,3c-1.1,3.2-2.1,6.6-2.4,9.9
	c-0.9,11.2-0.9,22.6-2.3,33.8c-2.3,18.2-5.6,36.3-8.1,54.5c-1.8,13.5-3.8,27-4.1,40.6c-0.5,20.6-2.9,40.9-7.3,61
	c-2.1,9.4-0.5,11.3,8.5,9.8c0.5-0.1,1,0.1,1.6,0.1c6.4-0.7,12.9-1.4,19-2c0.4-4,0.7-7.3,1-10.7c1.3-17.3,2.6-34.6,3.8-51.9
	c1.4-20.7,3-41.3,4-62c1.1-22.4,1.7-44.8,2.3-67.2C961.1,706.3,960.9,699,960.9,691.3z M1021.6,552.1c-0.3,0-0.7,0-1.1,0
	c0-8.1,0-16.2,0-24.3c0-3.3-1.3-5.3-4.8-5.5c-8.8-0.5-17.5-0.7-26.3-1.4c-5-0.4-5.6,1.9-5.3,6.2c0.5,8.7,1.1,17.5,0.4,26.2
	c-0.8,10.2-0.8,20.2,1.6,30.2c1.6,6.7,2.9,13.5,3.5,20.3c1,10.8,1.4,21.6,1.9,32.3c0.3,6.2,0.4,12.4,0.4,18.6
	c0.1,3.9,1.7,5.7,5.7,5.3c4.6-0.4,9.3-0.6,13.9-0.9c8.7-0.6,13.6-0.6,10.4-11.5c-0.1-0.3,0-0.7,0-1c-0.2-15.7-0.4-31.3-0.5-47
	C1021.6,583.8,1021.6,568,1021.6,552.1z M544.8,457.7c0.8-2.4,1.4-3.2,1.3-3.9c-1-7.9-1.6-15.9-3.3-23.6
	c-3.3-14.9-8.9-29.1-15.4-42.9c-4.1-8.7-8.4-17.3-12.6-26c-6.7-13.8-12.6-28-20.3-41.2c-11-18.9-23-37.2-35.4-55.3
	c-4.8-6.9-11.8-12.2-17.5-18.6c-7.3-8.2-14-16.8-21.4-24.9c-8-8.7-16.4-17.1-26.7-23.2c-5.6-3.3-17.8-3-23.9,1.7
	c3.5,2.7,7.1,5,10.1,7.9c9.1,8.8,18.3,17.5,26.9,26.8c14.2,15.5,28,31.5,41.7,47.4c4.9,5.7,9.1,12,13.5,18.2
	c8.2,11.3,16.6,22.5,24.4,34.1c5.6,8.3,10.5,17,15.5,25.7c2.9,5,5.5,10.3,8,15.5c2.5,5.4,4.6,10.9,6.9,16.4c1.2,2.8,2.1,5.7,3.4,8.4
	c3,6.3,6.4,12.4,9.1,18.8c3.6,8.3,6.8,16.9,10.2,25.3C540.9,448.4,542.6,452.4,544.8,457.7z M1022.2,290.6c0.2,0,0.5,0,0.7,0
	c-0.2-3.6-0.3-7.2-0.5-10.9c-0.4-8.1-2-9.9-10.4-9.5c-12.9,0.7-25.8,1.7-38.6,3c-1.5,0.2-3.9,2.6-4,4.1c-0.5,6.7-0.4,13.4-0.3,20.2
	c0.2,16.2,0.7,32.3,0.7,48.5c0,5.8,2.1,8.2,7.9,7.6c3.6-0.4,7.1-1.3,10.7-1.5c10.1-0.6,20.2-0.9,30.2-1.7c1.6-0.1,4.3-1.8,4.4-3
	c0.6-10.5,1.2-21,1-31.5C1023.9,307.4,1022.8,299,1022.2,290.6z M548.7,988.8c0.2-0.7,0.4-1.3,0.6-2c-2.8-1.6-5.4-3.4-8.3-4.6
	c-10.4-4.1-20.9-7.9-31.3-11.9c-4.3-1.7-8.6-3.5-12.8-5.4c-10.3-4.6-20.6-9.2-30.7-14c-5.4-2.5-10.5-5.5-15.7-8.4
	c-5.5-3.1-11.2-6.1-16.3-9.8c-5.9-4.3-11.2-9.3-16.7-14.2c-5-4.4-10-8.8-14.5-13.6c-3-3.2-5.1-7.2-7.9-10.6
	c-2.9-3.4-7.1-6.1-9.1-9.9c-5.8-11.1-10.7-22.7-16-34.1c-0.8-1.7-1.8-3.3-3.3-5.9c-6.3,15-6.4,28.8-0.2,42.2
	c6,12.9,13.5,24.9,24.6,34.4c9.6,8.2,18.2,17.4,27.7,25.8c18.9,16.8,41.6,26.1,65.8,31.8c12.9,3,26.2,4.6,39.3,6.7
	C532,986.5,540.3,987.6,548.7,988.8z M373.9,953.3c-0.5-1.8-0.5-2.4-0.7-2.7c-5.1-5.5-10.2-10.9-15.3-16.4
	c-9.9-10.6-19-21.9-23.7-35.8c-2.4-7.1-4.6-14.4-5.6-21.8c-0.4-2.8,2-7.1,4.4-9.1c4-3.3,6.9-1.3,7.2,3.8c1,17.4,7.5,32.6,18.6,45.9
	c8.9,10.6,17.6,21.5,29.3,29.2c8,5.3,16.7,9.5,25.1,14.2c0.3-0.5,0.7-1,1-1.5c-0.5-0.8-0.9-1.6-1.6-2.2c-4.2-3.6-8.7-6.8-12.6-10.6
	c-15.1-14.4-30.4-28.6-40.4-47.3c-4.7-8.7-8.6-17.8-8.9-27.7c-0.5-16.5,2.3-32.5,10.2-47.4c1.9-3.6,1.5-8.3,2.1-12.6
	c-0.6-0.4-1.2-0.8-1.8-1.2c-4.5,1.5-9.4,2.2-13.4,4.6c-15.2,9.1-26.9,21.7-33.5,38.1c-2.7,6.7-3,14.4-4.3,21.6
	c-1.3,6.9,2.2,12.7,4.7,18.7c4.2,10,7.9,20.2,16.2,27.6c8.3,7.4,16.5,14.9,25.2,21.7C361.2,946.8,367.3,949.5,373.9,953.3z
	 M338.6,946.2c0.3-0.3,0.6-0.6,1-0.9c-0.7-1-1.1-2.2-2-2.9c-2.5-2.2-5.2-4-7.6-6.2c-15-13.8-24.7-31.2-30.4-50.4
	c-2.2-7.4-0.2-16.3,0.7-24.4c1.8-17.1,12.5-29.4,23.6-41.2c6.5-7,14.1-13,21.4-19.6c0.2,0.1-0.2-0.3-0.7-0.4
	c-0.8-0.2-1.7-0.2-2.5-0.1c-8.3,0.9-16.6,2.1-25,2.9c-15.9,1.6-28.3,9-37,22.3c-8.6,13.3-14.2,27.3-12,43.7
	c1.2,9.3,4.1,17.9,8.5,26.1c4.4,8.2,9.2,16.4,16.8,22c9.2,6.7,18.9,12.7,28.5,18.9C327.3,939.4,333,942.7,338.6,946.2z M663.7,992.7
	c-0.1,0.4-0.1,0.8-0.2,1.2c1.2,0.6,2.3,1.4,3.5,1.6c20.9,3.4,41.8,7.5,63,1.1c22.9-6.9,46.1-12.9,68.5-21
	c17.5-6.3,34.2-15.1,51.2-22.8c3.8-1.7,9.3-2.7,10.7-5.6c2.4-4.8,2.2-11,3.2-17.6c-8.8,2.3-15.9,4.2-23,6
	c-20.9,5.3-40.7,13.1-60.3,22.2c-28.5,13.3-59.4,20-89.5,28.7C681.9,989.2,672.7,990.7,663.7,992.7z M324.2,212.1
	c0,0.6-0.1,1.2-0.1,1.8c5.3,3.7,10.7,7.3,15.9,11.1c8,5.8,15.8,11.8,23.8,17.6c5.1,3.8,10.4,7.3,15.4,11.2c1.8,1.4,2.6,4.2,4.5,5.5
	c6.5,4.5,13.5,8.2,19.7,13.1c6.8,5.4,13,11.6,19.5,17.5c9.8,9,19.8,17.8,29.2,27.2c4.5,4.6,7.3,10.8,11.5,15.7
	c7.5,8.7,15.6,16.9,23.4,25.3c-3.2-8.2-7.1-16.2-11.7-23.6c-5.1-8.3-10.8-16.2-16.6-24.1c-8.8-12-17.7-24-27.1-35.4
	c-7-8.4-14.9-16-22.4-24c-8.3-8.8-16.3-18-25-26.5c-6.9-6.7-14.8-12.3-21.8-18.8c-3.2-3-6.5-3.7-10.3-2.7c-4.8,1.2-9.7,2.5-14.4,4
	C333,208.5,328.6,210.4,324.2,212.1z M658.7,1018c10.6,8.9,22.3,15.9,35.4,19.1c13,3.2,26.2,5.7,39.5,7.2c8.7,1,17.8,0.8,26.3-0.8
	c17.3-3.2,33.7-9.1,50-16.1c18-7.8,36.8-13.8,53-25.6c7.6-5.5,15.3-10.5,21.9-17.3c2.8-2.9,3.4-5.5,3.7-8.8c0.2-2.1,0.7-4.2,1.3-7.4
	c-3,1.2-5.8,1.9-8,3.4c-8.6,5.7-16.7,12.2-25.6,17.3c-4.2,2.3-8.9,3.8-13.3,6.2c-11.2,5.8-23,10.8-34.8,15.3
	c-11.6,4.5-23.2,9.4-35.3,11.8c-15.5,3-31.4,4.5-47.2,5.1c-11.1,0.4-22.3-1.3-33.4-2.9C680.8,1022.9,669.8,1020.2,658.7,1018z
	 M555.4,429.6c0.7-1.2,1.3-1.8,1.5-2.6c2.5-10.9,0.2-21.4-3.4-31.6c-1.9-5.5-4.5-10.8-6.3-16.3c-2-6-2.8-12.5-5.2-18.4
	c-10.5-26-23.4-50.8-39.7-73.7c-3.4-4.8-6.7-9.6-10-14.4c-2-2.9-4-5.7-5.8-8.7c-4-6.8-8.2-13.2-14.6-18.2c-4.5-3.5-7.7-8.6-11.4-13
	c-4.2-4.9-8.1-10.1-12.7-14.6c-8.1-8.1-16.6-15.7-24.8-23.7c-6.6-6.4-8.1-6.9-16.2-3.5c-1,0.4-2,1.4-2.2,2.4
	c-0.2,0.6,0.9,1.8,1.7,2.3c2.4,1.6,5.3,2.6,7.4,4.6c5,4.9,9.5,10.1,14.2,15.2c11,12.1,22.1,24.2,33,36.4c3.9,4.3,7.5,8.9,10.9,13.6
	c5.5,7.9,10.7,16,16,24c6.3,9.7,13.5,18.9,18.8,29.1c8.9,17.2,16.8,34.8,24.8,52.5c6.6,14.5,12.7,29.3,18.9,44
	C551.8,419.5,553.4,424.3,555.4,429.6z M995.2,169.3c-6.9,0.8-15.1,1.7-23.3,2.8c-1,0.1-2.4,1.4-2.6,2.3c-0.6,2.1-0.8,4.4-0.8,6.6
	c0.1,11.9,0.4,23.8,0.6,35.7c0.1,9.6,0.1,19.2,0.2,28.7c0,3.9,0.5,6.5,5.9,5.4c7.2-1.5,14.7-1.5,22-2.5c4.9-0.6,9.8-1.6,14.7-2.8
	c1.2-0.3,2.6-1.8,2.8-2.9c0.6-3,0.9-6.2,0.6-9.2c-1.4-17.3-2.7-34.6-4.4-51.8c-1.1-11.4-1.4-11.3-12.7-12.1
	C997.6,169.5,997.1,169.5,995.2,169.3z M887,808.1c0.5,1.8,1.5,3.5,1.4,5c-1.2,12.3-2.8,24.6-4.1,36.9c-1.9,18.7-3.7,37.5-5.5,56.2
	c-0.3,2.8-0.8,5.7,3.4,6.2c7,0.9,11.1-0.6,11.6-4.8c1.7-13.7,3.3-27.3,4.9-41c0.3-2.4,0.5-4.8,0.8-7.2c1.8-12.1,4.1-24.1,5.5-36.2
	c1.6-13.8,2.6-27.6,3.8-41.5c0.2-2.7,0.3-5.4,0.5-8.2c0.8-11.2,1.9-22.3,2.2-33.5c0.3-10.6,0.1-21.3-0.7-31.9
	c-0.2-2.2-3.8-4.1-5.8-6.2c-1,1.6-2.4,3-2.8,4.8c-1.6,7.4-3.1,14.8-4.2,22.2c-2.3,15.2-4.4,30.4-6.3,45.6c-0.9,7-0.8,14.1-1.6,21.1
	C889.7,799.9,888.1,804,887,808.1z M1133.1,532.2c0-10.1,0.6-19.4-0.1-28.6c-1.4-17.5-3.9-34.9-5.3-52.4c-0.9-11.2-0.7-22.4-1-33.6
	c-0.3-12.4-0.7-24.8-1.2-37.2c0-1-0.8-2.5-1.7-2.8c-3.8-1.5-7.7-3-11.7-4c-0.9-0.2-3.2,1.4-3.3,2.4c-0.7,4.2-1.1,8.5-1,12.8
	c0.3,11.4,1.2,22.7,1.2,34.1c0,9.8-1.5,19.7-1.2,29.5c0.8,22,2.2,44.1,3.6,66.1c0.1,1.9,1.4,4.7,2.9,5.5
	C1120.2,527,1126.4,529.4,1133.1,532.2z M355.6,435.6c-4.2-4.3-7-8.1-10.6-10.7c-5.4-3.8-11.8-6.2-17-10.1c-6-4.5-12.7-7.3-19.8-8.7
	c-10.8-2.1-21.6-3.6-32.5-5.3c-3.7-0.6-7.6-0.5-11.3-1c-14.4-2.1-28.8-4.4-43.2-6.5c-3.1-0.5-4.2,1.2-3,4.1
	c3.3,7.7,9.1,13.7,16.2,17.2c14,7,28.7,12.7,44.5,14.8c11.5,1.5,23,2.6,34.4,4.1c2.2,0.3,4.3,1.4,6.2,2.1
	C330.9,435.6,342.3,435.6,355.6,435.6z M1297.1,1040.2c0.3,0.2,0.6,0.5,1,0.7c0.6-0.3,1.2-0.5,1.7-1c7.4-7.6,14.9-15.1,22.3-22.7
	c4.4-4.5,10-8.4,13-13.7c5.4-9.9,13.3-17.5,20.7-25.5c1.9-2,3.7-4.1,5.2-6.3c6-8.8,11.7-17.8,17.8-26.4
	c13.1-18.3,26.4-36.4,39.7-54.5c5.6-7.6,11.7-14.8,17.2-22.5c8.5-11.9,16.5-24.1,24.9-36.1c9.4-13.3,19.4-26.2,28.3-39.8
	c11.4-17.4,22.7-34.8,37.1-50c1.6-1.7,3.8-3.6,4.2-5.7c0.6-2.4,0.1-5.4-1.1-7.6c-0.5-0.9-4.2-0.9-5.9-0.1c-2.2,1-4.2,2.9-5.7,4.9
	c-5.7,7.6-11.5,15.2-16.8,23.1c-6.7,10.1-12.7,20.7-19.3,30.8c-5.7,8.8-12,17.2-17.9,25.9c-5.5,8-10.9,16.1-16.2,24.3
	c-5.4,8.2-10.4,16.7-15.9,24.9c-4.1,6.1-8.8,11.8-13.1,17.9c-6.3,9-12.3,18.1-18.4,27.2c-2.1,3.1-3.8,6.5-6.2,9.4
	c-10.3,12.8-21,25.3-31.1,38.3c-5.4,6.9-9.5,14.8-14.8,21.8c-7.3,9.7-15.1,19-22.8,28.4c-7.8,9.5-15.8,18.8-23.7,28.2
	C1299.7,1035.9,1298.5,1038.1,1297.1,1040.2z M562.9,342.7c0.4,0,0.9,0,1.3,0c0.1-1.5,0.3-3.1,0.2-4.5c-1.2-9.7-2.6-19.4-3.8-29.1
	c-0.5-3.6-0.2-7.5-1.4-10.7c-3.3-8.4-5.5-16.9-6.8-25.8c-1.5-9.6-5-18.9-6.8-28.5c-4.3-22.2-13.9-42.2-25.3-61.5
	c-6-10.1-10-11.4-21.7-8.1c-2.3,0.6-4.5,1.5-7.2,2.5c0.6,1.5,1.1,2.6,1.7,3.8c2.2,4.4,4.3,8.9,6.5,13.3c0.7,1.4,1.2,2.8,2,4.1
	c6.3,10.7,12.8,21.3,18.8,32.1c3.6,6.5,6.5,13.5,9.5,20.4c7.4,17,15.4,33.7,21.8,51.1C556.5,315,559.2,329,562.9,342.7z
	 M1097.5,354.5c0.7-5.8,1.4-10.6,1.8-15.3c1.1-11.8,1.8-23.7,3.2-35.5c0.8-6.9,2.7-13.7,3.8-20.6c0.2-1.5-0.6-4.5-1.6-4.7
	c-7.9-2.1-15.9-3.8-23.9-5.4c-3.1-0.6-5.3,1-5.9,4.3c-1.4,6.9-2.8,13.8-4.3,20.7c-0.8,3.5-2.1,6.9-2.4,10.4c-1,13.3-1.6,26.7-2.7,40
	c-0.3,3,0.4,4.4,3,4.6C1078.1,353.5,1087.6,354,1097.5,354.5z M1021.4,195.5c-0.3,0-0.6,0.1-0.9,0.1c1.9,15,3.8,30,5.9,45
	c0.2,1.5,2.3,3.7,3.8,3.9c5.5,0.7,11.2,0.7,16.8,1.1c3.5,0.3,5-1.4,5.5-4.6c0.9-5.4,2-10.8,2.9-16.2c2.4-13.9,5-27.7,7.2-41.6
	c1.1-6.7,0-8.2-6.4-9c-10.2-1.2-20.6-1.7-30.8-3.2c-5.4-0.8-5.7,1.5-5.4,5.5C1020.5,182.8,1020.9,189.1,1021.4,195.5z M701.5,275.8
	c-2.1-0.9-3.6-1.8-5.1-2.3c-8.3-2.6-16.7-5.1-24.9-7.8c-3.3-1.1-6.3-0.9-8.1,2.2c-2.8,4.9-5.4,9.9-7.7,15c-1.6,3.7-2.5,7.7-3.8,11.6
	c-2.7,7.5-5.5,15-8.1,22.5c-2.4,7.2-4.7,14.3-6.5,21.7c-2.5,9.8-7.4,19.5-4,30.4c10.2-16.5,19.3-33.4,30.5-48.8
	C675.1,304.9,688.5,291,701.5,275.8z M607.5,240.3c-1.2,10-2.7,18.6-3,27.2c-0.3,10,1.9,20.2,0.5,30c-1.4,10.2-1.2,20.1-0.7,30.2
	c0.2,2.6,0.9,5.2,1.4,7.8c2.4-3.3,3-6.6,4.7-9.2c6.8-10.4,14.1-20.5,21-30.8c6.2-9.2,14.4-17.2,16.8-28.7c1.2-5.6-0.2-8.9-5.8-11
	c-4.8-1.8-9.6-3.7-14.3-5.8C621.6,247,615.4,244,607.5,240.3z M1109.2,254.9c1.4-0.7,3.9-1.1,4.7-2.5c2.2-3.8,3.7-8.1,5.5-12.2
	c2-4.5,4-9,5.9-13.6c3.4-8.3,6.8-16.6,10.1-25c0.3-0.7-0.5-2.5-1.2-2.8c-8.4-4.1-15.8-10.2-25.6-11.3c-6.7-0.8-7.1-0.8-8.7,6
	c-1.5,6.3-1.7,13.4-4.9,18.7c-6.5,10.6-7.4,22.3-9.4,33.9c-0.2,1.2,0.7,3.5,1.5,3.7C1094,251.6,1101.2,253.1,1109.2,254.9z
	 M1032.4,659.2c3.5,0,6.8-0.2,10,0.1c4.1,0.3,5.7-1.3,5.8-5.3c0.2-8.6,0.6-17.2,0.8-25.8c0.2-6,0.4-12,0.1-18
	c-0.7-13.6-2.1-27.1-2.7-40.7c-0.6-13.9-0.6-27.9-1.1-41.8c-0.1-1.4-1.7-3.8-2.9-3.9c-3.4-0.5-7-0.2-10.7-0.2
	C1030.6,568.9,1031.2,613.6,1032.4,659.2z M857.1,964.5c-2.1,0.8-4.1,1.3-5.9,2.1c-7.7,3.3-15.3,7.1-23.1,10
	c-19.7,7.3-39.4,14.5-59.2,21.2c-21.9,7.4-43.9,14.6-67.5,14.6c-0.5,0-1,0.6-2.7,1.6c3.8,0.8,6.5,1.8,9.1,1.9
	c14,0.2,28,0.9,41.8-0.2c11.3-0.9,22.7-3,33.4-6.6c14.8-4.9,29.2-11.3,43.4-17.8c9.4-4.3,19.9-6.6,27.7-14.3
	C857.7,973.4,858.9,969.7,857.1,964.5z M946.2,667.8c4.5-1.3,7.7-2,10.7-3.3c1.6-0.7,3.5-2.4,3.8-3.9c1.1-6.6,1.9-13.3,2.2-20
	c0.6-12.6,0.7-25.2,1-37.8c0.1-2.8,0.6-5.5,0.6-8.2c-0.2-17-0.6-34.1-0.8-51.1c-0.1-6,0-11.9,0-17.8c-9.9,0-10.5,0.6-10.8,8.7
	c-0.5,11.3-1.2,22.6-1.7,33.9c-0.7,13.9-2.3,27.8-1.6,41.7c0.6,12.1-0.5,24-1.5,35.9C947.5,652.7,946.9,659.7,946.2,667.8z
	 M476.9,801.4c-1.4-3.8-1.7-8.9-4.3-11.4c-7.1-6.7-14.7-13.3-23.1-18.2c-9-5.3-19.4-6.8-30.2-7.3c-11.7-0.5-18.6,6.8-27.8,12.1
	c2.9,1.4,4.8,2.6,6.9,3.4c10.2,4,20.2,8.7,30.7,11.8c9.7,2.9,19,5.4,27.7,11.7C464.3,809,469.7,809.1,476.9,801.4z M369.5,421.5
	c0.5-0.5,1.1-1,1.6-1.5c-1-1.8-1.8-3.6-3-5.2c-5.8-7.9-11.6-15.7-17.4-23.5c-0.6-0.8-1.3-1.4-2-2.1c-4.3-4.2-8.7-8.3-13-12.5
	c-1.3-1.2-2.5-2.7-3.9-3.7c-5.2-3.7-10.3-7.5-15.8-10.6c-4.6-2.6-9.6-4.8-14.7-6c-9.9-2.2-19.4,1.3-28.8,3.8
	c-2.4,0.6-4.6,1.5-8.5,2.9c5.1,2.9,8.7,5.1,12.4,7c7.7,3.8,15.1,8.4,23.2,10.8c9.2,2.7,18.4,4,26.3,10.7c5.7,4.9,13.6,7.2,20.4,11
	c3.1,1.7,6,3.9,8.8,6.2C360,412.9,364.7,417.3,369.5,421.5z M751.9,241.6c-3.2-1-4.3-1.5-5.4-1.6c-8.2-1.2-16.3-2.5-24.5-3.6
	c-8.9-1.2-17.8-2.2-26.7-3.1c-1.4-0.1-3.5,0.5-4.4,1.5c-4.3,5.1-8.3,10.4-12.3,15.8c-3,4-2.5,5.4,2.4,6.7
	c12.6,3.5,25.3,6.3,37.7,10.6c6.1,2.1,9.7,0.3,13.3-3.8c1.5-1.6,3.1-3.2,4.6-4.8C741.4,253.8,746.2,248.2,751.9,241.6z
	 M920.9,1130.2c1.7,3.9,3,7.7,5.1,11.2c0.6,0.9,3.9,1.4,4.9,0.7c4.6-3.6,8.9-7.6,13.2-11.5c6.1-5.4,11.9-11,18.2-16.1
	c5.7-4.6,11.8-8.6,17.8-12.8c2.6-1.9,2.3-5-0.5-7.8c-2.1-2.1-4-4.6-5.8-7c-2.4-3.2-4.5-6.7-7-9.8c-0.5-0.7-2.3-1-3.2-0.7
	c-6.6,2.2-11.2,6.9-14.9,12.4c-3.2,4.7-5.8,9.9-9.1,14.5c-4.3,5.8-9.3,11.1-13.6,16.9C923.8,1122.9,922.7,1126.4,920.9,1130.2z
	 M1185.3,574.2c0.5,0,0.9,0,1.4,0c0.2-1.6,0.6-3.2,0.6-4.8c0.3-6.9,0.4-13.8,0.7-20.7c0.5-11.8,1.2-23.7,1.6-35.5
	c0.6-17.7,0.5-35.5,1.6-53.2c1.8-29.2,4.2-58.4,6.6-87.6c0.3-3.1,2.2-6.1,3.7-8.9c1-1.9,2.9-3.4,4-5.3c0.6-1,0.8-2.9,0.2-3.8
	c-0.5-0.7-2.8-1.2-3.5-0.7c-2.9,2.2-6.3,4.3-8.2,7.3c-2.2,3.5-3.2,7.9-4.3,12c-1.3,4.9-2.8,9.9-3.2,15c-0.6,8.6-0.1,17.2-0.4,25.8
	c-0.4,11.3-1.2,22.6-1.5,34c-0.3,11.5,0.1,23-3.2,34.3c-1.5,5.3-1.8,11.2-1.5,16.8c0.7,15.8,2,31.6,3.1,47.4
	C1183.8,555.6,1184.6,564.9,1185.3,574.2z M794.4,936.6c-53.2,9.4-104.9,24.4-155.7,44.6C662.3,985.5,775.7,953.8,794.4,936.6z
	 M431,184.7c5.1,10.9,13.7,17.5,21.3,24.9c4.1,4.1,8.6,7.9,12.5,12.2c5.6,6.2,10.8,12.8,16.3,19.1c2,2.3,4.8,4,6.7,6.4
	c5.5,7.3,10.7,14.8,16,22.2c3.2,4.6,6.4,9.2,9.6,13.8c0.4-0.3,0.8-0.5,1.2-0.8c-0.7-1.5-1.3-3.1-2-4.6c-4.4-8.8-8.6-17.7-13.3-26.3
	c-6.1-11.1-12.3-22.1-19.1-32.8c-4-6.3-9.1-11.8-13.7-17.7c-4.4-5.7-8.7-11.5-13.3-16.9c-1-1.2-3.3-1.8-5-1.7
	C442.7,182.9,437.2,183.8,431,184.7z M1394.1,871.9c-0.5-0.3-1-0.6-1.5-0.9c-38.9,53.1-80.7,103.7-130.1,147.8
	c9.8,7.1,11.8,7.2,17.6,0.8c9.4-10.6,19-21.1,28-32c13.9-16.7,28.6-32.9,39.8-51.8c3.4-5.9,8-11,12.2-16.5
	c9.8-12.9,19.8-25.8,29.5-38.8C1391.5,877.9,1392.6,874.8,1394.1,871.9z M274.1,336.5c0,0.5,0,1,0,1.5c9.9,1.9,19.1,6.7,29.9,4.9
	c20.1-3.3,40.3-5.1,60.7-4.1c4.5,0.2,9.1-0.6,13.6-1c0.2-0.6,0.4-1.2,0.6-1.7c-2.2-1.6-4.3-3.4-6.7-4.8c-5.8-3.4-11.5-6.8-17.5-9.8
	c-2.3-1.1-5.4-1.7-7.9-1.3c-9.8,1.5-19.7,3.3-29.4,5.4c-11.2,2.3-22.4,4.9-33.6,7.6C280.5,334,277.3,335.4,274.1,336.5z M1187.8,607
	c-0.6,0-1.3,0.1-1.9,0.1c0,8.6,0.1,17.2,0,25.7c-0.2,10.1-0.3,20.3-0.9,30.4c-0.6,9.8-2,19.5-2.6,29.2c-0.7,11.4-0.6,22.8-1.5,34.2
	c-0.7,9.1,0.6,18.7-4.1,27.3c-0.5,0.8-0.5,2-0.5,3c1,18.4,2,36.7,3.2,55.1c0.2,3,1,6,1.9,8.9c1,3.3,2.5,6.5,3.7,9.8
	c0.6,1.5,1,3.1,1.5,4.6c0.5,0,1-0.1,1.5-0.1c0.2-2.2,0.6-4.5,0.5-6.7c-0.6-8.8-1.9-17.5-1.9-26.3c0-19.5,0.7-38.9,1-58.4
	c0.2-11,0.4-22,0.6-33.1c0.3-13.8,0.9-27.6,0.9-41.4c-0.1-13.4-1-26.8-1.3-40.2C1187.6,621.7,1187.8,614.3,1187.8,607z M776.7,265.2
	c-0.7-2.8-2.4-6.2-1.6-7c1.5-1.5,4.5-2,6.9-2c12.3,0,24.7,3.3,37-0.3c3.3-1,9.1-3.2,9-4.6c-0.3-4.8-5.2-5-9.2-5.2
	c-5.7-0.3-11.4-0.1-17-0.7c-9.2-1-18.4-2.6-27.7-3.6c-3.2-0.3-6.3-0.4-9,3c-3.2,4.2-8.1,7-11.6,11c-4.6,5.1-8.6,10.8-13,16.3
	C755.5,279.9,764.3,274.2,776.7,265.2z M1034.7,349.8c4.2-0.4,7.7-0.8,11.4-1.2c0.5-7.7,1-15.2,1.5-22.6c1.1-15.8,2.4-31.7,3.2-47.5
	c0.3-7.2-0.3-7.4-7.5-7.8c-2.4-0.1-4.9-0.9-7.2-0.3c-1.7,0.4-4.3,2.3-4.4,3.6c-0.4,10.9-0.5,21.8-0.2,32.6
	c0.3,10.1,1.2,20.2,1.8,30.2C1033.8,341,1034.3,345.1,1034.7,349.8z M688.4,102.4c16.4,9.7,104.2,34.2,110.4,29.5
	c-1.6-1-3.2-2-4.8-2.9c-9-5.1-17.8-10.7-27.1-15.1c-10.2-4.8-21.1-8.1-31.3-12.9c-4.8-2.2-9.1-3.1-13.7-0.6c-4.8,2.6-9.9,2-15,2
	C700.7,102.4,694.6,102.4,688.4,102.4z M908,909c0.6-0.1,1.2-0.2,1.9-0.2c8.6-69.2,19.5-138.1,22.9-208.4c-1.5,0.8-2.6,1.9-3.5,1.8
	c-4.8-0.7-5.5,2.1-5.5,5.8c-0.2,8.8-0.3,17.6-0.8,26.4c-0.4,6-1.7,11.9-2.1,17.8c-0.7,9.5-0.9,19-1.6,28.5
	c-1.1,15.3-2.4,30.5-3.8,45.8c-1,10.1-2.5,20.2-3.5,30.3c-1.7,16.1-3.2,32.2-4.6,48.3C907,906.4,907.7,907.7,908,909z M902.3,581.8
	c-2.6,0.5-4.6,1.5-6.1,1c-3.1-1-5.9-2.8-8.7-4.4c-16.8-9.5-33.5-19.3-50.5-28.3c-10.6-5.6-22.2-9.4-32.8-15.1
	c-18.5-10-37.6-18.5-57.5-25.4c-10.5-3.6-20.7-8-31.1-11.9c-8.5-3.1-17.1-5.9-25.7-8.8c1.5,2.1,3.3,3.3,5.2,4.3
	c7.3,3.9,14.5,8.2,22.2,11.4c9.3,4,19,6.9,28.4,10.7c12.9,5.2,25.7,10.6,38.4,16.1c10.4,4.5,20.7,9.1,31,13.7
	c6.2,2.8,12.1,6.4,18.4,8.8c13.4,5,25.9,11.5,37.9,19.2c9,5.8,18.8,10.2,28.7,15.5C901.1,585.4,901.8,583.4,902.3,581.8z
	 M941.8,529.2c-1.3,1-2.9,1.5-3.2,2.4c-1.3,3.5-2.8,7.2-3.1,10.9c-1.3,14.2-2.3,28.5-3.2,42.7c-0.8,13-1.2,26-2,39
	c-0.9,14.6-2.2,29.2-3.2,43.8c-0.1,1.7,0.4,3.5,0.7,5.5c4.6-1.5,6.6-3.8,6.4-8.2c-0.1-2.3,0.8-4.7,1.4-7c0.9-3.8,2.4-7.6,2.6-11.5
	c1.1-26.2,2-52.3,2.9-78.5c0.3-7.8,0.6-15.7,0.8-23.5C941.9,539.8,941.8,534.9,941.8,529.2z M848.2,235.3c0.4-0.9,0.8-1.8,1.2-2.7
	c-2.4-2.7-4.4-5.8-7.3-7.9c-7.4-5.2-15.1-10.1-22.7-14.9c-6.4-4.1-7.1-3.7-12.5,1.4c-5.9,5.7-12.1,11-18.2,16.5
	c-1.7,1.5-3.1,3.2-4.7,4.9c2,0.3,3.9,0.9,5.9,1C809.5,234.2,828.8,234.7,848.2,235.3z M1118,283.5c-0.9,3.8-2,7.7-2.7,11.7
	c-1.7,10.1-3.7,20.3-4.7,30.5c-0.9,8.7-1,17.5-1,26.2c0,1.6,1.5,4.1,3,4.7c3.7,1.6,7.8,2.4,12.4,3.7c0.3-4.4,0.8-8.7,0.9-13.1
	c0.2-10.4-0.2-20.8,0.2-31.1c0.3-7.2,1.7-14.4,2.3-21.6C1129.3,285.2,1128.5,284.4,1118,283.5z M542.3,311.8
	c-0.3-1.8-0.4-2.6-0.7-3.3c-4.5-11.8-8.8-23.7-13.5-35.5c-3.7-9.4-7.7-18.7-12-27.8c-4.8-10.3-9.7-20.7-15.3-30.6
	c-5-9.1-11-17.7-16.6-26.5c-0.9-1.4-2.2-2.7-3.3-4c-4.7-5.7-8.7-6.7-16-3.6c2.5,3.9,4.8,7.9,7.6,11.4c8,10.1,16.9,19.5,22.6,31.4
	c4,8.4,9.8,16,14.2,24.2c3.3,6,4.5,13.5,8.7,18.5C529.6,279.3,531.8,296.9,542.3,311.8z M664.7,228.3c-11.1-3.1-21.2-5.9-31.4-8.7
	c-5.5-1.5-11-3-16.4-4.7c-4.9-1.6-6.6-1-7.8,4.1c-0.5,2.3-0.9,4.8-0.8,7.2c0,1.3,0.9,3.2,2,3.7c12,5.5,24.1,10.8,36.2,16
	c3.4,1.5,6.7,1.6,8.3-3.2c1,1.5,1.6,2.5,2.7,4C660,240.5,662.1,235,664.7,228.3z M919.8,1111.2c1.6-1.4,2.9-2.4,3.9-3.6
	c2.9-3.6,5.7-7.3,8.5-11c4.2-5.5,8.1-11.3,12.6-16.6c2.8-3.4,6.4-6.2,9.7-9.2c3.4-3.1,7.2-6.1,5.8-11.5c-0.8-2.9-2-5.6-3.1-8.5
	c-5.5,2.7-12.2,4.3-16.5,8.4c-4.8,4.6-9.2,9.3-14.6,13.5C916,1080.5,915.1,1100.9,919.8,1111.2z M1090.8,184.5
	c-0.8-0.8-2.2-2.9-4.1-4c-2.2-1.3-4.8-1.8-7.3-2.5c-3.6-0.9-5.5,0.1-6.4,4.3c-2.2,10.3-5.2,20.5-7.8,30.7c-0.2,0.8-0.2,1.7-0.2,2.5
	c-0.3,8.5-0.7,17-0.8,25.6c0,1.8,1.3,5.3,1.9,5.2c2.9,0,5.8-0.4,6.9-4.5c2.1-7.9,4.2-16.1,8-23.3
	C1086.4,208.4,1089.5,197.8,1090.8,184.5z M383.8,852.8c0.8,0,1.6,0.1,2.4,0.1c7.7-22.1,27.1-28.7,46.3-35.9
	c-4.6-1.8-9-3.6-13.5-3.9c-11.2-0.9-21.9,1.4-32.1,6.2c-10.5,4.8-11,4.7-8.9,16C379.1,841.3,381.8,847,383.8,852.8z M485.7,457.7
	c0,0.2,0,0.5,0,0.8c4.3,0,8.7,0.3,12.9-0.1c2.5-0.3,6.2-1.3,6.9-3c0.7-1.8-1-5.1-2.4-7.2c-2.7-4.1-6.1-7.8-9-11.8
	c-2.2-3-4-6.3-6-9.5c-2.1-3.4-9.2-3.3-11.2,0.9c-3.7,7.5-6.9,15.2-9.4,23.2c-1.6,5,0.4,6.7,5.8,6.9
	C477.4,457.7,481.6,457.7,485.7,457.7z M1530.5,713.2c-0.7-5-3.8-7.5-7.7-7.6c-9-0.3-18.1,6.6-22,14.7
	c-7.5,15.7-15.6,31.1-23.3,46.8c-3.1,6.3-6,12.8-9.1,19.2c0.4,0.3,0.8,0.6,1.2,0.8c0.8-0.4,1.8-0.7,2.2-1.4
	c4.1-6.1,8.1-12.3,12.1-18.4c2.2-3.4,4.6-6.7,6.8-10.1c7.5-11.5,15.4-22.7,22.2-34.6C1518.3,713.2,1519.9,711.6,1530.5,713.2z
	 M295.8,391.4c-1.9-1.2-2.4-1.6-3-1.9c-10.7-5.2-21.4-10.3-32.2-15.4c-4.8-2.2-10-6.2-14.6-5.7c-8,0.8-15.6,4.7-20.1,14.3
	C249,386.9,271.5,390.3,295.8,391.4z M751.4,1056.4c-39.5,0.1-74.9-8.4-106.8-29.9c2,3.3,3.8,7.1,6.8,9.2c7.9,5.6,13.2,14.7,24,16.5
	c5.7,0.9,11,4.4,16.7,5.6c10,2,20.1,3.1,30.1,4.6c1.2,0.2,2.4,0,3.6-0.2c7.1-1.2,14.3-2.4,21.4-3.7
	C748.1,1058.2,749,1057.5,751.4,1056.4z M976.3,555.4c-0.4,0-0.8,0-1.1,0c-0.6,6.4-1.7,12.8-1.7,19.2c-0.2,17.9,0.2,35.8,0.2,53.7
	c0,9.8-0.2,19.7-0.3,29.5c-0.1,2.9,1.5,3.9,3.8,3.2c1.8-0.5,4.8-1.8,4.8-2.9c0.3-11.3,0.1-22.6,0-33.9c-0.1-6.5-0.2-13.1-0.8-19.7
	c-1.3-14.9-3-29.7-4.5-44.6C976.4,558.5,976.4,556.9,976.3,555.4z M959.2,501.8c0.8-2.5,1.3-4.2,1.8-5.8c0.4-1.3,0.9-2.6,1-3.9
	c0.3-4.8,0.7-9.7,0.7-14.5c-0.1-21.9-0.2-43.8-0.4-65.7c-0.1-9.2-0.3-18.4-0.5-27.6c-0.4,0-0.9,0-1.3,0c-1.3,12-3.2,24-3.9,36.1
	c-0.6,9.9,0,19.8,0,29.8c-0.1,15.1-0.2,30.1-0.3,45.2C956.2,498.4,956.5,501.1,959.2,501.8z M951.9,237c0-14.6,0.1-28.5-0.1-42.4
	c-0.1-3.8-0.6-7.6-1.5-11.2c-0.4-1.4-2.9-3.7-3.6-3.4c-4.1,1.4-9.6-0.6-12.4,4.5c-0.1,0.2,0,0.7,0.1,1c1,3.2,1.9,6.5,3,9.7
	c3.3,9.7,6.8,19.4,10.1,29.1C948.9,228.4,950.3,232.5,951.9,237z M1529.5,694.7c0.1-0.6,0.2-1.1,0.2-1.7c-1.3-1.2-2.7-2.3-3.9-3.7
	c-3.9-4.5-8.7-7.8-14.4-5.1c-6,2.9-13.6,4.9-14.2,13.8c-0.1,1.5-1.4,3-2.3,4.4c-1.6,2.4-3.8,4.5-5,7c-5.9,13-11.6,26-17.2,39.1
	c-0.3,0.7,0.3,1.7,0.8,4c5.4-9.5,10.3-17.7,14.7-26.1c5.2-9.9,9.9-20,15.1-29.9c0.9-1.8,2.8-5.2,5.5-2.8
	C1516.1,700.3,1522.6,692,1529.5,694.7z M938.8,503.5c0.5,0.2,1,0.5,1.5,0.7c1-1.8,2.7-3.5,2.9-5.4c0.7-4.9,0.9-10,1.1-15
	c0.4-12.6,0.8-25.1,1.2-37.7c0.5-17.4,1.1-34.8,1.6-52.2c0-0.8-0.3-1.7-0.3-2.5c0.5-6.7,1.1-13.3,1.5-20c0-0.9-1.5-1.9-2.3-2.8
	c-0.7,1-2,2-2,3c-0.4,14.2-0.8,28.4-1,42.7c-0.1,8.8,0.1,17.5-0.1,26.3c-0.1,5.6-0.9,11.2-1.2,16.8c-0.4,8.3-0.4,16.7-0.9,25
	C940.2,489.5,939.4,496.5,938.8,503.5z M958.6,984.6c-0.4-0.1-0.8-0.2-1.2-0.3c-3,4.2-6.1,8.4-8.9,12.7c-2.9,4.4-6,8.8-8.3,13.6
	c-2.3,4.8-3.9,9.9-5.5,15c-1.5,4.6-6,8.5-4.3,14.1c6.9-7.1,13.7-13.5,19.8-20.5c2.2-2.6,3.1-6.6,3.9-10.2c1.1-4.6,1.4-9.5,2.2-14.2
	C956.8,991.4,957.8,988,958.6,984.6z M1132.3,263.3c6.5-18.5,12.9-36.6,19.4-54.8c-4-2.4-4.8-2-6.7,2.7c-1.8,4.6-3.3,9.6-6.1,13.5
	c-6,8.2-8.4,17.8-12.1,27C1124.1,258.6,1125.7,261.1,1132.3,263.3z M892.1,1179.6c0.7,0.2,1.3,0.5,2,0.7
	c7.3-8.2,14.6-16.3,21.8-24.5c2.5-2.9-0.1-13.2-3.8-14c-1.4-0.3-4,0.7-4.7,2c-4.8,7.9-9.7,15.8-13.7,24.1
	C892.1,1171.2,892.6,1175.6,892.1,1179.6z M449.8,490.9c-0.7,0-1.4-0.1-2.1-0.1c-0.1,1.4-0.2,2.8-0.3,4.2c-0.5,8-0.7,16-1.4,24
	c-0.5,7-1.9,13.9-2,20.9c-0.1,5.3,1.3,10.5,2.1,15.8c1.2,7.7,2.6,15.5,3.9,23.2C455.1,549.4,448.6,520.2,449.8,490.9z M901.2,971.1
	c16.1-9.6,29.5-21.7,42.3-34.8c-2.6,0.1-5.1,0.2-7.1,1.3c-8.7,4.8-17.3,9.8-26,14.7C902.1,956.9,900,960.7,901.2,971.1z
	 M930.8,421.7c-2.9,29.9-8.1,59.6-8.4,89.9c1.8-1.1,3.5-2.2,3.8-3.7C930.6,479.3,931,450.5,930.8,421.7z M943.2,279.9
	c-0.6,0.2-1.2,0.4-1.7,0.7c-0.1,1-0.3,2-0.3,3c0.4,8.2,0.9,16.3,1.2,24.5c0.5,13.8,0.8,27.6,1.5,41.4c0.1,2.1,2,4,3.1,6
	c0.7-0.2,1.5-0.5,2.2-0.7c0-5.6,0.2-11.2-0.1-16.8c-0.6-11.3-1.4-22.6-2.2-33.9c-0.4-6.4-0.8-12.9-1.5-19.3
	C945.3,283,944,281.5,943.2,279.9z M843.3,244.2c-1.1,4.7-2.3,9-3,13.5c-0.2,1,1.2,3.4,1.6,3.3c6.2-0.9,13.4-0.5,18-3.7
	c4.4-3.1,0-9.1-1.9-13.6c-0.1-0.3-0.5-0.4-0.7-0.6C852.5,243.5,847.8,243.9,843.3,244.2z M892.7,1145.1c5.2-6,10.1-11.8,15-17.7
	c0.6-0.7,1.1-1.9,1-2.8c-0.9-6.5-2-12.9-3-19.3c-0.5,0-1.1,0-1.6,0C899.5,1118.3,889.8,1129.8,892.7,1145.1z M1052.9,673.2
	c17.6,5.7,35.6,8.4,53.9,9.9c0.1-0.9,0.3-1.7,0.4-2.6C1089.7,674.9,1072,669.9,1052.9,673.2z M251.4,242.3
	c25.1,13.2,50.2,26.5,75.3,39.8c0.3-0.6,0.7-1.3,1-1.9C302.2,267.5,280,248.7,251.4,242.3z M1149.9,700.5c0.5-0.5,1-1.1,1.5-1.6
	c-1.3-2.3-2.2-5.1-3.9-7c-6.8-7.2-16.4-7-25.2-8.8c-0.4-0.1-2.2,2.7-1.9,3.1c1.2,1.7,2.8,3.4,4.6,4.4c3.2,1.7,6.6,2.8,10,4.1
	C1139.9,696.7,1144.9,698.6,1149.9,700.5z M592.6,385.7c-2.1,3.3-4.2,5.8-5.4,8.7c-1.3,3.1-2.2,6.4-2.5,9.7
	c-0.3,3.2,0.2,6.5,0.6,9.8c0.8,7.2,1.8,14.4,2.6,21.6c0.6,0,1.2,0,1.9,0C590.7,419,591.6,402.7,592.6,385.7z M499.9,826
	c-0.1-8.9-5.4-13.3-9.8-18.6c-4.5,3.7-8.7,7.1-13,10.6c0.1,0.6,0.2,1.2,0.3,1.8C484.6,821.8,491.7,823.8,499.9,826z M612.6,510.1
	c2.7-14.8,5.4-29.5,7.9-43.3c-1.3-2.2-2.3-3.8-4.2-6.9C613.5,477.3,609.9,493.4,612.6,510.1z M891,925c-4.4,0.4-8.5,0.7-12.6,1.3
	c-1.3,0.2-3.2,1.4-3.4,2.4c-0.8,3.6-1,7.3-1.5,11.1C885.5,938.1,892.5,932,891,925z M773.5,463.6c0.2-0.7,0.4-1.5,0.6-2.2
	c-9.5-3.6-19.1-7.2-28.7-10.6c-0.9-0.3-3.4,1.2-3.4,1.6c0.2,1.7,0.9,4.4,1.9,4.7C753.7,459.5,763.6,461.5,773.5,463.6z M446.4,632.6
	c0.7-0.1,1.4-0.2,2.1-0.3c-2.2-23.7-11.6-46-14.9-69.5c0.7,11.9,2.3,23.4,6,35C443.3,608.9,444.2,620.9,446.4,632.6z M599.5,215.1
	c-0.6-0.6-1.8-2.6-3.4-3c-4.3-1.1-8.7-1.7-13.1-2.2c-0.8-0.1-2.1,0.6-2.4,1.2c-0.3,0.6,0.1,2.2,0.7,2.6c3.5,2.6,7.1,5.2,10.9,7.4
	C596.8,223.7,599.1,222.1,599.5,215.1z M1055.7,923.6c0.9,0,1.8,0.1,2.7,0.1c0.4-2.4,1.1-4.9,1-7.3c-0.2-4.1-1.2-8.1-1.3-12.2
	c-0.2-6.6,0.1-13.1,0.1-19.7c0-1.3-0.4-2.6-0.6-3.9c-1.3,7.3-2.6,14.3-2.8,21.4C1054.6,909.3,1055.3,916.4,1055.7,923.6z
	 M610.4,524.4c-4.3,7.7-5.9,42.1-3.3,47.7C608.2,556.2,609.3,540.3,610.4,524.4z M938.9,244.8c0.6-0.2,1.2-0.3,1.8-0.5
	c-3.5-12.9-7-25.7-10.5-38.6c-0.7,0.2-1.5,0.4-2.2,0.6C931.4,219.2,933.2,232.6,938.9,244.8z M869.4,965.6
	c7.4-5.3,14-10.1,20.6-14.9C880.9,952,870.6,951.2,869.4,965.6z M1526.3,674.2c6.9,6.6,13,12.4,19.6,18.7
	C1546,684.8,1534.4,673.3,1526.3,674.2z M260.6,349.9c0-0.5-0.1-1-0.1-1.5c-5-0.5-9.9-1.1-14.9-1.3c-0.9,0-1.8,1.7-2.6,2.7
	c2.7,1.5,5.5,4.2,8.2,4.2C254.3,353.8,257.4,351.3,260.6,349.9z M1412.9,843c-0.5-0.3-0.9-0.7-1.4-1c-5.8,8.6-12.9,16.4-16.4,26.3
	c0.4,0.2,0.8,0.5,1.2,0.8C1401.8,860.4,1407.4,851.7,1412.9,843z M1210.1,1133.3c3.8,1.4,10.3-5.5,12.7-12.8
	C1215.5,1121.9,1213.9,1128.5,1210.1,1133.3z M375.7,811.1c6-2.3,11.1-4.2,16.2-6.1C382.2,802.5,377.3,804.2,375.7,811.1z
	 M1056.7,873.8c1.8-8.4,4.2-16.9-0.3-26.6C1053.2,857,1058.6,865.4,1056.7,873.8z M432.3,556.8c0.3-0.1,0.7-0.2,1-0.2
	c0-3.4,0.2-6.8-0.1-10.2c-0.1-1-1.2-2-1.8-3c-0.6,1.1-1.7,2.3-1.6,3.3C430.4,550.1,431.4,553.5,432.3,556.8z M1278.4,1062.7
	c-0.5-0.4-1-0.8-1.5-1.2c-3.5,4.1-7.1,8.2-10.6,12.2c0.5,0.4,1,0.9,1.6,1.3C1271.4,1070.9,1274.9,1066.8,1278.4,1062.7z
	 M942.7,1046.8c3.7-3.1,6.7-5.3,9.4-7.8c0.3-0.3-0.3-1.7-0.5-2.7c-0.9,0.3-2.1,0.3-2.7,0.8c-2,1.8-3.8,3.8-5.6,5.9
	C942.8,1043.6,943,1044.7,942.7,1046.8z M1554.1,1110.3c0.4-0.1,0.9-0.1,1.3-0.2c-0.5-6-1-12-1.5-18c-0.8,0.1-1.5,0.2-2.3,0.3
	C1552.4,1098.4,1553.2,1104.4,1554.1,1110.3z M258.3,260.6c0.1-0.6,0.3-1.2,0.4-1.8c-5.1-1.8-10.3-3.7-15.5-5.5
	c-0.2,0.5-0.3,1-0.5,1.5C247.9,256.8,253.1,258.7,258.3,260.6z M1063.1,283.8c0.5,0,1,0,1.5,0c0.2-3.7,0.4-7.3,0.6-10.9
	c-0.7,0-1.4,0-2.1,0C1063.1,276.5,1063.1,280.2,1063.1,283.8z M884.7,185c0.1,0.5,0.3,1,0.4,1.5c3.1-0.8,6.3-1.6,9.4-2.5
	c-0.2-0.8-0.4-1.5-0.7-2.2C890.8,182.9,887.7,183.9,884.7,185z"/>
<path d="M1329.5,64.5c0.9,2,1.4,3.2,2,4.5c5.2,0.2,10.6-10.1,15.7,0.2c-7.4,1.9-15,3-21.9,5.8c-11.8,4.9-23.3,10.6-34.7,16.5
	c-12.5,6.5-24.9,13.4-37,20.7c-6.7,4-12.3,9.7-18.9,14c-13.7,9.1-25.9,19.8-36.3,32.6c-0.1,0.1-0.2,0.3-0.4,0.4
	c-7.7,2.8-8.5,11.2-13.3,16.3c-1.7,1.8-4.5,3.4-6.8,3.4c-3.3,0-6.4-2.2-4-6.1c3-4.7,6.4-9.3,10.2-13.4c5.6-6,11.3-11.9,17.5-17.3
	c7.6-6.6,15.8-12.6,23.7-18.9c4.4-3.5,8.8-7.1,13.1-10.7c6-5.1,12.3-9.3,20.1-11.6c5.6-1.7,10.2-6.5,15.5-9.5
	c6.6-3.8,13.4-7.5,20.3-10.8C1305.8,75,1317.5,69.9,1329.5,64.5z"/>
<path d="M1088.3,1284.2c-0.3,1.1-0.7,2.8-1.4,5.7c-1.5-2.4-2.3-3.7-3.6-5.6c0.8,8.9-8.8,14.5-18.2,11c2.5,6.1-1.9,6.6-5.7,8.4
	c-5.7,2.7-11.2,5.8-16.4,9.3c-8.8,5.9-19.2,6.9-28.9,10.1c-5.2,1.7-10.6,3.3-15.9,4.6c-1.1,0.3-2.6-0.8-3.9-1
	c-1.4-0.3-3.1-1-4.2-0.5c-4.2,1.7-8,4.1-12.2,5.6c-2.5,0.9-5.5,0.4-8.3,0c-5.7,4.2-12.3,1.7-18.7,2c-1.9,0.1-3.8,1.2-6.3,2
	c-0.1-0.1-0.3-1-0.8-1.6c-1.7-1.8-4.5-3.6-5.5-0.3c-1.1,3.8-3.9,3.1-5.4,2.5c-3.9-1.6-7.4-4.1-10.9-6.5c-0.4-0.3,0-2.7,0.7-3.2
	c2.8-2,6.9-0.2,8.6,3.1c1.3-0.2,2.6-0.8,3.7-0.6c2.7,0.6,5,1.1,6.5-2.1c0.2-0.5,1.5-0.7,2.3-0.8c13-1.7,26.1-2.9,39-5.1
	c11.2-1.9,22.4-4,33.1-7.5c10.3-3.3,20.2-8.1,29.9-13c13.1-6.7,25.9-14,38.7-21.2c5.9-3.3,11.5-7.2,17.3-10.6c1.8-1,3.8-1.5,6-2.4
	c1.4,5.9-0.2,7.9-5.4,8.9c-3.2,0.6-5.9,4.1-8.9,6.2C1092.1,1282.5,1090.5,1283,1088.3,1284.2z"/>
<path d="M1204.5,1183.3c-2.6,1.2-5.3,2.5-8.5,3.9c-4.2-3.9-3.8-5.2,3.1-9.5c2.8-1.7,5.3-4.1,7.6-6.5c3.9-4.1,7.4-8.5,11.4-12.4
	c1.1-1.1,3.4-0.8,5.2-1.1c-0.2,2.2,0.5,5.2-0.7,6.5c-3.4,3.7-7.9,6.5-11.4,10.1C1208.7,1176.9,1206.8,1180.1,1204.5,1183.3z"/>
<path d="M1147.7,1230.7c1,4.5-2.7,6.8-4.8,9.7c-1.1,1.5-3.1,2.5-5,3.6c-3.2,2.8-6.8,5.4-9.7,8.6c-3,3.3-5.4,7.1-8,10.7
	c-0.7-0.4-1.4-0.8-2.1-1.2c1-2.3,2-4.6,3.2-7.4c0,0-1.1-0.7-3.5-2.4c10.5-7.4,20.3-14.4,30.1-21.3L1147.7,1230.7z"/>
<path d="M1190.7,1186.1c4.2,3.7,2.4,6.1-0.1,8.9c-4.2,4.8-8.1,9.8-12.1,14.8c-1.5,1.9-2.9,4-5.3,0.8c-0.4,1.2-0.5,2.8-1.3,4.1
	c-0.7,1.1-2.2,1.6-3.3,2.4c-0.5-1.8-2.1-4.3-1.4-5.1c2.2-2.9,5.3-5.1,7.9-7.6c1.4-1.4,3.9-2.7,4.1-4.2
	C1180.1,1192.8,1185.8,1190.1,1190.7,1186.1z"/>
<path d="M1246.4,1126.7c0.6,8.8-3.1,14.2-9.4,15.6c1.6,8-6.7,10.3-8.7,16.4c-4.4-1.9-4.3-4.5-2.3-7.2c3.7-5.1,6.9-10.8,11.6-14.9
	c2.3-2.1,3.8-3.7,4.6-6.5C1242.6,1128.9,1244.4,1128.2,1246.4,1126.7z"/>
<path d="M1108.2,1234.6c0,0.1-0.2,2.2-1.2,2.9c-1,0.7-3.2,0.4-4.4-0.2c-0.5-0.3-0.5-3.2,0.2-3.9c1.8-1.7,4.1-2.9,6.2-4.2
	c2-1.3,3.9-2.9,6-3.9c1.8-0.9,3.8-1.2,5.7-1.9c-0.5-0.2-1.2-0.6-3.4-1.5c3-0.9,4.8-1.4,5.8-1.7c1.7-2,2.8-4.3,4.4-4.7
	c1.3-0.3,3.1,1.8,5.5,3.3C1124.4,1224.2,1116.7,1229.1,1108.2,1234.6z"/>
<path d="M1159,1193.1c-3,3.2-6.8,6-8.8,9.8c-2.5,4.5-4.7,3.1-9,0.9c6-4.5,11.3-8.4,16.6-12.4C1158.2,1192,1158.6,1192.5,1159,1193.1
	z"/>
<path d="M1066.3,1254.8c1.9-1,4.5-2.4,7.7-4.2c0.3,6.5-0.9,10.9-7.2,13.4C1066.7,1261.2,1066.5,1258.7,1066.3,1254.8z"/>
<path d="M1090.6,1240.1c2.3-1.6,4.5-5.3,7.4-1c0.7,1,0.4,4.1-0.4,4.6C1094,1245.7,1091.8,1243.7,1090.6,1240.1z"/>
<path d="M1082.8,1248.4c-1.1,1-2.2,2.1-3.2,3.1c1.9,0,3.8,0,5.7,0c0.3,0.2,0.6,0.5,0.8,0.7c-2.3,1.1-4.5,2.1-6.8,3.2
	c-0.6-2.2-1.8-4.4-1.7-6.5c0.1-0.8,3.3-1.3,5.1-1.9C1082.8,1247.5,1082.8,1247.9,1082.8,1248.4z"/>
<path d="M1147.8,1230.8c2.4-3.3,4.2-3.6,9.6-0.7c-4,0.7-6.1,5.4-9.7,0.5C1147.7,1230.7,1147.8,1230.8,1147.8,1230.8z"/>
<path d="M1115.5,1255.3c1.8,7.8,0.8,10.6-3,10.4C1113.5,1262.5,1114.4,1259.4,1115.5,1255.3z"/>
<path d="M1039.7,1180.1c0.4,1.1,0.8,2.2,1.1,3c-2.8,4.3-7.6-6.9-9.4,1.1c-2.6,0.5-5,1.3-7.3,1.2c-2.3-0.1-4.7-0.6-6.7-1.7
	c-2.4-1.3-4.2-2.2-5.9,0.9c-1.2,2.1-2.8,3.6-5.3,1c-0.5-0.6-1.8-0.3-2.8-0.4c-3-0.3-6-0.7-9-1.7c-6,3.5-8.6,3.1-10.4-2.8
	c-2,0-4.1,0-6.2,0c-0.1-0.6-0.1-1.2-0.2-1.9c5.8-0.5,11.5-1.2,17.3-1.4c2.8-0.1,5.4-0.2,8.1,2.8c2.6,2.8,7.5,1.8,10.2-2.6
	c1.7,1.2,3.2,2.2,4.6,3.2c5.9-7.8,13.9-1.7,20.4-4.6c0.1,0.5,0.2,1,0.3,1.5c-1.9,0.3-3.8,0.7-5.7,1c0,0.4,0,0.8-0.1,1.1
	c2.4,0.1,4.7,0.3,7.1,0.4C1039.9,1180.2,1039.7,1180.1,1039.7,1180.1z"/>
</svg>
