<?xml version="1.0" encoding="utf-8"?>
<!-- Generator: Adobe Illustrator 25.2.1, SVG Export Plug-In . SVG Version: 6.00 Build 0)  -->
<svg version="1.1" id="Layer_1" xmlns="http://www.w3.org/2000/svg" xmlns:xlink="http://www.w3.org/1999/xlink" x="0px" y="0px"
	 viewBox="0 0 1743.1 1169.8" style="enable-background:new 0 0 1743.1 1169.8;" xml:space="preserve">
<path d="M358.2,1074c-7.8,1.7-14.2-1.6-20.8-5.1c-4.8-2.6-9.9-4.4-14.9-6.7c-3.2-1.5-7.9-1.6-6.6-7.7c-0.3,0.1-0.6,0.3-1,0.4
	c-0.8,0.9-1.6,1.8-3.1,3.5c-1.8-2.1-3.4-4.2-5.2-6.2c-0.7-0.8-1.7-1.9-2.4-1.8c-4.5,0.3-7.6-2.4-11.1-4.3c-4.7-2.6-9.3-5.4-14.2-7.6
	c-3.7-1.7-7.8-2.6-11.7-3.7c-3.6-1-8.9-6.3-9.2-9.4c-0.3-2.3,0.3-3.2,3-3.5c3.9-0.3,7.7-1,11.6-1.9c7.1-1.7,14.8-1.6,22.2-1.6
	c2.1,0,4,1.9,6.7,0.5c0.9-0.5,3.3,1.2,4.6,2.4c3.9,3.6,9.8,3.5,13.1-0.4c1.7-2,3.8-2.6,5.5-0.4c1.8,2.4,3.8,1.8,5.7,0.8
	c2.2-1.1,4-1,6,0.3c1.4,0.9,3.3,1.2,5,1.4c5.9,0.9,11.8,1.6,17.7,2.3c1.2,0.1,2.8,0.4,3.5-0.2c3.2-2.6,7.1-2.4,10.6-2.7
	c3.2-0.2,6.6,1.2,10.1,1.9c0.7-1,1.3-2,2.1-3c2.2-2.7,3.6-2.7,6.5-0.8c2.2,1.4,4.4,3.5,7.5,0.7c1.4-1.2,4.5-0.7,6.8-0.9
	c2.1-0.2,4.2-0.5,6.3-0.6c5.3-0.3,10.6-0.4,15.8-1.1c3.3-0.4,6.5-1.5,9.8-2.2c1.2-0.3,2.6-1.1,3.5-0.7c5.6,2.3,10.6-0.7,15.8-1.6
	c4.4-0.7,8.7-2,13-2.2c3.8-0.1,7.5,0.2,11-1.8c0.8-0.4,2.5,0.8,4,1.4c3.8-4.7,9.5-7.8,15.1-11.2c3-1.8,5-5.1,7.5-7.7
	c0.8-0.8,1.5-2,2.4-2.4c5.1-2.2,9.3-5.4,13.5-9.1c3.8-3.3,8.5-5.5,12.9-7.9c4.3-2.4,8.8-4.5,13.1-7c1.2-0.7,1.8-2.3,2.8-3.5
	c1.2,0.2,2.5,0.5,3.2,0.7c1.4-1.6,2.3-3.2,3.6-4.1c5.3-3.5,10.5-7.1,16.1-10c5.9-3.1,12.2-5.6,18.3-8.4c2.7-1.2,5.3-2.6,8-4
	c1.5-0.8,3-2.3,4.6-2.4c9.7-1,17-8.2,26.5-9.7c1.2-0.2,2.3-1.3,3.5-1.8c1.8-0.8,3.8-1.5,5.6-2.3c4.4-2,8.9-3.7,12.9-6.3
	c1.2-0.8,1.5-4,1.3-6.1c-0.5-5.6-1.4-11.2-2.2-16.8c-0.1-0.8-0.4-1.6-0.4-2.4c0.7-8.7-2.9-16.7-4.6-25c-0.2-0.8-0.5-1.6-0.6-2.4
	c-1.1-7.6-2.3-8.5-9.9-8.4c-3.7,0.1-7.3-0.1-11,0c-13.1,0.4-26.2,1-39.3,1.1c-8,0.1-15.9-0.5-23.8-0.6c-3.1,0-6.2,0.5-9.3,0.9
	c-5,0.6-9.9,1.6-14.9,1.6c-5.4,0-10.9-0.9-16.3-1.4c-3.3-0.3-6.6-1.3-9.9-1.1c-3.3,0.2-6.4,1.6-9.7,2.2c-3.6,0.7-7.2,1.2-10.8,1.4
	c-8.6,0.4-17.2,1.7-25.9-0.1c-2.1-0.4-4.5-0.6-6.5,0c-8.8,2.7-18,1.5-27,2.3c-6.3,0.6-12.5,1.5-18.8,1.6c-4.5,0.1-9-1.2-13.4-1.2
	c-4.7,0-9.5,0.8-14.2,1.3c-1.9,0.2-3.8,0.9-5.6,0.8c-9-0.8-18-1.4-26.9-2.8c-5.4-0.8-6.8-2.8-6.2-8.1c0.4-3.7,2-7.2,3.5-10.7
	c0.4-1,2.4-1.7,3.7-1.8c5.7-0.2,11.5-0.1,17.2-0.1c0.5,0,1.2-0.2,1.6,0.1c3.9,2.5,8.2,2.3,12.5,1.8c1.8-0.2,3.5-0.7,5.3-0.7
	c1.9,0,3.9,0.4,5.8,0.6c1.5,0.2,3.1,0.7,4.4,0.3c6.1-1.9,11.8-3.2,17.7,1c4.4,3.1,6.2,2,7.6-3.4c0.1-0.6,0.7-1.2,1.2-1.4
	c3-1.5,6.8-0.5,9,2.3c1.7,2.1,3.3,2.2,4.2-0.2c0.9-2.4,2.5-2.4,4.6-3.1c9.4-3.3,19-0.9,28.5-1.9c11.9-1.2,24-0.5,36.1-0.7
	c2,0,4-0.5,6-0.8c1.1-0.2,2.2-0.7,3.2-0.4c5.6,1.6,11-0.4,16.5-1.1c4.9-0.6,9.9-0.9,14.8-1.2c2.1-0.2,4.5-0.6,6.4,0
	c1.7,0.6,2.8,2.5,4.5,3.9c0-0.1,0.7-0.7,0.7-1.2c0-2.3,1.4-2.7,3.2-2.6c5.5,0.3,10.8-0.7,16.5,0.4c4,0.7,8.7-1.6,13.3-0.6
	c1.2,0.3,2.5-0.5,3.8-0.5c4.4-0.2,8.9-0.4,13.3-0.6c4.4-0.2,8.8-0.4,13.2-0.6c4.2-0.2,8.3-0.3,12.5-0.5c2.4-0.1,3.4-1.7,3.2-3.8
	c-0.5-4.1-1.2-8.2-1.9-12.6c-5.5,0.8-10.5,1.3-15.5,2.5c-3.9,0.9-7.1,0.2-10.4-1.7c-3.3-1.9-6.7-3.5-10.1-5
	c-7.1-3.2-14.4-6-21.4-9.3c-6-2.9-11.7-6.6-17.8-9.4c-6.5-3-13.2-5.4-19.9-7.9c-4.7-1.8-9.4-3.2-14.1-4.9
	c-7.8-2.8-15.6-5.7-23.5-8.5c-7.6-2.7-15.2-5.2-22.7-8.1c-3.7-1.5-7.1-3.7-10.6-5.7c-2.5-1.4-2.3-3.7-2.1-6.1
	c0.2-2.4,1.7-3.1,3.8-3.3c4.3-0.4,8.7-1.9,12.5,1.9c0.7,0.7,2.7,0.8,3.8,0.4c6.9-2.7,13-2.1,18.3,3.8c0.7-0.7,1.2-1.6,2-1.9
	c1.3-0.6,2.8-1.3,4.2-1.1c6.5,0.8,13,2.3,19.5,2.9c7.7,0.7,15.6-0.3,23,1.4c9.8,2.2,19.4,0.1,29.1,0.6c1.4,0.1,2.8-0.9,4.2-1.3
	c2.6-0.7,5.1-1.4,7.7-2.1c0.8-0.2,1.6-0.2,2.4-0.5c5.8-2.3,11.6-4.3,17.2-7c3.7-1.8,7-4.3,10.5-6.6c2.3-1.5,2.4-3.9,1.4-6.2
	c-2.2-4.9-1.7-10-1.2-15.2c0.3-2.5-0.3-5.1-0.8-7.6c-1-6.7-2-13.3-3.4-19.9c-0.6-2.8-1.9-4.9-5.5-5.5c-9.5-1.5-18.8-3.8-28.2-5.4
	c-4.4-0.8-8.9-1-13.4-0.9c-6.2,0.2-11.9-1.3-17.8-3.2c-6.4-2.2-13-3.5-19.6-5c-10.1-2.3-20.2-4.3-30.3-6.7c-2.7-0.6-5.3-2.1-7.9-3.1
	c-3.5-1.3-7-2.8-10.5-3.9c-3.1-0.9-4.3-2.5-3.3-5.7c0.2-0.8,0.4-1.6,0.4-2.4c-0.2-2.6,1.2-3.6,3.6-3.8c4.6-0.4,9.1-1.2,13.7-1.5
	c4-0.2,8.1,0.2,12.1,0.1c8.1-0.2,16.2-0.7,24.3-1.1c4.6-0.2,9.1-0.8,13.7-0.8c13-0.2,26-0.2,38.9-0.5c6.7-0.1,13.3-0.8,20-0.9
	c2.6-0.1,3.6-1.2,4-3.5c1.4-8.5-0.6-16.4-3.7-24.1c-0.4-1-1.5-2.2-2.4-2.5c-10.1-3-20.3-5.7-30.3-8.6c-4.5-1.3-8.8-3.2-13.3-4.7
	c-3.8-1.3-7.8-2.1-11.6-3.5c-6.5-2.5-13.1-5-19.4-8.1c-2.2-1.1-4-3.6-5.1-5.9c-2.9-6.5-5.5-13.1-8-19.8c-1.8-5-3.2-10.3-4.7-15.4
	c-0.2-0.8-0.2-1.7-0.6-2.3c-4-5.5-1.8-11,1.2-15.5c1.6-2.5,5.7-3.5,8.8-4.7c3.1-1.2,6.5-1.8,9.8-2.5c6.8-1.5,9.8-7.2,13.2-12.3
	c1.7-2.5,3.1-5.3,5.1-7.6c4.9-5.9,7.7-12.5,9.8-19.9c1.8-6.4,5.4-12.3,8.1-18.5c1-2.2,1.5-4.6,2.3-6.9c1.5-3.9,6.9-6.8,10.9-5.8
	c2.6,0.7,3.5,2.7,3.8,5.2c0.2,2.2,0.5,3.9,2.8,5.4c1.4,0.9,1.4,3.9,2.4,5.8c0.7,1.4,2,2.5,3.1,3.7c0.9-1.2,2.3-2.4,2.5-3.7
	c1.2-6.2,5-10.5,9.8-13.8c1.3-0.9,4.7-0.5,6.2,0.6c4,2.8,7.3,6.4,8.2,11.5c0.2,1.1,0.8,2.2,1.2,3.3c0.3,0,0.7,0,1,0
	c0.2-1.5,0.5-3,0.7-4.4c1-6.8,4.2-12.1,10.3-15.5c1-0.6,2.3-0.9,3.4-0.9c4.5-0.1,9,0,13.6,0.1c5.2,0.1,6.6,1.6,7,6.8
	c0.8,10.2,1.8,20.5,2.5,30.7c1.3,18.3,2.1,36.7,3.9,55c1,10.8,3.5,21.5,5.4,32.3c0.5,2.8,0.5,7,2.3,8.2c2.8,1.8,6.9,1.9,10.5,2.3
	c14.8,1.7,29.6,3.3,44.4,4.7c4,0.4,8.1,0,12.1-0.1c1.1,0,2.2-0.4,3.2-0.3c8.6,0.6,17.2,1.4,25.7,2c4.2,0.3,8.4,0.3,12.6,0.5
	c6.6,0.2,13.4-0.4,19.9,0.7c6.2,1,12.2,1.3,18.3,0.3c1.3-0.2,3.6,0.7,4.1,1.7c2.7,5.7,5.5,11.5,7.3,17.5c2.1,7.2-3,12.6-10.5,11.9
	c-7.9-0.8-15.8-1.1-23.7-1c-10.5,0.1-21-1.2-31.5-2c-15.6-1.3-31.3-2.8-46.9-4.1c-4.7-0.4-9.4-0.6-14.2-0.8
	c-6.3-0.2-12.7-0.4-19-0.4c-1.3,0-2.6,0.5-3.9,1c-1.2,0.4-2.4,1.1-3.6,1.6c0,5.4-0.1,11.3,0.2,17.2c0.2,4.8,1,9.6,1.7,14.4
	c0.8,5.3,4.7,8.3,11.5,8.4c5.5,0.1,11.1-0.6,16.6-0.3c6.6,0.4,13.1,2,19.7,2.1c10.9,0.2,21.9-0.4,32.8-0.7c2,0,4.1,0,6,0.4
	c12.8,3,25.6,0.6,38.3-0.4c1.3-0.1,2.7-0.4,4-0.3c7,0.1,14,0.7,21,0.4c5.8-0.2,11.5-1.9,17.3-2.1c7.2-0.2,14.5,0.5,21.7,0.8
	c2.8,0.1,5.7,0.3,8.5,0.3c9.2,0,18.3,0.1,27.5-0.1c1.7,0,3.9-1.1,5.1-2.3c5.1-5.1,12.1-5.2,17.2-0.1c1.3,1.3,3.1,2.2,4.4,3.5
	c2.4,2.4,5.7,3.9,6.3,8c0.7,4.8,5.4,6.4,8.6,9.2c6.4,5.6,13,11,19.6,16.3c2.1,1.7,4.5,3,6.9,4.1c0.8,0.4,2.7,0,3.2-0.6
	c1.3-1.8,2.6-3.8,3.1-6c1.3-5.9,2-12,3.2-18c1.4-6.6,0-12.7-2.8-18.5c-2.6-5.3-4.8-11-8.5-15.4c-3.2-3.9-7.1-7.7-13.6-7.5
	c-8.9,0.3-17.7-1.7-25.3-7.1c-2.5-1.8-5.5-2.9-8.2-4.3c-4.6-2.4-9.2-4.9-13.8-7.2c-1.4-0.7-3.1-1.1-4.6-1.7c-1-0.4-2-0.7-2.9-1.2
	c-2.3-1.3-4.5-2.7-6.8-4.1c-0.9-0.6-1.9-1.3-2.3-2.2c-1.8-3.9-5.4-5.4-8.7-7.5c-4.2-2.6-8.5-5.2-12.2-8.5
	c-4.1-3.7-7.3-8.3-11.2-12.2c-1.3-1.3-3.6-2-5.5-2c-8.3-0.2-15.8-2.7-22.8-7.2c-1.1-0.7-3.1,0.1-4.6-0.1c-2.2-0.2-4.3-0.6-6.5-1.1
	c-2-0.5-3.8-1.6-5.8-2.1c-4.2-1-8.5-1.8-12.7-2.4c-2.6-0.4-5.3-0.2-8-0.3c-3.5-0.1-7,0.1-10.4-0.5c-4-0.8-8.2-1.3-11.3-4.5
	c-3.7-3.9-8.3-7-10.3-12.4c-0.4-1.1-1.5-2-1.9-3.1c-1.2-2.8-3.1-5.6-3.1-8.4c-0.2-9-2.5-17.4-5.3-25.8c-1.9-5.6-1.6-12-2.3-18
	c-0.1-0.5,0.5-1.2,0.3-1.6c-3.8-6.6-1.6-14.4-4.7-21.5c-4.7-10.8-7.4-22.6-9.2-34.4c-0.8-5.3-3-10.3-4.4-15.5
	c-1.6-6.4-2.9-12.8-4.5-19.2c-1.9-7.9-3.9-15.8-6.1-23.7c-2.6-9.8-5.4-19.5-8.2-29.2c-0.2-0.8-0.3-1.7-0.8-2.3
	c-5.2-7.3-5-16.3-7.7-24.5c-2.2-6.6-4.8-13.1-7.2-19.6c-0.3-0.9-0.7-1.8-0.9-2.7c-2-6.7-3.2-13.9-6.3-20c-4.5-8.7-4.9-18.4-8.5-27.2
	c-1.3-3.1-3.9-5.8-6.2-8.3c-1.1-1.2-2.7-1.1-3.4,1c-1.3,3.9-3.1,7.8-3.8,11.8c-1.3,7.9-2.2,16-2.8,24c-0.2,3.2,0.7,6.4,1.2,9.7
	c0.4,0,0.7,0,1.1-0.1c0.2-2.7,0.3-5.4,0.4-8.2c0.3,0,0.7,0,1,0c-0.1,2-0.1,3.9-0.3,5.9c-0.3,2.3,0.1,3.8,2.5,4.8
	c3.8,1.6,5.2,5,6.1,8.9c4.8,19.6,3.3,39.3,0.6,58.9c-1.2,8.3-4.4,16.2-13.1,20c-3,1.3-3.6,4.1-3.8,7.1c-0.6,10.3-1.1,20.5-2,30.8
	c-0.4,5-1.4,9.9-2.3,14.8c-0.6,3.1-4.6,6.4-7.2,6.2c-2.7-0.2-5.5-4.2-5.1-7.8c1.1-8.2,2.1-16.4,0.4-24.6c-0.9-4.5-1-4.8-5.7-4.8
	c-0.8,0-1.6,0.1-2.4-0.1c-7.8-1.1-11.8,5-11.7,12.1c0,2.3,2.3,4.7,3.5,7c3.8,7.1,0.8,13.3-2.4,19.4c-0.7,1.3-2,2.4-2.3,3.8
	c-1,5.2-6.1,6.4-9.1,9.7c-0.2,0.2-0.5,0.3-0.8,0.3c-4.3-1.1-8.6,1.1-13.1-0.5c-4.3-1.6-6.2-4.6-7.8-8.2c-4.2-9-6.1-18.5-7.3-28.4
	c-0.6-4.9-3-9.6-5.2-14.3c-3.2,5.7-3.8,11.6-3.4,17.6c0.2,2.8,0.1,5.7,0.5,8.5c0.5,3.6-1.9,5.5-4,7.5c-2.2,2-6.6-0.1-7.7-4
	c-2-6.7-3-13.5-2-20.5c1.4-9.5,2.5-19,4-28.5c0.8-5.2,2.3-10.3,3.5-15.4c0.4-1.7,0.9-3.4,1-5.2c0.3-8.8,2.2-17.3,4.7-25.6
	c0.2-0.6,0.2-1.3,0.2-2c0.7-10.8,2-21.6,2.1-32.4c0.1-12.4,1.7-24.9-1.9-37.1c-0.3-1-0.4-2.2-0.2-3.2c0.8-4.1-1.8-6.8-3.8-9.7
	c-1.2-1.8-2.7-0.9-4,0.6c-1.6,1.8-3.4,3.3-5.1,5c-0.6,0.6-1.5,0.9-1.8,1.6c-2.3,4.7-5.2,9.2-6.5,14.2c-2.4,9.4-3.8,19.1-5.6,28.7
	c-1.6,8.7-3.1,17.5-5,26.2c-2.3,11-5.1,21.8-7.4,32.8c-1.1,5.4-1.5,11-2.3,16.4c-0.6,3.7-1.5,7.3-2.3,11c-1.3,6-2.9,11.8-3.7,17.9
	c-1.1,7.8-3.4,15.3-6.7,22.4c-0.7,1.5-2.5,2.9-4.1,3.6c-4.5,1.9-15.4-0.5-18-4.4c-2.2-3.3-4.2-7.2-4.7-11c-1-7.9-1.9-16-1.2-23.8
	c0.8-9,2.5-18.2,5.5-26.8c3.3-9.5,4.6-19.4,7.1-29c1.5-5.7,3.4-11.4,4.8-17.1c2.3-9.6,4.1-19.3,6.4-28.9c2.1-8.9,4-18,6.8-26.7
	c4.3-13.2,4.6-27.1,7.7-40.5c2.1-9.2,3.3-18.5,4.3-27.9c0.6-6,3.3-11.8,5.2-17.7c0.5-1.5,1.6-2.8,2.7-4c4.6-5.3,4.9-10.2,0.5-15.7
	c-2.4-3-5.6-5.4-7.8-8.5c-3.3-4.7-6.2-9.7-9-14.6c-2.3-4.1-4.3-8.4-6.7-12.4c-1-1.8-3.1-3-4.1-4.8c-1.2-2.3-2.3-4.9-2.5-7.5
	c-0.4-9.3-0.2-18.6,2.4-27.7c1.6-5.4,2.4-11.1,4.5-16.4c1.8-4.5,5-8.5,7.5-12.7c1.7-3,3.2-6.1,4.8-9.2c0.6-1.2,1.3-2.6,2.4-3.2
	c3.4-1.8,6.9-3.5,10.6-4.6c3.1-0.9,1.5-2.4,1-3.8c1.2-1,2.8-1.7,3.3-3c1.7-3.9,5-4.8,8.7-5.6c3-0.7,5.7-2.2,8.6-3.3
	c1-0.4,2.1-0.5,3.1-0.8c1.8-0.6,3.5-1.5,5.4-1.9c3.9-0.9,7.8-1.6,11.7-2.3c0.9-0.2,1.9,0.2,2.8,0c9-1.8,17.7-1.2,26.1,2.6
	c0.7,0.3,1.8,0,2.6-0.3c7.3-2.2,13.9-0.8,20.5,3c5.5,3.1,11.6,5,17.5,7.3c9.5,3.8,17.8,9.4,25.1,16.6c0.4,0.4,0.7,0.8,1.1,1.2
	c3.9,3.7,8.6,6.9,11.6,11.3c4.6,6.6,10.8,11.8,14.4,19.3c2.8,5.9,4.5,12,7,17.8c5.7,13,3.9,26.4,4.2,39.8c0,1.5-0.3,3-0.5,4.4
	c-1.5,8.2-3.6,10.7-12,10.5c-5-0.1-7.2,3.4-10.6,5.2c-4.8,2.6-6.5,7.5-9.2,11.6c-1.8,2.7-1.5,6.7-2.3,10.1
	c-1.5,6.5,4.2,9.7,7.3,13.3c5.3,6,8.6,12.9,12,19.9c0.3,0.6,0.7,1.1,1.5,2.3c1.7-1.9,3.3-3.5,4.7-5.2c5.4-7.1,15.8-8.2,22.2-2.1
	c2.5,2.4,5,5,6.8,7.9c1.3,2.2,2.2,5,2.2,7.6c0,6.2,3.1,10.5,7.2,14.8c4.2,4.3,7.5,9.4,11.1,14.2c1.4,1.9,2.7,4,3.7,6.2
	c3.3,7.2,6.4,14.5,9.8,21.7c2.5,5.3,5.5,10.4,8.1,15.7c1.8,3.6,3.2,7.4,5.1,11c3,5.6,5.9,11.2,9.3,16.6c4.6,7.1,7,15.1,10.4,22.7
	c2.8,6.2,6.2,12.2,9.1,18.3c1.4,3,2.7,6.1,3.6,9.2c1.2,4.6,3.5,8.5,5.7,12.7c3.3,6.3,4.9,13.6,6.7,20.6c1.1,4.1,2.2,7.8,4.9,11.2
	c2.4,3,4.7,6.7,5.4,10.3c1.5,8.5,7.8,14.1,11.6,21.1c1.8,3.3,5,5.9,7.9,8.5c3,2.7,3.2,6.1,3.5,9.6c0.5,6.6,2,12.4,6.5,17.8
	c4.4,5.3,6.8,12.1,10.5,18c3.5,5.5,7.3,10.8,11.2,16c1.7,2.3,3.9,4.3,5.8,6.5c3,3.5,6.3,5.9,10.9,7.3c8,2.4,14.5,6.8,15.2,16.3
	c0,0.1,0.1,0.3,0.1,0.4c1.1,6.1,2.6,11.6,9.3,14.5c3.7,1.6,6.6,5,10.3,7.8c1.4-1.5,3-3,4.4-4.7c2.6-3.1,5.1-6.3,7.7-9.4
	c0.5-0.6,1-1.3,1.7-1.7c4.9-2.7,9.8-5.5,14.9-8c8.3-4.1,9.3-12.2,2.4-18.4c-2-1.8-3.7-3.8-5.3-5.9c-4.4-5.4-0.9-14.1,5.2-17.6
	c1.7-1,3.7-1.7,5.6-2.4c6.5-2.3,13,1.8,13.6,8.7c0.2,2.1-0.1,4.4-0.6,6.4c-1.6,5.6-0.4,10.7,2.5,15.6c1.8,3,4.2,3.8,7.8,3
	c1.8-0.4,3.8-0.7,5.6-0.3c8.8,1.7,17.8,2.8,25.1,9c1,0.8,2.3,1.3,3.6,1.9c7.7,3.6,12,10.2,15.5,17.6c0.9,1.8,2.2,3.3,3.4,5
	c4.1,6,5.8,12.8,5.6,20c-0.3,9.6,1,19.3-2,28.7c-1.9,6-3.6,12.2-6.3,17.9c-1.7,3.4-5,6.2-8.1,8.8c-4,3.3-8.4,6.2-12.9,8.8
	c-3.7,2.1-8.3,2.6-10.9,6.5c-0.2,0.3-0.7,0.5-1.1,0.5c-5.8-0.2-7.3,4.3-8.9,8.4c-1.3,3.5-2.7,7.1-3.5,10.8c-0.9,4.5,0.9,6.7,5.4,7.8
	c2.2,0.6,4.2,1.8,6.2,2.8c3.4,1.7,6.8,3.3,10.1,5.1c1.6,0.9,3.7,1.9,4.4,3.4c2.7,5.6,6.6,10,11.7,13.5c1.6,1.1,2.9,2.8,4.1,4.4
	c1.9,2.7,3.9,3.2,7.5,3.6c7.4,0.8,14.6-2.3,22-0.4c3.1,0.8,6.7-0.4,10.1-0.2c4.8,0.2,9.5,0.8,14.2,1.3c0.8,0.1,1.8,0.7,2.3,1.4
	c4,5.8,1.7,17.8-4.5,21c-2.5,1.3-5.9,1.4-8.9,1.3c-6.6-0.1-13.2-0.7-19.9-0.9c-4.8-0.2-9.6-0.1-14.3-0.3c-2.2-0.1-7.5,3.2-7.6,5.4
	c-0.1,3.6-0.2,7.3,0.6,10.7c1.2,4.9,2.3,9.6,2.1,14.7c-0.6,13.1-1,26.2-1,39.3c0.1,11.2,1.2,11.9,12.1,10.6
	c12.1-1.5,24-4.1,36.2-3.4c2.1,0.1,4.2-0.3,6.3-0.8c0.6-0.1,1.5-1.1,1.4-1.6c-0.2-1.4-0.6-3-1.4-4c-2.2-2.6-5-4.8-7-7.6
	c-1.3-1.9-1.9-4.5-2.1-6.8c-0.1-1.1,1.1-2.7,2.2-3.5c0.5-0.4,2.1,0.4,3.1,1c3.6,2.3,7.2,4.7,10.8,7.1c0.4,0.3,1.1,0.5,1.3,0.9
	c3.7,6.8,11.3,9.2,16.4,14.5c0.6,0.7,1.9,1.1,2.9,1.1c4.9,0,9.7-0.3,14.6-0.4c9.2-0.2,18.4-0.2,27.6-0.6c4.6-0.2,9.1-1.1,13.7-1.4
	c2.2-0.2,4.6,0.2,6.8-0.1c4.6-0.7,9.2-2.2,13.8-2.7c5.9-0.6,11.9-0.5,17.8-0.9c7.9-0.6,15.8-1.3,23.8-2c7.9-0.7,15.8-1.3,23.6-2.2
	c5.2-0.6,10.4-1.9,15.6-2.3c8.2-0.7,16.4-0.8,24.7-1.2c2.7-0.2,5.3-0.7,8-0.9c2.9-0.2,5.9-0.2,8.9-0.3c2.8,0,5.6,0.2,8.4,0.1
	c5.9-0.3,11.8-0.7,17.7-1.1c3.8-0.3,4.3,3,5.3,5.2c0.7,1.6,0.3,3.8-0.1,5.6c-0.3,1.6-1.4,2.9-2.5,5c4.1,0.2,4.3,2.6,4.7,5.2
	c1.1,6.9-1.4,13.1-3.8,19.2c-1.4,3.5-4.7,6.4-8.8,7c-7.5,1-15,1.7-22.5,2.3c-10.8,0.9-21.5,1.9-32.3,2.6c-5.2,0.3-10.4-0.1-15.6-0.1
	c-0.7,0-1.4,0.1-2,0.3c-9.9,2.7-20.1,2.6-30.2,2.2c-4.7-0.2-9.3-0.9-14-0.7c-4.5,0.2-8.9,1.4-13.4,2.2c-5.2,0.9-10.3,1.9-15.6,2.7
	c-2.6,0.4-5.4,0.1-8,0.3c-5.7,0.5-11.3,1.7-17.2,0.8c-3.6-0.6-7.6,1-12,1.7c4.5,7.2,8.8,14.1,13.2,21.1c5.4,1.4,7.8,6.7,12.3,9.4
	c2.9,1.7,5.2,4.3,7.8,6.6c2.6,2.3,5.2,4.6,7.8,7c6.7,6.4,13.1,13.1,20.1,19.1c2,1.7,5.9,0.9,8.9,1.5c2.3,0.5,4.6,1.1,6.8,1.9
	c3.1,1.2,6.2,2.8,9.3,4c3.1,1.3,4.1,3.5,3,6.5c-1.2,3.4-5,5.5-8,4.4c-1.6-0.6-3.1-1.6-4.7-2.3c-7.1-3.1-14.3-6.2-21.4-9.3
	c-1.2-0.5-2.3-1.5-3.2-2.4c-2.9-2.7-5.4-6.1-8.8-8.2c-5.8-3.6-10.8-8-15.1-13.2c-6.3-7.6-14.2-13-22-18.7c-2.8-2-4.6-5.5-7-8.1
	c-4.8-5.2-7.4-12.1-13.7-16.1c-2.5-1.6-4.7-2.9-8.2-2c-3.8,1-8.1,0.4-12.1,0.5c-11.3,0.3-22.7,0.6-34.1,0.7c-1.5,0-3.1-1-4.4-1.9
	c-2.1-1.6-4.5-3.2-5.9-5.4c-3.4-5.1-6.5-10.4-9.5-15.8c-1.8-3.3-4.3-5-8.2-4.6c-0.9,0.1-1.9,0-2.8-0.1c-6.3-0.5-9.2,3.3-6.7,9.2
	c1.4,3.3,3.6,6.2,5.6,9.2c2.2,3.2,4.1,6.9,7,9.3c9.2,7.8,15.6,17.7,22.7,27.1c3.9,5.2,6.2,11.6,9.5,17.2c4.5,7.7,8.3,15.9,14.7,22.5
	c2.4,2.5,3.4,6.3,5.3,9.3c2.1,3.5,4.2,7.1,6.8,10.3c4.8,5.9,9.8,11.5,13.6,18.3c3.5,6.2,8.5,11.4,13.1,16.9
	c4.1,4.9,8.7,9.5,12.9,14.3c0.9,1.1,1.3,2.7,2.2,3.8c1.8,2.3,3.6,4.5,5.6,6.6c2.2,2.2,4.9,4.1,7.1,6.4c2.2,2.3,4.7,2.1,7.4,2.2
	c2.6,0.1,5.1,0.8,7.6,1.1c1.5,0.2,3,0.4,4.4,0.1c12.4-3.2,25.2-2.9,37.8-3.4c3.7-0.1,7.4,0.5,11.1,0.5c1.4,0,3.2-1.7,4.1-1.2
	c5.2,2.9,9.9-0.8,14.9-0.8c5.3-0.1,10.5-0.2,15.8-0.1c4.8,0.1,9.9,1.5,14.5,0.6c7.9-1.6,15.6,0.3,23.3,0.2
	c11.6-0.2,23.2-0.9,34.9-1.4c6.1-0.3,12.2-0.8,18.4-0.9c2.6-0.1,5.2,0.4,7.8,0.6c0.4,0,0.8,0.2,1.2,0.1c9.3-3.1,19-1.4,28.5-2.4
	c2.7-0.3,5.5,1.3,8.2,1.2c8.6-0.2,17.3-0.6,25.9-1.2c5.2-0.4,10.2-1.9,15.6-0.4c2.4,0.6,5.3-0.7,8-0.8c6.3-0.2,12.7-0.1,19.1-0.5
	c11.5-0.6,23-1.3,34.4-2.3c10.6-0.9,21.2-2.2,31.8-3.2c2.7-0.2,5.4-0.1,8.1,0.2c3.7,0.4,7.2,0.9,10.5-1.4c0.8-0.5,2.1-0.3,3.2-0.3
	c5.7-0.2,11.7,0.4,17.2-0.8c5.8-1.2,9.6,1.5,13.7,4.2c1.4,0.9,2.7,2.2,3.9,3.4c6.3,6,4.7,10.7-2.8,14c-6.2,2.7-13.2,3.8-19.9,4.9
	c-3.9,0.6-8.1-0.2-12.1-0.3c-0.7,0-1.5,0.3-2.2,0.5c-0.8,0.2-1.7,0.9-2.2,0.7c-5-2.3-9.8,0.6-14.7,0.4c-4.9-0.2-9.9,0.3-14.9,0.2
	c-8.4-0.3-16.8-1.4-25.1-1.3c-7.6,0-15.2,1.2-22.8,1.8c-4.2,0.3-8.3,0.1-12.5,0.3c-3.1,0.1-6.2,0.4-9.2,0.6
	c-2.2,0.2-4.4,0.6-6.7,0.7c-7.3,0.1-14.6,0-21.8,0.3c-6.7,0.3-13.4,1-20.2,1.4c-2.7,0.2-5.4-0.1-8.1,0c-7.6,0.3-15.1,0.9-22.7,0.9
	c-11.9,0-23.8-0.6-35.6-0.3c-9,0.2-18,1.6-27,2.2c-4.7,0.3-9.4,0.1-14.1,0.2c-13.2,0.4-26.5,0.9-39.7,1.4c-7.7,0.3-15.6-0.3-23,1.4
	s-14.3,0.5-21.5,0.7c-9.1,0.2-18.2,0.7-27.4,1.3c-3.1,0.2-6.1,0.9-9.1,1.8c-0.9,0.3-2.2,2-2,2.8c0.4,2.2,1.3,4.4,2.5,6.3
	c3.3,5.4,6.8,10.8,10.4,16.1c1.1,1.7,2.7,3,3.9,4.6c5.3,7.8,11.2,15.2,18.2,21.6c5.7,5.3,11.5,10.5,17.2,15.8
	c1.2,1.1,2.2,2.5,3.3,3.8c1.3,0.1,3-0.1,4.6,0.3c6.3,1.4,12.5,3.4,18.8,4.2c5.5,0.7,9.4,3.9,13.5,6.6c2.5,1.7,4.7,4.5,6.1,7.2
	c3.4,6.7-0.4,14.1-7.7,16c-1.3,0.3-2.7,0.5-4.4,0.8c0.1-1.2,0.1-2.3,0.2-4.1c-10.6,11.5-22.9,8-34.6,5.1c-5-1.2-10.4-3.9-13.3-9.4
	c-1.6-3.1-4.3-5.5-6.3-8.4c-0.5-0.7-0.5-1.9-0.5-2.9c-0.1-1.1,0.1-2.2,0.2-3.9c-1.6,0.9-2.6,1.5-4,2.4c-2.5-3.8-5-7.4-7.5-11.1
	c-0.7-1-1.3-2.5-2.3-2.7c-4.9-1.3-5.2-6.1-7.3-9.4c-3.6-5.4-6.4-11.4-10-16.8c-2-3.1-5.1-5.5-7.6-8.2c-6.6-7-11.9-15.2-18.2-22.3
	c-5.2-5.9-11.1-12.8-20.8-11.8c-4.1,0.4-8.4,0.7-12.4-0.1c-5.2-1-10.3-2.9-15.3-4.8c-2.4-0.9-3.7-3.1-3.2-5.9
	c0.4-2.3,0.8-4.6,1.4-6.8c0.2-0.8,1-1.8,1.7-1.9c3.5-0.8,7.1-1.8,10.7-1.9c3.2-0.1,5.6-1.3,8.3-3.5c-2.3-3.1-4.6-5.9-6.7-8.8
	c-1.6-2.2-2.9-4.5-4.4-6.7c-2-2.9-4.2-5.6-6-8.5c-1.6-2.6-2.7-5.5-4.3-8.2c-5.7-9.5-11.5-18.9-17.3-28.4c-3.1-5.1-5.9-6.1-11.3-3.7
	c-6.9,3.1-19.2-0.2-22.1-6c-1.8-3.8-2-7.6,0.1-11.6c2.7-5,4.9-10,10.1-13.2c2-1.3,3.2-3.1,0.7-6.2c-3.2-4-5.2-9.1-7.2-13.9
	c-3.8-9.1-9.9-16.7-15.9-24.2c-1.2-1.5-3.1-2.7-4.8-3.7c-4.3-2.5-8-5.2-9.9-10.2c-0.9-2.3-3.6-3.6-6.6-2.4c-0.4,0.2-0.8,0.3-1.1,0.4
	c-4.7,1.3-8.3,0.1-9.2-3.1c-1.1-4.1,1.7-8.9,5.9-10.1c2.1-0.6,4.2-1,6.3-1.3c2.9-0.4,4.2-2.1,3.8-4.7c-0.4-2.8-1.3-5.5-2.4-8.1
	c-0.3-0.7-2-1.2-3.1-1.2c-5.5,0-11.3-0.7-16.6,0.4c-7.1,1.5-13.8,4.2-20.6,6.7c-0.9,0.3-1.2,2.5-1.8,3.9c-3.3,7.1-6.7,14.3-10,21.4
	c0.3,0.2,0.7,0.5,1,0.7c1.1-1.7,2.5-3.3,3.3-5.2c2.9-6.5,8-8.2,14-4.5c2.9,1.8,4,4.6,3.1,7.7c-1.6,5.6-3.6,11-5.6,16.4
	c-1.4,3.8-3.2,7.4-4.7,11.1c-3,7.3-6,14.7-9,22.1c-0.9,2.4-1.8,4.8-2.4,7.3c-2.2,10.3-4.1,20.7-6.6,30.9c-1.7,6.8-4.3,13.3-6.5,20
	c-1.3,3.9-2.7,7.8-3.7,11.9c-2.5,10.5-5.1,21-7.2,31.5c-1.3,7,1.8,9.6,8.7,8.6c5.3-0.8,10.7-1.2,16-1.7c4.1-0.4,6.3,2.2,7.7,5.4
	c3.1,7.1,1.2,15.1-7.6,15.7c-5.1,0.4-10.2,0.1-15.3,0.3c-5.2,0.2-10.5,0.3-15.6,0.9c-1.2,0.2-2.9,2.1-3.2,3.5
	c-2,7.6-3.2,15.4-5.6,22.8c-5,15.9-3.4,32.8-7.3,48.9c-0.8,3.4-0.1,6.9,2.7,9.8c1.4,1.5,1.6,4.1,3,5.7c3.6,4.1,8.1,7.3,13.8,7.5
	c5.1,0.2,10.2-0.4,15.3-0.5c3.1-0.1,6.3,0.6,9.3-0.1c7.1-1.5,14.2-3.3,21-5.5c7.7-2.5,15.2-5.6,22.7-8.6c2.2-0.9,4.1-2.6,6.3-3.6
	c1.4-0.7,3.1-0.8,4.7-1.2c0.2,1.5,0.5,3,0.4,4.5c-0.3,4.9-5.1,5.2-8,6.9c-6.1,3.4-12.7,5.8-19.1,8.7c-5,2.3-5.2,5.4-1,8.8
	c5,4.1,8,9.3,6.9,15.9c-0.2,1.3-1.9,2.8-3.2,3.3c-4.9,1.8-10,3.3-15.1,4.9c-1.3,0.4-2.7,0.4-4,0.5c-7.7,0.3-15.3,1.1-23,0.7
	c-5.7-0.2-11.4-1.9-17.1-2.9c-1.8-0.3-3.6-1-5.5-1.1c-3.8-0.1-7.6,0-11.3,0.1c-3.2,0.1-6.4,0.3-9.5,0.4c-0.4,0-0.8,0.1-1.2,0.1
	c-9.8-1.3-19.7-2.9-29.5-3.7c-9.2-0.8-18.4-0.7-27.6-1.2c-2.8-0.1-5.6-0.7-8.3-1.4c-4-1.1-5.2-5.2-2.7-8.7c3-4.2,6.1-8.2,8.7-12.6
	c1.2-2.1,1.6-4.9,1.8-7.4c0.2-2.2-4.9-5.1-8.6-5.4c-7.4-0.6-14.8-0.9-22-2.3c-3.7-0.7-7.6-1.8-9.9-6.1c-3.2-5.8-6.3-6.4-12.3-3.8
	c-1.2,0.5-2.7,0.4-3.9,0.8c-1.2,0.4-2.4,0.9-3.5,1.6c-0.7,0.4-1.3,1.6-1.8,1.5c-6-1.2-8.3,4.9-13,6.3c-6.4,2-12.4,5-18.8,7.3
	c-1.7,0.6-4,0.2-5.9-0.2c-4-0.8-6.2,0.4-7.3,4.3c-0.8,2.6-1.7,5.2-2.8,7.7c-3,6.5-8.8,8.6-15.3,9.8c-4.7,0.8-8.5-1.4-12.3-3.3
	c-0.9-0.4-1-2.6-1.2-4.1c-0.8-5-1.2-5-6.2-4.4c-4.9,0.6-9.8,0.3-14.8,0.4c-1.5,0-3,0.1-4.5,0.1c-4.2,0.1-8.3,0.2-12.5,0.2
	c-9.8-0.2-19.6-0.5-29.4-0.9c-3.1-0.1-6.1-1-9.2-1.5c-7.2-1.1-14.4-2.1-21.6-3.3c-3.8-0.6-7.8-1.2-11.5-2.3c-4.3-1.4-8.2-3-13.2-2.7
	c-4.6,0.2-9.4-2.1-13.9-3.8c-4.6-1.8-8.9-4.6-13.5-6.4c-5.6-2.2-11.3-4.2-17.1-5.5c-2.6-0.6-5.9,0.2-8.4,1.4
	c-8.8,4-17.1,9-25.1,14.4c-7,4.7-14.5,8.7-21.8,12.8c-4.7,2.7-9.3,5.3-14.2,7.6c-5.5,2.5-11.2,1.6-16.4-0.9
	c-7.4-3.6-14.5-7.6-20.3-13.6c-1.3-1.3-3.5-2.1-5.3-2.4c-2.9-0.6-4.8-1.9-6.3-4.5c-0.8-1.5-2.5-2.5-4-3.5c-3.3-2.1-6.6-4-9.9-5.9
	c-4.4,2.4-4.9,2.1-6.4-2.5c-0.3-0.8-1.2-1.9-2-2.1c-4.4-1.2-8.9-1.7-13.2-3.2c-1.7-0.6-2.6-3.1-4.3-5.3c-0.7,0.4-1.9,1.2-3,1.8
	c-3.3-2.1-6.4-4.3-9.7-6.2c-0.7-0.4-1.8,0.1-2.7-0.1c-1.6-0.3-3.2-0.8-4.8-1.2c0.4-1.4,0.7-2.8,1.2-4.6c-1.3-1.3-2.8-3.3-5.2-0.3
	c-0.3,0.4-1.5,0.4-2.2,0.3c-2.1-0.4-4.2-0.8-6.3-1.5c-2.1-0.7-3.8-1.6-4.2-4.3c-0.7-4.2-2.6-4.9-6.5-3.1c-0.3-0.8-0.6-1.7-1.1-2.8
	c-2.8,1.5-5.2,1.3-8.3,0.5c-2.9-0.7-5.5-2.8-8.7-2.5c-2.1,0.2-2.8-1-2.9-2.9c-0.4-5.6-0.8-5.8-6.2-4.3c-0.6,0.2-1.3,0.1-2.4,0.2
	c0.2-0.9,0.4-1.6,0.6-2.3c2.2,0,2.5-1.4,2.8-3.2c0.4-2.4,3.1-3.4,3.9-1.6c1.2,2.7,3.5,2.3,5.4,3.1c3.7,1.7,7.3,3.6,11.1,5.1
	c2.8,1.1,5.8,1.5,8.6,2.4c2.8,0.9,5.6,1.9,8.1,3.3c5.2,2.7,10,6.5,15.4,8.1c12.1,3.7,23,9.8,34.3,15.3c6,2.9,11.9,6.2,17.8,9.5
	c2.2,1.2,4.1,2.9,6.2,4.4c-1.7,1.2-2.8,2-3.9,2.7c0.2,0.3,0.4,0.5,0.5,0.8c5.4-2.5,6.5-2.4,11.3,0.1c4.3,2.2,8.6,4.2,13,6.2
	c4.4,2,9,3.5,13.2,5.9c5,2.8,9.6,2.2,13.9-0.8c2.7-1.9,5.2-3.2,8.6-2.1c0.9,0.3,2.5,0.1,3-0.5c4.6-5.2,13.6-4.6,16.5-12.2
	c0.4-1,1.8-2,2.9-2.1c4.4-0.4,5.8-4.7,8.8-6.7c1.8-1.2,1.8-3.2-0.3-4.1c-2.7-1.2-5.6-1.9-8.4-2.7c-4.9-1.4-10.5-1.7-14.5-4.4
	c-5.6-3.9-11.3-7.1-17.8-8.6c-1.7-0.4-4,0-5.6,0.9c-5.8,3.2-11.6,4.1-17.2,0.5c-2.5-1.6-5.5-3-6.1-6.9c-0.7-5.3,0.4-9.5,4.7-12.9
	c2.1-1.6,3.5-4.4,5.8-5.3c5.4-2.2,13.2,0.6,16,5.8c2.7,4.8,7,6.8,11.5,9.1c5.2,2.5,11.3,3.3,14.9,8.6c0.3,0.4,0.9,0.5,1.5,0.7
	c2.7,0.9,5.4,1.7,8.1,2.6c5.2,1.6,10.5,3.3,15.8,4.9c3.2,0.9,6.9,2.9,9.7,2.1c6.1-1.8,12.1-4.5,17.7-7.7c5-3,9.2-7.3,15.4-7.8
	c0.4,0,1-0.6,1.2-1c3.3-5,8.8-3.7,12.2-4.7c1.5-1.6,2.3-3,3.4-3.5c3.5-1.5,7.5-2.3,8.9-5.7c1.9,0.3,3.5,1.2,4.7,0.8
	c3.2-1.3,6.2-3.1,9.3-4.7c3.7-1.9,7.4-3.8,11-5.9c3.3-1.9,6.8-3.7,9.6-6.3c2.5-2.3,4.3-5.2,7.7-6.9c1.9-1,3.2-4.2,3.7-6.6
	c0.2-0.9-2.3-2.9-3.9-3.6c-2.7-1.2-4.4-2.9-5.3-5.7c-0.4-1.5-1-3.2-2.1-4.3c-1.3-1.3-3.3-3.1-4.8-3c-8.6,1-16.6-1.2-24.8-3.1
	c-3.5-0.8-3.5-3.1-3-5.4c1-5,6.2-8.6,11.1-10.3c4.1-1.5,7.8-4.5,11.1-7.6c1.5-1.4,1.6-4.5,1.8-6.9c0.4-4.2,0.7-8.3,0.6-12.5
	c-0.1-4.6-0.8-9.1-1.2-13.7c-1.1-11.4-2.2-22.8-3.3-34.2c-0.2-2.3-1.4-3.4-3.9-2.4c-4.6,1.8-9.3,3.4-14,5.1
	c-8.7,3.1-17.3,6-25.9,9.2c-3.4,1.3-6.5,3.2-9.8,4.7c-5.1,2.3-10.6,4-15.3,6.9c-5.7,3.5-12.9,4.5-17.5,9.8c-0.3,0.4-1,0.4-1.5,0.6
	c-2.4,1.1-4.9,2.2-7.3,3.4c-4,2.1-7.4,5.1-11.1,7.7c-7.4,5.2-15.6,9.3-23.4,14c-2.6,1.5-6,2.2-6.5,6.1c-0.1,0.7-1.2,1.4-2,1.9
	c-2.2,1.6-4.4,3.1-6.6,4.6c-1.5,1.1-3,3.1-4.6,3.2c-5,0.1-6.6,5.1-10.5,6.7c-5.1,2.2-9.7,5.7-14.9,7.5c-5.3,1.9-11,2.5-16.6,3.6
	c-1.4,0.3-2.9,0.3-4.4,0.3c-2,0-4-0.4-5.8-0.1c-4,0.7-7.9,2.3-11.9,2.5c-13,0.7-26.1,0.8-39.1,1.4c-6.8,0.3-13.7-1.3-20.4,1.6
	c-1.5,0.7-3.9-0.8-5.9-0.7c-9,0.2-17.9,1.1-26.9,0.9c-8-0.2-16.1-1.6-24.1-2.4c-1.3-0.1-3.1-0.2-3.8,0.6c-3.9,4.5-9.4,2.8-14.1,3.4
	c-4.2,0.6-8.6-3-13.1-0.2c-0.3,0.2-1-0.4-1.5-0.4c-1,0-2,0.2-3.1,0.3c0.7,1.1,1.1,2.6,2.1,3.3c1.5,1.1,3.3,1.7,5,2.5
	c1.8,0.9,3.7,1.8,5.4,2.9c1.1,0.7,2.9,1.5,3.1,2.5c0.5,2.8,2.4,3.4,4.7,4.3c2.7,1,5.1,2.6,7.5,4.2c3.5,2.4,6.5,5.3,11.5,5.3
	c3.9,0,8.1,1.8,11.8,3.5c3.5,1.6,6.3,4.6,9.7,6.3C358.2,1067.4,359.6,1069.9,358.2,1074z M850.4,732.6c0.9-1.4,1.6-3.5,2.7-3.8
	c3.5-0.8,8.1-2.5,10.5-1c6.7,4.2,13.6,8.8,13.9,18.4c0.2,7.2-2.9,10.7-10.1,10.2c-15.5-1.1-31-2.3-46.6-3.1
	c-15.4-0.8-30.8-1.1-46.2-1.6c-2.3-0.1-4.7,0-6.9-0.6c-4.8-1.3-9.3-1.1-13.9,0.5c-2.5,0.9-5.1,1.6-7.7,2.6c-1.3,0.5-2.5,1.4-3.7,2.2
	c1.2,0.9,2.4,2.2,3.8,2.5c1.9,0.5,4,0.2,6.1,0.3c0.9,0,2.3-0.2,2.7,0.3c2.4,2.8,5.4,1.7,8.3,1.7c7.3,0.1,14.6,0,21.9,0.5
	c7.6,0.5,15.2,1.7,22.8,2.7c1.1,0.2,2.6,0.6,3.1,1.5c1.1,2,2.5,4.3,2.4,6.4c-0.1,3.1-3.1,4.1-5.8,4.8c-3.1,0.8-6.3,1.4-9.5,2.2
	c-1.8,0.5-3.5,1.4-5.3,1.6c-7.3,1.1-14.7,1.8-22,3.1c-16,2.8-31.3,8.6-47.7,9.7c-5.6,0.4-9.1,3.5-8.8,7.9c0.4,6,1.7,12,3,17.9
	c0.2,1.1,2.4,2.2,3.8,2.6c2,0.5,4.2,0.2,6.2,0.3c6.5,0.5,13,3.3,19.5,0.2c5-2.4,10.1-1.2,15.1-0.4c1.5,0.2,3.1,0.4,4.6,0.2
	c5.6-0.8,11.1-2.3,16.7-2.7c7.1-0.5,14.3-0.2,21.4-0.2c9.2,0,18.4,0,27.5-0.1c3.2,0,4.7,2.1,5.5,4.4c1,2.5,0.1,4.9-2.6,6.1
	c-2.1,0.9-4.3,1.6-6.5,2.3c-2.8,0.9-5.7,1.6-8.6,2.4c-4.1,1.2-8.1,3-12.2,3.5c-8.5,0.9-17,1-25.5,1.7c-9.3,0.8-18.5,1.7-27.8,2.7
	c-8.3,0.9-16.5,2.2-24.8,3.1c-5.5,0.6-7.8,2.7-6.8,8.1c2.3,12.3,4.9,24.6,7.7,36.8c1.1,4.7,5.2,6.7,9.9,5.7
	c3.5-0.7,7.1-1.3,10.6-1.7c10.6-1.2,21.2-2.4,31.9-3.2c8.4-0.7,16.8-0.6,25.1-1.2c6.8-0.5,13.6-1,20.5-0.6c9.2,0.6,18.4-0.1,27.6,0
	c3.1,0,6.3,0.8,9.4,0.8c4.8,0,9.6-0.6,14.4-0.8c7.1-0.2,14.3,2,21.3-1.1c0.9-0.4,2.4,0.1,3.4,0.6c6.3,3,10.6,7.8,12.5,14.6
	c1.1,3.8,3.4,6.5,6.4,9.1c2.4,2.1,4.2,5.1,5.8,7.9c1.6,2.9,2.9,6.1,3.8,9.2c0.3,1.1-0.5,3.2-1.5,3.9c-3.6,2.7-7.8,3.4-12.3,2.3
	c-1.2-0.3-2.9-0.5-3.9,0.1c-6.2,3.6-13.2,3.7-19.9,4.7c-10.1,1.5-20.3,2.3-30.5,3.3c-3.7,0.3-7.5,0.3-11.2,0.4
	c-1.8,0.1-4.1-0.5-5.5,0.4c-5.8,3.4-12.1,3.5-18.1,2.3c-5.8-1.1-11.2-0.6-16.8,0.3c-7.9,1.3-15.7,2.5-23.6,3.8
	c-1.3,0.2-2.6,0.5-3.9,0.8c-6.3,1.5-12.6,3-18.9,4.6c-5.6,1.4-11.3,2.4-16.7,4.4c-5.9,2.2-6.6,5.2-5.4,11.2c1.5,7.3,2.6,14.6,3.5,22
	c0.6,5,2.9,8.3,7.8,8.5c5.6,0.2,11.2-0.4,16.9-0.5c6.8-0.2,6.9,0,7.5,6.7c0.3,3.3-1.1,5.4-4.2,6.5c-1.5,0.5-3,1.2-4.5,1.8
	c-5.7,2.6-7.1,8.8-2.8,13.2c4.1,4.2,8.6,8,12.7,12.1c4.4,4.5,8.5,9.3,13,13.7c1.7,1.7,4.6,2.3,6.3,4c4,4,7.9,8.2,11.5,12.6
	c2.8,3.4,6.2,5.6,10.1,7.6c5,2.6,9,7.2,13.6,10.6c3,2.2,6.3,4.1,9.8,5.3c2.8,1,5.7,0.9,8.3-2.1c3.7-4.3,8.3-7.9,12.7-11.8
	c0.7-0.6,1.9-0.5,2.6-1.1c2.2-1.7,4.9-3.2,6.2-5.4c1.5-2.5,3.1-3.6,5.8-4.3c2.9-0.8,5.9-2.2,8.2-4c9-6.9,16.1-15.5,21.6-25.4
	c2.5-4.4,0.5-8.8-4.5-9.7c-2.7-0.5-5.3-1.6-7.8-2.7c-3.5-1.4-4-4.9-3.2-7.5c0.9-2.8,3.2-6.1,5.7-7.3c2.9-1.4,6.8-0.8,10.3-0.9
	c6.7-0.2,12.9,3.1,20,2.1c3.6-0.5,5.6-1.8,6.9-4.4c2.2-4.6,4.1-9.4,5.9-14.2c3.1-7.9,6-15.8,9-23.8c1.3-3.5,2.7-7.1,4.1-10.6
	c1.5-3.7,3.3-7.3,4.6-11.1c2.9-8.4,5.2-17.1,8.5-25.3c4.1-10.2,8.2-20.4,10.6-31.3c1.6-7.2,3.4-14.6,6.7-21.2
	c3.6-7.4,4.6-15.2,6.2-22.9c1.2-5.7-0.9-7.7-6.6-7.6c-15,0.2-29.9,0.5-44.9,0.5c-10,0-20-0.4-30-0.7c-4.6-0.1-9.2-0.6-13.8-0.8
	c-2.9-0.1-4.8-1.8-5.3-4.2c-1.6-7.6-2.5-15.3,0.5-22.8c0.7-1.7,3.2-3.8,5-3.9c14.3-0.3,28.6-2.6,42.9,0.1c1.2,0.2,3.3-1.1,4-2.3
	c1.1-1.9,1.7-4.3,1.8-6.6c0.4-8.2,3.6-15.5,6.6-22.9c2.1-5.2,4.7-10.3,6.6-15.6c2.9-8.3,5.3-16.7,8-25.1c2.8-8.7,1.7-10.5-7.6-11.1
	c-5.4-0.3-10.8-0.6-16.2-1c-4.1-0.2-7.6-1.7-10.2-5.1c-2.8-3.6-1.4-8.3,1.8-11.1c3.9-3.4,7.6-5.8,12.9-4.4c0.1,0,0.3-0.1,0.4-0.1
	c5.3-0.7,10.6-1.2,15.9-2.2c1.8-0.3,4.2-1.3,4.8-2.7c0.9-2.2-0.2-4.4-2.8-5.6c-1.1-0.5-2.2-1.6-2.7-2.7c-2.4-6.1-7.7-9.6-12.1-13.8
	c-2.8-2.6-6.7-4.1-9.4-6.8c-2.4-2.4-5-3.7-8.2-4.6c-6.3-1.8-13-3.4-18.7-6.6c-6.6-3.7-13.2-6.1-20.6-6.1c-7.5-0.1-14.9,1.1-22.5,0.1
	c-6.2-0.8-12.7,0.2-19,0.5c-1.2,0.1-2.5,0.6-3.7,1.1c-3.5,1.5-4,4.7-4.4,8c-0.8,6.5-6.2,10.4-12.6,9.3c-2.6-0.4-5.2-1.6-7.8-1.6
	c-4.7,0-9.5,0-14.1,1.1c-4.6,1.1-9.5,2.8-13.2,5.5c-3.5,2.6-5.7,7.1-8.7,10.4c-2.6,2.8-5.6,5.2-8.5,7.8c-1,0.9-2.3,1.5-2.9,2.5
	c-3.3,5.9-3.3,12.2-1.5,18.4c0.3,1,1.4,2.3,2.3,2.5c4,0.8,8,1.5,12,1.8c6.6,0.5,13.2,0.5,19.8,0.9c7,0.4,14,0.9,21,1.6
	c3.4,0.4,6.8,1.3,10.2,2.2c1.1,0.3,1.8,1.7,2.8,2.5c-1.2,0.6-2.4,1.4-3.7,1.8c-1.1,0.4-2.6-0.1-3.6,0.5c-5,3-10.3,0.7-15.4,0.8
	c-11.7,0.3-23.4-0.9-35.2-1.1c-8.9-0.2-17.8,0.3-26.8,0.4c-0.9,0-2,0-2.8-0.4c-6.6-3.1-13.6-1.5-20.4-2.1
	c-5.7-0.5-11.6-0.1-17.2-1.3c-6.7-1.5-12.4-0.6-18,3.1c1.4,7.6,2.7,14.9,4.2,22.9c5.5-5.8,10.7-10.1,18.3-9.9c1.4,0,2.9-0.7,4.3-1.2
	c4.4-1.6,8.7-3.9,13.2-4.7c7.6-1.4,15.2-4.3,23.2-2c3.1,0.9,6.4,1,9.6,1.2c6.6,0.5,13.3,0.3,19.8,1.4c10.8,1.8,21.5,2.3,32.3,1.5
	c1.8-0.2,3.8,0.1,5.6,0.7c3.7,1.3,7.4,1.2,11.2,0.5c1.8-0.3,3.9-0.5,5.5,0.1c2.7,1,4.5,0.7,5.8-1.8c1.3-2.6,0.9-5-1.6-6.8
	C853.2,734.2,852,733.6,850.4,732.6z M959.5,588.1c0.6-5,0.9-9.8-1.2-14.7c-2.1-4.9-5.7-8.4-8.9-12.3c-2.5-3.1-4.8-6-8.7-7.4
	c-2.6-0.9-4.6-3.2-7-4.7c-3-1.9-6-4.8-9.2-5.3c-5.4-0.8-10.1-2.7-14.5-5.5c-4-2.5-5.9-6.6-4.5-9.7c2.8-6.2-0.1-11.1-3.3-15.8
	c-6.1-8.8-12.6-17.4-18.8-26.2c-3-4.1-6.2-8.1-8.5-12.6c-3.2-6.3-6.8-11.4-14.9-10.9c-5.3,0.3-8.6-3-10.8-7.2c-2.3-4.3-2.2-8.9,1-13
	c1.2-1.5,2.3-3,3.1-4.7c1.8-4.1-1-6.7-2.8-10.1c-5-9.5-9.3-19.5-13.3-29.4c-4.2-10.5-7.7-21.2-11.7-31.8c-0.8-2.1-2.3-3.9-3.3-6
	c-2.6-5.5-4.9-11.1-7.5-16.6c-1.3-2.9-3-5.7-4.2-8.6c-2.3-5.4-3.9-11.2-6.8-16.3c-3-5.1-3.6-10.9-7-15.9c-5.4-8.1-9.4-17.1-14-25.7
	c-0.4-0.7-0.7-1.5-1.1-2.2c-2.7-4.6-5.5-9.1-8.1-13.8c-2.1-4-3.9-8.2-5.8-12.2c-1-2-1.9-4.1-3.2-6c-2.7-3.9-5.3-7.9-8.4-11.4
	c-2.2-2.6-5.1-4.8-8-6.5c-1-0.6-3.2,0.7-4.8,1.3c-5.2,1.8-8,7.7-6.2,13c2.3,7.1,4.7,14.3,6.9,21.4c2.4,7.7,4.9,15.4,7.2,23.2
	c1.4,4.8,2.3,9.7,3.7,14.5c1.2,4,2.8,7.8,4.1,11.8c1.8,5.3,3.6,10.7,5.4,16c2.3,6.6,4.7,13.1,7,19.7c1.7,4.9,3,10,4.9,14.9
	c2.4,6.1,5.5,11.9,8,18c3.4,8.2,6.3,16.6,9.7,24.9c1.8,4.4,3.7,8.7,6,12.8c4.8,8.2,9.9,16.2,15,24.3c3.9,6.2,7.8,12.4,11.9,18.5
	c1.9,2.8,4.4,5.2,6.1,8c2.5,4.2,4.1,9,6.8,13.1c3.2,4.9,4.6,10.4,4.8,16c0.2,5.8-0.4,11.6-0.9,17.4c-0.6,5.6,1.9,10.3,5.2,14
	c2.7,3,7.3,4.5,11.2,6.2c6.8,2.9,12.8,7.3,13.8,14.8c1.5,10.3,10.2,15,15.2,22.6c1.8,2.8,5.8,4.2,8.9,6.2c4.6,3,9.3,5.7,13.8,8.8
	c2.6,1.8,4.6,4.7,7.4,6.1c8.9,4.7,18,9.1,27.1,13.5c3.1,1.5,4.4,0.8,6-2.3c0.8-1.5,1.8-3.2,3.2-3.9c2.9-1.6,4-3.8,3.9-6.9
	C959.2,591.6,959.4,589.8,959.5,588.1z M813.6,1119.6c0.2,0.4,0.3,0.8,0.5,1.3c1.7-0.8,3.5-1.5,5.1-2.3c2.9-1.5,5.7-3.5,8.7-4.6
	c2.5-0.9,5.1-1.2,6.1-4c1-3.1,1.8-6.3-1.1-9.1c-5-4.9-9.3-10.8-16.7-12.6c-0.7-0.2-1.4-0.8-2-1.4c-5.9-5.9-11.7-11.8-17.7-17.7
	c-0.7-0.7-1.6-1.4-2.6-1.8c-4-1.7-8.1-3.3-12-5.1c-0.6-0.3-0.9-1.3-1.2-2c-2.6-7.8-7.7-13.4-15.1-17c-1-0.5-1.9-1.5-2.7-2.4
	c-2.3-2.7-4.3-5.6-6.8-8.1c-1.4-1.4-3.5-2.4-5.5-3c-4.8-1.4-9.2,0.9-13.2,2.7c-8.7,4-17,8.8-25.7,12.8c-10.6,5-21.5,9.3-32,14.4
	c-9.9,4.9-19.5,10.4-29.2,15.8c-7.5,4.1-15,8.4-22.5,12.6c-0.8,0.5-1.8,0.7-2.6,1.1c-3.7,1.8-7.5,3.5-11.1,5.6
	c-3.7,2.2-7.1,4.8-10.6,7.3c-2.2,1.6-2.2,4.8,0.4,5.9c10.5,4.6,20.9,9.1,31.6,13.2c3,1.2,6.7,0.3,10,0.9c6.8,1.2,13.5,2.7,20.2,4.1
	c4,0.8,7.9,1.6,11.9,2.4c4.8,1,9.5,2.3,14.2,2.9c6.8,0.9,13.6,1.3,20.4,2c0.4,0,1,0,1.2,0.2c2.6,3.2,5.9,1.5,9,1.3
	c4.7-0.3,9.6-1.4,14.1-0.5c3.7,0.7,6.5,0.9,9.2-1.8c0.5-0.5,1.4-0.8,2.2-1c5.1-1.1,10.2-2.8,15.4-3.2c11.9-1,23.6-3,35.2-5.4
	c2.4-0.5,4.7-1.3,7-1.9C808.4,1120.9,811,1120.2,813.6,1119.6z M814,899.8c0-0.2,0-0.4,0-0.7c-0.7,0-1.4-0.2-2-0.1
	c-9.2,1.1-18.4,2.3-27.6,3.4c-6.8,0.8-13.7,1.6-20.5,2.4c-8.4,1.1-16.8,1.7-25,4.3c-3,1-3.6,3-3.3,5.6c0.2,1.2,0.8,2.3,0.9,3.5
	c1.1,8.7,2.1,17.4,3.3,26.1c0.9,6.2,2.4,7.3,8.3,5.2c11-3.9,22.6-3.5,33.8-5.9c3.1-0.7,6.4-0.6,9.5-1.3c3-0.7,5.8-2.4,8.8-2.8
	c7.4-1,14.8-1.7,22.2-2.3c7.9-0.6,15.9-0.9,23.9-1.3c5.6-0.3,11.2-0.2,16.8-0.7c5.8-0.5,11.5-1.5,17.2-2.2
	c10.9-1.3,21.9-2.6,32.8-3.9c0.8-0.1,1.6-0.9,2.1-1.6c2.6-4,1.1-11.5-3.6-13.8c-5.1-2.5-7-6.4-7.8-11.5c-0.3-2.1-1.2-3-3.5-3
	c-8.6,0-17.2-0.3-25.8-0.3c-14.4,0.1-28.7,0.3-43.1,0.5C825.5,899.4,819.8,899.7,814,899.8z M1374.3,808c-0.6-1-2.1-2.2-2.3-3.6
	c-0.5-3.3-2.4-4-5.2-3.6c-1.9,0.2-3.7,1-5.5,1.1c-10.9,0.5-21.9,1.1-32.8,1.4c-12.2,0.4-24.3,1.3-36.5,3.1
	c-16.6,2.4-33.2,4.1-49.9,6c-10.6,1.2-21.2,2.1-31.9,3c-6.1,0.5-12.1,0.9-18.2,1.4c-5.2,0.5-10.4,1.1-15.6,1.6
	c-6.4,0.6-12.9,0.9-19.3,1.5c-6.3,0.6-12.6,1.6-18.9,2.2c-5.8,0.5-11.6,0.4-17.4,1.1c-2.4,0.3-4.8,1.7-7.1,2.8
	c-0.6,0.3-0.9,2-0.7,2.8c1.2,3.5,2.7,6.9,4.1,10.3c1.2,2.7,3.2,2.9,6,2.6c4.3-0.5,8.8-0.2,13.2-0.2c1.2,0,2.5,0.6,3.5,0.2
	c6.6-2.6,13.4,0.4,20.1-0.8c2.2-0.4,4.4-0.3,6.6-0.4c2.8,0.7,2.7,0.1,7-0.5c11.6-1.4,23.3-2.4,35-3.3c6.1-0.5,12.3-0.5,18.5-0.7
	c2.1-0.1,4.3-0.1,6.4-0.7c6.4-1.7,12.8-3.6,19,1.4c1.2-4.3,4.2-4.8,7.9-3.9c0.9,0.2,1.9-0.1,2.8-0.1c14.8,0,29.4-3.7,44.4-2.8
	c5.4,0.3,10.8-1.4,16.3-2c3.6-0.4,7.3-0.4,10.9-0.7c7.7-0.6,15.3-1.8,22.9-1.9c11.1-0.2,13.2-1.7,14.4-12.7
	C1372.5,811.1,1373.6,809.6,1374.3,808z M727.8,721.2c0-0.1,0.1-0.3,0.1-0.4c4.2,0,8.4-0.6,12.5,0c4.5,0.7,4.9-1.7,5.3-5
	c0.6-6,4.9-10.1,10.7-9.8c3.4,0.2,4.6-1.5,6.2-3.9c2.1-3.1,5.2-5.6,7.6-8.6c3.7-4.5,9.4-6.9,11.8-12.6c1.5-3.6,0.9-5.2-3-5.3
	c-9.7-0.3-19.4-0.5-29.1-0.5c-11.2,0-22.4,0.4-33.7,0.3c-5.5-0.1-10.8-0.9-16.1,2c-2.9,1.6-5,2.8-4.5,6.5c1.4,10,2.5,20,4,30
	c0.2,1.1,1.8,2.6,3.1,2.9c2.3,0.7,4.8,0.5,7.2,0.9C715.9,719,721.8,720.1,727.8,721.2z M633.5,749.8c-4.3,1.1-8.1,1.9-11.8,3
	c-8.1,2.5-15.9,5.8-24.1,7.6c-11.7,2.5-23.7,3.5-35.7,2.8c-2.9-0.2-5.9-0.2-8.8-0.6c-5-0.7-10-1.7-15-2.4c-0.9-0.1-1.9,0.4-2.8,0.6
	c-0.1,0.3-0.1,0.7-0.2,1c1.8,1,3.7,2,5.5,2.8c3.7,1.7,8,2.6,10.1,6.7c0.3,0.6,1.2,1.1,1.9,1.1c6.2,0.4,11.7,2.8,16.9,6.1
	c3.3,2,7,3.4,10.5,4.8c2.6,1,4.4,2.3,3.5,6c3.5-3.6,6.3-0.9,9.1,0.4c7.3,3.4,14.5,7.1,21.8,10.6c4.3,2,8.9,3,13.7,1.6
	c2.1-0.6,4.3-1.4,6.5-1.4c5.1-0.1,5.6-0.2,5.6-5.4c0-6.6-0.8-13.2-0.7-19.7C639.8,766.3,634.6,758.7,633.5,749.8z M673.4,939
	c-0.1,0-0.2,0-0.3,0c0.6,7.8,1.3,15.5,1.9,23.3c0.3,3.9,0.5,7.8,0.8,11.7c0.1,2,0.7,3.3,3.3,2.9c7.4-1.1,14-4.4,20.6-7.4
	c7.2-3.2,14.2-6.9,21.3-10.5c5.2-2.6,6.5-5.4,5.4-11.2c-0.7-4-1.2-8-1.8-12c-0.9-5.9-1.4-11.8-2.8-17.6c-1.3-5.4-3.6-6.6-9-5.4
	c-7.8,1.8-15.4,3.8-23.1,5.9c-4.2,1.1-8.2,2.5-12.4,3.6c-3.2,0.9-4.3,3.1-4.2,6.1C673.2,931.9,673.3,935.4,673.4,939z M674.8,734
	c-8.5,0-17.1,0.2-24.4,5.3c-1,0.7-2.1,2.4-2,3.5c0.5,7.4,1.3,14.7,2.1,22.1c0.5,4.3,0.9,8.6,1.5,12.8s0.8,8.6,2,12.8
	c1.6,5.9,2.8,6.4,9,5.1c0.7-0.1,1.3-0.4,2-0.5c8.7-1.9,17.3-3.9,26-5.6c5.7-1.1,6.7-2.4,5.5-8.3c-1.1-5.6-2.3-11.1-3.1-16.7
	c-1.1-8.3-1.8-16.7-2.8-25c-0.5-4.8-4.8-7.6-9.3-6.5C679.1,733.6,677,733.7,674.8,734z M922.2,1070.3c0.1,0,0.2,0,0.3-0.1
	c-0.4-2.4-0.6-4.8-1.5-7c-0.2-0.5-3.1,0.2-4.8,0.3c-0.2,0-0.5-0.2-0.8-0.3c-3.6-0.7-9,1.8-11,4.9c-2.1,3.4-5,6.1-9.1,5.8
	c-2.3-0.2-3.3,0.8-4.7,2.1c-5.2,4.9-10.4,9.6-15.7,14.4c-0.3,0.3-0.7,0.5-1,0.7c-3.2,2.1-6.5,4.2-9.8,6.3c-2.9,1.9-4.9,4.4-4,8.1
	c1.1,4.7,4.1,8.5,8.5,9.5c7,1.6,14.1,4,21.6,3.1c1.6-0.2,3.4,0.6,5,1.2c3,1,6,0.5,7.7-2c2.3-3.5,3.8-7.4,5.5-11.2
	c2.1-4.6,1.1-10.6,6.3-13.9c0.3-0.2,0.4-0.7,0.5-1.1c2.2-6.1,4.5-12.3,6.7-18.4C922.3,1072,922.2,1071.1,922.2,1070.3z M612.3,544.6
	c0.3,0,0.6-0.1,0.9-0.1c-0.3-2.5-0.6-5-0.8-7.6c-0.7-8.5-1-17-2.1-25.3c-1-8-2.8-15.9-4.4-23.9c-0.5-2.5-2.5-2.8-3.8-1
	c-2.9,3.8-6,7.7-7.8,12c-1.9,4.8-2.6,10.1-3.6,15.2c-2.2,11.2-4.3,22.5-6.4,33.8c-0.5,2.9-0.9,5.9-1.4,8.8c-0.4,2.3,0.4,3.7,2.8,4.6
	c4.9,1.7,9.8,1.5,14.8,0.8c2.8-0.3,5.8-0.3,8.7,0.2c2.8,0.5,4.3-0.2,4.7-2.8c0.2-1.4,0.1-3-0.1-4.4
	C613.4,551.4,612.9,548,612.3,544.6z M1011.7,758.9c0.2-2.8,0.4-5.7,0.4-8.5c0-3.4,0.2-6.8-0.3-10.1c-0.4-2.9-3.2-4.4-4.9-2.8
	c-2.5,2.3-5.4,4.3-5.9,8.3c-0.6,4.2-1.3,8.6-3,12.6c-3.6,8.5-8.1,16.7-11.6,25.2c-2.7,6.4-4.6,13.2-6.5,20c-1.1,3.8,0.4,5.7,3.9,7.2
	c4.6,1.9,9.2,3.2,14.2,2.1c1.4-0.3,2.9,0.1,4.4,0.4c5.1,1.2,7.7,0,8.4-5.2c1.1-7.2,2.4-14.7,1.6-21.8
	C1011.3,777.1,1010.5,768.1,1011.7,758.9z M542.4,649.9c-0.1,0.5-0.2,1.1-0.3,1.6c3,0.9,6,1.7,9,2.7c4.2,1.3,8.7,2.2,12.6,4.2
	c4.9,2.5,10,3.4,15.2,2.7c5.7-0.8,11-0.2,16.4,1.3c6.8,1.9,13.7,3.3,20.5,4.9c1.8,0.4,3.6,0.8,5.5,0.9c1,0,2.9-0.4,3-1.1
	c0.7-2.3,1.5-4.9,1.2-7.2c-0.5-3.1-2-6.1-3.1-9.2c-0.9-2.5-2.9-3.4-5.5-3.2c-2.8,0.2-5.7,0.5-8.5,0.6c-8.1,0.3-16.2,0.9-24.3,0.6
	c-11.5-0.4-23-1-34.4,0.6C547.3,649.7,544.8,649.8,542.4,649.9z M921,823.3c-4.8,0.1-8.1,0.1-11.3,0.3c-2.5,0.2-3.8,1.9-3.8,4.4
	c0,2.6,1.2,4.1,3.8,4.3c2.4,0.1,4.9,0.1,7.3,0.2c10.2,0.4,20.5,0.9,30.7,1.3c0.1,0,0.3,0.1,0.4,0.1c5.2,0.6,10.3,1.2,15.5,1.7
	c0.5,0.1,1.1-0.2,1.6-0.3c3.6-0.4,7.1-0.7,10.7-1.2c3-0.4,6-1.1,9-1.3c3.4-0.3,6.9-0.3,10.3-0.2c2.7,0.1,5.3,1,8,1.2
	c2.8,0.2,4.3-1.4,4.4-4.2c0.1-2.8-1.6-4.4-4.6-4.4c-14.8,0-29.7,0-44.6-0.1c-8.7-0.1-17.5-0.2-26.2-0.7
	C928,824.6,923.8,823.7,921,823.3z M636.1,487.1c-0.5,0-1,0-1.6,0c-0.2,1.3-0.5,2.6-0.6,4c-0.5,4.8-2.2,9.5-6.6,11.4
	c-3.6,1.6-3.8,4-4.1,6.8c-0.2,1.8,0.2,3.8,0.4,5.6c0.7,6.8,1.3,13.6,2,20.4c0.4,3.3,1.1,6.5,1.7,9.5c3.5-1.4,6.4-3.2,9.5-3.8
	c3.4-0.5,4.5-2.3,4.3-5.1c-0.1-2.1-1-4.2-1.1-6.3c-0.5-8.2-0.6-16.5-1.3-24.7C638.1,499,637,493,636.1,487.1z M749.2,593.2
	c1.9,3.2,5,3,7.7,3.4c9.2,1.4,18.5,2.9,27.8,3.7c9.7,0.8,19.5,1,29.2,1.2c3.6,0.1,5.9-4.7,5.1-9.5c-0.6-3.3-2-3.9-6.6-2.6
	c-15.5,4.2-31.2,1.9-46.9,2.4c-4.6,0.2-9.1,0.1-13.7,0.3C751,592,750.2,592.7,749.2,593.2z M670.2,630.7c0.6-3.6,0.5-3.5-4.8-7
	c-8-5.4-17-7.4-26.2-9c-1.9-0.3-3.3,0.2-3.9,2.4c-1.3,5-1,9.9,0.5,14.8c0.7,2.2,1.9,3.3,4.5,2.9
	C650.3,633.4,660.3,632.1,670.2,630.7z M518.1,844.1c0.1,0.5,0.3,1,0.4,1.5c3.1,0.2,6.3,0.4,9.4,0.5c6.6,0.1,13.2,0.3,19.7,0.1
	c7-0.2,13.9-1.1,20.8-1.2c4.6-0.1,9.2,0.9,13.8,0.8c9-0.2,18.1-0.2,27-1.6c4.7-0.7,9.2-1.4,14-1.3c4,0.1,8.1-0.1,12.1-0.2
	c0.5,0,1-0.5,1.6-0.7c-1.5-0.9-2.8-1-4.2-1.1c-7.7,0-15.4-0.2-23.1-0.1c-14,0.2-28,0.5-42,0.8c-1.6,0-3.4,0.8-4.8,0.4
	c-6.3-2.1-12.6-0.2-18.8-0.2c-7.4,0-14.8,0.1-22.2,0.4C520.5,842.3,519.3,843.4,518.1,844.1z M746.8,774.8c-2.4-2.9-3.3-2.9-9.5-3.8
	c-8.1-1.2-16.2-2.7-24.2-4.2c-2.6-0.5-4.1,0.2-3.8,3c0.4,3.3,1,6.7,1.7,10c0.4,1.8,1.3,2.6,3.5,2.3c6.4-0.8,12.9-1,19.3-2
	C738.3,779.3,743.3,778.9,746.8,774.8z M615.9,588.1c-0.3-2.7-0.2-5.1-0.8-7.5c-0.5-2.1-1.3-4.3-4.3-4.7c-6.2-0.8-12.2-0.2-18.3,0.3
	c-3.5,0.3-7,0.6-10.5,1c-0.8,0.1-1.7,0.7-2.2,1.4c-0.2,0.2,0.5,1.6,1,1.8c3.7,1.5,7.4,3.1,11.2,4.3c6.7,2,13.5,3.6,20.2,5.5
	C614.7,591,615.8,590.4,615.9,588.1z M485.6,846.6c-0.1-0.4-0.3-0.9-0.4-1.3c-2.3-0.5-5-1.9-6.8-1.2c-4.4,1.7-8.5,0.2-12.7,0.4
	c-5.2,0.2-10.5,0.2-15.7,0.8c-4.5,0.5-9,2-13.5,2.3c-5.6,0.4-11.2,0.1-16.8,0.3c-1.7,0.1-3.3,1.2-5.6,2.1c3.2,2.9,5.5,3.8,8.7,2.1
	c3.8-1.9,6.9-1.3,8.3,0.9c2.3-1.1,4.5-3.3,6.7-3.2c6.8,0.3,13.6,1.6,20.3,2.4c0.7,0.1,2,0.1,2.2-0.2c1.5-2.8,4.2-2.2,6.5-2.3
	c4.2-0.3,8.4-0.2,12.5-0.7C481.4,848.7,483.5,847.4,485.6,846.6z M725.7,1020.7c-0.1-0.6-0.1-1.2-0.2-1.7c-1.6-0.1-3.3-0.3-4.9-0.2
	c-4.5,0.2-9.1,1.3-13.6,0.8c-5.3-0.6-10.2,0.7-15.1,1.9c-1.1,0.3-2.4,2.1-2.4,3.2c0,1.1,1.3,2.9,2.3,3.3c3.5,1.1,7,1.9,10.7,2.3
	C712,1031.2,717.8,1023.6,725.7,1020.7z M825.9,540.9c1,0.2,2.7,0.1,3,0.7c1.9,4.1,5.6,2.3,8.5,2.5c1,0.1,3.1-1.3,3.1-1.9
	c-0.1-2.3-0.5-4.8-1.6-6.7c-1.1-1.8-3.2-3.5-5.9-2.2C829.7,534.9,826.7,536.7,825.9,540.9z M528.8,333.2c0.4,0.2,0.7,0.4,1.1,0.7
	c2.1-2.1,5.1-3.8,6-6.3c1.6-4.3,2-9,2.7-13.6c0.1-0.5-1.1-1.7-1.4-1.6c-0.8,0.2-1.7,0.9-2,1.6c-2.2,5.3-4.2,10.6-6.2,16
	C528.6,330.9,528.8,332.1,528.8,333.2z M584.6,132.8c-0.3-0.3-0.7-0.7-1-1c-0.9,0.6-2.4,1.2-2.6,2c-0.5,2.5-2.1,2.3-3.9,2.5
	c-4.7,0.2-5.3,1.2-4.2,6.7c1.9-0.4,3.8-0.7,5.8-1.2c0.9-0.2,1.8-1.1,2.5-1c4.9,0.7,5,0.6,5.8-4.4c-1.5,0.4-2.9,0.8-4.8,1.3
	C583.2,135.7,583.9,134.2,584.6,132.8z M488.2,844.5c0.2,4.8,5.2,7.4,9,4.9c2-1.3,3.7-3.3,6.5-1.9c0.2,0.1,0.9-0.9,2-2.1
	C499.4,845.1,493.8,844.8,488.2,844.5z M604.7,303.2c-0.5,0-1-0.1-1.5-0.1c-0.3,4.9-0.5,9.8-0.8,15.2
	C608.6,313.4,604.9,308.1,604.7,303.2z M1093.9,713.2c-3.8,0.5-6.7,1-9.6,1.4c0,0.5,0,0.9-0.1,1.4c2.1,0.4,4.3,0.6,6.3,1.4
	c1.5,0.6,3,1.5,3.7-0.4C1094.7,715.7,1094,714.2,1093.9,713.2z M700.9,590c2.5,2.1,5.3,2.1,8,1.1c0.6-0.2,1.1-1.1,1.3-1.7
	c0.1-0.3-0.8-1.1-1.3-1.2C706.1,587.4,703.1,586.7,700.9,590z M1178.7,1000.9c-0.7-4.7-2.9-6.7-7.5-6.3
	C1173.4,996.5,1175.7,998.4,1178.7,1000.9z M1164.6,981.9c-0.3,0.2-0.7,0.4-1,0.6c1.8,2.8,3.6,5.6,5.4,8.3
	C1171.5,985.6,1165.9,985,1164.6,981.9z"/>
<path d="M1437.1,721.2c-1.5,3.7-1.7,3.7-5,1.8c-1.1-0.6-2.5-1.1-3.8-1c-8.4,0.4-16.7,1.2-25.1,1.5c-2.1,0.1-4.2-1.2-6.8-2.1
	c-6.6,2.6-14.2,2.5-22.1,1.3c-4.6-0.7-9.3,0.1-14,0.2c-0.9,0-1.9,0.8-2.7,0.7c-1.4-0.3-3-0.8-3.8-1.8c-0.5-0.6,0.1-2.7,0.9-3.5
	c3.8-4.1,3.1-3.8,6.8-1c2.5,1.9,4.7-0.1,6.8-1.4c1.6-1,3.5-1.9,5.3-2c2.8-0.2,3.2,1.3,1,3.7c2.2,0.2,4.1,0.9,5.8,0.5
	c1.6-0.3,3.6-1.4,4.2-2.7c1-2,2.2-2.3,4.1-2.3c3.9,0,7.8-0.4,11.6-0.4c2.9,0,5.6,0.4,7.2,3.5c0.7,1.2,2.1,2.1,3.2,3.2
	c0.6-0.8,1-1,0.9-1.1c-0.5-5.1,0.6-5.9,5.8-4.9c1.2,0.2,2.6-0.1,3.8-0.2c2-0.2,4-0.4,6-0.4c5.4-0.1,10.9,0,16.3-0.1
	c0.6,0,1.3-0.8,2.2-1.4c-3.6-3.2-7.4-3.8-11.7-3.4c-2.3,0.2-4.7-0.1-7.1-0.1c-0.9,0-1.9,0-2.8,0.1c-6.1,0.3-12.2,0.7-18.4,1
	c-5.2,0.3-10.4,0.6-15.7,0.8c-1.9,0.1-3.9-0.5-5.8-0.5c-2.4,0-4.8,0.4-7.1,0.3c-2.1-0.1-4.2-0.6-6.3-0.9c-0.4-0.1-0.9-0.4-1-0.3
	c-2.9,3.4-4-0.3-6-1.6c-4.4,5-9.7,1-14.7,1.4c-1.7,0.2-3.6-0.6-5.2-0.3c-8,1.6-15.8-0.3-23.6-1.5c-0.8-0.1-1.8-0.4-2.4-0.1
	c-5.8,3-11.8,1.7-17.8,1.5c-1.2-0.1-3.3,0.7-3.5,1.4c-0.6,2.3,1.4,2.4,3.1,2.6c1.6,0.2,3.3,0.2,4.8,0.6c2.1,0.5,4,1.4,6.4,2.2
	c8.8,0,18.2-2.5,28.2,2c1.8-1.8,3.9-1.4,4.9,3.7c0.7-2.2,0.7-3.6,1.3-3.9c1-0.6,2.3-0.7,3.5-0.7c0.2,0,0.8,1.8,0.5,2.6
	c-1.4,4.6-4.2,6.3-9.7,5c-7.6-1.9-15.2-1-22.8-0.4c-1.8,0.1-3.7-0.9-5.6-1.2c-1.6-0.2-3.3-0.1-5-0.1c-8.5,0.2-17.1,1-25.5,0.6
	c-9.4-0.5-18.7-2.1-28.1-3.2c-2.2-0.3-4.3-0.5-6.4-1.1c-2.9-0.9-5.8-1.9-8.5-3.3c-0.7-0.3-1-2.1-0.8-3.2c0.8-5.2,4.9-7.9,8.8-10.5
	c0.5-0.4,2.1,0.7,3.2,1.1c-1.3,3.3-7.7,1.4-5.4,7c1.6-3.1,3.9-2.8,6.6-2.2c2.5,0.6,4.5,0.2,6.1-2.5c1.8-3.1,4.5-5.9,9.6-4.5
	c-0.6,1.4-1.5,2.7-1.7,4.2c-0.4,2-1,4.3-0.3,6c0.9,2.4,3.4,2.2,5.9,1.9c3.3-0.4,6.8,0.2,10.1,0.2c3.5,0,6.9-0.1,10.4-0.3
	c0.9-0.1,1.8-0.9,3.5-1.8c-1.7-0.8-2.5-1.4-3.4-1.5c-3.3-0.5-6.7-0.8-10.1-1.2c-1.4-0.2-2.7-0.6-4.1-0.9c0.4-1.6,0.6-3.4,1.4-4.8
	c0.8-1.6,2.3-2.1,4.1-0.9c0.7,0.4,2.3,0.2,2.9-0.3c2.2-2,4.4-1.3,6.9-0.8c2.6,0.5,5.3,0.5,7.9,0.6c9.3,0.2,18.7,0.4,28,0.7
	c2.6,0.1,5.1,0.2,7.7,0.3c5,0.2,10,0.2,14.9,0.8c2,0.2,3.8,1.7,5.8,2.3c1.1,0.3,3.2,0.6,3.4,0.1c2.2-4.4,6.2-2.6,9.5-2.8
	c0.9-0.1,1.8,0.6,2.7,0.6c16.5-0.6,32.9-1.1,49.4-1.9c10.9-0.5,21.7-1.5,32.6-2.2c5.1-0.3,7.8,2.7,7.3,7.8c-0.2,1.8,0.5,3.6,0.5,5.4
	c0,1.7,0,3.6-0.8,4.9c-1.5,2.4-3.5,4.5-5.5,6.4C1451.6,725.1,1440.1,724.7,1437.1,721.2z"/>
<path d="M1660,716.6c-2.9-0.4-5-0.9-7-0.9c-7.9,0.1-15.8,0.9-23.7-0.5c-7.2-1.3-14.6-2.3-21.9-2.5c-4.7-0.2-9.5,1.3-14.3,1.8
	c-2.1,0.2-4.3-0.3-6.5-0.5c-0.8-0.1-1.6-0.5-2.3-0.4c-13,2.3-26,1.1-39.1,0.6c-3.8-0.2-7.8,0.6-11.5,1.7c-5.3,1.7-10.4,0.6-15.7,0.1
	c-1.6-0.2-3.3,0.3-4.9,0.5c-0.4,0.1-0.9,0.4-1.2,0.2c-4.7-1.9-9.6-3.3-13.8-6.1c-3.2-2.1-2.7-6.2,0.4-10.1c1.2-1.5,2.6-2.7,4.2-4.3
	c2,2.2,3.8,1.7,6.3,0.4c2.3-1.2,5.2-1.6,7.8-1.8c3.4-0.2,6.8,0.2,10.3-1.2c2.5-1,5.9,0.1,9.7,0.3c0.2,0.2,0.9,1.3,1.6,2.2
	c2.8,0.3,5.1-5.3,7.7-0.5c4.7,0,9.2-3.6,14-0.3c0.4,0.3,1.2,0.4,1.6,0.2c5.1-3.2,10.7-0.8,16-1c6.7-0.3,13.6,1.6,20.4,2.5
	c0.4,0.1,0.8,0.1,1.2,0.1c4.2-0.6,8.4-1.2,12.6-1.7c2-0.2,4.1-0.6,6.1-0.2c10.5,2.1,21-1.7,31.4,0.2c1.2,0.2,2.6-0.5,3.9-1
	c3-1.2,5.8-2.4,8.7,0.3c0.3,0.3,0.8,0.5,1.1,0.5c5.3-1.1,7.9,3.4,11.5,5.6c2.9,1.8,2.7,4.8,1.8,7.7c-0.2,0.8-1,1.7-1.8,2
	c-3.5,1.3-7.1,2.2-10.5,3.6C1662.3,714.6,1660.8,716.1,1660,716.6z M1521.9,706.9c0-0.3,0.1-0.5,0.1-0.8c2.9,0.3,5.7,0.8,8.6,0.9
	c0.6,0,1.8-1.1,1.7-1.7c-0.1-0.8-1-2.1-1.6-2.2c-4.9-0.3-9.8-0.3-14.7-0.4c-0.6,0-1.2,0.8-1.9,1.2c0.6,0.6,1,1.7,1.7,1.8
	C1517.9,706.4,1519.9,706.6,1521.9,706.9z"/>
<path d="M1105,1077.7c-0.7-2.3-1.2-3.9-1.8-5.7c-3.4,2.3-3.5,5.1-1.9,7.8c1.7,2.9,1.3,5.7-0.1,8.1c-2.1,3.5-4.8,6.7-7.4,9.8
	c-3.5,4.2-7.1,8.4-10.9,12.4c-2.9,3.1-5.9,6.1-9.3,8.7c-2,1.5-5,3.8-7.3,0.5c-2-2.7-0.3-7.3,3.4-8.6c3.6-1.2,5.4-3.6,7.6-6.3
	c3.6-4.3,7.9-8,11.6-12.2c1.6-1.7,2.9-3.9,3.6-6.1c1-3.1,1.5-5.9,6.5-4c-0.5-1.7-0.9-2.6-1.1-3.6c-0.2-1-0.6-2.2-0.3-3.1
	c2.2-6.6,4.9-13,6.7-19.7c1.2-4.3,1.4-9,1.7-13.5c0.5-7.4,0.9-14.9,1.1-22.3c0.2-6.8,0.4-13.5,0.1-20.3c-0.2-4.1-1.6-8-6.1-9.6
	c-2.8-1-3.6-3.2-3.9-6c-1-8.9,3.5-15.6,8.3-22.2c1.5-2,9.7-2.7,12.3-1.1c5,3.1,9.2,6.9,9.7,13.4c0.4,5-1.1,9.2-3.5,13.8
	c-2.5,4.7-3.9,10.4-4.4,15.8c-1.2,11.4-1.2,23-2.4,34.4c-0.6,5.4-2.7,10.6-3.9,15.9c-0.5,2.1-0.9,4.2-0.9,6.4
	c0.1,5.1-1.8,9.5-4.3,13.7C1107.6,1075.3,1106.5,1076.1,1105,1077.7z"/>
<path d="M6.6,849.6c0.6-0.4,1.7-1.2,2.7-1.9c5.2,3.3,6.3,2.7,7-4.3c2.6,0.8,6.1-2,7.2,3.1c0,0.1,2.8,0.1,2.9-0.2
	c0.7-3,3.1-2.8,5.2-2.8c5.1,0.2,10.3,0.5,15.4,0.7c0.5,0,1.1-0.2,1.6-0.3c5.8-1.3,11.5-0.6,17.2,0.5c0.8,0.2,1.8,0,2.6-0.3
	c4.6-2.3,5.6-2.2,8.4,0.5c4.3-0.2,7.9-0.1,11.4-0.6c1.6-0.2,3.2-1.3,4.7-2.2c1.3-0.7,2.9-2.5,3.8-2.2c1.3,0.4,2.2,2.2,3.2,3.6
	c0.3,0.4,0.3,1,0.6,2.1c2.3-3.2,4.8-5.6,7.8-2c2.2-1.1,3.9-2.2,5.7-2.9c3.7-1.4,6.1-0.4,8.4,2.8c1,1.4,2.3,2.6,3.5,3.8
	c3,2.9,3.9,7.1,2.1,9.9c-2.2,3.4-7.2,5.4-10.7,3.8c-4.4-2-8.4-3.2-13-0.4c-1,0.6-2.8-0.3-4.6-0.5c4-6.3,3.9-7-1.8-9.5
	c-1.3,2.8-2.4,5.8-4.1,8.4c-0.6,0.9-3,1.4-4.3,1.1c-5-1.4-9.8-1.7-14.4,1.1c-0.6,0.4-1.7,0.7-2.3,0.4c-5.5-2.2-10.5,1.1-15.8,1.1
	c-12.9,0-25.9,2.6-38.8,0c-5.2-1.1-10.3-2.2-15.3-3.7c-1.1-0.3-2.2-2-2.4-3.2c-0.3-1.7-0.1-3.6,0.4-5.2c0.3-1.1,1.3-2.6,2.2-2.8
	C3.6,847.4,4.9,848.6,6.6,849.6z M73.9,851.6c-1.3,1.6-2.5,2.5-2.6,3.5c-0.1,0.7,1.3,2,2.1,2.1c0.8,0.1,1.9-0.8,2.8-1.3
	C75.6,854.7,75,853.6,73.9,851.6z"/>
<path d="M110.1,1045c1.2-0.9,2.2-2.3,3.4-2.4c7.9-1.1,15.6-2,23.7-1.8c8,0.2,16.4,3.8,24.5-0.7c1.2-0.7,3.9,0.1,5.1,1.1
	c3.1,2.8,5.8,2.3,8.7,0.1c2.1-1.7,3.9-1.9,5.4,0.7c2.4-3.4,4.2-3.9,7.8-2.3c1.2,0.5,2.5,0.7,3.8,1.2c0.9,0.4,2.2,0.9,2.5,1.6
	c1.1,3.2,3.7,4.4,6.4,5.8c5.2,2.6,6.7,6.5,4.1,10.8c-0.8,1.3-2.8,2.4-4.4,2.6c-2.5,0.3-5.1-0.4-7.7-0.5c-5.5-0.3-10.8-0.6-16.4,0.6
	c-5.7,1.2-11.9,0-17.5,1.2c-4.8,1.1-9,0.6-13.4-1c-0.7-0.2-1.6,0.1-2.3,0.4c-3.9,1.4-7.5,0.8-10.8-1.4c-5.4,2.5-10.6,0.2-15.7-0.9
	c-5.8-1.4-11.4-3.7-17.1-5.4c-5.8-1.7-7.1-4.5-4.4-9.8c0.3-0.7,1.1-1.7,1.6-1.6C101.6,1043.5,106.2,1043.2,110.1,1045z M144,1051.5
	c-0.1-0.6-0.1-1.3-0.2-1.9c-2.2-0.4-4.3-1-6.5-1c-0.6,0-1.6,1.6-1.8,2.5c-0.1,0.5,1.3,1.8,1.9,1.8
	C139.6,1052.6,141.8,1052,144,1051.5z"/>
<path d="M487.5,695c-9.9-2.6-18.9,1.9-28.3,2.5c-9.5,0.6-19.1,0.7-28.5,2.1c-9.4,1.3-17.4-3.1-25.9-5.1c-2.8-0.7-3.1-6.7-0.1-9.4
	c1.9-1.6,4.7-2.5,7.2-3c4.4-0.8,9-2,13.2-1.2c6.7,1.3,12.9-2.5,19.3-1.1c8,1.7,15.6-0.1,23.3-1.2c3.1-0.4,6.2-0.4,9.3-0.5
	c7.6-0.3,15.3-0.6,22.9-0.9c3.5-0.2,7-0.3,10.6-0.5c3.5-0.2,6.5,3,6,7.5c-0.7,6-2.7,10.2-9.5,10.3
	C500.5,694.4,493.9,694.8,487.5,695z"/>
<path d="M313.1,693.4c-1.6,7-7,3.8-11,4.5c-1.2,0.2-2.5,0.4-3.7,0.5c-0.8,0.1-1.9,0.6-2.2,0.2c-2.7-3.2-6.1,0-9.2-1
	c-2.3-0.8-5.5,1.1-8.3,1.9c-2.4,0.8-4.7,1.8-7.3,2.8c-0.8-1.5-1.4-2.8-2.2-4.4c-0.6,0.7-1.3,1.1-1.5,1.7c-0.9,2.3-2.3,2.5-4.5,1.9
	c-2.1-0.6-4.5-0.7-6.7-0.6c-3,0.1-7.2-1.8-8.4-4.3c-0.8-1.7-0.7-3,1.4-3.8c1.7-0.6,3.2-1.7,4.7-2.6c0-0.4-0.1-0.8-0.1-1.3
	c3.5,1.1,7,2.3,11.2,3.6c1.6-1.7,4-4.4,6.8-7.5c1,2.2,1.6,3.3,2.5,5.2c1.3-1.6,2.4-3,4.2-5.2c1.4,2.5,2.3,4.2,3.3,6
	c0.3,0.1,0.7,0.2,1,0.3c2.4-6.6,7.5-2.9,11.3-4.1c3.4-1.1,6.8-2.2,9.9-3.8c2.1-1.1,3.5-2.7,6.2-1.2c1.2,0.6,3,0.1,4.8,0.1
	c-0.1,1.8-0.2,3.5-0.3,5.3c0.4,0.2,0.8,0.3,1.1,0.5c1.3-1.6,2.5-3.3,4-4.7c1.1-1.1,2.6-2.2,4.1-2.3c7.2-0.8,14.5-1.3,21.8-1.8
	c4.6-0.3,9.2-0.3,13.8-0.4c2.4-0.1,3.8,1.1,4.4,3.4c0.4,1.4,1,2.8,1.6,4.2c0.9,2.2,1,3.9-1.9,4.7c-0.7,0.2-1.5,0.8-1.9,1.5
	c-2.6,4.4-6.7,4.8-11.3,4.8c-2.9,0-5.8,0.7-8.6,1.1c-2.8,0.3-3.6-1.1-3.4-3.7c0.3-3.9,0.3-3.7-3.6-2.6c-2.1,0.6-4.5-0.3-6.8,0
	c-1.4,0.2-3.3,0.7-4.1,1.7C321.3,698.1,316.2,698.2,313.1,693.4z"/>
<path d="M1438.1,896.8c2.9-1.6,5-2.8,7.1-3.9c0.6-0.3,1.4-0.6,1.6-1.2c3.7-8.6,12.9-11.5,18.4-18c3.3-3.9,9.1-5.8,9.8-12.1
	c0.2-1.8,2.8-3.4,4.4-4.9c3.4-3.3,7-6.6,10.4-9.9c5.3-5.2,10.6-10.6,15.9-15.9c2-1.9,4.2-4.8,7.2-3.2c3.3,1.8,6,4.7,5.1,8.1
	c-4.4,3.9-8.1,7-11.7,10.3c-3.4,3.1-6.9,5.9-11.4,7.5c-1.8,0.6-3.3,2.6-4.7,4.2c-2.2,2.5-4.2,5.2-6.6,8.1c-1-0.3-2.3-0.7-3.7-1
	c-1.7,6.8-11.4,18.2-15.5,17c-3.2,3.2-6.2,6.3-9.3,9.2c-0.7,0.6-1.9,0.6-2.9,0.9c-0.9,0.2-2.1,0.2-2.5,0.8c-2.7,3.1-5,6.5-7.9,9.5
	c-0.8,0.9-3,1.2-4.2,0.8c-1.5-0.6-2.7-2.2-3.8-3.5c-0.4-0.4-0.3-1.7,0-2.1c0.5-0.6,1.5-1.2,2.3-1.2
	C1437,896.1,1437.9,896.7,1438.1,896.8z"/>
<path d="M291.8,854.7c-0.1,1.4-0.1,2-0.1,2.6c-0.3,4-1.7,4.8-5.2,3c-1.8-0.9-3.5-2-5.2-3.1c-2.7-1.6-5.4-3.3-7.2,0.7
	c-3-1.3-5.9-2.1-8.3-3.7c-1.9-1.2-3.9-3.4-2.5-5.7c1-1.7,3.3-3.2,5.3-3.7c1.9-0.5,3.1,1.2,2.7,3.5c-0.2,1.4-0.4,2.9-0.6,4.9
	c3-0.9,3.5-2.2,2.8-4.2c-1.2-3.4,0.8-4.9,3.6-6c3.5-1.3,7.5-1.2,10.8-3.8c1.8-1.4,4.9-0.8,7.4-1.4c1.7-0.4,3.3-1.1,4.8-1.9
	c5.3-2.9,13,1.2,13.5,7.1c-1-0.4-2-0.9-3-1.4c-0.2,1.6-0.3,3.1-0.5,4.7c0.3,0.3,0.5,0.6,0.8,0.9c-1.9,0.3-3.8,0.6-6,1
	c1.7,3.2,0.9,5.8-2.6,7.3C298.6,857,295.3,859,291.8,854.7z"/>
<path d="M1408.1,925c-0.9-0.6-1.8-1.2-3.1-2.1c-1.5,5-5.2,5.8-9.6,5.6c-1.1,0-2.6,0.7-3.3,1.6c-3.3,4.6-8.6,6-13.3,7.8
	c-3.8,1.4-5.2-0.8-4.9-6.3c-1.2,1.5-2.9,2.9-3.4,4.6c-0.9,3.2-3.2,4.3-5.9,4.6c-3,0.3-6.1,0-9.2,0.3c-4.9,0.4-9.8,1-14.8,1.5
	c-4.8,0.5-4.8,0.4-6.5-4.4c5.7-1.3,11.3-2.6,17-3.8c0.8-0.2,1.9-0.6,2.3-0.2c1.9,1.5,3.2,0.3,5-0.2c4-1.2,8.1-2.1,12.1-3.3
	c3.3-1.1,7.1-2.3,10.2-3.6c3.5-1.5,7.3-3.1,10.6-5.6c3.1-2.3,7.5-3.1,11.5-4c1.8-0.4,2.9-0.8,4.2-2.3c1.7-1.8,4.3-2.8,6.7-3.6
	c0.4-0.1,1.9,2.5,2.5,3.9c0.3,0.8,0.3,2.3-0.3,2.8C1413.7,920.6,1411,922.7,1408.1,925z"/>
<path d="M181.7,855.2c2.1-0.7,4.2-1.3,6.5-2.1c-1.8-3.7-8.1-2.1-7.1-7.9c2.8,2.5,5,2,7.2-0.7c0.8-1,2.5-1.4,3.9-1.6
	c5.4-0.8,10.9-1.5,16.4-2.2c4.6-0.7,11.9,2.7,14.2,6.6c1.4,2.4,0.2,5.9-2.7,7c-4.3,1.6-8.7,3.2-13.2,4.4c-1.4,0.4-3.1-0.4-4.6-0.5
	c-2.4-0.2-4.9-0.7-7.2-0.5C190.4,858.1,185.9,858.2,181.7,855.2C181.8,855.1,181.7,855.2,181.7,855.2z"/>
<path d="M1092.7,751.6c1.5,0.2,3,0.2,4.4,0.6c7.9,2.4,10.5,8.2,6.7,15.7c-1.3,2.6-3.1,5.2-5.3,7c-3.4,2.7-7.4,0.8-10.9-0.2
	c-4.4-1.3-7.4-4.4-9.2-8.7c-2-4.8-0.7-9.3,4-11.5c3.2-1.5,6.6-2.5,9.9-3.8C1092.4,751,1092.5,751.3,1092.7,751.6z"/>
<path d="M256.9,1068.6c-7.6,0.2-11.6-2.1-14.3-6.7c-1.2-2.2-1.4-4.2-0.2-6.8c2.3-5.4,6.1-7.5,11.7-7c1,0.1,2-0.5,3.1-0.7
	c7.2-1.5,13.6,3.6,14.2,10.9c0.1,1.1-1.2,2.8-2.3,3.5C264.6,1064.5,259.7,1067,256.9,1068.6z"/>
<path d="M1293.5,922.2c5.7,0.5,10.5,4.5,10.1,8.6c-0.3,3.5-6.3,9.2-9.3,8.8c-5.3-0.6-9.8-4.5-9.5-8.2
	C1285,927.6,1290.4,921.9,1293.5,922.2z"/>
<path d="M1555.8,773.9c0.4-3.8,3.1-7.2,6.7-8.1c0.8-0.2,1.9-0.2,2.7,0.1c3.5,1.2,4.9,5.9,3.2,10.4c-1.1,2.9-3.4,3.6-7.3,2.3
	c-0.9-0.3-1.8-0.5-2.7-0.8C1555.6,777,1555.5,776.8,1555.8,773.9z"/>
<path d="M1540.9,805.6c-0.8-1.3-1-1.8-1.3-2.2c-4.1-6.5-3.8-8.1,2.4-12.7c0.7-0.5,1.8-0.9,2.5-0.7c4.7,1.4,6.5,6.8,3.3,10.3
	C1546,802.4,1543.4,803.7,1540.9,805.6z"/>
<path d="M1584.2,743.8c4,0.2,5.4,2,5.1,6.5c-0.2,3.1-3,5.1-7,4.9c-3.5-0.2-6.9-2.6-6.8-5C1575.7,746.2,1579.3,743.5,1584.2,743.8z"
	/>
<path d="M1431.9,903c1.4,6.2-3.1,11.3-9.2,11.2c-3,0-4-2.1-4.4-3.7c-0.2-1.2,1.7-3,2.9-4.3c0.6-0.7,2.1-0.6,2.8-1.2
	C1427.2,902.1,1427.2,902.1,1431.9,903z"/>
<path d="M1527.4,809.5c3,0.1,6.3,4,6.1,7.3c-0.2,3-4.2,5.9-7.4,5.2c-1.3-0.3-2.6-0.7-3.8-1.3c-0.8-0.4-1.6-1.1-1.9-1.9
	C1519.5,816.4,1524.8,809.4,1527.4,809.5z"/>
<path d="M1643.1,658.4c-0.4,4.9-3.3,6.8-8,5.1c-0.4-0.1-0.7-0.4-1.1-0.5c-1.7-0.6-4.5,0.3-4.2-3c0.2-2.3,3.5-5.6,5.8-5.8
	c0.8-0.1,1.6,0,2.4-0.2C1642.8,653,1643.4,653.5,1643.1,658.4z"/>
<path d="M1621,676.9c5.2,0.2,7.6,2.3,7.5,6.4c-0.1,2.3-3.6,4.9-6.6,4.8c-2.4-0.1-6.6-3.1-6.6-4.7
	C1615.4,679.8,1618,676.8,1621,676.9z"/>
<path d="M1743.1,525.3c-0.2,3.6-2.1,5.7-5,5.5c-3.3-0.3-7.5-3.5-7.5-5.8c0-2.4,4-5,7.5-4.9C1741.9,520.2,1743.2,521.7,1743.1,525.3z
	"/>
<path d="M1687.5,578.2c-0.2,3.6-2.4,5.3-6.3,5c-3.7-0.3-5.9-2.2-5.8-4.8c0.2-2.8,3.8-6.1,6.6-5.9
	C1685,572.6,1687.7,575.4,1687.5,578.2z"/>
<path d="M1602.4,728.9c-4.5-0.4-6.2-1.7-6-4.4c0.3-2.9,4.3-6.7,6.9-6.4c2.7,0.3,5.4,3.9,5,6.8C1608,727.8,1605.9,729.2,1602.4,728.9
	z"/>
<path d="M1718.4,531.9c4.3,0.4,6.4,2,6.2,4.8c-0.2,2.9-3.5,5.1-6.9,4.8c-3.1-0.3-5.7-2.6-5.6-4.9
	C1712.1,533.9,1715.1,531.6,1718.4,531.9z"/>
<path d="M1701.4,549.1c3.1,0.2,5.1,2.3,4.8,4.8c-0.3,3-3.5,5.5-6.7,5.2c-2.4-0.2-4.8-3.2-4.5-5.8
	C1695.3,550.7,1698,548.8,1701.4,549.1z"/>
<path d="M1659.6,604c0.2-2.9,2.2-4.3,5.8-4c2.8,0.2,5.8,2.7,5.8,4.8c0,2.2-3.8,5.3-6,5.1C1662.1,609.5,1659.4,606.7,1659.6,604z"/>
<path d="M1651.9,627.6c3.1,0.2,6.2,3,5.1,5.4c-1,2-4,4.6-5.7,4.3c-2.2-0.4-4.6-3-5.7-5.3C1644.7,630.4,1649.3,627.4,1651.9,627.6z"
	/>
<path d="M1266.9,704c0.5-2.4,1-4.6,4.1-4.2c2.1,0.2,4.8,4.6,4.1,7.3c-0.2,0.9-2.1,2.1-3.2,2.1C1269.2,709.2,1266.6,706.1,1266.9,704
	z"/>
<path d="M181.8,855.1c-4.7-1.1-5.3-1.8-5.1-5.9C180.6,849.1,181.8,850.6,181.8,855.1L181.8,855.1z"/>
</svg>
