<?xml version="1.0" encoding="utf-8"?>
<!-- Generator: Adobe Illustrator 25.2.1, SVG Export Plug-In . SVG Version: 6.00 Build 0)  -->
<svg version="1.1" id="Layer_1" xmlns="http://www.w3.org/2000/svg" xmlns:xlink="http://www.w3.org/1999/xlink" x="0px" y="0px"
	 viewBox="0 0 1214 1159" style="enable-background:new 0 0 1214 1159;" xml:space="preserve">
<path d="M378.9,845.2c-6.1,19.8-10,39.4-18.4,57.2c-7,14.7-20.9,25.5-38.3,31.1c-12.2,4-25,7.2-36.1,13.1c-6.2,3.3-10,11-14,17.2
	c-7.6,11.9-14.4,24.2-22,36c-1.5,2.3-4.8,3.8-7.5,5.1c-17.8,8.7-36.7,11.2-56.5,7.7c-12.8-2.3-26.4-2.8-37.9-7.6
	c-8.4-3.5-14.5-12.3-20.9-19.2c-2.8-3-4-7.2-5.7-10.9c-6.5-13.6-12.8-27.2-19.3-40.8c-1.1-2.4-2.4-4.8-4-6.9
	c-10.3-13.1-20.6-26.2-31-39.2c-4.5-5.5-4.7-10,3.1-13.8c20.4,13.8,36.7,31,48.1,52c7.9,14.5,15.1,29.4,22.8,44.1
	c1.3,2.6,3.3,5.3,5.8,6.8c18.1,11.1,63.5,14,77.8-0.8c7.8-8.1,12.9-18.6,18.3-28.4c10.5-19,20-38.6,41.5-49.7
	c5.2-2.7,10.5-6,16.1-6.7c14.2-1.9,20-11.5,24.6-21.7c7.1-15.9,13.8-32,19.1-48.5c7.2-22.5,13.2-45.3,19.3-68.1
	c1.2-4.7,0.2-9.8,0.2-16.8c-6.6,0.8-12.5,1.6-18.4,2.3c-11.4-3.7-26.7-2.4-35.2,6.7c-21.6,22.9-44.7,44.7-56.2,74.2
	c-6.2,15.8-16.8,28.9-35.2,34.4c-13,3.9-25.8,1.9-37.7-3.6c-2.4-1.1-4.5-6-3.9-8.5c0.6-2.4,4.8-4.3,7.8-5.8c1.5-0.7,3.8,0.1,5.7,0
	c15-0.7,27.8-1.1,32.8-19.8c4.4-16.9,16.7-31.9,24.7-48.1c8.7-17.6,16.3-35.7,24.9-53.3c4.6-9.5,10.3-18.7,15.4-28
	c11.3-20.7,22.8-41.4,33.8-62.3c8.2-15.7,22.4-24.2,39.5-29.6c8.3-2.6,16.2-5.9,25.5-1.2c4.6,2.3,10,0,10.9-6.4
	c1.1-7.9,4.2-15.6-4.9-22.4c-4.2-3.1-5-9.9-7.9-14.8c-3.3-5.5-6.7-11.2-11.2-15.9c-4-4.1-7.4-1.6-9.6,3.6c-4,9.2-7.4,19.8-14.8,26.3
	c-14.2,12.4-29,10.3-42.3-3.4c-4.5-4.7-8.5-9.9-12.6-14.8c-4.9-5.9-10-6-14.7,0.3c-3,4-6.2,8.2-7.9,12.7
	c-3.7,9.4-10.2,15.8-20.9,17.2c-13.2,1.7-17,10.1-18.4,20.1c-2,14.6-6.8,28.4-17.4,39.1c-8.6,8.7-19.7,15.3-30.3,22.1
	c-6.7,4.3-14.3,7.2-21.6,10.6c-32.7,15.2-65.2,14.2-98.2-0.1c-43-18.5-56.8-53.8-64-92.7c-2.1-11.4-1.6-23.5-0.3-35
	c1.4-12,14.9-15.8,24.8-8c3.6,2.8,7.2,5.7,11,8.4c8,5.8,5.8,14,3.4,20.4c-7.1,19.1-3.1,37.8,0.1,56.6c1.6,9.6,7,16.6,15.5,22.3
	c28.7,19.4,60.3,23.8,92.9,11.9c13.2-4.8,28-10.3,35.9-23.2c2.2-3.6,3.3-7.9,4.4-12c6.3-22.9,11-45.9,34-61.5
	c7.8-5.3,13.6-15,16.6-23.8c6.6-19.2,21.9-27,40.9-31.3c15.7-3.6,31.5-6.5,47.2-10.1c2.7-0.6,6.5-2.4,7.3-4.5
	c6.8-17.2,11.2-35,10.7-53.4c-0.6-19.6-14.7-36.2-34-41.1c-3.3-0.8-7.7-0.5-10.8,0.9c-6,2.6-11.8,5.8-16.9,9.6
	c-8.4,6.2-17.2,10.8-28.2,11.8c-2.5,0.2-5.3,3.2-6.8,5.5c-11.6,19.1-23.2,38.2-34.3,57.5c-6.5,11.3-11.7,23.3-18.6,34.5
	c-10.4,16.7-20.8,33.5-32.9,49.1c-9,11.7-26.4,7.7-37.2-6.9c-11.8-15.9-22.6-32.7-36.1-47.2c-13.9-15-30.5-28-46.1-41.6
	c-10.4-9-21.4-17.4-31.7-26.5c-2-1.8-2.2-5.4-3.3-8.1c3.4,0.4,7.6-0.2,10,1.4c22.8,15.7,45.5,31.6,67.8,47.9
	c8.2,6,15.8,12.8,22.8,20c7.6,7.9,17.3,10.1,27.7,11.9c5.3,0.9,10.2,3,15.4,4.4c10.4,2.8,16.6,0.5,21.5-8.1
	c13.8-24.4,27.4-48.8,41.1-73.3c1-1.8,2.6-3.8,2.5-5.7c-1.1-14.6,8.7-25.8,13.8-38.5c12.1-29.9,23.2-60.2,35-90.2
	c2.1-5.4,5.8-10.4,9.2-15.3c4.1-5.9,11.6-6.4,16.1-3.2c10,7.1,21.8,13,25.2,26.2c2.5,10,4.8,11.1,13.2,4.6
	c19.8-15.2,31.3-29.1,21-51.7c-3.9-8.5-6.8-17.5-11.3-25.7c-3.8-6.8-9.5-10.7-19.4-10.3c-13.5,0.5-21.3-9-27.7-18.6
	c-3.5-5.4-6.7-8.3-14.3-6.7c-16.1,3.4-28.2-1.3-36.1-14.7c-12.7-21.6-23.7-44.1-37-65.4c-7-11.2-17.1-20.7-26.2-30.7
	c-5.7-6.2-12-12.1-18.7-17.5c-3.7-3-8.3-5.7-13-6.9c-13.3-3.4-26.8-9.5-40.7-3.4c-6.5,2.8-11.9,7.9-17.4,12.3
	c-4,3.2-7,7.6-11.3,10.4c-8.2,5.5-16.5,4.2-21.8-4.1c-9.3-14.6-18-29.5-26.5-44.6C26,26.8,22,19.1,19.3,11.1C18.2,7.9,21,3.7,22,0
	c3.7,1.1,8.9,1.1,10.9,3.4c6.9,8,12.6,16.8,19,25.2c2.7,3.6,5.5,7.2,8.8,10.4c6.9,6.9,19.1,7.1,26.9,0.9c14.6-11.5,32-11.9,49.7-9.6
	c20.5,2.7,36.3,13.8,48.7,27.9c18.2,20.8,34.2,43.3,52.4,64.1c6.6,7.5,17.1,12,25.4,17.7c2-1.7,2.8-2.1,2.8-2.5
	c1.1-13.2,2-26.5,3.4-39.7c0.3-2.9,2-7.4,4.2-8.1c3.6-1.1,9.3-1.2,12.1,0.8c9.9,7.1,16.5,16.7,19.5,28.1c2.3,8.5,6.6,15.4,15,20.5
	c3.6,2.2,5.2,7.1,7.9,10.7c1,1.2,2.5,2.1,3.9,3.1c0.8-1.6,2.8-3.4,2.4-4.8c-6.4-25.5-8.3-52.2-26.5-74.5
	c-12.7-15.5-11.3-29.5,2.7-40.9c4.3-3.5,11.8-4,18-4.9c4.9-0.7,10.1,0,15.2,0.5c41,4.2,82,1.5,123,0.5c20.5-0.5,41.1,0.9,61.6,0.7
	c28.6-0.2,57.2-1.3,85.7-1.2c15.8,0,31.7,2.3,47.5,2.2c26.9-0.2,53.8-1.6,80.8-2.5c0.3,0,0.7-0.2,0.9,0c16.3,8,33.4-0.4,50.3,2.1
	c13.8,2,28.3-1.1,42.4-0.2c11.1,0.7,22.9-2.3,33.2,4.7c5.5,3.8,8.7,7.8,6.3,14c-5,12.8-12.4,20.9-27.9,20.9c-6.4,0-10.4,0.3-13,7
	c-1.3,3.5-8.3,5.1-13.1,7.8c-0.7,8.9,2.5,11.1,11.7,7.4c1.4-0.6,2.8-1.4,4.1-2.3c11.4-7.5,18.4-4.8,19.8,7.8
	c2.5,22.8,4.8,45.6,7.6,68.4c0.7,5.7,2.7,11.3,4.2,17.2c12.2-1.9,14.4-11.7,17.9-18.5c9.3-18.5,21-35.4,34.9-51.2
	c3.7-4.2,5.4-10,8.8-14.5c9.2-12.4,17.9-25.2,28.5-36.5c5.3-5.7,13.6-10,21.5-12.5c5.1-1.6,11.8,1,18.2,1.8
	c1.6-7.4,10.3-10.7,19.8-5.4c5.6,3.1,10.8,6.5,17.7,0.8c2.5-2.1,8.5-0.7,15.3-1.1c-0.9,7.7-1.7,14.7-2.7,23.5
	c-3.5-5.5-4.7-10.2-7.7-11.5c-3.5-1.5-8.5-0.3-12.9,0.2c-9,1-18.5,1.1-27,3.7c-7.7,2.4-16.3,6.3-21.2,12
	c-20.1,23.5-31,51.5-43.2,78.9c-4.7,10.7-12.4,20.2-18.6,30.4c-9.1,15-16.9,30.7-27.3,44.9c-9.3,12.7-16.8,27.7-34.6,33.5
	c-2.8,0.9-5.4,5.3-6.1,8.4c-1.9,8.5-3.2,17.2-3.6,25.8c-0.2,3.5,2.3,7.4,4.2,10.8c2.2,4.1,6,7.7,7.5,12c1.8,5.2,2.2,11,2.7,16.5
	c1.6,18.1,4.4,20.7,24.3,22.4c4.4-11.2,8.5-22.4,13.2-33.4c2.1-4.9,2.7-11.5,11.3-11c7.6,0.4,18.8,6.8,20.2,12.8
	c5.3,22.9,9.9,45.9,15.6,68.8c3.7,14.8,8.3,29.4,13,44c5.9,18.7,11.9,37.3,18.6,55.8c4.7,13,14.6,20.5,30.3,21.7
	c29.4,2.3,58.7,7.1,88.1,7.4c14.7,0.1,27.6,4.3,41.4,6c15.6,1.9,31.5,2.2,47.2,3.9c9.9,1.1,20.8-0.8,29.7,6
	c-4.3,10-12.6,13.3-22.2,12.7c-12.7-0.8-25.2-3.5-37.8-4.9c-17-1.8-34.1-3.8-51.2-4.7c-33.7-1.7-67.5-2.2-101.2-4.2
	c-17.1-1-34.1-3.5-51.1-6c-13.1-1.9-24.9-17.2-26.7-31.2c-2.1-16.6-5.9-33-7.7-49.6c-2.1-19.4-2.8-39-4.2-58.5
	c-0.4-5.5-0.9-11-1.4-16.5c-13.6,0.1-15.7,2.6-16.7,16.2c-0.8,11.7-1.8,23.5-11.5,32.6c-6.1,5.7-12,7.4-21.2,5.7
	c-26.8-4.9-22.9-8.9-29.2,16.9c-1.2,5.1-0.9,10.5-1.6,15.8c-0.8,6.3-2.6,12.5-2.6,18.7c0,6.3,1.1,12.8,2.8,18.9
	c0.4,1.5,5,2.3,7.8,2.8c10.7,2,24.5,0.5,31.6,6.2c11.5,9.2,30.3,13.9,29.7,34.1c-0.2,6.1,9.5,12.8,15.4,18.6c3.6,3.5,9,5.5,13.1,8.7
	c8.3,6.5,18.1,11.9,20.5,23.2c0.8,3.8,4.4,7,6.9,10.4c10.3,14,19.8,28.6,31.2,41.7c18.2,20.9,36,42.6,57.6,60.3
	c14.5,11.9,35.6,15.9,55.6,18.6c14.8,2,29.5,4.3,44,7.3c3.4,0.7,5.9,4.8,8.8,7.4c-3.7,2.3-7.3,6.5-11.1,6.5
	c-9.8,0.2-19.9-0.5-29.4-2.6c-19.7-4.4-38.9-10.3-58.5-14.9c-17.2-4.1-34.6-7.5-52-10.7c-10.7-2-18.4-6.1-25.4-14.7
	c-19.9-24-32.3-51.7-43.9-79c-6.9-16.2-16.2-20-32.2-24.1c-32.8-8.4-62.3,27.8-50.1,53.9c5.1,11,14,20.9,13.5,34
	c-0.2,5.5,0.7,11.1,1.1,16.6c0.6,8.3,4.1,14.5,11.9,19.8c13,8.8,30.4,12.6,38.3,27.5c2.2,4.2,4.3,8.5,7.4,12.1
	c5.5,6.4,12,12,17.5,18.4c8.9,10.2,17.8,20.4,26,31.1c6.8,8.7,14.5,15.2,26.7,15.7c5.3,0.2,8.9-0.9,8-6.8c-0.9-6.1,4.8-9.5,8.4-7.2
	c6.1,4,13.3,10.3,14.2,16.4c1.7,12-3.6,16.8-15.2,16.2c-17.4-0.8-34.7-3.2-52.1-4.9c-14.3-1.3-28.8-2.1-40.9-10.3
	c-3.1-2.1-6.4-5.1-7.7-8.3c-6.6-17.4-12.4-35-18.7-52.5c-4.8-13.3-10.2-24.2-28.8-27.2c-12.6-2.1-23.6-12.1-37.3-19.6
	c-4,5.5-9.1,12.2-13.9,19.2c-4.6,6.6-9.8,13-12.9,20.2c-4.5,10.8-7.4,22.2-10.9,33.3c-0.2,0.8-0.3,1.9,0.1,2.6
	c9,16.7,18.1,33.4,27.3,50.1c0.5,0.9,1.9,1.4,2.9,2c15.5-19.5,34-22.3,57.4-7.9c9.3,5.8,18.2,12.8,25,20.9c4.2,5.1,3.6,13.4,6.1,20
	c2.2,5.9,5,12,8.9,17c12.4,15.8,27.3,29.6,32.6,49.9c5.8,22.6,25.8,34.9,45.2,47.7c22.1,14.6,46.6,22.4,72.9,25.8
	c16.2,2.1,31.2-4,45.3-10.1c-0.2-2.1-0.9-4-0.5-5.7c2.8-11.7,6-23.4,8.8-35.2c0.4-1.8-0.9-4-0.7-6c0.3-3.7,1.1-7.3,1.6-11
	c4.1,1.7,11.1,2.8,11.8,5.3c2.6,9.1,6.3,19.6,3.6,27.8c-3.8,11.6-12.3,22.2-20.2,32.2c-7.5,9.4-19.4,12.6-31.8,13.7
	c-14,1.3-28,3.3-42.1,4c-5,0.3-10.1-2.4-15.3-3.3c-10.9-1.8-21.8-3.3-32.7-4.8c-12.5-1.7-25.1-3-37.6-4.9c-2.3-0.3-4.6-1.9-6.6-3.3
	c-13.7-10-24.6-22.2-31.7-36.9c-1.2-2.5-1.4-7.7,0.1-8.6c2.5-1.5,7.2-1.5,10.1-0.3c3.6,1.4,5.9,5.4,9.4,7.1c2.6,1.2,6.2,0.5,9.4,0.6
	c-0.9-2.1-1.6-4.3-2.7-6.4c-3.8-6.9-8.2-13.6-11.7-20.6c-3.1-6.3-5.4-12.9-8.6-21c-4.2,5.1-6.8,9-10.2,12
	c-7.7,6.8-16.1,4.5-18.2-5.2c-4.3-19.5-7.9-39.2-11.8-58.8c-0.5-2.5-1-4.9-1.5-7.4c-15.9,4.6-28.1,11.2-34.9,25.9
	c-3.8,8.3-13.3,13.9-15.7,24.1c-0.7,3-9.9,4.6-15.5,6c-0.5,0.1-3.5-5.8-4.2-9.1c-3.2-13.9-4.2-28.4-9.4-41.6
	c-3.2-8.1-10-16.7-20.6-18.6c-10.2,14.8-19,29.5-30,42.8c-6.3,7.7-15.4,13.9-24.4,19.1c-5.3,3-13.7,2.3-15.1-5.6
	c-1.5-8.8-1.5-17.9-0.8-26.8c0.8-9.6,2.7-19.2,5.2-28.6c1.8-6.8-2.1-10.5-6.9-13.8c-1.5-1-5.1-1.3-6.4-0.3c-3.4,2.4-7,5.3-9.1,8.7
	c-12.9,21.4-23.8,44.1-38.5,64.4c-14.8,20.5-22.1,44.1-35.5,64.8c-7.6,11.9-20.5,21.1-31.8,30.6c-6.5,5.4-14.3,9.8-22.2,13.3
	c-17.7,7.9-36.3,14.1-53.6,22.6c-17,8.4-33.2,18.3-49.2,28.3c-18.6,11.6-37.1,23.4-54.5,36.3c-11.7,8.7-23.1,16.9-37.8,21.1
	c-11.4,3.2-22,8.7-33.2,12.5c-19.4,6.7-48.8-1.2-63.7-16.4c-5.5-5.6-12.4-10.5-16.5-16.8c-4.9-7.6-8.3-16.2-10.8-24.8
	c-0.8-2.8,3.4-6.7,5.3-10.1c3.4,2.2,7.7,3.8,10.1,6.7c6.1,7.3,11.2,15.3,17,22.8c11.5,14.9,34.5,14.7,48.8,6.7
	c11.8-6.6,22.6-14.6,34-21.8c8-5.1,16.7-9.4,24.5-14.8c9.6-6.7,19-13.8,27.6-21.6c10.2-9.1,6.8-34.1-5-41.7c-1-0.7-2.5-1.3-2.8-2.3
	c-7.9-19-24.7-12.1-38.9-10.9c-11.7,0.9-23.1,4.1-34.8,5.2c-3,0.3-8.3-2.6-9-5c-0.8-2.7,1.4-7.4,4-9.5c5-3.9,11.9-5.9,16.8-9.8
	c21-16.8,43.5-32.5,61.7-51.6c10-10.6,12.9-27,18.5-41c1.8-4.6,2.4-9.7,3.3-14.6c2.4-12.1-7.7-17.9-14.6-25.8
	C402.2,850.5,390.1,851.1,378.9,845.2z M736.3,774.8c1.1,0.1,2.1,0.2,3.1,0.2c6.5-8.4,13.4-16.6,19.5-25.3
	c14.2-20.4,28.2-40.9,42.1-61.5c3.1-4.7,6.6-9.8,7.4-15c2.1-13.9,2.8-28.1,4.3-42.1c1.4-12.9,1-26.3,5-38.5
	c6.9-20.7,7-41.4,5.1-62.4c-0.3-3.5-2.6-6.9-3.9-10.3c-3.7-9.3-9.7-18.4-10.6-27.9c-1.3-13.8-0.4-28.1,2-41.8
	c3.6-20.8,9.5-41.3,13.9-62.1c0.7-3.3-1.4-7.2-2.3-11.1c0.6-0.5,2.3-2,4.1-3.5c-2.7-0.9-6.8-3.4-7.9-2.5c-3.6,2.8-7.4,6.4-8.9,10.4
	c-9.9,26.6-20,53.3-28.5,80.3c-7,22.2-13.4,44.7-17.5,67.5c-6.9,38.8-11.3,78-17.8,116.9c-6.5,39.2-14.1,78.2-12,118.1
	C733.5,767.5,735.3,771.1,736.3,774.8z M699.2,188c0,0.8,0,1.5-0.1,2.3c3.9,0.7,7.7,1.6,11.6,2.1c12.5,1.6,16.8,6.9,15.5,18.5
	c-0.5,4.3-0.3,8.8,0.2,13.1c2.1,21-14.6,38.2-35.5,38.1c-20.3-0.1-40.7,1.4-61,2.7c-6.5,0.4-14.2,2.8-13.7,9.7
	c0.5,6.7,8.6,5.4,14.2,5.7c1.3,0.1,2.6,0.1,3.8,0c31.4-2.4,62.8-4.6,94.2-7.6c3.7-0.3,8.6-5,9.7-8.6c2.2-6.6,1.9-13.9,2.8-20.9
	c3.4-25.3,6.9-50.5,10.2-75.8c0.1-1-0.6-2-1-3.5C732.8,172,716,180,699.2,188z M392.4,112.8c-0.9-0.3-1.8-0.6-2.8-0.9
	c-1.3,4-4.7,8.8-3.4,11.9c4.8,12,11.1,23.4,16.8,35c12,24.4,23.9,49,36.2,73.2c1.1,2.2,5.3,4,8.2,4.2c8.5,0.6,17.2,0.9,25.8,0.4
	c16.9-0.9,33.8-2.4,50.2-3.6c0.7-12-6.6-13.9-15.2-14.5c-5.4-0.4-10.7-0.8-16.1-1.2c-7.4-0.6-15-0.7-22.3-2.2
	c-5.6-1.1-11.8-2.9-16-6.2c-8.6-6.8-9.3-16.8-10.3-26.6c-0.9-9.2-4.2-16.9-14-22.4c-7.6-4.2-14.4-10.5-19.5-17.3
	C403.1,133.4,398.2,122.8,392.4,112.8z M600.9,223.9c6.2,2.1,11.2,9.3,18.9,3.5C612.7,229,609.1,217.1,600.9,223.9z"/>
</svg>
