<?xml version="1.0" encoding="utf-8"?>
<!-- Generator: Adobe Illustrator 25.2.1, SVG Export Plug-In . SVG Version: 6.00 Build 0)  -->
<svg version="1.1" id="Layer_1" xmlns="http://www.w3.org/2000/svg" xmlns:xlink="http://www.w3.org/1999/xlink" x="0px" y="0px"
	 viewBox="0 0 1749.3 1598.4" style="enable-background:new 0 0 1749.3 1598.4;" xml:space="preserve">
<path d="M714.9,658c-5.2,3.8-2.1,9.1-2.4,14.2c-2-0.1-3.8-0.2-6.5-0.3c1.9,5.2,0.5,8.9-3,12.6c-3.1,3.3-4.7,7.8-7.2,11.7
	c-1.9,2.9-3.8,5.9-6.2,8.2c-7,6.6-13.1,13.6-16.7,22.8c-1.5,3.8-4.9,7.1-7.8,10.2c-7.1,7.6-14.4,15-21.8,22.3
	c-3.8,3.8-8.3,7.1-12,11c-5,5.4-10.2,10.7-14,16.9c-2.9,4.8-5.9,7.5-11.4,7.7c-1.4,0.1-2.7,1.4-4.1,2.2c0.2,0.6,0.4,1.2,0.6,1.8
	c2.9-0.6,5.8-1.2,9.1-1.9c-0.5,2.3-2,4.9-1.3,6.6c0.7,1.8,3.4,2.8,5.2,4.3c2.5,2,5.2,3.8,7.4,6c6,6,12.5,9.2,21.5,9.4
	c9.7,0.2,19.3,3.4,29,5.1c6.8,1.2,13.7,2.5,20.6,2.7c9.4,0.3,16-6.4,22.5-11.8c8-6.7,15.6-14.3,22.1-22.5c5.3-6.7,9-14.8,12.9-22.5
	c2.6-5.1,4-10.8,6.2-16.2c1.3-3.2,3.2-6.1,4.7-9.2c1.8-3.8,3.5-7.7,5.1-11.6c0.6-1.3,0.5-3.1,1.4-4.1c11.4-13.3,10.6-29.7,11.3-45.6
	c0.8-17.7,1-35.4,1.5-53.1c0-1.7,0.4-3.5,0.8-5.2c3.1-13.2,5.9-26.5,9.6-39.5c2.5-8.8,6-17.4,9.6-25.9c1.3-3,4.2-5.2,6.4-7.8
	c1.7-2,3.8-3.6,5.1-5.8c4.3-7.3,10.9-12,18.1-15.9c4.1-2.2,8.4-3.9,12.6-5.8c5.2-2.4,10.2-4.4,16.6-3.6c4.8,0.6,10.8-0.8,15-3.4
	c7.3-4.5,13.9-3,20.8-0.4c5.4,2,10.4,5.8,16.5,2c0.6-0.4,1.9-0.3,2.5,0.1c4.3,2.8,8.9,5.4,12.8,8.7c8.7,7.5,17.5,15,25.4,23.2
	c6.1,6.3,11.1,12.6,19.8,16.8c10.8,5.2,20.3,14,26.5,25.5c10.2,18.9,16.3,38.9,19.2,60c0.2,1.2,0.4,2.4,0.2,3.5
	c-4,16.5-3.8,34-12.4,49.4c-3.5,6.2-6.9,12.6-10.9,18.5c-1.3,1.9-5.5,1.9-6.6,3.7c-3.8,7-11.8,7.4-17.2,12
	c-16.4,14.2-36.1,22.8-55.7,31.3c-6.6,2.9-14,3.7-20.8,6.2c-3.3,1.2-6.3,3.8-9.1,6.2c-4.5,4.1-8.8,8.3-12.8,12.9
	c-3,3.4-5.1,7.5-7.9,11.1c-2.9,3.6-6.4,6.7-9.1,10.5c-1.6,2.2-2.7,5.1-3,7.8c-0.5,4.9-0.3,9.9-0.5,14.8c-0.1,2.3,0.3,5.5-1,6.7
	c-9.2,8.8-1.6,18-0.8,26.8c0.4,4.7,4.3,7.9,8.9,10.8c7.3,4.7,14.6,9.1,22.6,12.7c7,3.2,13.8,5.4,21.7,5.1c5.3-0.2,10.8,2.4,16.1,2.3
	c8.9-0.3,17.8-1.6,26.6-2.9c4.8-0.7,9.5-2.7,14.3-3.6c9.7-1.8,18.3-5.2,25-12.8c2.1-2.3,5.6-3.4,8.5-5c1-0.6,2.2-0.7,3.2-1.4
	c10.8-7.2,21.4-14.8,32.6-21.4c9.9-5.8,20.1-11.4,31.8-13.3c4.5-0.7,8.8-3,13.3-3.7c5.1-0.8,10.3-0.7,15.5-0.7
	c7-0.1,13.9-0.4,20.9,0c6.8,0.4,13.8,1,20.3,2.8c12.9,3.4,25.6,7.3,38.2,11.6c3.6,1.2,6.2,4.8,9.5,6.9c7.9,5.2,15.8,10.2,21.6,17.9
	c1.3,1.7,4,2.2,6,3.4c19.4,11.7,36.7,26.1,51.4,43.3c5.1,5.9,9.2,12.7,13.3,19.3c5.4,8.5,10,17.4,15.6,25.8
	c9.9,14.7,13.6,31,14.2,48.4c0.1,2.5,1,5.1,1.7,7.6c0.3,1.4,1.6,3.3,1.1,4c-4.2,6.2-1.5,14.8-7.3,20.5c-3.8,3.8-4.1,6.4-4.7,18.8
	c-2.6-6.9-5.2-4.7-7.6-1.1c-1.3,1.9-2.4,4-3.3,6.1c-5.3,11.8-14.4,20.3-24.5,27.9c-2.3,1.7-5,3.3-7.7,3.9
	c-14.1,3.3-28.2,6.4-42.3,9.4c-13.9,3-27.5,2.7-41.3-1.6c-5.5-1.7-12.2-2-17.9-0.7c-11.5,2.6-22.6,6.9-33.9,10.1
	c-10,2.8-20.2,5.5-30.4,7.4c-7.4,1.4-14.5,2.5-21.7,5.5c-13.1,5.4-26.9,9-40.6,12.7c-3.8,1-8.1,0.5-12.1-0.1c-5-0.7-9.1-6.7-7-10.9
	c3.1-6.4,4.2-14.2,11.7-17.7c0.5-0.2,0.9-0.7,1.3-1.1c7.3-7.5,7.7-9.4-0.6-15.8c-16.3-12.6-27.1-30.1-41.1-44.8
	c-3.3-3.5-4.7-8.8-8.1-12.2c-8.4-8.7-12.7-19.9-19-29.8c-4.9-7.8-8.4-16.5-11.7-25.1c-3.9-10.2-9.7-18.9-18.4-25.6
	c-9.8-7.5-19.7-14.9-29.7-22.2c-11.1-8.1-23.3-12.9-37.3-12.1c-12.7,0.7-25.4,1.2-38,2.4c-15.2,1.4-32.6,17.9-35.5,32.8
	c-0.2,0.9,0,2-0.5,2.5c-7,6.9-4.9,16.8-8.2,24.8c-7.8,18.9-7.8,38.5-6,58.4c0.1,1.1,0.3,2.4,0.9,3.3c6.1,10,8.3,22,16.4,31.2
	c5.6,6.3,8.7,14.9,13.4,22.1c7.6,11.6,15.6,22.9,23.4,34.3c0.7,1,1.7,1.8,2,2.8c5.6,20.3,16.1,39.4,14.8,61.5
	c-0.3,5.1,0.7,10.2,1.1,15.4c0.6,0.2,1.2,0.3,1.8,0.4c6.1-9.3,11.7-18.8,18.4-27.7c8.4-11.2,13.6-24.8,27.3-32.1
	c7.5-4,14.4-10.3,19.4-17.2c5.4-7.2,12.9-9.8,20.2-12.2c16.7-5.5,34-9.3,51.9-9.2c6.8,0.1,13,1.4,18.1,7c7.1,7.8,5.7,16-4.4,18.3
	c-15.2,3.5-26.9,13-39.6,20.8c-2.1,1.3-3.7,3.6-5.5,5.4c-1.2,1.2-2.7,3.7-3.6,3.5c-7.6-1.7-7.4,4.4-9.2,8.6
	c-0.2,0.5-0.4,1.2-0.8,1.6c-13,12.8-12.5,28.3-9.1,45.9c4.5-3.4,8.3-6.2,12-9.1c7-5.5,13.5-11.8,21.1-16.4
	c6.3-3.7,13.7-6.1,20.9-7.7c8.2-1.9,16.1-3.6,24-7.2c10.8-5,22.8-6.8,34.9-3c3.6,1.1,7.4,1.6,10.9,3.1c5,2.1,10.3,4.1,14.4,7.4
	c13.7,11.5,24.3,25.8,32.8,41.4c2.5,4.6,3.3,10.7,3.1,16c-0.4,12.7-0.3,25.8-3.2,38.1c-2.6,11.1-9.4,21.1-13.1,32
	c-2.5,7.3-9.1,10.1-13.4,15.3c-6.9,8.5-14.1,16.8-22.3,23.9c-12.6,10.8-26.4,20.2-42.2,26.3c-10.7,4.1-21.8,3.3-32.7,4.4
	c-5.5,0.6-11.1,0.1-16.6,0.5c-18.3,1.3-32.3-6.8-46.5-17.6c-10.9-8.3-17.9-17.3-20.8-30.3c-0.5-2-3.8-3.9-6.1-4.8
	c-7-2.8-14.8-4.1-21.2-7.9c-8.6-5.1-14.7-13.2-17.7-22.9c-4.7-15.4-9-31-13.5-46.9c-0.6,0.4-1.9,0.7-2.3,1.5
	c-5.8,13.3-16.4,23.2-25,34.5c-6.6,8.8-15.7,14.8-26.2,18c-18.6,5.7-37.1,11.7-56,16.1c-14.3,3.3-27.9-0.2-40.5-8.3
	c-7-4.5-14.7-9.1-22.7-10.5c-23.3-4.1-39-18.7-54.5-34.9c-10.1-10.5-14.8-23.2-19.9-36.1c-2-5-3.7-10.2-6.7-14.5
	c-3.2-4.5-2.2-9.3-3-14c-4.2-25.9,5.2-49.1,13.3-72.7c3.7-10.8,11.4-16.9,19.2-23.7c5-4.3,9.4-9.5,14.3-14
	c11-10.1,22.1-20.1,33.2-29.9c1.2-1.1,3.1-1.5,4.8-2.1c8.7-3,15.3-9.1,21.8-15.2c1.2-1.1,1.9-2.9,2.7-4.4c2.5-4.5,5.2-8.9,7.5-13.6
	c3.6-7.2,6-15.1,10.4-21.8c8.4-12.8,9.4-27,10.6-41.6c0.8-9.4,3.4-18.6,4.6-28c2.6-20.2,1.6-40.2-14.9-54.6
	c-9.4-8.2-20.7-14.8-32.2-19.7c-22.3-9.6-46.5-9.4-70.3-9.3c-9,0.1-14.7,8.9-11,17.1c1.7,3.9,0.1,5.9-1.3,9.3
	c-5.1,12.1-12.2,23.7-11.1,37.5c0.2,2.4,1.9,4.8,3.1,7c3.4,6.1,3.3,12.8-0.3,16.2c-3.9,3.7-11.1,3.3-16.9-0.8
	c-4.8-3.3-9.7-6.3-14.5-9.6c-9.1-6.3-13-16.1-17-25.7c-4.3-10.4-7.2-12.5-16.9-8c-19.7,9.2-40.6,14.4-62,16.9c-21.9,2.6-44,4.1-65-6
	c-4.2-2-8.8-2.9-13-4.9c-3.3-1.6-6.5-3.8-9.3-6.2c-5-4.3-10.3-8.4-14.3-13.5c-5.5-7-11.1-14.4-14.4-22.5
	c-5.6-14.2-10.9-28.9-13.6-43.9c-2.2-12-4.5-24.6-1.4-37.2c2.5-10.4,3.3-21.2,5.9-31.5c2.4-9.8,5.5-19.4,12.5-27.4
	c6.1-6.9,10.2-15.5,16.7-21.9c10.4-10.3,22-19.6,37.3-22.1c0.6-0.1,1.1-0.4,1.6-0.7c16.7-10,35.7-9.5,54.1-11.5
	c4.7-0.5,9.7,1.2,14.6,2c12.3,2.1,24.5,4.7,36.8,6.5c11.5,1.7,19.7,9.5,28.9,15.2c10.8,6.7,18.2,17.1,26.9,26.2
	c5.9,6.2,12,12.2,18.2,18.4c0.5-0.4,1.7-0.9,1.7-1.5c0.7-10,7.8-12.8,16-14.2c7.1-1.3,14.3-2.6,21.5-3.6c6.6-0.9,11.9-3.5,17-8
	c11.2-10.1,22.3-19.9,27.8-34.8c2.6-7.2,4.9-14.3,4-22c-0.9-8.6-2-17.1-3.1-26.7c-7.1,3.6-13.5,6.7-19.8,10.2
	c-13,7.1-26.9,11.5-41.5,12.2c-17.6,0.8-35.1,0.5-52.7-2.5c-15.8-2.7-28.4-11-42-17.8c-1-0.5-2.2-1.1-2.8-2
	c-10.5-13.8-20.9-27.1-20.8-46.3c0.1-16.1,3-31.6,9-45.8c7.6-17.9,14.1-37,28.6-51.3c8.6-8.5,17.3-17,26.2-25.2
	c5.3-4.9,11.2-9.1,16.5-14c12.6-11.5,28.2-17.1,43.8-22.5c16.3-5.7,16-5.6,16.3-22.4c0.3-18,0.9-36,10-52.4
	c4.3-7.8,6.7-16.7,11.3-24.3c3.3-5.5,8.7-9.7,13.3-14.4c3.8-3.9,8-7.5,11.5-11.6c0.9-1.1,0.8-4.1-0.1-5.6c-2.3-4-5.7-7.3-7.9-11.3
	c-12.1-22.3-27.4-43.1-35.3-67.3c-6.2-19.1-13-38.6-11.9-59.3c0.4-6.8,3-13.5,4.8-20.2c0.5-1.9,1.7-3.7,2.3-5.6
	c3.3-10.2,5.5-20.8,10-30.4c3.7-8,9.3-15.5,15.2-22.1c6.9-7.7,15.1-14.3,22.8-21.3c5-4.6,10.8-7.8,17.7-8.5c2.3-0.2,4.8-0.5,6.7-1.7
	c11-6.9,23-10.9,35.5-14c4.6-1.1,8.6-2.2,13.5-1c3.2,0.8,7.2-1.4,10.8-2.4c5.6-1.5,11.1-4,16.8-4.5c5.9-0.6,11.9,1.1,17.8,1.1
	c14.7-0.1,29.5-1.1,44.2-0.8c19.4,0.3,39-0.5,58,5.1c1.9,0.6,4.8,0.4,5.7,1.7c4,5.6,9.5,4.5,15,4.2c11.4-0.5,22.7-0.5,33.2,4.8
	c3.5,1.8,6.8,4.5,10.4,5.5c8.1,2.1,16.5,3.3,24.7,5c7.4,1.5,14.7,3.2,22.1,4.9c0.6,0.1,1.4,0.3,1.6,0.6c3.2,8.1,10.6,5.5,16.6,7.2
	c10.4,3,20.2,8.2,30.4,12.3c2.9,1.2,6,2.5,9.1,2.7c15.8,1.2,27.9,10.6,41,17.7c2.6,1.4,5.4,2.6,8.2,3.6c7.3,2.6,15.4,3.2,21.1,9.6
	c1.4,1.6,3.9,2.4,6.1,3c9.2,2.7,18.5,5.1,27.7,7.9c2.7,0.8,5.5,2,7.8,3.6c7.9,5.4,16.2,9.7,25,13.5c6.2,2.7,11.2,8.5,16.7,12.9
	c1.6,1.2,3,2.8,4.8,3.6c17,7.6,32.4,17.6,45.9,30.6c1.7,1.6,4.8,2.5,7.1,2.3c7.3-0.7,13.2,2.2,18.5,6.4c6.6,5.2,12.5,11.2,19,16.5
	c6.9,5.6,14.1,10.8,21.2,16.2c17.3,13,33.2,27.2,40.5,48.6c0.1,0.3,0.2,0.6,0.3,0.8c8.9,13.3,9.4,29,12.1,44
	c1.1,6.3-0.3,13.3-1.8,19.7c-3.6,14.3-8.3,28.4-16.4,40.9c-0.5,0.7-0.7,1.9-1.4,2.2c-7,2.9-10.4,10.7-18.1,12.8
	c-2.8,0.8-5.6,2.9-7.7,5.1c-9,9.5-20.1,14.3-32.8,16.4c-9.1,1.5-17.9,4.5-26.9,6.8c-1.1,0.3-2.4,0.7-3.1,1.5
	c-7.7,8.5-17.9,11.5-28.3,15.3c-9.4,3.4-18,9.2-28.5,9.9c-0.8,0-1.6,0.7-2.2,1.2c-13.3,11.9-29,18.3-46.7,19.9
	c-1.7,0.2-3.7,0.3-5,1.2c-6.3,4-13.1,4.2-20.2,3.8c-2.8-0.2-5.7,0.5-8.5,1.2c-5.6,1.3-11.1,3.7-16.7,4.1
	c-10.1,0.7-20.2,0.3-30.3,0.3c-1.4,0-3.3,0-4-0.9c-2.7-3.2-5.1-1.2-8.2-0.9c-7.6,0.8-15.5-0.5-23.2-0.9c-6.9-0.4-13.8-0.7-20.7-1
	c-1.4-0.1-3.6,0.5-4.1-0.2c-3-4.1-6.6-2.5-10.3-1.9c-5.7,1-10.7,0.4-15.9-3.5c-3.2-2.4-8.7-1.6-13.2-2.5c-2.3-0.5-5.1-1.1-6.4-2.7
	c-2.4-3-4.1-3.2-7.2-1c-1.7,1.2-4.4,1.5-6.5,1.2c-6.6-1-13.1-2.5-19.6-3.8c-1.1-0.2-2.6,0-3.4-0.7c-8.4-7.5-19.5-3.4-28.9-6.6
	c-1.7-0.6-4.2,0.8-6.2,1.4c-5.2,1.7-10.2,4.7-15.4,5.1c-16.8,1.2-33.4,1.7-50.4-1.3c-20.4-3.7-39.7-10.5-59.5-15.9
	c-9.1-2.5-14.9-9.3-22-14.4c-6.8-4.8-12.1-12-19.2-15.9c-7.2-3.9-12.5-9.3-17.9-14.8c-2.2-2.2-4-4.9-5.9-7.4
	c-5.6-7.4-14.7-7.5-22.4-10.2c-1.2-0.4-4.2,1.5-5.1,3c-4.1,7.2-8,14.7-11.6,22.2c-1.8,3.7-0.4,6.5,3.2,8.7c8,4.7,16,9.4,23.5,14.8
	c13.9,9.9,25.4,22.4,29.4,39.2c3,12.8,3.3,26.3,4,39.6c0.3,5.9,0.8,12-2.5,17.8c-1.1,2,0.7,6.3,2.2,8.9c3.6,5.9,3.9,11.8,3.1,18.4
	c-0.9,7.1-0.3,14.4-1.1,21.6c-0.8,6.9-2.5,13.7-3.7,20.5c-0.4,2.5-1.5,5.5-0.6,7.6c1.8,4.2,5,7.7-2.6,9.1c-0.9,0.2-1.4,2.9-1.9,4.5
	c-2.4,7.4-4.8,14.8-7.2,22.3C714.6,658.3,714.9,658,714.9,658z M1003.1,478.3c3.5-1.5,6.4-4,9.4-4c12.2,0,24.5,1.5,36.6,0.8
	c14.1-0.8,27.7,4.4,42.1,2.2c14.9-2.3,30.1-2.5,45.1-4c6.9-0.7,14.1-1.4,20.5-3.8c14.5-5.4,28.6-12,42.8-18c1.9-0.8,4-1.3,5.6-2.4
	c4.1-3,8.3-5.7,8.2-12c-0.1-7.6,5.3-11.8,12.6-9.9c7.2,1.8,13,0.3,18.5-4.5c3.9-3.4,7.7-7.5,12.3-9.4c10.1-4,15.3-12.8,19.8-20.9
	c6.7-12.1,15.7-23.6,16.5-38.5c0-0.8,0.9-1.5,1.1-2.4c1.5-8.9,7.7-16.9,5.6-26.5c-2.9-13.9-5.8-27.8-9-41.6c-1-4.4-2.7-8.9-4.9-12.9
	c-3.4-6.3-7.4-12.3-11.5-18.3c-1.8-2.6-4.3-4.6-6.6-6.8c-8.2-7.7-22-9.3-25.1-22.8c-0.3-1.3-2.6-2.1-3.8-3.4
	c-1.6-1.6-3.4-3.3-4.4-5.2c-2.1-3.9-3.4-8.4-9.6-5.5c-0.8,0.4-2.9-1.5-4.2-2.5c-4.7-3.4-9.3-7-14.2-10.1c-3.1-1.9-6.8-2.8-9.9-4.7
	c-3.6-2.3-6.7-5.4-10.3-7.7c-6.1-3.9-13.1-6.6-18.4-11.4c-5.9-5.3-12-8.3-19.5-10.9c-13.2-4.6-25.4-12.1-38.1-18.3
	c-2-1-4.4-1.2-6.6-1.6c-2.3-0.4-4.9,0.1-6.8-0.9c-14.8-7.7-31-12.5-45.2-21.4c-2.7-1.6-5.9-2.3-8.8-3.6c-8.4-3.5-18.3-3-25.4-10
	c-0.8-0.7-2.7-0.1-4.1-0.3c-2-0.3-4.1-0.4-5.9-1.1c-18.4-7.8-36.8-15.4-56.8-17.8c-1.7-0.2-3.3-1.1-4.9-1.6
	c-6.4-1.9-12.8-3.8-19.2-5.6c-5.6-1.6-12.2-1.9-16.4-5.2c-4.3-3.4-8-3.8-12.6-3.2c-13.4,1.6-26.6,2.1-39-4.6
	c-1.2-0.6-2.9-0.8-4.2-0.6c-15.5,3.1-30.5,0-45.5-3.9c-1.8-0.5-4.7-0.9-5.7,0.1c-5.4,5.3-11.8,4.1-18.1,3.5
	c-17.8-1.8-35.4,0.5-52.4,5.3c-15.8,4.5-31.6,9.6-46.8,15.9c-11.2,4.6-23.7,8.2-29.9,20.6c-0.6,1.2-2.2,1.8-3.4,2.6
	c-13.1,9.6-19.1,24.2-23.3,38.5c-4,13.4-3.6,28.1-4.9,42.2c-0.2,2.7,0.7,5.7,1.6,8.4c1.6,4.6,4.5,8.9,5.2,13.6
	c1,7,3.4,13.3,6.6,19.5c8.5,16.8,16.8,33.6,27.8,48.9c5.7,7.9,10.6,16.1,17.5,23.3c7.1,7.5,13.3,15.9,22,21.8
	c2.4,1.6,4.5,3.8,6.5,5.8c5.8,6,11.5,12.2,17.3,18.2c4.2,4.4,9.2,8.2,12.5,13.1c3,4.5,6.2,8,10.8,10.8c5.2,3.2,10.2,6.6,14.8,10.5
	c16.3,13.7,34.7,23.8,54,32.3c14.8,6.5,30.2,12,45.2,18c4.5,1.8,8.8,4.3,13.4,5.8c9.6,3.1,19.3,5.9,29.1,8.7
	c11.7,3.3,23.5,6.1,35,9.8c11,3.5,21.9,6.9,33.4,7.7c2.6,0.2,5.3,0.4,7.7,1.3C991.9,470.3,1000.3,470.3,1003.1,478.3z M912,933.7
	c1.9,1.7,3.7,3.3,5.6,5c5.6,4.9,11.4,9.6,16.8,14.8c4.1,3.9,8.6,8,11.2,12.9c3.5,6.8,9,13.1,7.7,21.7c-0.1,0.9,0.9,2.1,1.5,3.1
	c2.3,3.9,4.7,7.8,7.1,11.7c7.2,11.4,12.5,24,22.4,33.8c6.6,6.5,11.8,14.5,17.9,21.6c7.3,8.5,14.3,17.5,22.7,24.8
	c14.8,12.9,33.2,18.7,52.3,22c3.9,0.7,8.1,0.3,12.2,0c6.9-0.6,13.8-1.7,20.8-2.2c17.5-1.2,33-8.6,48.4-15.7
	c12-5.6,19.9-16,28.2-26.3c15.7-19.6,23.4-43.1,34.6-64.9c0.5-1,0.6-2.3,0.6-3.4c-0.4-12.7,0.8-25.8-4.8-37.8
	c-5.7-12.2-12.3-24.1-17.5-36.5c-3.7-8.8-9.8-14.6-17.7-19.2c-3.4-2-5.9-5.4-9.2-7.8c-5.9-4.4-12-8.6-18.1-12.7
	c-7.9-5.2-17.3-4.3-26-5.7c-14.3-2.3-28.7-3.4-43.1-4.8c-2.6-0.2-5.4-0.1-7.8,0.8c-17.5,6.7-36.8,9.8-50.8,23.5
	c-4.1,4-10,4.2-13.8,7.8c-9.3,8.5-19.8,15.8-31.3,19.4C959.4,926.3,937.4,936.4,912,933.7z M732.8,987.5c-0.6,4.5-1,8.1-1.7,11.7
	c-0.9,4.5-1.5,9.2-3.1,13.5c-3.2,8.9-6.5,17.8-10.8,26.3c-6.2,12.2-9.9,26-20.9,35.5c-2.8,2.4-4.5,6.1-7,8.8
	c-3.6,4-8.1,7.4-11.2,11.7c-4.7,6.4-12.3,8.5-18.1,13c-10.5,8.1-20.8,16.5-30.8,25.2c-4.5,3.9-7.9,9.2-12.4,13.1
	c-9,7.7-16.4,16.1-17.8,28.6c-0.5,5.2-2.2,10.4-3.8,15.5c-4.8,15.7-6,32.1-0.8,47.2c3.6,10.4,3.8,22.1,11.2,31.6
	c3,3.8,4.8,8.2,9.3,10.9c5.9,3.6,12,7.2,17.2,11.8c7.5,6.6,15.5,11.9,25.3,14.2c6.7,1.5,13.6,2.7,20,5.2c4.6,1.8,8.5,2.3,13.3,1
	c7.5-2,14.8-1.2,21.4,4.2c2.1,1.7,5.8,2.8,8.5,2.5c10.9-1.5,21.8-3.7,32.6-5.7c1.4-0.3,2.8-1,3.9-1.8c6-4.5,12.8-8.4,17.8-13.9
	c8.2-9.2,16.3-18.9,22.4-29.6c10.4-17.9,11-38.1,10.8-58.3c-0.2-17.3-8.1-32.4-12.2-48.6c-0.2-0.8-0.8-1.6-1.3-2.2
	c-10.3-12.5-19.5-25.6-28.4-39.1c-10.9-16.3-19.4-33.8-26.8-51.4c-8.7-20.9-7.8-43.7-1.8-65.9C738.8,996.7,738.7,991.9,732.8,987.5z
	 M670.1,859.4c3.2,2.9,4.8,5.2,7,6.2c8.6,4.1,15.5,10.7,23.4,15.5c21,12.8,32.2,30.9,34.5,54.8c0.8,8.6-0.2,17.4,0.5,26.1
	c0.6,8.4,2.2,16.8,3.4,25.2c0.9,0.1,1.8,0.2,2.6,0.2c0.7-1.9,1.7-3.8,2.1-5.7c0.9-4.1,1.2-8.4,2.4-12.4c1.7-5.5,3.8-10.8,6-16
	c0.9-2,2.6-3.7,4.1-5.4c3.5-4.2,8.2-7.8,10.4-12.6c2.8-6.2,7.8-8.4,13.3-10.1c13.5-4.4,27.2-8.3,40.7-12.6c2-0.7,3.8-2.3,5.7-3.5
	c-1.4-2-2.4-4.6-4.3-5.8c-4.7-3-9-6.2-11.5-11.5c-1-2.2-3.5-3.7-5.6-5.2c-6.9-5.1-12.6-11.2-15.3-19.5c-2.2-6.6-4-13.3-6.3-19.9
	c-4.2-12.4-7.6-24.9-3.4-38.1c0.8-2.5,0.9-5.2,1.4-7.7c2.5-11.9,4.7-23.9,12.6-33.8c0.7-0.9,1.6-2,1.5-3.1
	c-0.3-10.1,7.8-15.7,12-23.4c3.9-7.2,10.5-10.6,17.5-13.4c3.8-1.5,7.9-2.4,11.2-4.6c11.9-7.8,25.1-12.7,38.7-14.7
	c17.2-2.5,33.2-8.5,47.9-16.4c11.8-6.3,20.8-18,30.9-27.4c0.8-0.7,0.8-2.1,1.3-3.2c7.4-18.4,8.9-37.2,3-56.1
	c-2.3-7.3-5.8-14.4-10-20.8c-3.9-6-10-10.6-14-16.6c-3.9-6-12.8-7.2-14.2-15.5c-0.2-1-2.9-1.7-4.5-2.2c-2.8-0.9-5.9-1-8.4-2.3
	c-17.3-9.3-34.8-3.2-50.9,1.6c-21.3,6.3-34.4,23.3-39.8,44.8c-3.7,14.5-9.3,28.6-8.7,44.1c0.2,5.4-2.2,10.8-2.7,16.3
	c-0.6,7.1-0.6,14.3-0.4,21.4c0.2,8,4.1,15.8,1.2,24.1c-1.6,4.6-2.2,9.5-3.3,14.3c-1.2,5.3-2,10.9-4,16c-3.8,9.7-7.3,19.7-12.8,28.4
	c-7.3,11.5-5,27.3-17.1,36.4c-0.8,0.6,0,3-0.8,4.1c-3.8,5.5-7.6,11-12,16.1c-3.1,3.6-7,6.6-10.5,9.8c-1.9,1.8-3.4,3.9-5.5,5.5
	c-4.9,3.7-10.1,7.1-15.1,10.7c-0.8,0.6-0.9,2.1-1.6,2.9c-1.4,1.7-2.6,3.7-4.4,4.8c-11.3,6.8-22.9,12.5-36.8,10.4
	C678.4,859,675.1,859.4,670.1,859.4z M707.1,525.6c-1.5-10.3-1.9-20.9-4.8-30.8c-3-10.2-9.2-18.6-19.2-24.7
	c-14-8.5-27.5-16.4-44.7-14.5c-6.9,0.8-14.8-1.1-20.7,1.6c-12.8,5.9-27.5,6.8-39.2,15.3c-4,2.9-7.3,6.9-11.6,9.1
	c-14.3,7.2-23.7,19.9-34.5,30.9c-10.2,10.4-19.8,21.9-24.9,36.2c-3.6,10-7.1,20.1-10,30.3c-1.1,3.8-0.8,8,4.4,10
	c1.9,0.8,3.8,3.9,3.9,6c0.2,5.8,0.4,11.8-1.2,17.2c-1.8,6,0.8,9.6,4.4,12.9c2.5,2.3,5.8,3.9,8.9,5.3c12.9,6,25.6,12.2,40.4,12.3
	c12.9,0,25.8,0.6,38.8,1c0.3,0,0.6-0.1,0.8-0.2c10.3-4.4,20.9-8.3,30.8-13.3c10-5.1,19.6-11,29-17.1c5.2-3.4,10.1-7.7,14.2-12.4
	c5.4-6.3,10-13.3,14.7-20.3c1.9-2.8,3.3-6,4.5-9.1c3-7.5,4.8-15.8,9.1-22.4C705,541.5,706.3,534,707.1,525.6z M549.9,789.9
	c0.5-0.3,1-0.7,1.6-1c-2.3-4.2-4.2-8.8-7-12.7c-5.9-7.9-12.5-15.2-18.5-23c-3-3.9-5.6-7.5-10.5-9.9c-4.7-2.3-8.9-6.6-12.3-10.8
	c-4.8-6-10.8-10.1-18-11.4c-18.7-3.3-37.1-11.1-56.5-7.6c-13.7,2.5-27.8,3.3-40.4,11.1c-11.7,7.2-22.3,14.6-30.5,26.2
	c-8.6,12.2-14.8,24.7-16.9,39.3c-1.5,10.3-3.3,20.5-4.2,30.8c-0.4,4.2,2,8.6,1.7,12.8c-1.1,15,5.8,27.7,11.6,40.6
	c1.8,4.1,4.7,8.7,8.4,10.7c12.6,6.9,26.4,4.9,40,3.5c0.8-0.1,1.7-0.6,2.4-1.1c16.2-11.6,32.8-22.6,48.6-34.8
	c12-9.3,20.8-21.9,30-33.9c1.2-1.6,2.5-3.2,4-4.5c9.9-8.4,19.8-16.8,29.7-25.1C523.9,779.8,538.8,780.2,549.9,789.9z M961.1,1383.6
	c0-0.2,0-0.3,0-0.5c7.3,0,14.6,0.5,21.8-0.2c5.1-0.5,11.1-1.1,14.9-4c10.2-7.8,21.7-13.4,31.3-22.5c13.4-12.7,25.1-25.9,33.6-42.3
	c8.6-16.7,8.4-34,5.5-51.8c-2.3-13.8-12.4-23.4-21.3-31.9c-12.8-12.4-30.2-14.6-48.4-5.1c-4.3,2.3-8.9,4.3-13.7,5.4
	c-16.8,3.9-31.4,11.7-42.9,24.4c-8.3,9.1-15.9,19-23.5,28.8c-1.7,2.2-2.3,5.3-3.4,8c-2.5,6.5-4.5,13.2-7.6,19.4
	c-5,9.9-6.9,20.4-6.1,31.2c0.3,4.1,2.6,8.3,4.9,11.8c5.8,8.7,13.7,15.4,21.8,22c6.7,5.5,12.9,9.4,22,7.5
	C953.4,1382.9,957.3,1383.6,961.1,1383.6z M530.6,861.5c-0.6-0.3-1.3-0.6-1.9-0.9c-0.9-2.6-1.8-5.2-2.9-8.4c-1.6,3-2.8,5.7-4.3,8
	c-3.5,5.3-4.5-1.8-6.6-1c-5.2,5-10.8,9.4-16.4,13.8c-1.8,1.4-3.9,2.9-4.8,4.9c-2.1,4.8-5.7,7-10.5,8.3c-3.1,0.8-7,2.3-6.1,6.1
	c1.2,5.4-1.8,6.7-5.6,7.8c-3,0.8-6.2,1-9.2,2.1c-1.6,0.6-2.7,2.3-4.1,3.6c1.3,0.8,2.8,2.4,4,2.3c11.7-1,22.9-4.3,32.9-10.3
	c9-5.5,17.4-12.1,26.1-18.1c0.5-0.3,1-0.5,1.6-0.7c9.9-4.5,20.2-8.5,29.7-13.7c13.5-7.4,26.9-14.8,43-14.6c5.4,0.1,9-2.8,12.5-7.8
	c-1.9-0.3-3.9-1.2-4.3-0.7c-4.4,4.8-8.5,4.5-13.7,0.8c-2.8-2-7.8-3.6-9.8,0.9c-1.4,3.1-2.4,2.9-4.9,2.3c-4-1-7.8-1.3-10.7,3.2
	c-1.1,1.7-4.3,2.7-6.7,2.9c-4.6,0.5-9.3,0.4-13.9,0.1C537.5,852.2,531.6,852.4,530.6,861.5z M913.7,1226.8c-1,0-2.1-0.1-3.1-0.1
	c0,3.2,0,6.3,0,9.4c0.8,0,1.6,0.1,2.4,0.1C913.3,1233,913.5,1229.9,913.7,1226.8z M596.6,838.6c0.8-1.1,1.8-2,1.7-2.2
	c-0.5-0.8-1.3-1.9-2.2-2c-0.5-0.1-1.3,1.3-2,2C594.9,837.1,595.6,837.7,596.6,838.6z M580.9,834.2c-2.9-2.1-3.5-2.6-4.1-3.1
	c-0.6,0.9-1.3,1.7-1.7,2.7c-0.1,0.3,1,1.4,1.6,1.4C577.9,835.2,579,834.7,580.9,834.2z M556.4,798.7c-0.3-0.4-0.5-1-0.9-1.1
	c-0.3-0.1-0.8,0.4-1.2,0.7c0.3,0.4,0.5,1,0.9,1.1C555.5,799.4,556,798.9,556.4,798.7z"/>
<path d="M220.4,619.3c-7.8,3.9-15.1,9.2-23.3,11.5c-18,4.9-35.8,12.7-55.3,9.1c-5.1-0.9-10.4-1.4-15.6-1.6
	c-14.8-0.7-27.1-8-39.7-14.6c-0.3-0.1-0.6-0.2-0.8-0.4c-8.2-11.3-20.3-18.9-27.3-31.8c-7.6-13.9-9.6-28.1-8.4-42.8
	c1.3-16.2,4.6-32.1,12.3-46.8c4.1-7.8,4.5-15.8-1.9-23.5c-2.5-3-3.4-8-3.4-12.1c0.1-8.4,0.9-16.9,7.3-23.5c0.4-0.4,0.7-1,0.8-1.5
	c3.3-20.6,14.1-38.4,21.3-57.5c2.9-7.8,7.6-15,12.2-22c9.2-14.4,18.4-28.8,28.6-42.5c6.1-8.3,14.1-15.2,21.2-22.7
	c0.6-0.6,1.6-1,1.9-1.8c5.3-11.6,16.7-17.4,24.8-26.5c6.1-6.9,12-14,18.5-20.5c8.5-8.5,17.4-16.7,26.3-24.8
	c7.1-6.4,14.2-12.8,21.8-18.5c5.2-3.9,11.3-6.7,17.1-9.8c5-2.8,10.7-4.8,15.2-8.3c12.5-10,26.4-17.4,40.9-24.1
	c10.7-4.9,20.8-11.3,31.2-17c1.8-1,3.6-1.8,5.6-2.4c17.9-5,36.1-9,53.7-15c28.2-9.5,57.4-10.1,86.6-10.9c15.4-0.4,30.8-1,46.1-1.6
	c5.9-0.2,12.2,3.3,13.6,8.7c0.5,1.6,0,4.3-1.1,5.5c-4.1,4.5-8.6,8.8-15.4,8.5c-4.8-0.2-9.1,0.6-12.8,4.2c-1.3,1.2-3.6,1.7-5.5,2
	c-18.1,3-36.5,4.5-54.1,9.2c-15.6,4.2-32,8.2-44.3,20.5c-2.1,2.1-5.5,2.8-7.8,3.9c2.6,2.7,5.2,5.6,7.9,8.3c1.2,1.2,2.7,2.5,4.2,2.9
	c11.8,3.2,20.8,11.3,30.8,17.6c15.3,9.6,24.6,23.5,31.3,40.1c5.8,14.2,8.2,28.8,8.8,43.8c0.3,6.8,2.8,13.5-0.1,20.5
	c-0.7,1.7,0.9,5.4,2.6,6.8c5.7,5,5.1,10.8,3.1,16.8c-1.3,4-3.2,7.6,0.5,11.2c-3.5,7.1,3.6,11.4,4.5,17.4c1.2,8.4,1.7,16.3-1.7,24.8
	c-3.8,9.5-5,20.1-7.8,30c-1.6,5.9-3.5,11.7-6,17.3c-4.6,10.3-9.1,20.6-10.2,32.1c-0.2,2.5-2.7,4.9-4.7,6.9
	c-6.4,6.6-13.6,12.3-17.2,21.6c-1.8,4.5-7.1,7.6-10,11.8c-3.4,4.9-5.8,10.5-8.9,15.5c-2.4,3.9-5.1,7.8-8.2,11.1
	c-4.1,4.5-8.7,8.5-13.1,12.7c-0.4,0.4-1.2,0.5-1.5,0.9c-1.7,3.5-3.2,10-5.1,10.1c-4.7,0.3-6.3,2.8-8.8,5.6
	c-5.7,6.1-12,11.6-17.8,17.6c-3.8,4-7,8.5-10.7,12.6c-1.5,1.7-3.5,3-5.2,4.5c-3.8,3.4-7.6,6.8-11.4,10.2c-8.5,7.5-17.2,15-25.7,22.6
	c-3,2.6-5.8,5.4-8.7,8.2c-1.9,1.8-3.5,3.9-5.5,5.4c-10.5,8.2-21.1,16.2-31.7,24.2c-0.9,0.7-1.8,1.4-2.8,2
	c-19.1,10.8-38.2,21.7-57.5,32.2c-6.9,3.7-14.4,6.3-21.6,9.3c-15.3,6.3-30.5,12.8-46,18.5c-6.2,2.3-13,2.8-19.5,4.1
	c-2,0.4-4.1,0.5-5.9,1.3c-16.5,8.3-33.8,9.4-51.8,6.3c-9-1.5-12.6-7.9-15-15.2c-1.9-5.7,3.3-12.2,9.6-12.2c4.5,0,9.1,0.6,13.6,1.4
	c10.2,1.8,20.3,0.5,30-2.5c7.5-2.3,15-4.9,21.9-8.5c6-3.1,11.3-7.7,16.9-11.8c3-2.2,5.8-4.8,8.9-6.9c9.9-6.9,20-13.5,29.9-20.5
	c2-1.4,3.2-3.9,4.4-6.2c5.8-10.6,10-22.1,19.3-30.5c2.2-2,2.5-6,3.7-9.1C221.9,620.4,221.2,619.9,220.4,619.3z M473.7,298.4
	c-0.5-0.1-0.9-0.2-1.4-0.2c-0.1-1.7-0.3-3.5-0.2-5.2c1.1-19.8-4.8-37.6-15.3-54.3c-2.7-4.3-5.2-8-10-10.2c-2.8-1.2-4.8-4.1-7.3-6.1
	c-1.5-1.2-3.2-2.8-5-3.2c-14-3.1-27.9-6.9-42.7-6.1c-14.8,0.8-29.6,0.9-43.9,6c-10.6,3.8-21.5,7-32,11.2c-12.6,5-25,10.5-37.1,16.5
	c-8,3.9-15.9,8.5-23.3,13.5c-7.8,5.4-14.9,11.7-22.4,17.5c-2,1.6-4.1,3.4-6.4,4.6c-14,7.3-23.4,19.3-32.9,31.2
	c-1.8,2.2-3.4,4.5-5.2,6.7c-6.6,8.1-13.4,16-19.7,24.3c-5.5,7.3-10,15.5-15.6,22.6c-8.2,10.3-15.5,21-21,33.1
	c-3.6,8.1-8.9,15.5-13.5,23.1c-3.7,6.2-8.5,12-10.8,18.7c-6,18.2-16.1,34.4-24.9,51.1c-7.8,14.7-10.3,29.1-6.4,45
	c0.6,2.5,0.1,5.9-1.1,8.2c-3.6,6.2-2.7,12.3-1,18.6c0.7,2.5,1.9,4.9,2.6,7.4c4.8,18.5,15.8,31.3,33.5,39.2
	c23.2,10.4,46.1,5.2,69.3,0.9c0.6-0.1,1.1-0.4,1.6-0.7c10.2-4.5,20.5-9.1,30.8-13.7c20.3-9.1,41.1-17.1,60.2-28.9
	c9-5.5,17.7-11.4,26.1-17.7c22.4-16.5,42.3-35.8,61-56.3c8-8.7,16.1-17.4,24.2-26c11.6-12.5,23.3-24.9,34.8-37.4
	c3.5-3.8,7.1-7.8,9.6-12.3c9.6-17.1,18.9-34.4,28-51.8c3-5.8,5.4-12.2,7.1-18.5c2.5-9.5,4.3-19.2,6.2-28.9
	C471.2,313.1,472.4,305.8,473.7,298.4z"/>
<path d="M770.9,1597.8c-21.5-0.4-43-0.7-64.4-1.3c-4-0.1-8.4-0.6-11.9-2.3c-13.7-6.6-28.4-7.8-43.2-8.8c-4-0.3-7.9-1.6-11.8-2.6
	c-4.8-1.2-9.5-2.4-14.2-3.7c-10.3-2.8-20.6-5.6-30.9-8.5c-3.4-0.9-6.8-1.6-10-2.9c-3.7-1.5-7.1-3.6-10.8-5.3
	c-5.4-2.4-10.9-4.8-16.4-7c-1.3-0.5-2.9-0.2-4.2-0.8c-14.2-7.1-28.6-13.9-42.5-21.5c-8.6-4.7-16.3-11.2-24.9-15.8
	c-6.3-3.3-12.1-6.8-15.4-13.2c-4.2-8.2-7.8-16.8-12.1-24.9c-2.5-4.8-5.1-10.1-9.2-13.3c-7.8-6.1-11.4-14.5-15-22.9
	c-2.1-4.8-3.6-9.9-4.2-15.1c-1-9.1-0.2-17.9,7.5-24.7c3-2.7,5.6-5.9,8-9.2c4.6-6.4,10.7-10.4,18-13c11.8-4.1,23.2-9.4,35.3-12.4
	c10.6-2.7,21.8-2.9,32.7-4.2c2.6-0.3,5.1-0.7,7.7-0.9c8.3-0.8,16.7-1.9,25-2.1c8.6-0.2,17.1,0.6,25.8-1.9c5.8-1.7,12.6,0.4,18.9,0.8
	c5.4,0.3,10.9,0.3,16.3,0.8c9.2,0.8,18.4,1.9,27.6,2.8c4.2,0.4,8.5,0.6,12.7,0.7c5.2,0.1,10.5-0.8,15.6,0
	c11.1,1.8,22.2,4.1,33.2,6.8c14.1,3.6,28,7.6,41.9,12c17.1,5.4,34.1,11.3,49.9,19.9c12.8,6.9,25.9,12.8,40.4,15.6
	c12.1,2.4,22.7,8.4,32.9,15.2c4.5,3,9.6,5.3,14.4,7.9c19.9,10.5,41,18.8,58.4,33.7c7.9,6.8,16.9,12.3,24.3,19.5
	c11.5,11.2,13.8,35.2,5.7,48.8c-0.6,1-1.2,2.2-2.1,2.7c-11.7,7.3-21.6,17.4-35.2,21.9c-14.2,4.7-28.1,10.6-42.3,15.6
	c-3.2,1.2-6.8,1.3-10.3,1.9c-12,2.2-24,4.5-36,6.5c-4.8,0.8-10,2.1-14.7,1.2c-15-2.9-29.5,0.7-44.2,2.1c-8.7,0.8-17.3,1.8-26,2.7
	C771,1598.2,770.9,1598,770.9,1597.8z M867.6,1542.7c0.5-0.2,1-0.4,1.5-0.6c1.5-11.3,3.2-22.6,4.3-33.9c0.2-1.9-1.2-5.6-2.5-5.9
	c-5.8-1.7-5.5-6.1-5.9-10.4c-0.9-10.2-3.4-19.9-8.2-28.9c-1.5-2.7-3.7-5.2-6-7.2c-2.8-2.5-5.9-4.6-9.1-6.5c-3.9-2.4-7.9-4.7-12-6.6
	c-8.7-3.9-18.1-6.3-24.4-14.5c-1.5-1.9-4.1-3.2-6.5-4.3c-8.9-4.1-18-8-27-12c-4.8-2.1-9.5-4.3-14.3-6.2c-7.9-3.2-17.1-2.3-24.5-7.3
	c-0.6-0.4-1.7,0.1-2.5-0.1c-4.8-0.7-9.7-1-14.3-2.4c-4.7-1.4-8.8-4.9-13.5-5.9c-11.3-2.3-22.8-4.2-34.4-5.2c-15.9-1.4-32-2-47.9-2.8
	c-4.9-0.3-9.9-0.6-14.8-0.3c-9,0.5-18,2.2-26.9,1.8c-22.8-0.9-45.5-0.8-67.6,4.9c-13.7,3.5-27.2,8-40.5,13.1
	c-8.4,3.2-12.2,11.9-17.5,18.7c-0.7,0.9-1.3,2.3-1,3.2c2.9,9,1.5,19,8.1,27.2c8.3,10.4,15.5,21.7,23.6,32.2
	c6.1,8,12.4,15.8,22.8,19.3c5.2,1.7,9.8,5.3,16.4,9c-5.8-16.5-8.7-31.4-9-46.8c-0.2-9.1,1.8-17.1,9.1-23.4c2.8-2.4,4.5-6.1,7-8.8
	c3.1-3.3,6-7.7,9.9-9.1c8-3.1,16.6-4.6,25-6.6c5.9-1.4,12-2,17.9-3.6c19.5-5.4,39-8.4,59.4-6.8c19.7,1.5,38.4,5.5,55.6,15.4
	c4.6,2.6,6.7,8,5.4,13.3c-1.3,5.4-5.2,6.4-10,6.2c-11.6-0.4-23.3-0.2-34.8-1.1c-21.4-1.8-39.2,8.6-58,16c-0.5,0.2-0.9,0.7-1.3,1.2
	c-5.8,6.4-9.9,13.5-10.8,22.3c-3.5,31,16.8,49.8,39.2,61.4c6.7,3.5,13.8,6.2,20.3,10c12.1,7.1,24.2,13.8,38.7,14.2
	c1.8,0,3.9,1.2,5.4,2.3c7.4,5.7,15.3,9,24.8,6c1.3-0.4,2.9-0.6,4.3-0.5c16.2,1.2,32.4,2.5,48.6,3.7c4.3,0.3,8.8,0.7,13.1,0
	c11.8-1.7,22.8-6.8,34.9-7.2c0.9,0,2.1-1.2,2.5-2.1c2.2-5.2,6.5-6.8,11.5-8.1c3.2-0.8,6.1-3.2,8.9-5.3c3.7-2.7,7.2-5.6,11.1-8.7
	c1.5,3.2,2.1,5.9,3.8,7.6c1.6,1.6,5.2,3.5,6.3,2.8c3.1-2.1,1.6-4.8-0.7-7.2c-2-2.1-3.5-4.5-5.3-6.7c-1.8-2.4-1.2-4.3,1.3-5.7
	c2.5-1.4,4.8-2,6.5,1.4C864.7,1538.9,866.3,1540.8,867.6,1542.7z"/>
<path d="M1478.8,1218.2c7.9-2.3,14.7-4.7,21.7-6.1c10.5-2.1,16.8,1.1,21.3,10.7c8.7,18.2-0.4,47.8-22.4,52
	c-10.6,2-20.4-1.8-27.5-9.6c-7.9-8.7-12.7-18.9-6.5-31c0.2-0.4-0.1-1-0.2-2.1c-5.9,4.8-7.8,11.4-10.2,17.8c-0.5,1.3-0.2,3.2-1,4.2
	c-11.8,12.6-17.3,29.2-27.7,42.7c-10.2,13.2-17,28.7-29.4,40.6c-11.8,11.3-22.9,23.7-32.4,36.9c-8.6,11.9-21.1,19.2-30.7,29.8
	c-4.7,5.2-11.7,8.4-17.4,12.8c-19.4,15.1-39,30-60.9,41.3c-17.2,8.9-34.5,17.7-51.9,26.4c-2.2,1.1-5.2,1.8-7.6,1.3
	c-8.1-1.6-16.1-0.8-24.2,0.3c-12.5,1.7-21.3-5.6-29.6-13.4c-2.3-2.1-4-4.9-6.4-6.8c-7.3-6-8.3-14.9-9.1-22.9
	c-1.4-14-4.4-28-2.1-42.5c1.4-9,3.9-17.3,6.8-25.7c5.6-16.2,9.2-33.1,15.4-48.9c4.6-11.7,12.2-22.3,18.6-33.2
	c5.3-9.2,10.6-18.4,16.4-27.2c6.3-9.6,13.1-19,20-28.2c6.7-9,13.7-17.8,21-26.4c10.8-12.8,22-25.3,33.1-37.8
	c6.7-7.5,13.4-14.9,20.3-22.3c2.1-2.3,4.5-4.5,6.9-6.5c6.6-5.2,13-10.6,19.9-15.4c7.2-5.1,15.9-8.6,22-14.7
	c12.5-12.7,28.4-18.2,44.1-24.7c6.4-2.6,12.3-6.3,18.6-9.1c17.8-8,36.5-8.2,54.7-3.2c8.4,2.3,16.4,7.9,23.3,15.2
	c6.3,6.6,9.3,14.3,14,21.4c6.4,9.7,6.6,20.9,7.7,31.7c0.9,8.6,1.3,17.4,1.3,26.1c-0.1,9-0.9,18-1.5,26.9c-0.1,1.3-0.8,3.1-1.8,3.8
	C1479.3,1206.2,1479.8,1212.4,1478.8,1218.2z M1328.9,1188.4c-0.7-5.1-0.6-8.2-1.6-11c-1.9-5.3-1.5-10.5,1-15.2
	c3.8-7.1,8.3-13.7,12.4-20.6c0.9-1.6,1.4-3.4,2.1-5.1c-2.4-0.5-4.9-1.6-7.1-1.2c-2.1,0.4-4,2.2-5.8,3.7c-5.4,4.3-10.6,8.7-16,13
	c-7.2,5.8-14.8,11-21.6,17.2c-9.2,8.4-16.9,18.6-26.8,26c-13.2,9.9-19.4,26.2-33.6,34.8c-3.6,9.1-11.9,14.7-17,22.7
	c-6.1,9.5-11.7,19.2-17.4,28.9c-2.2,3.7-3.6,7.7-5.8,11.4c-3.4,5.7-6.2,12.2-10.8,16.7c-8.6,8.5-13.1,19-16.3,29.9
	c-2.3,7.9-8.1,14.8-7.1,23.6c0.1,0.7-1,1.4-1.3,2.2c-3.5,9.4-8.5,18.7-10,28.4c-2,12.5-1.3,25.5-1.6,38.2c-0.1,4.2,1.7,7,6.4,7.9
	c2.5,0.5,5.2,2.3,7,4.2c3.6,3.9,6.2,8.9,10,12.6c5.4,5.2,13.2,3.6,14.7-2.9c3.1-13.5,5.5-27.2,8.6-40.7c2.4-10.7,3.9-21.9,8.1-31.8
	c7.2-16.7,15.8-32.8,24.7-48.7c9.3-16.8,20.2-32.4,33.3-46.6c4.2-4.5,9.1-9,9.6-16c1-15.1,2.3-30.1,3.3-45.2
	c0.4-6.7,3.3-9.2,9.9-8.2c4.9,0.8,6.7,4.2,7.4,8.5c1,5.9,1.9,11.8,3,18.6c4-3.3,7.3-6,10.6-8.6c4.5-3.6,12.8-3.8,17.3-0.6
	c4.6,3.3,5.2,10.8,0.7,14.3c-9.6,7.4-17.3,16.2-24.3,26.3c-4.1,5.9-4.2,10.8-2.8,16.9c1.5,6.4,2.9,12.9,3.3,19.5
	c0.4,8.6-5.4,12.1-13.9,9.9c-6.9-1.8-9.8-7.3-13.3-12.5c-5,4.7-10.7,8.4-14.1,13.5c-9.3,14.2-17.4,29.2-26.4,43.6
	c-13.6,21.9-15.3,46.3-15.9,71.1c-0.1,3-0.9,5.9-1.2,8.8c-0.2,1.3-0.5,3.2,0.2,3.9c0.7,0.7,2.8,0.7,3.9,0.3c5.4-2,10.9-3.9,16-6.6
	c12-6.3,23.7-13.1,35.6-19.7c0.5-0.3,1.1-0.6,1.4-1c7.8-8.6,18.4-12.9,27.8-19.1c6.9-4.5,13.5-9.8,17.8-17.1
	c-8-7.4-12.4-15.7-11.8-26.4c0.5-8.3,1.7-16.7-1.4-25c-0.9-2.4,0.1-5.8,1.1-8.4c2.9-7.5,7.2-13.9,14.5-17.9c2.2-1.2,4.3-3.1,5.8-5.2
	c5.7-8.3,10.8-17.2,16.8-25.3c8.7-12,15.8-25.6,31.2-31.3c5.3-2,8-1.7,10.3,3.4c2.5,5.7,1.9,9-3.8,13.5
	c-14.1,11.1-19.3,28.2-29.2,42.2c-0.6,0.8-0.4,2.2-0.6,3.4c-0.7,4.6-1.3,9.2-2.2,13.7c-1.4,7.2,0.2,10.8,7,14.7
	c4.4,2.5,10.1,1.6,14.2-2.9c10.5-11.6,21.2-22.9,30.9-35.1c16-20,28.3-42.3,38.7-65.7c5.9-13.3,10.7-26.5,6.5-41.5
	c-2.3-8.3-8.4-12.2-16.6-9c-7.5,3-15,6.4-22.6,9.1c-5.5,1.9-10.7-1.6-12.4-7.7c-1.8-6.3,0.4-11.9,6.1-13.3
	c5.8-1.5,10.9-3.5,14.7-8.5c1.2-1.7,3.8-2.5,5.9-3.3c12.7-4.9,25.5-9.7,38.2-14.7c1.6-0.6,3.3-2.4,3.7-3.9c0.3-1-1.5-2.9-2.7-3.8
	c-3.9-2.9-7.7-6.2-12.1-8.1c-6.8-3-12.8-8.3-21.7-3.2c-5.9,3.4-12.4,5.3-17.4,10.5c-2.6,2.6-7.9,2.4-11,4.7
	c-7.8,5.7-15.1,12.3-22.8,18.3c-3.9,3-8.1,5.6-12.4,7.8c-6.7,3.4-13.3,6.6-18.2,12.9C1337.6,1183.9,1333,1185.7,1328.9,1188.4z
	 M1471.4,1226.7c1.2-1.8,2.2-2.8,2.4-3.9c0.1-0.5-1.2-1.3-1.9-2c-0.8,1-1.9,1.8-2.4,2.9C1469.3,1224.1,1470.4,1225.2,1471.4,1226.7z
	"/>
<path d="M508.3,1226.9c-1.1,17.7-5.9,33.7-16,48.1c-0.8,1.2-1.6,2.7-2.8,3.3c-19.9,11.2-38.2,26.7-64.2,20.2
	c-10-2.5-20.9-1.3-31.2-2.6c-5.2-0.7-10.5-2.8-15.2-5.3c-5.1-2.7-9.5-6.5-14.2-9.8c-1-0.7-2.1-1.2-2.8-2.1
	c-10.4-12.3-21.5-24.2-30.8-37.3c-7.1-10-12.1-21.6-17.4-32.8c-3.9-8.3-9.8-15.8-11-25.4c-0.3-2.1-3-4.1-5-5.5
	c-0.7-0.5-3.5,0.4-4,1.4c-7.2,14.3-10.4,28.8-5.1,45c3.6,10.9,4.4,22.8,6.6,34.2c6.2,31.4,14.5,61.9,28.5,91
	c7.3,15.1,16.3,28.9,24.5,43.4c2.7,4.8,4.7,9.9,7.4,14.7c3.4,6,7,11.8,11,17.5c7.2,10.4,14.9,20.5,22,31c3.1,4.5,4.4,10.1,0.8,14.7
	c-2.1,2.6-6.7,5.5-9.4,4.8c-5.7-1.3-12.5-3.5-16-7.7c-9.4-11.3-21.9-17.8-33.9-25.2c-7.8-4.8-14.8-10.2-20.8-17.8
	c-8.6-10.7-16.3-22.5-28.5-30.2c-6.4-4.1-11.6-10.2-16.9-15.8c-6.7-7.2-13-14.8-19.5-22.2c-1.3-1.5-2.8-3.3-4.6-4
	c-8.2-3.1-13.3-9-18.2-16.1c-5.4-7.8-7-16.5-9.1-25.1c-1.4-5.7,2.2-10.2,7.2-12.7c4.8-2.4,9.9-1.6,13.8,2.1
	c3.5,3.4,6.3,7.5,9.5,11.3c1.3,1.5,2.5,3.2,4.1,4.4c3,2.5,5.7,1.9,6.5-1.9c3.4-15.8,8.3-31.4,3.9-48.1c-1.9-7.2-1.3-15-2.4-22.5
	c-2.2-15.5-3-31.5-7.7-46.3c-6.1-19.6-8.9-39.5-10.1-59.7c-0.8-12.1,0.4-24.4,1-36.5c0.7-14.8,2.6-29.6,2.2-44.3
	c-0.5-16.9,3-33.1,7.9-48.7c4.4-14,11-27.3,17.5-40.6c4.2-8.6,20-7.9,24.9,0.6c4.3,7.5,3.4,12.1-3.4,18.7c-0.8,0.8-2.1,2.5-2,2.6
	c5.9,6.3-3.5,9.7-2.8,15.2c0.7,5.7,0,11.5-0.1,17.3c0,6.1-0.1,12.2,0.1,18.3c0.1,5.5,0.1,11.1,1,16.4c1,5.6,2.5,11.2,4.8,16.4
	c2.4,5.5,7.4,6.1,10.4,1c6.5-11.3,16-18.8,26.3-26.5c11.3-8.5,22.3-12.8,35.9-11.9c6.9,0.4,14-0.3,20.8,1c6.7,1.3,13.5,3.6,19.4,6.9
	c10.3,5.8,20.1,12.8,30,19.3c1.4,0.9,2.9,2,4,3.3c4.2,5,7.6,11,12.5,15.1c10.7,8.8,15.1,21.7,23.1,32.2c9,11.8,14.7,25.4,22.2,38.1
	c2.7,4.6,3.8,10.2,5,15.5c2.5,11.6,4.6,23.3,6.6,35C506.1,1210.3,507.1,1218.6,508.3,1226.9z M317.8,1112.3
	c-0.9,17.7,2.5,34.8,6,51.9c2.6,12.8,5.2,25.9,10.5,37.7c6.3,13.9,15,26.8,23.7,39.4c3.4,5,9.2,8.6,14.5,12.1
	c1.9,1.3,5.2,0.6,7.9,0.6c2.2,0,5.1-1.5,6.3-0.5c5.9,4.5,11.3,9.6,19.3,10.4c1,0.1,1.9,1.2,2.7,2.1c6.5,6.7,15.6,7.9,23.9,9.4
	c6.5,1.2,14.1-0.1,20.5-2.3c6.9-2.4,13.4-6.8,19.4-11.2c7.8-5.6,11.6-13.8,12.6-23.3c1.6-16.4-3.7-32.5-2.2-48.9
	c0-0.6-0.1-1.2-0.3-1.7c-3.7-10.3-7.8-20.4-11-30.8c-1.8-5.7-5.5-9.9-8.6-14.7c-4.5-6.9-7-15.3-12-21.8c-11.5-15-21.9-31-38.1-42
	c-12.9-8.8-25-18.2-41.4-20.6c-11.6-1.7-21.7-1-30.6,7.5c-3.3,3.2-7.3,5.7-10.9,8.6c-5.1,4.1-9.2,8.6-9.6,15.8
	C319.9,1097.3,318.7,1104.8,317.8,1112.3z"/>
<path d="M79.6,757.6c7-2,12.2,5.6,18.9,9.5c3.6,2.1,6.1,7.2,9.7,8c8.2,1.8,11.6,8.8,17.3,13.2c3.1,2.3,5.8,5.5,7.9,8.7
	c8.5,13.1,16.7,26.5,25.1,39.7c7,11,10.2,23.7,15.6,35.4c2.3,5,4.8,9.9,6.7,15.1c4,10.5,7.2,21.4,11.8,31.7
	c4.1,9.3,6.1,18.5,4.7,28.5c-0.3,2.1,1.1,4.4,2,6.5c3.6,9.1,7,18,0.1,27.2c-1,1.3-0.9,4-0.4,5.9c2.1,9,4,18.2,7,27
	c6.9,20.5,12.3,41.3,14.9,62.9c0.7,5.7,2.7,11.3,4.4,16.8c3.1,10.3,5.4,20.5,4.8,31.6c-0.5,9.1,1.5,18.3,2.4,27.4
	c0.2,2,0.3,4.1,0.2,6.1c-0.6,10.1-1,20.3-2.2,30.3c-0.7,5.9-2.3,11.9-4.5,17.5c-3.5,9.2-7.1,18.5-11.9,27
	c-4.4,7.8-11.3,13.7-19.6,17.5c-2.4,1.1-4.7,2.3-6.8,3.8c-8.2,6.3-17.1,6.7-26.4,3.2c-1.1-0.4-2.3-0.7-3.1-1.4
	c-12.6-11.4-25.6-22.6-37.7-34.6c-5.4-5.4-8.4-13.2-13.6-18.8c-7.6-8.1-11.8-17.3-14.9-27.9c-2-6.9-7.5-12.9-11.7-19.1
	c-6.9-10.1-12.9-20.4-15.8-32.7c-2-8.6-6.4-16.8-10-25c-9.4-21.7-19.8-43.1-23.6-66.8c-1.3-8.3-2.6-16.6-4.8-24.7
	c-3.2-12-7.3-23.7-11-35.6c-0.7-2.2-1.5-4.4-1.8-6.7c-2.6-23.3-5.1-46.6-7.6-69.9c-0.2-1.7-0.4-3.6-1.2-5c-5.7-10-4.8-20.8-3.6-31.5
	C2.3,846,4,833.3,6,820.7c1.8-11.5,9-20.6,14.5-30.5c5.9-10.7,14-18.7,25-24.1C55.6,761.4,65.9,758,79.6,757.6z M207.1,1132
	c-0.1,0-0.1,0-0.2,0c0-5.5,1.1-11.3-0.2-16.4c-4.4-17.6-2.1-36.5-10.5-53.3c-0.4-0.7-0.3-1.7-0.5-2.6c-3.5-15.4-7-30.8-10.6-46.1
	c-0.3-1.1-0.9-2.2-1.3-3.2c-7.9-18.6-15.3-37.5-23.8-55.8c-7-14.8-15.2-29.1-23.1-43.5c-4.3-7.8-9-15.5-14-22.9
	c-4-5.9-8.3-11.8-13.2-17c-4.1-4.4-10.1-7-14-11.6c-7.7-9.1-17.6-14.4-28.4-17.6c-4.8-1.4-12.4-1.6-15.6,1.2
	c-9.2,8.3-15.8,19.1-17.4,31.9c-2.5,19.8-4.4,39.5-2.1,59.8c2.6,23.5,7,46.4,12.9,69.2c1.3,5,4.1,9.7,5.1,14.8
	c4,18.2,8.1,36.1,15.7,53.3c7.9,17.8,14.7,36,21.9,54.1c4.8,11.9,11.1,22.8,19.1,32.7c1.8,2.2,2.9,5,4.2,7.5
	c4.4,8.1,6.1,17.4,12.9,24.3c2.8,2.8,4.4,6.8,6.8,10c3.1,4.2,5.9,8.9,10,12c8,6,16.8,11.1,25.3,16.4c6.1,3.8,13.5,2.9,19.4-1.6
	c15.1-11.6,21.8-27.8,22.8-45.9C209.3,1165.1,207.7,1148.5,207.1,1132z"/>
<path d="M1470.6,871.8c-15.9-4.4-26.7-13.8-36.7-25.1c-13-14.7-22.4-31.5-31.7-48.6c-5.1-9.3-6.8-19.3-10.3-28.9
	c-1.9-5.2-4.1-10.3-5.8-15.5c-2.5-7.7-4.6-15.5-6.8-23.2c-0.6-2.2-0.6-4.7-1.7-6.7c-6.7-12.6-8.8-26.1-9.4-40.1
	c-0.4-9.5-1.7-19-2.8-28.5c-1-8.9-2.5-17.8-3.5-26.7c-1-9,0.8-17.7,2.7-26.6c2-9.5,1.3-19.6,2.5-29.4c1.8-14.4,7.4-27.8,12.6-41.3
	c1.3-3.3,4.7-5.8,6.9-8.8c4.8-6.4,9.9-12.6,14-19.4c8.7-14.5,22.7-15.1,37.2-15.3c16.3-0.2,27.4,9.5,38.7,19.1
	c2.4,2,5.1,3.5,7.6,5.4c1.6,1.2,3.8,2.3,4.3,3.9c4.9,15.4,16,27.4,23.1,41.6c2.6,5.1,4.7,10.4,6.6,15.8c6.1,17.2,12.1,34.4,18,51.7
	c6.9,20.1,10.4,40.8,12.5,61.9c1.1,11.1,5.2,21.8,7.8,32.7c0.6,2.5,1.1,5.2,1,7.7c-0.6,16-2.3,31.9-1.9,47.8
	c0.4,19.1-5.7,37.2-6.9,56c-0.6,8.8-3.7,17.5-5.7,26.2c-0.3,1.1-0.6,2.4-1.4,3.2c-10.6,10-19.7,22.6-36.8,21.6c-5.1-0.3-7.5,2-8,6.9
	c-0.2,2.3-0.7,4.6-1.4,6.8c-2.4,7.9-10.3,11.5-17.9,7.9c-3.1-1.5-6.1-3.5-8.7-5.7c-9.4-8.1-9.5-9.7-2-19.7
	C1468.2,876.7,1469.1,874.5,1470.6,871.8z M1431.2,791.7c0.3,4.2-0.8,8.8,1,10.8c4.8,5.2,5.1,12,8.3,17.5c1.6,2.7,3.9,5,6,7.3
	c1.1,1.3,3.6,2.2,3.7,3.4c0.3,8.1,8.2,9.7,12.2,14.5c4,4.8,6.7,4.2,11.2-0.8c3.5-3.8,7.2-5.7,12.3-2.8c1.3,0.8,3.9,1.4,4.7,0.7
	c7.3-6.6,16.8-7.1,25.6-9.4c2-0.6,3.9-2,5.7-3.3c6.9-5.4,6.9-13.8,7.6-21.2c2.2-24.3,3.6-48.6,5.1-73c0.2-4-0.2-8.2-0.9-12.1
	c-3.2-17-6.6-34-10.1-51c-1.2-5.7-2.7-11.3-4.2-16.8c-1.1-4.1-2.7-8.2-3.8-12.3c-4.3-15.3-8.4-30.6-12.9-45.8
	c-0.9-3-3.8-5.4-4.4-8.4c-2.7-14.5-13.1-24.8-20-36.9c-5.1-9-9.2-18.4-18-25.4c-5.7-4.5-11-9.4-17.9-11.4
	c-9.3-2.7-18.2-2.8-25.4,5.9c-5.9,7.3-12.7,13.9-19.1,20.8c-0.5,0.6-0.6,1.6-0.8,2.5c-1.3,5.9-3.5,11.8-3.8,17.7
	c-0.7,15.6-7.5,30.7-4,46.6c0.3,1.5-0.7,3.4-1,5.1c-0.6,4-1.9,8-1.7,12c0.8,12.7,2.2,25.4,3.7,38c0.2,1.7,2.4,3.4,4.1,4.7
	c2.9,2.3,3.8,4.9,0.4,6.9c-4.9,2.9-3.1,7-2.5,10.8c0.3,1.9,1.7,3.7,2,5.6c2.4,15.7,5.8,31.1,11.8,45.8c2.4,5.8,6.1,11,6.5,17.6
	c0.1,1.6,1.9,3.5,3.5,4.5c4.1,2.5,5.2,6,5,10.4c-0.2,2.6-1.1,5.3-0.7,7.8c0.8,4.8,1.9,9.6,3.7,14.1
	C1424.2,792.7,1428.5,791.9,1431.2,791.7z"/>
<path d="M1328.1,718.4c0.5,28.8-2.7,50.2-16.7,67.1c-9.9,12-18.5,26.2-34.1,32.5c-13.9,5.6-28.7,6.2-43.4,5.9
	c-8.1-0.2-16.6,0.2-24.1-2.1c-16.2-5-30.8-13.1-41.6-26.8c-4.2-5.4-9.7-9.9-13.6-15.5c-7.2-10-15.8-19.8-19.8-31.1
	c-4.6-12.8-12.5-24.5-11.9-39.5c0.4-10.7-3.2-21.5-5-32.3c-0.3-1.7-0.9-3.5-0.6-5.2c2.8-16.5,4.9-33.2,8.8-49.5
	c2.1-8.7,4.4-18,12.5-24.3c2.5-1.9,1.8-7.6,4.2-10.1c5.9-6.2,12.3-12.3,19.4-17.1c4-2.7,9.7-3.1,14.7-4.2c7.9-1.7,15.8-3.2,23.8-4.7
	c9.9-1.9,19.4-4.2,29.7,0.6c5.8,2.8,11.1,5.4,15.9,9.7c4.4,4,10.4,6.1,15.2,9.8c4.3,3.3,8,7.4,11.6,11.5c5.7,6.4,12,12.6,16.4,19.8
	c6,9.7,10.8,20.3,15.7,30.7c5,10.7,9.2,21.9,14.2,32.6C1326.8,691.9,1327.2,708.8,1328.1,718.4z M1303.8,726.3
	c1.1-14.2-0.6-28-6.2-41c-6.1-14-13.3-27.5-20-41.2c-0.2-0.5-0.3-1.1-0.5-1.7c-3.1-12.5-9.8-23-18.5-32c-7-7.3-15-13.6-22.4-20.4
	c-5.3-4.9-11.6-8-18.8-7.6c-11.3,0.5-22.8,0.5-33.7,2.8c-9.2,1.9-18.2,5.5-23.1,15.6c-5.8,12.1-14.8,22.9-13.9,37.5
	c0.1,1.3-0.8,2.7-1.4,4c-3.6,8.7-7.6,17.2-4.6,27.1c0.6,2-0.8,4.5-0.6,6.8c0.6,10.3,1.3,20.7,2.4,30.9c0.4,3.9,2,7.8,3.2,11.6
	c1.5,4.7,2.6,9.5,4.8,13.9c3.3,6.7,7.2,13.1,11.3,19.4c10.8,16.6,24.7,30.2,40.2,42.4c6.4,5,12.1,5.8,19.1,2.1
	c2.4-1.3,5.5-2.1,8.2-1.9c7.7,0.6,15.3,2.5,23,2.6c5.3,0.1,11.1-1,15.8-3.2c8.1-3.8,14.3-10.2,19.3-17.8
	c6.3-9.4,13.3-18.4,14.8-29.9C1303.3,739.6,1303.4,732.9,1303.8,726.3z"/>
<path d="M1255.8,75.2c-9.7,1-15.6-6.5-22.8-10.6c-1.9-1.1-1.8-6.7-1.8-10.2c0-2.5,2.1-5.2-2.7-5.3c-0.9,0-2.2-2-2.4-3.2
	c-0.9-5.7-3.1-11.8-1.8-17c1.3-5.4,4.9-11.6,9.4-14.8c8.4-5.9,16.9-11.9,27.7-13.8c9.6-1.7,27.1,4.3,31.2,15.5c1.8,4.9,4,9.7,6.9,14
	c5.7,8.7,3.7,17.4-1.3,24.5c-7.6,10.8-17.2,19.7-31.9,19.8C1262.7,74.2,1259.2,74.9,1255.8,75.2z"/>
<path d="M1500.9,1177.6c-0.2-15.1,10.3-23,26.3-29.9c12.2-5.3,21.6-0.2,30.2,7c9.5,7.9,11.8,18.5,9.8,30.6
	c-1.6,9.6-10.1,11.9-16.3,16.7c-1.6,1.2-3.7,1.8-5.1,3.2c-8.6,8.7-18.8,7.7-29.1,4.8c-2.1-0.6-4.5-2.2-5.5-4.1
	C1506.3,1197,1501.6,1188,1500.9,1177.6z"/>
<path d="M1720,895.6c-16.3,0.2-27.6-13.9-28.4-25.4c-1.1-15.9,15.3-30,34.5-30.4c12.3-0.3,24.6,13.2,23.1,28.4
	C1747.5,884.6,1740.5,895.4,1720,895.6z"/>
<path d="M1715.7,1069.6c2.3,12.9-6,18.2-15.7,21.7c-8.2,3-16.7,4.1-25.6,1.4c-5.4-1.6-8.5-4.6-10.3-9.4c-1.4-3.8-2.8-7.6-3.8-11.6
	c-2.5-10.2,0.1-16.9,9-22.2c5.4-3.2,11.2-6,17-8.2c9.9-3.7,18.5-1.1,23.7,8.2c3.5,6.1,5.1,13.2,7.5,19.9
	C1717,1069.4,1716.3,1069.5,1715.7,1069.6z"/>
<path d="M1743.3,1143.6c1.3,8.4-4.5,15.1-10.9,21.1c-1.9,1.8-5.2,2.9-7.9,3c-11.8,0.8-24.3-8.7-27.2-20.2
	c-1.7-6.8-3.3-13.5-4.6-20.3c-0.4-2.1-0.3-5.6,0.9-6.5c5.9-4.4,11.9-9.8,18.8-11.6c7.6-2,15,1.5,21,7.9
	C1740.1,1124.3,1743.4,1132.4,1743.3,1143.6z"/>
<path d="M1595.3,418.8c9.6-0.1,18.1,5.3,24.1,13.9c6.7,9.6-1.9,29.3-13.7,32.6c-3.8,1.1-7.9,2-11.8,1.8c-12.3-0.6-22-8.9-25.2-20.9
	c-2.9-11,6-24.9,17.3-26.7C1588.5,419.1,1591.2,419.1,1595.3,418.8z"/>
<path d="M667.1,986.6c-0.4,8.4-3,11.4-11.2,12.8c-2,0.3-4.1,0.2-6,0.9c-16,5.1-29.3-2.3-42.7-9.1c-3.1-1.6-6-3.5-8.8-5.5
	c-4.7-3.3-6.5-9.5-4.4-13.8c2.1-4.2,6.7-5.5,12.9-3c6.2,2.4,12.2,5.2,18.2,8c6.7,3.1,13.3,3.5,20.1,0c2.5-1.3,5.5-2,8.3-2.4
	C662.5,973.1,667.6,977.7,667.1,986.6z"/>
<path d="M1520.7,457.3c13.1-1.2,28.8,18.1,24.8,27.9c-2.3,5.5-4.7,9.7-10.9,11.1c-6.1,1.3-12.2,4.7-18-0.5c-1.8-1.6-3.8-3.3-5.2-5.3
	c-1.8-2.6-2.9-5.6-4.6-8.3c-3.1-4.9-4.9-9.8-1.2-15.3C1509.3,461.4,1513.5,456.8,1520.7,457.3z"/>
<path d="M1441.1,459.6c-0.8,3-1.2,7.5-3,11.3c-4.7,10.1-17.2,12-25.4,4.3c-3.5-3.3-7.4-6.3-10.6-10c-1.5-1.7-2.7-5-2.2-6.9
	c3-10.3,11.8-19.7,25.7-15.8c3.3,0.9,6.6,2.1,9.9,3.2C1442,447.9,1439.7,453.7,1441.1,459.6z"/>
<path d="M1338.9,472.5c0.2-8.9,2.8-11,11.7-14.5c9.2-3.7,16.6-1.9,22.4,5.1c3.3,4,5.4,9.4,7.1,14.4c1.2,3.6-1,6.7-4.5,8.5
	c-5.7,2.8-11.3,5.6-17,8.3c-0.9,0.4-2.3,0.3-3.3,0C1348.3,492.1,1338.8,479.3,1338.9,472.5z"/>
<path d="M1513.8,508.2c14.7,0.4,21.2,9.3,17.4,22.2c-2.8,9.4-18,13.9-25.4,7.3c-1.7-1.5-3.1-3.5-4.6-5.2
	c-9.5-10.3-6.1-20.8,7.8-23.9C1511,508.2,1513.1,508.2,1513.8,508.2z"/>
<path d="M1478.9,928.7c-2.8,5.2-4.7,10.4-8,14.5c-4.3,5.4-9.2,5.3-14.3,0.9c-8.1-6.9-8.4-8.3-3.3-15.5c2.2-3,4.4-6.2,7.1-8.6
	c3.8-3.4,9-3.9,13-1.2C1476,920.4,1476.9,924.7,1478.9,928.7z"/>
<path d="M1332.6,952.4c-0.4,0.8-0.9,3.1-2.1,3.5c-3.1,1.1-6.9,2.6-9.5,1.5c-4.4-1.8-9.6-4.7-9.2-10.3c0.2-3.2,3.2-6.3,5.3-9.2
	c0.6-0.8,2.8-0.7,4.1-0.5C1325.4,938.1,1332.7,947.2,1332.6,952.4z"/>
<path d="M1424.3,978.3c-5.7-0.1-8.1-3.1-7.9-9.9c0.2-6.3,3.7-9.8,9.7-9.6c5.6,0.2,9.4,4,9.2,9.2
	C1435.1,973,1429.4,978.3,1424.3,978.3z"/>
<path d="M1274.2,862.3c5.5,0.2,8.6,3.6,8.6,9.7c0,5.8-3.6,9.7-8.8,9.4c-6-0.3-10.4-5-10.2-10.7
	C1264.1,866.1,1269,862.2,1274.2,862.3z"/>
<path d="M1288.3,895.4c5,0,9.9,5.3,10.1,10.9c0.2,4.7-3.9,10.3-7.4,10.1c-4.1-0.2-11.1-8.5-10.9-12.9
	C1280.2,898.9,1283.8,895.4,1288.3,895.4z"/>
<path d="M1388.2,979.8c0.2,4.9-3,8.8-7.4,9.1c-5,0.3-12.6-5.4-12.9-9.8c-0.3-4.6,5-8.9,11-8.9
	C1383.2,970.1,1388.1,975.1,1388.2,979.8z"/>
<path d="M714.9,658l-0.2,0.2c3.3,0.1,3.6,2,2.6,4.5c-0.2,0.4-1.3,0.4-2,0.6C715.1,661.6,715,659.8,714.9,658z"/>
<path d="M336.8,1486.5c-1,0.6-1.9,1.4-2.3,1.3c-0.8-0.3-1.3-1.3-1.9-1.9c0.7-0.3,1.5-0.9,2.2-0.9
	C335.4,1485,335.9,1485.8,336.8,1486.5z"/>
<path d="M419.2,553.2c0.3-0.3,0.6-0.7,1-1.1c0.2,0.4,0.5,0.8,0.6,1.3c0,0.1-0.4,0.6-0.5,0.6C419.9,553.8,419.5,553.4,419.2,553.2z"
	/>
<path d="M482.5,891.4c0.4,0.3,0.8,0.7,1.2,1.1c-0.5,0.5-1,1.1-1.5,1.6c-0.2-0.5-0.7-1-0.6-1.5C481.6,892.1,482.2,891.8,482.5,891.4z
	"/>
<path d="M864.4,1522c-0.4,0.7-0.6,1.1-0.8,1.5c-0.6-0.4-1.2-0.7-1.7-1.1c-0.1-0.1,0.5-1.2,0.7-1.1
	C863.2,1521.3,863.8,1521.7,864.4,1522z"/>
<path d="M1414.6,621.5c-1.8,0.9-3.7,2.8-5.2,2.5c-2-0.3-3.8-2.3-5.7-3.5c1.5-1.3,3-3.6,4.6-3.7c2.1-0.1,4.2,1.6,6.3,2.5
	C1414.6,620,1414.6,620.8,1414.6,621.5z"/>
<path d="M1398.4,682.5c0.7,0.5,1.2,0.8,1.6,1.2c-0.4,0.6-0.8,1.2-1.4,1.7c-0.1,0.1-1.2-0.7-1.2-0.9
	C1397.5,683.8,1398,683.2,1398.4,682.5z"/>
</svg>
