<?xml version="1.0" encoding="utf-8"?>
<!-- Generator: Adobe Illustrator 25.2.1, SVG Export Plug-In . SVG Version: 6.00 Build 0)  -->
<svg version="1.1" id="Layer_1" xmlns="http://www.w3.org/2000/svg" xmlns:xlink="http://www.w3.org/1999/xlink" x="0px" y="0px"
	 viewBox="0 0 1709.7 1530.5" style="enable-background:new 0 0 1709.7 1530.5;" xml:space="preserve">
<path d="M622.6,898.8c-1.7,1-4.4,1.7-4.9,3.2c-2.1,6-4.5,12.1-5,18.4c-0.8,10-6.4,17.7-16.2,19.9c-4.3,1-7.5-0.9-10-3.7
	c-2.5-2.7-4.5-5.9-6.4-9.1c-2.6-4.4-3.9-9,0.1-13.4c5.1-5.6,3.8-12.6,4.1-19.1c0.2-4.7-0.9-9.5-1.2-14.3c-1-14.7-0.3-29.4-0.8-44
	c-0.5-13.6-4.5-26.9-10-39.6c-1.2-2.7-2.3-5.4-3.7-7.9c-1.2-2.2-2.8-4.2-4.9-7.2c-4.1,6.9-5.8,12.8-4.6,19.4
	c1.4,7.9,1.4,15.8,0.9,23.9c-0.8,12.5,0.3,25.2,0.9,37.8c0.3,5.9,1,11.8,1.7,17.6c0.5,4,1.2,7.9,1.8,11.9c1,6.8,0.9,13.5-1.8,19.8
	c-2,4.5-2.8,8.5,0.3,12.9c1.7,2.4,2.7,5.3,3.7,8c1.7,4.3-0.1,8.8-4.2,10.8c-2.7,1.2-5.4,2.6-8.2,3.2c-6.8,1.3-13.6,2.6-20.4,3.2
	c-6.5,0.5-9.8-2.6-9.6-8.9c0.3-8.9,2.1-17.6,7.8-24.9c0.7-0.8,1.1-1.8,1.8-2.6c6.2-7.2,8.7-15,4.9-24.4c-1.2-3.1-1-6.9-1-10.3
	c-0.2-12.1-0.2-24.2-0.3-36.3c0-1.9-0.4-3.7-0.7-5.6c-1.9-11.3-3.5-22.7-5.8-33.9c-1.6-7.6-4.1-15-6.2-22.4c-0.3-1-0.8-2.3-1.6-2.7
	c-8.9-4.7-6.8-13.5-6.7-20.7c0.2-7.3-0.2-14.3-1.7-21.5c-0.9-4.2-0.2-9.1,1-13.4c1.8-6.7,4.8-13,7-19.6c0.9-2.7,1.3-5.7,1.3-8.5
	c0-3.1-1-6.2-1.1-9.3c-0.1-9.5,0.1-18.9-0.1-28.4c0-1.8-0.4-4-1.4-5.4c-5.9-7.9-3.8-15.8,0.1-23.3c3-5.9,9.2-8.8,14.9-11.5
	c6.6-3.1,7.3-4.8,5.8-11.8c-1.3-6-1.6-12.1-2.4-18.2c-0.1-1.1,0.2-2.2-0.1-3.2c-4.4-13.6,4.4-22.9,11.3-32.3
	c2.9-3.9,8.8-4.8,13.5-3.2c4.9,1.7,9.8,4.2,13.8,7.5c5.5,4.6,6,14.5,2.4,21.7c-1.3,2.6-1.9,5.5-3.4,8c-2.8,4.7-6,9.3-9.8,15.1
	c0.7,3.7,4,7.5,8.4,10.1c8.9,5.4,18.2,10.2,27.2,15.5c4.3,2.5,8.3,5.6,12.7,8.6c2.9-2.5,4.5-4.8,4.2-8.5
	c-0.7-10.2-1.1-20.3-1.6-30.5c-0.1-1.9,0.3-4.1-0.6-5.5c-6.7-10.1-0.4-19.5,0.9-29.3c0.7-5,1.9-10.5-1.4-15.3
	c-0.7-1-1.5-2.5-1.3-3.6c2.2-11.2-4-20.9-5.3-31.4c-1-8.1-3.6-16.1-2-24.5c0.5-2.8-0.6-5.8-0.8-8.7c-0.8-9.8,0.3-19.7-2-29.5
	c-1.1-4.7,1.5-9.6,0.1-14.9c-3.2-12.3-4.9-25-8.1-37.4c-2-7.7-5.2-15.2-8.5-22.5c-3.3-7.2-5.9-7.8-12.6-3.8
	c-10.7,6.4-21.2,13.1-31.9,19.6c-5.9,3.6-12,7-18,10.3c-1.3,0.8-3.1,1.4-4.6,1.2c-4-0.6-6.8,1-9.2,3.8c-0.5,0.6-1.2,1.3-1.9,1.5
	c-11.4,2.9-18.7,12.6-29.4,16.9c-9.6,3.9-18.7,8.7-28,13.4c-3,1.5-5.5,4.1-8.5,5.8c-8.6,5.1-17.3,10-25.8,15.2
	c-4.3,2.6-5.4,7-5.7,11.7c-0.7,10.3,0.3,20.5,4.3,30c4.7,11.4,3.7,23.2,2.8,34.9c-0.2,3.3-0.3,6,1.6,9.1c1.5,2.3,1.7,5.5,2.2,8.3
	c0.9,4.9,1.5,9.9,2.2,14.9c0.6,4.5,1.4,9,1.9,13.5c0.9,9.6,1.5,19.2,2.5,28.8c0.4,3.7,1.9,7.2,2.6,10.9c2.5,13.7,4.9,27.5,7.1,41.3
	c0.3,2-0.7,4.2-0.9,6.3c-0.2,2.3-0.2,4.7,0,7c1.2,12.2,4.8,24.1,3.3,36.6c-0.4,3.6-0.3,7.8,1.1,11.1c2.9,6.8,1.6,13.8,2.4,20.6
	c0.6,5.8,0.5,11.7,3.9,17c1.3,2,1,5.1,1.1,7.7c0.2,4.3-0.8,8.8,0.5,12.7c2.1,6.3-0.4,13.6,4.4,19.3c0.3,0.3,0.4,1.3,0.2,1.5
	c-4.5,5.2,0.4,11.4-1.9,16.8c-0.4,0.9-0.4,2.3,0,3c6.1,9.1,4.8,19.6,5.8,29.6c0.8,7.5-0.1,15.4,2,22.4c1.9,6.1,2.3,12,2.7,18.1
	c0.9,12,1.5,24,2.6,35.9c0.3,3.7,1.9,7.3,2.2,11c1.4,17.3,2.7,34.7,3.9,52.1c0.2,3.4-0.7,6.9-0.6,10.4c0.3,6.5,2.1,7.1,8.1,5.2
	c6.5-2.1,11-6.9,14.4-11.9c5.9-8.8,15-13.3,23.4-18.4c5.5-3.4,12.3-5,19.3-2.5c5.8,2.1,8,5.6,6.8,11.4c-1.4,7.1-2.2,14.2-3.6,21.3
	c-0.6,2.7-2,5.5-3.6,7.8c-5.6,7.7-12.8,13.5-20.5,16c-2.6,7.8-4.9,14.2-7,20.7c-2.5,7.9-0.6,14.8,6.2,19c11.8,7.1,24,13.7,36,20.5
	c1.2,0.7,2.7,1.1,3.3,2.1c2.3,3.8,5.8,5.3,10,6c1.5,0.2,3.4,0.9,4.2,2c4.8,6,12,6.7,18.5,8.6c6.3,1.8,11.8,4.7,16.7,9.1
	c4.5,4,9.7,7.3,14.8,10.6c1.5,1,3.9,2.1,5.1,1.6c5-2.4,8.7,0.6,12.7,2.3c9.3,3.9,18.7,7.8,28,11.8c1.9,0.8,3.6,2.1,5.6,2.9
	c2.1,0.9,4.3,1.6,6.5,2.2c3.3,0.9,6.6,1.7,9.9,2.7c2.5,0.8,4.8,2.8,7.3,3.1c6.9,0.8,14.2,1.2,19.8,5.3c9.8,7.2,21.9,7.7,32.2,13.1
	c8.9,4.7,18.1,8.9,27.1,13.6c5,2.6,9.5,5.6,11.7,11.4c2.4,6.6,8.2,6.7,15.1,5.4c0.2,2.9,0.4,5.3,0.6,7.3c-6-0.2-11.2-0.8-16.3-0.5
	c-10.1,0.5-19.1-3-27.7-7.2c-10.9-5.4-21.9-9.8-34.1-11.2c-9.9-1.2-19-5-28.3-8.8c-13.4-5.4-27.4-9.3-41.8-11.4
	c-6.5-1-13-3.2-19.2-5.6c-11.3-4.5-22.7-7.9-35-8c-3.8,0-7.9-1.7-11.4-3.6c-9.8-5.3-20.5-7.6-30.9-11c-1.7-0.6-3.7-0.5-5.6-0.6
	c-12.9-1-25.4-2.5-37.4-8.3c-6.3-3.1-14-3.2-20.9-5.3c-8.4-2.6-16.6-5.8-25-8.7c-2.5-0.8-5.1-1.5-7.6-2c-2.6-0.6-5.3-0.8-7.9-1.3
	c-7-1.2-14-2.8-21.1-3.5c-2-0.2-4.7,1.4-6.1,3c-9.1,9.7-17.9,19.7-26.9,29.5c-6.1,6.6-12.6,12.8-18.8,19.2
	c-6.2,6.5-12.2,13.3-18.4,19.8c-2.6,2.7-5.4,5.2-8.4,7.4c-3.8,2.7-7.5,5.1-8.5,10.2c-0.2,1.1-1.4,2.5-2.4,2.9
	c-7.4,3.2-11.3,9.7-15.2,16c-4.7,7.5-10.2,14.2-17.6,19.1c-0.7,0.4-1.6,0.8-1.9,1.4c-4.7,8.6-12.1,14.1-20.2,19.4
	c-4.9,3.2-8.6,8.4-12.8,12.7c-5.5,5.6-8.9,13.4-17,16.2c-0.7,0.2-1.6,1.1-1.6,1.7c-0.1,5.9-6.2,7.8-8.2,12.4c-0.4,1-1.8,2.1-2.9,2.3
	c-3,0.6-4.9,2-5.6,5c-0.9,4-4.1,5.5-7.6,6.3c-6.3,1.5-10.4,4.9-12.2,11.4c-0.9,2.9-2.8,6.2-5.1,8c-6.7,5.1-10.5,12-14.3,19.1
	c-0.7,1.3-1.8,2.9-3,3.4c-3.1,1.2-4.6,3.4-5.4,6.4c-0.4,1.5-1.5,2.9-2.6,3.9c-4.7,4.3-9.8,8.1-14.2,12.6c-3.3,3.4-6.7,4.9-12.4,2.8
	c4.4,7.8-4,10.3-4.2,16.5c-2.4-0.7-4.2-1.3-6.5-2c-0.2,2.6-0.4,4.6-0.6,6.6c-0.4,0.5-0.7,1.2-1.1,1.3c-3.8,1.1-6.1,3.2-7.8,7.1
	c-1.9,4.2-5.2,8.2-8.8,11.1c-3.9,3.1-6.7,6.1-5.7,11.4c-3.7,1.8-8.7,1.7-8.3,7.4c0,0.4-0.5,1.1-0.9,1.3c-7,2.5-9.2,9.2-13.2,14.4
	c-1.8,2.4-4.6,4.1-7.1,6.1c-3.1,2.4-5.5,4.9-7.4,8.8c-2.6,5.4-6.2,10.7-12.2,14.1c-5.8,3.3-9.4,9.4-11.7,15.5
	c-3.6,9.5-8.9,17.5-17.1,23.6c-4.4,3.2-7.4,3.8-10,1.5c-5.5-4.7-6.4-7.8-4.2-12.9c4.6-10.5,10.7-19.7,22-24.1
	c1.3-0.5,2.1-2.3,3.3-3.3c2.4-1.9,4.8-4.3,7.6-5.3c2.9-1.1,4.5-2.5,5-5.5c0.9-5.4,2-10.6,8.2-12.8c0.9-0.3,1.3-2.2,2-3.2
	c3.2-4.5,6.4-9,9.7-13.5c0.3-0.4,0.8-0.9,1.3-0.9c9.3-0.1,14.6-5.9,19.1-12.9c0.3-0.4,0.6-0.9,1.2-1.7c-0.7-2.2-1.5-4.6-2.4-7.6
	c3.1,0,5.7,0,9.3,0c-0.1-2.2,0-4.2-0.5-6c-1.4-4.8,0.2-7.7,4.9-8.3c1-0.1,2.1,0.5,3.1,0.5c0.8,0,1.5-0.4,2.4-0.6
	c0.5-3.7,0-7.9,1.8-10.7c1.9-2.9,6.1-4.1,9.1-6.3c1.2-0.9,2.7-2.3,3-3.7c1.7-8.8,11.2-10.4,15.4-16.8c0.3-0.4,3.4,0.3,4.5,1.3
	c0.9,0.9,0.8,2.9,1.3,5.1c3.1-2.8,5.7-4.9,2.3-9.2c-1-1.2-0.1-3.9-0.1-5.9c10.9-1.2,21.2-17,29.1-28c1.6,0.6,3.4,1.2,5.3,1.9
	c0.5-0.6,1.1-0.9,1.1-1.4c0.9-12.1,6.8-21.3,16-28.8c5.1-4.2,10.9-7.8,13.5-14.5c0.4-1.1,1.8-1.8,2.9-2.5c1.3-0.9,3.5-1.3,4-2.4
	c2.9-6.3,7.3-10.2,14.1-11.9c1.2-0.3,2.3-3,2.4-4.6c0.2-3.7,2.3-5.6,4.7-7.9c4-3.8,7.6-8.2,11.3-12.3c3.1-3.4,7.9-5,10.2-9.6
	c0.9-1.9,3.9-1.7,5.2,0.9c0.8,1.5,1.3,3.1,3.4,4.4c0-1.6,0-3.3,0-4.9c0.1-5.6,1.5-10.6,6.9-13.5c0.9-0.5,2.4-1.2,2.4-1.8
	c-0.1-6,5.5-7.4,8.5-10.9c3.1-3.6,5.9-7.5,8.8-11.3c1.3-1.7,2.4-3.4,3.8-5c8.3-9.8,16.8-19.3,22.8-30.9c5.1-9.8,12.6-17.7,22.4-23.4
	c3.6-2.1,6.4-5.5,9.3-8.5c9.2-9.6,18.4-19.2,27.5-28.9c4.4-4.7,8-10.3,13-14.1c12.1-8.9,10.3-22.2,12-34.4c0.1-1,0-2.4-0.6-3.1
	c-6.5-8.2-3-18-4.2-27.1c-0.5-4-0.3-8-1-11.9c-0.8-4.2-3.1-5.3-7.1-3.5c-2.8,1.3-5.2,3.4-7.8,5.2c-1,0.7-1.9,2-3,2.4
	c-8.6,2.5-14.4,9-21,14.4c-4.2,3.5-8.7,6.7-14.4,8c-6.4,1.4-10.1,7.3-15,11.2c-3.1,2.5-5.5,6.3-9,7.7c-7.1,2.9-11.6,8.5-16.8,13.5
	c-8.5,8.1-17.5,15.3-28.4,19.9c-2.8,1.2-6.5,3-7.4,5.5c-1.6,4.3-5.2,5.9-8,8.6c-1.9,1.8-4.3,3.3-6.7,4.3c-3.6,1.5-6.7,3.3-8.5,7
	c-0.3,0.7-0.9,1.7-1.5,1.9c-7.7,2-11.2,9.4-17.4,13.5c-7.3,4.9-13,12.1-19.5,18.2c-1.5,1.4-3.2,2.5-5,3.4
	c-5.2,2.6-10.2,4.6-13.3,10.6c-2.3,4.5-6.3,9.1-12.6,10.1c-1.9,0.3-3.5,2.2-5.1,3.5c-2.9,2.3-5.7,4.9-8.8,6.9
	c-1.1,0.7-3,0.3-5.2,0.4c-0.5,7.3-4.5,13.7-10.4,19c-2.9,2.6-6.5,4.5-9.3,7.2c-3.4,3.3-6.2,7.2-9.5,10.6c-2.7,2.8-5.7,5.4-8.6,8
	c-1.2,1.1-3.1,1.8-3.6,3.1c-2.4,6.8-9,9.5-13.4,14.2c-5.6,6.1-11.1,12.2-16.9,18c-3.4,3.3-7.3,6.1-11,9.1c-1.6,1.3-4.5,2.4-4.8,4
	c-1.9,10.4-12,12.9-17.7,19.4c-5.7,6.6-12.9,6.8-19.7,9.1c-2.7,0.9-5.9,0.7-7-2.1c-0.8-2.2-0.6-5.5,0.6-7.5
	c4.6-7.5,10.2-14.5,18.1-18.6c6.7-3.5,10.4-9.7,15.6-14.5c1.3-1.2,3.1-2.5,4.6-2.5c6.7,0.2,9.7-3.6,11.2-9.4c0.3-1,0.8-1.9,1.3-3
	c5.1,0.5,10,0.9,15.5,1.4c-5.5-6.4-5.3-7.2,0-12c2.7-2.4,4.7-5.7,6.9-8.7c1.3-1.7,1.9-4,3.5-5.4c1.9-1.7,4.8-2.5,5.4,1.2
	c0.6,3.7,2.6,3.2,4.9,3c2.1-3.5-4.6-6.5,0.1-9.6c-1.4-4.9,2.8-6.7,5.3-9.1c2.8-2.6,6.4-4.4,9.5-6.6c1.2-0.9,2.7-1.7,3.5-2.9
	c2.9-4.5,5.5-9.1,8.2-13.6c0.5-0.9,1.1-2.1,2-2.4c6-2,8.5-8,13.1-11.3c5.4-3.9,11-8.5,19.2-7.8c-1.6-3.1-1.8-5.5,1.7-8.3
	c7.5-6,13.9-13.3,21.2-19.6c5-4.4,10.4-8.5,16-12.1c3.6-2.2,6.9-4,7-8.8c0-0.8,1.2-2.1,2-2.3c6.1-1,8.8-6.7,13.1-9.9
	c3.9-2.9,7.2-6.2,11.9-7.8c1.9-0.7,4-2.1,4.8-3.8c5.2-9.9,14-15.1,24-18.9c3.4-1.3,5.8-3.2,8.2-5.9c4.1-4.5,9.5-7.7,14.1-11.8
	c6.1-5.6,11.9-11.4,17.9-17.2c0.8-0.7,1.4-1.7,2.2-2.3c7.4-5.2,14.5-11.2,22.5-15.1c6.5-3.1,11.4-7.6,16.8-11.9
	c9.1-7.3,18.8-13.8,28.2-20.8c3.2-2.4,6.7-4.6,9.2-7.6c1.6-2,2.7-5.6,2.1-8c-3.7-16-3.3-32.4-4.8-48.6c-0.6-6.4-1.3-12.8-2.2-19.1
	c-0.3-1.9-1.8-3.6-3.1-6.2c-4.5,2.9-8.3,5.2-12,7.9c-9.6,7.1-18.1,15.4-25.9,24.3c-2.4,2.8-5.6,5-8.3,7.6
	c-15.1,14.4-31.6,26.9-47.7,40.1c-7,5.8-14.6,10.8-21.5,16.5c-7.5,6.2-15.6,12.1-21.3,20.8c-3.7,5.6-10.2,9.2-15.2,13.9
	c-2.5,2.3-4.5,5.3-7,7.7c-3.6,3.5-7.1,7.3-11.2,9.9c-4.2,2.7-5.8,8.7-11.8,8.9c-0.6,0-1.4,1-1.6,1.7c-2,6.5-6.9,9.7-12.8,12.2
	c-2.3,1-4,3.5-6,5.2c-3.2,2.7-6.6,5.3-9.8,8.1c-4.9,4.1-10.2,7.9-14.3,12.7c-3.9,4.5-8.1,8.2-13,11.4c-3,1.9-6,4.4-8,7.3
	c-3.6,5.2-9.4,8.1-13,13.4c-2.9,4.3-8.5,6.8-14,11c-0.5,4.4-3.9,7.9-10.1,8.7c-1.5,0.2-3.5,0.9-4.3,2c-3.5,5.4-9.6,6.4-14.6,9.3
	c-2.9,1.7-5.4,4.3-7.6,6.9c-6,6.8-12.2,13.3-20.4,17.8c-3.4,1.9-5.4,6.4-7.9,9.8c-0.9,1.2-1.3,3.9-2.1,4c-5.8,0.8-7.7,6.4-11.9,9.2
	c-3.9,2.6-7.2,4.3-11.8,1.8c-1.8-1-4-1.1-6.1-1.7c-1.6-3.2-0.7-6.1,0.9-9.1c3.9-7.1,7.8-14.1,16.5-16.5c1.7-0.5,3.2-2,4.4-3.4
	c4.9-5.7,10.4-6,16.4-1.9c0.4,0.3,1,0.2,2.4,0.3c0.6-3.2,1.3-6.5,1.9-9.8c1.4-7.8,4-9.3,11.4-6.3c0.7,0.3,1.5,0.3,3.4,0.7
	c0.7-2.4,1.5-4.7,2.1-7.1c0.6-2.7,2.2-4,4.6-5.7c8.6-6.1,19-10.1,24.7-20c1.8-3.2,4.8-5.7,7.4-8.4c0.6-0.6,1.7-0.6,2.6-0.8
	c1.1-0.2,3.2-0.1,3.4-0.6c1.5-5.4,5.7-2.1,8.6-2.5c1.2-10,1.2-9.9,10.2-14.3c1.6-0.8,3.9-2.1,4-3.4c0.7-5.7,5-7.1,9.3-8.7
	c0.7-0.3,1.3-0.9,2.3-1.6c-0.4-1.4-0.7-2.8-1.1-4.5c2.1-1.2,4.2-2.3,6.9-3.8c0,1.8,0,3.2,0,5c3.3,0.6,5.5-0.9,6.4-3.6
	c2.9-8.8,7.8-15.7,16.1-20.1c1.8-0.9,3-2.8,4.8-4.6c1.9,1.8,3.3,3.1,4.8,4.5c0.9-2.5,1.9-5,2.8-7.5c0.3-0.8,0.2-2.1,0.6-2.2
	c9.4-2.6,8.9-15.8,19.1-17.6c1.6-0.3,3-2.9,4.2-4.6c3.7-4.9,7.4-9.7,12.5-13.4c3.6-2.6,6.1-3.1,9.7,0.3c-0.3-2.1-0.5-4.3-0.9-6.9
	c5.3-1.5,5.7-6.9,8.1-10.9c1.5-2.5,2.7-5.3,4.8-7.1c8.4-7.4,17-14.7,25.7-21.8c8-6.6,16.5-12.6,24.3-19.5
	c8.9-7.9,17.1-16.4,25.7-24.6c7.5-7.1,15.3-13.9,22.8-21.1c2.7-2.6,4.6-5.8,7-8.7c1.4-1.6,2.8-4,4.6-4.4c7.5-1.8,11.6-8.5,17.8-11.9
	c3.9-2.1,5.8-5.1,5.7-9.8c-0.5-10.7-0.2-21.5-1.1-32.1c-0.6-7.1-2.7-14.1-4.4-22.3c-1.4,0-3.3-0.3-5.2,0.1c-1.5,0.3-2.9,1.3-4.4,2
	c-9.4,4.3-18.8,8.7-28.3,12.9c-1.4,0.6-3.1,0.8-4.7,1.1c-1.3,0.3-3.2,0.1-3.8,0.8c-4.4,5.8-11.2,7.6-17.3,10.5
	c-2.6,1.3-5.1,2.7-7.7,4.1c-0.5,0.2-1.2,0.1-1.5,0.4c-7,7.9-16.2,12.8-24.8,18.8c-9.6,6.7-18.7,14.1-28.2,21
	c-7.7,5.7-15.5,11.2-23.4,16.7c-1.7,1.2-3.7,2-5.6,2.9c-6.1,2.9-11.9,6.1-15.9,12c-1,1.5-3.2,2.6-5.1,3.2
	c-5.8,1.8-10.7,4.5-14.2,9.8c-1.7,2.6-4.9,4.1-7.3,6.2c-2.4,2-4.6,4.3-7.1,6.2c-3.5,2.7-7,5.4-10.8,7.9c-7.1,4.7-14.3,9.2-21.5,13.8
	c-7,4.4-14.3,8.4-21,13.3c-3.8,2.8-7,6.7-9.5,10.7c-1.7,2.8-3.7,3.8-6.5,5c-6.2,2.7-10.6,9.4-18.6,8.4c-0.4,0-1.1,0.6-1.2,1
	c-3.2,10.2-15.2,12.6-19.6,21.8c-0.5,1.1-3.6,0.9-6.1,1.5c-3.1,4.5-5.2,11.6-14,10.3c-0.8,6.4-4.4,10.1-9.5,13.3
	c-5.1,3.2-8.7,8.6-13.5,12.2c-3.2,2.4-7.5,3.5-10.9,5.1c-3.9-1.8-4.3-6.7-9.2-6.3c-2.3,0.2-3.2-4.9-0.8-6.6
	c9-6.4,13.5-17.4,23.7-22.4c2.8-1.4,5.8-2.4,8.7-3.7c1.7-0.7,3.7-1.1,4.9-2.3c2.2-2.2,4.3-3.9,7.7-3.4c1.1,0.2,2.6-0.6,3.5-1.4
	c3.1-2.9,6.5-3.5,9.8-2.2c2.2-2.4,3.7-5.1,6-6.3c6.7-3.5,7.1-3.8,6.1-11.9c6.6,0,11.2-4.5,16.3-7.9c2.6,0.3,5.3,0.8,7-2.5
	c-4.4-3.4-4.8,1.7-6.8,2.7c-0.8-0.3-1.6-0.4-2.3-0.8c-0.4-0.2-0.6-0.8-1.1-1.3c4.1-4.4,8-8.3,14.5-10.1c6.3-1.8,12.5-6.2,12.4-13.8
	c5.6-4.5,10.7-8.6,15.9-12.7c0.6-0.5,1.2-1.3,1.9-1.4c10.4-1.3,15.2-11.1,23.6-15.7c7.6-4.1,13.8-10.9,20.6-16.6
	c1-0.9,1.8-2.3,3-2.6c9.6-2.7,14.2-12.6,22.9-16.1c7.6-3,13.4-8.2,19.6-13c1.4-1.1,4-0.8,6.6-1.3c3.2-7.3,10.1-11.4,16.8-15.8
	c2.9-1.9,5.5-4.2,8.2-6.4c5.9-4.7,11.8-9.4,19.4-10.9c3.1-0.6,4.5-2.3,6.1-4.6c7.6-10.8,18.3-17.4,30.1-22.9
	c10.4-4.8,20.6-10.1,30.7-15.6c10.8-5.9,21.2-12.6,32-18.3c3.8-2,5.2-4.6,6.7-8.2c3.2-7.6,0.5-14.9-0.6-22.1
	c-1.9-12.7-5-25.2-7.7-37.7c-0.5-2.1-1.1-4.2-1.9-6.2c-1.7-4.2-3.1-5-7.4-3c-4.2,1.9-8.1,4.5-12,7c-7.4,4.7-14.8,9.4-22,14.3
	c-11,7.4-21.6,15.4-31.7,24.1c-6,5.2-11.7,10.7-17.4,16.2c-6.1,5.8-13.6,10.1-20.5,15.1c-1.7,1.2-3.8,2.3-4.7,4.1
	c-2.4,4.8-6.6,6.6-11.3,8c-1.5,0.4-3.4,0.8-4.2,1.9c-6.2,8.2-14.9,12.5-24.1,16.2c-1,0.4-1.9,1-2.7,1.6c-9.2,6.7-18.4,13.5-27.7,20
	c-7.4,5.2-15,10.1-22.6,14.8c-3.4,2.1-7.2,3.4-10.8,5c-1.2,0.6-2.6,0.9-3.5,1.7c-6.7,6-13.1,12.4-20.1,18.1
	c-5.8,4.7-10.1,11.9-19.1,11.7c-1.3,0-2.7,1.6-3.9,2.5c-1.1,0.8-2,2.3-3.1,2.4c-7.5,0.8-10.8,6.5-13.9,12.1
	c-3.7,6.4-9.9,9.8-15.7,13.3c-4.4,2.7-8.4,5.1-11.1,9.8c-3,5.3-8.2,8.1-13.8,10.5c-4.3,1.8-8.7,2.6-12.6,6.2
	c-3.4,3.1-9.5,3.2-14.4,4.4c-4.6,1.1-6.9-1.9-8.9-5.3c-1.6-2.7-1-4.7,0.8-7.3c8.7-12.4,21.4-17.8,35.4-21.6
	c10.1-2.7,20.5-5.6,26.2-15.5c4.2-7.4,10-13,17-17.6c4.8-3.2,5-3.2,11.5-0.5c0.4-10,10.2-11.2,15.5-16.8c1.6-1.6,4.5-1.8,4.5-5
	c0-0.6,0.8-1.8,1.3-1.8c6.5-1.1,8.7-7.9,13.9-10.6c2.8-1.4,5.9-2.9,8.9-3c3.7-0.1,5.6-1.7,8.1-4.1c9.3-9.1,19.1-17.5,30.7-23.8
	c5.1-2.8,9.8-6.5,14.7-9.7c11.1-7.2,22.6-13.9,33.3-21.8c5.6-4.2,11.8-7.2,17.7-10.7c1.7-1,3.1-2.9,4.1-4.7
	c2.9-5.3,6.9-9.3,12.1-12.6c5-3.2,9.6-7,13.6-11.9c4.2-5.3,10.4-9,15.6-13.4c5.6-4.8,13.9-5.9,17.9-13c0.5-0.9,1.6-1.4,2.5-2
	c12.1-8.3,24.1-16.7,36.3-24.9c2.2-1.5,4.7-2.6,7.1-3.7c8.2-3.7,10.8-10.7,7.5-19.2c-1.4-3.6-1.9-7.6-2.6-11.5
	c-1-5.2-1.8-10.5-2.6-15.7c-0.6-4-1.2-8-1.8-11.9c-0.3-1.8-0.2-3.8-0.7-5.6c-2-7.1-4.5-8.1-11.1-5.2c-5.8,2.6-10.8,7-17.8,6.6
	c-1.7-0.1-4.6,1.8-5.1,3.3c-1.4,4.2-4.9,5.5-8.1,7.2c-8,4.3-16.1,8.2-24.1,12.4c-3.7,2-7.2,4.5-10.9,6.7
	c-10.8,6.4-21.7,12.7-32.5,19c-1.8,1.1-3.6,2.3-5.4,3.4c-3.2,1.9-6.4,3.7-9.6,5.5c-1.8,1.1-3.7,2.1-5.4,3.4
	c-1.1,0.8-1.8,2.5-2.9,2.7c-10.3,1.7-15.8,10.2-23.4,15.8c-4,2.9-9.2,4.1-13.8,6.3c-2,1-3.9,2.5-5.7,3.9c-3.1,2.5-5.8,5.6-9.2,7.4
	c-6.4,3.3-13.3,5.4-19.6,8.8c-8.4,4.5-16.3,9.9-24.8,14.3c-6.3,3.2-10.1,10.5-17.9,11.2c-0.9,0.1-1.8,1.1-2.6,1.8
	c-5.8,5.1-11.6,10.2-17.4,15.3c-0.6,0.5-1.2,1.2-2,1.4c-14.5,3.3-22.5,15.5-33.2,24C71.5,819,65.5,823,59.6,827
	c-8.2,5.4-16.4,10.7-24.8,15.9c-5.9,3.6-11.4,2.9-15.1-1.6c-3.3-3.9-2.2-10.4,2.4-15.2c4.1-4.2,8-8.1,14.6-8.9
	c5.6-0.7,11.2-3.4,16.3-6.2c4.8-2.6,8.9-6.7,13.5-9.8c4.2-2.8,8-6,11.5-9.6c3.7-3.8,8.1-6.9,11.8-10.8c3-3.3,5.7-1.5,8.6-0.1
	c2.1-2.7,1.7-7.7,6.9-6.7c0.5,0.1,1.3-1.6,2.1-2.2c3.8-2.9,7.6-5.7,11.4-8.4c1.3-0.9,3.2-1.2,4.2-2.3c8.9-9.9,20.7-15.8,31.4-23.1
	c3.3-2.3,8.2-2.2,12.1-3.8c3.4-1.4,7.2-2.9,9.5-5.5c5.1-5.9,12.1-8.7,18.4-12.6c3.2-2,6.5-3.6,9.7-5.5c10.3-6.3,20.1-13.3,30-20.3
	c7.5-5.3,16.5-8.6,24.5-13.2c7.1-4.2,13.7-9.4,20.9-13.4c7.3-4.1,14.2-9,22.7-11.2c3.8-1,6.9-4.7,10.5-7
	c11.8-7.3,23.5-14.7,35.4-21.8c6.4-3.8,13.2-6.9,19.9-10.2c5.4-2.7,8.6-7.9,8-13.7c-1.1-10.6-2.3-21.2-3.7-31.7
	c-0.5-4.2-1.5-8.5-2.5-12.6c-1.2-5.1-3.2-6.6-8-5.3c-5.7,1.5-11.2,3.6-16.6,5.7c-4.5,1.7-8.7,3.9-13.2,5.4
	c-6.6,2.2-14.4,2.4-19.7,6.3c-6.4,4.7-13.8,6.7-20.1,10.7c-6.1,3.8-12.4,7-18.7,10.3c-11.4,5.8-22,12.9-33,19.5
	c-1.6,0.9-3.2,1.7-4.9,2.6c-2.1,1.1-5.1,1.6-6.2,3.4c-3.9,5.9-10.5,6.9-15.9,10.2c-2.5,1.5-5.1,2.8-7.6,4.4c-2,1.4-3.7,3.2-6.4,1.4
	c-0.6-0.4-2.1-0.1-2.8,0.4c-5.5,3.4-10.8,7-16.2,10.4c-4,2.5-8.2,4.9-12.4,7.2c-1.1,0.7-3,0.8-3.6,1.7c-3.5,5.3-9,7.3-14.3,9.8
	s-10.4,5.4-15.6,8.2c-1.4,0.8-2.9,1.4-4.2,2.3c-4.8,3.3-9.2,7.4-14.3,10c-8.7,4.4-14.3,12.5-22.1,17.9c-0.9,0.6-1.6,1.5-2.5,2
	c-9.3,5.2-18.8,10.1-27.8,15.7c-8.8,5.4-17.2,11.4-25.7,17.3c-3.7,2.5-6.8,5.9-10.7,7.9c-4.7,2.4-10,1-13.6-2c-2.4-2-3.3-6.6-3.3-10
	c0-1.8,2.9-4.3,5-5.5c6.7-3.8,13.5-7.5,20.6-10.7c4-1.8,7-4.7,10.5-7c6.5-4.5,14-7.7,21.2-11.2c3.3-1.6,7.3-1.7,9.1-5.8
	c0.5-1.2,2.5-1.8,3.9-2.5c1.2-0.6,2.8-0.7,3.6-1.6c10.4-11.3,23.3-19.4,36.4-26.7c13.8-7.7,26-17.6,39.9-25c2.4-1.3,4.9-2.2,7.6-3.5
	c0.8,0.5,1.8,0.9,2.6,1.5c5.4,3.6,5.7,3.2,8.3-2.6c1.4-3.3,3.7-6.9,6.6-8.6c6.6-3.9,13.8-7,20.9-10c1.5-0.7,3.9,0.4,5.8,0.9
	c1.1,0.3,2.1,1.1,4.4,2.3c-0.4-2.3-0.9-3.6-0.7-4.6c0.4-1.9,0.8-4.3,2.1-5.3c4.4-3.3,9.2-6,13.8-9c6.8-4.6,13.5-9.5,20.4-13.9
	c4.2-2.7,8.9-4.9,13.4-7.1c4.8-2.4,9.6-4.5,14.4-6.8c3.6-1.6,7.2-3.2,10.8-4.8c1-0.4,2.2-0.5,3-1.2c8.2-7.3,18.6-9.7,28.7-12.8
	c5.9-1.8,11.7-4.6,16.8-8.1c7-4.9,14.9-5.1,23.4-7.1c5.7-5.8,3.2-14.1,3-21.5c-0.4-14.4-3.7-28.6-8.5-42.3c-1-3-2.5-4.8-5.7-4.5
	c-4.2,0.4-8.5,0.8-12.6,1.8c-14.7,3.4-27.7,11.3-41.5,17.1c-11.3,4.7-22.4,10.1-33.7,14.8c-4.8,2-9.9,2.9-15.7,4.6
	c-0.3-2.1-0.5-4.3-0.8-6.5c-2.4-1.6-4,0.2-3.5,4.1c0.1,0.8,0.2,1.5,0.3,2.9c-4.2,2.1-8.5,4.2-12.7,6.4c-11,5.7-22,11.6-33.1,17.3
	c-2.4,1.2-5,2-7.5,2.9c-7.1,2.4-14.3,4.7-20,10.2c-1.5,1.4-3.7,2-5.7,2.8c-8.7,3.4-17.5,6.6-26.1,10.2c-3.4,1.4-6.3,3.9-9.6,5.6
	c-5.4,2.8-11,5.3-16.5,8c-3.5,1.8-6.9,3.2-9.9,6.3c-3.1,3.2-8.4,4.3-12.5,6.6c-6.3,3.4-12.2,8-18.9,10.4c-8.5,3.1-14.5,10.1-23,13.1
	c-4.7,1.7-8.8,5-13.3,7.3c-5.1,2.6-10,1.3-14.6-1.4c-5.7-3.4-6.6-10.1-1.3-13.9c4.7-3.4,10.2-5.8,15.6-8.1c6.1-2.6,12.6-4.6,18.8-7
	c1.4-0.5,2.6-1.9,4-2.4c2.9-1,6.2-2.9,8.9-2.3c4.4,0.9,7.9-1.5,8.7-4.1c2.8-8.7,10.6-9.9,17-13.4c8.7-4.8,17.4-9.8,26.5-13.9
	c6.8-3.1,12.7-8.5,19.3-10.3c9.4-2.7,17.5-7.7,26.6-10.6c4-1.3,8-3,11.8-4.8c9.9-4.7,19.7-9.5,29.5-14.3c3.1-1.5,6-3.4,9-5
	c4-2,7.9-4.6,12.1-5.8c8.9-2.6,16.8-8.4,26.6-8.3c1.9,0,3.8-1.5,5.7-2.4c4.3-2,8.6-3.9,12.9-6c3.3-1.6,6.6-3.4,9.9-5.1
	c3.8-2,7.4-4.4,11.3-5.9c11.9-4.7,24-9.1,36-13.5c1-0.4,2.2-1.1,3-0.8c6.3,2.2,10.1-3.9,15.6-4.5c3.7-0.4,4-4.3,4.2-7.8
	c0.2-4.5,0.4-9.1,1.7-13.4c1.7-5.6,5.5-8.1,11-6.8c7.4,1.7,13.1-0.2,19.6-3.7c8.4-4.5,17.9-7.1,26.8-10.6
	c12.1-4.8,25.1-7.6,35.5-16.1c3.2-2.7,6.9-2.4,10.7-1.2c1.2,0.4,2.5,0.6,4.4,1.1c0.8-11,9.3-13,17.2-16.3c8.6-3.6,17-7.8,25.3-12
	c6.3-3.2,12-6.8,19.7-6.6c4.6,0.1,9.6-2.9,13.8-5.5c4.7-3,9.1-5.5,14.8-5.5c1.7,0,3.5-0.9,4.9-1.9c5.5-3.8,10.8-7.8,16.1-11.7
	c3.4-2.5,6.6-5.6,11.5-4.8c1.1,0.2,2.7-0.7,3.5-1.6c4.1-4.4,9.2-5.8,15.1-6.4c4.5-0.5,8.8-2.1,13.1-3.7c5.3-1.9,10.4-1.8,15.6,0.5
	c4.8,2.1,9.8,4.1,14.9,5.2c3.5,0.8,5.6,1.7,6.9,5.3c1,3,4.4,2.6,7.1,1.9c7.2-1.7,14.6-3,21.7-5.4c8.1-2.7,16-6.1,23.8-9.5
	c17.4-7.4,33.4-17.9,51.9-23.1c9.9-2.8,11.4-6.8,9.9-17.5c-1.5-10.9-2.7-21.8-3.9-32.7c-0.8-7.5-5.1-10-11.5-7.4
	c-9.3,3.9-18.8,7.6-28.4,10.8c-6.3,2.1-13,3.2-19.5,4.8c-3.1,0.7-5.7,1.9-8.4,3.8c-3.5,2.5-8.7,2.8-14.7,4.4
	c-0.2,0.4-1.1,2.5-2.1,4.9c-9.6,3-19.3,6-29,9.1c-1.8,0.6-3.5,1.2-5.1,2.1c-6.5,3.6-8.3,3.5-13.7-0.9c-2.7,1.5-5,3.1-7.5,4.2
	c-2.9,1.3-6,2-8.9,3.2c-6.9,2.9-11.1,2.4-16.1-2.8c-0.7,1.2-1.4,2.2-1.8,3.4c-0.4,1.2-0.4,2.5-0.5,3.6c-6,2.5-11.7,6.2-16.9-0.2
	c-2.6,2.4-4.6,5.5-7.2,6.2c-1.4,0.4-3.9-3.2-6.5-5.6c0,2.8,0,5.1,0,7.7c-2.9,1.3-5.6,2.4-8.3,3.6c-10.2,4.5-20.2,9.5-30.6,13.4
	c-6.7,2.5-14,3.4-21,5c-1.8,0.4-3.6,0.8-5.3,1.3c-3.7,1-7.4,2.1-12,3.4c-2.5,1.4-5.8,3.4-9.3,5.4c-2.7,1.6-5.5,3.2-8.3,4.8
	c-1.4,0.8-3,1.8-4.4,1.8c-6.3-0.4-12.3,1.9-18.5,2.4c-3.5,0.3-7-0.4-9,3.7c-0.4,0.8-2.3,1.1-3.5,1.4c-8,2.1-16.3,3.5-23.5,8.1
	c-1.7,1.1-4,1.8-6.1,2c-10.2,1.3-19.2,6.3-28.6,10c-2.5,1-5.1,1.5-7.5,2.5c-3.7,1.4-7.3,3-10.9,4.7c-0.7,0.3-1.3,1.2-2,1.3
	c-12.3,1-21.9,10-34,11.7c-1,0.1-2.2,0.6-2.9,1.3c-8.9,9.3-21,11.7-32.5,14.3c-11.7,2.7-21.8,8.8-33.1,12.2c-5,1.5-9.4,5.2-14.4,7
	c-8.2,2.9-16.7,5.4-25.2,7.3c-6.4,1.5-12.5,3.1-17.3,7.8c-0.8,0.7-1.7,1.9-2.5,1.9c-7.8-0.2-12.7,6.6-19.7,8.3
	c-2.3,0.6-4,3.3-6.1,4.9c-4,3-7.7,7.2-13.3,3.7c-7.6,7.3-8.6,7.2-14.9-0.8c-1.2,5.3-5.6,6.2-9.1,8.6c-11.8,8.1-25.9,11.1-38.1,18
	c-5,2.9-11,4.1-16.7,5.6c-7.9,2.1-15,5.2-21.6,10.1c-4.4,3.3-9.9,5.2-15,7.7c-1.4,0.7-3.4,0.9-4.3,2c-4.7,5.5-11.6,5-17.6,6.3
	c-7.4,1.6-10.8-1.1-15.1-10c1.7-7.5,8.5-9.6,14.3-11.3c9.4-2.7,18-6.8,26.5-11.2c2.1-1.1,4.6-1.8,6.9-1.9c1.4,0,2.8,1.6,4.5,2.7
	c0.4-4.3,4.7-5.4,8.2-7.8c8-5.4,17.4-6.2,26-9.5c9.4-3.7,19.1-6.5,28.7-9.8c1.4-0.5,2.5-1.8,3.8-2.7c1.5-1.1,2.9-2.6,4.6-3
	c6.7-1.8,13.7-2.9,20.3-5c5.8-1.9,12.9-1.3,16.7-8c0.9-1.7,4-2.4,6.3-3c5-1.2,9.5-3.1,13-7.3c1-1.3,3-2,4.7-2.6
	c10-3.6,20.1-7.1,30.2-10.7c0.2-0.1,0.5-0.4,0.7-0.3c9.8,2.9,14.1-6.2,21-9.5c0.7-0.3,1.3-1.1,2.1-1.2c9.7-1.8,18.4-7.1,28.5-7.3
	c3.7-0.1,7.3-2.8,11.1-3.9c6.1-1.8,11.7-4.3,17-8.2c5.7-4.1,12.9-6.4,19.5-9.3c8.3-3.6,16.6-7.1,24.9-10.5
	c5.7-2.3,11.3-4.7,17.2-6.5c2-0.6,4.6,0.6,7.3,1.1c4-6.4,10.6-8.5,17.6-10.3c5.3-1.4,9.5-6,15.6-5.4c1.8,0.2,3.8-0.5,5.6-0.3
	c3.7,0.3,6.5-0.9,9.6-3.2c3.9-2.9,8-5.8,13.6-5.5c4.2,0.2,8.3-3.6,12.9-0.4c0.6,0.4,2.7-1.6,4.2-2c2.7-0.7,5.8-2.1,8.3-1.4
	c3.5,1,4.9-0.5,6.5-2.9c2.6-4,6.2-5.8,11.2-6.8c5.1-1,10.2-3.4,14.5-6.4c4.6-3.2,9.7-2.2,14.5-3.5c1.1-0.3,2.6,1.3,4.5,2.4
	c1.6-7.9,8.7-8,14.1-10.1c10.5-4,21.1-7.4,31.6-11.3c1.7-0.6,3-2.3,4.6-3.1c3.1-1.5,6.2-3,9.5-3.9c4.9-1.2,10-1.5,14.8-2.9
	c4.8-1.4,9.2-2.8,13.8,0.7c1.5-1.8,2.8-3.1,3.9-4.6c2.3-3.2,5.3-4.5,9.1-3.6c3.1,0.8,5.7,0.3,8.2-1.8c1.1-0.9,3.3-1.7,4.2-1.2
	c4.3,2.3,7.6-0.4,11.4-1.5c5.4-1.6,11-2.3,16.5-3.4c2.6-0.5,5.2-0.9,7.8-1.7c4-1.3,8-2.6,11.9-4.4c4.8-2.2,9.6-4.6,14.3-7.1
	c4.3-2.4,4.2-2.5,9.7,0.1c3.4-7.2,9.3-10.2,17.3-10.2c3.3,0,6.6-1.9,9.8-3c5-1.7,9.9-4.2,15.5-2.9c1,0.2,2.3,0.1,3.1-0.4
	c5.5-3.6,11.1-7.2,16.5-11.1c5.2-3.8,5.7-4.8,3.6-10.8c-2-5.7-2-10.8-0.8-16.9c1.4-7-0.6-14.8-1.1-21.9c-3.6-2.3-6.5-2.3-9.8-1.5
	c-6.2,1.4-12.5,2.5-18.9,3.2c-8.8,1-17.3,2.7-24.9,7.5c-2.8,1.7-4.9,1.5-7-2.4c-1.9,4.9-4.7,6.8-9.7,6.3c-3.2-0.3-6.5,2.2-9.9,2.9
	c-3,0.6-6,0.6-10.2,1c1.1-2.5,1.6-3.6,2-4.8c0.3-0.9,0.3-1.9,0.5-3.1c-3.1-1-4.5,0.6-5.3,2.6c-0.6,1.4-0.4,3.1-0.6,4.7
	c-0.5,4.8-1.5,5.3-5.9,2.9c-0.7-0.4-1.4-0.6-1.9-0.9c-7,6.4-15.7,7.9-24.4,9.3c-5.8,1-11.5,2.2-17.3,3.2c-7.9,1.4-15.8,2.7-23.7,4.2
	c-4.5,0.9-8.8,2.4-13.2,3.3c-3.1,0.6-6.3,0.8-10.9,1.3c-2.2,3.8-6.7,6.5-13,6.3c-2.2,0-4.5,1.5-6.7,2.6c-3.8,2-7.5,3.4-12,3.9
	c-4.2,0.5-8.1,3.7-12.1,5.7c-1.6,0.8-3,2.1-4.7,2.5c-7.5,1.8-15.1,3.4-22.7,5.1c-5.2,1.2-10.1,3.2-15.7,2.3c-2-0.3-4.4,1.1-6.5,2.1
	c-4.5,2.2-8.9,4.7-14.3,7.5c-1.1-1.6-1.7-3.2-2.9-4.2c-2.8-2.3-5.9-4.1-9.5-1.7c-4.3,2.9-0.1,5.5,0.6,8.3c-6.6,1.8-13,3.6-20,5.5
	c-0.7-1.3-1.5-2.9-3.6-7.2c-0.8,2.2-1.2,3.5-1.6,4.8c-1,2.9-0.7,6.2-4,8.3c-3,1.9-4.8,2-6.7-1.7c-1.4,1.9-2.1,4-3.4,4.5
	c-5.6,2.3-11.5,4.2-17.2,6.3c-1.5,0.5-2.9,1.3-4.3,2c-5.7,3.3-5.9,3.3-9.5-3c-3.5-0.3-6.1,0.2-7.7,4.1c-0.8,1.9-3.1,3.9-5.1,4.6
	c-6.1,2-12.4,3.3-18.6,4.9c-2.8,0.7-5.6,1.6-8.5,2.4c-2,0.6-4.3,2.2-6,1.7c-3.5-1.1-5.5,0.4-7.8,2.4c-1.5,1.3-3.8,1.7-5.8,2.5
	c-4.8,2.1-9.6,4.2-14.4,6.4c-1.5,0.7-2.8,1.7-4.3,2.1c-8.2,2.4-16.3,4.7-24.5,6.9c-2.6,0.7-4.8,0.1-5.6-3.7c2.5-1.9,5.2-3.9,8.1-6.1
	c-0.8-1.5-1.5-2.8-2.6-4.9c2.1-0.9,4.1-1.7,6.4-2.7c0.6,4.1,1.1,7.3,1.6,11.1c8.8-2.4,13.6-6.8,13-15.2c6.2-3,11.5-8.1,18-4.3
	c3.1-2.9,5.3-6.4,8.4-7.5c2.8-1,6.6,0.8,10.1,1.3c2.6-2.2,5.2-5.7,8.6-6.9c3.6-1.3,8-0.5,10.3,4.3c2.4-3.1,4.3-5.6,6.7-8.7
	c1.1,2,1.8,3.3,2.9,5.1c2-1,4.8-1.4,6.1-3c6.2-7.6,15.7-8.4,23.7-12.4c0.2-0.1,0.6-0.3,0.8-0.2c7.3,2.5,11.9-2.5,16.9-6.7
	c2.3,2,4.2,3.7,6.8,6c2.7-9.7,10.2-12,18.1-13.9c2.8-0.7,5.3-2.7,8.2-3.3c7.2-1.4,13.5-5.1,20.5-6.9c3.1-0.8,6.4-1,9.6-0.7
	c4.9,0.5,8.9-0.6,12.2-4.5c0.8-1,2.2-1.5,3.5-1.9c9.3-2.3,18.7-4.6,28-6.8c1.3-0.3,3-0.2,3.8-1c6.2-6,13.3-3.9,20.7-2.5
	c3.9-6.1,9.3-9.4,17.1-6.9c1-1.5,2-2.7,2.8-4c1.6-2.5,4.1-3.2,6.3-1.8c3,1.9,5.3,1.2,8.1-0.2c9.7-4.9,20.4-6.6,30.9-9
	c10.7-2.4,21.1-5.6,31.7-8.3c1.8-0.5,3.7-0.6,5.6-0.4c4.4,0.3,7.8-1.7,11.8-3.2c9.7-3.8,20.3-5.4,31.5-8c-0.3,3.9-0.6,6.4-0.9,10.3
	c1.7-1.7,2.6-2.5,3.3-3.3c3.9-4.6,6.7-10.7,14.1-10.6c8.8-8,20.8-5.8,31-9.4c2.4-0.9,6,1.5,8.7,2.3c3.4-1.4,6.8-3.2,10.5-4.2
	c4.7-1.3,6.7-3.9,5.8-8.8c-1.8-10.5-3.8-20.9-5.7-31.6c-5-3.7-9.9-4.4-16.7-2.1c-11.9,3.9-24.4,5.7-36.7,8.3c-2.4,0.5-4.7,1.1-7,1.7
	c-1.6,0.4-3.5,1.6-4.6,1.1c-10-4.4-17.4,2.9-25.4,5.8c-8.3,3-16.8,2.9-25.1,4.3c-2,0.4-3.8,0-5.7,1.5c-3.5,2.7-7.6,3.4-11.1,0.4
	c-3.3-2.8-5.9-1.7-8.5,0.5c-8.2,7-11.1,7.1-20.1,0.7c-0.6-0.4-1.4-0.5-3-1.1c-0.5,3.3-0.9,6.2-1.5,10.5c-2.9-1.6-5.2-2.9-8.2-4.6
	c-1.7,6.1-6.5,6.9-11.9,7.2c-3.4,0.2-6.7,1.5-10.6,2.5c-0.6-0.9-1.4-2.3-2.7-4.4c-4.2,8.1-11.7,6.9-17.5,7
	c-6.8,0.1-13.1,1.7-19.5,3.2c-13.3,3-26.6,6.2-39.8,9.5c-4.3,1.1-8,4.5-12.8,3.5c-2.9-8.5,0.1-14.8,8.4-17.7c2-0.7,4.2-0.9,6.3-1.5
	c7.2-2,14.3-4.8,21.6-5.8c9.1-1.2,18.2-2.2,27-5.3c2.7-0.9,6.3,0.6,9.8,1c1-1.2,2.2-2.5,3.5-4c2.2,0.6,4.2,1.3,6.5,2
	c1.8-1.4,3.7-2.8,5.8-4.5c6.2,5.5,10.5-1.8,15.9-2.5c3.2-0.4,6.3-1.2,9.4-1.8c6-1.3,12-2.7,18-3.8c4.1-0.8,8.4-1,12.5-1.6
	c2.6-0.4,5.2-0.8,7.8-1.5c6.5-1.6,12.9-3.3,19.4-4.8c2.9-0.7,5.9-0.7,8.6-1.8c3.7-1.4,6.5-1,8.6,2.7c4.1-7,5.7-9.3,13.4-0.6
	c1.2-6.5,7-6.3,11.2-8.8c9.5-5.6,20.7-3.6,30.4-7.5c7.3,2.3,13-3.5,19.8-3.8c1.3-0.1,3-0.2,3.8-1c4.8-4.8,9.6-3.5,14.4,0.5
	c2-1.8,4.2-3.1,5.4-5c1-1.5,1.7-4.1,1.2-5.7c-2.8-9-4.7-18-4.5-27.4c0-3,1.2-6.2,2.6-9c1.9-3.6,5.2-4.6,8.9-2.3
	c4,2.5,7.8,2.8,12.2,1.1c2.6-1,5.7-0.9,8.6-0.9c17.9,0,35.2-7,53.4-4.7c8.2,1,16.6-0.2,24.9-0.9c4.2-0.4,8.3-1.8,12.5-2.9
	c2.8-0.7,5.6-2,8.5-2.5c10.9-1.8,21-5,29.8-12.1c2.4-1.9,6.7-2,10.1-2c8.2-0.1,16.7-2.6,24.3,2.3c1.9,1.2,3.5,3,5.2,4.6
	c0.8,0.7,1.1,2,1.9,2.6c10.9,8,12.7,19,10.5,31.4c-0.2,1.3,0.8,2.9,1.5,5.3c8.6-4.7,16.7-9.2,24.6-13.5c1.4,1,2.6,2,3.6,2.7
	c0.7-0.3,1.1-0.4,1.1-0.5c0-4.4,4.2-5.4,6.6-7.8c1.6-1.6,3.5-3.2,5.5-4.1c6.4-3.1,11.8-7.3,15.6-13.5c1-1.5,2.4-2.8,3.7-4.1
	c2.1-2.4,4.4-4.6,6-7.2c4.9-8.1,14.5-9.3,20.9-2.3c2.9,3.2,2.7,7.5-0.9,10.6c-5,4.2-9.9,8.5-15.1,12.5c-2.3,1.7-5.1,2.8-7.9,4.2
	c1.1,4.9,5.5,6.7,8.8,2c3.2-4.6,7.5-5.5,11.9-7.2c4.1-1.6,6.6-6.4,11.9-5.9c1,0.1,2.2-1.3,3.1-2.2c0.7-0.8,0.8-1.9,1.4-2.9
	c2.4-4.3,20-12.5,24.6-10.8c2.8,1.1,6.8,3.4,7.1,5.7c0.8,6.1,4.2,12.3,1.3,18.7c-1.2,2.7,0.1,3.9,2.7,5.1c4.1-8.4,6.2-16.7,5.8-25.7
	c-0.4-7.6,3.7-11.8,10.1-14.6c5.9,2.7,7.3,6.6,6.9,13c-0.8,13.1-1.7,26.3,1.1,39.4c1,4.9,1,10.1,1.1,15.2
	c0.3,10.5,0.6,20.9,0.5,31.4c-0.2,12-0.8,24.1-1.2,36.1c-0.4,12.8-3,25.5,1.2,38.4c1.7,5.1,1.5,11.5,0.1,16.7
	c-3,11.3-0.1,22.3,0.2,33.4c0,1.3,0.8,3.1,0.2,3.9c-4.7,6.5-0.4,13-0.2,19.4c0.2,6.4,0.5,12.6,2.4,19c2.6,8.8,5.9,17.8,4.7,27.4
	c-0.3,2.2,1.3,4.6,1.5,7c0.5,5.3,0.8,10.6,0.8,15.9c0,1.7-0.9,4.4-2.2,4.9c-6,2.7-6.4,8.3-7.4,13.4c-1,5-1.2,10.1-2.1,15.1
	c-0.4,2.3-1.1,4.8-2.4,6.7c-3.1,4.5-3.6,8.7-0.5,13.4c1,1.5,1.2,3.5,1.9,6c1.5-1.1,2.9-1.7,3.7-2.7c2.1-2.8,4-5.8,8-6.2
	c0.5-0.1,1.1-0.4,1.4-0.8c4.2-7.6,11.1-10.3,19.3-11.4c2.1-0.3,4.3-2.2,5.8-4c3.8-4.5,7.4-9.1,10.7-13.9c0.9-1.3,0.8-3.5,0.6-5.2
	c-0.1-1.3-1.1-2.5-1.5-3.7c-2.2-6.2-5-12.3-0.4-18.8c1.1-1.6,1.1-4.2,1-6.3c-0.3-11,3.3-21,7.4-30.9c0.6-1.5,1-3.4,2.1-4.3
	c5.3-4.4,10.8-8.5,16.2-12.8c1.8-1.4,3.7-2.8,5.2-4.5c2.3-2.5,4.2-5.4,6.4-8c3.1-3.6,5.7-7.3,2.9-12.3c-0.4-0.7-0.9-1.7-0.7-2.2
	c3.4-8.3-0.8-17,1.1-25.4c0.1-0.5,0.4-1,0.3-0.8c3.3-2.4,6-4.4,8.8-6.4c3.6-2.6,6.4-2.3,9.9,0.7c3.5,2.9,7.2,5.6,10.6,8.5
	c2.3,2,3.2,4.2,2.3,7.8c-1.8,6.9-2.6,14-3.7,21c-0.6,4,1.6,5.9,5.2,6.7c3.9,0.9,7.7,2.5,11.6,3.1c8.8,1.3,13.1,7.7,16.9,14.6
	c4.8,8.7,9.6,17.3,14.7,25.8c1.3,2.2,3.2,4.2,5.1,5.9c5.2,4.7,6.2,10.2,6,17.2c-0.4,12-6.1,15.2-19.5,19.9c-5,1.7-9.3,2.8-12.3,7.8
	c-3.6,6-9.7,6.9-15.9,3.3c-1.1-0.6-2.2-1-4.1-1.9c3,12.1,1.4,23.5,2.2,34.7c0.5,6.4,1.7,12.7,2.8,19c0.6,3.5,2.6,5.6,6.4,6.2
	c10.6,1.6,21.1,3.5,31.7,5.1c1.5,0.2,3.2,0,4.7-0.5c3.2-0.9,6.4-2,9.9-3c1.9-6.2,3.9-12.8,6-19.4c0.2-0.8,0.4-1.6,0.4-2.4
	c0.2-11.2,0.5-22.4,0.4-33.5c-0.1-8,0.9-9.6,8.9-11.3c1.5-0.3,3-0.7,4.2-1c-2.4-7.1-5.8-13.7-6.7-20.7c-0.8-6.7,0.3-13.8,1.6-20.6
	c2.1-10.7,5.2-21.2,7.4-31.9c0.7-3.3-0.5-6.9-0.2-10.3c1.1-11.5,2.2-22.9,3.9-34.3c1-6.8,7.1-9.8,15.8-8.4
	c11.1,1.7,22.5,13.4,24.6,24.6c1.4,7.3,3.4,14.5,5.3,22.2c0.6,0.1,1.8,0.7,2.5,0.4c7.5-3.2,15.3-2.4,23-1.6c8.4,0.9,15.1-2,20.5-8.4
	c3.7-4.4,4-5.1,1.3-9.7c-5.4-9.3-6.6-19.7-7.1-30c-0.3-5.9,5.7-11.2,11.6-11.9c8.5-1,16.1,0.1,21.2,8c0.8,1.3,2.5,2,3.7,3
	c3.4,2.9,5.7,6.4,5.9,11c0.3,6.2,1,12.3,1.3,18.5c0.3,6.9,1.9,8.3,8.7,8.6c6.6,0.3,13.3,1.1,19.8,2c5.2,0.7,7.1,0.1,10-4.4
	c0.9-1.4,1.7-2.8,2.7-4c5.8-7.1,6.2-7.3,1.3-15.2c-7.1-11.3-4.1-28.1,5.4-37.8c3.6-3.6,7.7-4.8,13.2-3.8
	c11.6,2.1,19.6,8.3,23.7,19.1c1.3,3.4,1.9,7.4,1.5,11c-0.7,6.3-2.3,12.6-3.6,18.9c-1.4,6.5-1.9,12.9,3.5,18c1.3,1.2,2.9,2.5,4.5,3.1
	c12.6,4.2,19.1,12.8,20.5,26c0.6,5.2,3,10.2,4.4,15.4c0.9,3.3,2,6.7,2.2,10.1c0.5,7.5,0.4,15,0.7,22.5c0.1,2.9,0.8,5.8,1.1,8.7
	c0.2,2.1,0.7,4.3,0.3,6.3c-3.1,15.9-0.4,31.4,2.9,46.8c0.9,4.1,3.1,7.9,5.2,11.6c9.2,16.2,7.9,33.3,4.5,50.6
	c-0.5,2.4-0.6,4.8-0.9,7.2c-1,7.9-5.7,12.1-13.7,11.4c-5-0.4-10.1-1.6-15-2.8c-8-1.9-9.6-0.7-9.7,7.2c-0.1,8.3-1.2,16.6-0.9,24.8
	c0.3,10.5,1.4,20.9,2.5,31.3c0.4,3.6,2.3,6.8,6,8c7.2,2.3,9,8.6,10.6,14.8c1.5,6.1-2.7,10.6-8.8,9.6c-4.7-0.8-9.2-2.5-13.8-3.8
	c-5.4-1.5-10.9-3-16.4-4.2c-3.2-0.7-4.4-2.3-4.6-5.5c-0.9-13.3-2-26.6,1.4-39.7c0.4-1.7-0.1-3.7-0.2-5.6c-0.4-11.5-0.4-23-1.3-34.5
	c-0.6-7.1-2.4-14.1-3.7-21.2c-0.8-4.4-1.7-8.7-2.5-13.1c-0.6-0.1-1.2-0.2-1.9-0.3c-1.9,5-3.8,9.9-5.7,14.9c-0.5,1.2-0.4,2.7-1,3.9
	c-6.5,13.4-5.3,27.7-5.1,41.9c0,0.5,0.2,1.1,0.1,1.6c-0.9,11.8-1.4,23.6-3,35.2c-1.2,9-3.3,18-2.2,27.2c0.2,1.5-0.4,3.1-0.7,5
	c-3.4,1.1-6.7,2.2-10,3.1c-1.5,0.4-3.7,1-4.6,0.2c-4.1-3.3-8.7-2.3-13.2-2.4c-5.7-0.1-10.5-1.6-13.8-6.8c-2.3-3.7-5.5-4.8-10.2-4.7
	c-11.4,0.3-22.1-8.2-23.4-19.2c-0.6-4.8,1-10.1,2.5-14.9c4.5-13.9,7.7-28.1,6.7-42.7c-0.7-10.1-2.8-20-4.4-30
	c-0.7-4.2-1.1-8.5-2.2-12.7c-1.1-4.6-2.6-9.2-4.2-13.7c-1.6-4.3-5.6-4.8-9.4-4.6c-4,0.2-4.3,3.8-4.7,6.6c-1.4,9.5-2.4,19.1-3.6,28.6
	c-0.6,4.8-1.2,9.6-1.6,14.4c-0.6,6.4-2,12.5-0.8,19.2c0.8,4.5-1,9.4-1.3,14.2c-0.2,3.9,0.1,7.9,0.4,11.9c0.5,6.6,1.1,13.2,1.7,19.3
	c-4.3,2.4-7.5,4.5-10.9,5.9c-4.9,2.1-9.7,2.5-14.1-1.9c-3.4-3.4-7.1-6.2-9.4-10.7c-1.4-2.9-4.5-6-7.5-6.8c-5.1-1.4-7.2-4.9-9.6-8.8
	c-4.9-8.2-10-16.2-15-24.3c-0.3-0.5-1.4-0.6-3.1-1.4c-0.6,2.5-1.2,4.7-1.5,6.9c-1.3,10-2.4,20-3.9,30c-0.8,5-4.8,7.5-9,9.4
	c-2.2,1-4.6,1.6-6.7,2.7c-4.4,2.2-8.2,1.4-11.9-1.7c-1.8-1.5-3.9-2.8-6-3.9c-6.5-3.4-9.3-9.6-7.5-16.8c1.9-7.5,4.3-15,5.5-22.6
	c2-12.6,5-25.2,2.7-38.2c-0.5-2.7,1-5.7,1.3-8.7c0.3-2.9,0.7-5.8,0.6-8.7c-0.1-2.7-2-4.3-4.8-4.6c-11.7-1-23.4-2-35.2-3
	c-0.5,0-1,0.4-2,0.8c-2,6.3-0.3,12.9,0.1,19.4c0.3,4.8,0.9,9.6,1.5,14.3c0.3,2.8,0.8,5.7,1.2,8.5c0.3,2.1,1.1,4.5,0.4,6.4
	c-2.3,6.5-0.5,12.7,0.2,19c0.7,7.3,3.8,10.7,10.9,11.5c1.1,0.1,2.2-0.2,3.2,0c7.3,2,9.6,9.1,3.9,14.1c-3.5,3.1-8.4,4.4-12.6,6.8
	c-9.7,5.5-19.2,3.3-28.7-0.4c-5.4-2.1-6-6-1.3-9.5c2.1-1.6,5-2.1,7-3.8c1.9-1.5,4.6-3.8,4.6-5.8c0-7.1-0.9-14.2-1.5-21.2
	c-1-11.7-2.6-23.6-6.2-35.1c-2.1-6.8-2.9-14.1-4.3-21.2c-0.5-2.6-1.1-5.1-1.8-8.2c-2.9,0-5.3,0-7.7,0c-4.1,0-6.3,1.7-7,6
	c-2,12.4-4.3,24.7-6.6,37.1c-0.1,0.5,0.1,1.2-0.2,1.6c-7.3,11.9-4.2,26.5-10.3,38.7c-1.3,2.5-1.9,5.8-1.7,8.6c0.4,5.7-2.5,9-6.6,12
	c-0.7,0.5-1.5,0.7-2,1.3c-7.6,9.8-16.7,7.2-25.8,2.8c-1.5-0.7-3.4-2.4-3.5-3.8c-0.9-8.5-3.1-17.1,1.2-25.3c1.1-2.1,2.4-4.2,3.8-6.1
	c3.4-4.5,7-8.8,10.3-13.3c3.5-4.7,6.9-9.3,6.7-15.9c-0.1-3.2,2.5-6.4,3.7-9.6c3.8-10,1.7-20.1,0.8-30.2c-0.3-2.9-1.8-4.7-5.2-5
	c-3.7-0.2-7.5-1-11-2.1c-7.2-2.3-14.1-2.1-21,1c-1,0.4-2,0.7-3.1,1c-2.7,0.8-6.9-0.1-6.8,4c0.1,3.2,1.6,6.7,3.5,9.3
	c3.6,4.9,8.4,9,11.9,14c14.3,21,6.4,41.2-8.8,54.5c-1.9,1.7-5,2-7.1,3.6c-3.9,3-8.2,5.2-10.6,10.4c-3.1,6.4-15.2,9.9-22.8,8.1
	c-4.2-1-8.4-1.6-12.6-2.7c-2.3-0.6-4.5-1.6-6.6-2.6c-3.5-1.8-6.9-3.9-10.4-5.7c-7.8-4.2-8.4-13.8-1.4-19.1c4.2-3.2,8.3-4.1,13.4-3.1
	c7.1,1.3,14.3,2,21.4,2.8c4.3,0.5,7.1-1.7,8.8-5.5c0.9-2,1.8-3.9,3-5.7c8.8-13.6,6.4-26.6-1-40.1c-5.3-9.8-12.1-18.8-15.5-29.7
	c-1.9-6-5.5-11.6-8.9-17c-4.9-7.8-13.2-10.7-21.4-13.2c-3.6-1.1-7.5-0.3-9.1,4.3c-0.5,1.3-1.9,2.5-3,3.5c-5.7,5-9.2,10.8-8.8,18.9
	c0.3,5.8-1,11.4-4.1,16.9c-2.6,4.6-2.5,10.7-3.5,16.2c-0.3,1.8,0.2,4-0.6,5.5c-4,7.2-2.4,14.6-1.1,22c1.1,6.5,0.4,11.8-6.1,15.8
	c-10.2,6.3-20.4,11.9-33,10.5c-4.2-0.5-8.9-3.9-9.8-7.2c-1.3-4.7,2.1-9.5,7.8-10c7.4-0.7,14.9-0.8,23.2-1.2c1-1.4,2.5-3.5,4.3-6
	c-5.1-5.4-3.8-12-2.9-18.2c1.1-7.3,3.8-14.3,4.8-21.8c0.9-6.7,4.4-13.1,6.6-19.6c0.9-2.8,2.6-5.8,2.1-8.5c-1.9-10.6,5.2-18.2,8.5-27
	c0.5-1.2,2.3-2,3.7-2.8c1.6-0.9,3.3-1.7,4.9-2.5c-0.6-0.5-1.1-1.1-1.7-1.7c-0.2-0.5-0.3-1.3-0.7-1.4c-10.5-4.2-12.7-12.7-12.5-22.8
	c0.1-2.7-0.6-5.5-1.1-9.5c-2.7,1.9-4.2,2.9-5.6,3.9c-6,4.4-11.9,9.1-18.2,13.2c-4.3,2.8-12.3,0.1-17-5.1c2.6-6.7,7.4-11.7,13.9-14.6
	c5.1-2.3,8.2-5.9,9.4-11.2c0.7-3.1,3.3-4.4,5.1-6.4c3.9-4.6,11.2-5.5,12.8-12.2c0.1-0.5,0.5-1.1,0.9-1.3c7.9-3.4,6.4-9.9,5.8-16.5
	c-0.5-5.5-0.7-10.9,2.5-16.3c2.5-4.2,0.5-9.3-3.2-12.3c-5-4.1-6.4-9.7-8.3-15.2c-1.4-4-2.6-8.2-3.6-12.3c-1.5-6.7,1.6-12.7,3.5-18.7
	c3.1-9.9,11.6-13.4,20.8-15.1c6.2-1.1,14.8,3.5,17.6,8.8c5.7,10.8,5.5,21.5-0.3,32.2c-2.3,4.4-5,7.5-10.4,7.4
	c-0.6,0-1.3,0.8-2.2,1.4c2.4,4,6.3,4.8,10.1,6c5.3,1.6,10.8,3.2,16,5c7.6,2.6,9.8,1.7,11.9-6.4c0.8-3.3,1.2-6.9,0.9-10.2
	c-0.4-4.8-1.6-9.5-2.4-14.3c-0.8-4.8-2.1-9-6.4-12.4c-3.7-2.8-6.5-7-8.8-11.2c-1.3-2.3-1.4-5.8-0.7-8.4c1.4-5.1,0.9-9.9-0.2-15
	c-1.3-6-1.6-12.2-1.5-18.3c0.2-7.6,1.9-15,0.7-22.8c-0.7-4.4-1.8-9.6,1.8-13.9c0.6-0.6,0.6-2.2,0.3-3.1c-2.7-6.8-0.7-13.6-0.7-20.4
	c0-3.9-1.2-7.9-2.2-11.7c-0.9-3.2-1.3-6.1,0.5-9.3c0.9-1.5,1.6-4.1,0.9-5.2c-4.9-7.1-4.6-15.9-7.7-23.5c-1.2-3.1-2.9-6-4.9-10.1
	c-8.3,9.7-19.3,12.7-28.2,18.9c-6.4,4.5-11.6,10.7-17.6,15.9c-3.2,2.7-6.6,5.8-10.5,7c-9.1,2.8-15.4,9-22.1,15
	c-4.1,3.7-7.8,8-12,11.6c-3.2,2.8-7.2,4.6-10.5,7.3c-6.2,5-12.6,9.8-18.3,15.4c-5.2,5.1-7,12.1-6.4,19.3c0.6,7.5,2,14.8,3.1,22.2
	c0.9,5.8,2.1,11.6,2.7,17.5c0.9,10.1,1.4,20.3,2.2,30.5c0.6,7.2,1.4,14.4,2,21.6c0.4,4.3,0.6,8.5,0.8,12.8c0.5,12.3,0.5,24.7,1.5,37
	c1,12,3.4,23.8,4.6,35.8c1.6,16.2,3,32.5,3.5,48.9c0.3,7.8,0.9,15.5,2.3,23.1c0.4,2.4,1.4,4.9,1,7.1c-0.7,4.7,1.2,8.4,3.7,12
	c3,4.2,4.3,8.4,1.5,13.5c-1.3,2.4-1.6,5.8-1.3,8.6c0.7,6.3,2.3,12.6,3.1,18.9c0.7,5.8,0.7,11.7,1.3,17.5c0.6,6,0,12.4,3.9,17.8
	c0.3,0.4,0.5,1.1,0.4,1.5c-2.1,11,3.3,21.1,3.7,31.8c0.1,3.2,0.2,6.4,0.2,9.6c0.1,4.7,0.8,4.9,5.8,4.8c4.5-0.1,7.2-2.5,10.3-5
	c6.6-5.3,12.9-11,18.5-17.4c2.9-3.3,7.9-2.8,13,0.8c3.2,2.2,2,5.1,0.9,7.9c-4.7,12-11.4,22.5-22.8,29.1c-3.1,1.8-4.8,4.1-4.6,8.4
	c5.5,4,11.2,8.3,17.1,12.2c1.6,1.1,4.1,1,6.2,1.1c4.8,0.2,9.7,0.2,14.5,0.3c4.8,0,9.8-0.3,13.1,4.3c0.5,0.7,2.2,1.5,2.8,1.2
	c8.4-4,16,0.3,23.3,3c6.6,2.5,13,3.1,19.7,2.1c5.6-0.9,10.6-0.2,15.4,2.8c4.1,2.6,8.5,3.2,13.1,1.5c7.3-2.7,14.7-1.7,22.1-1
	c3.2,0.3,6.1,0.9,9.1-1.3c1.5-1.1,4.6-0.8,6.7-0.2c9,2.9,17.9,3.1,26.8,0c0.5-0.2,1-0.4,1.6-0.4c15-1.1,29.6-4.6,44.2-7.8
	c2.2-0.5,4.8,0,7,0.8c4.5,1.5,8.9,3.5,13.3,5.2c1.2,0.5,2.8,1.1,3.9,0.7c6.8-2.6,13.7-0.6,20.5-0.5c2.6,0,5.7,0,7.7,1.3
	c4.9,3.1,10.1,3.4,15.5,3c7.1-0.5,13.7,0.4,20.1,4.1c5.7,3.2,6.3,3.6,4.7,9.7c-0.3,1.3-0.6,2.6-1.1,4.4c-6.2-1.5-12.3-3-18.5-4.3
	c-4.3-1-6,0.4-6.4,4.7c-1.4,14.9-2,15.7-16.8,15.3c-8.8-0.2-17.6-1.5-26.4-2.5c-1.8-0.2-3.7-1-5.2-1.9c-6.6-4-13.9-4.7-21.4-5.3
	c-9.3-0.7-18.6-2.5-27.9-3.2c-13.1-0.9-26.3-1-39.4-1.5c-6.6,3.9-13.9,1.8-20.8,2.5c-8.5,0.9-16.4-1.7-24.7-2
	c-5.7-0.3-11.1-2.2-17.3-0.3c-4.2,1.3-9.6-2-14.6-2.9c-12.3-2.4-24.7-5.7-37.1-6.7c-18.2-1.4-36.1-5-54-8c-2.2-0.4-5.2-0.4-6.9,0.7
	c-4.7,3-9,2.7-13.6,0.1c-5.4-3-10.5-2.9-15.7,1c-5.2,3.9-12.3,1.2-14.8-4.9c-0.9-2.2-1.7-4.3-2.7-6.9c-2.1,0.7-4.1,0.7-5,1.7
	c-6.9,7.3-13.2,15.3-20.6,22.1c-4.4,4-7.7,9.7-14.1,11.2c-0.9,0.2-2,1-2.4,1.8c-6.8,12.3-16.6,21.8-27.4,30.5
	c-4.2,3.4-7.4,8.2-10.9,12.5c-7.2,8.6-14.3,17.3-21.3,26c-3.3,4.2-6.4,1.5-9.3-0.8c0,7.8,0,14.8,0,22c1,0.7,1.7,1.5,2.6,1.9
	c10.8,4.6,15.3,13.5,16.2,24.4c0.4,4.4,1.4,7.8,4.5,11.3c4.1,4.6,6.8,10.6,10.5,16.7c3.3-9,4.2-17.5,1-26.1
	c-3.6-9.4-3.8-18.8-1.2-28.5c3.1-11.8,14.1-19.1,26.1-17.3c3.8,0.6,6.8,2.8,7.7,6.2c2.9,10.6,5.7,21.2,7.8,31.9
	c0.9,4.4-0.5,9-4.8,12.2c-1.6,1.2-2.4,3.4-3.3,4.9c2.1,4.9,4,9.3,6,13.7c2,4.4,5.4,7.1,10.1,8.2c10.5,2.4,17.3,8.5,20.2,19.3
	c1.1,4.2,3.5,8.5,6.3,11.9c4.2,5.2,9,4.6,12.3-1c2.7-4.6,4.1-8.8,2.3-15c-2.7-9.6-2.6-19.9-3.7-29.9c-0.2-2.1,0-4.3-0.4-6.4
	c-1.5-8.3,1.9-15.5,8-19.8c5.1-3.6,12.9-5.8,19.1-2.9c7.3,3.5,15.2,7,19.8,14.4c0.8,1.3,1.8,2.7,2.1,4.2c2.3,12.5,3.1,24.9-2.3,37.1
	c-3.1,7-1.7,8.9,6.2,9.5c4.8,0.4,8.4,2.5,12.2,5.3c7,5.2,13.6,11.3,22.4,13.8c6.3,1.7,7,8.3,10,12.8c1.6,2.4,2.2,5.4,3.3,8.2
	c1.3,3.3,2.9,5.8,6.9,6.9c2.8,0.7,4.9,3.9,7.2,6.1c1.5,1.4,2.8,3,5.7,3.9c-0.6-2.1-0.7-4.4-1.8-6.2c-2.1-3.6-2.5-6.9-0.6-10.7
	c1.8-3.6,1.5-7.2,0-10.9c-1.6-4-2.7-8.1-4.3-12.1c-1.5-3.7,1-6.8,1.2-10c0.6-8.5,7.9-12,12.4-17.4c3.6-4.3,9.2-2.2,13.4,0.4
	c5.7,3.5,11.2,7.3,16.2,11.5c2.3,1.9,3.7,5.2,5.2,7.9c1,1.9,1.3,4.1,2.2,6c3.4,7.3,3.3,7.8-2.9,13.6c-5.4,5-6.5,15.3-1.9,21.2
	c1.1,1.4,2.8,2.7,4.4,3.1c3.3,0.8,6.9,1.7,10.3,1.3c11.8-1.6,21.6,3.6,30.8,9.5c4.5,2.9,7.9,7.8,10.8,12.5c1.7,2.6,3.2,4.6,5.9,6.2
	c2.8,1.6,5.3,3.6,7.9,5.6c5.1,3.9,7.7,4.5,13,0.9c3.4-2.3,6.8-3,10.6-2.7c7.5,0.5,14.9,1.1,22.3,2.1c5,0.7,8.3,3.8,9.1,8.9
	c1.2,8.5,2.1,17,3.3,25.5c1,7.4,2.7,14.8,3.4,22.2c0.6,6.6,0.3,13.3,0.5,20c0.1,2.6,0.2,5.2,0.8,7.6c1.7,6.9,2.5,13.2-1.2,20.1
	c-3.4,6.4-6.3,13.5-4.6,23.2c2.3-2.3,4-3.2,4.4-4.5c1.2-4.1,3.6-6.9,7.3-9.2c1.8-1.1,3-3.5,4-5.6c0.8-1.7,1-3.6,1.2-5.5
	c0.7-5.9,3.5-10,9.6-11.3c1-0.2,2.1-0.6,3-1.1c4.1-2.2,5.2-7,1.4-9.8c-5.6-4.2-7.8-10.5-11.7-15.8c-0.8-1.1-1.1-2.7-2-3.5
	c-5.5-4.5-4.3-9.8-1.8-15.2c0.9-1.9,2.2-3.8,2.7-5.8c1.3-5,4.4-7.4,9.5-8.5c4.8-1,8.9-3.6,12-7.7c4-5.2,10.1-6,15.9-6.2
	c2.3-0.1,5.3,2.4,7,4.6c8.1,10.6,15.2,21.9,21.7,33.5c2.8,5,4.7,10.7,6.5,16.2c0.7,2.2,0.9,4.9,0.2,7c-1.9,5.6-1.4,9.6,4.5,12.7
	c3.2,1.7,5.8,4.7,8.4,7.4c3.2,3.4,5.1,7.6,4.6,12.4c-1.8,16.1,1.9,31.4,5.2,47c1.3,6.2,0.6,12.7,0.8,19.1c0.1,3.5,0.3,7,0.2,10.5
	c-0.5,11.4,4.8,20.7,11,29.5c7.1,10.1,10.1,21,7.7,33.1c-1.9,9.5-8.6,15.4-17.3,18.6c-6.8,2.5-8.7,3.6-9.1,10
	c-0.8,12.1-1.2,24.1-2.1,36.2c-0.7,9.3-2,18.6-2.9,27.9c-0.3,2.9-0.3,5.8-0.1,8.7c0.3,5.3,1.1,10.6,1.3,16
	c0.2,5.3-1.2,10.7,1.4,15.8c0.2,0.4,0.3,1.1,0.2,1.6c-1.4,6.7,0.6,13.3,0.7,19.9c0.1,6.8,2.1,13.9-2.3,20.4
	c-0.9,1.3-0.1,3.7-0.1,5.5c-0.1,6-2,8.5-6.9,9c-6.1,0.7-11.6-2.4-12.5-7.4c-2.1-11.3-2.8-23-6.3-33.9s-2-21.9-4-32.5
	c-2.9-15.7-2.3-32.1-10.3-46.9c-3.1-5.6-2.8-13-4.3-19.5c-0.5-2.1-1.7-4.1-3.4-5.9c-4.2,6.2-5.3,12.6-2,18.8
	c5.4,10.1,5.4,20.8,5.4,31.9c0,11.5,1.2,23.1,1.5,34.6c0.1,4.2-0.7,8.5-1,12.7c-0.4,5.6-0.6,11.3-1,16.9c-0.4,5.1-0.9,10.1-1.4,15.1
	c-0.6,6.3-3.2,10.8-10.5,10.6c-1,0-2,0.5-2.9,0.8c-6.6-3.8-8.7-10.2-11.1-16.5c-1.8-4.7-3.9-9.4-5.4-14.2c-1.2-4.1-1.4-8.4-2.7-12.5
	c-2.5-8-1.4-15.5,0.3-23.5c1.7-8,1-16.6,1.4-24.8c0.2-5.1,0.2-10.2,1.1-15.2c1.1-6.4,0.3-12.2-2.6-17.9c-1-1.9-2-4.1-1.9-6.1
	c0.4-6.3-2.3-12.1-3-18.1c-2-15.6-3.1-31.4-4.8-47.1c-0.7-6.1-2.3-12.1-3.2-18.1c-0.8-5.8-1.1-11.6-1.8-17.4
	c-1.2-9.9,1.7-19.1,4.4-28.4c0.7-2.4,2.9-4.4,4.6-6.4c3.4-4.2,3.4-5.4-0.7-9.3c-2.5-2.4-5.4-4.5-7.6-7.1c-4.1-4.7-6.3-10.4-7.8-16.5
	c-0.4-1.7-1.1-3.4-1.7-5.3c-0.9,0.7-1.6,1-1.6,1.4c-1.8,11.6-3.5,23.2-5.3,34.8c-1.4,9-3.7,18-4.1,27c-0.7,17.4-1.1,34.8,0.9,52.2
	c1,8.5,1.1,17.1,1.4,25.7c0.1,1.8-0.6,3.7-1.3,5.4c-3.1,7.1-2.2,14.1-0.1,21.2c3.5,11.6,5.2,23.2,3.8,35.6c-1.4,13-1,26.3-1.1,39.4
	c-0.1,11.8-0.8,23.5-3.6,35c-0.5,2-1.9,3.8-3,5.5c-1,1.5-2.6,2.7-3.3,4.4c-2.5,6-4.2,7.4-10.5,6.6c-5.6-0.7-11.2-1.6-16.5-3.2
	c-5.9-1.8-13.1-1.1-16.9-7.9c-0.4-0.8-2.9-0.6-4.5-0.6c-6.7,0.2-13.3,0.6-20,0.6c-2.1,0-4.3-0.7-6.1-1.6c-3.8-1.9-4.8-5.6-4.6-9.6
	c0.2-3.7,2.4-5.9,6-6.6c4.1-0.8,8.4-1.2,12.4-2.2c8.3-2,16.7-4.1,24.9-6.5c1.4-0.4,3.2-2.7,3.1-4.1c-0.2-6.3-1.1-12.6-1.5-18.9
	c-0.4-6.4-0.5-12.8-1-19.2c-0.3-3.7-0.7-7.5-1.4-11.1c-1.4-7.6-5-14.7-4.2-22.8c0.2-2.2-1.4-4.5-2.2-6.8c-3.6-10.6-5.8-21.1-1.2-32
	c0.6-1.4,0.8-3.3,0.4-4.7c-3-9.4-6.2-18.7-9.4-28c-0.4-1.3-1.3-2.6-1.2-3.8c0.5-7.2-5.4-11-8.1-18c-3.5,5.9-6.9,10.5-6.4,16.3
	c1.2,13.9,2.4,27.8,4.6,41.5c0.5,3.4,4,6.8,6.9,9.4c2.2,2,3.8,3.7,3.6,6.6c-0.8,8.9-2,17.4-8.6,24.4c-2.8,3-5.8,4.9-9.5,5.4
	c-10.1,1.3-20.1,2.5-30.3,0.9c-5.7-0.9-8-4.6-5-9.3c1.6-2.5,4.4-4.8,7.2-6c10.6-4.5,13.3-10.1,9.6-20.8c-0.8-2.2-1.1-4.7-1.3-7
	c-0.7-5.5-0.8-10.8-2.8-16.4c-2.1-5.8-0.8-12.7-1.2-19.1c-0.2-3.4-0.9-6.8-1.3-10.2c-0.4-4.2-0.7-8.5-0.9-12.8
	c-0.1-2.9,0.4-5.9,0.1-8.8c-0.7-6.5-0.8-6.4-7.5-7.7c-2.5-0.5-4.8-1.5-7.8-2.5c-2.7,17.4-5.4,34.1-0.6,50.7
	c2.5,8.7,6.8,16.9,9.3,25.6c1.2,4.2,1.7,9.6,0,13.3c-3.2,6.9-7.9,13.1-12.5,19.1c-1.6,2.1-4.9,3.2-7.6,4.3c-3.8,1.6-8.4-0.8-10.5-5
	c-2.1-4.1-4-8.1-6.3-12.1c-2.7-4.5-1.5-7.8,3.6-8.7c2.8-0.5,6.6,0.9,7.6-2.8c1-3.5,1.7-7.5,1-11c-2.2-12.3-4.4-24.6-8.2-36.7
	c-4-13-4.7-26.8-5.2-40.5c-0.3-9.1-0.6-18.2-1.1-27.3c-0.1-2-0.8-4.8-2.3-5.8c-6.1-4.2-6-11.2-7.8-17.1c-2.4-8.1-2-17.2-5.1-24.9
	c-4.6-11.4-1.5-22.9-3.1-34.2c-0.9-6-0.6-12.2-1-18.3c-0.1-1.8-0.9-3.5-1.6-5.7c-7.4,4.2-12.7-2.1-19-2.9
	c-0.2,7.1,2.3,23.2,4.1,28.1c0.6,1.7,0.6,3.6,0.7,5.4c0.4,9.1,0.8,18.2,1.2,27.3c0.1,2.4,0.1,4.8,0.3,7.2c0.6,6.4,1.2,12.7,1.8,19.1
	c0.8,8.7,1.8,17.5,2.5,26.2c0.5,6.7,0.7,13.4,0.8,20.1c0.1,5.8-1.4,11.6,0.6,17.4c1.3,3.7,2,7.7,3.2,11.4c0.9,2.9,0.5,5.2-2.1,7
	c-3.9,2.7-7.8,4.8-12.6,1.7c-5.8-3.7-11.1-1.6-15.5,2.1c-3.9,3.3-8.1,4.6-13,5.5c-3.7,0.6-7.2,3.1-10.4,5.3
	c-3.3,2.2-5.8,5.7-9.2,7.5c-2.2,1.2-6.2,1.7-8.1,0.4c-3.8-2.4-7.6-5.1-8.7-10.6c-1.7-8.3-5.3-16.3-4.7-25.1c0.1-1-0.1-2.3-0.6-3.1
	c-5.4-7.5-6.8-16.4-8.1-25.1c-1.9-12.9-6.4-25.2-5.6-38.7c0.5-8.6-2.1-17.4-3-26.2c-0.7-6-2.9-12.5,3.6-16.1c-0.5-6-1-11.8-1.6-18.6
	c-1-0.9-2.8-3.2-5.1-4.2c-6.2-2.9-7.7-8.3-8.7-14.3c-0.4-2.7-0.7-5.4-1.5-7.9c-0.5-1.6-1.8-3.7-3.1-4.1c-4.7-1.3-6.6-5.2-9.2-8.4
	c-0.9-1.1-2.1-2-3.1-3c-0.8,1.4-2.1,2.8-2.5,4.3c-2.1,8-4.5,16-6,24.2c-1.9,10.6-2,21.3-0.4,32.1c0.6,4,1.1,8,1.2,12
	c0.2,5.7,1,10.7,3.9,16c2.8,5.1,2.7,11.8,3.6,17.9c2,12.9,3.9,25.8,5.6,38.7c0.3,2.3-0.3,4.7-0.4,7.1c0,2.1-0.2,4.3,0.4,6.2
	c2.2,7.2-0.8,13-7.5,16.9c-12.1,7-23.6,4.1-35.3-0.8c-3-1.2-6-2.2-9-3.4c-3.4-1.4-7-2.8-10.2-4.7c-5.1-3-5.4-7.8-1.4-12.5
	c1.3-1.6,3.2-3.6,3.2-5.4c0-8.5,6.5-11.4,12.5-14c4.3-1.9,5.8-4.1,5.6-8.4c-0.3-6.9-0.1-13.9-0.9-20.8c-0.5-4.4-2.8-8.5-4.1-12.8
	c-1.2-4-2.5-8.1-2.9-12.2c-1.2-14.1-2.2-28.3-3-42.5c-0.5-9.3-0.4-18.7-0.9-28.1c-0.3-5.6-1.5-11.1-2-16.6c-0.8-9-1.7-18-2-27
	c-0.3-12.4-5.2-23.3-9.5-35c-5,1.6-7.8,4-9.1,9.2c-2.6,10.3-6.5,20.4-9.5,30.7c-1.2,4-1.7,8.3-2.1,12.5c-1.5,14.4-3.1,29-0.7,43.3
	c2.4,14.4,2.3,28.8,2.5,43.3c0.1,6.1,1.3,12.3,2.1,18.4c1.2,9.8,2.6,19.6,3.7,29.4c0.5,5.1-2.2,8.4-7,8.7c-1.9,0.1-4.7-0.6-5.7-1.9
	c-7.5-9.6-14.5-19.5-11.5-32.8c0.2-1,0.3-2.2,0-3.1c-4.2-9.8-2.4-20.2-2.9-30.3c-0.7-14.4-1.9-28.8-4.2-43.1
	c-0.6-3.9-0.8-8.3,0.4-12c2.8-8.8,2.5-17.5,1.2-26.3c-1.3-9.2-3.6-18.3-5.4-27.2c-8.6-0.5-13.3,2.8-14.5,9.8
	c-3.1,18.8-6.2,37.5-9.3,56.3c-1.2,7.3-2.8,14.7-3.2,22.1c-0.4,7.7,0.2,15.5,0.7,23.2c0.6,8.5,1.7,17,2.2,25.5
	c0.1,1.6-0.9,4.3-2.1,4.9c-4.6,2-4.7,6.2-5.8,9.9c-0.9,3.1-1.4,6.3-2.7,9.3c-1,2.3-2.8,4.4-4.5,6.2c-2.5,2.7-5.9,4.7-8,7.6
	c-7.1,10.3-16.4,14.8-28.9,12.2c-1.8-0.4-4.2,0.3-5.9,1.2c-5.6,3.2-11,6.5-16.4,10.1c-2.4,1.6-5,3.3-7.2,1.1
	c-1.4-1.4-1.9-4.3-1.9-6.4c0-2.3,0.7-5,2-6.9c4.1-5.8,6.5-12.5,12-17.8c6-5.9,9.9-13.9,14-21.4c1.3-2.3,0.9-5.8,0.4-8.7
	c-2-11.3-4.3-22.4-8.1-33.4c-3.3-9.6-5.3-19.6-8-29.3c-1.8-6.4-3.7-12.8-5.6-19.2c-1.4-4.5-0.7-8.8,2.5-12c3.7-3.7,5-8.1,5.3-13.1
	c0.5-5.9,1.3-11.8,1.4-17.7c0-3.1-1-6.2-2.1-9.2c-6.5-18.3-14-36.4-11.6-56.5c0.6-5,0.1-5.9-3.4-10.5c-1.7,1-3.5,2.1-5.3,2.9
	c-4.8,2.1-6,5.7-5.2,10.5c0.6,3.4,1.2,6.9,1.5,10.4c0.6,6.9,1,13.9,1.3,20.8c0.1,1.6-0.1,3.6-1,4.6c-5.4,6.5-4.4,14.8-6.6,22.1
	c-0.4,1.4-0.5,3.4,0.2,4.7c4.4,8.3,2.8,17.4,3.4,26.1c0.8,10.4,0.2,20.9,0.4,31.4c0.2,7.2,0.3,14.5,1.3,21.7
	c0.4,2.9,2.9,5.6,4.5,8.3c1.3,2.3,3,4.3,4.2,6.7c1.9,3.8,0.3,7-2.8,9.1c-15.1,9.7-26.7,8.6-41.8-0.8c-2-1.3-3.8-2.9-5.9-4
	c-5.2-2.8-7-7.7-4.8-13.3c1.5-3.9,6.5-6.3,11.6-4.4c4.4,1.6,8.4,4.3,13.1,6.8c0.4-1.1,1.2-2.5,1.2-3.8c0.2-7,0.2-13.9,0.2-20.9
	c0-2.9-0.1-5.9,0-8.8c0.2-10.7,0-21.4,0.9-32.1c0.3-3.5-0.5-6.2-1.7-9.1c-0.9-2.2-2.4-4.3-2.7-6.6c-1.2-8.5-2.3-16.9-2.8-25.5
	c-0.3-5-2.4-7.7-6.9-9.6c-8.4-3.7-16.5-4.7-24.8,1.6c4,8.2-2.3,15.4-3.1,23.4c-2,20.2-3.4,40.1,4.8,59.4c0.6,1.4,1.4,2.9,2.4,4.1
	c5.7,7.1,5.9,9.5,1,17.2c-0.8,1.3-2.2,2.5-2.6,4c-0.8,3.2-0.6,6,1.7,9c4.6,6,1.8,14.5-5.2,16.9c-9.7,3.3-19,2.2-28-2.3
	c-5.8-2.9-6.8-9.2-2.4-14.1c3-3.3,6.5-6.2,9.1-9.8c2.5-3.4,4-7.5,6.2-11.8c-0.8-2.2-1.5-5.1-2.8-7.8c-4.7-9.9-6-20.4-6.5-31.1
	c-0.1-2.7-0.8-5.3-0.8-8c0-2.8,0.4-5.6,0.6-8.5c0.4-2.3,0.8-4.5,1.2-6.7C620.3,894.1,621.7,896.4,622.6,898.8z M680.7,607.8
	c2.9-2.4,5.1-4.8,7.7-6.5c9.6-6.2,19.3-12.3,29-18.4c6.5-4.1,12.8-8.6,19.5-12.3c4.8-2.6,9.8-4.8,14.2-8.3
	c8.3-6.5,17.3-12.1,26.1-18c2-1.3,3.8-2.9,5.9-4c5.3-2.8,9.2-6.5,12.3-11.9c2.8-4.7,6.9-9.1,11.4-12.3c8.5-6.1,18.2-10.5,27-16.2
	c2.6-1.7,4.2-3.4,6-5.8c3.8-5.1,7.7-11,13-13.8c9.6-5.2,16.9-13.4,27.1-17.9c7.8-3.5,14-10.5,21.1-15.6
	c10.7-7.6,20.9-16.1,32.5-21.9c8.4-4.2,10.2-9.9,10.1-17.8c0-2.4-0.4-4.8-0.6-7.2c-0.4-4.3-1.3-8.6-1.1-12.8
	c0.3-9-4.2-16.6-5.8-25.9c-4.4,1.9-8.5,2.6-11.1,5c-8.3,7.7-20.4,9.4-27.8,18.3c-9.7,3.3-17.8,9.4-26.3,14.8
	c-7.6,4.9-15.4,9.4-23,14.5c-5.3,3.5-10.2,7.8-15.5,11.4c-10.1,6.8-20.5,13.3-30.7,20.1c-5.3,3.5-9.8,8.8-15.6,11
	c-8.7,3.2-15.5,9.2-22.5,14.3c-8,5.8-17.5,8.9-25,15.5c-1.8,1.6-5.6,1.2-7.2,3c-10.1,10.4-23.6,14.7-36.5,18.9
	c-8.4,2.8-14.8,8.6-22.8,11.4c-0.8,0.3-1.5,1.6-1.8,2.5c-1,4.1-2.6,8.3-2.5,12.5c0.4,11,1.9,21.9,2.3,32.8
	C670.8,581.1,673.7,594.2,680.7,607.8z M665.7,463c11.6-5.7,21.7-9.9,31-15.4c7.7-4.6,14.7-10.4,23.6-12.8c1.5-0.4,2.8-1.6,4.1-2.4
	c5.7-3.5,11.3-7,17-10.4c3.6-2.2,7.4-4.2,11-6.3c4.6-2.8,9-5.7,13.6-8.5c5-3,10.2-5.7,15.1-9c7-4.7,13.8-9.7,20.6-14.6
	c0.4-0.3,1-0.5,1.4-0.7c6.7-3.5,14.8-4.3,20.1-10.5c0.9-1.1,3-1.2,4.4-1.8c1.5-0.7,3.4-1.2,4.1-2.3c4.1-6.4,10.8-8.2,17.3-10.7
	c9.8-3.8,19.5-7.5,26.8-15.5c1-1.1,2.8-1.6,4.1-2.5c2.9-2.2,6.8-4,8.4-7c2.6-5,6.6-7.4,11.1-9.6c4.3-2.1,7.9-5.1,11.4-8.4
	c2.4-2.3,5.7-4.1,8.9-5.1c9.7-3,9.7-2.8,9.5-12.9c-0.1-6.4-1.1-12.6-3.8-19.3c-5.2,1.2-10.2,2.2-15,3.5c-2.5,0.7-5.7,1.3-7.2,3
	c-6.9,8.4-16.9,12.2-26,16.8c-13.8,6.8-28.3,12.6-42.8,17.9c-11.7,4.2-21.6,11.3-32.5,16.8c-9,4.6-18.3,9-29,5.3
	c-1.4-0.5-3.5,0.6-5,1.3c-2.6,1.3-4.8,3.6-7.6,4.4c-7.6,2.3-14.9,4.7-22,8.9c-10.2,6.1-21.2,10.8-31.4,16.9c-4.8,2.8-9.9,5-15,7.2
	c-3.1,1.3-6.6,1.8-9.6,3.2c-5.1,2.3-10,5.2-15,7.7c-8.8,4.3-11.2,9.5-9.6,19.5c1.6,10,2.7,20.1,4.1,30.1
	C662.8,447,664.2,454.1,665.7,463z M525.6,998.7c-4.1-4.5-8.2-5-12-1.8c-4.4,3.8-9.5,7.5-11.9,12.5c-4.3,8.9-13,10.8-20.2,15.2
	c-1.7,1-3.5,2.2-4.7,3.7c-5.4,6.2-13,5.9-17.3-1.1c-1.3-2.2-2-4.9-2.6-7.4c-1.2-5.5-2.3-11-2.9-16.6c-0.7-7.2-0.7-14.4-1-21.5
	c-0.1-2.9-0.2-5.8-0.4-8.7c-0.6-7.7-2.6-15.6-1.5-23.1c1.7-12-1.6-23.3-2.4-35c-0.3-4.8-1.4-9.5-1.7-14.3c-0.4-9.1-0.2-18.3-3.4-27
	c-0.6-1.5-1.7-3.5-1.1-4.6c4.4-8.9-2.2-17-1.6-25.6c0.2-2.4-0.7-4.8-0.9-7.2c-0.5-4.5-0.7-9-1.2-13.5c-0.9-7.8,0.7-15.8-2.7-23.6
	c-4.2-9.7-5.7-20-3.8-30.7c0.3-1.5,0.2-3.4-0.3-4.8c-4.2-10.4-0.8-21.7-3.6-32.3c-1.8-7.2-1.4-15-2.9-22.3
	c-1.5-7.5,1.7-15.7-3.6-22.5c-0.3-0.3-0.1-1-0.1-1.6c0-6.4,0.2-12.8,0.1-19.2c-0.2-6.4,0.7-12.9-3.7-18.6c-1-1.3-1.1-3.6-1.3-5.4
	c-1.1-12.3-2-24.6-3.3-36.8c-1.4-13.6-2.2-27.3-7.8-40.2c-0.7-1.7-0.7-3.7-1-5.5c-1.8-11.6-4.2-23.2-2.8-35.1c0.2-1.3-0.1-2.7-0.5-4
	c-3.3-10.4-3.3-21.7-8.6-31.6c-0.5-0.9-0.4-2.1-0.4-3.2c-0.2-9.9-0.3-19.9-0.6-29.8c-0.2-5.3,2.1-8.7,7.1-10.2
	c1.8-0.5,3.7-0.8,5.4-1.5c2.9-1.1,5.8-2.4,8.6-3.8c2.6-1.2,5-2.7,7.5-4.1c1.5-0.9,3.1-1.8,4.5-2.8c8.1-5.4,15.8-11.6,24.3-16.1
	c8.9-4.8,18.6-8,28-11.9c1.4-0.6,3-1.3,4-2.4c4.4-5.1,10.1-7.9,16.3-9.9c14.6-4.7,26.2-14.8,39.2-22.5c1.4-0.8,1.9-3.2,3.6-6.3
	c-6.3,2.1-10.8,3.5-15.2,5.1c-8.8,3.2-17.8,5.8-26.2,9.9c-9.1,4.3-17.5,10.1-26.3,15c-3,1.7-6.5,2.6-9.3,4.5
	c-11.1,7.5-21.7,15.6-35.6,17.2c-2.9,0.3-5.7,1.4-8.4,2.6c-6.3,2.7-13.5,4.6-18.5,8.9c-5.2,4.5-10.8,7.8-16.7,11
	c-5,2.6-7.4,6.1-6.5,12.2c2.2,15.4,2.8,30.9,6.2,46.2c1.5,6.7,0.9,13.9,2.1,20.7c2,10.8,4.3,21.5,2.8,32.7c-0.2,1.8,0.2,3.8,0.6,5.6
	c1.4,7.3,0.4,15.1,4.5,21.9c0.5,0.8,0.2,2.1,0.3,3.2c1.3,11.1,1,22.4,4.3,33.4c1.8,5.8,3.2,12.4,2.2,18.2
	c-1.3,8.5,1.8,16.4,1.5,24.7c-0.1,4.2,0.5,8.7,1.8,12.7c3.8,12.1,4.4,24.7,6,37.2c0.8,6.4,1.4,12.8,2.4,19.1c0.6,3.9,2,7.7,2.7,11.6
	c0.7,4,0.5,8.1,1.4,12c3.9,15.4,6.1,30.9,4.9,46.8c-0.2,2.9,0.8,5.8,1.2,8.8c0.3,2.4,0.6,4.8,0.9,7.2c1,10.1,1.9,20.2,3.1,30.2
	c1.1,8.4,4.1,16.7,1.7,25.4c-0.3,1.2,0.5,3.2,1.4,4.3c3.6,4.5,3.6,9.7,2.1,14.6c-1.4,4.6-1.5,8.8,0.1,13.3c1,2.8,1.3,5.8,1.7,8.7
	c1.5,13.1,2.9,26.1,4.3,39.2c0.4,3.7,1,7.4,0.7,11.1c-0.7,8.5,0.6,16.8,5.7,23.4c3.3,4.2,3.2,7.3,1.3,11.6c-2.2,4.9-4,10-1.3,15.5
	c0.7,1.3,0.9,3.5,0.2,4.7c-3.4,5.5-2.1,11.6-2.2,17.3c-0.2,6.4,0.1,13.1,2.1,19c2.1,6.1,2.9,11.8,2.5,18.1c-0.2,2.2,0.5,4.4,0.9,7.3
	c4.3-2.7,9.2-4.1,10.5-7c2.2-4.8,5.6-7.2,9.2-10.5c2.8-2.6,6.6-3.8,8.7-6.2c5.1-5.6,9.1-12.3,13.1-18.8c3.9-6.3,12.2-8.2,14.9-15.7
	c0.4-1,2-1.6,3.1-2.3c0.4-0.3,1.2-0.2,1.5-0.5C514.9,1009.9,522.6,1006.9,525.6,998.7z M792.2,737.1c0.7-1.6,2.1-3.5,2-5.3
	c-0.2-3.9-0.9-7.9-2.1-11.7c-1.8-5.9-4.3-11.5-6.1-17.3c-3.7-12.2,1.8-24.2,13.6-29.5c6.3-2.8,12.8-5.1,19.7-7.8
	c-0.6-9.2-9.7-15.7-7.5-26.6c4.6-3.4,9.8-7.5,15.2-11.3c4.1-2.9,8.6-5.4,12.7-8.3c5.4-3.8,10.8-7.7,15.8-12c4.7-4.2,8.9-9,13.3-13.5
	c2-2.1,4.1-4.1,6.3-6c10.1-9,20.5-17.8,30.4-27c7.8-7.2,15-15.2,22.7-22.5c6.5-6.2,10.1-14.8,18.1-20c3.5-2.3,6.4-7.7,6.7-11.9
	c0.4-5.9-1.9-11.9-3.1-17.8c-4.8-3.3-9.9-5.7-14.2,0c-3.8,5-9.2,8-13.6,12c-10.8,9.7-24.3,16.7-31.5,30.2c-0.2,0.4-0.8,0.7-1.2,1
	c-5.2,3.7-10.6,7.2-15.7,11c-4.2,3.2-7.9,7.1-12.2,10.1c-4.6,3.2-9.9,5.4-12.3,11c-0.5,1.1-1.9,1.8-3,2.6c-11.6,9-23.2,18-34.7,27.1
	c-4,3.1-7.3,7-11.3,10.1c-5.2,4.1-10.7,7.8-16.2,11.5c-4.6,3.1-9.5,5.8-14.2,8.8c-1.1,0.7-2,2.1-3.2,2.4c-9,2.4-13,10.9-19.4,16.3
	c-2.3,2-1.9,4.8,0.5,6.2c5.5,3.2,11.2,6,17,8.8c2.9,1.4,6,2.3,8.8,3.8c5.6,3.1,6.6,5.6,5.8,11.7c-0.7,5.3-0.9,10.7-1.5,16
	c-1,9.4-1.9,18.7-10.9,24.8c-4,2.7-3.8,4.9-0.3,8.6c1.6,1.7,3.5,3.4,5.6,4.5C778.4,730.3,784.7,733.3,792.2,737.1z M651.9,615.6
	c1-7.6,2.8-14.7,2.5-21.7c-0.3-8.7-2.3-17.4-3.5-26.1c-0.4-2.7-1.1-5.4-0.8-8c1-9.4-2-17.8-5-26.5c-1.3-3.7-3.3-8.8-1.8-11.5
	c4.3-8,2.7-16.3,2.9-24.4c0.2-9-1.8-18.2-1.3-27.2c0.9-14.7-2.8-28.7-5.4-42.8c-1.3-7.1-3.3-14.1-4-21.2c-1.3-12-1.7-24.1-2.8-36.1
	c-0.5-4.9-2.5-9.8-2.4-14.7c0.2-7.1,1.1-14-0.6-21.1c-1.4-5.7-1-6.3-7.2-5.5c-9,1.2-18,3-26.8,4.9c-1.5,0.3-2.7,2.5-4,3.8
	c0.2,0.6,0.5,1.2,0.8,1.7c2.8,0.2,5.6,0.5,8.4,0.6c8.6,0.5,19.6,9.8,22.8,17.8c4.2,10.8,2.5,21.8,2.2,32.6
	c-0.5,17.9-2.3,35.7-3.5,53.5c-0.2,2.9-0.8,6.1,0.1,8.8c2.6,8.3,2.4,16.2,1.7,25c-0.9,12.3,1.7,24.9,3.5,37.3
	c1.5,10.3,3.9,20.4,5.7,30.7c0.8,4.5,1,9-1.5,13.3c-4.3,7.6-3.4,16-0.8,23.5c2,6,3,11.8,3.8,17.9c0.4,2.9,0.5,5.9,1.1,8.8
	c1.2,5.6,3.3,7.3,8.9,7.2C646.8,616.5,648.6,616.1,651.9,615.6z M636.9,816.1c0.6-6.6,1.1-12.9,1.8-19.2c0.5-4.3-0.3-7.9-3.7-10.9
	c-2.5-2.2-3.7-4.9-3.6-8.5c0.1-10.4,0.4-20.8-0.5-31.1c-1.1-12.5-3.2-25-5.2-37.4c-0.3-1.7-2.3-4.1-3.8-4.3
	c-6.5-1.1-13.8,4.3-14.4,11c-1.1,11.2-2.9,22.5-1.6,33.5c1.5,13-0.9,26.2,2.8,39.1c2.9,10,4.3,20.3,3.3,30.8
	c-0.2,2.1,0.4,4.4,1.2,6.3c2,4.3,4.8,8,10.8,9.3c0.8-2.9,1.9-5.4,2-7.9C626.1,820,628.6,815.9,636.9,816.1z M1390.8,330
	c-5.1,0-9.6,0-14.1,0c-3.1,0-4,2.1-4.3,4.8c-0.5,4.5-0.9,9-1.6,13.4c-0.7,4.5-0.2,8.9,3,12.1c4.5,4.5,3.6,8.8,1.6,13.9
	c-1.7,4.5-2.9,9.3-3.2,14c-0.8,16.2-1.1,32.4-1.4,48.5c-0.1,2.4,0.4,4.8,0.9,7.1c2.3,10.4,4.7,20.8,7.1,31.2
	c0.4,1.5,1.2,2.9,2.1,5.1c1.1-1.6,1.8-2.2,1.9-2.9c2.4-12.6,6.4-25,5.5-38.1c-0.2-3.5,0.2-7,0.7-10.4c1.2-9.5,2.7-19,3.9-28.5
	c0.3-2.6-0.1-5.3-0.1-8c0.3-16.2-3.9-32.4-1.1-48.7C1392.5,339.6,1391.3,335.2,1390.8,330z M1139.3,389.3c3.6,0,6.2-0.3,8.7,0.1
	c5.6,0.7,11,1.8,16.6-0.3c1.2-0.5,2.9,0.6,4.4,1c5.6,1.3,11.2,2.7,16.9,3.7c1,0.2,2.8-0.8,3.2-1.8c1.2-2.3,2.6-5,2.6-7.5
	c0-10.9,2.4-21.9-0.6-32.8c-0.5-1.9-1-4.7-2.2-5.3c-2.8-1.2-6.3-1.9-9,0.9c-1.7,1.7-3,4.7-4.9,5.1c-5.8,1.2-7,6.2-8.9,9.5
	c-9.6,3.5-18.2,6.7-20.3,17.7c-0.3,1.9-2.3,3.5-3.5,5.2C1141.6,386,1140.8,387.2,1139.3,389.3z M1211,951.9c0.6-0.3,1.3-0.6,1.9-0.9
	c-0.3-1.8,0-4.2-1-5.4c-3.5-4-7.3-7.8-11.5-11.1c-3.7-3-6.5-2.5-10.9,0.3c-1.9,1.3-4.1,2.3-6.3,3.1c-7,2.4-13.9,5.1-21.8,4
	c-2.5-0.3-6.7,0.7-6.6,4.4c0.1,5.1,1.3,10.2,2.1,15.8c5.9-1.1,10.8-2.1,15.8-2.9c5.1-0.8,9.4-2.9,14.1-5.2
	C1194.1,950.3,1202.3,946.5,1211,951.9z M1470.6,479.1c1.1-3.7,2.3-6.9,3.1-10.1c2.2-9.4,3.5-18.9,3.4-28.5
	c-0.2-13.6-0.3-27.3-0.6-40.9c0-1.5-1.1-2.9-2.1-5.4C1462.2,430.5,1460.4,467.7,1470.6,479.1z M1197.4,282.6
	c-6.1,2.8-11,6.8-11.5,14.5c-0.1,1.6-1,3.1-1.3,4.6c-2.1,11-0.2,20.9,8.1,30.2c0.8-1.3,1.3-1.9,1.6-2.6c2.8-7.1,2.2-15,5.8-22.1
	c1.3-2.5,1.1-5.9,3.7-8.2c2.2-2,2.9-4.4,0.8-7.1C1202.2,288.9,1199.8,285.8,1197.4,282.6z M1245.8,320.7c8.1-2.7,4.6-11.7,9.8-15.9
	c5.1-4.1,6.6-10.4,8.4-17.1c-9.2-0.3-8.8-10.2-15.1-13.5c-0.8,0.9-1.9,1.6-2,2.4c-0.8,6.1-1.9,12.3-2,18.4
	C1244.8,303.3,1245.5,311.7,1245.8,320.7z M738.1,714.6c-2.7-3.6-4.3-6.2-6.4-8.5c-1.6-1.8-3.5-3.3-5.4-4.7
	c-4.6-3.3-7.3-7.5-7.3-13.4c0-4-0.5-8-1.2-12c-0.7-4.4-4.2-6.6-7.2-5c-6.3,3.2-7.8,10.6-2.3,15c6.9,5.5,10.2,12.5,12.2,20.7
	c0.9,3.8,2.7,7.3,4,10.8C729,716.5,732.5,715.8,738.1,714.6z M1484.5,506.6c-1.2,6.8-7.9,11.5-6.1,19.3c1.5,6.3-2.9,13.4,1.5,19.9
	c5.4-4.6,6.1-4.7,5.1-9.3c-1.6-7.8-0.9-15.4-0.1-23.1C1485.2,511.1,1484.7,508.8,1484.5,506.6z M851,87.1
	c3.5-11.3,5.1-21.6,3.4-32.2c-6.2-1.5-8.5-0.4-8.3,5.2C846.5,68.7,845.7,77.7,851,87.1z M904.5,64.8c4.5-3.6,7.6-6.1,10.8-8.6
	c-3.1-6.5-6.6-12.6,1.3-18.1c-5.6,0.1-9.4,2.8-13.1,5.8c-0.7,0.5-1.1,2-1,2.9C903.1,52.3,903.8,57.8,904.5,64.8z M704.5,741.8
	c-0.8-0.3-1.7-0.6-2.5-0.9c-3.2,4.4-6.7,8.5-9.5,13.2c-0.9,1.5,0.3,4.2,0.6,7.2c4.3-1.8,7.3-3.1,10.3-4.4
	C703.9,751.5,704.2,746.7,704.5,741.8z M778,94.4c0-8.6,0-15.9,0-24.2c-7,4.2-4.2,10.3-5.5,15C771.5,88.7,773.3,91.3,778,94.4z
	 M1100.5,809.1c0.7-2.6,1.5-3.9,1.2-5.1c-0.4-1.9-1.4-3.8-2.4-5.5c-0.2-0.3-2.6,0.2-2.7,0.6c-0.5,2.2-1,4.5-0.6,6.6
	C1096.2,806.8,1098.2,807.5,1100.5,809.1z M1097.3,111.5c8.7-7.8,8.7-7.8,2.8-11.2C1098.3,103.6,1094,106,1097.3,111.5z M876.3,80.1
	c2.8,1.3,5.4,1,6-1.8c0.7-3.5,2.8-7.6-1.8-11C879,71.8,877.7,75.6,876.3,80.1z M151.1,1212c-3.7,3.7-5.7,6.2-2.6,8.8
	c2.8,2.3,4.7-0.1,7.1-3.3C154.1,1215.7,152.7,1214,151.1,1212z M1178.3,502.7c1,0.4,2.4,1.4,2.8,1.1c1.6-1.4,3-3.1,4.3-4.9
	c0.1-0.2-1.1-1.8-1.9-2.1c-2.9-1-3.5,1.7-4.5,3.3C1178.5,500.7,1178.5,501.6,1178.3,502.7z M1339.6,446.4c-2.4,14.4-2.5,14.8,0,20.5
	C1339.6,459.2,1339.6,453.4,1339.6,446.4z M1102.2,53.4c-0.6,0-1.2,0-1.8-0.1c-0.6,4.4-1.9,8.8,1.8,13.1
	C1102.2,62.1,1102.2,57.7,1102.2,53.4z M1572.5,441.3c-2.4-3.6-5-4.2-8.8-3.3C1565.9,441.5,1567,445.7,1572.5,441.3z M868.8,809.5
	c1-0.2,1.9-0.4,2.9-0.6c-0.6-2.6-1.2-5.1-2-7.7c0,0-2,0.4-2,0.4C868,804.3,868.4,806.9,868.8,809.5z M507.8,217.7
	c-0.4-0.8-0.7-1.5-1.1-2.2c-1.3,0.7-2.6,1.4-3.9,2.1c0.5,0.8,1,1.7,1.5,2.5C505.5,219.3,506.7,218.5,507.8,217.7z M474.4,153.3
	c2.6-2.9,3.3-5.1,1.5-9C473.2,147.2,472.7,149.4,474.4,153.3z M826.3,83.6c-0.7,0.2-1.4,0.4-2.2,0.6c0.4,2.2,0.8,4.4,1.1,6.6
	c0.7-0.1,1.5-0.3,2.2-0.4C827.1,88,826.7,85.8,826.3,83.6z M845.6,192.2c0.5,3.7,1.8,6.2,6.3,2.9C849.1,193.9,847.3,193,845.6,192.2
	z M1054.3,34c-0.7,0.1-1.5,0.1-2.2,0.2c0.2,1.6,0.4,3.2,0.7,4.9c0.5,0,1-0.1,1.5-0.2C1054.3,37.3,1054.3,35.7,1054.3,34z
	 M301.9,284.4c-1.9-0.9-2.9-1.6-4-1.8c-0.3,0-1.3,1.7-1.1,2.3c0.2,0.7,1.5,1.3,2.3,1.3C299.7,286.4,300.4,285.4,301.9,284.4z
	 M77.5,700.9c0.7-1.5,1.5-2.5,1.4-3.2c-0.2-0.7-1.3-1.2-2-1.8c-0.5,0.7-1.4,1.5-1.4,2.2C75.5,698.9,76.4,699.6,77.5,700.9z
	 M596.4,191.3c0.5,0.1,0.9,0.2,1.4,0.3c0.2-1.1,0.5-2.2,0.6-3.3c0-0.1-0.8-0.4-1.3-0.6C596.8,188.9,596.6,190.1,596.4,191.3z
	 M702.8,161.1c0.4,0.6,0.8,1.2,1.1,1.8c1.1-0.7,2.2-1.3,3.2-2c-0.2-0.5-0.5-0.9-0.7-1.3C705.3,160.1,704.1,160.6,702.8,161.1z
	 M384.8,345.3c0.9,0.7,1.7,1.6,2,1.5c0.6-0.3,1.2-1,1.3-1.6c0.1-0.5-0.5-1.2-0.9-1.8C386.5,343.9,385.8,344.5,384.8,345.3z
	 M1156.9,586.1c-0.7,0.6-1.5,1.1-1.6,1.6c-0.1,0.5,1,1.5,1.2,1.5c0.8-0.3,1.4-1,2.1-1.6C1158.1,587.2,1157.6,586.7,1156.9,586.1z
	 M617.8,184.5c-0.7-0.4-1.2-0.9-1.9-1.1c-0.2-0.1-0.7,0.5-1,0.9c0.6,0.4,1.1,0.9,1.7,1.1C616.8,185.5,617.3,184.9,617.8,184.5z
	 M1245.9,332.2c0.2-1.3,0.6-2,0.4-2.5c-0.1-0.4-0.9-0.6-1.5-0.9c-0.1,0.5-0.5,1-0.4,1.3C1244.7,330.7,1245.2,331.2,1245.9,332.2z
	 M1476.3,302.8c-0.4,0-0.8-0.1-1.2-0.1c0,1.3,0,2.6,0,3.8c0.3,0,0.6,0,0.9,0.1C1476.1,305.4,1476.2,304.1,1476.3,302.8z
	 M540.3,288.8c-0.3-0.4-0.7-0.7-1-1c-0.3,0.3-0.9,0.7-0.9,1c0,0.3,0.5,0.9,0.9,0.9C539.7,289.6,540,289.1,540.3,288.8z M261.5,388.3
	c-0.8-0.8-1.1-1.4-1.7-1.7c-0.2-0.1-1.2,0.3-1.2,0.5c0,0.6,0.2,1.6,0.6,1.8C259.6,389.1,260.4,388.6,261.5,388.3z M795.8,145.9
	c-0.9-0.8-1.5-1.5-2.2-1.9c-0.2-0.1-1.4,1-1.3,1.5c0.2,0.8,0.9,1.5,1.4,2.2C794.2,147.2,794.7,146.8,795.8,145.9z M638.3,113.5
	c-1.2-0.4-2-1-2.5-0.9c-0.6,0.2-0.9,1.1-1.3,1.7c0.7,0.3,1.4,0.8,2,0.8C637,115.1,637.5,114.3,638.3,113.5z M278.3,1105.1
	c0,0.7,0,1.3,0,1.9c1.2-0.2,2.4-0.3,3.6-0.5c0-0.4,0-0.8,0-1.2C280.7,1105.3,279.5,1105.2,278.3,1105.1z M1000.9,65.6
	c-0.3,0.6-0.7,1.1-0.9,1.7c0,0.1,0.9,0.8,1.1,0.7c0.5-0.3,0.8-0.9,1.2-1.4C1002,66.3,1001.6,66,1000.9,65.6z M124.4,1418.2
	c0.8-0.7,1.6-1.1,1.7-1.7c0.1-0.5-0.6-1.2-0.9-1.7c-0.6,0.4-1.4,0.7-1.6,1.2C123.4,1416.5,124,1417.2,124.4,1418.2z"/>
<path d="M1364.7,1409.4c-3,0.9-4.7,2.1-6.1,1.7c-6.4-1.6-12.7-3.6-19.1-5.3c-16-4.2-30.8-12.2-47.2-14.8c-1.1-0.2-2.3-0.2-3.1-0.8
	c-8.4-6.7-19.4-7.5-28.6-12.4c-0.5-0.2-0.9-0.8-1.4-0.8c-10.6,0.4-19.4-4.7-28.5-8.9c-1.4-0.6-3.2-0.2-4.7-0.5
	c-3.9-0.8-8.5-0.8-11.5-3c-4.4-3.2-9.2-3.7-14.1-4.9c-7.1-1.8-13.9-4.8-20.8-7.4c-1.2-0.4-2.4-1.4-3.7-1.5
	c-13.2-1-23.7-9.4-36.2-12.6c-15.7-4.1-31.1-9.2-46.7-13.8c-14.9-4.4-30.1-8-44.7-13.1c-10.2-3.6-19.7-9.3-29.7-13.8
	c-5.6-2.5-11.6-4.2-17.3-6.5c-9-3.5-17.7-7.5-26.8-10.6c-6.3-2.1-13-2.7-19.5-4.3c-16.4-4-32.8-7.7-48.6-13.8
	c-8-3.1-16.3-5.3-24.7-7.1c-14.1-3.1-26.4-10-38.7-17c-2-1.1-3.8-3.9-4.2-6.2c-0.5-3,5.2-8.7,8.8-9.4c2.3-0.4,4.8-0.3,7.2,0
	c4,0.5,6.6-1,8.7-4.3c5.3-8.3,8.2-9.4,17.3-7.3c8.7,2.1,18.1,2.9,25.9,6.8c8.1,4.1,17,5.4,25.1,9c2.6,1.1,5.9,0.6,8.4,1.7
	c6.1,2.6,12.3,5.3,17.9,8.8c4.6,2.8,8.5,6.5,14.4,6.4c0.7,0,1.6,0.4,2.2,0.8c7.6,4.5,14.9,9.5,22.8,13.4c9.2,4.6,19,7.9,28.3,12.2
	c5.8,2.7,11.1,6.3,16.8,9.1c5.5,2.6,11.2,4.7,16.8,6.8c2.2,0.8,4.7,1.1,6.9,2c17.8,7.4,35.5,15,53.3,22.2c16,6.5,32.2,12.6,48.3,19
	c3,1.2,5.8,2.8,8.6,4.4c6.9,4,14.2,6.9,22,8.9c6.7,1.7,13,4.7,19.5,7c3.8,1.3,7.6,2.5,11.4,3.8c2,0.7,4.8,0.9,5.9,2.3
	c5.4,6.5,13.8,6.1,20.7,9.1c6.8,3,14.1,4.9,21.2,7.3c10.6,3.6,21,7.3,31.2,12c11.2,5.2,22.4,10.7,33.6,16c3,1.4,6.8,1.4,10.2,1.7
	C1357.2,1402.4,1360.4,1405.2,1364.7,1409.4z"/>
<path d="M185,325.6c4.1-4.6,7.9-8.9,12-13.4c2.2,1.7,3.6,2.7,6.3,4.8c1.3-1.9,3-3.8,4-5.9c2.6-5,6.9-6.4,12-6.4
	c5.9-0.1,11.9,0.3,15.4-6.2c0.7-1.3,3.1-1.8,4.8-2.6c2.1-1,4.5-1.6,6.3-2.9c4.2-3,9.2-4.2,12.5-1.8c3.6,2.6,6.3,5.9,4.2,11.5
	c-3.5,0.1-7.6-0.1-9.7,4.3c-0.6,1.2-2.6,2.1-4,2.3c-4.1,0.6-7.8,1.6-10.9,4.7c-0.7,0.7-2.1,1.5-2.8,1.3c-5.8-2.1-9.1,1-13.1,4.5
	c-3,2.6-7.7,3.3-11.6,4.8c-0.7,0.3-1.8,0.1-2.3,0.5c-8.1,6.1-18.6,7.3-26.9,13.4c-4.5,3.3-10.7,4.3-16.2,6.3c-5,1.8-10,3.6-15,5.3
	c-1.9,0.7-3.9,1.1-5.9,1.5c-1,0.2-2.4-0.2-3,0.3c-8.3,7-18.9,5.7-28.5,8.3c-5.4,1.5-10.9,2.6-16.1,4.5c-10.1,3.5-19.8,8.1-30,10.9
	c-8.8,2.5-15.3,8.5-23.2,12.2c-7.1,3.3-13.9,7.5-22.6,6.5c-3.6-0.5-5.3-1.8-6.2-5c-0.5-1.8-1.5-3.6-1.4-5.4c0.1-1.9,1-3.8,1.9-5.5
	c0.4-0.8,1.6-1.5,2.6-1.9c10.2-4.7,20.3-9.5,30.5-14.1c2.6-1.2,5.3-2.2,8.3,0c1.1,0.8,4.2,0,5.5-1.1c3.6-3.3,7.9-4.4,12.5-4.9
	c4.7-0.5,9.4-1.1,14-1.8c0.5-0.1,1.1-0.4,1.3-0.8c3.2-5.5,8.4-5.9,14-6c1.4,0,2.8-1.2,4.2-2c1.6-0.9,3.2-2.5,4.9-2.7
	c8.4-0.9,15.4-6.6,23.3-7.6c6.5-0.8,11.9-3.2,17.7-5.1c3.8-1.2,7.2-3.1,10.8-4.1C171.5,324.7,178.6,319.4,185,325.6z"/>
<path d="M418.5,84.7c1.3-4.2,2.3-8.6,8.6-6.7c0.8,0.2,2.2-1.2,3.1-2.1c3.7-3.2,7.1-6.5,12.8-5c1.6,0.4,3.7-0.6,5.3-1.4
	c3.8-1.8,7.5-2.5,11.6-1c1.7,0.6,4.4,1,5.5,0.1c4.1-3.6,9.1-2.1,13.7-3c7.3-1.4,14.6-2.9,22-4.4c0.5-0.1,1.2-0.6,1.5-0.4
	c7.4,4.6,12.2-2.5,18.3-3.9c2.8-0.6,5.4-2.2,8.2-2.5c5.4-0.6,10.6-1.1,15.3-4.2c2.8-1.8,6-1.8,9.1,0.2c1.2,0.8,3.2,1.9,4.2,1.5
	c8.8-4.2,18.6-1.8,27.6-4.3c1.8-0.5,3.6-1.2,5-2.2c3.8-2.8,7.8-3.6,12.1-2.1c3,1,5.2,0.6,6.9-2.1c0.6-0.9,1.5-2.1,2.3-2.1
	c9.2-0.8,18-4.7,27.5-2.5c3,0.7,6.5-0.2,9.9-1.6c2,1.4,4.1,2.5,5.9,4.1c4.5,4,3.7,7.7-1.6,10.4c-7.2,3.6-14.5,5.1-22.5,3.2
	c-3.4-0.8-6.9-0.8-10.7-1.2c-4.6,8.3-12,5-20,5.3c-1.4,2.6-4.4,3.2-8.9,3.4c-7.5,0.4-15.3-0.3-22.8,2.7c-5.2,2.1-11.4,1.8-17.1,2.6
	c-1,0.1-2.4-0.3-3.1,0.2c-7,4.4-14.5,2.7-21.9,1.7c-4.6-0.6-8.5-0.1-11.5,3.9c-0.6,0.8-1.6,1.5-2.5,2c-4.4,2.8-6.1,2.3-9.6-2.7
	c-3.8,0.7-7.7,1.5-11.5,2.2c-0.5,0.5-0.9,1-1.4,1.5c1.6,0.6,3.2,1.2,5.5,2c-3.8,3.4-7.2,3.7-10.6,3.6c-8.7-0.4-17,1.6-25.5,3
	c-11.6,2-23.2,4-34.3,7.9c-3.1,1.1-5.2,0-6.4-3l-0.2,0.2c1.7-0.3,3.3-0.7,5-1c0-0.4,0-0.8,0-1.2c-1.7-0.4-3.3-0.8-5-1.2L418.5,84.7z
	 M555.1,56.9c0,1-0.1,2-0.1,3c1.7-0.1,3.4-0.2,5.1-0.5c0.2,0,0.2-1.9,0.1-1.9C558.6,57.2,556.8,57,555.1,56.9z"/>
<path d="M1603.6,471.6c0.9-4.6,1.9-8.4,2.5-12.3c0.9-6.7,2.9-9.7,9.4-9.9c7.1-0.2,14.4,0.6,21.5,1.7c6.3,0.9,12.5,2.7,18.7,4.2
	c7.2,1.8,14.5,3.7,21.7,5.7c1,0.3,2.2,1.8,2.1,2.8c-0.1,1-1.4,2.5-2.3,2.7c-3.4,0.5-6.9,0.6-10.4,0.8c-6.2,0.2-12.3,0.7-17.8,3.9
	c1.8,4.6,1.8,4.6,6.5,5.4c2.4,4.2,4.7,7.9,6.7,11.9c0.8,1.6,1.1,3.6,1,5.4c-0.1,4,1,7.5,4.3,9.9c3.7,2.6,5.6,5.8,4.1,10.3
	c-1.6,4.7-4.6,6.1-12.1,5.9c-0.6-2.9-1.2-6-1.8-8.8c-8.5-5.5-17.8-1.2-27.5-2.6c1-10.9-6.3-18-11.5-26.2
	C1608.3,480.4,1607.2,479.6,1603.6,471.6z"/>
<path d="M22.6,241.3c9.9,4.2,18.3-0.6,26.8-0.8c11.9-0.2,22.4-7.5,34.5-5.7c1.3,0.2,2.9-1.1,4.3-1.7c2.4-1.1,4.7-2.6,7.2-3.5
	c9.7-3.7,16.3,1.1,15.3,11.4c-0.2,1.7-2,3.6-3.6,4.7c-1.4,1-3.6,1-5.4,1.3c-2.1,0.2-4.5-0.3-6.4,0.4c-12.8,4.6-26.7,4.2-39.3,9.3
	c-5.3,2.2-10.4,5.9-15.9,6.6c-8,0.9-13.7,6.3-20.9,8.5c-7.4,2.3-16.5-4.1-15.9-11.8c0.2-1.9,1.5-4.7,2.9-5.2
	c4.6-1.5,6.3-5.5,9.3-8.5C17.5,244.2,20.4,242.8,22.6,241.3z"/>
<path d="M56.9,159.1c4.3-9.1,6.1-10.1,15.8-9.2c4,0.3,8.1,0.2,12-0.3c5.8-0.8,10.6,0,13.8,7.3c2.8-3.6,4.9-6.4,7.6-9.7
	c6.1-1.6,6.1-1.6,11.6-10.9c4.6,4.6,8.9,3.5,14,0.1c2.2-1.5,6.1-0.8,9.2-0.5c0.9,0.1,2.3,1.7,2.5,2.7c0.1,1-0.9,2.5-1.8,3.1
	c-3.6,2.2-7.4,4.1-11.6,6.4c-1.3-0.5-3.2-1.3-4.9-2c-0.8,0.4-1.7,0.6-1.7,0.9c-0.5,4-2.6,6.1-6.9,6.1c-1.5,0-3.3,0.5-4.6,1.3
	c-7.5,4.7-15.8,6.8-24.9,7.9c-0.7-2.4-1.4-4.9-2-7.2c-6.7,0.2-7.2,1.1-5.8,9.6c-3.1,0-6,0-9.8,0c-2.4,9.2-10.6,2.5-15.8,4.5
	c-3-2-1.8-7.8-6.3-6.6c-2.5,0.7-4.4,3.9-7,6.5c-4.4,0.7-9.9,0.8-14.7,2.8c-3,1.2-5.9,3.1-9.1,4.3c-6.2,2.3-10.5-1.5-14.3-4.7
	c-4.1-3.4-1.7-11.9,3.8-12.9c7.1-1.2,14-5.8,21.7-2.7c6.9-3,14.1-1.3,21.2-1.8C52.6,153.8,55.6,154.5,56.9,159.1z"/>
<path d="M1114,423.7c1.9,6.1,2.4,11-4.6,13.5c-1.8,0.7-3.1,2.8-4.6,4.4c-0.9,1-1.4,2.7-2.4,3.1c-6.2,2.2-8.8,8.1-13.3,11.9
	c-6.6,5.6-10.2,12.9-14.7,19.8c-2.6,4-4.3,8.8-7.7,11.8c-4.3,3.8-9.8,6.8-16.1,5.5c-6.9-1.4-9.7-12.6-4.7-17.8
	c0.2-0.2,0.4-0.4,0.6-0.5c7.3-5.5,14.1-11.4,20-18.5c6.3-7.5,14.7-13.3,22.1-20c2.3-2.1,4.2-4.8,6.3-7.1
	C1102.2,421.7,1101.3,420.3,1114,423.7z"/>
<path d="M1709.7,645c-1.6,9.4-4.3,11.4-12.8,10c-6.1-1-12.1-2-18.2-3c-1.3-0.2-2.8-0.3-3.9,0.2c-5.3,2.5-9.9,0.9-14.6-2.1
	c-7.6,5.8-15.6,5.6-23.9,1.5c-1.4-0.7-3.4-1.9-4.4-1.4c-4.8,2.6-8.2-0.1-12.3-2.6c0-2,0-4.3,0-6.2c-2.8-2-4.2-1.3-5.8,0.8
	c-1.2,1.5-3.1,3.4-4.8,3.5c-9.1,0.6-18.1,1-27.2,0.9c-5.1-0.1-9.1-5.1-8.6-9.7c0.4-4.2,4.9-7.5,10.1-7.3c0.8,0,1.7,0.1,2.3,0.5
	c7.6,5.1,17.1,3.6,25.2,7.2c0.7,0.3,1.6,0.6,2.3,0.5c15.4-2.6,30.2,2.9,45.3,3.7c7.7,0.5,15.4,0.5,23.2,1
	C1690.7,643.3,1699.9,644.2,1709.7,645z"/>
<path d="M198.8,120.1c1.2,2.4,2,4.2,3.2,6.6c1.1-1.2,2-2.2,2.9-3.1c3.9-4.4,5.4-4.9,10-1.3c3.4,2.6,6.3,1.7,8.8,0
	c3.8-2.7,7.1-6.2,9.9-10.2c4.6-1.4,9.2-2.7,13.9-4.1c0.2,0.5,0.5,1,0.7,1.5c-3.3,2-6.5,4.1-10.5,6.5c1.6,1.2,2.5,2.4,3.1,2.3
	c2.5-0.7,5-1.5,7.2-2.9c2.2-1.4,4-3.4,5.8-5.3c4.6-4.9,10.1-5.4,16.5-3.3c0.4,2.5,0.8,5.1,1.1,7.6c4.4,0.2,4.4,0.2,7.2-9.9
	c10.8-4.1,22.2-9,33.9-12.8c5-1.6,10.7-1.1,16.1-1.6c0.2,0.5,0.4,1.1,0.6,1.7c-1,0.9-1.9,2.1-3.1,2.5c-1.8,0.6-3.7,0.4-5.6,0.8
	c-6.4,1.1-6.4,1.2-7.7,7.9c-0.3,1.4-1,2.8-2,5.4c-0.6-2-0.8-2.7-0.9-3.5c-0.3-2.5-0.6-5.2-4-4.9c-3.4,0.3-2.8,3-2.9,5.5
	c-0.2,6-5.2,8.4-11.2,5.2c1.3-1.3,2.5-2.6,3.7-3.9c-0.5-0.5-0.9-1.2-1.2-1.1c-3.7,0.6-7.3,1.2-11.6,2c0.7,0.9,1.5,1.7,2.1,2.6
	c2.3,3.7,0.2,7.3-4.3,7.5c-6.3,0.3-12.7,0.1-19,0.7c-2.8,0.3-5.5,1.9-8,3.4c-6.9,4.2-13.8,7.6-22.2,3c-2.5,5.3-5.8,8.1-11.4,5.9
	c-1-0.4-2.4,0.2-3.5,0.6c-2.3,0.8-4.4,1.9-6.7,2.5c-5.7,1.5-11.7-0.8-15-5.6C192.2,125.5,193,123.9,198.8,120.1z M267.4,115.7
	c-0.4-3.3-1.1-4.7-3.9-2.9c-0.7,0.5-1.4,1-3,2.2C263.5,115.3,265.2,115.5,267.4,115.7z"/>
<path d="M327.9,189.7c1.9-2.5,3.9-5,6-7.7c1.7,1.2,3.4,2.3,6.1,4.2c1.2-2.7,2.2-4.9,3.3-7.2c0.8,0.6,2,1.3,3.7,2.5
	c2.4-9.6,10.8-9.5,17.6-12c1.1-0.4,3.2,1.2,4.4,2.4c0.8,0.8,0.5,2.7,1.3,3.7c0.7,0.9,2.1,1.5,3.2,1.6c0.7,0,2-1.3,2-2
	c-0.1-6.2,3.7-7.4,9-8.8c11.8-3.2,23.2-7.8,34.9-11.7c6.8-2.3,13.9,0.9,17,7.3l0.2-0.2c-6.1-0.4-11.3,0.8-16.2,5.1
	c-4.1,3.6-9.3,6-14.2,8.4c-1.8,0.9-4.3,0.1-7.4,0.1c-0.6,2.9-2.3,5.5-7.2,2.8c-1.6-0.9-5-0.5-6.4,0.7c-10,8-13,8.3-25.5,1.1
	c-0.8,3.9-3.1,6.2-7.1,7c-6.4,1.3-12.9,1.9-18.7,5.3c-2.3,1.4-4.6-0.1-5.7-2.8L327.9,189.7z"/>
<path d="M1389.7,615.6c-0.8,1.5-1.1,2.8-2,3.7c-3.8,4.1-9.3,3.3-11.2-1.9c-1.3-3.5-5.6-5-5.4-9.7c0.1-2-3.2-3.6-6.5-3.2
	c-7.7,0.9-13.8-2.3-19.2-8.4c2.8-1.8,5.1-3.8,7.7-4.8c2.4-0.9,5.3-1.5,7.7-1c4.7,1,9.1,2.9,13.7,4.2c2,0.6,4.2,0.7,6.2,0.9
	c6.9,0.7,13.9,0.9,20.7,2.2c7.1,1.3,10.6,7.7,9,14.5c-1.8,7.5-10.7,9.4-17.8,5.8C1391.7,617.5,1391,616.6,1389.7,615.6z"/>
<path d="M418.5,87.7c-8.1,1.3-16.3,2.7-24.4,4c-6.1,0.9-12.1,1.7-18.2,2.5c-2.9,0.4-5.9,0.6-8.8,1.1c-5.8,1-11.5,2.1-17-1.6
	c-3.5-2.4-6-0.5-6.7,3.9c2.1,0.8,3.9,1.5,6.2,2.3c-1,1-1.4,2-2,2c-5.3,0.5-10.6,1-15.8,1.4c0.9-3.6,2.1-6.5,2.4-9.6
	c0.4-6.1,3.1-8,8.8-5.6c7.7,3.2,15.5,3,23.2,2.1c3.3-8.8,4.9-9.9,13.5-10.3c6.1-0.3,12.3-0.9,18.4-1.1c1.8-0.1,4.1-0.1,5.4,0.9
	c4.5,3.5,9.9,3.8,15,5.2l-0.2-0.2c0,1.1,0,2.3,0,3.5L418.5,87.7z M381,89.8c0.4-0.5,0.7-0.9,1.1-1.4c-0.8-0.2-1.6-0.5-2.3-0.5
	c-0.7,0-1.4,0.5-2.1,0.8c0.4,0.6,0.7,1.5,1.2,1.6C379.5,90.6,380.3,90,381,89.8z"/>
<path d="M112.3,230.2c2.2-1.8,3.9-4.2,5.9-4.5c5.2-0.7,9.6-2.7,13.6-6c11.1,1.4,22.2-4.7,33.5-0.2c-4.1,5.9-8.2,10.8-16.1,10
	c-1.8-0.2-3.8,1.5-5.5,2.7c-4,2.7-8,5.1-13.2,4.4c-1.6-0.2-3.5,0.7-5.2,1.5c-6.5,2.9-7.8,2.5-11.1-4
	C113.6,233.2,113.2,232.2,112.3,230.2z"/>
<path d="M167.9,225.8c2-2.5,3.1-3.9,4.2-5.2c2.7-3.2,5.5-6.4,8.1-9.6c4.8-6,11.6-8,18.5-9.7c2-0.5,4.2-0.1,6.4-0.1
	c0.8,1.6,1.2,2.9,2,3.9c1,1.3,2.4,2.4,3.6,3.5c1-1.3,2.1-2.6,3.1-4c0.4-0.6,0.6-1.4,1-2.2c3.1,4.3,3,6.5-0.9,8.5
	c-8.5,4.3-16.9,9-25.9,12.3C182.2,225.2,175.6,224.9,167.9,225.8z"/>
<path d="M168,131.8c3.6-2.2,6.6-4.2,9.8-6c1.4-0.8,3.6-2.1,4.3-1.7c4.6,3.3,8.9,7.1,13.2,10.7c0.3,0.2,0.3,1.1,0.1,1.5
	c-2.3,5-7.3,3.4-11.2,4.5c-2.8,0.8-4.7,0.1-5.7-2.7c-0.7-2.1-1.4-4.2-2.2-7c-3.8,2.5-4.4,5-3.6,8.1c0.7,3.3-1.2,5.3-4.1,5.8
	c-5.2,0.8-10.5,1.1-15.9,1.7c-2.6-5.4-1-10.2,0.1-15.1c4.1-0.9,7.4-0.9,8.4,3.8c0.7,2.9,2.2,4,5.5,3.2
	C167.2,136.3,167.7,133.7,168,131.8z"/>
<path d="M1686.3,518.6c3.8,2.8,6.2,4.8,8.9,6.5c2.6,1.6,5.3,3,8.3,4.6c-2.6,4.4-4.6,7.9-6.5,11.1c-4.2-0.9-8-1.7-11.8-2.4
	c-3.3-0.7-4.6-3.3-4-5.9C1682.4,527.9,1684.4,523.6,1686.3,518.6z"/>
<path d="M436.2,162c1.8-0.3,3.7-0.5,5.4-0.8c0.5-2.4,0.2-5.3,1.5-7c1.3-1.6,4.1-2.7,6.3-2.8c4.3-0.2,7.5,5.3,7,11.5
	c-5.5,2-12.3,0.8-16.8,6c-0.4,0.4-3.8-0.7-4-1.4c-0.3-1.8,0.5-3.8,0.8-5.7C436.5,161.8,436.2,162,436.2,162z"/>
<path d="M270.3,205.4c1.8-6.7,6.1-8.8,12.2-9c-0.7-1.9-1.3-3.5-2.2-5.9c7.5-0.4,14.4-5.6,22.1-0.7c-1.2,3.2-3.1,2.7-5.3,2.3
	c-7.5-1.5-7.5-1.4-8.5,6.5c-0.2,1.5-0.8,3.7-1.8,4.1C281.7,204.8,276.4,206,270.3,205.4z"/>
<path d="M261.5,207.8c-1.5,0.6-2.4,1-3.3,1.5c-3.7,2.1-6.7-3.9-11.1-0.6c-2.7,2-7.1,1.8-10.8,2.5c-1,0.2-2-0.1-3.3-0.2
	c-0.9-4,0-6.4,4.3-6.7c3.2-0.2,6.3-0.3,9.8-0.5c0.5-2.4,1-4.4,1.6-6.9C255.2,198,258.5,202.2,261.5,207.8z"/>
<path d="M316.6,194.7c-5.6,1.9-11.3,3.9-17,5.7c-2.2,0.7-4.6-0.2-4.7-2.8c0-1.1,2-3.1,3.3-3.2c5.9-0.9,11.9-1.3,17.9-1.8
	C316.4,193.2,316.5,193.9,316.6,194.7z"/>
<path d="M221.4,208.2c-0.7-1-2.3-2.4-2.6-4c-0.8-3.6,1.6-6.8,4.9-6.5c1.3,0.1,3.3,1.8,3.6,3C227.9,204.1,225.2,207.8,221.4,208.2z"
	/>
<path d="M328.1,189.5c-4.4-1.3-8.8-2.6-13.2-3.9c0-0.7,0.1-1.4,0.2-2.1c3.9-0.8,7.9-1.6,12.9-2.6c0,3.6,0,6.2,0,8.7
	C327.9,189.7,328.1,189.5,328.1,189.5z"/>
<path d="M289.2,283.2c-1.6,1-2.7,2.2-3.5,2c-0.9-0.2-1.6-1.6-2.4-2.4c0.9-0.8,1.8-2.1,2.7-2.1C286.8,280.6,287.7,281.9,289.2,283.2z
	"/>
<path d="M269,196.1c-0.9,0.3-1.9,1-2.8,0.9c-0.7-0.1-1.5-1-1.9-1.7c-0.1-0.3,0.7-1.5,1.2-1.6c0.7-0.1,1.6,0.4,2.4,0.7
	C268.3,195,268.6,195.5,269,196.1z"/>
<path d="M1705,534.8c0.7,0.7,1.8,1.4,1.7,1.6c-0.3,0.8-1,1.5-1.6,2.2c-0.5-0.6-1.3-1.1-1.4-1.7
	C1703.7,536.3,1704.5,535.7,1705,534.8z"/>
<path d="M267.8,288.1c-1.1,0.4-1.8,0.6-2.5,0.8c-0.2-0.6-0.5-1.3-0.5-1.9c0-0.2,1-0.8,1.2-0.6C266.6,286.7,267,287.3,267.8,288.1z"
	/>
<path d="M908.7,52.6c0,1.3,0,2.7,0,4c-0.4,0-0.8,0.1-1.2,0.2c-0.2-1.4-0.5-2.7-0.7-4.1C907.5,52.7,908.1,52.6,908.7,52.6z"/>
</svg>
