<?xml version="1.0" encoding="utf-8"?>
<!-- Generator: Adobe Illustrator 25.2.1, SVG Export Plug-In . SVG Version: 6.00 Build 0)  -->
<svg version="1.1" id="Layer_1" xmlns="http://www.w3.org/2000/svg" xmlns:xlink="http://www.w3.org/1999/xlink" x="0px" y="0px"
	 viewBox="0 0 1664.2 1679.1" style="enable-background:new 0 0 1664.2 1679.1;" xml:space="preserve">
<path d="M435.6,1300.8c-5.7-5-10.5-9.3-15.3-13.6c-5.3-4.8-5.6-6.7-1.4-12.4c2.1-2.9,4.4-5.8,6.5-8.7c0.4-0.6,0.3-1.5,0.6-2.6
	c-1.1-0.8-2.3-1.7-3.5-2.6c-2.8-2.2-6-4.1-8.3-6.7c-4.1-4.6-4-6.8-0.4-11.7c8.3-11.4,7.9-11.1,1-23.7c-2.6-4.7-3.8-11-3.4-16.4
	c1.2-16.9,6.7-32.9,13-48.6c0.6-1.4,1.8-2.7,2-4.2c1.2-12.9,7-24.3,11.8-35.9c4.1-9.9,6-19.8,2.9-30.3c-2.4-8.2,0.7-14.9,6.7-20.2
	c12.2-10.8,24.8-21.3,37-32c6-5.3,11.9-10.7,17.6-16.4c2.1-2.1,3.9-4.8,5.2-7.6c5.9-12.7,15.8-20.4,29.5-22.7
	c10.5-1.8,21-2.6,31.7-1.6c10.8,1,21.5-1.6,30.5-7.4c11.7-7.6,22.8-16.2,34-24.6c2.8-2.1,5.2-5,7.3-7.9c7.3-9.9,15.9-18.4,25.8-25.6
	c6.3-4.7,7.3-10.5,2.6-15.9c-1.2-1.3-3.7-2.6-5.2-2.2c-4.2,1.2-8.5,2.6-12.2,5c-23.7,15.6-49.5,23.5-77.9,22
	c-7.4-0.4-14.5,0.6-21.3,3.3c-9.1,3.7-18.6,6.2-27,11.7c-5.9,3.8-16.7,1.5-21.6-3.6c-5.2-5.4-4.9-14.1,1-21.2
	c8.2-10,16.5-19.9,24.8-29.9c1.6-2,3.1-4.2,4.6-6.3c6.1-8.4,12.1-16.8,18.2-25.2c10.3-14.1,24.9-20.5,41.6-23.1
	c2.8-0.4,5.7-0.8,8.2-2c12.5-5.5,26-7,39-10.4c2.2-0.6,4.7,0,6.9-0.5c3.5-0.7,7.2-1.3,10.4-2.8c6.8-3.2,13.5-6.6,19.7-10.7
	c4.2-2.8,8.1-6.4,11.1-10.5c3.3-4.4,0.8-8.5-4.8-9.2c-1.3-0.2-2.6-0.1-3.9,0c-13.4,1.4-26.8,2.9-40.2,4.1c-3.3,0.3-6.8,0.5-10-0.1
	c-21-3.3-41,1-61.2,6.5c-13.4,3.6-23.1,12.3-33.7,20.1c-1.2,0.9-2.4,2.1-3.1,3.5c-6.9,13.3-18.4,22.8-27.8,34.1
	c-3.7,4.5-9.2,7.5-15.3,8.8c-10.5,2.3-16.8-3.5-13.6-13.5c4.9-14.7,10.8-29.1,16-43.7c2.2-6.3,3.7-12.8,5.8-19.1
	c3.1-9.3,7.3-18.3,9.6-27.8c2.7-11,9.8-18.4,16.7-26.4c10.8-12.5,20.7-25.8,31-38.7c0.6-0.8,1.2-1.7,2-2.4
	c11.8-9.8,19.1-23.1,27.7-35.4c1.3-1.9,2.9-3.7,4.6-5.2c6.8-6.3,8.5-14.5,9.1-23.2c0.1-0.9-0.6-1.9-0.9-2.7c-3.8-0.9-6.3,0.7-8.6,3
	c-8,8.1-16.2,16-24,24.3c-8.9,9.4-17.6,19-26.4,28.5c-1.2,1.3-2.7,2.4-3.9,3.7c-7.9,7.9-15.4,16-23.6,23.5
	c-8.1,7.5-13.8,16.6-19.4,25.8c-1.2,2-2.5,4.2-4.3,5.4c-6.9,4.8-10.2,12.2-14.5,18.9c-4.8,7.3-9.9,14.5-14.8,21.8
	c-1.6,2.4-3.3,4.8-4.3,7.4c-1.5,4-4.3,6.7-7.4,9.6c-3.6,3.5-6.7,8-8.4,12.7c-3.1,8.8-9.6,14.5-16,20.4c-0.9,0.9-2.2,1.5-3.2,2.2
	c-5.5,3.9-5.5,3.9-12.7,1.5c-3.3-8.1-2-16,1.1-24c4.8-12.3,9.7-24.5,13.8-37.1c3.1-9.6,5-19.6,7.5-29.3c1.4-5.5,3.3-10.9,4.4-16.4
	c2.7-13.1,4.1-26.6,7.7-39.4c3.2-11.3,4.1-22.9,5.9-34.3c0.5-3.3,1.9-6.5,2.1-9.8c0.4-5.6,0.5-11.2,0.2-16.8c-0.1-1.4-2-3.8-3-3.8
	c-1.7,0-4,1.2-5,2.7c-1.5,2.3-2.8,5.2-2.9,7.9c-0.1,10.9-6.4,19.4-10.4,28.8c-2.7,6.4-5.3,12.8-6.8,19.7c-2,9-5.4,17.8-8.3,26.6
	c-3.2,9.5-6.5,19-9.7,28.6c-0.3,1-0.3,2.2-0.8,3c-4,6.3-5,12.8-2.4,20c0.7,1.9-0.3,4.6-1.1,6.7c-6.5,15.5-13.2,30.9-19.8,46.3
	c-0.4,1-0.8,2-1.5,2.7c-12.1,11.8-14.5,28.9-23.5,42.3c-1.8,2.8-3.4,5.7-5.5,8.3c-4.2,5.1-12.7,5.5-16.4,0.2
	c-6.9-10-13.5-20.2-15.5-32.7c-1-6.3-3.3-12.5-4.6-18.8c-1.8-8.9-2.9-17.9-5.1-26.7c-1.9-7.2-5.5-14-7.5-21.1
	c-2.4-8.5-2.9-17.5-5.9-25.6c-3.3-8.7-6.9-17.6-13-25.3c-4,2.5-3.8,6.1-3,8.7c3.1,10.7,1.6,21.6,2,32.4c0.3,10.7,2.2,20.9,6.8,30.8
	c3.6,7.6,6.2,16,7.7,24.3c3.6,20.1,6.6,40.3,9.2,60.6c1,7.6,0.3,15.4,0.4,23.2c0,2.3-0.1,4.8,0.7,6.9c2.8,7.6,2,15.3,1.2,23
	c-1,8.7-2.1,17.3-3.2,26c-1,7.7-1.9,15.4-3.2,23c-1.6,9.6-2.1,19,0.7,28.5c0.9,3.1,0.2,6.7,0.8,9.9c0.7,3.3,1.6,6.7,3.3,9.5
	c3.3,5.3,2.9,10.5,0,15.4c-3.5,5.8-3.9,11.3-1.8,17.7c2.2,6.9-0.3,12.5-6.4,16.5c-0.4,0.3-1.1,0.3-1.4,0.7
	c-4,6.7-11.2,9.6-16.8,14.4c-3.4,2.9-3.6,6.8-1.1,12c5.9,12.2,7.4,25.2,6.7,38.5c-0.2,3.6-0.9,7.1-1.3,10.7
	c-0.4,4.2-2.6,7.3-5.8,9.7c-4.1,3.1-8.5,6-12.6,9.1c-1.5,1.2-2.8,2.8-3.5,3.5c2,5,3.8,8.9,5,13c3.1,10.2,7.7,19.3,14,28.1
	c4.4,6.2,8,13,13.5,18.3c9.1,9,16.4,19.6,26.8,27.3c1.6,1.2,2.6,3.1,3.9,4.8c0.8,1,1.3,2.6,2.3,2.9c9.1,3.4,15.5,10.8,23.9,15.3
	c9.4,5.1,16.4,13.1,22,21.5c3.9,5.9,5.1,14.1,6.1,21.4c1,7.3,1.1,14.9-1.4,22.2c-0.7,2.1-0.2,4.6-0.1,6.9
	c0.3,12.6,0.6,25.2,0.9,37.7c0.1,2.8,0.1,5.8,0.8,8.5c4.1,17.4,8.2,34.7,12.6,52c2.5,9.7,5,19.5,8.5,28.9
	c2.8,7.6,8.6,13.1,15.3,17.9c5.4,3.8,10.3,8.5,15.5,12.7c6.5,5.2,12.7,10.7,19.6,15.3c13.2,9,25.5,19.3,40,26.4
	c7.7,3.8,14.6,3.5,20.6-3.3c5.7-6.4,10.8-13.3,12.8-21.9c0.3-1.5,0.8-2.9,1.4-5.1c2.7,1,5,1.9,7.7,2.9c0.6,17.6-10,28.8-21.5,39.9
	c1.8,1.4,3.3,2.7,5,3.8c12.8,8.3,25.7,16.5,38.5,24.7c0.4,0.3,0.9,0.5,1.4,0.8c16.2,7.4,32.3,15.2,48.7,22.1
	c12.6,5.3,25.9,8.7,39.6,10.2c5.7,0.7,11.3,1.7,16.9,2.8c1.5,0.3,3.3,0.8,4.1,1.9c1.4,2,3.2,4.7,2.7,6.6c-0.5,1.9-3.5,4.2-5.5,4.4
	c-4.3,0.4-8.9,0.3-13.1-0.9c-17.2-4.8-34.4-9.5-51.2-15.4c-11.7-4.1-22.8-9.9-33.8-15.5c-11.2-5.8-22.1-12.2-33.1-18.6
	c-9.2-5.3-18.4-10.5-27.1-16.4c-8.9-5.9-18-5.9-28.2-4.3c-10.1,1.5-20.7,2.5-30.2-3.2c-4.2-2.5-8.4-5.3-11.6-8.9
	c-8.6-9.9-17.2-20.1-24.8-30.8c-5.5-7.7-10.4-16.2-14.1-25c-4.2-10.2-9.9-19.2-16.3-28c-10.8-14.9-20-30.6-27.6-47.6
	c-6.7-15.1-11.4-30.6-14.3-46.7c-3.2-18.1-5-36.4-7.6-54.6c-0.9-6.4-2.5-12.7-3.4-19.1c-1.4-9.7-2.7-19.4-3.6-29.2
	c-0.2-2.5-0.5-4.4-2.6-6c-5.3-4-11.3-7.5-13.3-14.6c-6.9-1.5-7.3-10.4-14-12.2c-1.1-0.3-2-1.7-2.7-2.7c-8.7-12.1-17.6-24-26-36.3
	c-3.3-4.8-5.6-10.3-8-15.7c-0.6-1.3,0.1-3-0.1-4.5c-0.4-2.5-0.4-5.4-1.7-7.4c-3.1-4.6-3.4-9.1-1.7-13.8c6.8-5.2,13.5-10.3,21-16
	c1-8.1,2.3-17.4,3-26.8c0.1-1.9-1.8-4.1-3.2-5.9c-4.4-5.8-8.7-11.6-10.3-18.9c-1.1-5.1-0.7-6.9,3.9-8.7
	c11.1-4.5,18.9-13.1,26.9-21.4c0.7-0.7,1.5-1.3,2.2-2c-0.4-3.1-0.4-5.9-1.2-8.6c-1.8-6.2-2-11.8,1.7-17.7c2.8-4.3,2.4-9.4-1.1-13.8
	c-1.1-1.3-2-3.1-2.3-4.8c-1.5-10.2-2.8-20.5-3.9-30.8c-0.3-2.8-0.2-5.8,0.2-8.5c1.5-9.2,3.4-18.3,4.9-27.6c0.7-4.6,0.7-9.2,1.2-13.8
	c0.5-4.8,1.2-9.7,2-14.5c0.8-4.6,1.4-8.8,0.2-13.6c-1.9-7.8-2.5-15.8-3.6-23.8c-0.1-0.5-0.2-1.1,0-1.5c4.7-12.1-1.2-23.5-2.8-35
	c-2.1-15.6-5.5-31.1-8.7-46.6c-0.8-4-2.6-7.8-4.4-11.4c-7.5-14.5-10.4-29.7-7.1-45.9c1.4-7.1-1.2-13.7-2.3-20.5
	c-1.1-7-0.4-13.5,5-18.7c1.1-1.1,2.3-2.2,3.6-2.8c6.6-3,10.3-2,14.2,4.6c7,11.9,12.1,24.7,15.7,37.9c3.5,12.7,6.2,25.7,12,37.6
	c0.8,1.6,1.6,3.5,1.5,5.2c-1.2,14.3,4.4,27.5,7.5,41c2.2,9.3,5.9,19.1,13.7,26.2c3.2-0.6,3.7-3.2,4.8-5.5c2.2-4.9,4.6-9.8,6.9-14.7
	c1.8-3.7,3.6-7.4,5.5-11.1c0.9-1.8,1.5-4.2,3-5.4c8-6.6,9-17.2,15.2-24.9c1.9-2.3,3-5.5,3.8-8.5c1.6-6.1,3.8-11.7,7.4-17
	c1.3-2,2-5,1.6-7.4c-1.3-9,0.2-17.5,3.6-25.8c1.8-4.5,2.2-9.6,3.7-14.3c3.8-11.5,7.9-23,12.1-34.4c2-5.4,2.3-10.4-0.7-15.7
	c-1.3-2.3-1.2-5.5-1.5-8.3c-0.7-5.9-0.9-11.8-1.8-17.7c-2.5-16.7-5.1-33.3-7.8-49.9c-0.5-2.8-1.4-5.5-2-8.3c-0.7-3.3-1.8-6.6-2-9.9
	c-1.3-17.1-5.3-33.7-9.4-50.3c-1.4-5.5-1.8-11.3-2.9-16.8c-2.4-12.4-4.9-24.8-7.3-37.3c-3.2-16.8-6.2-33.6-9.6-50.4
	c-2.3-11.7-5.3-23.2-7.7-34.9c-1.1-5.3-1.5-10.8-2.6-16.1c-2.5-11.9-5.4-23.7-8-35.6c-1.5-6.6-2.8-13.2-4.3-19.8
	c-1.3-5.3,0.7-9.6,3.7-13.7c7.1-9.9,17.3-12.6,28.7-12.1c1.3,0,2.6,0.5,3.8,0.5c8.9,0.2,11.5-2.1,12.3-11c0.1-0.8,0.1-1.5,0.2-2.3
	c0.7-11.5,2.1-14.4,13.2-15.4c17.5-1.6,35-4,52.7-2c6.5,0.7,12.2,3,13.6,10.7c3.1-3.2,6-6.4,9.1-9.4c2.5-2.4,5.6-4.2,9.2-3.1
	c5.1,1.6,8.4-1.5,11.9-3.9c1.7-1.2,2.9-3.2,4.7-4.1c12.5-6.1,16.3-18,20.1-29.9c0.7-2.3,1-5.1,0.4-7.5c-1.8-8-1.3-15.7,0.6-23.8
	c3.7-16,10.2-31,15.6-46.3c4.4-12.4,11.4-23.8,17.2-35.6c1.6-3.2,3-6.6,4.7-9.8c1.1-2,2.4-4,4-5.6c2.3-2.2,5.2-2.8,7.7-0.5
	c2.4,2.2,3.9,5.1,1.8,8.3c-2.8,4.3-6.3,8.2-8.9,12.5c-2.1,3.5-3.4,7.5-5,11.2c-1.7,3.7-3,7.6-5.1,11.1c-3.1,5.3-3.8,10.9-4.2,16.7
	c0.5,0.2,1,0.5,1.6,0.7c2.3-4.3,4.4-8.7,6.9-12.9c1.7-2.8,3.6-5.5,5.8-8c2.1-2.5,4.9-2.8,7.7-0.9c3,2.1,4.1,5.8,1.9,8.2
	c-8,8.8-8.8,20.8-14.7,30.6c-3,5-4.9,11.1-5.6,17.5c-1,8.4-3.8,16.6-6.3,24.8c-0.8,2.5-3.2,4.7-5.2,6.7c-4.6,4.5-7.6,9.7-9.2,15.9
	c-2.3,9.6-4.6,19.1-3.4,29c0.8,6.3-0.1,12.4-2.3,18.4c-1.9,5.1-2.5,10.3-0.7,15.9c1.4,4.5,0.7,9.7,0.8,14.5
	c0.3,14.1,4.1,27.7,7.4,41.3c1,4.2,2.1,8.5,4.4,12.8c0.4-1.5,1.1-2.9,1.3-4.4c0.9-8,1.8-16,2.4-24c1-14.2,7.4-26.9,10.8-40.4
	c0.7-2.9,3-5.5,4-8.4c2.8-7.8,5.1-15.7,8.2-23.4c5.4-13.7,9.3-27.9,17.7-40.4c3.4-5.1,5.3-11.1,11.1-14.5c2.6-1.5,4.7-1.7,7.2-0.5
	c4.2,2,5.1,4,2.5,7.8c-3.2,4.9-6,10.2-11.5,13.5c-2.1,1.2-3.7,4.4-4.2,6.9c-2.6,12-6.3,23.4-11.8,34.4c-2,3.9-3.4,8.2-4.3,12.5
	c-0.5,2.6,0.1,5.5,0.8,8.2c0.6,2.2,2,4.2,3.2,6.2c2.4,4.1,3,8.4,0.5,12.5c-6,9.7-6.8,20.3-6.8,31.3c0,6.4-1.3,12.9-2,19.3
	c-0.5,4.5-3.6,7-7.6,7.9c-4.9,1.2-6.2,4.1-6.8,8.8c-2.2,16.4-1,32.1,7.9,46.6c3.1,5.2,4.6,5.5,9.7,1.9c7.7-5.5,9.2-5.3,15.4,1.7
	c7.8,8.9,13.8,19.3,23.1,27.1c12.7,10.5,24.5,22.1,39.1,30.4c9.1,5.2,17.3,12.1,26,18.1c2.7,1.9,5.8,3.3,8.6,5.1
	c8,5.2,16,10.5,24.8,16.3c3.5-4,7.2-8.1,10.9-12.3c8.6-9.7,16.8-19.7,23-31.2c1.8-3.3,5.2-5.7,7.5-8.9c3.9-5.5,7.4-11.3,11.4-16.7
	c4-5.4,8.6-10.3,12.7-15.6c2.7-3.4,4.9-7.2,7.2-10.9c6.2-9.8,12-19.9,18.5-29.5c8.1-11.9,16.2-23.9,25.4-35
	c7.5-8.9,12.3-19.8,21.1-27.6c7.9-7,15.9-13.2,27.4-12.2c3.6,0.3,6.6,1.2,8.8,4.1c3.1,3.9,6.3,7.6,8.8,11.8c1,1.6,1,4.7,0.1,6.4
	c-0.7,1.3-3.5,1.8-5.4,2c-1.4,0.1-3-0.8-4.4-1.3c-6.6-2.3-11.8,0.6-15.2,6.4c-5.3,9-4.1,17.8-1.2,26.9c5.8,17.9,11.4,35.9,17.4,53.8
	c2,5.9,4.8,11.4,7.2,17.2c4.3,10.5,8.6,21,12.8,31.6c4.3,10.8,8.5,21.7,12.8,32.5c4.5,11.3,9.1,22.6,13.5,33.9
	c4.5,11.6,8.3,23.5,13.4,34.8c8.3,18.7,14.3,38.3,24,56.5c7.4,13.9,9.6,29.4,8.7,45.3c-0.2,4,0.4,8.2,1.2,12.2
	c0.3,1.4,2.1,2.7,3.6,3.4c6.2,3.1,12.6,6,18.9,8.9c7.4,3.4,14.9,6.6,23.6,8.9c-1.2-2.9-2.6-5.8-3.7-8.8c-1.2-3.1-1.9-6.5-3.2-9.5
	c-7.2-16.7-14.7-33.2-21.9-49.9c-7.4-17.1-14.7-34.2-21.9-51.4c-1.2-2.9-2.2-5.8-3.1-8.8c-2.2-6.9-4.4-13.8-8.9-19.7
	c-1.6-2-2.7-4.5-3.6-6.8c-6.9-16.8-13.9-33.5-20.6-50.3c-4.6-11.5-8.7-23.3-13.3-34.8c-1.9-4.8-4.6-9.3-6.6-14.1
	c-9.7-23.2-19.3-46.4-29-69.6c-1.7-4.1-3.7-8-5.7-11.9c-3.8-7.3-2.2-14.1,1.7-20.7c1.7-2.8,4.1-3.9,7.9-3.2
	c6.4,1.3,10.8,4,12.9,10.6c1.6,4.9,3.9,9.6,6.1,14.3c3.8,8.2,7.4,16.4,10.1,25.2c4.4,14.1,10,27.7,14.9,41.6
	c3.6,10.3,6.6,20.8,10.5,30.9c4.5,11.3,9.9,22.2,14.7,33.4c3.7,8.6,6.8,17.4,10.3,26c10.2,24.7,20.5,49.3,30.8,73.9
	c4.4,10.5,8.5,21.2,13.1,31.6c4.1,9.2,8.6,18.1,13.2,27.1c5.6,11.1,11.4,22.1,17.3,33c2.7,5,5.8,9.7,8.7,14.6
	c1.6,2.7,3.7,5.4,4.2,8.3c1.3,9.2,7.8,13.7,14.7,18.5c13.9,9.7,24.5,22.9,34.8,36.1c12.5,16.1,23,33.6,33.8,50.8
	c4.4,7,9.8,13.3,14.3,20.2c11.1,16.9,23,33.1,36,48.6c3.1,3.7,6.2,7.3,9.3,11c0.6-0.3,1.3-0.6,1.9-1c-1-3.8-1.5-7.7-3.1-11.2
	c-5.6-12.5-11.9-24.8-17.4-37.3c-7.8-18.1-17.8-35-26.8-52.5c-10.4-20.3-19.5-41.2-29.1-61.9c-0.6-1.2-1.2-2.4-1.3-3.7
	c-0.6-13.3-8.6-22.9-16.5-32.4c-10.5-12.7-22.1-24.6-31.9-37.7c-8.3-11-17.2-22.1-20.6-36.1c-1.7-6.9-1.2-9,4.6-13.2
	c0.2-0.2,0.4-0.3,0.7-0.4c10.4-5.8,12.7-8.5,23.1,1.5c6.2,5.9,12.3,11.8,18.4,17.8c9.8,9.5,19.2,19.4,29.2,28.7
	c7,6.5,14.8,12.1,22.1,18.2c2.7,2.3,5.1,5,7.5,7.8c7.5,8.8,14.8,17.9,20.9,27.7c2.3,3.7,4.2,7.7,6.2,11.6
	c8.3,16,16.6,32.1,25.1,48.1c4.1,7.7,8.9,15.1,13.1,22.7c8.2,14.9,16,29.9,24.3,44.7c5.1,9,10.9,17.6,16.2,26.4
	c9.7,16.2,18.4,32.9,24.1,51c0.5,1.5,1,3,0.9,4.5c-0.4,6.5,1.9,12.3,4.5,17.9c4.4,9.9,9.3,19.6,13.7,29.5c1.9,4.2,3,8.8,4.4,13.2
	c0.1,0.2,0.1,0.5,0.1,0.8c3.6,13.2,6.6,26.6,11.1,39.5c4.2,11.9,10.3,23.2,15.3,34.8c2.4,5.7,4.2,11.7,6.4,17.5
	c0.6,1.6,1.1,3.8,2.3,4.7c11.8,8.7,20.8,20,30.3,30.9c2.2,2.5,4.4,5.3,5.4,8.3c2.5,7.4-1.4,11.5-9,10.8
	c-7.7-12.9-18.7-22.6-27.7-35.2c-1.8,2.4-3,3.7-3.9,5.1c-4.6,7.1-9.5,14-13.6,21.4c-4.3,7.9-7.5,16.3-6.2,25.7
	c0.4,3,0.1,6.2,0.3,9.3c0.5,8.2,0.6,16.1,4.9,23.9c3.4,6.1,4.4,13.8,5.3,21c1.1,8-2.6,15.1-6.6,21.8c-2.9,4.8-6.3,9.3-9.6,14.2
	c10.2,11.7,20.6,22.5,29.5,34.3c14.1,18.8,30.8,35.5,42.7,56c5.9,10.2,13.6,19.4,20.5,29c6.8,9.4,13.4,18.9,20.7,27.9
	c6.9,8.6,14.5,16.7,21.8,25c2.9,3.3,5.7,6.7,8.6,9.9c2.6,2.8,5.8,5.1,8.1,8.1c4.3,5.8,8.1,11.9,11.9,18c1.2,1.9,1.7,4.3,2.6,6.4
	c4,9.4,2,18.8-5.8,25.7c-2.6,2.3-4.3,4.5-2.5,8c4.4,8.7,8.9,17.4,13.5,26.1c3.7,7.1,7.8,13.9,11.2,21.2c6.3,13.9,12.2,28,18.2,42
	c0.1,0.2,0.3,0.5,0.2,0.7c-0.9,7.7,3,14.1,6.4,20.3c2.2,4,1.5,8.6,4.9,12.6c2.9,3.4,2.4,9.7,3.6,14.7c1.1,4.8,2.5,9.5,3.7,14.3
	c1.2,4.8,2.3,9.6,3.5,14.6c-1.1,0.8-2.2,1.5-3,2.4c-5,5.3-5.5,5.3-8.9-0.7c-1-1.8-2.1-3.7-2.6-5.6c-2.6-11.1-4.6-22.3-7.5-33.3
	c-2.1-8.2-5.3-16.2-7.8-24.3c-5-16.1-12.7-31.2-18.8-46.8c-2.6-6.7-6.6-12.9-10-19.3c-4.5-8.4-8.9-16.9-13.7-25.3
	c-2.2-3.8-4.8-7.4-7.7-10.7c-1.4-1.5-3.9-2.4-6-2.8c-6.8-1.2-13.7-2.2-20.6-3c-2.8-0.3-5.7,0.2-8.5-0.1c-19-2.2-38-4.5-56.5-10.1
	c-12.8-3.9-25.8-7.4-38.6-11.3c-4.4-1.3-8.8-3.1-13-5.1c-13.2-6.4-26.9-11.4-40.7-16.4c-7-2.6-13.4-6.6-20-10
	c-13.2-6.9-26.4-14-40.3-21.4c-3.2,8-5.8,15.2-8.8,22.2c-4.9,11.7-9.8,23.4-15,34.9c-3.7,8.2-7.8,16.3-12,24.3
	c-2.7,5.2-5.6,10.4-9,15.3c-6,8.7-11.9,17.5-18.8,25.6c-3.6,4.2-8.9,6.9-13.5,10.1c-1.2,0.9-3,1-4.3,1.9
	c-11.3,7.6-23.8,7.9-36.7,6.3c-10.2-1.3-20.5-2.3-31.1-3.5c5.8,10.4,13.6,18.6,23.4,25c4.1,2.7,8.2,5.5,11.8,8.7
	c13.8,12.1,30,20.2,46.4,27.7c12.2,5.6,24,3.4,35.1-3.9c1.8-1.2,5.2-2.6,6-1.9c1.8,1.7,3.7,4.7,3.4,7c-0.3,2.7-2,6.3-4.3,7.6
	c-4.1,2.5-8.9,4.6-13.6,5.1c-19.1,2.2-36.8-2.2-52.8-13.2c-4.2-2.9-9-4.9-13.5-7.6c-3.3-2-6.5-4.2-9.6-6.5
	c-7.3-5.3-14.4-10.8-21.8-15.9c-10.3-7.2-18.3-16.8-25.5-26.7c-7.4-10.1-15.5-18.5-27.3-23.2c-5.5-2.2-10.6-5.5-15.4-8.9
	c-16.7-11.6-34.8-20.3-53.1-28.8c-3-1.4-6.4-1.8-10.1-2.8c-0.2,1.8-0.8,3.1-0.4,4.1c7.4,22.1,14.8,44.2,22.6,66.2
	c4.3,12.2,8.3,24.7,14.3,36.1c7.8,14.6,10.9,30.6,16.3,45.9c1.8,5.1,0.1,8.3-4.4,9.9c-4.4,1.5-7.7-0.1-9.4-5.3
	c-1.9-5.7-3.8-11.4-4.8-17.2c-2.1-12.4-7-23.7-12.1-35.2c-6.2-13.9-11.2-28.4-16-42.9c-7.4-22.1-15-44.1-23.9-65.6
	c-9.3-22.5-17-45.7-25.3-68.6c-1.7-4.6-2.9-9.4-4.8-14c-2.7-6.6-6.1-12.7-13.6-15c-6.3,3.8-8,8.1-5.4,14.6
	c3.6,9.2,7.4,18.2,11.2,27.3c0.5,1.2,1.1,2.4,1.5,3.6c1,3.6,3.8,7.5,0.4,10.9c-3.8,3.8-8.7,6.4-14.1,4.8c-6.9-2.2-13.6-5-20-8.2
	c-5.4-2.7-5.5-2.8-9.4,2c-5,6.2-10.5,12.1-15.6,18.2c-4.2,5.2-8.1,10.6-12.2,16c-2.6,3.5-4.8,7.4-7.9,10.5
	c-9.6,9.9-16.8,21.5-24,33.1c-0.8,1.3-2,2.3-3,3.5c-3.4,4.2-6.8,8.4-10.1,12.6c-8.1,10.6-16,21.4-24.3,31.9
	c-7.2,9.1-14.3,18.4-22.4,26.7c-7.9,8-16.3,15.8-26.5,21.3c-3.3,1.8-6.3,2.3-9.5,0.8c-1.4-0.6-3.2-2.2-3.3-3.5
	c-0.1-1.4,1.1-3.4,2.4-4.3c4.7-3.2,9.9-5.7,14.6-8.9c9.4-6.5,17.8-14.1,24.2-23.9c3.7-5.6,8.5-10.4,12.5-15.7
	c6.8-9,13.5-18.2,20.1-27.4c12.1-16.7,23.3-34.3,36.6-49.9c9.7-11.4,16.6-25.1,28.2-35.1c3.2-2.8,5.2-7,7.7-10.6
	c2.8-4,2.4-5.8-2.3-7.5c-9.5-3.4-19-6.5-29.3-7.1c-8-0.4-15.8-2.2-23.8-3.1c-6.2-0.7-7.7,0.3-10,6c-3.6,9.1-7,18.3-10.5,27.5
	c-0.8,2.2-1.8,4.4-3.1,6.2c-0.9,1.2-2.7,1.7-4.1,2.5c-0.5-1.6-1.7-3.2-1.5-4.7c0.6-4.3,1.7-8.6,2.8-12.8c1.7-6.5,3.5-13,5.2-19.5
	c0.2-0.9,0-2,0-3.6c-18.9-0.3-37.2,0.2-55.4,7c1.5,11.4-4.5,20.5-7.7,30.5c-2,6.1-3,12.6-4.3,18.9c-0.3,1.3,0.3,2.9-0.4,3.8
	c-4.8,6.6-4.7,14.7-7.1,22c-2.7,8.2-6.5,10.3-14.7,7.5c-3.1-1.1-6.5-2.7-8.5-5.2c-7.4-9.3-14.4-18.9-21.2-28.7
	c-1.9-2.7-3.8-4.4-7-5.5c-10.7-3.8-21.4-7.5-31-13.9c-3-2-6.4-3.7-9.8-4.5c-7.4-1.9-13.8-5.7-20.5-9.1c-4.8-2.4-10.1-4-15.2-5.5
	c-11.4-3.4-22.8-6.7-34.4-9.7c-5.8-1.5-11.7-2.1-17.6-3.1c-2-0.3-4.1-0.4-6.1-1c-15.1-4.6-28.4,0-42.4,7.9c-1.4-1.2-3.4-2.9-5.7-4.9
	c4.8-9.2,12.7-12.9,21.4-14.6c8.9-1.8,18-2,27-3.2c6.7-0.9,13.4-1.7,19.8-3.7c16.7-5.2,32.7-11.4,43.6-26.5
	c5.9-8.2,6.3-14.3,0.5-22.5c-6.4-9.1-12.5-18.4-18.6-27.6c-5.4-8.2-11.1-16.2-15.8-24.7c-2.4-4.4-3.3-9.7-4.4-14.7
	c-1.4-6.6-2.4-13.2-3.6-19.9c-5.5-30.9-10.9-61.8-16.5-92.6c-2-10.7-4.6-21.3-6.7-31.9c-1.2-6.3-1.4-12.9-2.7-19.2
	c-3-14.7-6.4-29.4-9.6-44c-0.4-2-1-4.2-0.7-6.1c1.7-12.3-3-23.5-5.4-35.2c-1.3-6.3-3-6.7-8.4-2.7c-5,3.7-10,7.4-14.8,11.3
	c-4.5,3.6-5.8,8.4-4.7,13.9c0.8,4.1,1.6,8.1,1.8,12.2c0.4,7.9-3.7,14.8-6.1,22c-2.7,8-6.5,15.7-9.8,23.6c-1,2.4-1.4,4.9-2.1,7.4
	c-1.9,6.2-3.5,12.4-5.7,18.5c-4,11.2-8.3,22.2-8.4,34.4c-0.1,7,1.2,13.5,5.2,19.2c5.6,8,5.6,15.8,0.3,23.8c-2.2,3.2-1.7,5.6,1.3,8
	c2.7,2.2,7.5,2.9,7.4,7.2c-0.1,4-0.5,8.6-2.6,11.9c-3.8,6.2-2.2,10.6,2.5,14.9c0.6,0.5,1,1.2,1.4,1.8c3.1,4,8.2,6.8,8,12.7
	c-0.2,7.1-2.2,13.8-6.3,19.7c-4.5,6.3-9.2,12.3-14.9,17.7c-6,5.7-10.7,12.7-9.7,22.5c1,9.4-0.4,19.1,0,28.6
	c0.7,15.9,4.7,31.2,10.8,45.9c0.6,1.5,2.9,2.5,4.6,3.5c3.8,2.2,4.3,4.9,1.4,8.1c-4.2,4.4-10,4.5-14.4,0.2c-4.1-4-5.4-9.3-6.9-14.6
	c-4.6-16.1-7-32.5-7.4-49.1c-0.4-13.8-1.7-28,4.7-41c1.8-3.6,4.4-6.9,7.2-9.9c3.3-3.6,7.2-6.7,10.7-10.1
	C432,1315.9,431.9,1307.9,435.6,1300.8z M427.4,796.8c8.3-2.7,10.4-8,6.1-17.2c-3.9,5.5-6.4,10.9-6,17.4c-4.2,4.7-7.9,13.7-7.1,19.3
	C423.2,808.9,428.9,804.3,427.4,796.8z M1285.4,1265.6c7.7-4.7,15.9-9,23.4-14.4c5.9-4.2,10-10.2,12.7-17.2
	c3.6-9.1,1.9-17.6-0.9-26.5c-2.8-8.7-7.5-16.9-6.5-26.7c0.5-4.3,0.1-8.8-0.1-13.1c-0.7-14.6,5-27.2,12.4-39.2
	c2.6-4.2,5.6-8.1,7.7-12.5c3.9-8.2,3.8-16.4-0.2-24.7c-5.1-10.5-9.9-21.1-14.3-31.8c-3.1-7.6-5.8-15.5-8-23.5
	c-6.4-22.4-10.7-45.4-22.8-65.9c-5.1-8.7-8.9-18.1-8.3-28.7c0.2-3.2-1-6.8-2.4-9.7c-4.9-10.3-9.8-20.5-15.4-30.4
	c-7.5-13.3-15.6-26.2-23.3-39.4c-9.3-15.9-18.4-31.8-27.5-47.8c-7.1-12.4-13.9-24.8-20.9-37.2c-9.5-16.8-15.3-35.6-27.3-51.1
	c-7.4-9.6-14.9-19.1-24.7-26.5c-8.4-6.4-16.7-13.1-24.3-20.4c-10.6-10.2-20.4-21.2-30.8-31.7c-2.5-2.6-5.4-4.8-8.6-6.6
	c-1.5-0.8-4.2-0.7-5.7,0.2c-0.9,0.5-1.3,3.4-0.8,4.9c1.3,3.9,2.7,8,5,11.3c8.2,11.9,16.4,23.9,25.3,35.2c6.4,8.2,14.8,14.9,21,23.2
	c5.7,7.6,11.2,15.9,14.2,24.8c3.7,11,6.2,22.3,11.5,32.8c2.9,5.8,5,11.9,8,17.6c7.3,14,14.8,27.8,22.3,41.7
	c3.4,6.4,7.4,12.5,10.5,19c5.9,12.1,11.6,24.3,16.9,36.6c3.8,8.8,7.2,17.8,10.6,26.7c2,5.2,0.7,10.4-1.7,15c-1.1,2-4,4.5-5.8,4.3
	c-5.8-0.6-11.9-1.3-15.9-6.7c-1.7-2.3-3.7-4.3-5.5-6.5c-6.4-7.8-12.9-15.4-19-23.5c-5.5-7.2-10.2-15-15.6-22.3
	c-11.2-15.2-22-30.6-31.7-46.8c-7.8-13.1-15.5-26.2-25.9-37.6c-5.9-6.5-11.4-13.3-17.4-19.8c-2.4-2.6-6-4.1-8.5-6.6
	c-7.1-7.2-15.9-11.9-25.1-15.2c-16.2-5.8-31.3-13.4-45.9-22.3c-5.9-3.6-12.4-6.6-18.8-9.2c-5.7-2.3-11.8-3.7-17.7-5.5
	c-8.2-2.5-16.3-4.9-24.5-7.4c-5.5-1.7-10.1-0.3-14.8,4.6c3.1,3.9,5.7,8.2,9.2,11.3c6.3,5.7,13.3,10.7,19.9,16
	c4.5,3.6,9.1,6.6,14.7,8.4c9.6,3,18.9,6.8,27.5,12.3c7.8,5,15.9,9.6,25,12.2c1.2,0.3,2.3,1.1,3.4,1.8c14.9,9.2,28.3,19.9,37.8,35
	c2,3.2,5.1,5.8,7.2,9c4.6,6.8,8.1,14.7,13.6,20.7c7.5,8.2,12.7,17.6,18.8,26.6c2.9,4.3,6.1,8.3,8.8,12.8c4.1,6.9,7.8,14,11.5,21.1
	c4.9,9.4,10,18.7,14.4,28.3c3.7,8.2,7.2,16.5,3.5,26c-4,10.3-11.3,13.2-20.6,7.1c-4.5-3-8.8-6.4-13-9.8c-7.4-6-14.7-12.2-22.1-18.3
	c-13.5-11.3-27-22.5-40.4-34c-11.2-9.6-21.9-19.8-33.3-29c-8-6.5-16.7-12.3-25.4-17.7c-6.8-4.2-14.2-7.3-21.2-11
	c-5.2-2.7-11.1-4.8-15.5-8.5c-6.2-5.3-11.3-12-17-18c-2.5-2.6-5-5.2-7.8-7.3c-3.9-2.9-8.3-5.3-12.4-8c-7.9-5.1-14.3-12.7-24.1-14.7
	c-0.2,0-0.4-0.3-0.7-0.4c-3.7-0.9-7.4-2.1-11.1-2.6c-8.7-1.2-14.8,5.4-22.3,7.7c-1.6,0.5-2.6,3.6-3.6,5.6c-3.2,6.5-6,13.2-9.6,19.5
	c-3.7,6.5-7.9,12.8-12.4,18.8c-5.8,7.9-4,16.4-1.9,24.6c1.5,5.9,7.2,7.3,12.3,3.7c2.2-1.6,4-3.9,5.8-6.1c3.6-4.7,6.9-9.7,10.6-14.2
	c6.6-8,15.2-13.1,24.7-16.8c6.4-2.5,12.9-3.9,19.2,0.8c7.5,5.6,15.1,11,22.4,16.8c6.8,5.5,11.4,12.3,14.3,20.8
	c2.2,6.6,5.9,12.7,9.5,18.7c1.5,2.4,4.3,4.5,7,5.6c4.5,1.9,7.9,4.7,10.8,8.6c2.3,3.1,4.7,6.2,7.2,9.1c7.7,9,16.6,17,23.2,27
	c7,10.5,14.9,20.5,22.6,30.6c3,3.9,1.6,7.3-0.4,10.7c-1.9,3.3-4.8,4.4-8.6,3.6c-2.2-0.4-4.6-0.4-6.9-0.4c-7.6,0.1-14.2-2-19.9-7.2
	c-2.1-1.9-4.4-3.7-7-4.7c-8.2-3.1-16.6-5.9-24.9-8.6c-8.6-2.7-17.3-5.2-25.9-7.8c-6.7-2-12.8-1.4-17.7,4.2c-2.5,2.9-4.9,5.9-7.4,8.8
	c-1.5,1.7-3.1,3.5-5,4.6c-18.3,10.3-34.8,23.3-52,35.1c-4.8,3.3-9.3,7.4-13.3,11.7c-1.6,1.8-2.2,5.5-1.6,7.8c0.5,1.8,3.8,4.1,5.8,4
	c4.8-0.2,9.9-0.8,14.2-2.7c8.3-3.6,16.1-8.3,24.1-12.5c1.3-0.7,3-0.7,4.5-1.1c2.7-0.7,5.6-1.1,8.1-2.2c17.6-7.7,36.1-8.8,54.8-7.1
	c2.4,0.2,5,1.6,7,3.1c7.4,5.5,15.7,8.5,24.9,9.1c4.2,0.3,8,1.4,11,4.9c1,1.2,3.5,1.3,5.3,1.8c1.4,0.4,2.9,0.4,4.3,1
	c10.3,4.1,20.3,9.1,31.7,9.4c0.3,0,0.5,0,0.8,0.1c4.7,2,9.6,3.7,14.1,6.1c3,1.6,3.8,5.1,2.6,8.3c-1.3,3.5-4.7,3.8-7.9,3.6
	c-1.3-0.1-2.5-0.6-3.7-1c-5.3-1.9-10.7-3.8-16-5.8c-2.4-0.9-5-1.6-7.1-3c-7.2-4.4-14.9-6.9-23.2-8c-3.1-0.4-5.2,0.2-7.8,2.1
	c-7.7,5.6-15.6,10.9-23.7,16c-2.6,1.7-5.5,3.1-8.5,3.7c-16,3.3-32.1,5.9-48.5,5.9c-14.5,0-27.7-3.3-37.8-14.6
	c-1.2-1.3-2.8-2.3-3.9-3.8c-2.4-3.1-5.3-3.6-9-2.9c-4.3,0.8-8.7,1.8-13.1,1.7c-3.1-0.1-6.9-0.9-9.2-2.8c-10.4-8.6-11-14.9-3.3-26
	c0.4-0.6,0.9-1.3,1.4-1.8c3.5-3.6,3.7-7,1.2-11.8c-4-7.8-6.8-16.2-10-24.4c-2-5-1.8-10.2-0.2-15.3c1.6-4.9,3-9.9,5.1-14.6
	c4.7-10.1,9.4-20.4,18.4-27.6c7.7-6.1,15.5-12.1,23.7-17.5c3.5-2.3,3.9-4.5,2.3-7.7c-2-3.9-4.2-7.8-6.4-11.6
	c-1.6-2.8-4.1-2.8-6.8-2.2c-7.7,1.8-15.2,3.7-15.9,13.6c-0.1,0.7-0.7,1.4-1.1,2.1c-5,10.5-10.3,20.9-15,31.6
	c-7.2,16.4-12.8,33.3-15.8,51c-0.5,3.2-0.1,6.7-0.1,10c0.1,6.2,1.3,12.6,0.2,18.6c-3.6,18-2.5,35.7,2.2,53.1
	c1.5,5.4,3.6,10.9,6.6,15.6c5.9,9.1,11.5,18.3,18.5,26.7c7.4,8.8,15.4,16.6,24.1,24c7.7,6.5,16.2,12.4,20.4,22.1
	c4.3,9.8,10.8,18.2,17.1,26.7c1.8,2.5,3.7,5.1,4.8,7.9c3.2,8.2,6,16.5,9.1,24.7c2,5.3,4.2,10.6,6.1,15.9c4.3,12,7.9,24.2,12.8,35.9
	c6.8,16.5,14.5,32.6,21.7,48.9c0.6,1.4,1.5,2.9,1.6,4.3c0.4,8.6,5.9,15.1,8.9,22.6c2.4,5.9,6.5,11.3,8.3,17.4c1.7,6,1.8,12.2,8,15.8
	c0.8,0.4,1.1,1.7,1.6,2.6c2.7,5,5.3,10,8.1,15c3.1,5.4,6.3,10.7,9.4,16.1c6.6,11.1,13.3,22.2,19.9,33.3c0.7,1.1,1,2.4,2,4.9
	c9.1-10.5,16.8-18.9,23.9-27.7c5.9-7.4,11.1-15.4,18.4-21.6c1.8-1.5,3.4-3.2,4.9-5c11.8-13,23.5-26,35.3-39c0.9-0.9,2-1.6,3-2.5
	c6.5-5.8,12.9-11.7,19.4-17.6c2.5-2.2,4.8-4.7,7.5-6.7c4.8-3.5,10.2-6.2,14.5-10.3c5.8-5.5,11.4-11.7,8.8-20.9
	c-1.5-5.2-3.8-10.1-5.5-15.3c-1.2-3.8-3.8-6.1-7.2-7.7c-4.8-2.3-9.7-4.4-14.9-6.7c-1.5,2.3-2.4,4.2-3.7,5.7
	c-5.2,6.1-9.8,12.8-15.9,17.8c-11.2,9.1-25.4,10.7-39.1,13.7c-4.2,0.9-8.4,1.9-12.7,2.2c-7.4,0.6-14.9,0.5-22.4,1.3
	c-5.6,0.6-10.7-0.3-15.9-1.9c-3.2-1-6.5-1.8-9.7-2.9c-3.9-1.3-7.7-2.7-11.4-4.4c-4.7-2.2-9.2-4.6-13.8-7c-2.5-1.3-5.3-2.2-7.4-3.9
	c-7.9-6.3-16-12.4-23.2-19.4c-7.4-7.3-14.3-15.3-18.1-25.1c-9.4-23.9-10.3-32.7-7.7-60c0.3-3-0.6-4.9-3-6.6
	c-5.3-3.7-10.6-7.4-15.8-11.2c-2.3-1.7-5.3-2.9-6.6-5.2c-6.3-11-16.3-19.3-21.4-31.3c-2.4-5.8-7.6-10.3-11.3-15.6
	c-3.4-4.9-5.8-10.9-2.3-16c3.8-5.7,9.8-9.6,16.6-11.7c0.9-0.3,2.1,0.1,3,0.5c7.7,3.5,17,3.2,23.2,10.1c0.5,0.5,1.4,0.6,2.1,1
	c15.4,7.9,30.8,16,44.1,27.4c2.7,2.3,5.8,3.9,8.8,5.9c1.4-1.3,2.1-2.1,2.9-2.6c6.4-3.9,12.5-9.9,19.4-11c11-1.7,21.8-4.2,32.8-5.6
	c10.8-1.3,21.3,2,31.2,5.1c15.3,4.8,29.7,12.1,39.5,25.9c1.1,1.5,3.9,2.9,5.8,2.7c3.7-0.5,7.2-2.2,11.6-3.6
	c-3.4-8.4,0-18.2-7.8-24.9c-1.7-1.5-3.3-3.2-4.9-4.8c-3.1-3.2-3.6-7.7-1.2-10.5c2.7-3.1,5.6-3.4,9.7-0.9c1.7,1.1,3.6,2.3,4.7,3.9
	c4.8,7.1,8.9,14.5,8.5,23.6c-0.1,1.8-0.1,3.8,0.7,5.3c3.9,7.2-0.5,12.4-4.1,17.7c-0.9,1.3-2.9,2.6-4.4,2.6
	c-6.6,0.1-12.1,3.4-17.1,6.7c-8.7,5.5-18.4,6.7-28,8.5c-2.4,0.5-5.5,0.1-7.5-1.2c-10.1-6.3-21.8-7.9-33-10.7
	c-11.5-2.9-23.2-5-34.8-7.3c-4.1-0.8-8.2-1.8-12.3-1.8c-10.9,0-20.3-3.4-27.3-11.9c-8.3-10.2-20.4-14.6-31.1-21.3
	c-5.2-3.3-11-5.9-15.8-9.6c-4.9-3.8-10.4-4.6-16-4.9c-2-0.1-4.9,1.2-5.8,2.8c-0.8,1.4,0.2,4.4,1.3,6.1c2.7,4.3,6.2,8.2,8.9,12.6
	c3.2,5,5.2,10.9,8.9,15.5c7.7,9.7,15.5,19.2,26.5,25.7c15.9,9.4,30.5,21,48.1,27.5c14.3,5.2,28.5,10.8,42.8,15.8
	c12.7,4.5,25.5,8.8,36.8,16.4c2.5,1.7,5.5,3.4,8.4,3.5c10.8,0.5,17.9,7.2,25.5,13.5c5.1,4.2,10.7,7.4,17.6,8.7
	c13.8,2.7,28.2,4.4,39.8,13.6c0.7,0.6,1.9,0.4,2.9,0.7c12.3,3.7,25.4,5.9,36.8,11.6c11.9,5.9,24.5,9.6,36.7,14.3
	c11,4.2,23,5.7,34-1.6c1-0.7,2.4-1,3.6-1.3c6.8-1.5,13.6-2.9,20.4-4.5C1269.9,1261.3,1277.4,1260.5,1285.4,1265.6z M662.9,1467.5
	c0.8-0.1,1.5-0.2,2.3-0.3c2.5-11.1,5-22.1,7.5-33.1c3.8-16.9,6.5-34.2,11.5-50.8c5.4-17.7,8-35.8,10.6-53.9
	c2.7-19.2,5.2-38.4,7.8-57.7c1.9-14.1,4-28.2,5.9-42.3c1.8-13.6,3.5-27.3,5.1-40.9c1.6-13.6,3.1-27.3,4.5-40.9
	c0.5-4.4,0.6-8.8,1.1-13.1c1.2-11,1.8-22.2,4.2-32.9c2.6-11.6,6.9-22.7,10.5-34.1c5.8-18.6,4.6-35.7-10.3-50.1
	c-5.6-5.4-10.2-11.7-13.4-18.9c-2-4.4-4.6-8.5-7.5-13.7c0,5.8-0.5,10.4,0.1,14.8c1.3,10.3,1.6,20.2-2.5,30.4
	c-3.5,8.9-7.3,17.6-11.7,26c-0.7,1.3-1.8,2.6-2.9,3.6c-15.3,13.5-31.8,25-52.3,29.3c-5.8,1.2-11.7,2.3-17.5,2.6
	c-4.8,0.2-9.6-1.9-14.4,1.1c-1.1,0.7-3.4-0.4-5.2-0.7c-16.2-2.8-29.6-11.9-43.6-19.7c-4-2.3-8-4.9-11.4-8
	c-11.4-10.1-17-23.2-18.6-38.2c-0.4-3.7-1.2-7.4-2-11.9c-4.4,4.3-7.7,8-11.3,11.1c-4.4,3.7-5.3,8-3.5,13.2
	c7.2,21.2,9.7,43.5,13.4,65.4c3.3,19.2,9.8,37.5,12.2,56.9c2.4,20.2,8.4,40,12.2,60.1c3,16,4.4,32.4,7.9,48.3
	c2.7,12.6,6.1,25.4,11.7,37c10.4,21.9,22.3,43.1,34.1,64.3c9.6,17.4,20,34.3,30,51.5c1.4,2.4,2.6,5.2,4.6,7.1
	c10.3,10,18.6,21.5,26.8,33.2C660,1464.1,661.5,1465.8,662.9,1467.5z M906.3,700.1c3.5-2,6.3-3.3,8.8-5c8-5.4,16.2-5.7,25.1-2.3
	c5,1.9,10.3,3.1,15.7,4c5.7,1,6.7,0.3,7.1-5.1c0.9-11.7,0.7-23.5-4-34.5c-6-14.3-12.9-28.1-18.3-42.8c-8.7-23.6-19.2-46.5-29-69.6
	c-0.8-1.9-1.3-3.9-2.1-5.9c-8.5-23.4-15.9-47.2-26.9-69.6c-0.8-1.6-1.5-3.3-2.1-5c-6.8-18.7-13.3-37.5-20.3-56.1
	c-3.1-8.2-7.2-16-10.9-24.2c-2,0.7-3.7,0.8-4.8,1.7c-4.3,3.4-7.3,7.9-9.4,13c-0.8,1.9-1.7,3.8-2.8,5.5c-4.7,7.1-9.6,14.1-14.2,21.2
	c-3.6,5.6-6.7,11.6-10.4,17.1c-6.2,9.2-12.9,18-19.1,27.2c-9.2,13.7-18.2,27.6-27.2,41.5c-0.6,0.8-0.9,1.9-1.2,2.8
	c-2.7,8-7.4,14.8-13,21c-5.9,6.5-12.9,12.1-16.1,20.7c-0.3,0.9-1.2,1.7-2,2.3c-8,6.4-11.7,14.8-12.4,24.9c-0.1,1.9-1,4.2-2.3,5.5
	c-2.6,2.5-2.6,5.1-2.1,8.5c3.9,25.4,6.8,50.9,13.6,75.8c0.8,2.7,1,5.6,1.4,8.4c2.6,18.7,8.4,36.2,18.3,52.3c1.2,2,2.4,4.1,4,5.7
	c9.4,8.9,18.9,17.7,28.5,26.4c3.2,2.9,7.4,5,10.2,8.2c8.3,9.5,16.2,19.5,24.3,29.2c2.4,2.9,5.1,5.6,8,8.7
	c5.8-5.9,9.6-11.9,12.7-18.5c2.8-6,6-12.1,10.1-17.3c3-3.8,6.8-7.6,12.9-7c2.2,0.2,4.5-1.3,6.8-1.6c3.1-0.5,6.3-1.3,9.2-0.6
	c9.3,2.2,18.7,4.2,26.6,10.2c5.4,4,11.5,7,17.1,10.8c9.3,6.2,17.9,12.7,24.4,22.3c7.1,10.5,17.3,17.6,31.7,16.6
	c0.1-2.1,0.4-3.8,0.3-5.5c-1.1-17.9-2.6-35.7-3.1-53.6c-0.2-6.4-0.8-7.7-7.7-10.7c-3.3-1.5-6.9-2.4-9.8-4.4
	c-13.2-8.7-25.4-18.7-36.4-30c-3.9-4-7.5-8.2-11.3-12.4c-7.4,14.6-17.7,26.7-29.8,37.3c-4.8,4.2-10.5,8.2-16.4,10.1
	c-14.6,4.8-29.6,8.8-44.9,3.9c-8.6-2.8-16.8-6.5-25-10.4c-11.4-5.4-20.3-14.2-29.5-22.6c-11.8-10.8-18.8-24.9-24.2-39.4
	c-6.8-18.6-4.4-37.5,3-55.5c5.8-14.2,16.7-23.3,32-26.9c6.8-1.6,13.5-3.8,20-6.4c15.5-6.2,31.4-6.7,47.4-3.9
	c16.1,2.8,30.6,9.8,42.5,21.3c5.7,5.5,11.3,11.5,15.8,18c8.4,12.4,14.4,25.8,13,41.5C907,684.1,906.8,691.6,906.3,700.1z
	 M535.9,511.9c0.6-0.2,1.2-0.5,1.8-0.7c-0.3-2.9,0-6-0.9-8.6c-3.3-9.8-6.9-19.5-10.6-29.2c-4.4-11.3-9.2-22.5-13.6-33.9
	c-7.6-19.9-11.8-40.8-16.6-61.4c-0.8-3.3-1.5-6.6-2.6-9.8c-3.5-10.5-7.1-21-10.7-31.6c-1.2-3.6-3.1-5.6-7.3-6.8
	c-9.4-2.6-18.8-3-28.4-3.2c-19.9-0.5-39.8-1.5-59.7-0.1c-7.4,0.5-13.3,5.7-11.9,13c1.6,8.4,2.7,16.9,4.9,25.1
	c3.1,11.3,5.9,22.5,6.5,34.3c0.2,3.9,1,7.7,1.7,11.5c2.3,13,4.6,26,7,39c3,16,6.1,32,9.2,48c3,15.8,6.5,31.5,9.1,47.3
	c3.5,21.7,6.2,43.6,9.3,65.3c0.7,4.6,1.8,9,6.8,13.8c1.3-2.1,2.2-3.9,3.5-5.6c4.6-6.2,11-6.9,18.1-6.1c4.2,0.5,7.2,2.5,8,6.3
	c1.2,6,2.1,12.2,1.8,18.3c-0.3,6.7-2.3,13.2-3.2,19.9c-0.4,2.9-0.1,5.8-0.1,8.7c0.6,0.2,1.2,0.3,1.8,0.5c1.4-1.7,2.8-3.4,4.1-5.1
	c13.7-17.8,31-30.5,52.8-36.3c9-2.4,18.5-3.3,27.7-0.3c6.1,2,11.9,4.6,17.8,7.2c3.4,1.5,5.9,1,8-2.1c2.3-3.3,3.6-6.5,2.9-10.8
	c-2.1-14.3-3.4-28.8-5.9-43.1c-1.3-7.3-3.1-15.2-7.2-21.1c-6.2-8.8-14.5-16.2-22-24c-3.8-3.9-8.3-5-13.5-2.8
	c-4.5,2-8.7,0.7-12.7-1.3c-6.8-3.5-9.8-14.6-5.3-19.4c5.2-5.6,19.5-8.1,24.8,0.5C532.3,509.2,534.3,510.4,535.9,511.9z
	 M1447.7,1490.1c-0.8-1.4-1.2-2.6-2-3.6c-8.4-10.8-16.8-21.6-25.4-32.2c-12-14.8-23.6-30.1-36.6-44.1
	c-10.4-11.3-19.6-23.3-28.8-35.5c-3.7-4.9-8.1-9.3-12.2-14c-5.5-6.2-10.9-12.4-16.6-18.3c-9.8-10.3-19.8-20.4-29.9-30.4
	c-10.9-10.9-20.7-23-35.2-29.9c-4.2-2-7-2.2-10.5-0.3c-1.4,0.7-2.8,1.4-4.1,2.3c-8.3,5.4-16.7,10.6-16.1,22.5
	c0.2,3.8-3.2,4.8-6.6,5.1c-3.4,0.3-4.9-1.8-5.4-4.4c-0.7-3.5-0.9-7.2-0.9-10.8c0-2.8-0.3-5.2-3.1-6.5c-4.9-2.3-9.8-4.5-14.7-6.8
	c-11.1-5.3-23.2-8.5-33.9-15.1c-5.3-3.2-11.4-7.9-19.2-3.2c0.5,1.7,0.6,3.9,1.7,5.4c9.6,14,1.2,28.4-8.3,37.4
	c-8.9,8.4-19.3,15.4-28.5,23.8c-6.9,6.3-11.4,15.5-21,18.9c-0.6,0.2-0.8,1.3-1.3,1.9c-2.7,3.4-5.4,6.8-8.2,10.1
	c-4.1,4.8-8.4,9.4-13.3,14.9c3.2,0,5.2,0.2,7.2,0c21.1-2.9,41.8-1.1,62.3,4.7c13.1,3.7,26.3,7.2,39.5,10.8c1.7,0.5,3.5,1.1,5.1,1.8
	c9.9,4.2,19.8,8.4,30.4,12.9c0.8-2.9,1.8-5.8,2.4-8.7c1.2-5.8,2.3-11.6,3.2-17.5c2.7-16.1,6.7-32,6.1-48.5c-0.2-5.4,1.7-9,6.9-10.5
	c4.3,1,6.2,3.6,7.2,8c1.7,7,0.5,13.7-2.3,19.7c-2.8,5.9-2.9,12-4.3,18c-0.8,3.5-1.3,7.1-2.2,10.6c-1.1,4.8-3.8,9.7-3.1,14.2
	c0.7,5.1-0.6,9-2.4,13.2c-2.3,5.3-0.6,10.4,4.7,13.3c11.8,6.4,23.6,12.7,35.3,19.2c11.5,6.5,23.2,12.4,35.6,16.8
	c6.1,2.2,12.4,3.8,18.2,6.7c16.3,8,33.4,13.7,50.7,18.8c11.7,3.5,23.5,5.7,35.6,7.3C1418.1,1489.7,1432.3,1493.2,1447.7,1490.1z
	 M1099.2,1387.2c-10.6,1.2-20.9,2.6-31.2,3.6c-12.8,1.3-21.7,9-29.8,18c-8.3,9.2-15.2,19.4-21,30.5c-5.9,11.3-8.8,22.8-4.4,34.9
	c3.8,10.7,4.4,21.7,5.4,32.7c0.3,3.6,1.5,6.3,4.1,8.8c6.8,6.7,13.3,13.7,20.2,20.3c2.9,2.9,6.1,5.6,9.5,7.8
	c8.1,5.3,16.9,8.5,26.7,9.3c11.6,1,23.1,3.1,34.6,4.6c4.7,0.6,9-0.2,13.6-1.7c11.2-3.5,19-11.3,26.1-19.6c6.5-7.5,12-16.1,16.7-24.8
	c6.2-11.6,10.7-24.1,16.9-35.7c8-14.9,12.9-30.9,19-46.5c2.2-5.6,1.4-7.9-3.9-11c-8-4.5-15-10.3-24.5-12.6
	c-19.3-4.6-38.3-10.8-57.6-15.9C1113,1388.4,1105.9,1388.1,1099.2,1387.2z M495,332.2c-0.5,0.5-0.9,1-1.4,1.5
	c1.1,3.7,2.2,7.4,3.3,11.1c2.9,9.1,6.3,18.1,8.5,27.4c5.2,21.9,8.5,44.2,19.2,64.4c0.7,1.4,1.2,2.9,1.8,4.3
	c7.9,21.1,15.7,42.2,23.6,63.3c0.8,2.2,1.9,4.3,3.2,6.2c4,6.3,8.3,12.5,12.2,19c2.7,4.4,4.8,9.1,7.2,13.7c2.4,4.6,4.2,9.5,7.3,13.6
	c10.8,14.3,20.3,29.4,28.8,45.1c3.1,5.7,5.8,11.6,8.9,17.3c7.5,13.9,15.2,27.7,22.7,41.6c4.4,8.2,8.6,16.5,13,24.8
	c9.7,18.3,19.3,36.6,29,54.9c3.7,7,7.3,14.1,12.8,20.8c7.4-5,14.5-9.7,17.7-17.7c3.8-9.7,5.8-20,4.5-30.4c-1.5-11.6-3.9-23-6.2-34.5
	c-1.5-7.6-3.1-15.3-5.4-22.7c-6.2-20.3-18.5-36.9-32.8-52.1c-7-7.5-15.2-14-23-20.8c-6.2-5.4-12.3-11.2-19.3-15.7
	c-14.2-9.1-28.2-18.3-40.6-29.8c-7.5-7-14.1-14.6-18.8-23.5c-4-7.5-7-15.6-11.1-23.1c-10-18.4-14-38.5-16.7-58.8
	c-2-14.3-5.9-27.8-11.1-41.1c-3.6-9.2-7.9-18-8.9-28c-0.6-6.2-2.5-12.2-3.8-18.3c-0.6-3-2-5.2-5.1-6.2
	C508.1,336.5,501.5,334.3,495,332.2z M756.8,1134.3c-1.1,3.6-2.2,6.4-2.8,9.3c-0.9,4.6-1.3,9.2-2.3,13.8c-2.2,10.1-5,20-6.8,30.2
	c-3.3,19.1-6,38.3-9.1,57.5c-1.1,6.6-3.2,13.1-4,19.8c-2.5,19.2-3,38.6-7.1,57.6c-0.3,1.5-0.5,3.1-0.4,4.6c0.1,1.2,0.7,2.4,1.2,3.8
	c1.7,0,3.3,0.1,4.8,0c10.9-0.6,21.8-1,32.3,2.6c2.2,0.7,4.5,2.3,6.5,2c7-1.1,13.2,0.3,19.4,3.6c2.8,1.5,5.5,0.9,6.8-2.8
	c2.7-7.8,5.8-15.4,8.3-23.3c2.7-8.1,4.7-16.4,7.5-24.5c1.8-5.2,2-10,0.1-15.2c-3.1-8.5-6-17.1-8.8-25.7c-2.4-7.1-4.3-14.3-6.8-21.4
	c-2.2-6.4-4.8-12.6-7.2-18.9c-3.9-10.2-6.9-20.8-12-30.3c-7-13.1-12.7-26.5-16.9-40.7C759.4,1136,758.7,1135.8,756.8,1134.3z
	 M977,1470.6c0.4-0.3,0.8-0.6,1.3-0.8c-1.7-5.6-3-11.4-5.3-16.8c-4.9-12-10.4-23.7-15.6-35.6c-14.4-33-27.2-66.8-43.5-99
	c-9.7-19.2-18.1-39-27.3-58.5c-5.4-11.5-11-22.8-16.6-34.2c-1-1.9-2.5-3.6-4.6-6.4c-5.5,7.9-9.8,15.3-15.2,21.7
	c-3.6,4.2-4.2,8.5-3.1,12.9c2.2,8.8,4.5,17.6,9.7,25.3c1.7,2.6,3.2,5.3,4.4,8.2c7.3,18.3,14.3,36.6,21.6,54.9
	c8.1,20,16.3,39.8,24.7,59.7c1.3,3,3.6,5.7,6,7.9c4.1,3.9,8.8,7.2,12.8,11.1c10.8,10.4,21.3,21.1,32,31.6
	C964.5,1458.6,970.8,1464.6,977,1470.6z M839.9,1234.3c9.9-12.7,16-25.2,23.2-37c1.4-2.4,2.9-4.8,4.6-6.9c6.5-7.6,6.1-12.5-0.2-20.4
	c-5.4-6.8-10.9-13.6-14.4-22c-2.4-5.7-5.5-11.3-11.3-15.3c-7.6-5.3-14.7-11.5-21-18.2c-9.7-10.3-20.1-20.2-25.5-33.9
	c-0.5-1.4-1.8-2.5-2.8-3.7c-7-8.2-11.7-17.3-13.7-28.2c-2.5-14.4-3.8-28.6-2.5-43.2c0.9-10.2,0.2-20.5,0.2-29.8
	c-1.6,9.5-3.2,19.9-5,30.4c-1.3,7.4-3,14.7-3.8,22.2c-0.4,4.2,0.1,8.8,1.5,12.8c2.8,8.1,5.7,16.1,4.6,24.9c-0.2,1.5,0.3,3.1,0.3,4.7
	c-0.1,5.2-0.1,10.3-0.5,15.4c-0.4,4.9-1.4,9.7-1.9,14.5c-0.4,4.1-0.1,8.3-0.5,12.4c-0.5,6.1,0.7,11.2,6.2,14.8
	c1.7,1.1,3,2.8,4.2,4.5c9.8,14,19.7,27.8,29.1,42c3.6,5.3,5.6,11.7,8.9,17.2c6.2,10.2,11.4,20.8,14.9,32.3
	C835.6,1227.2,837.6,1229.9,839.9,1234.3z M685.9,1442.2c2.9-1.1,4.3-1.6,5.8-2.2c16.5-6.8,33.9-9.2,51.3-11.4
	c6.9-0.9,13.9-1.3,20.8-2c3.4-0.4,5.4-2.1,6.3-5.7c1.7-6.5,4.1-12.8,6-19.2c1.8-6.2,3.4-12.4,5-18.7c1-4.2,1.8-8.6,2.8-12.8
	c1.2-5,2.5-9.9,3.9-15.2c-14.7-8.1-30.1-11-45.9-11.5c-10.2-0.3-20.5,1.5-30.8,2.2c-4.3,0.3-5.6,3-6.5,6.5c-2.7,11-5.7,22-8.3,33.1
	c-3.7,15.6-7.1,31.2-10.5,46.9C685.4,1435,685.9,1438,685.9,1442.2z M649.7,892.7c4.1-2,7.1-3.6,10.1-4.9c5.8-2.6,10.9-1.7,15.6,2.9
	c5.1,5,7.5,11,8.7,17.8c0.4,2.3,0.5,5.6,1.9,6.5c5.7,3.3,11.9,6,18,8.7c0.7,0.3,2-0.3,2.9-0.8c8.8-5,17.6-9.9,26.2-15.2
	c3.3-2,4.5-4.9,4.1-9.2c-1.6-17.8-7.3-34.4-14-50.8c-3.6-8.9-7.2-17.8-11-26.6c-2.1-5-4.3-10.1-7.1-14.7c-3-4.9-5.6-4.9-9.8-1
	c-1.7,1.6-3.5,3.1-5.5,4.3c-7,4.3-14.1,8.6-21.2,12.7c-4.2,2.4-8.3,5-13.7,4.8c-3.7-0.2-6,2.1-6.3,6.4c-0.8,12.9-2.2,25.8-2.9,38.7
	C645.4,879,646.3,885.6,649.7,892.7z M1108.3,936.2c0.2-0.3,0.4-0.6,0.6-0.9c-3.1-3.4-6.2-6.9-9.3-10.3c-4.8-5.3-9.6-10.6-14.3-16
	c-6.7-7.6-14.4-14.1-22.6-19.9c-5-3.5-6.5-8.2-5.2-14.3c3.1-15.1,1.3-29.8-4.6-44.1c-1.5-3.6-3.1-7.3-3.4-11.1
	c-0.5-5-2.6-8.8-5.9-12.3c-1.1-1.1-2.2-2.2-3-3.6c-3.5-6.6-9-11.3-15-15.2c-8.2-5.3-16.7-10.4-25.3-14.9c-4.7-2.4-10-3.6-15.4-5.4
	c-0.7,9.7-1.4,18.4-2,27.2c-0.1,1,0.2,2.1,0.2,3.1c0.7,9,1.7,18,2.1,27c0.3,8.9,3.4,15,11.4,20.3c14.5,9.8,28.1,21,41.5,32.3
	c17,14.3,32.6,30.3,51.7,41.9c2.4,1.4,4.2,3.8,6.4,5.7C1100.2,929.2,1104.2,932.7,1108.3,936.2z M1291.4,1294.1
	c3.3,1.3,6.3,1.7,8.4,3.5c5.1,4.3,9.9,9.1,14.5,14c2.1,2.2,3,5.6,5.1,7.7c6.2,6.1,13.1,11.5,19.2,17.8c9.1,9.2,18.4,18.3,26.2,28.5
	c8.9,11.7,16.6,24.2,27.2,34.7c6.9,6.9,12.5,15.1,18.7,22.7c8.4,10.1,16.8,20.1,25.2,30.2c10,12.1,20,24.2,29.9,36.2
	c10.7-0.7,12.5-3.1,9.5-12.4c-0.7-2.2-1.7-4.3-2.8-6.3c-7.5-13.2-18.4-23.7-28.8-34.3c-9.1-9.2-17.7-18.7-25.1-29.4
	c-3.4-4.9-6.7-9.9-10.2-14.7c-8.2-11.3-16.7-22.4-24.8-33.7c-4.5-6.3-7.9-13.4-12.7-19.5c-11.3-14.5-23.2-28.5-34.8-42.8
	c-8.5-10.5-17.9-19.8-29.8-26.9c-7.1,4.1-16.1,3.8-22,9.9C1286.9,1284.4,1289.2,1289.4,1291.4,1294.1z M775.2,962.8
	c0.8,0.1,1.6,0.1,2.4,0.2c0.5-1.6,1.2-3.1,1.6-4.8c4-16.9,9.7-33.2,17.5-48.7c5-9.9,9.3-20.2,14.2-30.2c2.5-5.1,2.5-10.4,0.3-15.1
	c-5-10.6-3.2-21.5-1.9-32.1c0.6-4.6-0.2-7.9-2.8-11.4c-4.7-6.5-8.8-13.4-13.7-19.8c-7-9-13.6-18.3-22.8-25.3
	c-5.8-4.4-11.3-9.1-16.9-13.6c-1.4-1.1-2.8-2.1-4.9-3.8c-1.6,2.9-3,5.2-4.1,7.7c-2.5,5.4-2.2,6.3,2.6,9.6c3.8,2.7,7.7,5.2,11.6,7.9
	c12.6,8.6,20.7,19.8,22.8,35.4c2,14.3,0.8,27.8-5.3,41c-4.3,9.4-7.9,19.1-12,28.6c-2,4.6-1.9,9,0.7,13.4c7.8,13.2,8.5,28.1,9.5,42.8
	C774.5,950.6,774.8,956.7,775.2,962.8z M565.4,456.6c-0.6,0.2-1.2,0.5-1.9,0.7c0.5,2.7,0.6,5.6,1.5,8.1c3.5,9.2,6.8,18.5,10.9,27.3
	c3.6,7.7,7.6,15.4,12.5,22.3c11.7,16.5,28.7,27.3,44.8,39.1c8.5,6.2,17.1,12.4,25.5,18.8c4.9,3.8,9.7,7.8,14.4,11.8
	c3.7,3.2,7.2,6.6,10.6,10.2c4.1,4.3,7.8,8.9,11.9,13.2c1,1.1,2.8,1.5,5.2,2.7c-0.4-5.5-0.9-9.8-1-14.2c-0.1-3.1-0.2-6.3,0.6-9.2
	c2.1-7.8-0.5-13.9-5.1-20.2c-9.5-13-22.1-22.5-34.5-32.2c-5.1-3.9-11-6.7-16.3-10.3c-10.9-7.5-21.6-15.2-32.4-22.8
	c-3.8-2.6-8.3-4.5-11.4-7.7c-8.8-9-17.1-18.6-25.7-27.9C571.9,463,568.6,459.8,565.4,456.6z M610.5,711.1c-0.7,0.7-0.9,0.9-1,1.1
	c-0.3,1.5-0.5,3-0.8,4.6c-1.9,11.6-4.6,22.6-12.4,32.1c-11.1,13.5-24.2,22.4-42.3,21.8c-2.8-0.1-5.7-0.1-8.5,0
	c-7.3,0.2-14.3-0.2-21-4.2c-4.5-2.6-6.6-2-8.7,2.8c-3.2,7.3-6.6,14.8-8,22.5c-1.3,7.2-3.6,13.9-6.2,20.6c-4,10.4-8.1,20.7-12.1,31.1
	c-0.8,2.1-1.8,4.3,0.7,6.7c1.1-0.5,2.4-0.8,3.2-1.7c7.2-7.5,15.2-14.3,21.1-22.7c8.6-12.3,19.8-21.6,31-31.2
	c2.9-2.5,6.5-4.5,10.1-5.7c6.1-2.1,12.5-3,18.7-5c14.2-4.5,28.7-6.9,43.6-6.4c3,0.1,6-0.4,9-0.7
	C625.3,756.8,620.1,722.9,610.5,711.1z M849.1,1436.9c3.6-5.9,6.9-11.4,10.3-16.8c4.2-6.4,4.3-13,1.3-19.9c-1.8-4-3.1-8.3-5.1-12.2
	c-1.4-2.7-3.2-5.6-5.5-7.3c-4.9-3.7-10-7.4-15.6-10.1c-7.4-3.5-15.4-5.9-23.1-8.9c-10-4-12.5-2.8-15.6,7.6c-0.2,0.7-0.3,1.5-0.5,2.3
	c-2.3,9-4.6,18-6.9,27c-1.8,7-3.9,13.9-5.4,21c-1,4.9-0.2,5.7,4.8,6.6c4.3,0.8,8.6,1.8,13,2.2c12.1,1.3,24,3.4,35.8,6.5
	C840.6,1435.9,844.8,1436.2,849.1,1436.9z M648.8,1477.3c-0.8-2.8-0.8-4.5-1.6-5.8c-4.4-7-8.6-14.1-13.4-20.9
	c-4.3-6.1-9.8-11.4-13.8-17.7c-8.4-13.1-16.2-26.5-24.4-39.8c-2.7-4.3-5.8-8.4-8.9-12.8c-3.2,7.1-5.5,13.6-8.9,19.5
	c-8.1,13.7-19.4,23.9-34.6,29.6c-3.8,1.4-8.1,2.8-11.4,7.2c6.4,2.1,11.8,3.9,17.1,5.7c9.1,3,18.3,5.6,27.2,9
	c5.9,2.3,11.3,5.9,17.1,8.6c11.5,5.3,23.1,10.2,34.5,15.6C634.3,1478.7,641,1478.4,648.8,1477.3z M681.4,766.6
	c-5-10.7-9.7-21.7-15.2-32.2c-9.2-17.4-19.1-34.4-28.5-51.8c-6.4-11.9-12.3-24-18.5-36c-2.1-4-4.2-8.1-8.5-11.1
	c-3,5.6-6.2,10.7-8.3,16.2c-1.2,3.2-1.8,7.4-0.7,10.5c2.7,7.2,5.8,14.6,10.1,21c10.7,15.7,17.1,33.2,21.8,51.3c3,11.5,5,23.3,7.3,35
	c1.4,7,3.4,8.6,10.6,8c3.9-0.3,7.8-0.8,11.6-0.8C670.5,776.6,676.2,773.8,681.4,766.6z M548.2,881.5c-2.3,2.7-3.9,4.7-5.5,6.6
	c-3.8,4.6-7.6,9.1-11.3,13.7c-5.5,6.8-11,13.7-16,20.8c-1.1,1.5-1.3,4.6-0.5,6.4c1.1,2.5,3.9,2,6.2,1c3.7-1.6,7.3-3.5,11.1-5
	c6.3-2.4,12.9-4,18.9-6.9c7.1-3.3,14.6-3.9,22-3.5c16.5,0.9,32.4-0.5,47.9-6.8c8.5-3.4,11.2-6.4,11.5-13.5
	c0.6-11.9,1.5-23.7,2.2-35.6c0.1-2.4,0.9-5-2-7.1c-1,1.7-1.7,3-2.5,4.3c-5.5,9.8-13.2,17.5-22.6,23.8c-7.8,5.3-16.7,6.6-25.6,8.4
	C570.2,890.6,558.8,890.8,548.2,881.5z M704.4,779.7c21.1,33.4,32.9,69.1,45,106.3c2.5-3.1,4.2-4.7,5.1-6.6
	c2.5-5.1,4.8-10.3,7.1-15.5c5.3-11.7,8.7-24,8-36.8c-0.7-11-3.6-21.5-13.2-28.7c-4.3-3.2-8.5-6.8-13.2-9.5
	C732,782.2,720.1,777.6,704.4,779.7z M334.4,1286c-2,6.2-0.7,11.5,0.4,16.6c2.1,9.4,4.2,18.7,4.6,28.3c0.3,7.7,1.7,15.4,2.8,23.1
	c1.1,7.7,2.6,15.3,3.8,23c0.7,4.6,0.8,9.3,1.9,13.8c4,16.2,11.3,31.1,19.2,45.6c2.1,3.8,4.8,7.2,7.2,10.7c1-2,0.9-3.3,0.6-4.5
	c-2.3-8.5-5-16.8-6.9-25.4c-1.6-7.1-2.3-14.3-3.1-21.5c-0.5-3.8-0.5-7.7-0.6-11.5c-0.1-9,3-18.1-0.1-27c-2.7-7.8,0-15.2,1-22.8
	c1.4-11.2,2.2-22.4-8.6-30.2c-0.8-0.6-1.2-1.7-1.9-2.5C349,1295.7,342.5,1290.5,334.4,1286z M928.4,885.7
	c-4.6-10.6-8.6-20.1-12.8-29.5c-0.6-1.4-1.7-2.6-2.8-3.7c-7.3-7.8-15.3-14.6-24.9-19.4c-4.3-2.1-9.3-3.1-13.4-0.5
	c-6.3,4.1-12.1,8.9-17.8,13.7c-3.5,3-4.5,8.8-2.3,12c4,6,8.3,11.8,12.5,17.7c3,4.3,6.7,5.7,12,4.3c10.9-2.9,21.9-3.4,32.8,0.8
	C916.6,883,921.7,883.9,928.4,885.7z M754.9,917.5c0.2,2.5,0,5.2,0.7,7.6c1.9,6.3,1.9,12.8,1.4,19.2c-1.2,17.1-3.2,34-13.7,48.6
	c-1.5,2.1-1.6,5.4-1.8,8.2c-0.3,2.8,0.5,5.8,0.1,8.5c-0.7,4.7,0.9,8.4,3,12.5c6.1,12.2,7.5,25.3,5.4,38.6c-0.8,4.8-2.8,9.4-4.3,14.1
	c-2.8,8.6-5.8,17-8.3,25.7c-1.3,4.6-2.9,9.4-0.5,14.5c3.2,0.2,6.3,0.3,9.4,0.5c3.2,0.2,6.4,0.5,9.7,0.8c1.3-10.4,1.8-20,3.8-29.3
	c3.1-14.6,1-28.7-3.9-42c-3.1-8.3-3.2-15.9-1.4-24.1c3.3-15.4,7.3-30.8,6.9-46.8c-0.2-6.5,0.2-13-0.2-19.4
	C760.3,942.1,759.6,929.4,754.9,917.5z M837.6,1265.4c-2.7,4.1-4.1,7.2-6.3,9.5c-3.8,3.8-3.2,7.7-1.5,12.1
	c9,23.7,17.6,47.5,26.9,71.1c2.9,7.3,5.1,15.4,13.3,19.3c4.8,2.3,9.5,4.9,15.6,8C872.8,1343.6,854.9,1305.4,837.6,1265.4z
	 M738.4,920.5c-6.8,1.4-29.1,14.7-42.1,24.9c0.8,2.1,1.3,4.7,2.6,6.8c5.1,8.4,10.2,16.8,15.7,24.9c1.1,1.7,3.5,2.8,5.6,3.6
	c1.9,0.7,4.1,0.5,6.1,0.8c7.1,1.1,8.2,0.5,11.2-6c0.9-1.9,1.5-3.8,2.2-5.8c3.9-10.9,3.3-22.4,3.5-33.7
	C743.4,930.7,742.5,925.1,738.4,920.5z M990.5,1509.3c0.3-0.4,0.6-0.9,0.9-1.3c-5.3-6-10.2-12.4-16-17.8
	c-13.1-12.2-25-25.5-36.5-39.2c-4.9-5.8-11.2-10-17.8-14.5c1.9,19.2,11.6,34.9,17.6,51.9c0.7,2,3.5,4.6,5.4,4.7
	c9.8,0.7,18.5,3.8,27.1,8.5C977.2,1504.9,984,1506.8,990.5,1509.3z M449.7,767.6c1.4-0.4,2.1-0.4,2.3-0.7
	c6.3-9.1,12.5-18.2,18.7-27.4c1.6-2.3,0.7-4.3-0.7-6.4c-8.2-11.9-13.7-24.8-14.5-39.5c-0.1-1.1-0.9-2.2-1.8-4.3
	c-3.7,6.5-5.8,12.5-6.6,18.9c-0.6,4.6-0.2,9.4-1.4,13.8c-3.3,12.6-3.9,24.8,1.4,37C448.2,761.7,448.8,764.7,449.7,767.6z
	 M822.1,1263.5c3.2-4.5,5.7-7.4,7.4-10.7c0.9-1.8,1.2-4.6,0.5-6.6c-3.1-9.3-5.9-18.8-10.1-27.5c-7-14.4-14.9-28.4-22.8-42.3
	c-2.6-4.6-6.2-8.6-9.4-12.8C797.8,1196.9,808.5,1229.8,822.1,1263.5z M839.4,1356.5c-3.7-20.1-11.7-36.3-18.7-53.5
	c-5.2,5.8-13.2,30.8-13.7,42.4C817,1348.8,827.3,1352.3,839.4,1356.5z M483,721.9c4.9-5.3,10.5-9.8,10.4-16
	c-0.1-8.7,1.3-17.6-2.1-26.1c-2-5.2-2.3-10.1,3.2-13.7c2-1.3,2.3-3.3,0-5.2c-8.9,0.7-14,5.6-15.4,14.4c-0.4,2.5-1.1,5.1-1.2,7.7
	c-0.2,3.2-0.5,6-4,7.7c-1.3,0.7-2.5,2.8-2.6,4.4C470.9,705.3,474.8,713.9,483,721.9z M582.2,446.5c-0.4,0.4-0.9,0.8-1.3,1.1
	c0.7,1.3,1.1,2.8,2,4c4.3,5.5,8.5,11.2,13.2,16.2c5.6,6,11.4,12.1,17.9,17.2c9.1,7.2,18.9,13.4,28.3,20.1c4.8,3.5,9.3,7.3,14.2,10.7
	c6,4,12.6,7.1,18.2,11.6c9.3,7.4,18.7,14.8,25.9,24.5c2,2.7,4.5,6.1,10.6,6.7c-1.9-3.5-2.9-5.7-4.3-7.6c-3.3-4.3-6.5-8.7-10.3-12.6
	c-3.9-4.1-8-8.1-12.5-11.5c-3.9-3-8.8-4.6-12.5-7.7c-9.9-8-20.5-14.8-31.5-21c-2.2-1.3-4.4-2.7-6.4-4.3
	c-9.8-8.1-19.3-16.5-29.2-24.3c-7.6-6-14.3-12.6-19.7-20.5C584.1,448,583.1,447.3,582.2,446.5z M416.8,1515.5
	c-0.4,0.3-0.8,0.5-1.1,0.8c0.7,1.6,1,3.4,2.1,4.8c9.5,11.9,18.9,23.8,28.7,35.4c1.8,2.1,5.2,3.7,8,4.1c4.5,0.7,9.3,0.2,13.9,0
	c1.3-0.1,2.6-0.9,4.5-1.7c-5.2-3.8-9.6-7.2-14.1-10.5c-4.1-3-8.3-5.8-12.4-8.8c-5.8-4.3-11.5-8.6-17.1-13.1
	C425,1523,420.9,1519.2,416.8,1515.5z M574.9,1029c1.5,9.7,9.3,17.4,19,19.4c6.5,1.3,8.2,0.8,10.5-5.7c3.1-8.5,9-13.6,17.2-16.6
	c1-0.4,1.9-1,3.7-1.9c-4.7-1.4-8.4-2.5-12.1-3.6c-5.8-1.8-8.7-0.1-10,5.8c-1.4,6.2-3,7.7-9.2,8.2
	C587.2,1035,581.3,1032.5,574.9,1029z M577.4,747.9c-7.9-4.6-7.9-4.7-13.7,1.5c-1.9,2.1-3.9,3.7-6.7,2.5c-5.4-2.2-10.4-5.3-16.5-5.7
	c-1.2-0.1-2.4-1.8-3.6-2.8c-1.3-1.2-2.5-2.4-3.7-3.5c-4.7,2.6-7.4,6.1-8,10.9C536.4,761.6,566.8,760,577.4,747.9z M722.4,543.7
	c2.2-1.8,4.3-3,5.7-4.7c5.1-6.2,10.4-12.3,14.9-18.9c5-7.5,9.2-15.5,13.8-23.2c3-4.8,6.3-9.5,9.3-14.3c0.6-1,0.2-2.6,0.4-5.4
	c-2.7,2.2-4.5,3.3-5.6,4.8c-3.9,5.2-7.7,10.4-11.2,15.8c-4.8,7.6-9.4,15.3-16.4,21.4c-4.5,3.9-7.5,9.8-10.9,15
	C720.7,536.8,719.3,539.8,722.4,543.7z M571.8,1064.1c-0.2,0.3-0.4,0.6-0.6,0.9c0.7,0.8,1.3,2,2.2,2.4c2.3,1.1,5.1,1.5,7.2,2.8
	c12.2,7.8,26.1,7.6,39.7,8.2c3.7,0.1,7.6-1.4,11.2-2.7c2.4-0.9,4.3-2.8,3.9-6.1c-7.7-3-15-0.8-22.1,1.1c-8.9,2.4-17.3,2-25.8-1.5
	C582.4,1067.2,577,1065.8,571.8,1064.1z M729.6,737.4c-1.6,4.8-2.5,9.6-4.7,13.8c-2.3,4.4-5.7,8.3-8.6,12.4
	c5.9,3.7,8.5,3.7,11.4-0.7c2.8-4.3,4.7-9.1,6.8-13.8C736.9,743.8,736.2,742.2,729.6,737.4z M762.3,626.3c0.4,9.8,8.9,12.3,14.6,17.6
	c0.8-4.1,1.6-8.1,0.7-11.6C774.9,622.2,773.1,617.9,762.3,626.3z M994.2,959.4c-4.2-10.6-10.6-18.1-19.2-25.5
	c1.5,6.7,1.4,12.9,4.3,17.4C982,955.6,985.8,961.5,994.2,959.4z M582.6,586.2c-0.9,8.7,2.5,16.2,4.9,23.9c0.3,0.9,3,1.7,4.5,1.6
	c2.7-0.3,4-2.8,3.4-5.1C593.2,598.6,589.1,591.8,582.6,586.2z M624.5,1040.7c-5.2,4.6-4.6,9.6-2.3,15.2c5.5-0.6,11.3,1.3,15.9-3.8
	C634.7,1046.8,631.9,1041.5,624.5,1040.7z M1042.3,1272.8c-3.5-1.8-6.1-3.7-8.9-4.3c-3.9-0.9-8.3-2.6-11.8,0.3
	c-3.9,3.2-7.9,5.1-13.3,4.8c1.4,1.3,2.8,2,4.2,2.2c2.8,0.2,5.6-0.3,8.3,0.1C1028,1277,1034.8,1276.5,1042.3,1272.8z M539.9,1033.7
	c0.6,11.8,12,24.8,24.1,26.6c-2.6-2.9-4.5-4.8-6.2-6.8C552.1,1046.7,542.9,1043.1,539.9,1033.7z M927.6,1033.7
	c-8.9-3.7-19.9-2-26.7,3.8C910.2,1038,918.5,1039.3,927.6,1033.7z M875.6,1447.9c-1.9-5.3-3.5-9.9-5.2-14.6
	c-5.4,3.1-8.1,6.5-6.8,9.1C865.7,1446.8,869.8,1447.9,875.6,1447.9z M1024.3,1128.6c0.2,0.7,0.3,1.4,0.5,2.1c3.3,0.7,6.6,1.3,9.8,2
	c0.3-4.4,0.6-8,0.8-11.9C1031.5,1123.4,1027.9,1126,1024.3,1128.6z M851.7,617.2c-4.2-4.2-9.1-6-15.2-6.7
	C842.5,618.8,846.3,620.4,851.7,617.2z M857.6,652.5c-0.7,0.5-1.3,0.9-2,1.3c-1.1,6.3,5.4,7.1,8.2,11.4c1-1.4,2.1-2.1,2.1-2.9
	c0-1.2-0.5-2.5-1.3-3.4C862.4,656.7,860,654.7,857.6,652.5z M590.5,866.8c0-0.7,0-1.5-0.1-2.2c-3.4-1.5-6.8-2.9-11-4.7
	c0.2,3.7,0.4,6.5,0.6,10.4C584.2,868.9,587.4,867.9,590.5,866.8z M772,470.1c4.9-2.7,8.9-6.1,9.2-13.5
	C775,459.9,773.7,465.1,772,470.1z M957.6,1242.3c-1.2,2.8-2.6,4.6-2.2,5.5c1.6,3.1,4,5.7,9,5.4
	C962.1,1249.5,960.2,1246.6,957.6,1242.3z M908.9,413.1c-2-4.3-4-8.7-6-13.1C902.1,405.7,903.5,410.3,908.9,413.1z M680.1,974
	c0-8-1-9.6-6.8-12.8C675.8,965.9,678,970,680.1,974z M798,433.4c5.6-2,3.9-5.7,3.8-9.8C796.9,426.1,797.3,429.4,798,433.4z
	 M656.3,1002.3c-1.7-5.8-1.7-5.8-6.4-7.3C649.5,1000,649.5,1000,656.3,1002.3z M566.2,861.2c-0.8,0.1-1.6,0.2-2.4,0.2
	c0.6,3.6,1.1,7.2,1.7,10.8C568.4,868.3,565.9,864.8,566.2,861.2z M597.3,850.8c0.1-0.9,0.2-1.7,0.3-2.6c-2.7-0.6-5.1-4.3-9.4,1.1
	C591.9,849.9,594.6,850.4,597.3,850.8z M553.7,1021.5c-0.8,0.3-1.7,0.7-2.5,1c1.3,2.8,2.5,5.6,3.8,8.4c0.5-0.2,1-0.4,1.5-0.7
	C555.6,1027.3,554.6,1024.4,553.7,1021.5z M685.2,981.2c-0.4,0.1-0.9,0.2-1.3,0.3c0.5,2.5,0.9,5.1,1.4,7.6c0.5-0.1,1.1-0.2,1.6-0.3
	C686.3,986.3,685.8,983.8,685.2,981.2z M884.3,648.3c-0.3,0.2-0.6,0.5-1,0.7c0.8,1.1,1.6,2.2,2.5,3.4c0.3-0.2,0.6-0.4,0.9-0.6
	C885.9,650.6,885.1,649.4,884.3,648.3z M1190.6,1405.1c-0.1,0.4-0.3,0.8-0.4,1.2c1,0.5,2,0.9,2.9,1.4c0.2-0.6,0.4-1.2,0.7-1.8
	C1192.7,1405.6,1191.6,1405.4,1190.6,1405.1z M818.6,612.1c0.7-0.9,1.1-1.4,1.6-1.9c-0.7-0.5-1.3-1.3-2.1-1.5
	c-0.3-0.1-1,0.8-1.5,1.2C817.2,610.6,817.8,611.2,818.6,612.1z"/>
<path d="M240.6,1240.9c-0.3,2.1-0.6,3.3-0.5,4.5c1.1,11.7,2.3,23.4,3.3,35.2c0.2,3.1-0.1,6.2-0.6,9.2c-1.9,11,1.1,21.8,1.4,32.8
	c0.4,15.5,0.5,30.9-3.2,46.2c-1.6,7-2.5,14.1-3.9,21.2c-0.5,2.4-1.5,4.8-2.4,7.3c-2-0.4-3.4-0.7-4.9-1.1c2.8,6.8,2.9,7-2.5,11
	c-10.7,7.9-22.8,11.4-36.1,12.2c-9.2,0.6-18.5,2.6-27.3,5.6c-7.2,2.4-13.6,7.2-20.4,10.8c-13.1,6.8-26.1,13.7-39.4,19.9
	c-8.9,4.1-18.2,7.2-24.7,15.3c-1.9,2.4-6.1,2.9-8.5,5.1c-5.8,5.5-11.8,10.9-16.5,17.3c-10.6,14.3-25.1,23.6-40.3,31.9
	c-3.7,2-8.4,3.7-11.6,0.3c-3.4-3.6-3.1-8.9-0.7-13.1c4.1-7.1,8.3-14.4,13.6-20.6c7.4-8.6,15.2-16.9,23.9-24.2
	c8.4-7,16.3-14.1,23.4-22.4c5.4-6.3,12.1-11.8,18.7-16.9c10.1-7.8,18.3-17.4,26.9-26.7c5.9-6.4,12.6-12.1,19-18.1
	c3.2-3,6.7-5.6,9.9-8.6c5.9-5.5,12.3-9.9,19.8-13.2c19.9-8.6,34.3-22.4,40.3-44.2c2.1-7.8,6.9-15,10.7-22.3c2.5-4.8,5.4-9,5.6-14.9
	c0.2-4.4,2.7-8.9,5-12.9c3.2-5.7,3.4-11.8,3.7-18c0.1-1.8-0.5-4.1,0.4-5.3c6.8-9,2.6-19.5,4.1-29.1c0.2-1.3,0-2.6,0.1-3.9
	c0.1-2.9,0.4-6.1,3.6-7.1c3.4-1.1,7.2-1.6,10.1,1.6c1.2,1.3,2.7,2.7,3.2,4.3c2.7,7.7,5.1,15.6,7.8,23.3c1.2,3.6,2.5,7.3,4.4,10.7
	c6.1,10.8,12.5,21.4,18.7,32.2c0.8,1.3,1.2,2.9,2.3,3.8c11.5,9.4,15.3,22.6,10.2,35.8c-1.3,3.3-7.4,7.2-10.7,6.2
	c-1.6-0.5-3.7-2.4-4-4c-0.5-2.7,0.1-5.6,0.6-8.3c0.7-3.5,1.6-7,2.7-10.4c1.5-4.7-1-7.9-3.6-11.2c-2.1-2.5-4.3-4.9-6.3-7.5
	c-3.1-4-6-8-7.7-13.1c-1.5-4.4-5.4-8-8.1-12.1C247.3,1251,244.3,1246.5,240.6,1240.9z M231.2,1272.4c-1.4,2-2,2.8-2.6,3.7
	c-5.9,8.8-7.7,19.4-13.2,28.5c-5.1,8.2-7.3,18.2-11.2,27.2c-3.1,7.1-6.1,14.3-12.4,19.4c-5,4.1-9.8,8.4-15,12.2
	c-3.5,2.5-7.5,4.4-11.3,6.3c-4.6,2.3-9.9,3.6-13.7,6.7c-6.8,5.4-12.1,12.4-19.1,17.7c-5.5,4.1-9.7,9.8-14.5,14.9
	c-4.3,4.5-9.2,8.5-12.5,13.6c-3.8,5.8-8.4,10.3-14.2,14c-9.8,6.2-16.3,15.7-24.1,23.9c-0.7,0.8-0.9,2-2,4.5c3.3-1.7,5.2-2.4,6.9-3.6
	c3.5-2.6,6.6-5.8,10.4-7.9c6.9-4,14-7.8,21.2-11c14.6-6.5,28.9-13.7,43-21.3c1.2-0.7,2.9-0.7,4.4-0.9c1.2-0.2,3,0.2,3.5-0.4
	c3.2-3.9,7.9-4.7,12.1-6.6c10.2-4.5,21-5.1,31.8-5.5c3.9-0.1,7-0.7,10.1-2.8c1.7-1.2,3.4-2.7,5.3-3.1c7.6-1.8,10.6-7.6,12.5-14.2
	c1.6-5.7,2.7-11.5,3.8-17.3c2.2-10.8,2.5-21.8,2.4-32.8c0-9-0.6-18-0.1-26.9c0.5-11.1-3.2-22.1,0-33.2
	C232.7,1276.4,231.9,1275.1,231.2,1272.4z M25.1,1503.3c13-6.8,21.5-18,29.5-29.6C41.6,1480.4,33.2,1491.7,25.1,1503.3z"/>
<path d="M1396.6,1161.7c5.6,4.9,10.7,10.6,16.9,14.5c6.7,4.3,12,10.2,19.3,13.7c6.8,3.3,12.6,8.8,18.8,13.2c1.7,1.2,3.3,2.6,5.2,3.4
	c8.8,3.6,14.8,10.2,18.9,18.5c6.5,12.9,16.7,22.8,26.7,32.8c2,2,4.8,3.1,7.1,4.7c11.4,8,24,13.8,36,20.6c16.4,9.2,32.3,19.6,49,28.3
	c9.5,4.9,20,8.3,30.4,10.9c8.2,2.1,16.9,1.8,25-2.8c2.3-1.3,5.4-1.9,8.2-1.8c5.1,0.2,7.7,5,5.2,9.4c-1.1,1.9-3,3.6-4.8,4.8
	c-5.4,3.5-11.4,4.9-17.8,4.6c-17-0.7-33.4-3.8-48.8-11.4c-6.2-3.1-12.1-6.7-17.9-10.3c-8.3-5.2-16.7-10.3-24.6-16.1
	c-7.8-5.7-15.8-10.2-25.4-12.1c-2.8-0.5-5.2-3.2-7.8-4.8c-5.2-3.3-10.4-6.5-15.7-9.8c-1.3-0.8-3-1.3-4-2.4
	c-7.3-8.9-16.9-16-22.7-26.3c-2.7-4.7-5.3-9.5-8.5-13.9c-2.4-3.3-5.6-6-8.6-8.7c-3.2-2.9-6.7-5.7-10-8.5c-1.2-1-2.3-2.3-3.7-2.8
	c-6-1.9-10.6-5.6-15.4-9.4c-8.4-6.7-17.6-12.4-26.2-18.9c-2.6-2-4.9-4.7-6.8-7.4C1391.2,1169.3,1391.7,1167.2,1396.6,1161.7z"/>
<path d="M592.2,72.1c-0.8,3.4-1.5,6.1-2.2,8.8c-1.2,4.3-3.6,6.3-6.9,6c-3.3-0.3-5.3-2.6-6-7c-1.2-7.7,2.1-15.9,10.3-18.9
	c9.7-3.6,14.1-10.4,17.1-19.3c2.2-6.6,5.1-13,11.2-17.4c1.3-1,1.8-3.1,2.8-4.6c1.7-2.2,3.2-5.1,5.5-6.3c4.1-2.2,6.7-4.9,8.4-9.4
	c1.5-4.2,6.3-5.1,9.7-2.7c2.7,1.9,3.4,4.8,1.2,7.2c-4.5,4.9-8.7,10.4-14.1,13.9c-6.4,4.1-8.4,10.8-12.3,16.4c-2,2.9-3.2,6.3-4.9,9.5
	c-3,5.9-5.5,11.8-2.5,18.5c3.5,8,0.4,14.9-3.7,21.8c-4,6.8-7.5,13.9-11.2,20.9c-0.4,0.7-0.5,1.5-0.8,2.2c-1.3,2.8-3.7,3.6-6.5,2.9
	c-3.2-0.8-4-3.6-3.2-6.1c2.4-6.8,5.2-13.5,8-20.1c1.4-3.3,3.4-6.4,4.8-9.7C598.1,75.5,597,73.3,592.2,72.1z"/>
</svg>
