<?xml version="1.0" encoding="utf-8"?>
<!-- Generator: Adobe Illustrator 25.1.0, SVG Export Plug-In . SVG Version: 6.00 Build 0)  -->
<svg version="1.1" id="Layer_1" xmlns="http://www.w3.org/2000/svg" xmlns:xlink="http://www.w3.org/1999/xlink" x="0px" y="0px"
	 viewBox="0 0 1658.4 1209.9" style="enable-background:new 0 0 1658.4 1209.9;" xml:space="preserve">
<path d="M872.2,1086.7c0.4-1.7,0.5-3.4,1.1-5c0.6-1.6,1.3-3.6,2.7-4.4c6.9-4,14-7.6,20.9-11.5c4.5-2.6,8.9-5.3,12.9-8.5
	c3.8-3,7.1-6.7,10.5-10.1c5.8-5.7,11.8-11.3,17.4-17.2c3.5-3.6,6.2-7.8,9.9-11.2c6-5.5,12.5-10.3,18.6-15.6c1.8-1.6,2.8-4.1,4.7-5.5
	c5.5-4,11-7.9,16.9-11.3c8.7-5,17.8-9.5,26.7-14.2c1.3-0.7,2.6-1.5,3.9-1.8c10.9-1.7,14.8-9.2,16.8-18.7c0.6-2.9,1.6-5.8,2.3-8.7
	c0.3-1.2,0.3-2.4,0.5-3.6c-6.1,0-11.7,0.6-17.2-0.2c-6.6-0.9-13.1-2.8-19.5-4.6c-4.9-1.4-9.9-3.1-14.6-5.3
	c-8.6-4-15.6-10.1-22.7-16.4c-10-8.9-21.7-15.8-31.1-25.6c-9.4-9.8-19.1-19.4-28.3-29.4c-9.5-10.4-18.8-21-27.7-31.9
	c-6.2-7.7-11.7-15.9-17.5-24c-6.6-9.2-13.3-18.3-19.7-27.7c-4.2-6.2-7.7-12.8-11.6-19.2c-5.4-9-11-17.9-16.4-26.9
	c-3.9-6.4-8-12.7-11.2-19.5c-1.2-2.5-0.8-6.4,0.3-9.2c1.3-3.3,7.4-1.9,9.7,2.1c1.8,3.2,3.5,6.5,5.3,9.7c0.7,1.2,1.8,2.2,2.9,3.4
	c-13.4-40.7-26.7-80.9-40-121c-0.4,0.1-0.9,0.2-1.3,0.4c1.1,8.3,2,16.7,3.5,24.9c1.6,8.5,3.7,16.9,6,25.3c2.2,8,4.9,15.9,7.6,23.8
	c1.1,3.2,3.2,6.1,4,9.3c0.3,1.4-1,4.1-2.3,4.9c-2.1,1.2-4.4,0.8-6.1-2c-6.8-11.5-10.5-24.2-14.1-36.8c-3.7-13-5.7-26.4-8.4-39.6
	c-0.2-1-0.6-2-1-3.1c-0.5-0.1-1-0.2-1.6-0.3c-2.3,7.3-4.4,14.7-6.9,22c-3.5,10.3-8.1,20.4-10.8,30.9c-2.3,8.9-6.5,18-2.2,27.8
	c2.5,5.8,7.9,6,12.6,7.6c2.2,0.7,4.7,0.5,6.7,1.5c1.5,0.8,3.7,2.8,3.5,4c-0.2,1.7-2.1,3.4-3.7,4.5c-5.6,3.8-12.1,6.5-16.8,11.2
	c-2.8,2.7-5.3,4.1-8.7,5.4c-1.6,0.6-3.2,3.2-3.4,5.1c-0.6,5.6-0.5,11.3-0.6,16.9c0,4.2-3.9,4.4-6.3,6.2c-2.9,2.2-6,4.1-9.2,5.9
	c-1.7,0.9-3.7,1.2-5.6,1.8c-0.8-2.3-1.4-3.8-1.9-5.2c-3.5-0.3-4.8,1.8-4.9,4.3c-0.2,6.2-0.2,12.5,0.3,18.8c0.2,2,1.8,4.1,3,5.9
	c1.3,1.9,3.4,3.3,4.6,5.3c6.3,10.8,12.6,21.5,18.5,32.5c1.7,3.3,1.8,7.4,2.9,11c2.3,7.4,4.9,14.8,7.4,22.2c0.2,0.5,0.3,1.1,0.3,1.7
	c0.5,11.9,3.9,23.5,4.4,35.3c0.5,12.3-0.4,24.6-0.7,36.9c0,0.7-0.4,1.5-0.2,2.1c2.1,9.6-1.3,19.1-0.8,28.7c0.2,4.4-1.5,8.9-1.7,13.5
	c-0.5,11.5-0.6,23.1-1.1,34.6c-0.1,1.9-0.6,4-1.5,5.7c-2.4,4.5-0.8,9.1-0.9,13.7c-0.2,8.8-0.2,17.5-0.3,26.3
	c-0.1,7.5-0.1,15-0.1,22.6c0,5.7-0.3,11.3,0,16.9c0.3,6-0.5,12,1,18c0.8,2.9-0.6,6.2-1,9.6c2.8,1.7,3.2,3.9,2,6.9
	c-0.5,1.2,0.2,3,0.5,4.5c1.3,7.3,2.5,14.7,3.9,22c1.6,8.3,3.1,16.6,4.9,24.9c0.5,2.4,2.1,4.6,2.7,7c0.4,1.4-0.2,3.1-0.4,4.9
	c0.4-0.1,1.2-0.2,2-0.4c0.9,2,1.8,3.8,2.9,6.2c1-1.4,1.6-2.2,2.2-3.1c0.3,0.1,0.7,0.2,1.1,0.4c-0.5,2.1-1,4.2-1.6,6.8
	c1,4.1,2.3,9,3.4,13.9c0.6,2.4-0.8,4.2-3.1,4.1c-2-0.1-5.1-1-5.6-2.4c-1.9-4.9-3-10.2-4.4-15.4c-1.7-6-3.5-11.9-5-17.9
	c-0.5-1.9-0.1-4.1-0.3-6.1c-0.1-1-0.3-1.9-0.6-2.9c-1.3-4.2-2.9-8.4-3.8-12.8c-1.6-7.2-2.8-14.5-4-21.7c-0.9-5.6-1.8-11.2-2.4-16.8
	c-0.8-7.4-1.8-14.9-2-22.4c-0.3-9.8,0.1-19.6,0-29.4c-0.1-4.6-1.1-9.2-1-13.9c0.2-11.3,0.8-22.6,1.4-33.9c0.6-11,2-22,2.1-33
	c0.1-8.7-1.2-17.5-1.9-26.2c-0.2-2.1-0.5-4.3-0.4-6.4c0.3-12.1-2.8-23.7-6.1-35.2c-4.4-15.3-8.4-30.7-13-45.9
	c-5.1-16.9-5.2-34.4-7.8-51.7c-1.7-11.2-3.5-22.3-5.8-33.3c-1.5-7.2-10.2-12.7-17.7-11.8c-1.8,0.2-3.9,1.4-5.1,2.8
	c-5.7,6.5-11.2,13.1-16.5,19.9c-1.4,1.8-2,4.2-3.2,6.8c-0.4-0.1-1.4-0.3-3-0.7c0,2.4,0,4.7,0,7.8c-2.3-3.9-4.1-3.6-6.7-0.7
	c-2.7,3-6.5,1.7-7.4-2.4c-1.6-7.3-2.7-14.8-4-22.2c-0.2-1.1-0.4-2.1-0.6-3c-7.7-0.3-12.3,4-17.5,8.5c-4.8,4.2-7.5,9.4-11.1,14.2
	c-1.1,1.5-2.8,2.7-4.1,4.1c-0.7,0.7-1.8,1.5-1.8,2.3c-0.2,6.2-5.1,9.5-8.3,13.8c-3.4,4.5-7.2,8.7-10.1,13.5
	c-2.4,3.9-3.8,8.5-5.8,12.8c-0.6,1.2-1.7,2.1-3.2,3.8c-1.2,4.9-1.9,11.1-4.3,16.7c-3.4,7.8-5.7,15.9-7.6,24.1
	c-1.5,6.3-2.2,12.9-2.1,19.4c0.1,5.6,1.6,11.2,2.7,16.8c0.2,1.1,1.2,2.3,2.2,2.9c16.2,8.7,22.1,23.2,23.8,40.3
	c1.5,15.2-0.3,29.9-6.5,43.8c-3.1,7-8.7,12.3-14.2,17.7c-4.4,4.4-9.6,6.8-15.2,8.1c-10.3,2.4-20.8,4.8-31.4,2.3
	c-6.3-1.5-13-2.3-18.5-5.4c-8.5-4.8-17.5-9.6-21.7-19.5c-1.3-3.1-4.2-5.6-6.2-8.2c-4.6,5.2-8.9,9.8-12.9,14.6
	c-1.9,2.2-3.8,2.9-6.8,2.3c-8.7-1.8-12.5-8.4-16.1-15.2c-3.1-5.9-6.5-11.8-8.5-18.1c-4-12.4-7.2-25-10.6-37.5
	c-0.3-1.1,0.4-2.5,0.7-4c-4.4-1.5-5.3-4.8-4.5-9.1c0.2-1.1-0.7-2.3-1-3.5c-1.3-3.7-2.5-7.4-3.8-11c-0.3-0.9-0.4-1.9-0.9-2.7
	c-2.5-3.2-3.2-6.7-2-9.3c-1.4-3.2-2.4-5.3-3.3-7.6c-1.6-4.3-4.6-8.8-4.3-13.1c0.5-7.5-4.4-13.3-4.9-20.3c-0.1-0.9-1.2-1.6-2.7-3.4
	c-7.7,18.9-14.9,36.8-22.2,54.6c-0.2-0.1-0.4-0.2-0.7-0.3c-0.9,3.2-1.6,6.6-2.8,9.7c-4.1,10.4-8.4,20.7-12.8,31
	c-2.5,5.9-5.5,11.7-8.2,17.6c-1.2,2.6-2.5,5.2-3,7.9c-0.9,5.4-4.9,9.7-4.6,15.7c0.2,3.6-3.2,7.3-4.9,11.1
	c-3.4,7.5-6.6,15.1-10.2,22.4c-1.2,2.3-3.6,4.1-5.4,6.1c-0.6,0.7-1.1,1.4-2.1,2.6c1.9,0.2,3,0.4,4,0.5c-5.5,10.4-8.5,22-15.7,34
	c-0.4,2.9-1.2,8.2-2,13.5c0.3-0.1,0.6-0.2,1-0.3c0.7,1.8,2,3.6,2,5.4c0.1,7.3,0.9,14.9-0.6,22c-2.4,11.4-3.6,23.6-12.5,32.8
	c-1,1-1.2,2.5-2,3.7c-2.6,3.8-4.6,8.3-11.2,7.7c2.7,4.1,2.3,6.1-2.2,6.7c-1.1,0.1-2.1,2.4-3,3.8c-3.1,5-8,7.4-13.1,9.6
	c-0.7,0.3-1.7-0.2-1.8-0.2c-4.6,3.7-9.5,5.8-14.8,7c-3,0.7-6.1,1.5-9.1,2.1c-2,0.3-4.1,0.2-6.1,0.4c-5.3,0.5-10.5,1.4-15.8,1.5
	c-3.8,0.1-7.6-1-11.4-1.1c-3.3,0-5.9-0.6-8.8-2.5c-7.5-5-14.9-9.8-20.3-17.5c-3.7-5.2-9-9.4-13.7-13.9c-7-6.8-11.3-14.9-12-24.8
	c-0.4-5.4-1.8-10.7-2-16.1c-0.2-5.8-0.3-11.6,2.1-17.4c2.1-4.9,1.8-10.7,3.2-16c0.8-3.2,2.8-6.2,4.4-9.1c2.4-4.5,4.3-9.4,7.5-13.2
	c3.7-4.3,8.7-7.6,13.1-11.3c0.1-0.1,0.2-0.2,0.3-0.3c10.1-11.8,24.2-13.8,38.5-15.3c5.7-0.6,11.4-0.9,17.2-0.9
	c12.3,0,22.2,6,31.8,12.8c5.3,3.8,8.9,8.8,11.5,14.4c0.9,2.1,1,4.7,0.8,7c-0.1,1-1.5,2.2-2.6,2.7c-4.7,2-9.6,3.5-14.1,5.8
	c-4.4,2.3-8.3,5.4-12.4,8.1c-7.9,5.2-15.7,10.5-23.5,15.8c-2.5,1.7-4.9,3.5-7.3,5.2c-3.4,2.4-6.7,0.7-9.2-1
	c-9.4-6.7-19.4-4.7-29.4-2.4c-1.8,0.4-3.8,2.3-4.6,4.1c-5.2,11.5-6,23.2,0.2,34.7c2.6,4.9,4.9,10.1,7.9,14.8
	c2.1,3.4,5.2,6.3,7.7,9.4c1.3,1.6,2.2,3.6,3.7,5.1c8.5,8.5,18.7,13.3,30.9,13.5c3.3,0.1,6.6,0.4,9.8-0.1c3.7-0.5,7.4-1.4,10.8-2.7
	c10.2-3.8,20.4-8,28.3-15.7c4.2-4.1,6.8-9.7,11.1-13.6c4.6-4.2,6.3-9.5,8.3-14.8c0.6-1.6,2.5-2.7,4-4.3c-2.3-2.4-1.4-5.1-0.1-8.4
	c1.6-4,1.8-8.5,2.5-12.8c0.5-2.7-1.6-6.2,2.5-7.4c-0.9-1.2-2.5-2.6-2.2-3.3c1.8-5-1.7-7.9-4-11.4c-2.9-4.4-2.3-6.2,1.9-9.5
	c1.2-0.9,1.6-2.9,2.2-4.5c0.9-2.3,0.5-5.7,4.7-5.3c-1.6-5.4,0.1-9.8,3-14.4c2.4-3.8,3.4-8.4,5.3-12.6c0.8-1.7,2.4-3,3.9-4.1
	c1.8-4.3,3.3-8.8,5.4-13c1.7-3.3,3.4-6.2,3.4-10.4c0.1-4,3.2-7.9,4.9-11.9c1.5-3.3,3.3-6.6,4.2-10c1-3.9,1.4-7.7,4.5-11
	c2.2-2.3,2.4-6.4,3.7-9.6c1.8-4.7,4-9.4,5.7-14.1c2.2-5.9,4-11.9,6.3-17.8c2.5-6.2,5.7-12.2,8.2-18.4c3.9-9.8,7.5-19.7,11.1-29.5
	c2.6-6.9,5.1-13.8,7.7-20.6c2.4-6.3,5.1-12.6,7.3-19c0.7-2.2,0.1-4.8,0.1-8.1c-9,2.7-16.8,5.1-24.4,7.4c1,3.7,2.2,6.5,2.5,9.5
	c0.3,2.7-1.1,4.5-4.2,4.7c-3.1,0.2-3.3-1.9-4-4c-1.5-5.4-3.2-10.8-4.2-14.2c-11.4-5.3-21.1-9.8-30.7-14.5c-1.1-0.6-2-2-2.6-3.2
	c-3.4-5.8-10.1-5.9-15.2-8.8c-8.8-4.9-18.2-9-26.2-14.9c-5.1-3.7-11.4-5.7-15.4-11.4c-3.8-5.4-10.5-4-14.6,1.6
	c-2.2,3-5.2,5.4-7.8,8.1c-0.7,0.7-1.2,1.6-1.9,2.3c-4.9,5.3-9.7,10.7-14.7,15.9c-0.9,1-2.7,1.2-4.4,1.2c-3.3,7.3-11.3,4.9-17.3,7.5
	c-1.1-0.7-2.9-1.8-5-3.2c1,3.4,2.5,5.3-2.9,4.5c-3.2-0.5-6.2,1-7.4-4.1c-3,5.6-7.6,4.1-11,3.2c-3.5-1-6.5-3.9-9.5-5.9
	c-1.5-0.5-3.1-0.8-4.4-1.6c-1.7-1.1-3.2-2.5-4.9-3.7c-3.8-2.7-6.5-6.1-7.3-10.9c-5.1-3.1-10.2-6.4-15.5-9.4
	c-10.1-5.6-20.6-10.3-31.9-13.1c-3.9-1-6.1-4.8-3.7-7.8c4.2-5.3,8.9-10.1,13.5-15.1c1.2-1.4,2.8-2.5,3.9-4c3.3-4.5,6.5-9.2,9.8-13.7
	c0.7-1,1.7-2,2.7-2.7c5.3-3.6,7.8-9.1,10.8-14.5c2.1-3.9,5.1-7.4,7.7-11.2c4.9-7.4,9.9-14.7,14.6-22.2c3.5-5.5,6.7-11.1,10-16.7
	c0.3-0.6,0.5-1.2,0.8-2.1c-4.2-1.6-8.1-3.2-12.1-4.4c-5-1.5-10.2-2.6-15.2-4.1c-1.8-0.5-3.3-1.9-4.8-3.2
	c-16.5-3.1-30.1-12.9-45.6-19c0.4-1.3,0.7-2.1,1.2-3.5c-2.8,0.9-5.7,1.9-4-2.5c-3.9-0.9-7.5-1.7-7.6-6.9c-1.4,0.8-2.4,1.3-3.8,2.1
	c-0.2-1.4-0.3-2.5-0.4-3.1c-2-0.6-3.9-0.6-5.2-1.6c-3.1-2.5-6.9-4.5-8-8.9c-0.2-0.9-1.3-2-2.2-2.3c-3.2-1.3-4.3-3.5-3.1-7
	c-7.1-0.8-9-7.1-12.3-11.5c-4.1-5.5-7.8-11.6-10.4-17.9c-2.9-7.1-4.4-14.8-6.5-22.3c-0.3-1.2-0.8-2.4-0.9-3.7
	c-0.3-3.3-0.4-6.7-0.6-11.1c-3-2.4-3.4-17.8,0.9-23.2c-1.1-0.4-2.2-0.8-4.2-1.5c1.7-9.2,3-18.4,5.1-27.4c0.9-3.8,3.2-7.3,5.3-10.6
	c4.6-7.1,9.2-14.1,14.4-20.8c4-5.1,8.6-9.7,13.2-14.2c2.6-2.5,2.7-4.7,0.5-7.3c-0.7-0.8-1.7-1.7-2-2.7c-1.5-5.5-2.8-11-4.3-16.5
	c-1.2-4.5-2.5-8.9-3.6-13.4c-1.4-5.5-2.6-11-4-16.5c-0.9-3.4-2.3-6.6-3.1-10c-2.3-9.5-3.9-19.2-6.6-28.6c-2.1-7.2-5.9-13.9-8.5-21
	c-3.5-9.5-6.6-19.1-9.9-28.6c-3.2-9-5.8-18.3-10-26.8c-4.4-8.8-3.6-18.2-5.6-27.2c-1.2-5.4-2.7-10.8-3.9-16.2
	c-0.6-2.8-1.1-5.5-1.5-8.3c-0.5-3.6-0.9-7.2-1.1-10.9c-0.1-1.7,0.3-3.5,1.2-5.1c-0.8-1.5-2-2.8-2.2-4.4c-1.4-8.8-2.5-17.4-0.6-26.5
	c2-9.1,1.7-18.6,2.6-28c0.2-2.4,1.4-4.7,1.7-7.1C6.7,143,8,132.8,9,122.5c0.7-6.5-0.2-13.4,1.5-19.5c2.6-9.3,2.4-19.3,7.7-28
	c1.7-2.8,1.4-6.6,2.3-9.9c1.1-4,2.2-8.1,3.9-12c3.4-7.8,8.7-14.3,15-20.2c5.4-5,9.9-11,15.4-15.9c6.2-5.4,13.3-9.8,21.5-11.7
	c1.2-0.3,2.6,0.6,3.9,1C81,4.1,86,0,89.3,0c3,0,5.9,1.5,6,4.4c0,2.2-1.7,5.7-3.6,6.4c-4.6,1.9-8.6,5.6-14.2,4.9
	c-1.2-0.1-2.7,0.9-3.9,1.6c-2.9,1.8-5.3,1.7-7.5-1.9c-0.6,4.9-3,7.7-7.1,9.7c-2,0.9-3.3,3.4-5,5c-0.5,0.5-1.5,0.5-2.8,0.9
	C46.9,37,41.9,43.6,37,50.3c-1.4,1.9-3.1,3.8-3.8,6C32.4,59,32.4,61.8,29,63c-0.5,0.2-0.7,2-0.7,3c0,1.3,0.5,2.5,0.5,3.8
	c0,3.5-1.2,4-5.2,1.7C28.8,81.6,21.6,89.9,21,99c-0.1,1.1-1.6,2.1-2.8,3.5c0,2.9,0.1,6.8,0,10.7c-0.2,4.5-0.5,9-1,13.5
	c-0.3,3.3-0.9,6.5-1.4,9.8c-0.6,4.3-1.1,8.7-1.9,13c-0.4,2.4-1.8,4.7-2.1,7.2c-0.6,4.1-0.7,8.2-1,12.3c-0.3,3.5-0.6,6.9-1,10.4
	c-0.1,1-0.2,2.2-0.9,2.8c-2.8,2.2-1.8,4.7-0.9,7.3c0.8,2.7,2.1,5.8-2.1,6.5c1.7,8.1,3.5,15.9,4.9,23.7c1.3,7.2,2,14.5,3.2,21.8
	c1.1,6.9,2.7,13.6,3.8,20.5c0.7,4.1,0.6,8.3,1.3,12.3c0.5,2.5,1.9,4.8,2.9,7.2c3.7,8.8,7.6,17.5,11.1,26.3c1.4,3.5,2.1,7.2,3.9,11
	c0.4-1.4,1.1-2.8,1-4.2c-0.5-6.7-0.2-13,2.1-19.5c1.7-4.8,0.2-10.7,0.4-16.1c0.2-6.1,0.8-12.1,1-18.2c0.2-4.9,0.1-9.9,0.5-14.8
	c0.2-2.6,1.6-5.1,2-7.8c1.2-7.8,1.9-15.7,3.3-23.5c0.6-3.3,2.3-6.5,3.6-9.7c2.7-6.7,4.6-13.9,8.3-20c4.1-6.7,4.9-14.3,7.8-21.2
	c1.2-2.9,3.9-5.2,5.9-7.8l-0.1-0.1c2.7,9.9,0.4,12.6-3,20.9c-0.8-0.5-1.6-1-2.7-1.6c-0.1,1-0.4,1.9-0.1,2.3c2.1,2.7,1,5-0.2,7.9
	c-4.5,10.6-8.3,21.4-12.9,32c-1,2.3-0.3,6.1-4.1,7.2c-0.3,0.1-0.4,2.8,0.2,3.9c1.8,2.9,2.3,5.1,0.1,8.4c-1.7,2.6-1.5,6.6-1.7,10
	c-0.3,4.2,0.2,8.4-0.2,12.6c-0.6,5.5-1.7,10.9-2.6,16.4c-0.1,0.8-0.5,1.7-0.4,2.5c1.6,11.2,0,22.3-0.3,33.4
	c-0.2,6.7-0.5,13.4,0.3,20c0.7,6.2,2.8,12.3,4.3,18.4c1.5,6.2,3.2,12.2,7,17.6c2.4,3.3,2.9,7.8,4.7,11.6c2.2,4.6,4.9,9,7.4,13.6
	c2,3.8,3.7,7.8,6.1,11.3c2.1,3.2,5.3,5.6,7.3,8.8c4.4,6.9,8.3,14,12.4,21.1c0.6,1,1,2,1.7,2.8c3.6,4.5,7.2,8.9,10.8,13.3
	c3.3,4.1,3.4,6.2-0.4,8.9c-1.1,0.8-3.3,1-4.8,0.6c-7.6-1.8-15.1-4.2-22,2.4c3.5,7.2,7,14.5,10.5,21.8c0.4,0.9,0.6,1.9,0.8,2.8
	c0.8,4.9,3.7,8.6,6.9,12.3c1.8,2.1,3.1,4.7,4.6,7.1c2,3.1,3.9,6.2,5.9,9.3c0.8,1.3,1.8,2.5,3.2,3.6c2.2,6.6,6.9,11.1,12.2,15.3
	c5.5,4.4,11,8.7,16.4,13.2c2.2,1.8,3.7,3,5.2-0.8c3.6-8.9,11.2-13.7,19.6-17.2c5.7-2.4,11.9-4.2,18-5.1c7.7-1.2,15.7-2.1,23.3-1.3
	c6.1,0.6,12.1,3.7,18,6.3c3.1,1.4,7,3.3,8.4,6c2.6,5.1,7.3,9.2,7.6,15.5c0,0.5,0.3,1.1,0.6,1.5c5.2,6.2,3,13.4,2.8,20.5
	c2,2.2,4.6,4.4,6.2,7.1c0.9,1.5,0.2,4,0.2,6.2c0.6-0.3,1.6-0.8,3-1.5c1,2.5,1.9,4.9,2.8,7.2c4.8,1.3,6.2,3.2,5.9,8.2
	c-0.1,1.8,3,4.3-0.7,5.2c-3.8,1-2.5-2.9-3.7-4.4c-1-1.2-2.5-2.1-3.2-3.4c-0.6-1.1-0.5-2.7-0.7-4.1c-0.5,0.5-0.9,1-1.8,1.9
	c-0.7-9.7-8.1-12-15.4-15.3c-1.7,2.7-3.3,5.2-4.9,7.6c-3,4.6-5.2,10.2-9.3,13.3c-4.9,3.7-11.4,5.8-17.5,7.3
	c-4.5,1.2-9.7,3.8-10.1,8.4c-0.5,7.1-0.6,14.2-0.5,21.3c0.1,7.1,0.9,14.2,0.6,21.2c-0.1,2.6-2.2,5.1-3.3,7.7c-3,6.9-5.4,14.1-9,20.6
	c-5.7,10.2-12.3,19.9-18.3,30c-1.9,3.1-3.1,6.7-5,9.8c-1.8,3-4,5.8-5.9,8.8c-2.4,3.6-5.5,7-7.1,11c-3,7.3-9.4,11.8-14.1,17.7
	c-6,7.5-12.3,14.8-18.4,22.3c-0.8,1-1.2,2.4-1.4,2.8c9.5,3.8,18.8,7.5,28.2,11.3c3-5.9-3.2-12.7,2.3-18c-1.1-4.1-1.2-8,1.7-11.9
	c2.1-2.7,2.6-6.6,4.4-9.6c6-9.5,13.8-17,25.1-20c6.6-1.8,13.1-4.3,19.8-5.2c6-0.9,12.6-1.3,18.3,0.2c9.1,2.4,18.8,4.3,24.3,13.8
	c2.3,3.9,6.8,6.5,9.8,10.1c2.1,2.5,3.8,5.5,4.9,8.6c1.1,3,1.4,6.3,1.6,9.6c0.4,9,5.2,14.7,12.8,19.1c3.9,2.3,7.1,5.8,10.7,8.7
	c0.5,0.4,1.2,1.2,1.7,1.1c4.5-0.1,6.7,3.2,9.6,5.8c1.8,1.6,4.5,2.2,6.8,3.4c9.4,4.9,18.8,9.7,28.1,14.8c3.5,1.9,6.3,5,9.8,6.7
	c5.6,2.8,11.5,5.1,17.3,7.5c0.5-0.5,1-0.9,1.4-1.4c-2.4-8.8-4.5-17.6-7.2-26.3c-2.2-6.9-6.4-13.4-7.3-20.3
	c-1.7-14.3-10-26.3-12.2-40.4c-1.2-7.8-5.4-15-8.3-22.6c-2.1-5.5-4-11.1-6.1-16.6c-2.4-6.3-5-12.6-7.3-19c-0.8-2.1-0.9-4.4-1.7-6.5
	c-3.5-9.8-6.8-19.6-10.9-29.1c-3.4-7.7-8.5-14.7-11.7-22.5c-2-5-4.1-9.7-7.3-14c-1-1.3-2.3-2.5-2.9-3.9c-0.9-2.2-1.4-4.7-2.2-7.6
	c-4.8-0.2-3-5.2-5-8.7c3.1,0.9,5.5,1.5,8.3,2.3c-2.9,4.7,0.9,6.2,3.7,7.3c1.1,4.2,2,7.8,3,11.7c7.5,3.8,8.9,11.6,10.9,17.9
	c1.5,1,2.5,1.7,3.9,2.6c-1.4,1.3-2.3,2.2-3.7,3.5c1.6,0.4,2.7,0.8,2.8,0.8c2.7,4.1,5.3,7.4,7.2,11.1c0.5,1-0.8,3-1.4,4.8
	c3.7-0.3,4.2,2.1,3.9,5.4c-0.1,1.1,0.6,2.8,1.5,3.3c4.8,2.7,5.2,4.8,1.9,7.6c1.1,2.1,1.9,4.1,3.1,5.6c4.2,5.1,3.1,12,6.1,17.2
	c1.9,3.2,4,5.8,3.7,9.7c-0.2,1.8,0,3.5,0,5.5c3.5-1,4.5,0.6,5.1,4c0.8,4.2,3,8.2,4.3,12.4c2,6.4,2.9,13.3,6,19.1
	c2.3,4.3,0.7,9.9,5.3,13.5c1.7,1.3,1.4,5,2.1,7.6c1.1,3.9,2.2,7.9,3.3,11.8c1.2,4.1,1.5,8.7,3.7,12.1c4.4,6.6,4.7,14.4,7.7,21.3
	c2.1,4.8,3.1,10,4.6,15c0.8,2.7,1.4,5.5,2.4,8.1c1,2.5,2.8,3.9,5.8,3.2c5.7-1.5,11.4-2.7,17.1-4.3c3.5-1,6.9-1.9,10.2,0.6
	c0.7,0.5,2.5,0.7,3,0.3c3-2.7,5.9-5.6,9-8.6c-1.2-1.9-2.1-4-3.6-5.7c-3.7-4-4.9-8.6-4.6-13.9c0.2-4.6-0.5-9.2-0.2-13.7
	c0.4-4.6,1.2-9.2,5.7-12c0.5-0.3,0.5-1.5,0.7-2.3c0.7-3.1,1.7-5.9,5.2-7.1c1.3-0.4,2.3-1.6,3.5-2.4c4.4-2.8,8.5-6.3,13.3-8.1
	c3.6-1.3,8.1-0.9,12.1-0.5c12.4,1.4,23.2,6.7,32.2,15.3c2,1.9,2.8,4.8,4.5,7.9c1.5-1.8,3.6-3.4,4.5-5.5
	c6.5-14.4,12.6-28.8,12.5-45.3c-0.1-7.7,0.3-15.5-0.7-23.2c-0.9-6.9-2.5-13.7-4.3-20.4c-0.5-1.8-2.7-3.3-4.4-4.5
	c-3.9-2.7-7.9-5.1-12-7.5c-4.4-2.6-9-4.8-13.3-7.6c-1.3-0.9-1.8-3.1-2.4-4.7c-0.4-1-0.1-2.2-0.2-3.3c-0.4-2.9-0.9-6.5,2.3-7.5
	c3-0.9,7-0.9,9.8,0.3c4.2,1.8,7.6,5.3,11.7,7.6c10,5.7,19.8,11.8,30.3,16.4c7.9,3.5,16.6,6.5,25.1,6.8c18.7,0.7,37.5,4,56.3,1.2
	c13.2-2,26.5-3.7,38.1-11.2c1.2-0.8,2.8-0.9,3.9-1.8c0.9-0.7,1.7-2,1.7-3c-0.2-11.2-0.3-22.4-0.8-33.6c-0.2-4.2-1.2-8.4-1.9-12.6
	c-0.2-1.1-0.8-2.2-1-3.3c-0.5-3.1-0.6-6.4,2.7-7.9c2.9-1.3,5.2,0.7,6.9,3c4.2,5.6,8.5,11.2,12.7,16.8c0.5,0.7,0.9,1.5,1.5,2.1
	c4.1,4.2,5.1,3.7,8.5-1.3c7-10.3,9.5-22.4,13.8-33.7c2.2-5.8,3.9-11.7,5.8-17.6c0.4-1.2,0.5-2.4,0.8-3.6c-10.1,3.3-19.7,7-28.3,12.9
	c-4.6,3.2-8.6,7.1-13.3,10.1c-3.2,2-7.2,3-10.8,4.4c-2.9,1.1-5.9,2-8.8,3.2c-4.4,1.8-8.5,4.3-13.1,5.3c-9.7,2.2-19.6,4.5-29.5,5.3
	c-14.6,1.2-29.4,0-42.3-7.4c-7.2-4.2-13.1-3.5-20.6-1.4c-10.1,2.8-20.7,4.6-31.2,5.5c-5.3,0.5-11-1.6-16.4-3
	c-6.2-1.7-12.2-3.9-18.2-6.1c-1.7-0.6-3.4-1.7-4.8-2.8c-2.3-2.1-2.6-4.8-1-7.4c2.3-3.6,6-4.5,8.9-2.6c10.1,6.6,21.4,8,33.1,6.6
	c5.9-0.7,11.8-2.3,17.6-3.8c1.7-0.4,3-1.9,5.4-3.4c-3.8-4.7-7-9-10.7-12.8c-7.2-7.7-12-16.7-16.5-26.1c-3.3-6.9-7-13.6-10.6-20.4
	c-5.4-10.5-8.1-21.8-10.1-33.4c-2.5-14.7-4.7-29.5-6.7-44.2c-0.6-4.1,0-8.5,0.3-12.7c0.9-15.3,1.9-30.6,2.7-45.9c0.3-6.9-1-8-7.7-10
	c-3.2-1-6.1-3.1-9.1-4.7c-5-2.6-9.9-5.4-15-7.8c-2.3-1.1-4.8-1.5-4.9-5c-0.1-3.5,2.2-4.3,4.6-5.3c7.5-3.3,14.9-6.5,22.4-9.8
	c5.4-2.3,8.7-5.5,9-12.1c0.5-13.3,1.9-26.7,2.9-40c0.2-3.1,0.9-6.2,1-9.3c0.6-11.5-1.2-22.7-3.6-33.9c-3.4-15.8-6.3-31.8-10.5-47.5
	c-3-11.4-6.1-23.1-14.8-32.1c-1.3-1.4-2.3-3.3-3.1-5.1c-4.8-11.6-13.9-18.7-24.6-24.3c-5-2.6-9.8-5.8-14.7-8.7
	c-1.3-0.8-2.8-1.6-4.3-1.8c-10.8-1.7-21.6-3.9-32.3,0.8c-1.4,0.6-3,1.2-4.1,2.1c-5.7,4.8-11.4,9.8-16.9,14.7
	c-2.5,2.2-5.2,3.6-8.2,1.9c-2.9-1.6-2.2-4.3-1.9-7.4c0.8-9.8,8.7-11.9,15.3-15.2c6.6-3.3,13.6-6.1,20.6-8.7c2.8-1,6.1-1.2,9.1-1
	c4.3,0.3,8.5,1.8,12.8,2.1c10.5,0.8,18.9,5.9,27.3,11.4c5.2,3.4,10.9,6.3,15.8,10.2c3.9,3.1,7.3,7,10.3,11.1
	c5.8,8,11.1,16.4,16.5,24.7c5,7.6,7.3,16.3,9.7,24.8c2.7,9.7,4.8,19.6,7,29.4c1.7,7.6,3.6,15.2,4.6,22.9c1.3,10.3,2.1,20.7,2.7,31.1
	c1,15.4,1.7,30.8,2.6,47.2c2.5-0.4,5.5-0.4,8.2-1.3c10.8-3.8,21.5-7.9,32.3-11.7c9.3-3.3,18.6-6.7,28-9.5c3.4-1,7.4-0.9,10.9-0.1
	c4.2,1,4.9,4.3,2.4,7.9c-4.5,6.4-5.3,10.7-1.1,14.6c2.7,2.5,7,3.9,10.8,4.3c7.5,0.7,15.2,0.2,22.8,0.5c3.4,0.1,6.7,1,10.1,1.6
	c1.7,0.3,3.4,0.8,5.1,1c7,0.8,13.9,1.5,20.9,2.3c8.4,1,16.7,2.4,25,3.1c17.9,1.5,34.7-1.8,49.9-11.7c4.9-3.2,10.1-5.5,13.7-10.6
	c1.6-2.3,2.3-4,1.6-6.5c-2.8-9.5-4.5-19.4-8.4-28.4c-5.6-12.8-12.6-25.1-19.2-37.5c-3.2-6.2-6.8-12.1-10.1-18.2
	c-3.9-7.3-7.6-14.8-11.5-22.2c-6-11.4-12-22.8-18.2-34.1c-4.8-8.8-9.7-17.6-15-26c-5-7.9-6.9-8-15.4-3.9c-3.2,1.6-6.7,2.7-10.1,3.5
	c-4.4,1.1-6.3-0.5-6.1-5c0.2-5.4,1-10.8,1.2-16.2c0.4-7.7,0.5-15.4,0.8-23c0.6-13.8,1.2-27.6,1.8-41.4c0.3-7.4,0.6-14.6,2.9-21.8
	c2.3-7.4,2.9-15.3,3.8-23.1c1-7.9,6.4-10.7,12.8-6.2c5.4,3.8,10.8,7.7,16,11.8c10.2,8,20.2,16.1,30.5,24.1
	c10.1,7.8,20.3,15.5,30.6,23.1c3.4,2.5,7.2,4.5,10.6,6.9c4.8,3.4,9.5,7.1,14.3,10.6c1,0.7,2.2,1.2,3.3,1.8c2.2,1.1,4.5,2.1,6.9,3.2
	c-1.8,4.4-3.3,7-8.6,6.8c-10.7-0.5-21,2.3-31.2,5.7c-4.1,1.4-4.9,4-3,7.6c2,3.8,4.1,7.5,6,11.3c1.8,3.6,3.1,7.5,5,11.1
	c1.8,3.4,4.5,6.4,6.3,9.8c3.5,6.9,6.6,14.1,9.9,21.1c2.3,4.8,3.7,10.1,9.1,12.8c1.6,0.8,2.9,2.8,3.7,4.6c2.9,6.3,6.5,12.1,10.8,17.6
	c4.4,5.6,7,12.6,10.4,18.9c3.5,6.5,6.7,13.2,10.7,19.5c6.5,10.2,13.7,20.1,20.4,30.3c3,4.5,6,8.8,10.8,11.7
	c4.6,2.7,7.3,1.6,11.4-1.6c7.7-5.9,8-14.6,10.2-22.6c3.5-12.9,7-25.8,10.2-38.7c3.1-12.7,5.8-25.5,8.8-38.2
	c2.1-8.7,4.1-17.5,6.6-26.1c1.8-5.9,1.9-11.6-0.9-17.1c-5.4-10.6-11.4-20.9-16.7-31.5c-2.3-4.5-3.9-9.5-5.2-14.4
	c-1.1-4,0.8-5.8,4.9-6.9c12.8-3.2,25.8-5.9,38.4-10c11.7-3.8,22.8-9,34.2-13.8c8.5-3.6,17.1-7.2,25.3-11.4c7.9-3.9,7.8-4.3,11.8,3.6
	c0.9,1.8,1.4,3.9,1.4,5.9c0,16.5-0.3,33.1-0.1,49.6c0.2,15.2,1.2,30.5,1.6,45.7c0.3,10.8-0.1,21.5,0.3,32.3c0.2,5.3,1.6,10.6,2,16
	c0.4,5.2,0.7,10.6,0.1,15.7c-0.6,5-6.1,6.4-9.6,2.7c-3.8-4-7.2-8.5-10.8-12.7c-4.2-5-8.4-9.9-12.9-15.1c-0.8,1-1.5,1.5-1.8,2.1
	c-6,12.2-10.3,24.9-13.1,38.3c-1.3,6-4,11.8-6.2,17.6c-4.2,11.2-8.5,22.2-8.8,34.4c-0.2,8.4-1.7,16.7-1.9,25.1
	c-0.2,8.8,4.2,12.5,13.1,11.2c9.1-1.4,18.3-2.5,27-5.2c8.4-2.5,16.4-6.8,24.5-10.3c12.8-5.5,25.5-11,38.2-16.6
	c3.7-1.6,7-3.8,10.7-5.5c4.1-1.9,4.9-5.1,4.3-9.2c-1-6.8-1.8-13.5-2.8-20.3c-0.9-6.2,0-9.6,9.1-10.1c10.4-0.5,20.6,2.2,30.2,6.2
	c10.2,4.2,20.5,8.2,30.5,12.8c6.6,3,12.7,7.1,19.2,10.4c7.2,3.7,14.6,7.3,22,10.6c4.7,2.1,9.7,3.5,14.3,5.8c1.3,0.7,2.5,3.3,2.3,4.8
	c-0.2,1.5-2,4-3.3,4.1c-8.5,0.6-15.6,5-22.7,8.7c-4,2.1-7.1,5.7-10.9,8.1c-8.9,5.6-18.2,10.6-26.9,16.5
	c-9.1,6.1-17.8,12.8-26.3,19.7c-8.5,6.9-16.5,5-20.6-5.4c-3-7.7-4.1-8.4-12.1-5.6c-4.4,1.5-8.4,4.1-12.6,6.1
	c-4.2,2-8.5,3.8-12.6,5.9c-6.5,3.2-13.1,6.3-19.3,10.1c-11.3,6.9-22.3,14.3-33.4,21.4c-0.8,0.5-1.9,0.7-2.8,1c0.3,0.7,0.6,1.3,0.9,2
	c8.4,3.4,16.9,6.7,25.2,10.3c5,2.2,9.9,4.8,14.7,7.6c8.8,5.1,17.7,10.1,26,15.9c6.3,4.4,11.8,9.8,17.7,14.8
	c3.4,2.8,6.8,5.5,10.1,8.4c9.4,8.3,18.7,16.7,28.1,25c1.7,1.5,3.8,2.4,5.6,3.8c1.1,0.9,1.9,2.2,2.8,3.3c0.6,0.7,1.2,1.3,1.9,1.9
	c4.1,3.2,8.2,6.3,12.2,9.6c0.4,0.3,0.4,1.3,0.8,1.4c10.2,3.2,15.7,12,23.3,18.4c5,4.2,10.3,8,15.2,12.2c4.4,3.8,8.2,8.1,12.7,11.8
	c7,5.8,14,11.5,21.4,16.6c8.1,5.5,14.8,12.2,22,18.6c5,4.4,11.4,7.2,17.2,10.8c8.6,5.4,17.2,10.9,25.9,16.3c2.3,1.4,4.7,2.6,7.1,3.8
	c13.6,7.1,27.2,14.1,41.1,21.2c7.4-10.4,12.1-21.1,15.5-32.6c2.3-7.7,5.4-15.2,8.2-22.7c3.2-8.5,6.1-17.2,10.1-25.3
	c7.5-15.6,15.7-30.9,23.4-46.4c4.4-8.8,8.1-18.1,13.2-26.6c3.6-6,8.8-11.1,13.3-16.6c2-2.5,3.8-5.2,5.8-7.7
	c5-6.3,9.5-13.1,15.2-18.8c7.8-7.7,16.5-14.6,24.9-21.7c1.7-1.5,3.9-2.5,5.9-3.6c7.6-4.1,15.2-8.2,22.8-12.2c1-0.5,2.2-0.7,3.3-1
	c4.7-9.9,5.6-20.5,5.9-31.3c0.1-4,1.6-8,2.8-12c2-6.5,3.9-13,6.8-19.2c2.6-5.6,6-11,9.5-16.1c3.6-5.3,7.4-10.5,11.8-15.2
	c4.9-5.4,10.7-10.1,15.7-15.4c6.3-6.5,14.6-9.7,22.6-13c5.3-2.2,11.2,0.2,16.1,3.4c1.7,1.1,3.1,2.5,4.8,4
	c-0.6,5.8-1.1,11.8-1.8,17.8c-0.3,2.8-5.8,6.2-9.8,6.1c-1.8,0-3.6-0.3-5.4-0.4c0.2,0.4,0.3,0.7,0.5,1.1c-6.1,2.9-12.4,5.4-18.2,8.9
	c-5.8,3.5-11.1,7.8-16.3,11.5c-0.5,1.4-0.6,3.2-1.6,4.3c-2.6,2.9-5.5,5.4-8.2,8.2c-2.1,2.1-4,4.4-5.2,7c-2,3.9-4.3,7.7-5.9,11.8
	c-1.1,2.8-1.8,5.9-1.9,8.9c-0.2,4.4,0.3,8.8,0.6,13.2c0.2,2.9,1.6,4.5,4.9,3.6c1.8-0.5,3.7-0.4,5.6-0.8c4.5-1,7.4-3.2,9.4-8
	c3.3-7.7,7.1-15.6,12.5-21.9c5.5-6.4,13.8-9.5,21.9-12.6c8.8-3.4,17.6-2.2,26.4-2.6c8.4-0.4,16.6,1.8,23.6,7.3
	c4.3,3.4,9.2,6,13.4,9.5c1.3,1.1,1.6,3.5,2.3,5.2l0.1-0.1c-1.4,0-2.9,0-3.4,0c-2-1.7-3.2-3.2-4.8-4.1c-3.5-2.3-7.1-4.5-10.8-6.5
	c-6.9-3.6-13.5-7.7-22.2-5.6c-5.9,1.4-12.6,0.1-18.3,1.9c-7.7,2.4-15.6,5.6-21.8,10.5c-4.7,3.8-9.5,9.2-10.1,16.3
	c-0.1,1.1-0.7,2.2-1,3.2c-1.3,4-0.2,5.8,3.9,6.6c1.8,0.3,3.5,0.9,5,1.3c4.3-3.5,8.6-6.9,12.8-10.4c11.1-9,23.2-10.6,36.3-5.1
	c2.2,0.9,4.7,1.6,6.7,2.9c3.9,2.7,7.9,5.3,11.1,8.7c2.5,2.8,4.1,6.5,5.6,10c0.5,1.2-0.4,3-0.8,5.5c2.4,2.3,5.1,5.3,3.4,10.4
	c-1.3,4.1-1.7,8.3-6.8,10.5c3.5,6.3,0.5,9.9-6.2,11.7c1.5,1.4,2.4,2.2,3.8,3.4c-2.4,0.7-4.4,1.3-6.6,1.9c1.6,3.9-0.3,5.5-3.6,7.2
	c-5.6,2.8-10.8,6.4-16.2,9.6c-0.5,0.3-1,0.9-1.4,0.9c-5.5-0.5-10.9-1.1-16-1.6c-1.1,1.1-2.4,2.7-4.1,3.7c-0.5,0.3-1.9-0.8-2.7-1.2
	c-1.3,0.5-2.7,1.2-4.7,2c0.4-3.2,0.6-5.4,1-8.3c5-0.2,10.2-0.3,15.2-0.7c3.9-0.3,7.8-0.5,11.6-1.4c1.7-0.4,3.1-2.2,4.7-3.2
	c8.2-5,14.4-11.9,19.9-19.5c0.9-1.3,1.6-3,1.8-4.5c1.1-7.5,2.8-14.9,1.1-22.6c-1.4-6-5.3-9.8-9.6-13.8c-9.3-8.8-20-7.4-31-5.4
	c-7.8,1.4-12.9,6.1-16.8,12.5c-0.8,1.3-1,3-1.1,4.5c-0.2,3.5-0.2,7-0.2,10.6c0,5.6,1.5,10.3,6.1,14.2c8.1,6.9,17.6,8.3,26.8,4.7
	c4-1.6,9.4-3.7,11.5-9.3c1.6-4,5.2-7.3,8.9-10.7c-0.2,2.3,0,4.7-0.5,7c-3.1,12.8-15.8,22-27.2,22.1c-6.8,0-13.4-1-19.8-5.3
	c-5.5-3.8-8.8-8.4-11.9-13.7c-0.4-0.8-1.4-1.3-2.2-1.7c-8.8-4-18.2-3.8-27.5-3.7c-0.9,0-2.6,2.3-2.5,3.4c0.5,4.2,1.5,8.3,2.6,12.4
	c0.2,0.8,2,1.3,3,1.9l0.1-0.1c-4.7-0.1-1.9,4.7-4.2,6.3c-2.5-4.7-4.8-9.4-7.3-14c-3.2-5.8-5.1-7.4-9-3.8c1.3,11,2.3,21.1-7.1,29.6
	c-6.1,5.5-12.6,9.4-20.5,11.7c-7,2-13.6,5.3-20.3,8.2c-1.3,0.6-2.4,1.8-3.4,3.7c1.7-0.2,3.6,0,5.1-0.6c8.8-3.9,18.1-3.4,27.4-2.6
	c2.1,0.2,3.9,2.7,5.9,4.1c-0.7,1-1.3,2.6-2.2,2.7c-3,0.4-6,0.4-9,0.4c-9,0-17.7,1.2-25.7,5.4c-0.6,0.3-1.4,0.3-2.1,0.5
	c-5.7,2.5-11.2,5.4-17.1,7.3c-4.5,1.5-8.2,3.6-11.5,6.8c-0.7,0.7-1.5,1.4-2.2,2.2c-3.6,3.9-7.2,7.8-10.9,11.7
	c-2.4,2.6-5.3,4.8-6.9,7.8c-2.1,3.9-4.7,6.9-8.3,9.6c-5.4,4.1-5.4,11.4-8.3,17c-3.6,6.8-7.1,13.6-10,20.7
	c-3.5,8.5-6.3,17.2-9.5,25.9c-0.8,2.2-1.3,4.7-2.8,6.5c-2.8,3.4-2.6,7.2-3,11.1c-0.2,2-0.4,4.2-2.4,3.3c-1,2.8-2,5.5-2.9,8.3
	c-0.7,2-1.8,4-1.9,6.1c-0.4,7.1-3.5,13.3-6.6,19.5c-1.5,3.1-0.6,4.6,2.1,6.1c7.9,4.4,15.3,9.8,23.6,13.3c6.9,3,14.7,3.9,22.1,5.7
	c1.4,0.3,2.8,0.6,4.5,1c0.7-3.1,1.2-6.2,2.2-9.1c1.4-4.2,3-8.5,4.8-12.6c2.8-6.1,15.2-8.9,19.9-7.4c4.9,1.5,10.1,2.3,14.9,4
	c3,1.1,5.7,3.2,8.3,5.1c1.7,1.2,3,3.2,4.8,4.1c6.8,3.2,10.8,8.8,15.1,14.7c5,6.8,8.7,14.3,13.1,21.4c2.7,4.4,6.2,8.3,8.9,12.7
	c2.5,4,4.3,8.4,6.6,12.5c1.2,2,3.1,3.7,4.1,5.8c3.5,7.9,6.3,16.1,10.1,23.7c5.7,11.4,9.7,23.4,13.5,35.4c1.8,5.6,4.7,10.8,7.1,16.3
	c0.3,0.8,0.5,1.7,1.1,2.2c1.6,2.2,3.6,4.2,4.7,6.7c3.1,6.9,7,13.1,12.2,18.7c6.6,7.2,12.4,15.1,18.7,22.6c2.1,2.5,4.7,4.5,7.1,6.8
	c7.3,6.8,14.4,13.7,21.9,20.2c2.8,2.4,6.5,4.1,10,5.6c6.8,2.9,13.5,6.2,20.6,8.1c12,3.2,23.9,1.4,35.6-2.2c3.8-1.2,7.7-2.3,11.5-3.7
	c8.8-3.1,15.2-9.4,21.5-15.9c0.3-0.4,0.4-1,0.9-2.3c-5.7,0-10.9-0.3-16.1,0.1c-11.7,0.7-22.4-3-31.5-9.4
	c-12.3-8.7-19.4-21.3-18.5-36.6c0.8-12.7,5.6-24.1,15.8-32.9c6.8-5.9,14.1-11,23-12.4c6-0.9,12.3-0.8,18.4-0.1
	c12.2,1.3,23.4,5.3,32.3,14.1c9.6,9.5,15.8,20.5,16.3,34.3c0.4,11.6-3.4,21.9-8.1,32.1c-2.4,5.2-4.4,11-8,15.4
	c-8.1,9.8-17.7,18.1-28.7,24.9c-5.7,3.5-12,3.5-17.8,5.8c-12.5,5-25.5,8.2-39.1,7.4c-9.8-0.6-19.6-2.2-29.3-4.1
	c-4.3-0.9-8.3-3.5-12.3-5.7c-4.5-2.5-9.7-4.7-13.1-8.3c-6.8-7-16.8-9.7-22.2-18.6c-3.1-5.2-9.4-8.4-13-13.4
	c-7.5-10.2-14.1-21.1-21.2-31.6c-2.7-4-5.8-7.7-9.2-11.2c-3.4-3.6-10.5-1.6-11.8,3.3c-1.2,4.5-2,9.1-3,13.6
	c-0.2,0.7-0.5,1.3-0.8,1.9c-2.8,6.7-5.6,13.3-8.2,20.1c-1.6,4.2-5.9,12.2-11.8,15.3c-1.1-0.6-2.3-1.2-3.9-2.2
	c5.8-8.8,9.5-18,10.9-28.1c1.4-10.1,3.7-20.1,1.4-30.4c-0.3,3.2-0.3,6.5-1.2,9.6c-2,7.1-4.4,14-6.7,21c-0.6,1.9-1.1,3.9-2.1,5.6
	c-4,7.5-10.4,11.8-18.8,13c-1.5,0.2-3.3-1.2-5.3-2c-6.3,3-26.1-10.3-28.2-19.8c-0.3,1-0.5,1.7-0.8,2.6c-0.4-0.2-1.1-0.4-1.1-0.6
	c-0.9-6.9-7.8-10.1-10.1-16.6c-1.8-5.1-4.3-10.6-7-15.7c-5.4-10-6.9-20.9-7.8-31.9c-0.7-7.9-1.7-15.8-1.3-23.7
	c0.3-6.4,2.5-12.8,3.4-19.3c1.1-8.2,6.7-14.1,10.8-21.6c-2.8-0.9-5.2-1.6-7.5-2.3c-1.1-0.3-2.4-0.5-3.1-1.2
	c-3.1-2.8-4.7-2.4-6.6,1.5c-4,8-4,16.4-3.7,25c0.4,10,0,20,1.2,29.8c0.7,5.3,0.6,10.8,3.1,16.1c2.6,5.4,2.6,11.9,4.3,17.8
	c1.5,5.2,4.1,10,5.9,15.1c1,2.8,1.4,5.9,2.1,9.3c4.2,0.4,4.6,5.2,6.8,8.4c2.8,4.1,5.9,8,7.8,12.5c2.3,5.4,7.4,8.1,10.7,12.4
	c1.1,1.5,3.2,2.4,4.8,3.5c2.2,1.5,3.2,3.2,1.2,5.8c-4.3-0.8-8.2-2-11-5.9c-1.5-2.1-4.4-3.2-6.1-5.2c-5.1-5.9-11.6-10.7-14.1-18.7
	c-1-3.2-3.9-5.7-5.5-8.7c-2.5-4.8-4.7-9.8-6.7-14.9c-1-2.6-1.2-5.4-2-8.1c-0.8-2.8-2.1-5.4-2.8-8.2c-1.4-5.2-2.2-10.5-3.9-15.6
	c-6.1-18.8-4.3-38.2-4.1-57.5c0.1-7,2-13.9,3.1-21.4c-10.2-4.8-20.5-9.6-30.6-14.7c-5.9-2.9-11.5-6.4-17.1-9.8
	c-3.2-1.9-5.7-1.9-8.2,1.1c-4.1,5-8.2,10.1-13,14.5c-4.2,3.8-9.1,6.8-13.9,9.8c-4.1,2.6-8.3,5-12.7,7.1c-12.7,6-26.2,8.2-40.2,7.4
	c-5.9-0.3-11.8-0.9-17.7-1.8c-3.2-0.5-6.2-1.9-9.3-3c-5.6-1.9-11.2-3.6-16.6-5.8c-2.9-1.2-5.4-3.2-8.1-4.8c-3.8-2.2-7.8-4-11.4-6.4
	c-9.9-6.6-19.8-13.3-29.4-20.3c-6.9-5.1-13.5-10.8-20-16.4c-2.7-2.3-4.8-5.4-7.4-7.9c-5.9-5.8-12.1-11.4-17.8-17.4
	c-5.2-5.6-9.9-11.7-14.8-17.6c-8.7-10.5-17.4-21-25.9-31.7c-8.9-11.3-17.4-22.8-26-34.3c-8.6-11.4-17.3-22.7-25.7-34.3
	c-3.7-5-6.9-10.4-9.8-15.9c-5.9-11-11.3-22.3-17.2-33.3c-4.5-8.3-9.7-16.2-14.5-24.4c-1.9-3.2-3.4-6.6-5.3-10.3
	c-7.1,7.3-12.4,15.3-15.9,24.5c-0.2,0.7-0.6,1.4-0.5,2.1c1.6,8.1,3.2,16.3,4.8,24.4c0.6,2.9,1.1,5.9,2.3,8.6
	c3.5,8.2,7.1,16.4,10.9,24.4c3.7,8,7.9,15.8,11.4,23.8c2.8,6.4,4.8,13.2,7.6,19.7c2.1,5,4.6,9.8,7.2,14.5
	c5.1,9.3,10.7,18.2,13.7,28.6c1.6,5.5,6.2,10,8.4,15.3c1.9,4.6,4.1,8.6,9.2,11.6c0-1.7-0.4-3.1,0.1-4.2c0.6-1.6,1.6-3.3,2.9-4.1
	c0.8-0.5,3.1,0.2,4,1c2.8,2.9,5.6,5.9,7.5,9.4c0.9,1.7-0.1,4.5-0.2,6.8c-0.1,5.2-0.2,10.5-0.3,15.7c0,1.6,0,3.2,0.4,4.7
	c3.7,13.5,1.7,27.2,1,40.8c-0.9,18.8,0.3,37.4,3.3,56c0.8,5.1,2,10.2,2.2,15.4c0.2,6.5-3.9,9.6-10.1,7.7c-4.6-1.4-9-3.6-13.1-6.1
	c-9-5.6-17.7-11.6-26.6-17.4c-2.3-1.5-5.3-2.2-7.5-3.8c-3.2-2.3-5.8-5.2-8.9-7.6c-2.8-2.3-5.8-4.3-8.8-6.4
	c-4.4-3.1-8.9-6.2-13.3-9.3c-5.4-3.7-10.8-7.3-16.1-11.1c-6.6-4.7-13.3-9.3-19.5-14.4c-2.6-2.1-4.5-5.2-6-8.2
	c-1.6-3.2,0.3-6.1,3.5-7c5.2-1.4,10.7-2.8,16-3c6.1-0.2,11-2,15.4-6.1c1.9-1.9,4.2-3.4,7.1-5.6c-1.3-3.4-2.3-7.3-4.1-10.9
	c-4.3-8.6-9.2-16.8-13.4-25.4c-4.1-8.5-7.5-17.4-11.4-26c-1.8-4-4-7.8-6.1-11.6c-4.3-8.2-8.7-16.4-13.1-24.5
	c-5.3-9.8-10.7-19.6-16-29.4c-0.8-1.4-1.1-3.1-1.6-4.6c-0.2-0.8-0.2-1.8-0.6-2.4c-4.9-6.7-9.9-13.4-14.8-20
	c-2.1-2.8-4.6-1.9-6.8-0.5c-6.8,4.3-11.3,17.4-9.5,25.2c2.2,8.8,3.7,17.8,5.8,26.7c2.1,9.2,4.5,18.5,6.8,27.7
	c2.8,10.7,5.3,21.5,8.6,32.1c6,19.5,12.3,38.9,18.6,58.4c2.9,8.9,5.8,17.8,9.4,26.5c6.4,15.4,14,30.4,19.9,46
	c7.4,19.5,19.3,36.5,29.3,54.6c2.1,3.7,5.4,6.8,7.9,10.3c5.8,7.9,11,16.2,17.2,23.8c5.8,7.1,12.2,13.8,19,19.9
	c10.4,9.4,21.2,18.6,32.2,27.3c10.9,8.6,23.7,13.6,36.7,18.1c13.2,4.5,26.8,5.9,40.4,1.5c3.8-1.2,6.4-3.1,8-7.4
	c2.7-7.6,7-14.5,10.1-22c2.8-6.9,4.9-14.1,7.4-21.2c0.8-2.2,2.1-4.3,3.2-6.5c3.3-6.1,6.3-12.3,10-18.1c4.7-7.4,9.8-14.4,14.8-21.6
	c3.2-4.6,6.5-9.2,9.8-13.8c0.8-1.2,1.6-2.3,2.6-3.4c6.7-7.6,13.4-15.3,20.3-22.8c4.2-4.6,8.3-9.5,13.2-13.2
	c5.8-4.4,12.7-7.6,18.9-11.6c9.9-6.5,21.2-8.4,32.5-10.7c1.2-0.2,2.5,0.1,3.8,0.1c1.6,0,3.2,0.1,4.9,0.1c0.5,0,1.1-0.6,1.6-0.5
	c6.1,0.8,12.2,1.7,18.3,2.7c0.9,0.2,1.6,1.1,2.4,1.6c-0.3,1.7-0.7,3.2-1,4.6c-7.6-0.8-15-1.7-23.1-2.6c-1.2,0.3-3.2,0.8-5.3,1.1
	c-7.9,1-15.9,1.4-23,5.8c-3.1,1.9-6.8,2.9-9.8,4.9c-9.6,6.3-19.4,12.4-26.1,22.2c-0.5,0.8-1.5,1.2-2.3,1.8c-5.9,4.2-10,10-14,15.9
	c-2.4,3.6-5.6,6.6-8.2,10c-4.5,5.9-9.1,11.8-13.2,18c-5.2,7.8-9.9,15.8-14.8,23.8c-6.1,10.1-9.7,21.2-13.6,32.2
	c-2.2,6.2-4.5,12.4-6.8,18.6c0.5,0.4,1,0.8,1.5,1.2c3.8-3.1,8.1-5.8,11.5-9.4c4.1-4.3,8-9.1,11.1-14.2c2.5-4.1,3.2-9.1,5.3-13.4
	c5.6-11.3,11.1-22.8,17.7-33.5c5.4-8.9,11.9-17.4,18.9-25.2c6.1-6.8,13.8-12.2,20.5-18.6c8.4-8.1,20.1-11.4,28.6-19.4
	c1.9-1.8,5.4-2,8.2-2.8c1.2-0.4,2.8-0.3,3.7-0.9c8.1-5.7,17.5-4.7,26.5-4.4c4.8,0.2,9.5,2.9,14.1,4.9c1.1,0.5,1.6,2.2,2.4,3.4
	c-0.2,0.3-0.5,0.7-0.7,1c-2.7-0.5-5.4-1.2-8.1-1.4c-5.4-0.5-10.9-1-16.3-1.2c-2.8-0.1-5.7,0.1-8.4,0.8c-10.2,2.7-19.1,7.8-27.3,14.3
	c-3.7,2.9-8.5,4.5-12.3,7.4c-6.2,4.7-12,9.9-17.7,15.1c-3.1,2.8-5.5,6.2-8.4,9.2c-0.6,0.6-1.9,0.6-2,0.7
	c-7.7,12-15.6,23.4-19.9,36.9c3.3-2.3,6.5-4.9,10-6.8c6.6-3.5,13.6-6.1,21.3-6.4c1,0,2.1-0.9,2.9-1.6c5.8-5.4,11.2-11.3,17.4-16.2
	c3.7-2.9,8.9-3.8,13.1-6.3c5.4-3.2,11.1-1.6,16.7-2.1c0.6-0.1,1.3-0.1,1.6-0.4c3.4-3.1,4.9-1.3,5.6,3.1c0.6-1.8,0.9-2.8,1.2-3.8
	c0.4-0.1,0.6-0.2,0.9-0.2c4.4,1.1,8.9,1.9,13.3,3.3c1.9,0.6,3.3,2.5,5.2,3.4c3.2,1.8,7.1,2.7,9.9,5c5.1,4.2,11.4,7.2,13.8,14.2
	c0.9,2.6,3.4,4.6,4.2,7.2c1.1,3.7,1.3,7.6,2.1,12.7c2,1.8,2.2,5.2-3.3,10.5c-2.2,0-4.1,0-6.5,0c-2.6-5.2-6-10.5-5.8-17.4
	c0.1-3.5-2.3-7.2-3.8-10.7c-0.9-2.3-1.4-5.1-3.1-6.6c-3.9-3.5-8.4-6.4-12.8-9.4c-11.1-7.4-23.1-3.7-34.7-1.7
	c-3.4,0.6-6.9,4.1-9.1,7.1c-2.2,3.2-3.2,7.4-4.1,11.3c-0.3,1.1,1.1,3.5,2.2,3.8c12.7,3.6,22,12.5,32,20.3c0.8,0.6,1.2,1.8,1.7,2.8
	c1.7,3.6,4.6,6.5,6.6,9.7c4.3,6.6,6.5,14.5,9.6,21.9c0.6,1.3,1.5,2.6,2.2,3.8c0.5,0.8,1.2,1.7,1.3,2.5c0.3,6.9-0.6,13.6-4.3,19.6
	c-0.8,1.2-2.7,2.4-4.1,2.5c-7.2,0.4-14.5,0.8-20.8-3.5c-1.7-1.1-3.2-2.7-4.2-4.4c-5-8.4-9.7-17-14.7-25.4c-0.8-1.3-2.3-2.2-3.5-3.2
	c-0.1-1.2-0.2-2.5-0.3-4.9c-1.6,1.5-2.4,2.2-3.4,3.1c0-1.7,0-3,0-4.9c-1.6-0.1-3.1-0.2-4.9-0.4c-1.1,6.3-0.2,11.9,2.1,17.4
	c1.3,3,2.9,5.9-1,8.1c-2.9,1.6-6.8-0.7-8.7-3.8c-3-4.9-6.6-9.5-10-14.2c-3.7-5.1-7.7-2-11.9-0.3c-1.1-5.6-2.1-11.1-3.3-17.7
	c-4.3,3.2-9,5.8-12.4,9.5c-5.8,6.2-10.7,13.1-16.2,19.6c-1.2,1.4-3.3,2.5-5.2,3.1c-3.2,1-9.5,9.3-9.7,12.7
	c-0.6,9.2-0.5,18.6-2.5,27.5c-1,4.5-5.7,8.3-9.1,12.1c-4.8,5.3-11.2,8.1-18.1,9.8c-5.4,1.3-10.9,2.4-16.2,4.1
	c-2,0.7-4.1,2.6-5.1,4.5c-3.6,7.2-5.4,15.9-10.5,21.6c-5.7,6.4-8.6,14.2-14.1,20.5c-1.8,2-3.6,4-5.7,6.3c0,0-0.7-0.4-0.5-0.2
	c-2.3,3.3-4.3,6.2-6.3,9.1c-1.4,2.1-2.8,4.2-4.3,6.3c-0.7,1-1.6,2.5-2.6,2.7c-5.8,1.3-7.8,6.6-10.5,10.6c-1.7,2.6-2.6,2.8-4.5,1.6
	c-5.2,8.8-13.5,13.7-22.5,18.1c0.1,0.9,0.3,1.9,0.5,3.8c-1.6-0.5-2.6-0.9-3.8-1.2c-0.1,0.2-0.2,0.6-0.4,0.9
	c-1.3,1.7-2.3,4.4-3.9,4.8c-3.7,0.8-6.3,2.2-7.8,5.6c-0.2,0.3-1,0.4-1.8,0.6c-0.6-1.3-1.1-2.5-1.6-3.7c-0.5,0.1-1,0.2-1,0.2
	c1,5.2-3.3,5.4-6.4,6.9c-1,0.5-1.9,1.2-2.9,1.9c-0.6-0.5-1.3-1.1-2-1.7c-1,1.7-1.8,3.2-2.6,4.6c-0.4-0.2-0.8-0.3-1.2-0.5
	c0.1-1.1,0.1-2.1,0.2-3.2c-0.3-0.1-0.5-0.1-0.8-0.2c-0.4,0.9-0.6,2.2-1.3,2.8c-1.9,1.4-4,3.5-6.1,3.6c-5.3,0.1-5.3-0.2-8.7,3
	c-0.6-1.1-1.2-2.1-2.2-3.8c-0.3,1.3-0.5,2.1-0.8,2.8c-0.6,1.3-1,3.5-1.8,3.7c-2.3,0.4-4.8,0.2-7.2-0.2c-1.4-0.2-2.8-1.1-5.4-2.1
	c0.8,2.3,1.2,3.1,1.5,4c-0.2,0.2-0.4,0.5-0.6,0.5c-7.1,0.4-13.9,1.1-20.9-2.6c-5.2-2.7-11.9-2.5-18-3.5c-1.3-0.2-2.6-0.1-3.8-0.3
	c-3.5-0.4-6.7-0.6-10.6,0.4c-5.1,1.4-11-0.1-16.5-0.7c-4.3-0.5-8.6-2.1-12.9-2.3c-5.5-0.3-10-2.9-11-7.6c-0.2-1.2-0.3-3.4,0.3-3.7
	c2.2-0.9,5.1-2.2,7.1-1.6c4.3,1.4,8.2,4,12.3,5.9c1.7,0.8,3.5,1.2,4.5,2.6c-0.5-1.4,0.3-3.1,4.1-1.6c2.8,1.1,6.4,0.2,11,0.2
	c-2.7-3.9-4.3-7.3-6.9-9.7c-4.4-4-8.4-7.9-7.7-14.4c0-0.3,0-0.7-0.1-0.8c-6.6-4.3-4.3-12.6-8.4-18.3c-1.9-2.7-1.4-7.5-1-11.3
	c0.4-4.9,1.7-9.7,2.7-14.6c0.5,0,0.9,0.1,1.3,0.1c0.2,3,0,6,0.6,8.9c0.8,3.8,2.7,7.4,3.2,11.2c1.1,9.1,3.9,17.7,8.1,25.8
	c2.8,5.2,8.1,10.8,13.7,15.6c2.3,2,4,5.5,7.3,4.8c5.2-1,10.4-2.8,15.3-4.9c3.2-1.3,6-3.8,9.2-5.3c0.8-0.4,2.6,0.8,3.5,1.7
	c0.7,0.7,0.8,2.1,1.2,3.1c-0.7,1.1-1.2,2.6-2.2,3.3c-3.6,2.5-7.4,4.7-12,7.6c3.5,1.6,5.7,2.9,8.1,3.7c3,1,6.1,2.3,9.1,2.1
	c5.1-0.3,10.1-1.6,15.2-2.6c5.2-1,10.3-2.1,16-3.3c0.1,0.1,0.8,0.9,1,1.2c2.3-2,4.2-4.1,6.6-5.5c3.5-2.1,7.2-4.8,11-5
	c3.5-0.2,4.1-3.5,6.6-3.8c5.2-0.7,9-3.2,12.2-7c0.6-0.8,1.7-1.8,2.4-1.7c4.3,0.5,5.3-3.1,7.4-5.4c0.7-0.7,1.3-1.5,2-2.1
	c3.3-2.7,6.8-5.3,10-8.2c3.1-2.9,5.4-6.8,8.9-8.9c3.1-1.9,5.9-4.4,7.6-6.9c5.9-8.5,14.4-14.9,19-24.7c2.4-5.2,7.2-9.4,10-14.8
	c3.4-6.5,7.5-12.7,11.1-19.1c0.9-1.6,0.9-3.6,1.3-5.5c-0.3-0.3-0.7-0.7-1.1-1c-4.1,1.8-8.2,3.4-12.2,5.4c-2.8,1.4-5.4,3.2-8.2,4.7
	c-7.9,4.4-15.9,8.8-23.9,13c-1.7,0.9-3.7,1.5-6.5,2.6c-2.3,8.2-12.2,11-17.2,18.4c-1.5,1.5-2.6,3.3-4.2,4.8
	c-1.7,1.6-3.7,2.9-5.5,4.3c-5.8,6.7-11.4,13.2-17.7,19.1c-6.3,5.8-13.3,11-20.7,16.9c0-0.1-0.1,1-0.2,1.7c-2.2,1.1-4,2-6.1,3.1
	c-0.5-1.2-0.9-2.2-1.2-2.9c-0.8,1.8-1.2,4.4-2.7,5.5c-4,2.8-8.3,5.3-12.8,7.4C880,1084.6,876,1085.5,872.2,1086.7z M958.7,649.3
	c-3.3,3.4-6.6,6.9-10,10.2c-2.7,2.6-5,1.3-6.7-1.5c-4-6.5-7.9-13-11.8-19.6c-0.8-1.4-0.6-3.8-1.7-4.7c-5.2-4.2-7.1-10.1-9.7-15.7
	c-4.8-10.5-9.9-20.8-14.8-31.3c-2.8-5.9-5.1-12-8.1-17.8c-7.8-15.1-15.9-30-23.6-45.2c-5.3-10.4-10.1-21-15.3-31.4
	c-5.9-11.6-12.1-23.1-18.1-34.6c-5.4-10.3-2.6-16.5,8.1-21.6c8.2-3.9,15.6-9.3,23.2-14.3c1.1-0.7,2.3-2.7,2.1-3.8
	c-0.2-1-2.2-1.9-3.6-2.5c-9.5-4-19.5-3.2-29.4-2.5c-5.4,0.4-9.8,3.3-13.9,6.5c3.4,8.6,2.2,11.4-4.7,14c-5.5,2-7.1,7.2-6.2,14
	c1.9,14.1,8.7,26.5,13.1,39.8c2.1,6.3,4.9,12.3,6.8,18.6c0.5,1.8-0.8,4.6-2.1,6.1c-0.5,0.6-4.2-0.3-5.3-1.5c-3.5-4-6.6-8.5-9.6-12.9
	c-5.7-8.4-11.3-16.8-16.9-25.3c-4.1-6.2-8.1-12.5-12.2-18.7c-1.4-2.2-2.4-5-4.4-6.5c-5.6-4.3-7-10.2-6.2-16.4
	c1.3-10.4-1-20.1-4.6-29.6c-1.8-4.8-4.5-9.3-6.8-14.2c1.9-3.7,4.7-4.9,8.9-2.4c2.8,1.6,5.8,3,8.9,4.3c10.3,4.4,20.4,9.2,28.5,17.2
	c0.6,0.6,1.9,1.3,2.6,1.1c4.9-1.5,9.8-3.2,15.1-4.9c-3.6-7.5-8.4-11.9-14.9-14.2c-4.9-1.7-10-8.1-9.1-13.1
	c1.4-7.3,4.5-13.9,9.1-19.8c2.6-3.3,5.1-3.7,8.3-0.8c4.2,3.8,8.4,7.8,12.7,11.4c1.1,0.9,2.9,1.1,5.1,1.9c0-2.1,0.5-3.6-0.1-4.2
	c-2.8-3-0.5-5.9,0.3-8.6c2.5-8.8,5.7-17.5,8.2-26.3c3.8-13.4,7.1-26.9,10.7-40.4c3.3-12.6,8.5-24.6,9.7-37.8
	c0.7-7.8,3-15.5,5.3-23.1c3.1-10.1,6.9-19.9,10.5-29.8c1.2-3.3,3.9-5.4,7.4-4.4c3.3,0.9,7.1,2.2,9.2,4.5c5.9,6.3,11.1,13.3,16.4,20
	c2.7,3.4,5.2,7,8,10.3c1.1,1.3,2.8,2.2,4.7,3.8c0.2-1.9,0.5-3,0.5-4.1c0-11.5,0.2-23-0.1-34.5c-0.2-10.4-0.9-20.7-1.3-31.1
	c-0.5-13.5-1.2-27-1.2-40.5c-0.1-11.7,0.5-23.4,0.8-35c0.1-2.5-0.4-4.7-3.5-3.3c-6.4,2.7-12.7,6-19.1,8.6c-4.8,2-9.9,3.4-14.8,5.2
	c-7.4,2.9-14.7,6.3-22.2,8.8c-11.2,3.8-22.6,7.1-34,10.5c-2.8,0.8-3.8,2.3-3.1,5c0.4,1.4,0.5,2.9,1.1,4.1
	c4.5,8.5,9.1,16.8,13.6,25.3c4.9,9.2,11.1,18.2,5,29.3c-0.3,0.5-0.2,1.1-0.4,1.7c-2.2,9.8-4.3,19.6-6.8,29.4
	c-2.3,9-5.3,17.9-7.5,26.9c-2.6,10.5-4.7,21-7,31.5c-0.7,3.2-2.2,6.4-2.1,9.5c0.3,7.1-2.6,13.2-4.8,19.7c-2.7,8.1-5.3,16.2-7.9,24.3
	c-2.3,7.2-3.3,14.8-7.6,21.5c-4.3,6.7-8.5,8.3-14.4,3c-4.9-4.4-8.8-10.1-12.7-15.5c-2.6-3.6-4.6-7.8-6.7-11.7c-2-3.6-4-7.2-5.7-10.9
	c-6.3-13.7-12.3-27.5-18.7-41.2c-4.1-8.8-8.6-17.4-12.9-26.2c-3-6.1-5.8-12.3-8.9-18.3c-4.3-8.3-8.9-16.4-13.1-24.8
	c-5.4-10.7-10.3-21.5-15.8-32.1c-4.2-8-9.4-15.6-13.1-23.8c-2.3-5.3-6.3-12.1,0.3-17.1c5.2-3.8,11-7.5,18-7.2
	c3.3,0.2,5.9-0.5,7.8-4.1c-6.3-5-12.4-10-18.7-14.8c-8.7-6.7-17.5-13.2-26.3-19.9c-7.2-5.5-14.2-11.2-21.3-16.8
	c-7-5.5-14-11-21-16.4c-1.1-0.9-3.2-1.7-4.2-1.2c-1.3,0.5-2.3,2.3-2.8,3.8c-0.5,1.4-0.1,3.1-0.4,4.6c-0.6,3.9-1.3,7.7-2.2,11.6
	c-1.1,4.9-2.9,9.8-3.3,14.8c-0.7,8.9-0.4,17.9-0.7,26.8c-0.6,15.9-1.3,31.9-1.9,47.8c-0.1,2.4,0.6,4.8,1,7.7
	c3.4-1.3,5.9-2.3,8.5-3.1c7.9-2.5,18,2.3,21.4,9.8c1.7,3.8,3.7,7.6,5.7,11.3c4.8,9,9.9,17.8,14.5,26.8c5.2,10.2,10.1,20.6,15.1,30.9
	c1,2.1,2,4.3,3.4,6.3c2.9,4.1,6.5,7.8,9,12.2c7.8,13.1,15.1,26.5,22.7,39.7c2.4,4.2,5,8.4,7.6,12.6c5.8,9.6,11.7,19.2,17.5,28.9
	c3,5,5.8,10.1,9,14.9c6.3,9.5,6.4,20-1.1,26.6c-2.9,2.6-7.5,3.6-11.6,4.6c-16,3.8-32.4,4.7-48.8,5.1c-8.1,0.2-16.3,1.1-24.3,2.4
	c-7.9,1.3-15.9,2.8-23.5,5.3c-13.6,4.5-27.1,9.4-41.4,11.5c-4.1,0.6-8.2,1.8-11.9,3.3c-2.9,1.2-5.3,3.5-9,6.1
	c3.2,0.4,5.1,0.6,6.9,0.9c5.9,0.9,11.8,2,17.7,2.9c5.8,0.9,11.7,1.7,17.6,2.6c1.5,0.2,2.8,1.1,4.3,1.2c3.1,0.3,6.3,0.1,9.4,0.5
	c9.8,1.2,19.5,2.8,29.2,3.8c6,0.6,12.2-0.1,18.3,0.4c15,1.2,30,2.9,45,4.1c4.5,0.3,9.1-0.6,14.6-1c-1-3.1-0.9-6.2-2.5-7.4
	c-4.8-3.8-7.9-8.1-10.2-13.8c-3.5-8.8,0.7-16.8,10.1-19.3c6.8-1.8,13.2-0.1,18.3,3.8c4.7,3.5,5.9,9.5,5.3,15.5
	c-0.2,1.8-0.4,3.7-0.1,5.4c0.7,3.6,2,7.1,2.8,10.7c2.4,12,4.4,24.1,7.1,36c1.6,7,4.3,13.7,6.6,20.7c1.9-0.3,3.3-0.6,4.7-0.8
	c0.1-1.6,0.1-3,0.2-4.4c0.5-4.9,3.1-6.6,7.6-4.5c1.6,0.7,3,2.2,3.9,3.7c1.9,3.3,3.3,6.8,5.2,10.1c2.5,4.4,5.4,8.7,8.1,13
	c3.4,5.4,6.7,10.8,10.1,16.2c6.4,10.3,13.2,20.3,19.2,30.9c6,10.6,11.1,21.8,16.7,32.6c5.8,11.1,11.9,22,17.6,33.2
	c5,9.8,9.4,19.8,14.2,29.7c3.6,7.4,7.5,14.6,11.1,22c4.4,9.1,4.2,10.2-3.6,17.3c-2.7,2.5-5.6,4.7-8.5,7c-5.3,4.1-11.4,5.7-18,5.9
	c-1,0-2,0.5-4,1c4.3,4.3,7.5,8.5,11.6,11.5c12.8,9.3,26.1,18,39,27.1c4.8,3.4,9.1,7.5,14,10.8c3.6,2.5,7.8,4,11.5,6.3
	c7.3,4.7,14.3,9.7,21.6,14.4c1.7,1.1,3.7,1.5,6.1,2.5c0-1.8,0.1-2.6,0-3.4c-1-11.6-2.5-23.2-2.8-34.8c-0.3-14.9,0.5-29.9,0.6-44.8
	c0-6.5-0.5-13-1-19.5c-0.3-4.5-1.1-9-1.5-13.5C958.6,652.2,958.7,650.4,958.7,649.3z M566,861c-0.1,0-0.3-0.1-0.4-0.1
	c0.7-2.5,1.2-5.2,2.2-7.6c1.1-2.7,2.9-5.2,4.1-7.9c5-11.9,12.7-22,20-32.5c2.9-4.2,6-8.1,8.6-12.4c5.1-8.5,11-16.5,18.8-22.6
	c4.4-3.4,9.5-6.2,14.7-8.4c3.2-1.4,3-3.6,2.9-5.8c-0.1-2.7-1-5.3-1.3-7.9c-0.8-9.9-1.5-19.8-2.1-29.7c-0.3-5.6-0.4-11.1-0.7-16.8
	c-3.4,0.2-6,0.4-8.5,0.4c-10.3,0.1-20.6,0.1-30.9,0.3c-20.4,0.4-40.7,1.6-61.1,1.2c-9.9-0.2-19.8-3.3-29.7-5.1
	c-1.8-0.3-3.7-0.5-6.1-0.7c0.4,5.6,1,10.2,1.1,14.9c0.2,7,0.2,14.1,0,21.1c-0.2,6.2-0.6,12.4-1.2,18.5c-0.3,3.1-0.5,6.4-1.8,9.2
	c-6.5,13.1-8.7,28.1-17.7,40.1c-0.6,0.8-0.7,2.2-0.7,3.3c-0.1,3.2,1,6.8-0.2,9.5c-2,4.7-5.2,9-8,13.4c-0.5,0.8-1.4,1.5-2.2,2
	c-5.9,3.3-11.6,7.2-17.8,9.8c-4.8,2-10.2,3.3-15.3,3.3c-4.6,0-9.2-2.1-13.8-3.2c-9.8-2.3-18.8,7.6-18.2,15c0.2,2.6,0,5.1,0,8
	c4,2.1,10,25.3,8.5,31.8c1.9,3.7,3.6,6.2,4.5,9c2.3,7.8,3.9,15.8,6.4,23.6c3.6,11.3,8.3,22.2,11.5,33.6c4.6,16,11.3,31,19.1,45.6
	c1.2,2.2,4.1,5,5.9,4.8c2.1-0.2,4.3-3.2,5.9-5.3c2.3-3.1,4.3-6.5,6.1-10c0.9-1.8,1.6-4.1,1.3-6.1c-0.5-3.3-2.6-6.6-2.5-9.8
	c0.2-6.6,1.3-13.1,2.5-19.6c1.1-6.3,2.8-11.8,8.3-16.9c5.9-5.5,12-10.5,19-13.9c6.8-3.2,14.6-4.4,21.3-7.7
	c6.9-3.3,13.5-3.5,20.7-1.9c3.6,0.8,7.6,0.2,11.5-0.2c0.7-0.1,1.8-1.8,1.9-2.8c0.5-5.6,0.8-11.3,1.2-17c0.3-3.2,0-6.8,1.4-9.5
	c4.2-8.3,3.6-17.6,6.7-26.1C563.4,868.2,564.7,864.6,566,861z M578,428.9c-4,0.4-6.9,0.5-9.7,1.1c-1.9,0.5-4.4,1.3-5.3,2.8
	c-1.7,2.7-3,5.9-3.6,9.1c-0.3,1.8,0.7,4.2,1.8,5.9c3.7,5.2,8,10,11.6,15.3c0.9,1.4,0.4,4.4-0.5,6c-0.5,0.8-3.9,0.5-5.5-0.3
	c-5.4-2.9-10.5-6.2-15.8-9.3c-5.6-3.3-11.3-6.6-17-9.9c-1.3-0.8-2.4-2.1-3.8-2.8c-3.8-1.9-7.9-3.2-11.4-5.4c-3.8-2.3-6.9-5.7-10.8-8
	c-4-2.4-8.5-3.9-12.6-6.2c-6.4-3.6-12.5-7.6-18.9-11.2c-3.6-2.1-8.9,0.9-9.1,5c-0.8,12.2-1.6,24.4-2,36.6c-0.2,5.1,0,10.3,0.6,15.4
	c1.4,11.4,3.9,22.7,4.5,34.1c0.9,18.5,8.9,34.5,16.2,50.8c1.8,4.1,4.2,8,6.7,11.8c7.4,11,16,21,26.6,29.1c3.1,2.3,6.4,4.5,10.5,1.5
	c1.3-1,3.2-1.2,4.8-1.8c5.8-2.1,11.7-3.9,17.4-6.3c10.6-4.5,17-13.8,25.1-21.4c2.2-2.1,4.7-4,6.7-6.3c6.7-7.1,13.1-14.4,19.8-21.5
	c4.2-4.5,9-8.4,12.7-13.2c4.5-5.8,8.3-12.2,12-18.6c4.8-8.3,9.2-16.9,13.6-25.5c3.7-7.2,7-14.5,10.7-21.6c3.7-7,7.8-13.9,11.6-20.9
	c1.3-2.5,0.8-4.1-2.4-4.3c-2.1-0.1-4.2-0.3-6.3-0.7c-2.1-0.3-4.2-1-6.3-1.2c-1.4-0.2-2.9,0.3-4.3,0.2c-8.5-1-16.5-4-25.2-4.3
	c-5.1-0.1-10-2.2-15.1-2.6C595.7,429.7,586.3,429.3,578,428.9z M1229.5,669.8c0.3-0.2,0.7-0.5,1-0.7c-1-1.4-1.8-3.2-3.1-4.3
	c-4.9-3.8-9.9-7.5-15.1-11c-10.5-7.1-21.2-14-31.8-21c-9.1-6-18.2-12-27.1-18.2c-9.8-6.8-19.3-13.9-29-20.9
	c-9.4-6.8-18.7-13.7-28.1-20.4c-6.2-4.4-12.7-8.2-18.7-12.8c-8.7-6.5-16.9-13.5-25.6-20c-10.9-8.2-22-16-30.9-26.7
	c-6.9-8.3-15.8-15-24.2-21.9c-8.7-7.3-17.8-14.1-26.9-21c-12.2-9.3-24.4-18.5-36.8-27.6c-2.5-1.9-5.5-3-8.3-4.5
	c-0.3,0.3-0.6,0.5-0.9,0.8c2.3,4.8,5,9.4,6.7,14.4c4.1,12.1,12.2,21.9,18.7,32.6c5.3,8.7,11.5,16.9,17.3,25.3
	c4.9,7.2,9.9,14.3,14.8,21.5c5.8,8.5,11.6,17,17.3,25.6c0.3,0.5-0.1,1.4-0.1,2.3c0.9,0.5,2.3,0.9,2.9,1.8c3.7,5.3,7.2,10.7,10.8,16
	c1.6,2.4,2.8,4.9,4.5,7.2c3.6,4.7,7.3,9.3,11,13.9c8.4,10.6,16.1,21.8,25.4,31.5c10.9,11.4,22.7,22.1,35.1,31.9
	c9.7,7.7,20.7,13.7,31.4,20.1c10.3,6.1,21.3,10.9,33.1,13.5c4.1,0.9,8.2,1.2,12.2,2.4c11.8,3.6,22.1-0.5,32-5.8
	c6.2-3.2,12-7.1,17.8-11c5.4-3.7,12.6-6,12.3-14.9C1228.5,668.9,1229,669.4,1229.5,669.8z M95,646.8c1.2,0.1,2.5-0.2,3.3,0.2
	c6.9,3.8,13.6,7.9,20.6,11.5c5.5,2.8,11.2,5.1,17,7.2c5.9,2.2,11.8,4.1,17.8,5.8c6.5,1.9,13.1,3.3,19.5,5.2c4,1.2,5.3,0.6,6.6-3.3
	c1.3-3.8,3.3-7.3,4.6-11.1c1.9-5.5,4.6-10.7,3.1-17.1c-1.5-6.4-2-13.1-2.6-19.7c-0.4-4.1-0.1-8.2-0.1-12.8c-3.6-0.8-7-1.5-10.4-2.3
	c-1.5-0.3-4-0.5-4.4-1.3c-2.2-5.8-8.2-7.1-12.5-10.2c-10.7-7.9-14.1-19.2-16.3-31.1c-0.6-3.3,0.2-7.6-1.6-9.8
	c-3.7-4.6-8.8-8.2-13.3-12.2c-4.2-3.8-9-7-12.3-11.5c-7.3-9.7-13.8-20-20.5-30.1c-2.3-3.5-4.4-7.1-6.4-10.7
	c-2.2-3.9-4.4-7.9-6.6-11.8c-0.3-0.5-0.6-1-0.9-1.5c-1.9-4.5-3.8-9-5.9-13.8c-10.2,5.3-16.8,12.6-22.1,21.4
	c-1.6,2.8-3.3,5.5-5.1,8.2c-0.8,1.2-2.1,2.1-2.8,3.3c-1.2,2.2-2.2,4.5-3.4,7.1c-0.7,4.9-1.6,10.4-2.4,16c-0.6,4.2-1.7,8.5-1.4,12.7
	c0.5,7.8,2.3,15.6,2.7,23.5c0.3,6.4,1,12.4,3.5,18.4c2,4.6,1.9,10.5,4.7,14.4c2.7,3.6,4,6.4,2,10c1.9,0.8,3.8,1.1,4.4,2.1
	c3.2,5.9,6.9,11.3,12.4,15.7c4.1,3.2,6.4,8.5,10,12.3c2.9,3,6.4,5.7,10.1,7.7C90.3,641.1,93.8,642.7,95,646.8z M642.3,651.7
	c-0.3,1.3-0.9,2.6-0.9,3.9c-0.2,7.5-0.3,14.9-0.2,22.4c0.1,8,0.6,15.9,0.8,23.9c0.2,7,0.2,14,0.3,20.9c0.1,6.2-0.2,12.4,0.4,18.6
	c0.8,8.6,2.4,17.1,3.6,25.7c0.2,1.3,0.2,2.6,0.6,3.8c0.9,3.4,2.6,3.9,5.1,1.4c2.3-2.4,4.3-5.1,6.6-7.5c4.7-5.1,9.3-10.3,14.2-15.1
	c3.3-3.2,7.4-5.6,10.7-8.8c6.1-6,11.7-12.6,17.8-18.6c4.9-4.8,10.3-9.1,15.3-13.8c2.7-2.6,5.6-5.2,7.5-8.3c3-4.7,1.5-8.1-3.4-10.6
	c-2.7-1.4-5.2-3-7.6-4.8c-3.1-2.4-4.4-5.8-3.3-9.5c1.1-3.7,2.9-7.1,4.2-10.7c3.2-8.7,7.1-17.3,9-26.2c1.3-6,2.6-11.8,5.2-17.4
	c0.7-1.4,1-3,1.4-4.5c4-14.5,7.9-29.1,12-43.6c3-10.5,7.8-20.4,9.1-31.3c0.1-0.5,0.2-1.1,0.6-1.5c3.9-4,5.2-8.9,5.2-14.1
	c0-4.4-0.6-8.8-1-13.2c-0.3-3-0.7-5.9-1.3-8.8c-0.2-0.8-1.3-1.4-2.5-2.5c-0.2-1.8-0.4-4.3-0.6-6.8c-0.7-0.1-1.5-0.2-2.2-0.2
	c-1.4,4-2.8,8-4.2,12c-1.2,3.4-1.8,7-3.5,10c-6.9,12.3-11,25.7-15,39.1c-0.8,2.7-1.1,6.3-3,7.8c-2.9,2.2-2.4,4.7-3.1,7.3
	c-2.3,8.9-4.7,17.8-7.4,26.7c-1.6,5-3,10.2-7.1,14.2c-2.2,2.2-3.4,5.4-5.3,8c-2.6,3.5-8.5,4.9-12,3.2c-4.4-2.2-6.2-1.4-8,3.3
	c-2.7,6.8-5.2,13.7-8.1,20.4c-1,2.5-3,4.6-4.1,7.1c-2.8,6.4-3.7,7.2-10.6,6.6c-2.2-0.2-4.7-0.6-6.6-1.7
	C647.6,656.8,645.2,654.3,642.3,651.7z M1096.4,318.5c-1-0.6-1.8-1.2-2.7-1.7c-7.1-4.2-14.1-8.7-21.3-12.6c-7.4-4-14.6-8.4-23.3-9.6
	c-2.5-0.3-4.9-1.4-7.2-2.5c-10.3-5-20.2-10.7-31.8-12.5c-6.6-1-7.5-0.5-6.8,6c0.6,5.1,1.2,10.2,1.8,15.2c1.1,8.4-3.2,14.9-13.6,19.3
	c-6.8,3-14,5.3-20.9,8.1c-6,2.4-11.9,4.8-17.7,7.7c-2.7,1.4-4.9,3.8-7.4,5.7c-3.6,2-7.5,4.5-11.8,5.2c-10.3,1.8-18.6,8.3-28.4,11.3
	c-7.9,2.4-15.7,5-23.6,7.5c-5,1.6-9.9,3.2-16,5.2c4.2,2.8,7.4,4.4,10,6.7c7.8,7.2,15.5,14.7,23,22.2c5.1,5.2,6.4,5.4,12.8,1.6
	c10.6-6.3,21.2-12.5,32-18.4c9.7-5.4,19.6-10.5,29.5-15.5c2.5-1.3,5.6-1.5,8.8-2.3c1-1.2,2.2-3.5,4.1-4.4c5.5-2.4,11.1-4.6,16.9-6
	c5-1.2,9.3,0.3,11.7,5.5c1.4,3,3,5.8,4.5,8.7c1.8,3.5,3.7,3.6,6.5,1.1c6.4-5.6,12.6-11.5,19.6-16.3c10.1-6.9,20.8-12.7,31.1-19.3
	c6.2-4,11.9-8.7,17.8-13.1C1094.9,320.9,1095.3,320,1096.4,318.5z M692.2,454.4c-4.2,6.3-8.1,11.5-11.2,17.1
	c-6.8,12.1-12.9,24.6-19.8,36.6c-3.1,5.3-7.1,10.3-11.5,14.6c-4.9,4.8-11.1,8.3-16.2,12.9c-7.6,6.8-14.5,14.3-22.1,21.2
	c-10.4,9.5-21.1,18.7-31.7,27.9c-4.6,4-9.1,8.2-14.1,11.8c-7.3,5.2-15,9.9-22.5,14.8c-2.4,1.6-2.8,3.4,0.2,4.2
	c10.2,2.5,20.3,5.5,30.7,6.7c5.8,0.7,12-1.7,17.9-3.2c4.8-1.2,9.8-2.4,14.3-4.5c8.3-3.9,16.4-8.4,24.5-12.9
	c4.3-2.5,9.7-4.6,12.2-8.5c2.4-3.9,5.8-4.5,8.9-6.2c0.5-0.3,1.2-0.3,1.6-0.6c6.2-5.6,12.4-11.2,18.4-17c5.8-5.6,11.2-11.6,16.9-17.4
	c2.3-2.4,5.8-4.3,6.9-7.2c3.2-8.6,7-17.4,8-26.4c1.4-12.7,1.5-25.7,0.3-38.3c-0.7-7.3-5-14.3-7.8-21.4
	C695.3,457.5,694.1,456.6,692.2,454.4z M642.9,381.3c-0.1-0.6-0.2-1.2-0.3-1.8c-1.7-0.6-3.3-1.5-5.1-1.9c-6.9-1.5-13.8-3-20.7-4.2
	c-10.8-1.8-21.5-3.4-32.4-4.7c-8.5-1-17.2-1.1-25.7-2c-6.5-0.7-11.3-4-13.2-10.5c-1-3.5-2-7-3.2-11.2c-2.4,0.2-5.1-0.1-7.4,0.6
	c-14.8,4.9-29.5,10.1-44.2,15.2c-6.5,2.2-13,4.3-19.3,6.9c-7.8,3.2-15.5,6.6-23.1,10.3c-1.6,0.8-3.5,3.1-3.4,4.7
	c0.1,5.6,5.2,8.7,8.7,11.4c6.2,4.7,13.7,7.4,20.6,11.2c8.1,4.5,16,9.2,24,13.8c2.7,1.5,5.6,2.8,8.3,4.4
	c10.1,6.1,20.1,12.5,30.4,18.4c2.9,1.7,6.5,2,9.1,2.8c2.7-7.5,4.4-14.2,7.3-20.3c4.7-9.9,13.8-15.7,23.3-19.6
	c10.8-4.4,22.5-6.5,33.8-9.7c2-0.6,4-1.4,5.9-2.3c3.4-1.6,6.7-3.6,10.1-5.1C631.9,385.5,637.4,383.4,642.9,381.3z M544.4,942.2
	c-2-0.6-3.6-0.7-5-1.4c-2.3-1.2-4.3-3.7-6.6-3.8c-4.6-0.2-9.5,0.1-14,1.4c-7.2,2-14.3,4.4-21,7.5c-4.9,2.3-9.7,5.6-13.5,9.4
	c-6.7,6.8-7.1,16.1-7.3,25c-0.2,9.1,3,17.3,6.7,25.6c5.7,12.6,14.5,21.6,27.2,26.5c12.8,4.9,26.1,5.9,39.9,2.7
	c7.2-1.6,12.5-5.4,17.9-9.5c1.1-0.8,1.5-2.6,2.2-4c0.7-1.3,1.1-2.8,1.9-4c5.2-7.6,7.7-16.2,8.7-25.2c1.3-11.3-0.8-22.5-3.4-33.4
	c-1.5-6.3-4.8-12.2-11-15.7c-2-1.1-4-2.2-5.9-3.4c-5.5-3.4-11.4-4.3-18-3.3C543.5,938.2,543.8,939.6,544.4,942.2z M1332.1,725.4
	c-0.8,3-2.1,6.4-2.6,9.9c-1,5.9-1.4,12-2.3,17.9c-1.5,9.8-1.2,19.7,0.5,29.4c1.1,6.2,3.9,12.1,4.8,18.2c1.6,10.6,6.6,19.9,12.7,27.8
	c5.8,7.5,9.4,17.3,20,21.6c5.5,2.2,10.6,5.1,16.6,5.5c1.3,0.1,2.9-0.8,4.2-1.7c3.4-2.3,5.5-5.4,6.2-9.7c0.5-3,2.2-5.8,3-8.8
	c1.2-3.9,2.6-7.9,2.9-11.9c0.6-8.1,0.6-16.2,0.8-24.3c0.1-2.8,0.6-5.8,0.1-8.5c-1.9-10.6-4-21.1-6.4-31.6c-2-8.7-4.3-17.2-6.8-25.8
	c-1.3-4.5-2.8-9.1-5-13.1c-5.3-9.8-10.9-19.5-17-29c-1.8-2.8-5-5.1-8-6.7c-3.1-1.7-7.1,0.2-7.2,2.9c-0.2,6.3-0.5,12.7-0.3,19
	c0.1,1.7,1.8,4.6,3,4.7c8.8,0.7,15.8,4.6,21.6,10.9c3.3,3.6,6.8,7.3,9.2,11.5c2.1,3.7,2.9,8.2,4,12.4c1.3,5.1,3.2,10.3,3.2,15.5
	c0,6.9-1.6,13.7-2.3,20.6c-1,8.4-5.5,15.4-9.9,22.3c-1.3,2-4.2,3.4-6.6,4.3c-3.6,1.3-5.7-0.6-5-4.3c0.2-1.5,1.2-3.4,2.4-4.3
	c9.6-7.3,10.8-18.5,11.5-28.6c0.8-12.8-1.9-25.9-8.8-37.1c-5.1-8.3-11.9-16.2-23.4-15.6c-3.1,0.2-6.1,2-9,3.3
	C1336.1,722.9,1334.4,724.1,1332.1,725.4z M182.2,837.5c2.1-0.6,3.8-1.5,5.3-1.4c9.6,0.9,18.7-0.1,27-5.6c2.8-1.8,6.1-2.9,8.7-4.9
	c3.1-2.3,7.3-4.8,8.1-8c1.3-5,5.2-7.5,8-10.8c3.6-4.4,5-9.3,5.4-14.4c0.6-7.9,0-15.9-3.1-23.3c-2.2-5.2-5.6-10.3-9.5-14.5
	c-2.9-3.1-7.4-4.9-11.3-6.9c-2.8-1.4-5.8-3.4-8.7-3.3c-8.8,0.3-17.6,1.4-26.4,2.4c-3.2,0.4-6.2,2.4-9.4,2.4
	c-7.3-0.1-11.3,5.1-15.4,9.4c-4.1,4.3-7.1,9.9-9.7,15.3c-2.1,4.4-5.7,8.6-3.5,14.2c0.4,1.1-0.2,2.5-0.1,3.8c0.2,3.4-0.7,7.8,1.1,9.9
	c4.3,5,5.1,10.9,7.2,16.4c1.8,1.7,3.4,3.7,5.2,5.5c1.8,1.9,3.5,4.2,5.6,5.4c4.4,2.5,8.9,4.6,10.2,9.4c0.7-1,1.6-2.2,2.4-3.3
	C180.6,836.2,181.8,837.2,182.2,837.5z M159.8,592.5c19.1,16.3,38.7,12.3,58,4.2c0.7-2,1.2-4.2,2.2-6c3.3-6.1,7.3-11.8,8.4-18.9
	c0.3-2.2,3.3-3.9,4.8-6c0.9-1.2,2.3-2.8,2.1-3.9c-0.9-4.2-2.1-8.4-3.7-12.3c-3.5-8.2-8.4-15-18.3-16.2c-0.8-0.1-1.6-0.5-2.1-1.1
	c-1.2-1.4-2.2-3-2.9-4c-3,0.8-5.1,1.5-7.3,1.8c-8.6,1.2-17.4,0.3-25.8,3.2c-2.9,1-6.2,0.9-9.1,2c-5.2,2-9.1,5.7-11.5,10.6
	c-4,8.1-9.4,15.9-5.4,25.6c2.1,5.1,4.2,10.2,6.6,15.1C157,589,158.9,591.1,159.8,592.5z M431.5,780.4c-2.5,0.9-6.6,1.7-9.8,3.7
	c-8.2,5.2-15.3,11.3-16.4,22.1c-1,10.2-0.6,19.2,7.7,26.9c6.5,6.1,15.2,7.1,22.2,11.6c0.5,0.3,1.8-0.3,2.6-0.7
	c1.4-0.6,2.7-1.8,4.1-2.1c5.4-1,9.7-3.8,13.8-7.2c0.9-0.7,1.8-1.4,2.9-1.8c5.4-1.8,7.6-6.4,8.9-11.1c1-3.8,0.2-8,0.4-12
	c0.3-5.4-2.7-9.6-5.8-13.2c-3.6-4-8.5-6.8-12.7-10.3C444.5,782.4,438.9,781.4,431.5,780.4z M691.4,614.2c0.5,0,1,0,1.6,0.1
	c1.6-2.5,3.4-5,4.9-7.6c1.8-3.2,3.8-6.3,5-9.7c2.3-6.7,3.9-13.6,6.1-20.4c1.7-5.4,3.9-10.6,5.7-15.9c3.3-9.9,6.4-19.9,9.9-29.8
	c2.3-6.5,5.2-12.8,7.9-19.2c1-2.5,2.2-5,3-7.6c2.1-6.9,4.4-13.8,6-20.8c1.5-6.5,5.3-12.5,3.3-19.6c-1.2-4.3-1.9-8.9-2.5-13.3
	c-0.4-3.3-2.5-4.3-5.2-4.5c-11.8-1.2-23.7-2.4-35.6-3.6c-1.8-0.2-3.7,0.2-5.1,0.3c4.5,7.4,9.7,13.9,12.8,21.3
	c3.1,7.3,4.1,15.4,6,23.2c0.5,0,0.9,0.1,1.4,0.1c0.8-4.5,1.8-9,2.2-13.5c0.4-4.8,3.9-7.3,8.2-4.9c1.7,1,3.3,3.3,3.6,5.2
	c0.5,3.4-0.4,6.4-2.8,9.6c-2.4,3.1-2.6,7.9-3.9,11.8c-6.2,17.8-12.7,35.5-18.5,53.4c-4,12.1-7,24.5-10.5,36.7
	c-1.8,6.3-4,12.5-5,18.9C689.1,607.5,690.7,610.9,691.4,614.2z M883.5,429.9c-3.8,1.4-7.4,2.3-10.6,4c-6.4,3.4-12.5,7.6-19,10.8
	c-5.5,2.8-5.3,8.1-5.4,12.3c-0.1,3.8,2.8,7.8,4.8,11.5c3.1,5.6,6.8,10.9,9.8,16.5c3.9,7.5,7.3,15.2,10.9,22.9
	c1.7,3.7,3.2,7.5,5.1,11c3.4,6,7.2,11.8,10.5,17.8c3.5,6.4,6.6,12.9,9.7,19.5c5.9,12.3,11.7,24.6,17.6,36.9
	c6.4,13.4,11.7,27.3,20.4,39.5c0.2,0.3,0.2,0.8,0.4,1.2c2.5,4.7,5,9.4,7.8,14.5c4.1-6.6,3.8-6.2-0.5-10.5c-3.2-3.2-6.1-7.1-8.1-11.2
	c-5.1-10.3-9.5-21-14.4-31.5c-3-6.2-6.9-12-9.7-18.3c-2.8-6.2-4.5-12.9-7.1-19.2c-1.3-3.2-3.9-5.9-5.3-9
	c-4.9-10.5-9.6-21.1-14.3-31.7c-3-6.7-6.1-13.4-8.7-20.2c-1.9-5.2-2.7-10.8-4.4-16c-4.5-13.9-3.5-27,4.5-39.4
	C879.9,437.8,881.5,433.9,883.5,429.9z M738.4,919.6c0.5,0,0.9-0.1,1.3-0.1c0.5-3.8,1.1-7.7,1.4-11.5c0.5-5.9,1.4-11.9,0.9-17.8
	c-1-11.4-3.7-22.8-4.3-34.2c-0.6-11.6-6.5-21.3-9.4-32c-1.2-4.4-2.9-8.8-5-12.9c-3.3-6.4-7.1-12.6-10.7-18.8
	c-1,4.5-1.3,8.5-0.9,12.5c0.6,6.2,1.8,12.4,2.6,18.6c0.3,2.4,0.4,4.8,0.5,7.3C717.9,861.5,728.2,890.6,738.4,919.6z M758.4,554.5
	c-2.1,5.7-4.5,12-6.7,18.5c-3.6,11.1-7.1,22.3-10.5,33.5c-1.7,5.5-3,11.2-4.7,16.7c-1.8,5.9-4,11.8-5.7,17.8
	c-1.2,4.3-1.2,9-2.7,13.2c-2.5,7.1-5.9,14-8.8,20.8c3.3,5.2,6.8,6.8,16.8,8.3c-2.7-4.7-1.8-9.9-0.6-14.6c2.5-10.3,5-20.8,9.2-30.4
	c4.6-10.3,6.1-21.1,9-31.7c2.5-9.3,4.8-18.7,6.9-28.1c1.1-4.7,1.7-9.5,2.2-14.2c0.2-1.3-0.4-2.8-1-4.1
	C760.9,558.1,759.5,556.2,758.4,554.5z M895.4,203.1c-1.3,1.6-2.8,2.7-3.2,4.2c-2.7,8.1-5.5,16.3-7.7,24.6c-2.4,9-4.2,18.2-6.2,27.3
	c-2.1,10.1-4,20.2-7.9,29.9c-3.1,7.7-4,16.2-6.2,24.2c-2.3,8.3-5.2,16.5-7.4,24.9c-1.4,5.5-2.1,11.2-2.9,16.8
	c-0.3,2.2,0.5,4.4,3.3,4.5c6.5,0.2,12.7-1.1,18.2-4.3c-1.9-2.9-3.8-5.2-5.1-7.8c-4.7-9.7-2.5-19.9-1.3-29.8
	c1.3-10.9,4-21.7,6.5-32.5c1.1-4.5,3.6-8.6,5-13c2.6-8.1,5-16.3,7.3-24.4c0.9-3,1.2-6.1,2.2-9.1c2.6-8.5,5.4-16.9,8.1-25.3
	C899.3,209.7,898.5,206.5,895.4,203.1z M1430.7,358.3c0.3,0.1,0.7,0.2,1,0.3c0.3-0.5,0.9-1,1-1.6c1.1-4.6,3.5-8.3,7.5-11.1
	c1.8-1.3,3.1-3.3,4.7-4.9c4.7-4.8,8.9-10.1,14.1-14.3c4.6-3.8,10.1-6.6,15.4-9.5c6.8-3.8,13.8-7.2,20.6-10.8
	c3.5-1.8,4.7-4.8,4.3-8.4c-0.5-3.9-3.8-4.2-6.8-4.7c-1.8-0.2-4-0.5-5.5,0.3c-6.4,3.2-12.5,6.9-18.8,10.2c-2.9,1.5-4.4,4.2-6.4,6.5
	c-3.3,3.7-8.1,6.2-10.9,10.1c-6.2,8.6-11.8,17.6-17,26.7C1431.9,350.3,1431.7,354.5,1430.7,358.3z M1040.9,964.1c5-1,9-1.5,12.8-2.5
	c9-2.4,16.8-6.2,20.7-15.6c2.7-6.5-0.8-12.7,0.7-18.6c-8.1,3.1-15.9,6-23.5,9.2c-1.5,0.6-3.1,2.4-3.6,4
	C1045.6,948,1043.4,955.6,1040.9,964.1z M59.5,394.2c-0.4,0.2-0.7,0.4-1.1,0.6c0.2,1.8,0.1,3.6,0.5,5.2c0.9,3.5,2,7,3.1,10.5
	c1.1,3.6,2.2,7.2,3.2,10.9c1.3,5.2,2,10.5,3.8,15.5c1.7,4.7,4.3,9.1,6.8,13.5c0.3,0.6,2.4,0.6,3.4,0.3c3-0.8,5.7-2.6,8.7-2.9
	c3.8-0.5,4-2.1,2.5-4.8c-1.9-3.2-4.1-6.3-6-9.6c-2.9-5.1-4.8-11.2-8.8-15.1c-6.5-6.4-10.5-13.7-13.6-21.9
	C61.6,395.6,60.4,395,59.5,394.2z M774.9,292.1c-0.3,0.2-0.6,0.4-0.9,0.6c0,0.4-0.1,0.9,0,1.2c4.1,9.1,7.8,18.4,12.4,27.3
	c2.5,5,6.3,9.3,9.7,13.9c1.4,1.9,3.7,3.7,5.7,1c3.9-5.2,6.7-11.1,6.8-18.2c-1.7-0.4-3.3-0.9-5-1.1c-7.6-1.1-13.7-4.9-18.3-10.9
	C781.6,301.4,778.3,296.7,774.9,292.1z M1346.4,680.5c1.9-1.1,3.8-2.7,5.8-3.2c6.6-1.6,11.6,2.5,17,5.2c0.3,0.2,0.4,0.7,0.7,1
	c1.4,1.8,2.8,3.6,4.2,5.4c0.3-1.3,0-2.2-0.5-2.9c-3.2-4.2-6.5-8.3-9.6-12.7c-3.8-5.4-8.7-9.4-14.7-12.2c-3.6-1.7-6.4-1-7.6,2.8
	c-1.2,3.7-1.5,7.7-1.6,11.5C1340.1,680.3,1341.6,681.4,1346.4,680.5z M804.1,415.2c-4.8-8.5-11.1-13-19.9-14.6
	c0.5,10.4,6.7,19.8,4.6,30.4c0.3,0.2,0.7,0.3,1,0.5C794.7,426,799.5,420.4,804.1,415.2z M782.3,522.5c-0.2-0.7-0.5-1.3-0.7-2
	c3.9-2.9,7.8-5.8,11.8-8.6c3.3-2.4,3-5.1,0.9-8.1c-1.3-1.8-2.6-3.7-3.8-5.6c-1.6-2.6-2.9-5.3-6.9-3.8c-4.6,1.8-5.9,3.7-5,8
	c0.6,2.9,1.4,5.7,1.9,8.6C781.3,514.8,781.8,518.7,782.3,522.5z M727.5,713.1c-2.9,1.7-6.3,3.2-5.5,7.7c0.1,0.6-0.8,1.2-0.8,1.9
	c-0.4,3.7-1,7.4-0.9,11c0,1.2,2.1,2.3,3.3,3.5c1.3-1.5,3.7-2.9,3.8-4.4C727.8,726.4,727.5,719.9,727.5,713.1z M848.2,399.5
	c7.1,0.4,7.3,0.3,10-3.6c-4.2-1.1-8-2-12.4-3.1c-0.6,2.6-1,4.5-1.4,6.4c0.3,0.2,0.7,0.3,1,0.5c0.8-1.2,1.6-2.5,2.6-4
	C848,397.2,848.1,398.3,848.2,399.5z M731.9,349.1c-1.9-4.2-3.7-8.1-5.5-12c-0.3,0.1-0.5,0.3-0.8,0.4c0,3.8,0,7.7,0,11
	C727.6,348.7,729.3,348.9,731.9,349.1z M1632.8,834.4c0.4,0.1,0.8,0.2,1.3,0.4c0.3-3.8,3.4-6.8,3.4-10.6c-0.7-0.2-1.3-0.4-2-0.5
	C1634.6,827.2,1633.7,830.8,1632.8,834.4z M693,762.3c2.1,1,3.4,1.6,5.5,2.5c-0.2-2.5-0.4-4.1-0.6-6.5
	C696,759.9,694.8,760.8,693,762.3z"/>
<path d="M1148.9,966.2c-1.5-5-3.1-9.9-4.5-14.9c-0.7-2.7-0.6-5.7-1.7-8.2c-3.2-7.8-7-15.5-10.2-23.3c-1.3-3.2-1.7-6.9-2.7-10.3
	c-1-3.4-0.2-5.5,3.7-6.1c3.9-0.6,7.2,1,7.8,4.3c2.8,15.2,10.5,27.8,20.9,38.9c5.4,5.8,12.9,8,20.4,7.4c7.6-0.6,15.3-2.5,22.4-5.2
	c4.7-1.8,8.6-5.8,12.5-9.3c2.1-1.8,3.5-1.6,5.6-0.2c2.3,1.6,1.4,3,0.4,4.7c-0.4,0.6-1,1.3-1,1.9c0.7,11.7-9,15.1-16.7,19.1
	c-7.9,4.2-16.9,6.3-25,10c-7,3.2-13.7,7-20.3,11c-10.1,6.2-20.2,12.5-29.9,19.3c-3.7,2.6-6.3,6.8-9,10.6c-3.2,4.5-5.8,9.4-8.7,14.1
	c-3,4.8-2.9,14,0.3,18.7c2.3,3.3,7.7,4.4,13,3.2c7.9-1.8,14.9-5.7,21.9-9.6c4.7-2.6,9.9-4.5,14.8-6.6c3.3-1.4,6.5-2.8,9.9-4
	c8.8-2.9,17.4-6.9,26.5-8.3c10-1.6,20.4-0.8,30.6-1c1,0,2,0.1,3,0c14.8-1.4,27.1,4.1,38.2,13.3c6.3,5.3,13,10.2,19.5,15.3
	c2.8,2.2,5.7,4.3,8.3,6.7c0.9,0.9,1.8,2.9,1.4,3.8c-0.4,1-2.4,1.9-3.7,1.8c-12.8-0.7-25.7-1.9-38.5-2.2c-15.9-0.5-31.8-0.6-47.6-0.3
	c-9,0.2-18,2.3-27,2.5c-17.4,0.3-34.9,0.1-52.3-0.3c-14.5-0.3-29-1-43.5-1.9c-6-0.4-11.9-2.6-17.9-2.4c-6,0.1-11-2.3-16.3-4
	c-7.9-2.5-12.9-8.1-15-15.9c-1.6-5.7-3.3-11.6-3.6-17.4c-0.5-11.2,2.5-15.6,13.1-19.7c6.7-2.6,13.2-5.9,20.1-7.9
	c12.6-3.6,25.7-1.9,38.5-3.2c10-1,19.9-2.9,29.7-5.2C1143.6,983.4,1148.2,975,1148.9,966.2z M1093.2,1013.7c-3,0.2-5.7,0.7-8.4,0.5
	c-5-0.3-10-1.1-15-1.4c-0.8-0.1-1.8,1-2.6,1.5c2.5,1.8,4.4,4.3,6.4,4.5c4.4,0.3,7.3,1.7,8.1,6.1c6.3-1.5,6.6-1.4,10.6,3.1
	c0.4,0.5,1.2,0.9,1.8,0.9c3,0,3.4,1.7,3.4,4.2c0,2.6,0.6,5.2,0.9,7.7c0.6,0,1.2,0,1.8,0.1c-3-9.7,5.2-15.7,7.6-24
	c-1.5,0.3-2.7,0.8-3.8,0.8c-1.3,0-2.7-0.5-3.4-0.6c-1.2-1.4-2.2-2.4-3.2-3.5c-1,1.1-2.1,2.1-3.7,3.8
	C1093.6,1015.5,1093.3,1014.3,1093.2,1013.7z M1047,1024.2c1.8-0.7,3.9-0.8,4.6-1.8c2.4-3.6,5.7-4.7,9.7-4.9c1.3-0.1,2.6-0.5,5-0.9
	c-1.8-2.2-3-3.6-4.1-4.9c-2.7,0.9-5,2.3-7.2,2.2C1048.2,1013.5,1045.5,1016.2,1047,1024.2z"/>
<path d="M736.5,763.6c-3,2-3.6,4.3-0.3,5.7c0,2.4-0.1,4.1,0,5.7c0.4,8.7,5.2,16.1,7.4,24.2c1.6,5.7,2.1,12.1,5.1,17
	c2.5,4.1,1.5,7.7,2,11.7c0.2-1,0.4-1.9,0.8-3.9c1.6,4.8,2.5,8.9,4.2,12.6c1,2.2,3.5,3.8,4.5,6c1.1,2.3,1.2,5.1,1.8,8.2
	c0.1,0,1.2-0.4,2-0.6c1.5,2.7,3.2,5.1,4.2,7.9c1.1,2.9,1.4,6,2.1,9c0.2,0.9,0.9,1.7,1.1,2.6c0.4,1.8,1.2,3.8,0.8,5.5
	c-0.5,2.2-2,4.2-3.1,6.3c5.4,2,5.5,2.5,3.1,7.1c-0.5,1,0.6,2.9,1.5,4.3c-1.7,4.6-2.7,9.2-0.8,14.3c0.3,0.8-0.3,2.1-1,2.9
	c-1.2,1.5-2.8,2.8-4.2,4.2c0.3,0.3,0.5,0.6,0.8,0.9c0.8-0.4,1.7-0.9,2.7-1.4c-1.4,7.4-2.7,14.6-4.1,21.9c-0.3,0-0.7,0.1-1,0.1
	c-0.3-2.4-0.6-4.9-0.9-7.3c-0.1,0-0.2,0-0.3,0c0,2.7,0,5.4,0,8c0,0.4-0.2,1,0,1.3c4.1,4.6,0.2,9.8,1,14.8c0.3,2.1-1.4,4.5-2.6,7.8
	c2.2,2.8,1.5,7.3,0.5,11.9c-1.9,9.7-3.8,19.3-4,29.2c-0.2,9.4-0.8,18.8-1.8,28.1c-0.6,5.9-2.4,11.7-3.3,17.6
	c-0.4,2.6-0.4,5.6,4.6,3.4c-5.4,6.8,2.9,11,1.8,15.8c5.7,5.4,11,10.5,16.3,15.5c-0.2,0.4-0.4,0.8-0.6,1.2c-3.7-1.1-7.3-2.2-11.3-3.4
	c-0.1-1.1-0.2-2.3-0.4-3.7c-9-1.6-11.6-8.9-13.5-16.1c-3-11.5-2.7-23.3-1.3-35.1c0.8-7.1,0.1-14.3,0.9-21.3
	c1.7-14.5,3.9-29,5.9-43.5c0.3-2.4,0.9-4.8,0.8-7c0-3.2-0.3-6.5,0.1-9.7c0.9-8.3,2-16.5,3.2-24.8c0.3-1.9,2.1-3.6,2.5-5.5
	c0.6-2.9,0.6-5.9,0.9-8.9c1.3-12.1,1.5-24.3-0.9-36.2c-1.3-6.1-4.2-11.9-6.5-17.9c-1.5-4-3-7.9-4.6-11.8c-0.4-1-0.7-2.7-1.4-2.9
	c-4.7-1.6-6.3-6.6-6.8-9.6c-1.1-7.5-6.1-13.2-7.3-20.5c-1-5.9-3.5-11.6-5.1-17.4c-1.4-5.2-2.7-10.6-3.7-15.9
	c-1.1-5.9-1.9-11.8-2.7-17.7c-0.4-2.9,0.6-6.4,3.6-6.1c2.2,0.2,5,3.2,6,5.6C736.7,756.6,736.2,760.1,736.5,763.6z"/>
<path d="M425.9,315.6c-0.7,1.9-1.3,3.3-1.6,4.7c-0.4,1.8-0.4,3.6-0.8,5.4c-2,9.7-7,17.7-15.2,23.1c-9,6-19,6.5-28.8,1.7
	c-7.7-3.8-14.8-8.7-18.8-16.7c-5.7-11.2-9.2-28,2.5-39c1.1-1,1.7-2.6,2.6-3.9c0.8-1.1,1.6-2.8,2.7-3.2c7.3-2.2,13.8-5.9,22.2-5.3
	c10,0.7,14.9,7.4,20.3,13.4C416.8,302.2,421.3,309.4,425.9,315.6z M360.7,313.8c1.5,13.1,7.2,22.9,17.7,29.7
	c5.6,3.6,11.9,5.5,18.8,2.3c7-3.2,12-8.4,15.8-14.6c1.4-2.3,2.1-6.1,1.2-8.5c-3.4-8.7-6.7-17.6-11.8-25.3c-3.5-5.4-9.6-10-17.2-8.4
	c-4.6,1-9.4,2.8-13.1,5.5c-3,2.1-4.7,6.1-6.6,9.4C363.7,307,362.3,310.5,360.7,313.8z"/>
<path d="M248.9,462.1c6.5,0,13.3,1.7,19.7,5.2c4.8,2.7,9.8,8.4,7.9,15c-1.1,3.8-0.3,8.2-0.5,12.3c-0.6,10.6-7.4,18.8-19,20.5
	c-6.1,0.9-11.9,2.2-17.6-0.7c-6-2.9-10.6-6.4-12.8-13.7c-1.4-4.6-1.6-9.3-3.2-13.8c-1.7-4.8-0.6-8.9,1.7-13c0.3-0.5,0.5-1.1,1-1.3
	c3.1-1.5,5.3-3.8,7.8-6.2C237.5,463,242.7,461.6,248.9,462.1z M247.3,469.6c-9.6,0.1-14.8,3.4-16,10.7c-0.8,4.8,0,10.1,1.2,14.9
	c0.8,3.2,2.8,6.6,5.2,8.9c7.6,7,16.2,4.9,24.5,1.3c4.3-1.8,5.6-6.1,4.1-10.6c-0.4-1.3-0.6-2.8-0.6-4.1c0.1-4.1,0.5-8.2,0.4-12.3
	c0-1.4-1.1-3.3-2.3-3.9C258.1,471.2,251.9,469,247.3,469.6z"/>
<path d="M1552.4,372.5c5.7,0.5,7.8,5.1,10.3,9.1c2.1,3.3,3.4,7.2,5.1,10.7c0.5,0.9,1.6,1.6,1.9,2.5c0.4,1.2,0.7,2.7,0.4,4
	c-0.1,0.7-1.3,1.3-2.1,1.9c1.2,0.4,2.4,0.8,4.2,1.5c1.3,7.2,3.5,14.8,1.2,23.3c4.7,3.1,0.2,6.9-0.9,10.5c-1.9,6.4-4.2,12.7-6.8,18.8
	c-2.2,5-4.4,10.3-8,14.3c-3.2,3.5-8.3,5.3-12.6,7.8c-1.4,0.9-2.9,1.8-4.2,2.9c-5.5,4.7-12.4,6.1-18.9,8.5c-1.1,0.4-2.8-0.6-3.6-0.8
	c-4.7,1.6-9,3.1-13.6,4.7c-0.2-0.8-0.3-1.5-0.5-2.2c-4.3,1.4-8.5,2.9-12,4.1c-2.5-2.2-4.4-3.8-6.9-5.9c1.8-0.3,3.3-0.5,4.8-0.8
	c7.8-1.2,15.7-1.9,23.3-3.6c4.4-1,8.5-3.3,12.7-5.1c0.7-0.3,1.2-0.8,1.9-1c7.8-1.7,13.2-7.4,19.7-11.3c8.8-5.3,10.6-13.7,13.3-22.1
	c1.4-4.4,3.9-8.5,5.1-13c2.1-8,2.9-16.1,0-24.3c-1.7-4.9-1.9-10.3-3.7-15.1c-1.4-3.7-3.9-7.3-6.8-10.2c-2.8-2.8-4.9-5.2-3.4-9.3
	C1552.5,372.4,1552.4,372.5,1552.4,372.5z"/>
<path d="M72.9,155.9c-1.9-2.6-1.5-4.7,1.4-6.3c0.8-0.5,1.5-1.2,2.1-2c2.6-3.8,4.4-9.2,8-11.1c4.9-2.5,4.3-8.3,8.9-10.7
	c0.2,1.5,0.4,2.7,0.6,4c0.4-0.2,0.8-0.3,0.8-0.4c-0.5-7.2,2.2-12,9.5-14.4c1.5-0.5,4.3-1.2,3.7-4.3c-0.1-0.5,1.5-1.6,2.5-2
	c4.1-1.9,8.3-3.7,12.5-5.4c3-1.2,6-1.5,8.2,1.3c2.2,2.8,0.6,6.9-3.1,8.1c-5,1.7-5.1,1.6-11-2c1.5,3.3,0.4,4.9-2.6,6.3
	c-3.7,1.7-7.6,3.7-10.3,6.6c-4.2,4.5-7.7,9.7-11.1,14.8c-3.1,4.7-6,6-11.9,3.4c1.5,1.8,2.2,2.8,3.7,4.7c-2.5,3.8-5.2,8-7.5,11.5
	c-1.6-0.8-3-1.5-4.5-2.2C72.8,155.9,72.9,155.9,72.9,155.9z"/>
<path d="M421.3,584.4c3.3,0.8,6.9,1,9.9,2.5c5.8,2.8,7,7.6,4.4,15.5c-1.6,4.8-6.5,8-11.7,7.3c-2.8-0.4-5.8-1-8.2-2.4
	c-5.9-3.4-6.5-6.2-4.3-15C413.1,585.6,414.1,584.8,421.3,584.4z"/>
<path d="M810.4,940.3c5.9-0.1,8.3,3.1,7.1,8.3c-0.8,3.5-0.7,7.3-1.7,10.8c-1.1,3.7-2.1,7.3-1.4,11.3c0.1,0.4-0.3,1.2-0.8,1.5
	c-2.8,1.8-3.9,3.5-0.2,5.5c0.5,0.3,0.7,1.6,0.6,2.3c-0.4,4.1-1.1,8.1-1.5,12.2c-0.5,5.1-1.1,10.3-1.3,15.4
	c-0.1,2.2-2.9,10.4-5.7,11.9c1-2.1,1.5-3.3,2.1-4.7c-1-1-4.4-2.1-0.3-3.7c0.4-0.1,1-0.4,1-0.7c0.3-1.7,0.4-3.4,0.6-5.2
	c-1.4,0.4-2.8,0.8-5.2,1.5c0-2.4-0.2-5.1,0-7.7c0.5-5.6,1-11.2,1.7-16.8c0.9-7.4,0.4-15,2.8-22.2c0.3-0.8,0.2-2-0.1-2.8
	C805.9,951,807.4,945.5,810.4,940.3z"/>
<path d="M383,562.1c-3.8,2.6-8.1,5.3-13.9,2.1c-8.4-4.6-10.3-18-2.8-23c5.3-3.5,11.4-3.5,14.1,2.9
	C382.7,549.5,387.5,554.7,383,562.1z"/>
<path d="M343.1,504.5c0,8.6-3.8,12.1-12,12.4c-6.5,0.2-11.3-6.8-11.2-13c0.1-6,5.6-11.7,11.4-11.7
	C337.9,492.1,343.2,497.6,343.1,504.5z"/>
<path d="M302.2,456.5c5.2,0,10,6,9.9,12.3c-0.2,6.8-5.3,12.7-11.3,12.8c-6.6,0.2-11.6-4.6-11.6-11.1
	C289.3,463.1,295.3,456.6,302.2,456.5z"/>
<path d="M1443.7,435.6c0.6,0.9,1.2,1.8,1.9,2.7c1.8,2.5,3.2,5.4,5.3,7.4c3,2.9,6.5,5.3,9.9,7.6c1.8,1.2,4,2,6,3
	c1.9,0.9,3.8,1.9,5.7,2.9c-0.2,0.4-0.3,0.8-0.5,1.2c1.8,0,3.7,0,6,0c-0.1,1.5-0.1,2.8-0.2,4.2c-9.5,1.5-15.9-1.9-19.3-10
	c-1.3,1.3-2.4,2.3-3.5,3.4c-0.8-2.4-1.6-4.8-2.6-7.4c-0.5,0.2-1.8,0.7-3.7,1.5c-1.6-2.4-3.3-4.8-4.9-7.3c-0.2,0.1-0.8,0.3-2.9,1.1
	C1442.1,441.8,1442.9,438.7,1443.7,435.6C1443.8,435.5,1443.7,435.6,1443.7,435.6z"/>
<path d="M1397.3,879.5c-4.5,5.2-10.2,4.8-15.4,5.5c-1.2,0.2-2.6-1.7-4-2.8c-0.6,0.5-1.5,1.2-3,2.3c-1.8-2-4.1-3.7-4.9-5.9
	c-0.6-1.5,1-3.8,1.6-5.7c1.9,0.7,4.4,0.8,5.5,2.2c2.8,3.6,6.5,3.6,10.4,3.6C1390.5,878.8,1393.7,879.2,1397.3,879.5z"/>
<path d="M1435.3,483.1c-4.9,0.5-9.7,1.2-14.5,1.4c-1.3,0-2.7-1.5-3.7-2.9c-4-1.7-4.2-2-2.8-5.7c2,0.5,4,1,6.2,1.6
	c0.2,0.9,0.5,2,0.5,2.1c4.5,0,8.6-0.7,12.3,0.2c5.6,1.3,5.4,1.7,3.6,8.2C1436.4,486.3,1436,485.2,1435.3,483.1z"/>
<path d="M1448.9,489.5c0.5-1.5,0.9-2.8,1.5-4.4c3.6,1,7.3,1.6,10.5,3.2c1,0.5,0.7,3.5,1.1,5.5c-3.7,1-6,0.9-5.2-3.4
	C1454.2,490.1,1451.8,489.8,1448.9,489.5z"/>
<path d="M1470.9,494.2c-2.5,0-4.5,0-6.6,0c0-4.6,0.3-5,6.1-6.7C1470.6,489.8,1470.8,491.8,1470.9,494.2z"/>
<path d="M1472.7,487.7c4.8-0.4,6.9,1.5,7.9,6.6c-1.9,0.2-3.8,0.4-5.8,0.7C1474,492.4,1473.4,490.2,1472.7,487.7z"/>
<path d="M1225.3,752.6c2.2-0.3,4.5-1.3,6.4-0.8c1.3,0.3,2.1,2.6,3.3,4.3c0.2-0.2,0.8-1,1.9-2.3c0.2,1.4,0.6,2.8,0.3,3
	c-0.8,0.6-2.2,1.1-3,0.8c-3-1-5.8-2.4-8.7-3.6C1225.4,753.6,1225.3,753.1,1225.3,752.6z"/>
<path d="M1441.4,482.1c4.7-0.2,6,1.5,5.5,7.1C1442.2,489.9,1440.4,487.5,1441.4,482.1z"/>
<path d="M138.9,1107.2c1.6-2.1,2.9-3.7,4.2-5.3c0.8,1,2.5,2.2,2.4,3.1C145,1107.4,143.5,1109.3,138.9,1107.2z"/>
</svg>
