<?xml version="1.0" encoding="utf-8"?>
<!-- Generator: Adobe Illustrator 25.2.1, SVG Export Plug-In . SVG Version: 6.00 Build 0)  -->
<svg version="1.1" id="Layer_1" xmlns="http://www.w3.org/2000/svg" xmlns:xlink="http://www.w3.org/1999/xlink" x="0px" y="0px"
	 viewBox="0 0 1801.1 947.6" style="enable-background:new 0 0 1801.1 947.6;" xml:space="preserve">
<path d="M900.1,593.5c1-6.8,3.9-7.6,12.2-3.2c3.1-3.6,6.8-6.1,11.9-3.3c4.9-3.1,8.9-0.2,12.8,2.1c1.4,0.8,2.3,2.3,3.1,3.3
	c1.5-5.3,3.8-11,4.6-16.9c1.1-8.2,4.9-16.2,0-24.8c-3.5-6.1-0.7-15,4.8-19.8c5-4.4,10.4-8.5,15.5-12.7c13.9,4,14.6,8.7,9.9,18.7
	c1.1,0.7,2.2,1.5,3.4,2.1c6.6,3.8,7.4,5.6,5.6,13c-0.1,0.5-0.1,1.1-0.4,1.4c-5.6,6.9-3.8,15.6-5.6,23.4c-0.1,0.5-0.4,1-0.3,1.4
	c3.9,9.5-1.3,18.1-2.5,27c-0.8,5.7-0.8,11,1.7,16.4c1.5,3.2,1.4,7,2.1,11.4c2.6-0.5,4.9-0.8,7.2-1.3c4.8-1,7.9,1.1,7.7,5.8
	c-0.2,5.4-1.5,11-7.5,13c-3.2,1.1-4.9,3.1-5.7,6c-1.2,4.7-2.4,9.4-3.2,14.2c-0.8,5-1.2,10.1-1.9,15.1c-0.7,4.8,1.7,8.1,6.5,8.2
	c9.7,0.2,19.3,0,29,0.3c3.6,0.1,7.2,0.9,10.8,1.6c4.5,0.8,9.1,1.6,13.6,2.6c5.4,1.2,10.8,2.8,16.2,4.1c4.5,1.1,9,2,13.5,2.9
	c6.2,1.2,11.7,7.9,11.8,14.5c0.1,6.3-3.9,11.3-10.4,13c-7.5,2-14.9,4.7-22.5,5.8c-11,1.6-22.1,2.1-33.2,2.9
	c-4.1,0.3-8.3,0.7-12.4,0.4c-7.9-0.5-15.9-1.4-24.3-2.2c-4.4,1.4-9.6,3.5-15,4.4c-3.1,0.5-7-0.4-9.7-2c-7-4.2-13.8-4.9-22-0.6
	c8.1,8.8,14.1,19.1,25.6,24.1c6.9,3,13.9,5.5,19.4,11.2c1.5,1.5,4.4,1.5,6.6,2.4c5.1,2.2,10.1,4.6,15.2,6.7c7.2,3,14.5,5.6,21.5,8.9
	c7.4,3.5,14.6,7.6,21.7,11.7c16.5,9.3,33.7,17.1,51.9,22.6c10.2,3.1,19.8,7.9,29.9,11.5c9.3,3.3,18.9,6.1,28.4,8.7
	c9.4,2.6,15.4,8.5,18,17.7c1.6,5.6-3.2,11.4-9,11.4c-3,0-6.1-0.3-9.3,0.3c15.9,9.9,33.4,15.1,51.7,18.8c-2.5-2.6-4.7-5.4-7.5-7.7
	c-6.2-5.1-4.4-11.8-4.1-18.2c0.2-3,5-4.8,7.6-2.6c3.8,3.2,8.2,3.3,12.6,4.5c8.6,2.3,16.6,6.8,22.6,13.8c4.5,5.2,2.4,12.1-4.2,13.4
	c-3.2,0.6-6.6-0.3-9.9-0.7c-3.2-0.4-6.4-0.9-9.9-0.1c3.7,1.6,7.3,3.1,10.9,4.8c3.7,1.7,5.5,6.4,3.8,9.8c-2,4.1-6.4,5.8-10.3,3.5
	c-4.8-2.8-9.8-4.6-16.8-5.6c9.6,6.5,18.6,10.4,28.1,13.2c3.7,1.1,5.9,3,6.6,6.9c0.3,1.8,1.1,3.7,2,5.3c1.4,2.7,1.2,5.1-0.8,7.4
	c-2,2.2-4.2,3.1-7.1,2c-6.5-2.6-13-5.1-19.5-7.6c-3-1.2-5.9-2.6-9-3.6c-12.9-4-24.7-10.9-37.5-14.6c-25.5-7.3-49.1-19.2-74-28.1
	c-24.2-8.7-47.9-18.7-71.7-28.3c-9.7-3.9-19.1-8.4-28.6-12.7c-5.1-2.3-10.3-4.3-15.3-6.8c-16-8.1-31.7-16.7-47.8-24.5
	c-10.5-5.1-20.5-11.1-29.4-18.6c-4.2-3.6-8.4-7.3-12-11.5c-7.5-8.6-14.5-17.6-21.8-26.2c-1.1-1.3-3.1-2.4-4.7-2.5
	c-17.6-0.9-35-0.1-52.2,4c-8,1.9-15.9,4.1-23.8,6.1c-1.4,0.3-2.9,0.5-4.3,0.4c-5.4-0.6-10.2-0.4-14.8,3.9c-4,3.8-8.5,1.7-9.4-4.1
	c-1-6.9-1.3-14-1.7-21c-0.2-2.8-0.1-5.8,0.2-8.6c0.3-2.8,1.6-5.3,4.7-5.8c3.4-0.5,4.8,1.8,5.3,4.7c0.6,3.8,1,7.7,1.3,11.6
	c0.4,4.3,1.7,5.7,6,5.4c3.4-0.2,6.7-1.2,10.1-1.4c5.3-0.3,10.7-0.1,15.9-0.6c4.8-0.4,9.5-1.2,14.1-2.5c6.6-1.8,13.1-2.3,19.9-2.5
	c7.1-0.1,14.1-2.1,21.8-3.4c-1-2.3-1.6-3.9-2.4-5.3c-4.9-8.1-9.9-16.1-14.8-24.2c-3.3-5.6-7.4-8.3-14.7-8.4
	c-16.1-0.4-32,0.3-47.9,2.5c-3.3,0.5-6,0.9-7.1,4.8c-0.6,1.9-3.1,3.2-4.8,4.8c-6-4.1-4-9.8-4.6-14.5c-0.6-5.2-0.6-10.6-0.8-15.9
	c-0.2-6.1-0.1-12.1-0.4-18.2c-0.2-3.9-0.7-7.8-1.5-11.6c-0.9-4,0.4-7.3,3-10.1c2.8-3.1,6.2-2.5,6.9,1.7c1.3,7.4,2.2,14.9,2.3,22.4
	c0.1,5.2,1.3,9.7,4.7,13.3c1.9,2.1,4.4,3.7,6.7,5.3c1.2,0.8,3.2,0.7,4,1.7c5,6.2,11.4,4,17.5,3c4.5-0.8,9.1-1.9,13.5-3.1
	c5.6-1.5,5.5-2.1,4.4-7.6c-1.5-7.5-6.9-12.8-9.9-19.3c-2.1-4.6-4.3-9.2-6.4-13.9c-2.6-5.9-1.5-10.6,3.7-15.1
	c5.4-4.7,9.6-10.8,14.7-15.8c5.8-5.7,7.6-5.7,13.2,0.1c7.6,7.8,14.7,16.1,22,24.2c1.3,1.4,2.6,2.9,3.9,4.3
	c8.1,8.7,16.1,17.4,24.2,26c3,3.2,6.2,6.1,9.8,9.5c2.2-2.4,5-4.1,9-2.5c1.8,0.7,4.3-0.1,6.4-0.5c5.4-1.2,10.7-0.8,15.8,1.3
	c2.5,1,5.3,2.2,4.7,5.6c-0.6,3.1-2.6,5.3-5.9,5.6c-5.1,0.3-10.2,0.3-15.3,0.4c-1.8,0-3.7,0-6.2,0c7.6,10,14.5,19.2,22,29.2
	c0.7-1.8,1.3-2.8,1.5-3.8c0.4-3.9,2.3-5.9,6.2-6.9c5.4-1.4,5.5-2.3,4.1-7.2c-2-6.8-0.5-13.3,1.2-19.8c1.7-6.7,3.3-13.5,5.1-21.1
	c-2.6,0.1-4,0.5-5.2,0.2c-2.5-0.6-5.7-0.9-7.4-2.6c-5.2-5.1-10.1-10.5-14.7-16.1c-2.4-2.9-1.8-5.6,1.2-7.4c1.3-0.7,3.2-0.9,4.7-0.6
	c3.8,0.8,7.5,2,11.3,3c1.6,0.4,3.3,0.8,5,0.7c8.5-0.4,9.8-2.3,8.5-10.8c-0.6-4.5-0.1-9.2,0.2-13.8c0.4-7.5,1.1-14.9,1.6-22.5
	c-4.7,0-9.7,0-14.7,0c-1.2,0-2.5-0.3-3.6,0.1c-7.4,3.2-13.1,0.6-18-5.1c-0.5-0.5-1.1-0.9-1.7-1.4L900.1,593.5z M832.6,673.3
	c0.5,1.4,0.6,3.6,1.6,4.2c3,1.8,4.7,4,4.6,7.6c0,0.7-0.1,1.7,0.3,2.1c4.5,3.8,6.5,9.1,9.4,14c5.2,8.6,11.3,16.7,16.7,25.3
	c11.1,17.6,24.6,33.4,37.3,49.9c6.2,8.1,15.2,12.5,23.2,18.3c2.7,2,5.6,3.9,8.7,5.2c12.8,5.2,25.6,10.4,38.6,15.2
	c7.8,2.9,15.1,7.8,24.1,6.9c0.6-0.1,1.2,0.6,1.9,0.9c5.1,2.5,10.1,5.5,15.5,7.3c16.7,5.8,32.6,13.6,48.6,21c2.6,1.2,5,3.1,7.7,3.7
	c9.9,1.9,19.6,4.4,28.2,9.9c0.7,0.4,2.3-0.6,3.5-1c-5.3-4.2-10.6-7.3-16.2-9.6c-10.9-4.4-21.3-9.7-32.7-13.1
	c-10.4-3.1-20.4-7.5-30.6-11.4c-7-2.7-14-5.4-20.8-8.5c-10.1-4.7-19.9-9.9-30-14.7c-6.1-2.9-12.8-4.7-18.8-7.8
	c-9-4.7-17.7-9.9-26.2-15.4c-3.8-2.4-7.2-5.6-10.4-8.9c-6.6-6.7-12.8-13.8-19.4-20.6c-2.5-2.6-4.4-5.3-6.3-8.5
	c-3.3-5.5-7-10.7-8.2-17.2c-0.1-0.7-0.6-1.3-1.1-1.9c-5-6.1-10-12.3-15-18.3c-3.5-4.2-7.1-8.5-10.8-12.6
	c-6.5-7.2-13.2-14.2-19.9-21.2c-0.7-0.7-2.3-0.6-3.6-0.8c0.2-5.8-5.5-7.6-7.8-12.1c-0.6,1.1-1.4,1.9-1.2,2.2
	c1.4,2.9,2.8,5.8,4.4,8.7C829,674.1,830.6,674.9,832.6,673.3z M965,585.5c-7.8-1.5-12.8,2-14.4,9.9c-1.2,5.9-2.6,11.8-3.5,17.7
	c-0.8,5.3-1,10.6-1.1,16c-0.1,2.8,2.5,4.6,4.3,3c4.3-3.9,9.8-3.7,14.7-4.7C965,613.4,965,599.7,965,585.5z M920,752.9
	c-0.4,0.5-0.8,0.9-1.1,1.4c3.3,6,11,9.1,11.3,17.1c0,0.5,1,1,1.6,1.4c3.2,2.2,6.5,4.3,9.7,6.4c12.2,8.2,26.7,11.3,39.8,17.5
	c10.9,5.2,21.8,10.6,32.8,15.7c4.9,2.3,10.1,4,15.2,5.9c0.3-0.6,0.5-1.1,0.8-1.7c-6.2-3.3-12.1-7.2-18.5-9.9
	c-17.5-7.5-35.1-14.8-51.5-24.7c-3.3-2-6.7-3.9-10.3-5.2c-6.8-2.4-12.2-6.4-17-11.7C928.8,760.7,924.3,757,920,752.9z M956.8,653.5
	c-0.3,3.3-0.5,5.1-0.6,6.8c-0.3,6.3,0.2,12.5-1.9,18.7c-3.2,8.9-5.7,18-3.8,27.6c0.3,1.5,1.1,2.9,1.7,4.3c1.5-0.9,4-1.5,4.4-2.8
	c1.1-3.7,2.6-7.8,1.8-11.3c-2.4-11.4-1.4-22.6,0.3-33.9C959.1,660.1,959.7,657.4,956.8,653.5z M972.3,550.2
	c-4.9-4.7-9.2-8.8-13.4-12.9c-4.4,2.7-5.9,6.2-6.1,10.4C958.7,553,965,552.9,972.3,550.2z M1115.6,867.9c-0.2,0.4-0.3,0.9-0.5,1.3
	c1.7,0.9,3.4,1.8,5.2,2.6c0.2-0.4,0.4-0.8,0.5-1.1C1119.1,869.7,1117.3,868.8,1115.6,867.9z M960.1,651.9c0.3,0.1,0.7,0.2,1,0.2
	c0.4-2,0.9-4.1,1.3-6.1c-0.4-0.1-0.8-0.2-1.3-0.3C960.9,647.8,960.5,649.8,960.1,651.9z M938,701.7c-0.3-0.1-0.6-0.1-0.9-0.2
	c0,1.4,0,2.7,0,4.1c0.3,0,0.7,0,1,0C938.1,704.3,938,703,938,701.7z"/>
<path d="M1377,741.4c1.4,0.5,2.7,1.4,3.7,1.2c6.4-1.4,11,2.2,16.2,4.9c4.9,2.5,10.4,4,15.7,5.6c7.6,2.3,8.9,3.7,10,11.5
	c0.6,4,0.4,8.3,3.6,11.5c5.4-4.7,5.2-4.2,12.3-1c3.3,1.6,7.8,0.4,11.5,1.5c7.2,2.2,14.3,4.9,21.2,7.9c2.4,1,4.5,4,2.9,6.6
	c-0.9,1.6-3.9,2.7-6,2.8c-5.3,0.4-10.6-0.1-15.9,0.1c-4.8,0.2-8.8,1.7-12.9,4.9c-6.7,5.2-14,10.8-23.7,6.8c-1.7-0.7-3.7-0.9-5.2-1.3
	c-1.2,5-2.1,10.1-3.9,14.9c-1,2.9-4,4.2-7.2,3.8c-7.4-1.1-14.7-3-21.8-5.3c-4.5-1.5-5.2-5.3-6-10c-2.2,1.5-3.9,2.6-5.5,3.7
	c-9.7,6.7-20.2,2.2-24.5-5.4c-0.6-1.1-1.2-2.1-1.7-3.2c-3.2-6.9-3.2-6.8,3.6-10c2.4-1.1,4.4-3.1,6.8-4.1c5.7-2.5,12.5,0.1,16.3,6
	c1.2,1.8,2.1,3.7,3.7,6.5c2.3-6.1,4.2-11.3,6.3-16.8c-2.3-1.6-4.7-3.2-7.1-4.8c-5.6-3.8-7.3-9.5-5-15.8c1.7-4.7,1.3-6-3.3-6.5
	c-5.5-0.6-11-0.4-16.6-0.4c-3.7,0-7.5,0.2-9.8-3.3c-2.3-3.5-1.4-6.8,0.8-10.2c2.9-4.6,2.6-7.1-1.2-10.8c-1.4-1.3-3.3-2.2-4.3-3.7
	c-1-1.5-1.1-3.5-1.8-5.8c-3.4,6.5-3.5,6.6,0.4,10.3c3,2.8,4.3,5.6,2.1,9.6c-1.1,2-1.4,4.5-2.2,7.4c1.2,1,2.7,1.8,3.8,3.1
	c6.3,7.8,4.4,13.6-4.1,18.3c-4.7,2.6-5.2,3.4-3.9,8.2c1.1,3.7,2.3,7.4,2.6,11.2c0.3,4.2-1.4,5.7-5.3,6.4
	c-7.6,1.3-13.5-4.8-11.6-12.2c0.6-2.3,1.8-4.5,2.9-7.3c-5.2-2.9-5.3-8.3-5.5-14.3c-5.2,0.9-10,1.7-14.9,2.5c0.8,2.6,2.5,5.1,1.8,6.6
	c-0.8,1.9-3.4,3.3-5.4,4.5c-4.2,2.5-8.7,2.2-14.3,0.2c2-3.2,3.7-5.9,5.4-8.6c-5.1-8.7-5.1-9,1.4-13.9c-3.1-3.2-6.3-6.4-9.3-9.8
	c-3.6-4-6.5-4.8-11.6-3.3c-5.6,1.7-11.1,3.3-16.8,4.6c-5.5,1.2-8.7-3.5-12.8-5.7c-1-0.5-1.5-1.8-2.2-2.7c-5.8,3.6-13.1,3-18.1-1.8
	c-4.7-4.6-5.8-7.7-3.8-13.5c1.2-3.5,3.4-4.7,6.7-4c5.6,1.2,11.2,2.6,17.7,4.2c2.2-4.1,4.5-8.5,6.7-12.5c-2-4.2-3.8-7.9-5.6-11.6
	c-4.6-2.2-9.7-4.8-15.6-7.6c-2.9,2.7-6.6,2.2-10.8-0.6c-4-2.6-8.4-3.4-13.8-3.1c-7.1,0.3-13.1,0.4-18,6.2c-0.9,1.1-3.2,1-4.8,1.3
	c-3.6,0.6-7.2,1.5-10.7,1.5c-3.2,0-6.3-1.2-11.1-2.1c0.1-0.1-1.3,0.9-2.8,1.5c-2.8,1.1-5.3,0.3-7.2-1.9c-2-2.3-1.2-5,0.7-6.5
	c2.5-2,5.6-3.6,8.6-4.8c1.7-0.7,3.8-0.1,5.7-0.1c3.1-3.2,4.4-6.9,4.4-11.2c-0.1-9.2,1.1-18.5-4.3-26.8c-1.4-2.1-2.9-4.1-4.8-6.9
	c-3.3,10.5-6.3,19.9-9.2,29.2c-2.1,6.6-4.2,13.3-6.3,19.9c-0.1,0.4-0.5,0.9-0.4,1.3c2.4,8.6-3.1,15-6.5,21.7
	c-3.6,7.1-7.2,8.6-14.9,6.8c-4.9-1.2-9.8-2.8-14.4-5c-1.8-0.8-3.4-3.7-3.5-5.7c-0.1-1.3,2.6-3.1,4.4-4c0.9-0.5,2.6,0.6,3.9,0.9
	c2.6,0.6,5.1,1.6,7.7,1.8c5.3,0.5,6-0.4,8.2-5.7c2.5-6,4.4-12.4,10.6-16.6c-3.3-7.4,1.8-13.3,3.4-19.9c1.4-5.8,2.6-11.7,3.7-17.5
	c0.1-0.6-0.5-1.3-1-2.4c-3.3,3.4-5.2,6.9-6.3,11.2c-1.4,5.5-3.8,10.8-5.6,16.2c-2.2,6.6-4.2,13.3-6.3,20c-2.1,6.7-10.8,11.5-17.3,9
	c-1.7-0.7-3.9-2.8-4.1-4.4c-0.3-2.9,2.5-3.9,5-4.1c1.6-0.1,3.2,0.4,4.6,0.6c6-6.8,6.1-15.5,8.7-23.1c1.6-4.6,2.5-9.4,6.8-12.5
	c0.7-0.5,1.3-1.5,1.5-2.4c2.5-10.3,5-20.5,7.4-30.8c1.3-5.7,2.3-11.4,3.4-17.1c1.1-5.2,0.5-5.9-4.2-8.4c-7-3.8-14.5-5-22.4-5.3
	c-4.2-0.2-9-1.4-12.2-3.9c-2.7-2-3.4-6.6-5-10.2c9.5-6.4,17.2,1.7,26.3,1.4c3-2.1,2.5-5.5,1.7-9.5c-2.5,0-4.8-0.1-7.2,0
	c-5.9,0.2-11.6-0.6-16.9-3.6c-6.9-3.9-7.1-7.9-0.4-12.1c0.6-0.4,1.1-0.9,1.7-1.3c-4.6-1.9-5.1-2.1-6.3,1.5c-2,6.2-3.2,12.6-4.9,18.9
	c-1,3.7-2.4,7.2-3.6,10.8c-1.4,4.1-3,8.2-4,12.4c-2.6,10.3-4.6,20.8-7.3,31.1c-1.8,6.9-6,12.5-11.1,17.4c-5.4-3.3-5.4-3.3-2.6-8.8
	c-2.2-2.6-4.2-5.1-6.5-7.8c-0.7,0.1-2.2,0.4-3.6,0.3c-3.5-0.4-5.8-1.8-6-5.9c-0.3-7.4-0.9-14.8-1.5-23.2c-1.8-1.4-4.4-3.4-7.4-5.7
	c-2.1,3.7-4.9,7-5.9,10.8c-1.5,5.8-6.5,8.3-9.9,12.2c-0.7,0.8-3.9,0.4-5.1-0.5c-2.3-2-4-4.7-6-7.1c-7.3-8.8-11.5-19.1-13.8-30.2
	c-1.1-5-0.6-9.7,2.5-13.9c3.4-4.7,6.7-9.5,10.1-14.2c0.7-1,1.6-1.9,2.5-2.7c2.3-1.9,4.8-2.4,7.4-0.6c2.8,2,3.2,4.9,1.9,7.8
	c-0.9,2-2.5,3.6-3.4,5.6c-2.8,6.4-1.2,12.9,0.4,19.3c0.9,3.4,4.4,4.9,8.2,4.5c3.2-0.3,6.5-0.4,9.7-0.6c2.2-4.5,4.7-9.4,7.1-14.2
	c7.8,1.2,11,5.7,12,12.2c4.2,4,9.2,1.2,14.6,2.2c2.5-5.7,4.7-11.6,7.7-17c3.3-6,4.4-12.3,4.8-18.9c0.4-6-3.1-8.9-9-7.2
	c-5.2,1.5-10.8,2.4-13.3-3.3c-1.9-4.4-2.3-9.9-1.9-14.8c0.2-2.1,4.3-3.8,6.7-5.6c5.8,7.2,9.2,8,16.8,4.9c1.8-0.7,3.7-1.1,5.5-1.7
	c3.5-1,6.3-3.1,6.8-6.8c0.4-3.5,3.5-6.5,2-10.4c-0.1-0.2-0.1-0.6,0.1-0.7c6.2-7.9,3.9-18.1,7-26.8c0.9-2.7,2.6-5.1,4-7.6
	c1.9-3.3,3.9-6.6,6.1-9.7c1-1.4,2.7-3,4.1-3.2c2.5-0.2,4,2,3.8,4.4c-0.6,5.8-0.9,11.8-2.6,17.2c-3.8,12.3-8.4,24.3-12.6,36.4
	c-0.8,2.4-1.1,5.1-1.3,8.1c4.5-4.2,9.1-3.6,14.1-1.8c5,1.8,10.4,2.6,15.5,4.3c1.7,0.6,3.9,2.5,4.2,4.1c0.7,3.7,1,7.7,0.5,11.5
	c-0.6,4.6,0.1,8.6,3.6,13.2c0.2-1.8,0.3-2.5,0.3-3.3c-0.3-6.2,1.3-7.7,7.6-6.9c7.4,1,8.8,0,11.7-7c2.2-5.1,5-9.9,6.7-15.1
	c2.5-7.5,4.2-15.3,6.4-23c1.5-5.3,2.7-10.7,4.9-15.6c1.8-4,5.8-3.6,9.9-2.1c0.3,2.1,0.7,4.3,1.1,6.5c0.3,0,0.5,0.1,0.8,0.1
	c0.5-1.6,0.9-3.1,1.4-4.7c1.5-5.5,3.3-6.9,8-6.3c4.5,0.6,4.2,4,4.3,7.2c0,1.2,0,2.4,0,3.6c0.7,0.6,1.2,1.1,1.8,1.4
	c5.9,2.5,7.4,6.1,5.2,12c-4.2,10.8-8.6,21.5-11.7,32.8c-4.6,16.5-11,32.6-16.5,48.8c-0.8,2.5-1.1,5.2-1.8,7.8
	c-2.4,9.3-4.9,18.6-7.3,27.9c-1.1,4.1-2.3,7.9-5.6,10.8c-1.5,1.4-2.4,3.4-4.2,6c4.7,0.9,8.4,1.9,12.1,2.3c2.7,0.3,3.8,1.7,4.3,4.1
	c1,4.7,2.1,9.3,3.3,15c4.4-4.2,5.9-8.7,7.3-13.1c3.9-12.2,7.9-23.9,18-33c3.9-3.5,7.6-6.2,12.5-7.8c1.4-0.4,2.8-1,4-1.7
	c7.6-4.1,16.1-2.4,21.2,4.1c2,2.5,1.8,5.1,0.3,7.4c-1.7,2.8-4.3,1.8-6.5,0.7c-2.6-1.3-4.9-3-7.3-4.6c-3.3,2.6-7.1,4.6-9.5,7.7
	c-2.5,3.1-4.6,7-5.3,10.9c-2,11.2-3.2,22.5-4.8,33.8c-0.7,4.8,1.1,7.5,5.7,9.5c7.6,3.2,15.1,6.6,19.6,14.4c1.9,3.3,5.2,4.2,9.6,2.8
	c5.4-1.7,11.2-2.5,17.2,0.9c4.2-10,8.4-19.8,12.2-29.8c1.1-2.8,0.5-6.2,1.1-9.3c2.7-12.9,6.9-25.6,6.5-39c0-0.4,0.5-0.9,0.5-1.3
	c0-6.7,0-6.7,4.7-10c2.6,0.5,5,1.4,7.3,1.2c6.7-0.4,10.4,3.2,13,8.6c0.7,1.5,1.4,3.1,2.1,4.7c1.5,3.1,3.4,4.2,7,2.5
	c3.4-1.6,7.2-2.1,12-3.4c1.5-3.2,4.6-5.9,10.1-6.7c6.4-1,12.7-3.4,18.7-5.8c6.9-2.7,13.4-4.2,19.9,0.7c0.6,0.4,1.3,0.9,2,0.9
	c8.5-0.1,15.7,5,23.7,6.4c5.4,1,11,0.3,16.5,0.7c3,0.2,6.2,0.8,8.9,2.2c2.4,1.2,3.9,3.8,2.6,6.8c-1.2,2.8-3.1,5.1-6.6,4.6
	c-11-1.7-22.2-2.3-32.7-7c-3.7-1.7-7.8-2.7-11.8-3.6c-3.3-0.8-6.6-0.8-9.5,2.1c-1.2,1.2-3.5,1.4-5.4,1.5c-3,0.2-6.1,0.1-10.2,0.1
	c3.1,4.5,5.3,8.2,8,11.4c0.9,1,3,1.1,4.6,1.5c3.5,0.8,7.1,1.4,10.6,2.2c3.3,0.8,6.5,2.3,9.8,2.5c6.2,0.3,11.1,3.5,15.8,6.9
	c8.2,5.9,16.3,12,24.5,18.1c2.7,2,5.7,3.9,8,6.3c1.9,2,2.8,4.6,0.4,7.2c-2.1,2.1-4.3,3.2-7.1,1.4c-3.1-2-6.2-3.8-9.1-6
	c-8.2-6.3-15.9-13.5-24.6-19.1c-7.9-5.1-17-8.1-26.7-8.2c-6.3-0.1-11.8-1.2-15.2-7.8c-1.8-3.5-4.8-7-8.2-9
	c-3.1-1.9-7.7-3.2-10.9-2.2c-6,1.8-12.7,2.8-16.1,9.8c-2.3,4.6-8.2,3.5-11.1-1.5c-3.3-5.7-6.4-11.4-9.6-17.1
	c-2.5-4.3-2.7-4.3-8.1-0.9c2.3,4,1.6,7.9-0.4,12.1c-1.3,2.7-1.1,6.2-1.7,9.3c-1.3,6.2-2.7,12.3-4,18.5c-1.1,5.2-1.8,10.5-3.2,15.6
	c-2.3,8.4-5,16.7-7.8,25c-0.6,1.7-2.4,2.9-3.9,4.6c11.7,15.8,28.4,24.6,45.1,35.1c1.8-3.4,3.4-6.1,4.6-8.8
	c4.6-10.7,12.5-13.3,22.2-7c2.8,1.8,5.4,4,8.5,6.3c0.1,0,0.9,0,1.5-0.2c5-2.2,9.6-2.4,14.2,1.4c2.4,2,5.5,3.1,8.1,4.8
	C1376.9,731.1,1376.9,731.2,1377,741.4z M1187.1,675.8c5.8-2.8,7.2-7,7.1-11.7c-0.1-4.6-0.8-9.2,2.6-13c0.3-0.3,0.6-1.1,0.5-1.2
	c-4-4.8,0.3-9.1,0.9-13.6c0.2-1.8,0.7-3.7-2.4-4.9c-1.9,7.6-4.3,14.7-5.5,22C1189.3,660.4,1186.2,667.4,1187.1,675.8z M1179.3,493.4
	c-0.6-0.2-1.2-0.4-1.8-0.7c-1.6,3.9-3.3,7.8-4.7,11.8c-3.5,10.2-6.9,20.5-10.1,30.8c-1.4,4.5-3.2,9-1.8,14c0.8-0.3,1.6-0.4,1.7-0.6
	c5.3-16.3,10.5-32.6,15.7-48.9C1178.9,497.7,1179,495.5,1179.3,493.4z M1103.1,533.1c5.8,2.3,9.1,5.1,7.1,11.6
	c-0.8,2.4,1.1,6,5.2,6.6c2.9-6.1,3.3-12.2,2.2-18.3C1107.3,528.9,1106.5,528.9,1103.1,533.1z M1138.2,624.9c1.2-7.7,9.2-13.2,7-21.9
	C1141.1,609.7,1138.6,617,1138.2,624.9z M1392.3,797.3c-3-1.4-5.6-3.1-7.5,0.8c-1.6,3.3-0.7,6.2,2.4,8.1
	C1388.8,803.3,1390.5,800.4,1392.3,797.3z M1245,724.4c-1.5,4-2.5,6.6-3.9,10.4c4.8-1.4,8-2.3,12.8-3.7
	C1250.4,728.4,1248.2,726.7,1245,724.4z M1318,760.3c0.4-0.5,0.8-0.9,1.2-1.4c-2.3-2-4.6-4-7.5-6.5
	C1310.1,760,1316.8,757,1318,760.3z M1373.8,771.5c3.1-2.7,1.9-3.9-1.4-5.7C1373.1,768.5,1373.5,770,1373.8,771.5z M1211.5,679.1
	c-0.4,0.3-0.8,0.7-1.2,1.1c0.9,1.1,1.8,2.2,2.6,3.3c0.5-0.4,0.9-0.8,1.4-1.2C1213.4,681.2,1212.4,680.1,1211.5,679.1z"/>
<path d="M195.2,227.9c2.3,0,4.9,0,7.4,0c3.3-0.1,3.9,2.6,5.5,4.7c6.9,9,14.3,17.7,21.4,26.6c10.7,13.5,21.1,27.2,32,40.6
	c9.2,11.3,19,22,28.5,33.1c7.6,8.9,15,17.8,22.5,26.8c10.6,12.7,21.3,25.2,31.8,38c7.5,9.2,14.7,18.7,22.2,27.9
	c5.4,6.6,11.1,12.8,16.6,19.3c2.2,2.6,4.3,5.3,6.5,7.9c6.5,7.8,12.8,15.8,19.6,23.4c3.8,4.3,8.7,7.7,12.5,12.1
	c7.7,8.7,14.8,17.9,22.4,26.6c6.6,7.4,12.9,14.9,18.9,22.8c10.1,13.3,21,25.9,31.9,38.6c5.8,6.8,12,13.4,18.5,19.5
	c6.6,6.1,13.8,11.4,20.9,16.9c1.6,1.2,4,1.4,6.3,2.2c2.3-3.8,4.2-7.9,9.4-5.8c0.4,0.2,1.2-0.7,1.8-1.2c6.4-5.4,12.7-11,19.3-16.2
	c4.8-3.7,9.6-7.6,16.2-7.3c3.5,0.1,4.8-1.8,4.5-5.1c-0.4-4.7-0.1-9.2,2-13.5c0.5-1,0.8-2.6,0.4-3.6c-3.2-7.8,2-14.2,3.6-21.1
	c0.4-2,2.9-4.1,5-4.9c3.3-1.4,7-2.2,10.6-2.5c8.2-0.6,14.6,4.2,17.5,13.4c1.2,3.8,1.2,8.1,1.5,12.2c0.2,4.6,0.1,9.2,0,13.8
	c0,3.3,2,4.5,4.8,5.6c7.7,2.8,16.2,4.7,22.8,9.3c8.8,6,17.5,13.2,20.5,24.5c0.4,1.6,1,3.3,1.7,4.8c6.3,13.1,4.5,25.8-1.4,38.6
	c-3.6,8-10.2,13.5-15.5,20c-1.8,2.2-3.8,4.2-6.4,7.1c2.5,0.5,4.1,0.9,5.7,1.2c7.8,1.6,15.7,3.3,23.5,4.9c2.6,0.5,5.2,0.8,7.9,1.2
	c15,2.3,27.1,8.9,33,23.7c1.1,2.8,1.1,6.1,1.8,9.2c2.7,13,1.5,26.2,1.5,39.3c-0.1,15.8-0.6,31.5-0.6,47.3c0,7.8,1,15.5,1.3,23.2
	c0.2,4.1,0,8.2-0.4,12.3c-0.2,3.1-1,6.1-1.4,9.2c-0.7,6.5-1.3,13-1.8,19.5c-0.6,7.5-4.3,13.5-9.2,18.6c-2.3,2.4-6.2,4-9.6,4.6
	c-4.7,0.9-9.7,0.5-14.5,0.9c-1.6,0.1-3.2,0.7-5.6,1.2c5.2,7.5,8,15.6,16.3,19.8c3.7,1.8,3.7,4,1.2,7.7c-0.9,1.4-1.5,3.1-2.7,4.2
	c-1,0.9-2.9,1.9-3.8,1.5c-4.1-1.9-8.4-3.8-11.8-6.7c-3.2-2.8-5.7-6.6-8-10.3c-4.8-7.5-11.7-13-18.5-18.3c-3.5-2.7-9-2.9-13.7-4.1
	c-4-1-8.1-1.7-12.1-2.8c-9.4-2.6-13.7-9.4-14.8-18.6c-0.6-5.3-1.2-10.7-1.1-16c0-5.9-4.2-9.2-7.2-13.1
	c-9.7-12.6-19.9-24.9-31.3-35.9c-7-6.8-13.7-13.8-23.2-17.2c-5.2-1.8-10.2-2.8-15.7-2.7c-6.8,0.2-13.6-0.1-20.4,0.2
	c-16.3,0.8-32.5,2.1-48.2,6.5c-2.3,0.7-4.8,0.8-7.1,1.5c-2.2,0.7-4.9,1.3-6.4,2.8c-5,4.9-10.7,6.2-17.8,4.1c-1.7,6.7-7,7.2-12.8,7.5
	c-10.9,0.5-21.8,1.2-32.2,5.1c-3.6,1.3-7.3,0.4-11.3-0.5c-11.9-2.9-20.1-11.2-29.6-17.7c-2.5-1.7-3.5-3.9-2.5-6.9s1.9-5.9,2.9-9.1
	c8.4-0.9,13.4,4.4,18.7,9.3c5.5,5.2,11.5,9.6,19.5,9.8c2.8,0.1,5.6-0.6,8.4-0.9c8.6-1.1,17.4-1.7,25.9-3.4c3.9-0.8,7.1-1.1,10.3,1.5
	c2.1-2.3,3.7-4.9,6-6.5c4.3-3.1,8.8-5.5,14.1-7.1c14.3-4.3,28.7-7,43.6-7.8c11.6-0.6,23.3-0.3,34.9-1.5c11.1-1.1,21.2,1.5,31.2,5.3
	c2.9,1.1,5.7,2.8,8.3,4.5c9.2,6,16.8,13.9,24.4,21.8c5,5.2,9.8,10.8,14.7,16.1c0.6,0.7,1.3,1.2,3.1,2.8c0.3-9.1,0.6-16.7,0.7-24.4
	c0.1-8.7-0.5-17.5,0.1-26.1c0.7-11.9-4.2-20.5-13.5-27.3c-3.8-2.8-7.5-5.4-12.3-6c-2.2-0.3-3.7-1.2-3.7-3.6c0-2.7,1.7-4.2,4-4.4
	c4.9-0.5,9.7-0.1,14,2.8c2.7,1.8,5.6,3.4,9.4,5.7c1.6-17.5-2.4-35.1,9.6-50.2c-5.3-1-10.2-0.1-15,0.9c-9.2,1.9-17.2-1.2-25.1-5.1
	c-3-1.5-6.2-2.3-9.2-3.7c-5.1-2.2-10.7-3.7-15-7c-13.1-10-20.4-23.8-23.1-39.9c-0.7-4.4-3.1-7.2-7.1-8.4c-5.4-1.6-9.2-5.1-13.1-8.9
	c-4.1-4.1-8.2-8.3-12.9-11.7c-13.6-10-24.3-22.8-35.7-35c-0.5-0.5-0.9-1.2-1.5-1.6c-14-10.3-24.1-24.2-35-37.5
	c-6.1-7.3-11.1-15.3-16.3-23.1c-3.5-5.2-7.9-9.8-11.8-14.7c-7.3-9-14.4-18.2-21.8-27.1c-11.4-13.5-23.1-26.7-34.4-40.2
	c-7.3-8.8-13.9-18.2-21.2-27c-10.8-13.1-21.8-26.1-33-38.8c-9.4-10.8-19.5-21-28.7-31.9c-8.8-10.3-16.9-21.1-25.3-31.7
	c-0.9-1.1-1.8-2.3-2.9-3.2c-11.6-9.8-19.9-22.5-29.4-34.1c-5.5-6.7-10.8-13.6-16.2-20.5C193.5,236.6,193.2,232.7,195.2,227.9z
	 M721.5,751.4c-0.3,0-0.5,0-0.8,0c0-9,0.7-18-0.3-26.9c-0.6-5.3-2.7-11.3-6.2-15.1c-3.5-3.8-9.3-6.1-14.6-7.6
	c-8.9-2.4-18-3.8-27.1-5.3c-11-1.8-21.9-1.3-30.9,6.3c-3.7,3.1-7.9,7.1-9,11.4c-3,11.9-1.8,24.1,0.1,36.2c0.2,1.1,1.2,2.1,1.8,3.1
	c2.3,3.6,2.2,7.2,0.2,11c-0.9,1.7-2,3.5-2,5.3c-0.3,13.1-0.4,26.2-0.3,39.3c0.1,8.2,0.5,16.5,1.2,24.7c0.9,10.7-3.1,21-1.3,31.8
	c1.2,7.2,3.7,14.6,14,15.7c6.2,0.7,12.3,2.6,18.5,3.9c2.6,0.6,5.2,1.4,7.8,1.5c10.9,0.2,21.8,0.3,32.7,0.2c5.3-0.1,10.7-5,12.5-10.6
	c5.1-15.5,4.6-31.5,4-47.5c-0.6-14.5-1.1-29-1.2-43.5C720.3,774.2,721.1,762.8,721.5,751.4z M604.9,633.3c3.5-3.1,5.7-5.9,8.7-7.4
	c3.9-2,4.9-4.7,4.9-8.7c0-5.8,0.6-11.6,0.8-17.4c0.2-7.2,1.6-14.4-0.4-21.8c-5.6,1.2-10.6-4.3-15.8-1.1c-0.5,10.4-1.2,20.3-1.5,30.2
	c-0.2,7,0.1,14,0.4,21.1C602,630.5,602.2,633.2,604.9,633.3z M621.5,552.4c-0.1-5-2.7-8.1-7.5-8.9c-4.2-0.7-6.5,0.9-8.3,6.2
	c-0.8,2.3-1.4,4.7-1.7,7.1c-0.4,3.9,2.2,6.2,5.1,8.2c2.6,1.8,4.5-0.2,6.6-1.3C620.3,561.3,621.3,557.2,621.5,552.4z"/>
<path d="M1528,670.6c-1.9,4.4-4.2,8.7-5.7,13.2c-1,2.9-1.9,5-5.4,4.6c-3.2-0.4-6.7-3.8-6.4-6.8c1.1-9,0.1-18.1,1.9-27.1
	c1.7-8.4,1-16.9-0.4-24.9c-1.4,6.6-3.1,13.4-4.2,20.3c-1.1,7.3-1.7,14.8-2.5,22.2c-0.1,0.5-0.2,1.1,0,1.4c3.5,7.3-0.2,12.5-5.4,17.7
	c-1.3-0.3-2.9-0.8-4.5-1.2c-15.7-3.7-13.5-7.9-11.6-19.8c1.6-10.6,4.1-21,6.2-31.5c0.3-1.4,0.7-2.9,0.7-4.3
	c-0.1-6.1-1.9-7.2-8.8-5.1c-0.9,11.7-1.8,23.5-2.8,35.4c-0.3,3.1-0.7,6.2-1.4,9.3c-0.7,2.8-2.4,5.1-5.7,4.2c-3-0.8-5.4-2.8-5.1-6.2
	c0.6-6.8,1.4-13.5,2.4-20.2c1.1-7.7,2.5-15.3,3.8-22.5c-2.7-3.7-7.2-5.3-6.3-10.9c14.3-7.5,29.2-14.1,46.9-12.6
	c-1.9-1.6-3.9-3.2-5.7-4.9c-4-3.9-3.3-6.9,2.3-7.9c3.7-0.6,7.5,0,11.1,0c1.2,6.3,1.2,6.3-2.2,12.3c7.4,1.4,14.8,2.8,22.1,4.2
	c5.2,1,7.2,0,8.7-5.1c1.7-6.1,2.9-12.3,4.3-18.4c-7.7-4.4-15.7-5.2-24-5.7c-6.8-0.3-13.6-0.8-20.3-2.2c-4.8-1-9.2-0.1-13.6,1
	c-1.2,0.3-2.6,1.9-3,3.2c-0.2,0.6,1.5,2.3,2.7,2.8c1.9,0.9,4.3,1.1,6.2,2.1c3.6,2.1,3.9,6.1,0.2,8.1c-2.3,1.3-5.7,2-8.1,1.3
	c-4-1.2-6.2-4.6-5-10c-4.2-1.3-8.4-2.3-12.3-3.8c-1.4-0.5-3-2-3.3-3.3c-0.2-1.2,0.8-3.2,2-4.1c5.4-4.1,11.8-5.8,18.4-6.4
	c6.3-0.6,12.6-0.5,18.9-0.2c9.2,0.4,18.4,1.3,27.6,2c4.7,0.4,5.5-0.2,5.8-5c1.1-15.8,4.8-31,10.3-46c3.6-10.1,6.9-20.3,6.9-31.6
	c0-9.1,2.9-18.2,7.1-26.5c0.8-1.7,1.3-3.6,1.6-5.5c1.9-11.9,1.8-24.1,6.9-35.4c1.7-3.8,1.8-8.3,2.7-12.6c0.8-3.9,1.7-7.8,2.5-11.4
	c-3-1-6.4-2.2-10.3-3.5c-1.7,4.4-5.7,7.9-3.4,13.8c1,2.5-0.5,5.6-3.8,5.9c-2.5,0.2-4.4-1.2-5.2-4.1c-1.4-5.3-1.3-10.2,1.1-15.5
	c3.4-7.7,9.6-12.6,15.7-17.7c4.2-3.5,4.3-5.3-0.8-7.5c-3.3-1.4-6.9-2-10.5-2.6c-3.5-0.6-6.6-1.2-6.9-5.8c-0.1-1.3-2-2.3-3-3.6
	c-0.9-1.2-2.5-2.6-2.4-3.8c0.2-2.6,2.6-3.6,4.9-3.2c4.3,0.8,8.8,1.3,12.6,3.2c5.3,2.6,10.7,2.6,16.1,2.4c3.2-9.6,1.2-16.7-6.8-21.5
	c-6.8-4.1-14-7.7-21.2-11.1c-5.6-2.7-6.2-5-1.5-10.6c1.8,0.9,3.8,1.7,5.6,2.8c7.1,4.1,14.1,8.3,21.1,12.4c3.3,2,6.7,3.2,9.8-0.3
	c1.2,0.8,1.9,1.4,2.7,1.9c5.1,3,8.7,2,9.9-3.5c1.3-5.7,4.6-9.3,8-11.4c5.7,0,9.9,0,14.2,0c4.5,0,9.1-0.2,13.6,0.2
	c3.5,0.3,8,7.5,6.9,10.8c-1.4,4.1-4.9,3.9-8.5,4c-0.5-1.1-1.1-1.9-1.3-2.7c-2.1-6.4-5.5-7.5-10.3-2.8c-4.6,4.5-7,10.3-9,16.5
	c0.9,0.7,1.4,1.5,2,1.5c6.6,0.5,12.4,4,18.8,5.2c5,0.9,8.3,3.8,11.6,6.9c3.1,2.9,2.1,6-1.8,7.7c-4.1,1.9-7.9,4.2-12.2,6.5
	c0.9,1.8,2.2,3.2,2.2,4.7c0.1,2-0.3,5.3-1.3,5.7c-4.3,1.7-5.3,8.6-11,7.2c-2.1-0.5-4-2.7-5.5-4.5c-3.2-3.8-7.1-5.6-12.1-6.5
	c-0.6,2.3-1.1,4.3-1.6,6.6c1.9,1.3,3.8,2.3,5.4,3.7c17,14.3,27,32.6,30.1,54.6c0.2,1.6-0.1,3.4-0.6,5c-0.9,3.1-4.3,5.5-6.5,4.7
	c-2.9-1.1-3.7-3.4-3.7-6.4c0-2.4,0.3-6.2-0.9-6.8c-5.4-3.1-5.6-9.6-9.5-13.5c-1.5-1.5-2.2-3.7-3.2-5.7c-3.2-6.6-8.2-10.5-16.7-10.8
	c-1.6,4.2-3.6,8.3-4.7,12.7c-3.5,13.9-6.9,27.8-10,41.8c-2,9.2-3.2,18.7-5.3,27.9c-2,8.7-4.8,17.3-6.9,26c-1.3,5.7-2,11.5-2.9,17.2
	c-1.9,11.5-4.1,22.9-5.5,34.5c-1.8,13.7-4.8,27.1-8.3,40.5c-0.9,3.7-1.6,7.9-3.8,10.9c-1.9,2.7-5.6,4.3-8.7,6.1
	c-1.6,0.9-3.6,1.1-5.9,1.7c-0.6,7.3-1.1,14.7-1.6,21.8c5,2.4,9.4,4.3,13.5,6.7c1.5,0.9,2.6,2.9,3.4,4.6c2.2,5,2.9,10.3,1.1,15.7
	c-2.9,8.4-3.8,16.9-2.2,25.8c1.3,6.7,0.4,13.5-4,20.2c9.9,3.4,19.3,6.5,28.7,9.7c4.1-5,3.4-10.9,4.9-16.2c0.4-1.4,0-3.2,0.7-4.3
	c2.5-4.1,2.6-8.1-0.9-12.5c10-2.2,8.5-10.2,9.7-16.8c1.5-7.8,2-15.8,4.1-23.4c2.5-9,4-18,4.2-27.3c0-1.2,0.6-2.3,0.9-3.7
	c2.3,0,4.4,0,6.8,0c0.7,3.2,1.3,6.2,1.9,9.2c0.4,0.1,0.8,0.2,1.2,0.3c0.6-2.6,1.2-5.2,1.8-7.8c1-4.3,2.3-8.5,7.9-9
	c-1.4-2.5-2.7-4.8-3.9-7.1c-2.6-5-5.4-6.1-10.8-4.2c-7.3,2.6-14.6,5.2-21.8,8.1c-2.8,1.2-5.5,3-7.9,4.9c-3.5,2.7-7.4,3.6-11.6,3
	c-1.8-0.3-3.7-1.4-5-2.7c-2.6-2.7-1.3-6.3,2.3-7c7-1.2,13.5-3.2,19.1-7.9c1.4-1.2,3.6-1.3,5.5-1.9c4.1-1.3,8.3-2.3,12.2-4.1
	c6.6-3,13.2-0.9,19.7-0.3c2.5,0.2,4.9,3.5,6.9,5.9c2.8,3.4,4.9,6.9,10.5,5.9c3.8-0.7,6.7,2.2,6.8,5.1c0.1,3.8-2,5.8-5.6,6.5
	c-7.4,1.5-12.2,5.7-13.8,13.2c-0.4,2-0.6,4.3,0,6.2c1,3.6,1,6.9-2,9.3c-2.3,1.8-2.6,3.9-2.3,6.4c0.8,5.4-0.3,11,2.9,16.3
	c1.9,3.2-0.2,6.8-3.2,8.9c-5,3.6-5.8,9-4.9,13.9c0.7,4.1,0.5,7.3-2.3,10c-5.2,4.9-5,11.4-5.7,17.5c-0.4,4.1,0.3,8.3,0.2,12.4
	c-0.1,3.3,1.5,5,4.2,6c2.5,1,5.1,1.6,7.5,2.9c4.5,2.5,5.1,5.1,2.6,9.6c-0.5,0.8-1.1,1.6-1.6,2.5c-3.8,6.7-6.7,8.2-13.6,6
	c-8.5-2.8-16.9-6.2-25.3-9.4c-7.7-2.9-15.4-5.9-23.1-8.8c-10.2-3.8-20.7-6.5-30.2-12c-7.3-4.2-15.5-6.9-23.2-10.4
	c-2.2-1-4.5-2-6.1-3.6c-3.2-3.3-1.6-6.2,2.6-7.9c8.2-3.4,16-2.2,24,0.4c1.1,0.3,2.3,0.2,3.5,0.3c0.3-3.5,0.7-6.5,0.7-9.6
	c0-1.3-0.5-3.1-1.4-3.9c-4.1-3.9-4.7-8.9-4.6-14.1c0.1-4.5,0.6-9.1,0.8-13.7c0-2.8,0-5.6,0-8.3c-0.3,0-0.5,0.1-0.8,0.1
	C1527.3,665,1527.6,667.8,1528,670.6z M1570.4,500.9c5.8-5,3.7-11.8,4.8-17.8c-0.5-0.1-1-0.2-1.5-0.3c-1.1,6.1-2.1,12.2-3.1,18.3
	c-0.4,2.1-0.9,4.2-1.3,6.3c0.6,0,1.2,0.1,1.8,0.1C1570.9,505.3,1570.6,503.1,1570.4,500.9z M1529.2,619.9c-3.4,2.6-3.8,5.4-3.8,8.4
	c0.1,6.8,0,13.6,0.3,20.3c0.1,2.4,1.3,4.7,2.4,8.3c1.1-2.2,1.7-2.9,1.6-3.4c-1.2-4.7,0-9,0.9-13.5
	C1531.9,633.7,1532.1,627,1529.2,619.9z M1558.9,566.2c0.2-13.6,7.2-26.1,5.9-39.9C1560,539.2,1555.5,552.1,1558.9,566.2z
	 M1595.5,727.2c0.5,0.1,0.9,0.2,1.4,0.3c1.9-5.1,3.5-10.2,2.9-15.7c-0.5-0.1-1-0.2-1.5-0.3C1597.3,716.8,1596.4,722,1595.5,727.2z
	 M1511.1,622.4c0.6,0,1.2-0.1,1.7-0.1c-0.1-1.3-0.3-2.5-0.5-3.8c0,0-1.2,0-1.2,0.1C1511.1,619.9,1511.1,621.2,1511.1,622.4z"/>
<path d="M539.1,217.8c4.5,1.8,8.8,3.8,13.4,5.2c11.2,3.3,22.5,6.3,33.7,9.2c2.8,0.7,5.7,1,8.5,1.5c3.1,0.6,6.2,1.1,9.2,2
	c2.9,0.8,4.5,2.9,3.8,6.1c-0.8,3.6-3.5,5.9-6.7,5.4c-6-1-11.9-2.1-17.8-3.5c-8.8-2.1-17.5-3.8-26.6-3.8c-6.5,0-13.1-1.2-19.6-1.7
	c-11.1-0.9-22.3-1.3-33.4-2.8c-13.9-1.9-27.7-0.7-41.5-0.8c-6,0-12-1.4-17.9-2.5c-7.4-1.4-14.9-2.7-22-4.9
	c-8.3-2.6-16.3-6.1-24.5-9.2c-2-0.8-4.1-1.3-6.2-1.9c-17.1-4.5-34.2-8.8-51.2-13.4c-15.1-4.1-30.1-8.7-45.2-12.7
	c-14.5-3.8-29.4-6.5-43.8-10.6c-6.6-1.9-14.1-1.2-20-5.9c-0.7-0.5-1.9-0.8-2.8-0.7c-21.4,0.4-42.3-4.6-63.5-6.6
	c-7.7-0.7-15.6,0.4-23-3.2c-1.4-0.7-3.4-0.4-5-0.1c-9.7,2.2-19.5,0.5-29.2,0c-3.6-0.2-6.4-2.7-10.5-2.8c-4.9-0.2-9.5,0.5-14.3,1
	c-3,0.4-6.2,0.6-8.7-2.5c9.5-5.9,18.7-9.4,29.8-5c4.5,1.8,9.9,1.4,14.9,1.7c8.4,0.6,16.8,1,25.1,1.3c3.4,0.1,6.7-0.1,10.1,0
	c5.1,0.2,10.2,0.3,15.2,0.7c6.7,0.5,13.5,1,20.2,2c8.9,1.2,17.7,2.8,26.5,4.2c3.1,0.5,6.3,0.9,9.4,1.1c7.5,0.5,14.8,1.3,22.1,3.9
	c6.7,2.4,14.2,2.7,21.4,3.8c2.4,0.4,4.7,0.6,7.4,0.3c-1.1-0.5-2.1-1.1-3.2-1.4c-11.6-3.2-23.3-6.2-34.9-9.6
	c-12.4-3.6-24.5-8-37.7-8.2c-3.5-0.1-7.2-1.3-10.5-2.6c-6.8-2.6-13.6-4.4-20.9-5.1c-1.7-0.2-3.4-0.6-4.9-1.3
	c-13.8-5.8-28.4-6.6-43.1-7.6c-6.9-0.5-13.8-3.3-20.7-3.5c-9.1-0.3-17.7-2.4-26.5-3.8c-11.5-1.8-23.1-2.3-34.7-2.2
	c-2.7,0-5.4-0.7-8.2-1.1c0.6-4.5,3.5-5.1,6-5.4c6-0.6,12.1-1,18.2-0.9c7.4,0,15,0.1,22.3,1.1c8.9,1.2,17.6,3.3,26.5,5
	c1.8,0.3,3.6,0.5,5.5,0.6c5.2,0.1,10.4-0.6,15.4,2.1c2.2,1.2,5.4,0.3,8,0.9c11.6,3,23.2,5.8,35.2,6.9c5.2,0.5,10.2,2.9,15.4,4
	c5.4,1.2,11,1.7,16.5,2.8c8.7,1.8,17.4,3.5,26,5.7c6.3,1.6,12.4,4.7,18.8,5.6c6.2,0.8,12.4,1.6,18.4,3.3c3.6,1,7.3,1.9,10.9,3
	c12.1,3.5,24.3,6.7,36.4,10.5c5.5,1.7,10.6,4.5,16,6.5c7,2.6,14.2,4.7,21.3,7.1c13.5,4.7,26.7,9.9,39.4,16.7
	c7.9,4.2,16.6,6.8,25.2,9.5c15.7,4.9,31.4,10.3,48.2,10.5c1.5,0,3.7,0.7,4.2,0c4.2-5.7,10.8-3,16-5c2.3-0.9,5.2-0.4,8.1-1.6
	c-6.8-2.8-13.6-5.9-20.6-8.3c-13-4.5-26.3-7.9-39-13c-11-4.5-22.4-7.5-33.6-11.3c-10.3-3.5-20.2-8.4-30.3-12.5
	c-3.3-1.3-6.9-2-10.2-3.3c-12.5-4.7-24.8-9.9-38-12.5c-3.8-0.8-7.7-1-11.5-1.9c-6.6-1.5-13.4-2.7-16.8-9.9c-0.5-1.1-2.2-1.9-3.5-2.3
	c-6.3-1.8-12.6-3.6-19-5c-6.8-1.5-14-1.9-20.1-5.9c-0.5-0.3-1.5-0.6-2-0.3c-5.5,2.7-10.4-0.7-15.5-1.5c-4-0.6-8-0.9-12-1.5
	c-4.5-0.6-9.1-1.6-13.6-2c-8.3-0.8-16.6-1.5-25-2c-8.8-0.5-17.3-2.5-24.9-6.5c-3.4-1.8-6.4-1.5-9.4-1.9c-13.2-1.8-26.4-3.3-39.7-4.5
	c-11.3-1-22.8-1-34-2.5c-7.1-0.9-14-3.8-21.1-5.6c-2-0.5-4.5-1.2-6.2-0.5c-6.2,2.6-10.6-0.9-16.5-3.6c7.1-4.8,13.6-6.1,20.7-4.1
	c14.3,4.1,28.8,7.3,43.7,7.4c5.5,0,10.9,0,16.4,1.8c8.8,2.9,18.1,2.7,27.3,3.4c6.9,0.5,13.7,2.5,20.5,3.7c9.5,1.6,19,3.5,28.6,4.5
	c11,1.2,22.1,0.8,32.9,4.3c4.5,1.5,9.5,4.1,14.8,1.9c5.2,3.4,10.8,4.2,16.7,1.9c3.4,4.1,8.5,1.2,12.2,2.8c9.6,4,20.5,2.9,29.9,7.7
	c2.7,1.4,6.4,0.8,9.6,1.1c7.9,0.7,15,3.5,22.3,6.4c7.3,3,15.1,5.1,22.9,6.8c14.5,3.2,28.7,6.9,42.4,12.5c9.1,3.7,18.7,6.4,27.9,9.8
	c7.5,2.7,15,5.4,22.2,8.9c8.1,4,16.5,6.6,25.4,8.2c3,0.5,5.8,2.4,8.8,3.3c12.8,3.7,25.6,7.6,38.6,10.9c6.3,1.6,12.9,1.9,19.4,2.8
	c3.6,0.5,7.2,0.9,10.9,1.4c2.2,0.3,5,0.6,4.9,3.3c0,2.2-1.3,4.4-2.4,6.4c-0.6,1.1-2.2,1.5-3.4,2.2
	C539.2,216.6,539.1,217.2,539.1,217.8z"/>
<path d="M832.1,427.6c6.2,0,11.5-0.6,15.2-6.9c-1.6-0.7-3.1-1.1-4.3-1.9c-1.7-1.2-3.7-2.4-4.6-4.1c-1.7-3.5,0.5-6.2,4.4-5.7
	c1.6,0.2,3.4,0.7,4.7,1.7c3.4,2.6,6.6,5.5,10.2,8.5c0,7-5.5,11-10.4,15.9c4.5,7.9,0.3,13.2-6.5,17.7c5,5.8,5.1,11.6,1.7,17.6
	c-0.2,0.4-0.4,0.9-0.4,1.4c1,12.3-8.3,14.3-16.9,17c-0.4,0.1-0.7,0.5-1,0.8c4,4.5,7.2,5.1,12.2,3.1c6.4-2.6,13.3-3.3,19.9-1.7
	c3.1,0.7,5.6,4.3,8.2,6.7c4.1,3.8,6.5,4.1,11.8,1c-2.1-1.4-4.1-2.6-6-4c-1.2-0.8-2.5-1.7-3.2-2.9c-2.5-4.7,0.5-9.8,5.9-9.2
	c4.2,0.5,8.2,2.3,12.2,3.9c0.9,0.4,1.6,2.5,1.6,3.8c0,2.5-0.6,5.1-1.1,8.4c1.5,0.8,4,1.7,6,3.3c1.6,1.2,3.2,3.1,3.7,4.9
	c1.2,4.3-1.5,7.2-6,6.6c-2.1-0.3-4.2-1.2-6.2-2c-3-1.2-5.9-1.6-9.2-0.3c-4.7,1.8-8.7,1.3-12-3.5c-2-2.9-5.3-5-8.3-6.9
	c-1.4-0.9-3.7-1.1-5.4-0.8c-2.8,0.5-5.9,1.1-8.3,2.6c-7.5,4.8-14.1,1.5-20.3-2.2c-3.9-2.3-6.1-3.1-9,1.1c-0.9,1.3-3.8,1.5-5.8,1.7
	c-8,0.6-15-3.3-22.4-5.6c-2.6-0.8-4.4-4-6.9-6.4c4.4-4.2,7.6-8.1,13.9-7.5c4.4-13.2,7.1-26-1.4-38.4c-0.9-1.3-2.3-2.4-3.7-3.2
	c-5-2.9-10.2-5.5-15.1-8.5c-1.8-1.1-3.1-2.8-5.5-5c-0.6,2.2-1.2,3.7-1.2,5.1c0,10.8,0.2,21.6,0.1,32.4c0,2.1-0.3,4.5-1.2,6.3
	c-2.5,4.5-0.5,8.8,0,13.1c1.4,12.1,1.7,24.2-1.1,36.2c7.5-1.2,14.7-2.4,21.8-3.4c6-0.9,11,0.9,15.1,5.5c4.4,4.9,4.4,8.9-0.1,15.2
	c-4.3-1.4-8.8-2-13.7-0.9c-3.3,0.7-7.3-1.7-11-2.8c-3.1-0.9-6.2-2.1-10.3-3.4c0,14.4,0,27.6,0,41c0.5-0.2,1.3-0.2,1.6-0.6
	c3.6-4.2,6.2-4.1,8.1,0.8c1.5,4.1,2.6,8.4,3.4,12.7c1.9,10.3,9.5,15.3,18.9,15.8c2.8,0.2,6.6,0.6,7.9,2.4c2.3,3.2,3.5,7.4,4.2,11.4
	c0.5,3-2.9,6.1-6.8,6.4c-7.7,0.7-15.4,0.9-23.1,1.6c-3,0.2-6,1-9.5,1.6c-5.6-6.6,0.5-15.3-3-22c-3.9-7.5,1-15.3-2.1-23.5
	c-1.7,3.8-3.1,6.7-4.3,9.6c-6.6-1.7-8.1-3.9-6.7-9.1c2.7-10,2.6-20,1.6-30.2c-0.6-6.4-0.1-13,0-19.5c0-1.4,0.3-2.9,0.3-4.3
	c-0.3-9.6-0.9-19.3-0.8-28.9c0.1-7.7,0.6-15.5,1.9-23.1c0.5-2.8,0.2-5.2,0.1-7.8c-0.2-4.9,1.2-9.9,2.2-16.4
	c-2.3-3.3-4.7-7.9-0.5-13.7c1.3-1.8,1.1-5.3,0.6-7.8c-1.7-8.6-0.1-17.2-0.2-25.8c-0.1-5.6-1-11.5,2.2-17.1c1.1-1.9-1.4-5.5-1.5-8.3
	c-0.6-13.7-1.7-27.5,2.4-41c1.1-3.5,1.1-7,0.3-10.7c-0.9-4.2-0.8-8.6,2.2-12.4c0.8-1,1.4-3.4,0.8-3.9c-4.2-4.2-1.3-9.4-1.8-13.9
	c-1.1-9.6-0.7-19.4-1.3-29.1c-0.2-4.1,0.8-7.2,4.5-9.1c3.8-1.9,6.9-0.3,7.5,3.8c0.3,2.4,0.2,4.9,0,7.3c-0.8,8.9-1.9,17.8-2.5,26.7
	c-0.3,5,0,10.1,0.1,15.2c0,2.7,0.2,5.4-0.1,8c-0.8,7.3-0.8,15-3.1,21.9c-2.4,7.3-1.6,14.5-1.2,21.6c0.5,9.7-0.4,19.2-1.1,28.8
	c-0.6,8.1-0.3,16.3-0.5,24.5c-0.1,3.8-0.3,7.5-0.5,12.6c5.2-5.4,10.2-3.7,15.5-1.3c2.4-4.6,3.5-10.1,11.5-10.6
	c-4-3.2-6.2-4.9-8.4-6.6c-0.2-5.3,5.2-5,7.5-7.6c2.5-2.8,4.5-6.1,6.5-9.2c2-3.1,3.9-6.2,6.3-10.1c-3.5,0-5.8,0-8.3,0
	c-1.8-4.2,1-7.5,3.5-7.5c4.3,0,6.2-3.4,9.6-4.4c2.7-0.8,5.3-1.9,8.1-2.4c3.6-0.7,6.3-2.2,8.3-5.2c3.1-4.6,6.4-9,9.7-13.4
	c0.5-0.7,1.5-1.1,2.1-1.6c0.8,0.1,1.3,0.1,1.7,0.2c11.7,5.1,8.2,16,9.5,25c0.4,2.9-0.3,6,0.6,8.6c2.2,6.7-0.4,11.3-5.3,15.4
	c-0.9,0.8-1.8,1.6-2.2,1.8C837.4,408.3,832.5,417.1,832.1,427.6z M820.4,406.7c-4.2-5.7-9.5-2.9-14.6-3.2c3,3.4,6.1,6.8,9.6,10.7
	C817,411.6,818.6,409.3,820.4,406.7z M827.3,375.1c-2.1,0-3.9,0-5.8,0c0,0.7,0.1,1.3,0.1,2c1.7-0.2,3.4-0.3,5-0.5
	C826.8,376.6,826.9,376.2,827.3,375.1z M826.7,465c2.9-1.4,3.7-3,0.4-5.6C826.9,461.8,826.8,463.4,826.7,465z M830,444.7
	c0.7,0.4,1.5,0.8,2.2,1.2c0.4-1.2,0.9-2.5,1.3-3.8c0,0-1.1-0.6-1.2-0.4C831.5,442.7,830.7,443.7,830,444.7z M802.5,401.4
	c-0.5-0.3-1-0.6-1.6-0.9c-0.3,0.9-1,1.8-0.8,2.6c0.1,0.7,1.2,1.3,1.9,1.6c0.3,0.1,1.3-0.7,1.3-1.1
	C803.3,402.8,802.8,402.1,802.5,401.4z M831,363.6c-0.3-0.6-0.5-1.3-0.9-1.8c-0.1-0.1-1.1,0.3-1.1,0.4c0.1,0.7,0.3,1.3,0.5,1.9
	C829.9,364,830.3,363.8,831,363.6z"/>
<path d="M830.4,183.2c-4.6,3.2-9.7,3.8-15.1,2.6c-12.7-2.8-25.4,0.5-38.1-0.5c-1.7-0.1-3.4,0.1-5.1,0c-3.6-0.3-6.1-2.3-6-6
	c0.2-5.8,0.2-11.8,1.8-17.3c1.1-3.8,2-7.4,1.8-11.3c-0.3-6.8,0.5-13.3,2.4-20c1.7-5.8,0.6-12.4,0.8-18.6c0-0.2-0.2-0.5-0.2-0.7
	c0.4-8,0.8-16.1,1.2-23.6c-0.8-3.6-1.9-6.9-2.2-10.2c-1.9-17.6-6-29.7-24.3-35.5c-6.3-2-13.4-1.3-20.1-1.8
	c-8.1-0.5-16.3-0.8-24.4-1.6c-2.5-0.2-4.8-2.1-7.4-3.3c-0.8,0.4-2,1-4.1,2c0.6-2,0.6-3.8,1.2-4c3.2-1.1,6.4-2.3,9.7-2.4
	c8.4-0.2,16.9,0.2,25.3,0.3c4.6,0,9.2-0.2,13.8-0.1c2.6,0.1,5.5,0.3,7.8,1.4c6.6,3,13.2,6.3,19.4,10c4.7,2.8,7.1,7.4,8.8,12.8
	c2.7,8.9,3.8,18,4.8,27.1c0.8,7,2.7,14.7,0.6,20.9c-2.7,8.2,0.8,16.2-1.8,24.2c-1.5,4.6,3.6,8.1,9.2,6.8c8.1-1.8,16.2-1.6,24.2,0.2
	c1.3,0.3,2.8-0.3,4.2-0.3c2.2-0.1,4.4-0.5,6.5,0c6.8,1.3,8.4,3.6,8,10.6c-0.4,6.3,1,8.4,6.5,9.1c2.4,0.3,4.8,0.3,7.8,0.5
	c1-5.2,2-10.4,3-15.5c1-5.1,4.8-7.7,9.1-9.6c1.3-0.6,3.8-0.3,4.7,0.6c3.8,3.7,7.5,1.3,11.3,0.5c0.4-0.1,0.7-0.7,1.1-0.9
	c3.6-1.5,20.2,4,21.4,7.5c1.9,5.4-0.3,10.5-2.3,15.4c-2,4.9-4.2,9.7-5.6,14.8c-2.5,8.6-4.6,17.4-6.8,26.1c-1.8,7-3.2,14.1-5.2,21.1
	c-0.8,2.6-2.8,5-4.5,7.3c-2.1,2.8-4.8,1.2-7.4,0.9c-8.6-1.3-17.2-2.6-25.8-3.8c-4.3-0.6-8.7-0.6-13.1-1.1c-2.7-0.3-5.3-1.3-8.8-2.2
	c6.2-10.8,12.5-20.3,11.9-32.3c2.1-5.2,4.2-10.4,6.8-16.6c-4,0.4-6.5,0.7-9.1,0.9C828.8,173,829.6,178.1,830.4,183.2z M817.6,153.2
	c0-2.7,0-5.2,0-7.9c-4-0.6-7.6-1.5-11.1-1.5c-8.5,0-16.9,0.5-26,0.8c0,1.8,0,4.3,0,7.3c1.8-0.5,2.9-0.8,4-1.1
	c4.2-1,8.4-1.5,12.7-0.8c3.3,0.5,5.2,2.5,5.6,5.8c0.4,3-1.7,4.6-4,5.3c-5.9,1.9-12,4.6-17.6-1c-0.2-0.2-0.9,0.1-1.7,0.2
	c0,4.8-3.4,9.6-0.1,14.8c11.5-0.2,23.1,0.8,35-2.8c-1.1-2.6-1.6-5.1-2.9-6.9c-1.2-1.6-2.3-4.7-5.5-2.7c-0.4-1-1.5-2.4-1.2-3.1
	c1.2-2.3,2.3-4.8,5.7-5C812.7,154.5,815,153.7,817.6,153.2z M864.6,181.7c5.1-4.1,4.9-4.1,6.1-9.2c0.5-1.9,1.6-4.8,3-5.3
	c6.7-2,8.9-6.9,10.1-12.9c0.4-1.9,1.4-3.6,2.3-5.3c1.9-3.9,1.9-6.9-0.4-7.5c-3.6-1-4.7,2.1-5.5,4.4c-2,5.3-6.1,6.5-11.1,6.1
	c-1.9-0.1-3.8-0.9-5.7-0.9c-1.5,0-4,0.5-4.3,1.3c-0.5,1.6-0.1,3.8,0.8,5.2c0.8,1.3,2.7,2,4.2,2.7c4.9,2.3,5.5,3,4.4,8.3
	C867.6,172.7,866.1,176.8,864.6,181.7z M858.1,195.7c-2.4,3.9-4.5,7.2-3.3,11.7C859.6,203.5,860.8,199.7,858.1,195.7z M862.8,185.1
	c-4.8,5-4.8,5-1.3,9C861.9,191,862.3,188.7,862.8,185.1z"/>
<path d="M288.3,934.3c-16.1,6-31.5,5.1-47,3.2c-8.9-1.1-17.9-1.2-26.9-1.9c-10.2-0.7-20.3-1.7-30.5-2.2c-9.7-0.5-19.4-0.5-29.1-0.8
	c-4.6-0.1-9.2-0.4-13.8-0.6c-15.9-0.8-31.8-1.9-47.7-2.5c-9.7-0.3-16.6-5.8-21.9-12.4c-5.8-7.4-12.5-13.4-19.7-19.1
	c-5.7-4.5-11.3-9.1-17-13.6c-1.3-1-2.8-2.2-4.3-2.4c-8.3-0.9-14-5.7-18.6-12.1c-0.3-0.4-0.5-1-0.9-1.1c-10.5-4.1-9.8-13.3-9.7-22
	c0.1-8,1.2-16,0.5-23.9c-0.3-4.3-1.5-8.3,0.4-12.5c0.4-1-1.1-2.7-1-4.1c0.2-6.8-2.9-13.6,0.5-20.6c3.6-7.2,8.1-12,16.5-14
	c6.3-1.6,12.3-1.9,18.5-1.7c9.7,0.3,19.4,0.7,28.8-2.8c3-1.1,6.7-0.6,10.1-0.3c4.3,0.5,8.7,1.2,12.9,2.5c5.1,1.6,9.6,4.3,12.4,9.2
	c0.4,0.6,0.4,1.6,0.9,1.9c7.7,5.6,7.7,13.7,8.1,22.2c0.5,9.4,2.8,18.6,4,27.9c0.6,4.8,0.8,9.6,0.6,14.4c-0.4,9-0.9,18-1.8,26.9
	c-0.8,7.7-5.6,11.9-13,13.9c-13,3.5-25.2,4.2-43.8,2.1c3,3.4,5.2,6.2,7.8,8.7c3.7,3.7,7.8,7.1,11.4,11c8.7,9.5,21.8,14.7,34.2,13.5
	c3.3-0.3,6.6,0.3,9.9,0.6c2.9,0.2,5.8,0.7,8.7,0.7c9.7,0.2,19.5,0,29.2,0.5c11.6,0.5,23.2,1.6,34.7,2.3c4.9,0.3,9.7,0.1,14.6,0.4
	c16.2,0.9,32.4,2.3,48.6,2.9c13.3,0.5,26.7,0.1,40.1,0.2c3.8,0,7.7,0.9,11.5,0.9c25.2-0.1,50.5-0.7,75.7-0.3
	c12.9,0.2,25.7,1.9,38.6,0.8c9.1-0.8,18.2-2.9,27.2-3c5-0.1,10.1,2.3,14.8,4.4c1.2,0.5,1.8,4.6,1.2,6.5c-1,3.3-4.4,4.6-7.7,4.5
	c-3.6-0.1-7.4-0.4-10.6-1.8c-4.7-2.1-9-0.8-13.6-0.6c-13.8,0.7-27.8,2.5-41.5,1.3c-13.4-1.1-26.7-0.3-39.9-1.4
	c-7.6-0.7-15.2,1.2-22.8-0.8c-2.9-0.8-6.2,0.1-9.3,0.2c-7.9,0.2-15.9,0.1-23.8,0.5C290.9,940.1,289,938.5,288.3,934.3z M104.2,844.9
	c-0.4,0-0.8,0-1.2-0.1c0-6.1,0.5-12.2-0.1-18.2c-1-9.1-3.8-18-3.8-27c0-6.2-2.4-10.6-5.4-15.1c-2.1-3.2-4.9-5.5-9-6.7
	c-7.3-2.1-14.3-1.6-21.5,0.2c-5.1,1.3-10.6,2.9-15.7,2.3c-9.4-1.2-18.3-0.1-27.2,2.8c-6.9,2.3-6.8,2.5-4.4,9.2
	c1.4,3.8,0.4,9.4-2.7,10.2c-4,1-4.3,3.5-4.3,6.4c0,4.8,0.3,9.7,0.5,14.5c0.3,5.7,1.7,11.6,0.7,17c-1,5.1,0.3,9.3,1,14
	c0.6,4,2.6,6.9,5.6,9c6.1,4.2,12.1,7.9,19.9,9.5c15.1,3.2,30.3,3.9,45.5,4.5c4.3,0.2,8.6-1.1,12.9-2c3.9-0.8,6.4-3.3,6.8-7.5
	C102.8,860.3,103.5,852.6,104.2,844.9z"/>
<path d="M1346,546.7c-0.7,1-1.4,2-1.9,3.1c-3.1,6.3-6.8,11.5-14.9,8.8c-2.8,4.5,1.5,12.6-8.4,13.2c-0.5-2.5-1.5-4.9-1.5-7.4
	c-0.1-6.3,0.3-12.6,0.4-19c0.1-4.7,0.1-4.7-5.4-9.9c-0.7,2.3-1.5,4.2-1.8,6c-0.9,5.2-1.2,10.5-4.2,15.2c-2.9,4.4-3.4,4.7-7.8,1.6
	c-1-0.7-1.9-1.5-3.2-2.4c-0.9,3.9-1.7,7.5-2.5,11.1c-6.6,0.5-8.8-0.9-8.1-6.6c1.5-12.1,0.9-24.5,5.3-36.2c1-2.7,0.8-5.9-0.1-9.2
	c-0.4,0.9-1.1,1.7-1.3,2.7c-2.2,9.4-4.4,18.9-6.6,28.3c-1,4.3-2,8.5-2.7,12.8c-0.5,3.1-1,5.9-5.1,5.6c-3.9-0.3-6.2-3-6.2-7.1
	c0-0.9-0.1-1.8-1.2-2.9c-0.9,3.1-1.9,6.1-2.6,9.2c-0.7,2.9-2,5.1-5.3,5c-2.7-0.1-4.3-2.8-4.2-6.5c0-1.9,0.3-3.8,0.5-6.1
	c-0.7,0.4-1.4,0.7-1.7,1.1c-5.5,7.7-7.8,7.8-14.6,0.4c-4.3,2.4-8.8,4.9-14.1,2c-1.2-0.7-3.3,0.3-5,0.4c-8.1,0.5-11.7-4.3-8.9-11.8
	c0.6-1.7,1.1-3.7,0.8-5.5c-0.9-6.4-0.4-12.3,2.8-18.3c2.8-5.1,4.5-10.8,6-16.4c2.7-10,2.4-10.1,12.4-9.4c1.9-2.4,3.8-4.9,5.7-7.4
	c6.1-0.4,9.1,2.8,10.5,8.8c4-0.9,7.7-1.8,12.2-2.8c1.7,2.4,3.6,5.1,5.9,8.1c4-4.7,8-1.4,12.5,1.1c1-1.7,1.9-3.4,2.9-4.8
	c2.2-3.2,4.4-3.4,7.1-0.6c1.3,1.4,2.8,2.9,3.5,4.7c1.2,2.9,2.8,4.3,6.1,5.2c5.6,1.4,5.5,2,8.4-3c1.8-3.1,4.6-4.7,7.8-4.6
	c3.5,0.2,5.4,2.8,6.1,6.3c0.4,2.3,1.2,4.6,1.9,7.1c6.4-6.7,6.8-6.8,15.2-3.2c0.5-0.4,1.3-0.7,1.6-1.2c1.6-2.4,3.3-4.4,6.5-3.1
	c3.2,1.2,5.6,5.3,4.8,8.8c-1.4,6.9-3.2,13.7-4.8,20.5l0.1-0.3c-1,3-2,6.1-3,9.1C1345.8,546.9,1346,546.7,1346,546.7z M1223.6,545.7
	c1.5-7.6,2.8-13.9,4.1-20.2c-0.5-0.1-1-0.2-1.5-0.3C1223.9,531.4,1221.3,537.5,1223.6,545.7z"/>
<path d="M1248.7,225.5c0,1.1,0.2,1.7,0,2.1c-3.3,7.5-2.9,8.3,5.1,11.1c2.5,0.8,4.7,2.4,7,3.5c2.6,1.3,5.1,3,7.9,3.7
	c17.1,4,33.8,9.1,49.7,16.5c1.7,0.8,3.7,0.9,5.6,1.4c2.3,0.6,4.9,0.8,7,2c6.9,3.9,13.6,8.5,20.6,12.2c6.4,3.4,13,6.5,19.8,9
	c3.6,1.3,6.3,3.3,9.1,5.5c2.5,1.9,5.2,3.5,7.9,5.2c3.7,2.4,4.7,4.8,3.3,7.8c-1.2,2.7-4.5,4.2-8.1,3.3c-1.1-0.3-2.2-1-3.2-1.6
	c-9.3-5.7-19-10.8-27.7-17.2c-7-5.2-15.1-8.1-22.6-12c-5.8-3.1-12.9-4.1-19.6-5.3c-7.1-1.2-14.4-2.2-21.7-2.2
	c-6.2,0-12.5,1-18.6,2.4c-2.4,0.6-4.7,3.4-6,5.8c-4.9,9.2-6,9.9-15.9,7.7c-2.6-0.6-5.1-1.5-8.5-2.4c-1.4,5.6-2.7,11-4,16.3
	c-0.5,1.8-1,3.7-1.8,5.4c-0.9,2-2.6,3.7-3.1,5.7c-1.7,7.7-8.3,9.4-14.1,12.1c-1.1,0.5-2.9,0.2-4.2-0.1c-6.4-1.6-12.7-2.7-19.4-2
	c-3.9,0.4-8.4,0.8-10.9-2.8c1.1-6.1,1.8-11.7,3.2-17.2c0.6-2.3,2.3-4.4,4-7.4c-0.1-4.8-1.4-10.2,1.8-16.3c3.1-5.9,3.1-13.5,4.7-20.2
	c0.5-2,2.2-3.8,2.7-5.8c0.5-2.3,0.1-4.8,0.3-7.2c0.4-4.1,1.3-8.1,1.5-12.2c0.1-3.2,1.2-5.1,4.4-5.6c2.7-0.4,5.6-1.5,7.9-0.8
	c4.4,1.4,8.1-0.4,12.1-1c4.8-0.8,9.5-1.6,14.3-2.5C1243.3,221.2,1245.7,224.2,1248.7,225.5z M1247.4,247.9c-4.6,7.2-4.3,14.2,0.5,18
	C1256.7,256.7,1256.7,253.2,1247.4,247.9z M1212.3,234c-5.6,3.9-7.6,13.3-4.3,20.8C1209.6,247.3,1210.9,241.1,1212.3,234z
	 M1201.4,309.3c-2.2-2.5-4.1-4.8-6.4-7.5c-1.1,3.1-4.2,5.6-0.7,9.3C1196.7,310.5,1199.2,309.8,1201.4,309.3z M1201.8,270.4
	c-1.7,4.3-1.7,4.3,1.7,3.8C1202.9,272.9,1202.3,271.6,1201.8,270.4z M1213.1,289.6c-0.2,1.3-0.5,2.1-0.4,2.8c0,0.3,0.7,0.5,1,0.8
	c0.4-0.7,1-1.3,1.3-2.1C1215,290.9,1214.1,290.4,1213.1,289.6z"/>
<path d="M253.2,531.8c-0.1,1.6-0.4,2.8-0.3,4c0.1,4.8,2,6.4,6.8,6c2.6-0.2,5.3-0.9,7.9-1c4.4-0.1,6.9,1.9,7.9,5.9
	c0.9,3.8-0.4,6.2-4.3,7c-5.2,1.1-10.4,1.9-16.2,2.9c0.3,2,0.5,4,0.9,7c6.4-0.4,12.3-0.8,19.8-1.3c3.1,1.6,2.9,5.7,1.9,9.9
	c-1,4.6-5,5-8.6,5c-4,0.1-8.1-0.4-12.5-0.7c-0.5,2.7-1.1,4.8-1.2,6.9c-0.6,8.5-1.1,17-1.5,25.5c-0.2,4.1,0.2,8.2,0.3,12.3
	c0.1,2.7-0.8,4.8-3.6,5.5c-2.6,0.7-4.1-0.7-5.2-2.8c-2.8-5.3-7.2-8.8-11.9-12.4c-12.6-9.7-20.5-22.3-21.7-38.7
	c-0.5-7.4-2.2-14.7-1.8-22.4c0.3-6.1-1.8-12.4-3-19.4c-1.8-0.3-3.8-0.6-5.9-0.8c-1.9-0.2-4,0.1-5.7-0.5c-1.1-0.4-2.4-1.9-2.5-3
	c-0.1-1.1,1-2.9,2-3.4c2.2-1,4.6-1.3,7-1.9c5.7-1.6,9.3-8.7,6.9-14c-0.6-1.2-2.5-2.4-3.9-2.7c-4-0.8-8.1-1.2-12.2-1.7
	c-5-0.6-5.5-1.1-7-7.1c2.8-1.1,5.8-2.1,8.6-3.3c2.2-0.9,4-0.6,6.1,0.9c1.6,1.1,4.2,2,5.7,1.4c2.9-1.2,3.4-4.1,3.2-7.4
	c-0.4-6.5-0.4-13-0.1-19.5c0.1-2.9,0.7-5.9,2-8.4c0.8-1.6,3.2-2.5,4.9-3.7c1.2,1.6,3.3,3.2,3.4,4.9c0.3,5.3-0.2,10.7-0.2,16
	c0,5.8-0.2,11.6,0.5,17.4c0.2,1.9,2.3,4.4,4.1,5.3c7,3.4,12.8,7.9,17,14.4c2.1,3.3,5.4,3.9,8.6,4.8c1.9,0.5,3.9,0.6,5.7,1.2
	c2.6,0.9,4.9,2.3,5.1,5.5c0.2,3-1.7,4.3-4.1,5.3C254.9,530.9,254.3,531.2,253.2,531.8z M242.5,603.4c3.7-8.6,1.5-17.1,1.5-25.4
	c0-2.8-1.2-5.1-4.2-4.8c-5.6,0.5-11.2,1.6-16.8,2.4C222.9,589.5,232.1,602.6,242.5,603.4z M219.1,550.1c0.4,2.8,0.8,4.2,0.8,5.6
	c0.1,7.7,3.5,9.4,11.8,8.7c1.7-0.2,3.4-0.4,5-0.8c6.3-1.4,8-5.4,4-10.5c-1.3-1.6-4-2.7-6.2-2.9C229.8,549.8,224.9,550.1,219.1,550.1
	z M218,528.4c0.3,4.7,0.6,8.2,0.8,12.1c7.3-0.5,13.7-0.9,20.4-1.3c0-3.4,0-6.3,0-9.4C232.1,529.4,225.7,528.9,218,528.4z M219.6,511
	c-1.1,7.1-1,7.2,8.3,5.9C227,511,227,511,219.6,511z"/>
<path d="M1202.5,446.9c-2.7,0.3-4,1.6-4.8,4.4c-0.9,2.8-2.7,5.7-4.8,7.8c-1.1,1-4.5,1-5.7,0c-2-1.6-3.6-5-1.1-7
	c4-3.3,3.9-8.2,6-12.1c4-7.5,4.1-15.8,6.6-23.4c3.5-10.6,5.4-21.6,8.5-32.3c1.4-5.1,4.1-9.8,6.4-14.6c1.3-2.8,2.9-5.5,4.2-8.3
	c1.4-3,3.1-3.8,6.3-2.4c5.9,2.6,5.9,2.5,10.4-2.8c4.1-4.8,7.6-4.6,11.2,0.6c1.4,2,3,3.8,4.2,5.2c3.4-0.6,5.8-1,8.9-1.6
	c2.7,7,6.5,13.2,3.4,21.3c-2.3,6.1-3.4,12.7-5.2,18.9c-5.3,17.9-10.7,35.8-16.1,53.7c-2.1,6.9-4,13.8-5.8,20.8
	c-0.7,2.7-1.8,4.5-4.9,4.2c-3.6-0.4-5.3-2-5.4-5.6c0-0.5,0-1,0.1-1.4c3.1-10.1,3.7-20.7,6-30.9c1.6-7.5,5.6-14.4,8.3-21.7
	c2.2-5.8,4.2-11.7,6.1-17.1c-3.3-3.3-6.1-6.2-9.5-9.7c-2.7,4.8-6,9.5-8,14.7c-3.2,8.3-5.4,17.1-8.4,25.6c-2.2,6.4-5,12.6-7.5,18.9
	c-1.9,4.7-3.5,5.6-7.5,4.6c-3.7-1-4.2-1.9-3.3-7.3c0.1-0.8,0.9-1.5,1.4-2.3c3.1-9.8,6.2-19.6,9.3-29.5c0.7-2.1,1-4.2,1.8-8
	c-2,1.8-2.8,2.1-2.9,2.7c-3.2,10.1-6.4,20.2-9.3,30.3C1200.7,443.6,1202,445.4,1202.5,446.9z M1213.3,405.2c1.5-4.6,2.5-7.9,3.6-11
	c1-3,2.7-5.8,3.2-8.9c0.4-3.1,4.9-4.9,2.4-8.9C1216.2,384.5,1211.6,393,1213.3,405.2z"/>
<path d="M1399.4,315.2c5.4-1.9,10.5-4.3,15.9-5.2c3.3-0.6,7.2,0.5,10.3,2c3.7,1.8,6.7,4.8,10,7.2c2.9,2.1,5.9,4.3,9,6.2
	c9.3,5.7,18.6,11.4,27.9,16.9c6.5,3.8,12.9,7.7,19.6,11c7.4,3.7,13.6,9,20.2,13.8c9.2,6.6,19.3,11.9,29,17.8c1.2,0.7,2.6,1.4,4,1.8
	c5.1,1.4,7.1,4.9,6.6,9.9c-0.4,5.1-1,10.1-1.6,15.2c-0.3,3.1-1.1,6.2-1.1,9.2c0,3.4-1.5,5.6-4.6,6.6c-2.8,1-6.2-0.7-7.5-4.2
	c-1.2-3.2-2-6.5-2.6-9.8c-1.1-5.8-4.1-9.9-8.9-13.5c-9.4-7.3-20-12.2-30.3-17.8c-13.1-7.1-25.2-16-37.6-24.3
	c-9.2-6.1-18.1-12.8-27.5-18.6c-9-5.6-18.4-10.5-27.7-15.6C1399.7,322,1399.1,319.3,1399.4,315.2z"/>
<path d="M1785.6,848.7c-7.9-0.4-15.8,0-23.1-4.7c-3.7-2.3-8.6-2.8-13.1-3.6c-11.9-2.2-22.1-8.2-32.1-14.6c-7.3-4.6-15.2-8.5-23-12.4
	c-11.5-5.8-23.1-11.3-34.6-17.1c-4.1-2.1-4.5-3.8-3.3-8.4c2.6-9.2,7.9-12.4,17-8.9c13.3,5.2,26.3,11.1,39.4,16.7
	c6,2.6,12.1,5.1,18.1,7.6c6.9,2.9,14.3,4.9,20.8,8.6c10.2,5.8,21.2,9.6,32,13.9c3.6,1.4,7.2,2.8,10.7,4.4c4.3,2.1,7.9,9.9,6.2,14.1
	c-0.6,1.5-2.6,2.9-4.2,3.3C1792.9,848.5,1789.2,848.5,1785.6,848.7z M1724.9,814.3c5.6,5.2,10,7.4,16.7,8.3c-2.3-1.7-4-3.3-6-4.3
	C1732.4,816.8,1729,815.8,1724.9,814.3z"/>
<path d="M1496.3,814c2.4,1.3,4.2,2.3,6.4,3.4c0.3-0.9,0.7-1.5,0.7-2c0-6.7,2.6-8.7,8.9-6.8c7.6,2.4,15.2,4.9,22.8,7.4
	c6.6,2.2,13.1,4.4,19.6,6.7c2.9,1,5.4,2.8,5.2,6.2c-0.2,3.3-2.5,5.1-5.7,5.7c-1.4,0.3-3.1,0.3-4.2,1.1c-7.7,5.1-14.7,2.1-21.8-1.3
	c-1.8-0.9-4-1.5-6-1.5c-11.6,0.1-23.1,1.3-34.9,0.4c-8.5-0.7-17.4-0.2-25.6,3.9c-2.2,1.1-5.2,1.2-7.8,0.9c-10.4-1-20.7-2.4-31.1-3.5
	c-1.8-0.2-3.9,0.2-5.5,1c-6.3,3.4-6.3,3.5-13.7,0.4c2-3.5,4-6.9,6.2-10.7c8.4-3.5,17.4-1.5,26.4,0.9c0.1-0.6,0.2-1.2,0.3-1.7
	c-1.3-1-2.6-1.8-3.8-2.9c-2.5-2.5-2.2-5.3-0.5-8c1.6-2.6,4.1-3.7,6.9-2c3.4,2,6.3,2.3,9-0.9c0.4-0.5,1.4-1,1.9-0.8
	c5.3,1.5,9.2-1,13.1-4.9c7.3,5.4,15,9.2,23.9,7.6c0.9-3.5,1.3-7.1,2.7-10.2c1.5-3.4,4.9-3.4,8.7-0.8c3,2,3.3,4.1,1.1,7.2
	C1498.6,810.5,1497.6,812.1,1496.3,814z"/>
<path d="M378.7,884.8c-0.9,5.8,1.3,9.1,3.4,12.7c1.6,2.8,2.8,6.1,3.4,9.3c0.6,3.3-2.1,5.4-4.7,6.7c-2.6,1.4-5.4,0.7-7.2-1.6
	c-2.4-3-5.1-3.7-9-3.2c-1.9,0.2-5-1.5-5.8-3.2c-3.8-7.7-8.3-15.1-9.9-23.8c-0.9-5-2.3-10-4-14.8c-4.8-13.8-7.4-28-7.5-42.7
	c0-4.6-0.7-9.1-1.3-13.7c-1-7.9,4-12.2,11.4-9.6c1.6,0.6,3.1,1.3,4.7,1.9c4.4,1.7,7.3,4.7,7.7,9.7c0.2,3.4,1.4,6.9,0.6,10.1
	c-2.6,10.3,0.8,19.7,3.6,29.1c1.2,4.1,2.5,8.4,4.9,11.9c4.2,6.2,11.4,7.6,18.2,8.3c6.5,0.7,13,0.3,19.5,0.8c6,0.5,8.7,5.1,6.4,10.2
	c-1.5,3.2-6.9,5.6-10.4,4.4C395,884.8,387,886.2,378.7,884.8z"/>
<path d="M461.3,621c-7-3.2-14.3-3.5-21.6-3.7c-10.9-0.4-21.8-0.8-32.7-1.4c-6.2-0.3-8.8-3.3-8.2-8.7c0.4-3.6,2.6-5.8,6.3-5.6
	c7.3,0.4,14.5,1,21.8,1.6c2.4,0.2,4.8,0.6,7.3,0.6c18.7,0.5,37.4,0.9,56.1,1.3c5.4,0.1,10.6,0.4,15.6,2.9c3.5,1.8,4.2,4.4,3.5,7.8
	c-0.8,4-2.4,5.6-6.4,5.6c-2.9,0-5.8-0.6-8.7-0.9c-5.3-0.5-10.6-0.7-16,0.8c-0.3,2-0.7,3.7-0.7,5.3c0.1,10.2,0.1,20.4,0.4,30.6
	c0.3,7.4,2.9,10.3,9.8,12.4c11,3.4,22,7.1,33.1,10.4c3.5,1.1,5.4,3,5.4,6.7c0,3.7-1.8,6.1-5.2,7c-2.3,0.6-4.9,1.1-7.1,0.5
	c-8.8-2.3-17.9-3.9-25.4-10.1c-2.8-2.3-7.2-2.8-10.9-3.8c-10.5-2.7-14-6.6-14.2-19.4c-0.2-11.2-0.6-22.3-1-33.5
	C462.3,625.3,461.7,623.2,461.3,621z"/>
<path d="M597.6,89.4c0.5,0.7,1.4,2.1,2.3,3.6c0.5,0.8,0.5,2,1.1,2.7c6.2,7.2,6.8,15.4,5.5,24.5c-0.8,5.7,0.6,11.6,0.9,17.4
	c0.2,3,1.9,3.9,4.8,4.3c8.7,1,17.3,2.3,26,3.5c1,0.1,2,0.2,2.9,0.5c3,1,4.1,3.4,3.9,6.3c-0.2,3.1-2,5.3-5.1,5.1
	c-5-0.3-10.2-0.8-15-2.2c-5.8-1.7-11-3.3-16.4,1.3c-1.2,1-4.1,0.4-6.1-0.2c-3-0.9-5.9-2.2-8.7-3.6c-5.2-2.6-10.4-3.9-16.1-1.5
	c-1.2,0.5-2.9,0.2-4.3,0.2c-8.5-0.3-16.9-0.8-25.3-0.8c-3.3,0-6.7,1.2-10,1.8c-4.1,0.7-5.9-0.5-6.8-4.5c-1.2-5.7,1.2-10,6.9-11.8
	c5.1-1.6,10.3-3.1,15.7-0.7c0.9,0.4,1.9,0.5,2.9,0.5c9.2,0.2,18.5,0.4,27.7,0.6c0.9,0,1.9-0.4,2.5-0.5c0.4-0.5,0.7-0.7,0.7-0.8
	c-1-12.4,3.2-24.5,2.9-36.8C590.3,93.7,591.3,90.7,597.6,89.4z"/>
<path d="M706.4,249.7c-2.1-1.6-2.9-2.4-3.9-2.8c-1.1-0.4-2.4-0.3-3.6-0.7c-2.4-0.8-5.9-1.1-5.4-4.7c0.4-3.1,3.5-2.8,5.8-3.1
	c3.4-0.4,6.8-0.7,10.1-1.2c3.1-0.5,6.2-1.3,9.2-1.9c4.3-0.9,9.1,1.9,10.5,5.9c1.4,4.1-1.5,6.2-4.5,8.6c11.1,0.6,21,2.7,28.3,11.1
	c3.8,4.5,3.1,8.3-2.1,11.3c-3.9,2.2-8,3.5-12.6,2.2c-9.7-2.7-19.5-3.5-29.6-2.9c-4.2,0.3-8.9-0.7-12.7-2.5
	c-8.4-4.1-17.5-3.5-26.2-4.5c-3.6-0.4-7-0.3-10.4-1.9c-2.6-1.2-5.6-1.3-8.8-2c0-2.8,0-5.3,0-8.2c-2.3-0.4-4.3-0.7-6.3-1
	c0.2-5.8,0.6-6.6,4.6-6.2c6.5,0.6,13.5,0.5,19.3,3c8.8,3.7,17.6,3.1,26.5,2.7C698,250.7,701.3,250.2,706.4,249.7z"/>
<path d="M1307.2,850.2c-0.5-4.2-0.8-6.8-1-9.5c-4.1-2.4-8.2-2.3-12-0.4c-7.3,3.7-15.1,2.9-22.1,1c-7-1.8-13.2-6.4-19.7-9.8
	c1.4-6.5,6.4-4.5,10.9-5.3c-0.3-2.6-0.7-5.1-1-7.3c-2.2-1.3-4.2-2.3-5.9-3.7c-2.6-2.1-2.7-5.3-0.7-7.8c2-2.5,5-2.3,6.5,0.6
	c0.7,1.3,1,2.7,1.4,4.1c0.3,1.2,0.5,2.4,0.9,4.2c2.5,0.5,5.3,1.3,8.1,1.6c3.3,0.3,4.1,2.3,3.5,5c-0.6,2.8-1.4,5.5-2.6,9.6
	c2.3-1.3,3.4-1.9,4.5-2.5c1.1-0.6,2.4-1.9,3.1-1.6c6.1,2.8,9.8-2.2,14.4-4.3c4.4-2,5.6-2,9.7,1.5c2.9,2.5,5.4,5.5,9.8,5.8
	c1.5,0.1,3.4,2.2,4,3.8c1.6,4.5,4.4,5.2,8.5,4c1.1-0.3,2.3-0.1,4-0.1c-0.5-3.6,1.4-7.2-2.8-9.3c-0.7-0.3-1.1-3.1-0.5-3.8
	c2.4-3.2,4.8-6.5,9.6-6.7c7.1-0.2,14,1.3,20,5.1c7-2.9,9.8-2.3,12.6,3.3c7.3-0.4,8.6,0.4,9.7,5.4c0.8,3.5-0.7,5.9-3.5,7.2
	c-10.3,4.4-20.2,5-29-3.4c-0.5-0.5-1.2-0.7-2.1-1.2c-0.4,0.7-1.1,1.4-1,1.7c2.1,5-1.3,7.8-4.8,9c-5,1.7-10.1,3.8-15.6,3.4
	C1318.5,850,1313.1,850.2,1307.2,850.2z"/>
<path d="M518.3,145.1c-11.6,4.2-21.8,0-32.2-2c-1.7-0.3-3.8-1.6-4.7-3c-4.7-7.7-12-12.2-19.1-17c-0.8-0.5-1.4-1.3-2.2-1.9
	c-2.2-1.7-1.9-3.9-0.8-5.9c1.3-2.3,3.8-2.6,5.7-1.1c4.9,3.9,9.9,7.8,14,12.4c2.1,2.4,4,3.7,6.9,4.6c3.9,1.2,7.6,3,11.4,4.2
	c2.5,0.8,5.2,1.5,7.8,1.3c3.5-0.2,4.7-3,4.7-6.3c0-10.5-0.1-20.9-0.1-31.3c0-1.2,0-2.4,0-3.6c-0.1-6.5-0.2-13.1-0.2-19.6
	c0-4.6,0.5-9.2,0.6-13.8c0.1-3.6,0.1-7.2,0.2-10.9c0.2-3.8,0.4-7.7,0.7-11.5c0.2-3.1,2.3-4.7,5-5.7c3.7-1.4,5.5-0.7,6.8,3
	c0.6,1.6,0.8,3.3,1.1,5c2.2,13.3,1.4,26.6,0.3,40c-0.9,10.9-0.3,21.8-0.4,32.8c0,6.8,0.4,13.7-0.4,20.3
	C522.8,138.5,520,141.8,518.3,145.1z"/>
<path d="M150.7,800.2c2.5-0.4,5.3-1.7,7.6-1c6.8,1.9,12.7-1.4,19-2.3c6.6-0.9,11-6,17.5-7c1.8-0.3,3.6-1.4,5.8-1.4
	c2.5,0,4.5-1.1,6.8-3.1c4-3.6,9.4-5.6,14.3-8.1c0.7-0.4,2.1,0.6,3.7,1c0.3-2.2,0.5-4.1,0.5-4.4c4-4.6,7.2-8.3,10.5-12
	c3.5-3.9,7-7.7,10.5-11.5c1.1-1.2,2.5-2.3,3.7-3.4c2.8-2.6,4.5-5.8,8.7-7.5c3.1-1.3,5.5-5.6,9.7-6.8c1-0.3,2.3-1.3,2.6-2.3
	c1.4-4.5,5.2-5.8,9-6.6c10.2-2.1,20.4-4.3,30.7-5.5c6.9-0.8,14-0.3,21,0.1c4.5,0.2,6.5,2.2,7,5.9c0.7,5-2,8.1-7,7.6
	c-4.6-0.4-9.1-1.6-13.6-2.2c-2.8-0.4-5.7-0.5-8.6-0.2c-6,0.5-12.1,1-18,2.3c-4.4,1-8.7,2.9-12.7,4.9c-11.1,5.7-19.5,14.8-28.4,23.2
	c-4.8,4.6-8.6,10.3-13.2,15.2c-2.4,2.6-5.7,4.4-8.2,7c-5.9,6.1-14.1,8.2-20.9,12.7c-0.2,0.1-0.5,0.3-0.6,0.3
	c-9-1.2-14.1,6.9-21.7,8.9c-8.6,2.3-17.3,5-26.3,3.3c-3.4-0.6-6.4-3.3-9.6-5C150.5,801.5,150.6,800.8,150.7,800.2z"/>
<path d="M361.2,600.9c7.9,0,15.1,0,22.4,0c0.7,0,1.5,0,2.2,0.1c4.8,0.6,7.5,2.8,7.8,6.2c0.3,3.8-3.6,8.9-7.6,9.3
	c-7.1,0.9-14.3,1.4-22.3,2.1c0.4,4.6,0.6,9.6,1.4,14.6c1.1,7.5-1.8,10.7-10.3,11.6c-3.9,0.4-5.4-1-5.6-4.9
	c-0.4-8.4-0.4-16.9-0.9-25.3c-0.6-9.2-1.6-18.3-2.3-27.5c-0.3-4.3,0-8.7-0.3-13c-0.5-7.9-1.1-15.9-1.7-23.8
	c-0.5-6.7,3.3-10.9,9.7-10.8c2.9,0,4.7,1.1,5.2,3.9c1.4,8.6,2.6,17.2,0.5,26c-0.7,3-1.2,6.3-0.9,9.3
	C358.9,586,360.1,593.1,361.2,600.9z"/>
<path d="M541.2,866c-1.2,4.1-7.9,1.1-11,7c-2.2-12.9-11.1-10.1-17.6-10.3c-6.9-0.2-13.8,1.3-20.5,4.1c-9.6,3.9-19.9,6.2-29.9,9.2
	c-6.9,2.1-13.8,4.2-20.8,6.2c-5.4,1.5-10.6,0.9-15.7-2.1c0.3-6.9,5.8-10.1,10.5-12.7c11.9-6.4,24.7-11.7,38.1-13.1
	c6.6-0.7,12.4-4,19.2-3.8c9.9,0.3,19.8-0.6,29.7-1c1.8-0.1,3.8-0.2,5.5-0.8c6.5-2.6,8.4-1.3,9.3,5.9
	C538.5,858,539.8,861.2,541.2,866z"/>
<path d="M838.1,597.7c-0.7,5.6-3.7,6.2-8.1,7.1c-5.2,1.1-9.1,1.2-13.5-1.8c-2.4-1.6-6-1.7-9.1-2.2c-6.4-1.1-11.1-4.6-14.3-10.2
	c-4.1-7.2-1.2-14.2,6.9-16.1c5.2-1.2,10.5-2.1,15.7-2.3c13.3-0.5,18.8,5.9,16.5,19.4c2.1-2.3,3.8-4.4,5.7-6.2
	c4.6-4.5,5.8-4.3,9.7,0.7c0.7,0.9,1.4,2,2.6,3.8c0-3.6-0.4-6.4,0.1-9.1c0.9-4.9,4.9-6.4,8.4-2.8c3.2,3.2,5.7,7.2,8.5,10.9
	c1.1,1.5,1.7,3.4,2.9,4.8c1.7,2.1,2.8,4.5,0.8,6.5c-1.5,1.5-4.6,3.2-6.2,2.6C856.1,599.5,846.7,602.9,838.1,597.7z M803.5,586.8
	c4.5,1.4,8.3,2.6,12.2,3.7c2.7,0.8,4.2-1.2,4.8-3.2c0.4-1.3,0-4-0.8-4.3c-2.3-1-5-1.7-7.5-1.3C809.3,582,805.3,581.3,803.5,586.8z"
	/>
<path d="M364.3,719.7c4.7,1.7,10,2.4,13.5,5.2c11.9,9.7,25.3,10.5,39.3,7.9c10.5-2,20.7-5.2,31-7.8c0.9-0.2,1.9-0.8,2.8-0.7
	c8.4,0.7,16.8,1.6,25.3,2.4c2.1,0.2,4.3,0.2,6.4,0.3c6.8,0.1,13.5,0.1,20.3,0.2c1,0,2,0.2,2.8,0.6c3,1.4,4.4,3.8,4,7.1
	c-0.3,2.8-3.3,4.7-6.6,4.3c-2.4-0.3-4.7-1.3-7.1-1.5c-11.6-1-23.3-1-34.7-3.1c-6.9-1.3-12.6,1-18.7,2.2c-10.2,2.1-20.3,4.7-30.5,6.9
	c-2.5,0.5-5.2,0.2-7.9,0.1c-0.9,0-1.9-0.9-2.8-0.8c-10.4,1.6-18.6-2.9-26.6-8.7c-3.3-2.4-7.1-4.1-10.8-6c-0.4-0.2-1-0.2-1.4-0.3
	c-2.5-0.9-4.7-2.6-4-5.2C359.2,721.4,362.1,720.8,364.3,719.7z"/>
<path d="M1348.8,538.1c1.6-4.5,3-9.2,5-13.5c2.7-5.9,2.8-5.8,9.8-5.2c0.8-0.9,1.7-2,2.6-3.1c0.8-0.9,1.6-1.8,2.5-2.7
	c5.6,0.4,8.5,3.7,9.5,8.6c0.8,3.8,1.3,7.7,1.4,11.6c0,2.3-0.5,5.3-2,6.6c-3.8,3.3-3.7,7.7-4.6,11.8c-1.4,5.9-2.6,11.8-4.3,17.6
	c-1.2,3.9-3.8,5.2-7.1,4.3c-3.3-0.8-4.4-3.2-3.5-7.5c0.4-1.8,0.8-3.6,0.3-5.6c-1.7,3.5-3.5,6.9-4.9,10.4c-1.2,3.2-3.3,3.8-6.3,3.3
	c-3.2-0.6-4.6-2.7-4.3-5.7c0.2-2.4,0.8-4.8,1.2-7.2c0.8-5,1.4-10,2.1-15.1l-0.2,0.2c1-3,2-6.1,3-9.1
	C1348.9,537.8,1348.8,538.1,1348.8,538.1z"/>
<path d="M1376.3,661.3c5.4,1.2,10.9,2.1,16.3,3.5c2.5,0.6,4.8,2.2,7.2,3.1c2.2,0.8,4.4,1.6,6.7,1.7c4.9,0.3,6.7,2.5,5.7,7.5
	c-0.1,0.5-0.3,0.9-0.4,1.4c-2.4,8.9-4,17.9-1.6,27.2c0.3,1.1,0.1,2.4,0.1,3.6c0.1,4.2-1.1,7.7-5.2,9.6c-4.2,1.9-6.8-0.9-9.6-3.2
	c-5.9-4.9-11.9-9.8-17.9-14.7c-5.9-4.8-8.9-10.4-6.3-18.4c1.2-3.8,0.9-8.1,1-12.2C1372.4,667.1,1372.7,664.1,1376.3,661.3z
	 M1383.1,674.2c-0.3,1.4-1,3.1-0.8,4.7c0.4,4.1-5.3,7.4-1.8,11.5c2.7,3.1,6.2,5.4,9.4,7.9c2.4,1.8,4.9,3.5,7.7,5.4
	c0-8.7,0-16.5,0-24.4C1387.1,673.3,1388.1,672.9,1383.1,674.2z"/>
<path d="M898,649.5c1.7,1.3,3.2,2.5,4.7,3.6c4.6,3.4,7.8,7.8,9.7,13.2c2.5,7.3-0.4,11.3-8.1,11.1c-1.9-0.1-4.2-0.3-5.5,0.7
	c-4.8,3.4-8.5,1.1-11.5-2.2c-2.2-2.4-4.2-3.1-7.5-3c-5.7,0.2-13.9-7.8-14.2-13.5c-0.1-2.1,0.8-4.7,2-6.5
	c5.1-7.7,13.5-10.6,21.3-14.1c2-0.9,4-2,6.1-2.1c2.2-0.2,5.3,0,6.5,1.3c1.1,1.3,0.7,4.5,0.2,6.6C901.1,646.3,899.4,647.7,898,649.5z
	"/>
<path d="M732,628.6c5.5-0.5,11-0.9,16.5-1.6c4.4-0.6,7.8,0.7,9,4c1.1,3.2-1.1,8.1-4.7,9.7c-1.5,0.7-3.2,1.1-4.9,1.1
	c-3.4,0.1-6.8-0.2-10.2-0.4c-6-0.4-12.1-1.1-18.1-1.1c-8.4-0.1-11.6-2.7-13.4-10.8c-3.6-16,2.5-16.1,13.2-18
	c1.2-0.2,2.4-0.5,3.6-0.4c8.1,0.2,16.2,0.9,24.4-1.3c5.4-1.4,9.2,1.5,9.9,5c1.2,6.2-2.9,10.5-9.2,9.6c-6.9-1-13.8-2.3-20.7-3.1
	c-2.4-0.3-4.8,0.2-7.2,0.6c-2.2,0.3-4.5,0.8-4.2,3.9c0.3,2.8,2.5,2.5,4.5,2.6c3.9,0.1,7.8,0,11.7,0
	C731.9,628.4,731.9,628.5,732,628.6z"/>
<path d="M1188.9,848.1c12.3-7.1,12.9-4.8,15.8,2.5c3.9,0.2,6.9-1.3,10.3-3.8c5.3-4,10.1-9.3,17.6-9.1c1.4,0,2.9-0.1,4.3,0.3
	c3.7,1,7.5,5,6.7,7.6c-1.1,3.6-4.2,4.5-7.8,5.1c-3.7,0.6-7.1,2.6-10.7,3.5c-5.1,1.2-9.9,2.4-13.8,6.6c-1.4,1.6-4.8,1.9-7.3,1.8
	c-6-0.3-12.1-0.7-17.9-2c-3.9-0.8-7.9-2.6-10.9-5.2c-2.7-2.3-4.9-4.3-8.6-4.5c-2.9-0.2-6-1-6.3-4.8c-0.2-2.7,3.2-6.5,6.6-6.7
	c5.2-0.4,10.6-0.4,15.8,0c1.5,0.1,3.2,2.1,4.3,3.6C1187.9,844.2,1188.1,846,1188.9,848.1z"/>
<path d="M1331.7,659.6c-0.7,6-1.1,12-2,18c-0.9,5.6-5.6,7.6-10.9,5.3c-4.2-1.8-8.7-2.8-12.7-5c-2.3-1.2-4.4-3.8-5.2-6.3
	c-1-3.1-0.6-6.7-0.8-10.1c-0.2-5.8-0.1-11.6-0.5-17.3c-0.3-5.2,2.4-7.8,6.9-5.5c7.2,3.8,14.2,8.1,21.2,12.3
	C1330.9,652.9,1332.3,655.9,1331.7,659.6z M1311.3,654.3c-3.9,11.3-3.6,12.2,6.2,16.1C1321.1,660,1320.7,659,1311.3,654.3z"/>
<path d="M1250.3,775.2c0,0.6,0.3,2.4-0.1,4c-0.4,1.6-1.3,3.9-2.4,4.2c-8.4,1.8-16.5,8.7-25.4,2.2c-3.4-2.5-6.8-5.6-9.2-9
	c-3.3-4.8-0.1-13.3,5.2-15.8c2.2-1,4.3-2.5,6.6-2.9c1.9-0.4,4.2,0.3,6.1,0.9c1.3,0.4,2.2,2,3.4,2.4c5.9,1.9,11.8,4.9,17.5-0.7
	c1-1,2.4-1.8,3.8-2.1c1.7-0.4,4.3-0.8,5,0c0.9,1.2,1.2,4.1,0.3,5.2C1258.3,767.3,1254.7,770.6,1250.3,775.2z M1231.6,777.6
	c1.7-6.5-2.8-8.3-6.6-11c-2.4,1.8-4.1,3.6-2.7,6.7C1224.1,777.1,1227.3,778,1231.6,777.6z"/>
<path d="M665.1,138.7c0.2-3.3,0.5-7.4,0.6-11.5c0.1-1.7,0.2-3.6-0.5-5c-5.4-11.3,3.1-17.1,8.8-24.9c4.4,4.4,6.2,9.4,6.5,14.1
	c0.7,9.9,0.2,19.8,0.2,29.7c0,1.2-0.1,2.4-0.4,3.6c-1.7,8-4.9,10.6-13.1,10.4c-2.7,0-5.3-0.1-8-0.5c-5.2-0.8-6.9-5-3.3-8.8
	C658.5,143.1,661.8,141.2,665.1,138.7z"/>
<path d="M426.7,23.9c-5.2,1.3-10.3,2.9-15.5,4c-1.7,0.3-3.6-0.5-6.5-1c-0.6,0.7-2.1,2.2-4.3,4.5c-0.9-2.6-1.4-4.3-2.1-6.4
	c-1.3,0.8-2.9,2.4-3.6,2.1c-5.3-2.2-9.3,1.8-13.9,2.5c-1.9,0.3-3.9-0.2-5.8-0.4c-1.4-0.1-3.2-0.9-4.2-0.3c-7.3,4.2-13.5,1.3-19.9-3
	c-6.7,5.8-14.1,4.9-22,1.9c2.1-4.7,5.2-7.1,9.9-6.2c8.7,1.7,17.4,0.3,26.1,0.2c0.9,0,1.9,0.3,2.7,0.4c0.3,1.3,0.6,2.4,0.9,3.5
	c0.8-0.2,1.4-0.2,1.6-0.4c1-1.3,1.7-3.6,2.9-3.9c2.7-0.6,5.6-0.4,8.4-0.2c6,0.6,11.9,1.4,17.9,2.1c0.9,0.1,2-0.1,2.8-0.6
	c6-3.5,12.2-2.4,18.4-0.8c0.5,0.1,1,0.3,1.4,0.2c11-1.6,22.1,1.3,33-0.7c1.4-0.3,2.9-0.5,4.3-0.4c3.8,0.2,6.4,2.2,6.5,4.7
	c0.1,3.1-3,6.4-6.4,6.7c-2.9,0.2-5.8,0.8-8.7,0.4c-2.2-0.3-5-1-6.2-2.6C439.9,23.8,433.4,23.5,426.7,23.9
	C426.6,23.9,426.7,23.9,426.7,23.9z"/>
<path d="M327.5,770.8c1.5,1.7,3.2,3.4,4.7,5.3c2.6,3.2,2.1,6-1.8,7.3c-2.4,0.8-5.2,0.6-7.8,0.4c-7.9-0.5-15.9-1.3-23.8-1.8
	c-5.9-0.3-11.6,1-16.8,4c-0.4,0.2-0.8,0.6-1.2,0.8c-4.5,2.2-8,1.8-9.7-1.2c-1.9-3.4-0.2-7.6,3.5-10.5c4.7-3.7,10.1-4.4,15.6-5.1
	c9.8-1.2,19.6-2.9,29.4,0.7C321.6,771.5,324.2,770.8,327.5,770.8z"/>
<path d="M1059.9,786.4c8-2.3,13.5,1.2,17.1,8.3c8.6-2.2,14.1,5.2,22.7,5c-1.8,3.6-2.4,5.4-3.4,6.9c-2.7,4.2-7,4.9-11.2,2.2
	c-2.2-1.4-4.6-2.4-6.9-3.8c-2.4-1.5-4.4-1.3-7.3-0.5c-3.9,1.1-8.5,1.4-12.4-1.7c-2-1.6-4.7-2.4-7.2-3.2c-6.3-2.1-8.5-5.2-6.4-11.3
	c1-3,3.6-5.7,6.1-7.8c2.1-1.8,4.8-0.8,6.5,1.2C1058.5,782.9,1059,784.6,1059.9,786.4z"/>
<path d="M214.9,23.5c-0.5-1-1.6-2.8-2.6-4.6c4.2-3.4,4.2-3.4,7.4,1.1c1.1-0.7,2.5-2.3,3.4-2.1c8,2.4,15.7-1.8,23.5-1.2
	c2,0.1,3.9,1.5,6.6,2.5c-0.1,0,1-1,2-1c16.6,0.1,33.1,0,49.7,0.6c7.8,0.3,15.5,2.3,24,3.6c-3.5,5.5-8,7.7-12.7,5.8
	c-5.2-2-10.5-0.9-15.4-2.1c-7.4-1.7-14.4,0.7-21.5-0.2c-2.4-0.3-4.9-0.6-7-1.7c-4.2-2.2-8.3-1.3-12.5-0.7c-3.8,0.5-8.1,3.1-11.6-1.2
	c-0.3-0.4-2,0.3-3.1,0.5c-3.5,0.7-7.3,1-10.6,2.3c-3.5,1.5-6.6-2-10.3,0.4C222.5,26.7,218.6,24.4,214.9,23.5z"/>
<path d="M863.6,642.5c-1.9-0.3-4.5-0.8-7.1-1c-2.4-0.2-4.8-0.1-7.2,0c-0.5,0-0.9,0.2-1.4,0.3c-4.3,1.1-6.9-1-8.7-4.7
	c-2.3-4.8-7.5-9-3.4-15.2c2.4-3.6,6.3-2.7,9.2-1.8c2.5,0.8,4.5,0.5,6.9,0.4c5-0.2,10.1,0,15,0.9c2,0.4,3.8,2.8,5.3,4.6
	c1.2,1.4,1.8,3.4,2.7,5.1c3,6,1.6,9.2-4.8,10.6C868.2,642.2,866.3,642.2,863.6,642.5z"/>
<path d="M1157.4,834.4c0-4.9-0.2-9.2,0.1-13.4c0.2-3.1-1.2-5.1-3.9-6.3c-3.3-1.5-5-3.9-3.7-7.6c1.1-3,3.8-3.8,8.6-3.1
	c3.3,0.5,7.2-0.3,9.8,1.3c2.2,1.3,2.8,5.2,4.3,7.9c1.6,2.6,3.4,5.1,5.7,8.3c-0.5-0.2-0.1,0,0.4,0.2c3,0.9,6.6,1.2,6.4,5.6
	c-0.1,2.8-4.7,7.1-8.1,7.2C1170.5,834.5,1164,834.4,1157.4,834.4z"/>
<path d="M1010.5,755.9c1.3,0.9,2.5,2,3.9,2.8c1.3,0.8,3.1,2.1,4.3,1.7c4.7-1.4,6.9,1.4,8.5,4.8c2.1,4.4,4.3,8.3,9.5,10.1
	c1.7,0.6,3.1,3.7,3.4,5.8c0.4,2.6-2.8,4.3-5.6,4c-3.8-0.4-7.6-0.8-11.4-1c-5.7-0.3-11.2-0.9-14-7.1c-0.6-1.3-2.2-2.5-3.6-3.1
	c-6.6-2.8-7.4-6.8-2.2-11.7C1005.3,760.4,1007.5,758.5,1010.5,755.9z"/>
<path d="M885.2,483.3c-3.2-4.9-2.7-9.5-0.1-14.3c0.8-1.6,1.3-3.4,1.5-5.2c0.5-4.7,3-7.5,7.7-8.1c5.5-0.8,10.1,1.2,11.6,5.3
	c0.8,2.3,1.2,4.7,1.8,7c0.4,0.4,0.8,0.8,1.2,1c6.3,2.7,7.3,6.1,2.6,10.6c-3.5,3.4-8,5.2-13.1,4.9
	C894.2,484.1,890.1,483.7,885.2,483.3z"/>
<path d="M22.5,0c4.8,1.2,8.6,2.3,12.5,3.2C42.2,4.6,49.3,6,56.5,7.4c0.9,0.2,2.2,0.8,2.8,0.4C65.2,3.9,71,7,76.9,7.8
	c1.4,0.2,3,0.9,4.3,0.5c7.3-2.4,13.7,1.5,20.4,2.4c-0.1,6.1,0,5.9-4.6,5.3c-4.2-0.5-8.5-0.6-12.7-0.8c-6-0.3-12-0.5-18-0.8
	c-3.1-0.1-5.8-0.7-9.1,0.6c-2.7,1.1-6.6-0.6-9.9-1.2c-5-0.9-10-2.1-15-2.8C25.6,10.2,24.4,9.1,22.5,0z"/>
<path d="M712,85.1c-0.3-9.5,5.9-13.5,14.4-10.2c2.8,1.1,5.9,1.7,8.6,3.1c1.8,0.9,3.2,2.7,4.5,4.4c1,1.3,1.3,3.1,2.2,4.5
	c1.5,2.3,1.9,4.9-0.1,6.6c-1.7,1.4-4.3,2.4-6.4,2.1c-3.7-0.5-7-0.6-10.6,0.5c-6.1,2-11.7-1.9-12.5-8.2C711.8,86.8,712,85.6,712,85.1
	z"/>
<path d="M1078.5,768.3c3.3-0.2,6.6-0.4,9.9-0.5c5.3-0.2,9.8,3.3,10.4,8.1c0.8,5.9-3.2,11.8-8.4,12.6c-0.9,0.2-2.3,0.4-2.8-0.1
	c-3.8-3.6-8.6-2.3-12.9-2.9c-3.2-0.5-7.1-0.3-8-4.7c-0.8-4.1,1.4-9.3,5-11.2c2.1-1.1,4.5-1.5,6.7-2.2
	C1078.4,767.7,1078.4,768,1078.5,768.3z"/>
<path d="M693,82.5c-0.2,1.7-0.1,3.4-0.5,5c-1,4.5-6.2,7.5-10.6,6.1c-5.7-1.8-9.4-5.9-11.8-11c-2.2-4.5,0.8-12.1,5.1-14.7
	c2.7-1.6,10.7,0.1,13.4,2.8C692,74,693.4,77.9,693,82.5z"/>
<path d="M555.1,730.1c6-2.9,7.4-4.9,12.9,1.8c1.5-1.2,2.8-2.5,4.5-3.4c4.4-2.7,9.2-1.9,12.5,1.8c2.8,3.1,1.5,7.3-2.7,8.3
	c-4.7,1.1-9.1,0-13.1-2.6c-4.9,4.2-9.8,5.7-15.4,0.4c-3.7,5-8.4,3.1-13,1.7c-2.9-0.9-5.3-2.6-4.4-6.3c0.8-3.3,5-6.4,8.1-5.8
	c1.9,0.3,3.7,1,5.5,1.8C551.7,728.3,553.3,729.2,555.1,730.1z"/>
<path d="M1042.6,542.2c6.1,0.4,12.7,3.1,13.7,10.9c0.7,5.9-2.2,9.6-8.1,9.2c-4.6-0.3-9.2-1-13.7-2c-5.3-1.2-8.1-5.2-7.4-9.9
	c0.7-5.1,3.6-7.4,9.5-7.6C1038.4,542.7,1040.3,542.4,1042.6,542.2z"/>
<path d="M105.4,15.6c-0.9-2.8,0.3-4.5,2.8-5.1c1.6-0.4,3.4-0.5,5.1-0.2c6.4,0.9,12.7,2,19,3c0.5,0.1,0.9,0.2,1.4,0.2
	c8.1,0.3,16.3,0.7,24.4,0.8c5.3,0.1,6.2,1.3,4.3,7.8c-1.6-0.3-3.3-0.3-4.7-1.1c-2.3-1.4-4-1.9-6.6-0.2c-2.1,1.4-5.2,1.9-6.6-1.8
	c-0.1-0.3-1.3-0.7-1.5-0.5c-4.4,4.1-8.8-0.8-13.3,0.1c-4.7,0.9-9.7,1.1-14.5,0.6C111.9,18.8,108.6,16.9,105.4,15.6z"/>
<path d="M1096.6,814.7c0.1-7.9,3-9.3,10.2-8c4.4,0.8,8.6,2.9,12.8,4.6c3.3,1.3,4.9,3.9,4.7,7.4c-0.1,2.6-4.3,7.3-7.1,7.4
	c-2.6,0.2-5.7,0.2-7.7-1.1C1105,822.1,1101,818.3,1096.6,814.7z"/>
<path d="M1122.5,807.6c-5.6,0.1-14.3-5.8-15.8-9.8c-1-2.7,0.7-6.1,3.5-6.9c6.8-1.9,13.2-0.7,19.2,2.8c3.5,2.1,4.8,9,0.4,10.9
	C1127,805.9,1124.1,806.9,1122.5,807.6z"/>
<path d="M1150.4,824.4c3.8,5.2,1.9,10.3,1.5,15.3c-0.1,1-1.1,2.1-2,2.8c-3.1,2.6-15,0.9-17.2-2.4c-2.8-4.1,0.8-13.1,6-14.3
	C1142.4,825.1,1146.3,824.9,1150.4,824.4z"/>
<path d="M741.3,78.2c7.7-4.8,16.5-2.9,21,4.9c2.2,3.9,1.4,8.8-2,11c-3.6,2.4-9.9,1.4-12.3-2c-0.5-0.8-0.9-1.7-1.3-2.5
	C744.9,85.8,743.1,82,741.3,78.2z"/>
<path d="M899.9,593.2c0,2.1,0,4.3,0,6.5c-7.1,3.9-13.7,1.4-19.9-0.9c-2-0.7-3-4.6-3.8-7.3c-0.3-1,1.3-3.4,2.5-3.7
	c3.2-1,6.6-1.6,10-1.7c1.3,0,3.4,1.4,3.7,2.6c1.2,4.2,3.9,5.2,7.7,4.7C900.1,593.5,899.9,593.2,899.9,593.2z"/>
<path d="M210.6,23.5c-15.1,0-29.6,0-44.4,0c-2.1-6-0.5-8.3,5.7-7.5c4.5,0.6,8.9,1.6,13.4,2.3c0.9,0.2,2,0.3,2.9,0
	c6-2.2,12,0.6,17.9,0.4C209.2,18.7,210.7,20.1,210.6,23.5z"/>
<path d="M1051.3,769.3c-0.8-8.6,1.4-10.6,10.8-9.7c2,0.2,3.1,0.4,4.9-1.1c2.3-1.8,5.5-2.8,8.5-3.3c1.3-0.2,3.7,1.5,4.1,2.8
	c0.5,1.4-0.5,3.6-1.3,5.1c-0.5,0.8-2.1,1.3-3.2,1.3c-5.7,0.2-10.8,1.4-15.6,4.7C1057.5,770.4,1054,769.3,1051.3,769.3z"/>
<path d="M1160.2,721.1c1.4-1.5,3.4-2.5,5.9-0.6c4,3.1,8.4,4.3,13.4,3.2c0.6-0.1,1.4,0.4,2.3,0.7c0.3,1.1,0.8,2.2,1,3.3
	c0.5,3,0.3,6.5-2.8,7.5c-2.7,0.8-6.6,0.9-8.9-0.5C1166.3,731.6,1160.1,729.5,1160.2,721.1z"/>
<path d="M1005.2,527c8.1-6.1,16.4-6.9,25-6.7c2.8,0.1,4.7,1.2,4.6,4.4c-0.1,2.9-1.3,4.2-4.4,4.4c-5.6,0.3-11.2,1.4-16.8,1.4
	C1011,530.4,1008.5,528.4,1005.2,527z"/>
<path d="M1195.7,723.6c3.3,0,6.9,4.7,6.8,9.1c0,3.5-3.5,7.4-6.6,7.5c-4.2,0.2-9.4-5.6-9.3-10.3
	C1186.7,726.3,1190.6,723.6,1195.7,723.6z"/>
<path d="M530.8,738.1c-4.7,2.1-7.4,7.1-12.4,2.9c-2.4-2-3.1-6.5-1.7-10c1.3-3.2,4.5-4.9,8.2-4.4C532.1,727.8,528.2,734,530.8,738.1z
	"/>
<path d="M1264.2,785.5c3-0.2,5.9,0.8,6.4,3.7c0.4,2.3-0.6,5.2-1.8,7.3c-1.6,2.8-4.9,3.9-7.6,2.5c-2.6-1.4-5-3.9-6.5-6.5
	c-1.5-2.5,0.9-4.7,3.1-5.7C1259.7,785.9,1262,785.9,1264.2,785.5z"/>
<path d="M1195.8,797.4c-1.2-0.4-3.3-0.6-4.7-1.7c-1.2-1.1-2.5-3.4-2.1-4.8c0.4-1.7,2.3-4,3.9-4.3c3.5-0.6,7.4-0.7,10.8,0.3
	c2,0.6,4.3,3.3,4.8,5.5c0.7,3-2.2,3.8-4.8,4.1C1201.4,796.8,1199,797.1,1195.8,797.4z"/>
<path d="M1475.4,807.6c-4.1-0.4-6.1-2.9-5.6-6.8c0.5-3.4,3.5-5.8,6.6-5.2c3.5,0.6,6.5,3.8,6.4,6.9
	C1482.7,805.6,1479.2,808,1475.4,807.6z"/>
<path d="M1148.5,788.3c4.2,4.1,1.7,7.9,1,11.7c-0.9,0.4-1.5,1-2.2,1c-2.7,0.1-5.9,1.9-7.5-2c-1.1-2.8,1-7.3,4.3-8.9
	C1145.4,789.4,1146.8,788.9,1148.5,788.3z"/>
<path d="M1155.3,760.7c-0.9,6.9-2.9,8.9-7.7,8.8c-3.4,0-4.8-2-5.3-4.9c-0.4-2.4,2.9-5.8,5.4-5.6
	C1150.3,759.3,1152.8,760.1,1155.3,760.7z"/>
<path d="M1237.3,796.8c-1.1,2.4-1.8,4.5-3,6.1c-1.9,2.3-4.8,2.5-7.2,1.3c-1.4-0.7-2.7-2.7-2.9-4.2c-0.2-2.9,1.9-4.8,4.6-5.7
	C1231.1,793.6,1233.1,794.1,1237.3,796.8z"/>
<path d="M1480.1,593.5c1,0,2-0.3,2.8,0.1c1.2,0.5,3.2,1.5,3.2,2.2c0,1.7-0.6,4.4-1.8,4.9c-1.9,0.9-4.5,0.6-6.7,0.4
	c-2.2-0.3-4.5-1.2-4.2-4c0.3-2.9,2.5-3.8,5.3-3.5c0.5,0.1,1,0.1,1.4,0.1C1480.1,593.6,1480.1,593.6,1480.1,593.5z"/>
<path d="M1251.4,802.9c-3.1,1.9-4.8,3.6-6.7,4c-3.4,0.6-5.7-1.7-5.6-4.8c0.1-3.9,2.2-6.8,4.7-5.8
	C1246.2,797.4,1248.1,800,1251.4,802.9z"/>
<path d="M742.7,67.7c-3.2,0.9-4.8,1.8-6.4,1.6c-0.6-0.1-1-2.5-1.9-5.4C737.7,65.4,739.4,66.2,742.7,67.7z"/>
<path d="M433.1,26.8c1.3,0.7,2.6,1.3,4.6,2.4c-3.1,1.6-4.5,1-5.5-0.8C432.5,27.8,432.8,27.3,433.1,26.8z"/>
<path d="M746.7,70.5c-0.8-0.9-1.7-1.4-1.8-2.1c-0.1-0.5,0.9-1.2,1.4-1.7c0.6,0.6,1.3,1.2,1.6,1.9C748,68.9,747.3,69.6,746.7,70.5z"
	/>
<path d="M426.6,23.9c-1.4,1.5-0.2,5-5.2,4.8C423.7,26.6,425.2,25.3,426.6,23.9C426.7,23.9,426.6,23.9,426.6,23.9z"/>
<path d="M681.9,738c4.7,1.7,8.7,2.4,11.7,4.5c5.1,3.5,4.3,10-1.6,10.9c-8.6,1.4-8.5,7-8.7,13.1c-0.1,1.7,0,3.4-0.4,5.1
	c-0.8,3.3-3.9,5.4-7.1,4.9c-3.3-0.5-5.3-2.5-5.3-5.9c0-2.9,0.3-5.8,0.2-8.7c-0.1-2.6-0.5-5.1-0.7-7.5c-4.8-0.6-8.9-0.8-12.9-1.7
	c-2.3-0.5-5.4-1.6-4.7-4.5c0.5-2,2.5-4.3,4.5-5.1c2.6-1.1,5.7-1,8.6-1.2c3.1-0.2,4.8-1.4,5.1-4.8c0.2-2.5,1.2-5.3,2.7-7.3
	c2-2.9,5.6-2.2,6.8,1.2C681,733.3,681.4,736,681.9,738z"/>
<path d="M655.3,786.1c8.6,1.1,17.2,2.3,25.8,3.4c7.4,0.9,14.6,3.1,22.2,0.2c5.1-1.9,7.5-0.3,8.7,3.6c1.5,4.7,0.3,6.9-4.3,9.3
	c-7,3.6-14.4,1.9-21.5,1c-11-1.5-22-3.7-32.9-5.8c-2.4-0.4-5-0.8-6.8-2.2c-1.5-1.1-2.9-3.8-2.6-5.4c0.3-1.4,3-2.8,4.9-3.3
	c2-0.6,4.3-0.1,6.5-0.1C655.3,786.5,655.3,786.3,655.3,786.1z"/>
<path d="M670.4,836.7c5.5,0.4,11.1,0.8,16.6,1.1c4.6,0.3,6.5,1.9,6.6,5.8c0.1,3.8-2.8,7-6.8,6.9c-3.8-0.1-7.7-0.8-11.5-1.1
	c-5-0.4-10.1-0.7-15.1-1.2c-2.7-0.2-5.6-0.7-5.6-4.3c0-2.9,2.2-3.9,4.8-4.6c3.7-0.9,7.3-2.3,10.9-3.5
	C670.3,836.1,670.4,836.4,670.4,836.7z"/>
<path d="M82.6,789.6c4.2,0.1,7.1,3.6,6.9,8c-0.2,4.3-0.6,8.6-0.5,12.9c0.1,5-1.9,8.8-5.3,12.2c-3.1,3.1-5.8,2.8-8-1.2
	c-1.4-2.7-2.8-5.8-2.9-8.8c-0.3-4.7-2.3-7.1-6.8-7.8c-0.9-0.2-1.9-0.4-2.8-0.7c-3.2-1.3-3.8-3.6-1.6-6.2c0.6-0.7,1.4-1.5,2.2-1.8
	c5.6-2.1,11.3-4.1,16.9-6.1C81.4,789.7,82.1,789.7,82.6,789.6z"/>
<path d="M32.2,824.2c-8.6-1.1-8.7-1.2-9.1-9c-0.3-5.8-0.9-11.5-1.5-17.2c-0.5-4.9,0.9-7.4,5.6-8.7c6.9-1.9,13.5-0.4,19.6,2.8
	c1.8,0.9,3.3,3.7,3.6,5.7c0.4,2.9-2.4,4-4.9,4.2c-5.3,0.6-7.7,5.3-11.7,7.8c-1,0.6-0.8,3.5-0.8,5.4
	C33.1,818.3,34.7,821.5,32.2,824.2z"/>
<path d="M73,856.9c-1.3,0.4-2.1,0.9-2.6,0.7c-2.1-0.9-5-1.6-5.9-3.3c-1.5-2.8,1.4-4.7,3.5-5.3c6.7-2,8.7-7.9,12.1-12.8
	c0.8-1.2,1-2.8,1.9-3.9c1.1-1.4,2.5-3.2,4-3.5c2.6-0.5,3.6,1.9,4.1,4.2c1.5,6.3,3.3,12.6,4.5,19c0.9,4.5-1.9,7.1-7.1,6.7
	C82.5,858.2,77.5,857.4,73,856.9z"/>
<path d="M49.2,861.4c-7.4-0.9-13.9-1.6-20.4-2.6c-6.6-1.1-6.7-1.7-6.3-8.6c0.2-4.1-0.2-8.2-0.1-12.2c0.1-3.3,1.4-5.6,5.5-4.8
	c0.3,0.6,0.9,1.2,1,1.8c1.8,10.8,10.2,12.8,19,14c2.7,0.4,5.6-0.2,6.9,2.7c1.6,3.4-1.2,5.3-3.2,7.4
	C50.8,859.9,49.9,860.7,49.2,861.4z"/>
</svg>
