<?xml version="1.0" encoding="utf-8"?>
<!-- Generator: Adobe Illustrator 25.2.1, SVG Export Plug-In . SVG Version: 6.00 Build 0)  -->
<svg version="1.1" id="Layer_1" xmlns="http://www.w3.org/2000/svg" xmlns:xlink="http://www.w3.org/1999/xlink" x="0px" y="0px"
	 viewBox="0 0 1818.5 918.3" style="enable-background:new 0 0 1818.5 918.3;" xml:space="preserve">
<path d="M494.7,883c-3.2,1.2-6.4,2.6-9.8,3.5c-5.1,1.5-10.2,3.2-15.4,3.8c-9.8,1.2-19.7,1.7-29.5,2.6c-5.6,0.5-11.2,1.3-16.8,1.9
	c-0.5,0.1-1,0.2-1.5,0.1c-6.8-1-13.6-1.3-20.4-0.2c-4.5,0.8-8.4-0.6-9.7-4.7c-1.5-4.7,2.9-7.7,6-9.5c5.9-3.3,9.9-8,13.5-13.5
	c0.8-1.3,2.8-1.9,4.3-2.7c0.3-0.2,0.9-0.1,1.1-0.3c5.8-7.4,11.1-15.4,17.5-22.2c7.1-7.6,15.3-14.1,22.9-21.1
	c3.8-3.5,7.4-7.4,11.4-10.7c1.3-1.1,3.4-1.6,5.2-1.7c5.5-0.3,11.1,0,16.7-0.5c14.9-1.3,29.9-2.9,44.8-4.3c5.5-0.5,11.1-0.9,16.7-1.6
	c1-0.1,1.9-1.3,2.9-2.1c-1-0.6-2-1.3-3.1-1.8c-6.6-3.3-13.3-0.4-19.5,0.6c-6.4,1.1-11.7-1.1-17.5-1.7c-1.3-0.1-2.7,0.2-4,0.5
	c-1.6,0.3-3.3,1-4.9,0.9c-7.5-0.2-15-0.6-22.4-0.9c-10.5-0.4-21.1-0.6-31.6-1.2c-10.9-0.7-21.8-1.9-32.8-2.7
	c-13.4-1-26.8-1.8-40.3-2.6c-23-1.4-46-2.9-69.1-3.9c-12.5-0.5-25-0.1-38-0.1c-4.5,15.7-14.1,28.5-27.3,38.5
	c-5.4,4.1-11.7,7.5-18.1,9.5c-9.6,2.9-19.6,5.9-29.5,6c-14.8,0.2-29.3-0.2-43.3-9.5c-10.8-7.2-21-15-30.3-23.8
	c-4.8-4.5-9.1-10.4-9.2-18.1c0-2.4-2.3-4.8-2.9-7.4c-2.2-10-7.5-19.1-7.7-29.8c0-2.5-3.6-5.8-6.3-7.2c-6-3-9.2-8-11.6-13.6
	c-5.2-12.3-8.2-25-8.5-38.5c-0.4-16.3-2.2-32.6-3-49c-0.2-5.2,1-10.4,1.2-15.7c0.5-14.8,0.7-29.6,1.2-44.4c0.3-9.3,0.8-18.7,1.4-28
	c0.2-2.5,1.3-4.9,1.8-7.3c1.6-7.4,0.7-14.8,0.6-22.2c-0.3-11.5,1.3-23,2-34.5c0.4-6.6,0.5-13.3,0.8-19.9c0.5-12.8,1.5-25.6,1.5-38.3
	c0-18.7-0.9-37.5,2-56.1c0.9-6.1-0.1-12.4,0-18.7c0.1-3.3,1.2-6.7,1.4-10c0.4-8.9,0.2-17.9,0.7-26.8c0.7-12.9,1.9-25.7,2.7-38.6
	c0.5-7.6,0.9-15.3,1.1-22.9c0.1-3.1-1.2-6.3-0.9-9.4c1.3-16.3,2.7-32.6,4.5-48.8c1-8.9,1.5-18.3,4.9-26.4c2.8-6.9,1.7-13.8,3.2-20.5
	c1.5-7.1,1.6-14.8,5.4-20.8c4.5-7.2,5.3-16.4,12.6-22.1c3.1-2.4,4.5-6.8,7.1-9.9c1.6-1.8,4-3,6.1-4.2c0.4-0.2,1.9,0.4,2,0.8
	c0.1,1.4,0.4,3.2-0.3,4.2c-2.7,4.2-5.2,9-8.9,12.2c-5.9,5.1-8.1,12-10.8,18.7c-6.1,15.6-9.2,32-10.1,49c1.1-1.8,2.3-3.5,3.2-5.4
	c4.4-8.8,10.3-16.2,18.6-21.7c2.5-1.6,5.5-3.9,3-7.2c-2.1,1.5-4.4,4.3-5.9,4c-3.6-0.9-5-3.6-4.1-7.9c3.2-14.3,9.4-26.7,20.2-36.8
	c5.4-5,10.4-10.5,15.8-15.5c1.6-1.5,3.7-2.4,5.6-3.6c-0.4-0.7-0.7-1.4-1.1-2.1c-2.9,1.4-6.4,2.2-8.6,4.4c-2.7,2.7-4.4,0.8-5.9-0.6
	c-0.5-0.5,0.8-3.2,1.7-4.5c0.9-1.3,2.4-2.4,3.8-3.3c0.9-0.6,2.4-1.5,3.1-1.2c4.8,2.5,7.5-1.3,11-3.2c2.4-1.3,5.3-2.4,8.1-2.5
	c15.4-0.7,30.9-1,46.4-1.4c3.6-0.1,6.3-0.4,6-5.3c-0.2-2.4,1.1-5,1.7-7.7c0.9,0.5,1.6,0.8,2.2,1.1c2.1-8.4,5.6-15.5,13-20.2
	c0.9-0.5,1.2-1.9,1.7-2.9c0.6-1,1.1-2.9,1.7-2.9c5.2,0.1,6.5-5.2,9.9-7.1c8.7-4.8,17.6-9.3,27.8-4c1.3,0.7,3.1,0.1,4.7,0.2
	c9.4,0.7,18.7,1.3,28.1,2c3.2,0.2,6.5,0.5,9.5,1.3c3.1,0.8,6.2,2.1,6.3,6.3c0,5.7,0.1,11.5,0.2,17.2c0,2,0.4,4,0.6,5.9
	c0.8,0,1.5,0.1,2.2,0.1c0.6-4.5,1.6-9,1.8-13.5c0.2-4.5-0.4-9-0.6-13.2c5.7-0.9,10.4-1.6,14.9-2.4c13.1-2.3,26.1-1.1,39.3,0.2
	c10.7,1,21.5,0.2,32.6,0.2c3-7.8,6-15.6,9.1-23.5c4.8,1.4,9.4,3.5,9.1,10.4c-0.2,5.3,2.6,10.5-1,16c-1.6,2.4-0.8,6.4-2,9.2
	c-0.9,2.1-3.1,4.7-5,5c-1.8,0.3-3.9-2.4-6-3.5c-2.8-1.4-5.7-3.8-8.5-3.7c-11.7,0.5-23-1-34.6-2.4c-10.7-1.3-21.9,0.1-32.8,0.6
	c-4,0.2-6,2.8-6.1,6.9c0,9.2,0,18.4-0.1,27.6c0,2.5-0.5,4.9-1,8.4c6.9,0.8,14.5,2.4,22,2.5c16.8,0.2,33.6-0.3,50.4-0.5
	c2.4,0,4.3,0.1,4.8-3.5c1.4-9.8,3.3-19.5,5-29.2c7.2,1.3,10.8,4.6,11.5,11.5c0.5,4,0.3,8.2-0.2,12.2c-1.1,7.5,3.1,12.1,10.6,12
	c7.8-0.1,15.8-0.2,23.4,1.3c12.2,2.5,24.3,2.5,36.7,1.9c9.3-0.5,18.6,1.6,28,2.1c10,0.5,20.1,0.6,30.1,0.7c7.7,0.1,15.3-0.2,23-0.1
	c7.5,0.1,14.4-1.8,20.9-5.6c8-4.7,10.2-3.7,14.4,4.2c0.8,1.5,4.2,1.9,6.5,2.3c3.5,0.5,7,0.4,10.5,0.9c3.2,0.5,6.1,2.5,4.9,5.8
	c-0.7,1.9-4,4-6.2,4c-9.4,0.2-18.8-0.4-28.1-0.6c-15.6-0.3-31-3.3-46.9-2.3c-12.1,0.8-24.4-1.6-36.6-2.5c-5.7-0.4-11.6-1.4-17.2-0.6
	c-15.4,2.2-30.5,0.8-45.5-2.9c-3.4-0.8-7.1,0.1-10.7,0c-12.5-0.6-24.9-1.6-37.3-1.9c-14.7-0.4-29.4-0.4-44.1-0.6
	c-6.2-0.1-12.5-0.6-18.7-0.7c-4.5-0.1-9.1,0.4-13.6,0c-7.6-0.7-15.1-2-22.7-2.8c-16.8-1.8-33.6-3.1-50.3-5.3
	c-8.5-1.1-16.5,1.4-24.8,1.3c-5.1,0-10.2-1.5-15.3-2.2c-2.9-0.4-5.8-0.8-8.6-0.7c-7,0.4-14,1-21.1,1.6c-0.2,6-3.2,8.6-10.3,8.2
	c-1,0-2-0.3-3-0.5c-5.7-0.9-10.1,2.2-15.1,4.3c-12.7,5.5-22,15.1-31.2,24.7c-3.9,4-6,9.9-8.4,15.1c-1.1,2.3-0.6,3.5,2.4,5.9
	c7.9,6.1,15.3,4.7,23.8,3.6c5.2-0.7,10.8,1.2,16.1,2c13.8,2.2,27.2,6.3,41.6,4.8c6.6-0.7,13.5,1.6,20.3,2.3c9.5,0.9,19,1.7,28.5,2.2
	c13.4,0.8,26.8,1.3,40.1,2.2c19.6,1.2,39.2,3,58.9,3.9c18.1,0.9,36.3,0.9,54.4,1.8c12.1,0.6,24.2,2.8,36.3,3.1
	c20.2,0.5,40.3,0,60.5,0.1c19.6,0.1,39.2,0.2,58.8,0.5c17.9,0.2,35.8,0.5,53.7,1.1c15.3,0.6,30.8,0.7,45.9,3.1
	c8.3,1.4,16,7.1,23.9,11c1.9,0.9,3.5,2.4,5.8,4c0-5.2-0.1-9.6,0-13.9c0.6-18.7-4.7-35.7-14.5-51.3c-3.9-6.2-10.8-8.5-17.6-10.4
	c-0.6-0.2-1.3-0.3-1.9-0.4c-0.1,0-0.2-0.3-1-1.4c4.7-1.4,8.8-3.8,13.5-1.8c4,1.7,8.3,3.7,11.4,6.7c4,3.8,8.4,5.5,13.4,4.4
	c9-2,17.3,0.8,25.7,3.2c10,2.8,19.8,5,30.2,2c2.8-0.8,6.3,0.8,9.1,0.1c6.5-1.6,13-3.6,19.2-6c12.5-5,24.2-4,34.8,4
	c3.9,3,6.4,7.8,9.9,11.5c1.3,1.3,3.7,2.5,5.4,2.3c6.9-0.9,13.8-1.9,20.6-3.6c12.9-3.2,25.7-6.9,38.6-10.4c0.6-0.2,1.2-0.4,3-1
	c-9.7-0.7-18.1-1.2-26.4-2c-3.9-0.4-7.9-0.8-11.6-2.1c-2-0.7-3.3-3.3-4.9-5c2.2-1,4.5-3.1,6.6-2.9c21.4,1.7,42.9,2.2,63.8-1.8
	c13.7-2.6,26.8,0.7,40.1-0.1c4.7-0.3,9.6,1.6,14.4,2.2c1.8,0.3,3.7,0.2,5.6-0.1c9.4-1.5,18.9-2.9,28.2-4.9c8.9-2,17.7-4.9,26.5-7.2
	c3.1-0.8,6.3-2,9.5-2c11,0,19.2-7.1,28.4-11.4c1.5-0.7,1.8-4.4,2.1-6.8c0.5-4,1.2-7.2,6-8.2c3.5-0.8,4.9,0.7,5.5,3.5
	c3.1,13,8.9,24.8,15.7,36.4c5.7,9.8,8.8,20.7,8.2,32.4c-0.2,3.8-2.3,6.5-5.8,6.7c-4.1,0.2-4-3.5-4.8-6.5c-1.5-5-3.8-9.9-5.7-14.8
	c-0.1-0.2-0.2-0.3-0.3-0.4c-0.7-9.2-8-14.6-12.6-21.5c-3.2-4.8-12.3-7.3-17.6-4.6c-6.6,3.4-13.3,6.1-21,5.7
	c-2.9-0.1-6.2,0.9-8.8,2.3c-11,5.9-23,7.5-35.2,8.5c-2.2,0.2-4.3,0.7-7.5,1.2c3.7,5.7,7.1,10.5,9.9,15.6
	c6.3,11.3,12.7,22.7,13.3,36.2c0.1,1.3,2.3,3.5,3.5,3.5c4.4-0.1,8.8-0.7,13.1-1.5c11.9-2.2,23.9-4.4,35.7-7
	c8.6-1.9,17.1-4.7,25.8-6.3c4.3-0.8,9.2-0.5,13.4,0.9c5.5,1.7,6.3,7.3,2.5,12.7c-6.9,9.6-16.4,14.2-28.2,14.7
	c-9.5,0.4-18.9,1.6-28.4,2.5c-7.1,0.7-14.2,1.2-21.3,2.2c-2.5,0.3-4.7,2.1-7.2,2.7c-16.3,4.1-32.6,8-48.8,12.1
	c-7.3,1.8-14.3,4.6-21.6,6.1c-5.3,1-10.8,1-16.2,0.8c-3.6-0.2-6-5.8-3.6-9.4c1.8-2.8,1.6-4.3-0.2-6.7c-0.8-1.1-1.2-3.7-0.5-4.6
	c0.9-1.2,3.1-1.9,4.8-2.1c5.7-0.6,11.5-0.4,17.1-1.4c8.7-1.6,17.3-3.8,26-5.8c2.1-0.5,4-0.8,3.2-4c-2.3-8.7-4-17.6-6.7-26.2
	c-3.2-10.4-11.8-16.9-20.2-22.5c-5-3.3-12.3-3.2-18.7-4.4c-2.5-0.5-5.2-0.2-7.8,0c-2.9,0.2-5.8,0.7-8.6,1.1
	c-5.5,0.8-11.1,1.2-16.5,2.4c-12.5,2.8-24.9,5.9-37.4,8.9c-11.1,2.7-22.1,5.6-33.3,8.1c-3.8,0.8-4,2.7-2.7,5.5
	c5.6,11.8,6.9,24.6,8.4,37.4c0.1,0.5,0.1,1,0.2,1.5c2.5,12.8,3,12.8,18,9.9c11.4-2.2,22.9-3.7,34.4-5.4c3-0.4,7.7,3.1,7.8,5.8
	c0.2,3.8-2.6,5-5.7,5.4c-3.3,0.4-5.9,1-6.6,5c-0.2,1.2-2.4,2.6-3.9,3c-10,2.6-20.2,4.7-30.2,7.4c-11.9,3.1-23.7,6.6-35.6,9.8
	c-4.9,1.3-9.9,2.6-15,3.4c-14.9,2.5-29.7,4.9-44.6,7c-4.3,0.6-8.9,0.2-13.3,0.1c-3.9,0-5.6,1.9-5.4,5.7c0.4,6.5,0.7,13,1,19.4
	c0.1,2.7,0.7,5,4,5.6c4.7,0.9,4.7,5.3,5.2,8.6c1.9,13.6,3.8,27.3,4.8,41c0.7,10,0.1,20,0.1,30.8c2.2-0.3,4.3-0.4,6.3-0.9
	c14.9-4.3,29.8-8.6,44.7-12.9c2-0.6,4-0.7,6.1-1.2c6.8-1.5,13.5-3.1,20.3-4.7c10.4-2.3,20.8-4.6,31.1-7c3.6-0.9,7-2.6,10.6-3.6
	c18.7-5,37.5-9.9,56.2-14.9c4-1.1,7.8-2.9,11.8-4.3c2.6-0.9,5.3-1.3,7.8-2.2c6-2,12-4.2,18-6.1c3.1-1,6.4-1.4,9.6-2
	c1.8-0.4,3.7-0.5,5.5-1c4.5-1.5,8.8-3.5,13.4-4.6c7.4-1.7,15-3.5,22.6-4c3.9-0.2,8.4,1.7,11.7,3.9c2.6,1.7,4.2,1.7,6.8,0.9
	c2.4-0.8,5.1-0.7,8.1-1c2.2-5.2,4.6-6.3,6.9-4.5c7.6-1.6,14-3,21-4.5c-1.3-6.5,5.9-5.3,9.9-7.3c4.4-2.2,9.3-3.4,13.9-5.2
	c4.5-1.8,7-0.7,7.2,4.2c0.3,7-0.1,14-0.2,21c-0.1,4.9,0,9.9-0.4,14.8c-0.2,2.5-0.9,5.7-2.5,7.2c-4.6,4.2-4.4,9.5,1.1,12
	c3,1.3,4.6,3.2,4.6,6.6c0,9.8,0.2,19.5,0.4,29.3c0.2,11.4,0.6,22.9,0.5,34.3c0,3.5-0.8,7.1-1.9,10.5c-1.1,3.5-3.5,5.1-7.6,5.6
	c-4.2,0.5-8.1,3.1-12.2,4.4c-24.7,8-49.4,15.9-74.2,23.6c-6.8,2.1-13.9,3.1-20.8,5.1c-18.2,5.2-36.2,10.8-54.4,16
	c-7.8,2.2-15.8,3.8-23.7,5.7c-2.3,0.6-4.7,1.1-7,1.7c-10.5,2.9-21.1,5.8-31.6,8.8c-3.8,1.1-7.5,2.4-11,4.1
	c-13.6,6.3-28.2,7.9-42.7,10.1c-8.6,1.3-17,3.9-25.6,5.1c-10.4,1.3-20.4,3.8-30.3,7c-4.3,1.3-8.9,1.8-13.2,3.2
	c-3.7,1.2-6.7,0.6-8.2-2.9c-2-4.6-3.4-9.4-5.5-15.7c-0.2,4.3-0.4,7.4-0.5,10.6c0,5.1,0.2,10.2,0,15.3c-0.2,3.6,1.9,4.8,4.7,4.5
	c4.7-0.4,9.5-1,14.1-2c2.6-0.6,5.6-1.6,7.4-3.4c2.8-2.7,5.3-4.1,9-2.5c0.4,0.2,1.2,0.2,1.5,0c7.5-6.5,16.5-2.1,24.8-3.5
	c2.6-0.4,7.4,0.8,8,2.4c1.2,3.2,0.5,7.3-0.2,10.8c-0.4,1.9-2.5,4-4.3,4.8c-6.1,2.6-12.4,6-18.8,6.4c-12.8,1-24.8,4.3-36.6,9
	c-3.8,1.5-7.8,2.8-11.8,3.1c-3.1,0.2-6.3-1.4-9.8-2.3c-0.1,0.1-0.6,0.7-0.6,1.2c-0.1,10.2-0.1,20.4-0.1,30.6
	c0,6.8,0.2,13.7-0.2,20.5c-0.9,15.2-2.5,30.3,0.3,45.4c0.4,2,2.5,4.8,4.3,5.2c3,0.5,5.3-1.1,6.3-4.9c2.8-10.9,5.6-21.8,9.8-32.2
	c4.1-10.1,10-19.5,14.9-29.3c2.6-5.1,4.6-10.5,7.4-15.5c2.6-4.7,5.1-5.1,8.5-2.1c3.5,2.9,1.6,5.3-0.7,8.2c-2.7,3.4-4.6,7.5-7.3,12.1
	c3.8-0.8,6.8-0.8,9.1-2c9.5-4.9,18.7,0.3,28,0.8c1.8,0.1,4.7,2.3,5,3.9c1.1,6.2,7.5,8.2,9.6,13.6c2,5.2,5.3,10,7,15.2
	c2,6,3,12.3,4.1,18.5c0.5,3.1,1.6,3.9,4.6,3.9c2.7,0,5.5,0.7,7.9,1.8c1.5,0.8,3.3,3.1,3.2,4.5c-0.1,1.5-2.2,3.1-3.8,4.1
	c-1,0.7-2.6,0.8-3.9,0.8c-5.8,0.1-6.5,1.6-5.7,7.2c0.7,5.1,0.5,10.3,0.4,15.5c-0.1,4.8-0.7,9.6-0.5,14.3c0,1.2,2.3,3.4,3.4,3.4
	c6.3-0.3,12.5-1.1,17.8-5.3c1.9-1.4,5-1.3,9.1-1.5c0.2-8.8,0.3-17.5,0.7-26.3c0.4-11.9,1-23.7,1.5-35.6c0.2-5-0.7-4.9-5.4-4.5
	c-6.4,0.4-13.3,3.9-19.3-1c-1.7-1.4-3.8-3.8-3.7-5.6c0.3-9.8,1.2-19.7,2.1-29.5c0.3-3.5,1.4-7,1.7-10.5c0.8-9.3,1.5-18.7,2-28
	c0.4-8.1,6.4-13.7,15.6-14c2.2-0.1,4.4-0.2,7.4-0.3c0-10.3,0-20.4,0-30.4l0,0.2c3.6-0.6,6.8-2.9,11.2-0.9c2.3,1.1,6.3-1.6,9.5-2.4
	c10.1-2.7,19.7-6.9,30.6-7.7c8.3-0.6,16.3-4.8,24.5-7c8.7-2.4,17.5-4.2,26.1-6.7c7.1-2,14-5.1,21.2-6.8c11.6-2.8,13.3-0.5,14.6,11
	c0.8,6.8-1,13.9-1.4,20.9c-0.4,5.9-0.2,11.9-0.7,17.9c-0.8,10.4-2.3,20.8-2.8,31.2c-0.6,10.7-1.7,14,11.9,11.2
	c3.8-0.8,7.7-1.5,11.5-2c7.4-1.1,10.4-6.5,12.2-12.7c3.3-11.2,5.7-22.7,9.4-33.8c2.3-7,6.1-13.6,9.5-20.2c0.6-1.2,2.1-2.4,3.5-2.8
	c5.9-1.6,11.9-3.1,17.9-4.1c4.7-0.8,8.5,1,12.5,4.2c6.1,4.8,11.6,9.9,15.4,16.5c8.7,15.1,14.2,31.3,17.5,48.4
	c0.7,3.4,2.3,6.6,4.7,9.7c1.4-38.4,2.8-76.9,4.2-116.5c-14.5,4.6-28.1,8.7-41.5,13.2c-10.8,3.7-21.5,7.9-32.2,11.8
	c-9.9,3.6-19.9,6.8-29.8,10.5c-3.6,1.3-5.7,0.2-7-2.9c-1.3-3.1,0.1-4.7,3-5.9c8.5-3.4,16.9-6.9,25.3-10.4c0.6-0.2,1-0.7,1.2-1.9
	c-8.3,2.3-16.5,4.5-24.8,6.8c-1.6,0.4-3.3,0.9-4.9,1.4c-6,1.7-6.8,1-7.1-5.6c12.4-7.5,26.6-9.9,40.4-13.6
	c12.1-3.2,24.1-7.3,35.9-11.6c9-3.3,17.6-7.8,26.6-11.1c3.8-1.4,8.1-1.3,12.6-2c0-3.9-0.1-8.9,0-13.8c0.2-9.1,0.7-18.3,0.9-27.4
	c0.1-6.5-0.3-12.9-0.2-19.3c0.1-2.8,0.9-5.6,1.4-8.4c0.4-1.9,0-4.6,0.2-5.5c1.8-7.7-5.2-14.2-2-22c0.9-2.3-0.5-5.6-0.6-8.4
	c0-8.7,0.2-17.3,0.2-26c0-2.3-0.6-4.7-0.7-7.1c-0.5-12,0.2-24.2-1.6-36c-2.1-14,1.1-28-0.6-41.7c-1.4-11.4-2.2-22.7-2.2-34.1
	c0.1-14.3,0.6-28.6,0.6-43c0-8.9,0.5-18.1-1.4-26.7c-1.1-5.1-6.1-9.5-9.8-13.8c-3.3-3.8-7.5-6.7-10.9-10.5
	c-4.6-5.1-1.9-11.3-0.8-16.7c1.3-6.5,2.2-12.3-2.5-17.8c-1.7-2-3.3-4.9-3.2-7.4c0.2-7.5-7.5-9.3-9.8-14.8c-0.2-0.5-1.9-0.7-2.8-0.6
	c-9.1,1.2-18.3,2.1-27.3,4c-12.9,2.7-25.6,6.2-38.4,9.3c-19.6,4.7-39.2,9.5-58.9,13.7c-15.5,3.4-31.2,8-46.9,8.5
	c-14.1,0.4-25.2,6.8-37.6,11c-9.4,3.2-19,5.7-28.6,8.2c-12.2,3.2-24.8,5.2-36.7,9.2c-11.1,3.8-22.7,5-33.6,8.5
	c-11.9,3.8-22.9,0-34.3-0.6c-0.7,0-1.2-1-2.4-2c0.1,1.7-0.1,3.2,0.4,4.4c3.3,6.7,1.6,13.4,0.3,20.1c-1.4,6.8-7.1,5.4-11.5,5.8
	c-4.2,0.3-6.5-2.3-7.2-6.4c-0.7-4-1.3-8.1-2.5-12c-1.5-4.9-1.7-10.3-7-13.8c-2.1-1.4-2.4-6.4-2.3-9.8c0-3.2-0.9-4.7-3.8-5.7
	c-7.4-2.4-14.9-3.3-22.7-2c-7.4,1.2-15,1.5-22.5,2.2c-1.5,0.1-3.4,0.5-4.5-0.2c-1.6-0.9-3.2-2.5-3.7-4.2c-0.2-0.8,1.9-3.3,3.2-3.5
	c7.9-1.3,15.8-2.8,23.8-2.9c10-0.2,20.1,0.8,30.2,1.4c2,0.1,4.2,0.7,5.7,1.8c4.8,3.7,9.5,7.6,14,11.7c4.3,4,8.3,7.4,15,6.5
	c4.1-0.6,8.5,1.2,12.8,1c8.8-0.5,17.5-2.1,26.3-2.5c12-0.5,22-6.8,33-10.2c5.4-1.7,10.9-4.3,15.8-1.3c23.6-8.3,46.6-16.3,69.6-24.4
	c-0.2-0.7-0.4-1.4-0.5-2c-10.2,1.5-20.5,3.2-30.7,4.6c-15.3,2.1-30.6,4.7-45.9,6c-9.5,0.8-19.2-0.1-28.7-0.6c-1,0-1.9-2.1-2.8-3.2
	c2-1.4,4-3.9,6.2-4.1c8.1-0.6,16.2-0.3,24.4-0.7c6.8-0.3,13.7-0.8,20.4-1.8c11.4-1.8,22.8-4.3,34.2-6.2c11.4-1.9,22.8-3.6,34.3-5.1
	c2-0.2,4.4,0.7,6.1,1.8c3.6,2.2,6.9,1.3,10.2-0.2c7.1-3.2,14.2-6.4,21.2-9.8c3.7-1.8,7.3-3.9,10.8-6c0.8-0.5,1.8-1.7,1.6-2.4
	c-0.2-0.8-1.3-2-2.1-2.1c-2.2-0.3-4.4-0.4-6.6-0.2c-6,0.4-11.9,1-17.8,1.5c-2.7,0.3-5.4,0.9-8,1c-4.4,0.1-8.8-0.4-13.1-0.2
	c-7.9,0.5-15.9,1.9-23.8,2c-12.3,0.1-24.6-0.6-36.8-0.8c-16.6-0.2-33.1,0.2-49.7-0.3c-12.2-0.3-24.3-1.8-36.4-2.3
	c-12.7-0.5-25.6-1.7-38.2-0.3c-8.8,1-17.1,5.9-25.7,8.9c-1.8,0.6-3.7,0.6-5.6,0.8c-1.2,0.2-2.5,0.1-3.7,0.5
	c-13.7,4.3-27.2,8.9-40.9,12.9c-12.9,3.8-25.9,6.9-38.9,10.4c0.3,0.8,0.3,1.3,0.5,1.3c9.6,0.7,13.9,8.5,19.3,14.5
	c5.6,6.3,1.1,18.4-7.2,19.6c-1.5,0.2-4.2-0.9-4.7-2.1c-0.8-2-0.4-4.5,0-6.7c0.4-2.3,2.3-4.8,1.8-6.6c-1.2-4-3-8.1-8-9.2
	c-5-1.1-10-2.3-15-3.7c-4.7-1.3-9.2-3.7-14-4.3c-5.6-0.8-11.4-0.3-17.1-0.2c-7.1,0.2-14.2,0.8-21.3,0.7c-1.5,0-4-2.3-4.1-3.8
	c-0.1-1.5,1.8-4,3.4-4.5c10.2-3.4,20.8-4,31.4-3c7.7,0.7,15.1,0,22.7-1.8c11.2-2.6,22.7-3.7,34-5.8c5-0.9,9.7-3.4,14.7-4.1
	c15.8-2.1,29.2-10,43.1-16.7c2.4-1.1,5.4-0.8,8.2-1.2c3.3-0.5,7-0.3,9.9-1.7c13.3-6.3,26.7-5.2,40.3-1.8c0.8,0.2,2,0.6,2.4,0.2
	c6.1-4.7,12.9-1.9,19.4-1.8c14.7,0.4,29.3,1.1,44,1.5c13.1,0.3,26.2,0.4,39.3,0.7c3.1,0.1,6.1,0.8,9.2,0.8c7.9,0,15.8-0.1,23.7-0.4
	c14.7-0.7,29.3-1.3,43.9-2.3c9.8-0.7,19.5-2.2,29.3-3c2.8-0.2,6.1-0.1,8.5,1.1c9.8,4.8,19.8,2.1,29.8,1.5
	c17.7-1.1,35.4-2.4,53.1-3.2c5.2-0.2,10.6,1.2,15.9,1.3c10.7,0.2,21.2,2,32.1,1.3c22.2-1.4,44.4-1,66.6-1.4c8.1-0.2,16.3-1.4,24.4-1
	c10.8,0.5,21.9,0.9,32.3,3.8c9.9,2.7,18.7,9,28.4,12.8c4.5,1.8,9.9,1.4,14.9,1.8c9.1,0.8,18.2,1.7,27.3,1.9
	c5.8,0.2,11.7-0.8,17.6-1.4c1-0.1,2-0.8,2.9-0.7c5.2,0.7,10.1,0.3,15.1-2.1c8.2-4,17.1-2.6,25.8-2.3c7.3,0.3,14.5,0.7,21.8,0.6
	c3.1,0,6.1-2.9,9.2-0.5c4.6,3.5,9,7,13.4,10.7c6.5,5.3,9.4,12.8,12.7,20.3c3.6,8.4,8.3,16.8,16.4,21.5c5.1,2.9,11.5,3.5,17.4,5.1
	c2.8,0.7,5.7,1,8.3,2.1c4.6,1.8,9.1,3.7,13.4,6c5.2,2.9,7.5,8,7.9,13.7c1.2,15.1,3.3,30.2,1.6,45.5c-0.7,6.2,0.4,12.7,1.9,18.8
	c2.3,9.2,1.5,18.2,0.5,27.3c-1.9,17.7-4.6,35.3-6.1,53c-1.2,14.8-0.9,29.7-1.4,44.5c-0.2,5.4-1.1,10.8-1.3,16.2
	c-0.5,12.2-0.4,24.5-1.1,36.7c-0.9,14.9-2.4,29.7-3.5,44.5c-1.2,16.2-2.3,32.4-3.3,48.7c-0.4,7.8,0,15.7-0.4,23.5
	c-0.8,16.7-1.8,33.5-2.9,50.2c-0.2,3.3,0.5,5.6,3.7,7c1.5,0.7,2.7,2.1,3.9,3.3c7.3,7,16,8.2,25.7,6.9c13.4-1.9,26.9-2.9,40.2-5
	c13.8-2.1,27.5-5.2,41.3-7.5c15.4-2.5,31-4.5,46.4-6.9c15.4-2.4,30.7-5,46-7.8c10.2-1.9,20.2-4.7,30.4-6.6c3.2-0.6,6.7,0.2,9.9,0.8
	c4.4,0.7,5.2,4.7,4.1,7.5c-2.3,5.7-3.9,12.1-11.5,14.1c-10.1,2.7-19.8,6.6-29.8,9.4c-8.2,2.2-16.6,3.4-24.9,5.2
	c-14.3,3-28.6,6.2-43,9.2c-8.9,1.9-17.8,3.4-26.7,5.3c-1.8,0.4-3.8,1.2-4.9,2.5c-1.2,1.2-2.5,4.2-1.9,4.8c1.4,1.7,4,3.7,5.8,3.4
	c13.2-2,26.3-4.7,39.5-6.7c9.7-1.5,19.6-2.1,29.3-3.6c8.7-1.4,17.3-3.7,25.9-5.3c11.4-2.1,22.9-3.4,34.2-5.8
	c12-2.5,23.8-5.7,35.7-8.8c16.9-4.3,33.9-8.7,50.8-13.2c2.8-0.7,5.6-1.5,8.3-2.5c3.4-1.2,5.8-0.9,7.2,3c1.4,3.8,0.7,6.4-3.2,7.7
	c-4.2,1.4-8.4,2.9-12.7,4c-13.8,3.6-27.6,6.9-40.6,13.3c-7.6,3.7-16.4,4.7-24.4,7.7c-11.4,4.4-22.8,9.1-33.8,14.5
	c-4.5,2.2-8.1,6.2-11.9,9.5c-8.7,7.8-17.1,15.9-26.1,23.4c-9.8,8.1-19.8,16-30.2,23.3c-9.1,6.3-19,11.1-30.3,12.7
	c-8.4,1.2-16.5,4-24.9,5.7c-12.8,2.6-25.7,5-38.5,7.4c-17.8,3.3-35.6,6.7-53.4,9.7c-11.3,1.9-22.8,2.8-34.1,4.7
	c-9.4,1.5-18.7,3.7-28.4,6.7c1.8,0.8,3.6,1.8,5.5,2.4c8.3,2.5,16.6,4.9,24.9,7.2c5.2,1.5,11,1.9,14.2,7.2c1.6,2.6,3.5,5.2,4.3,8
	c0.5,1.9-0.3,5-1.7,6.2c-6.9,5.9-15.2,9.6-23.8,12.7c-17.3,6.2-34.6,12.5-51.7,19.4c-20.2,8.1-40.8,14.4-62.2,18.1
	c-4.9,0.8-9.7,2.2-14.6,2.9c-4.2,0.6-8.5,0.9-12.8,0.6c-8-0.6-15.2,1-21.8,5.6c-1.6,1.2-3.5,2-5.4,2.8c-5.5,2.3-11.1,4.4-13.1,11
	c-1.2,3.9-4.5,5.6-8.5,6.3c-18.5,3.2-37,6.8-55.6,9.7c-9.9,1.5-20.1,1.6-30.1,2.9c-2.9,0.4-6.3,2.3-7.9,4.6
	c-3.3,4.9-6.5,10.3-8.1,15.9c-2.6,9.3-9,12.4-17.5,13.4c-13.9,1.5-27.8,3-41.8,4.5c-5.9,0.7-12.1,0.4-17.5,2.3
	c-8.9,3.1-17.1,8.1-25.9,11.5c-8.3,3.3-17,5.8-25.6,8.4c-7.8,2.4-15.6,4.6-23.5,6.8c-1,0.3-2,0.8-3,0.8c-9.6,0.3-18.1,4.2-26.7,7.6
	c-3,1.2-6.2,1.3-7.4,5.3c-0.4,1.3-3,2.3-4.7,2.7c-14.8,3.7-29.6,7.1-44.3,10.7c-8.3,2.1-16.5,4.6-24.7,6.8c-3,0.8-6.1,1.7-9.1,1.5
	c-15.1-1.1-28.2,6.3-42.2,9.7c-11.2,2.8-22.1,6.9-33.3,9.8c-14.5,3.8-29.2,7.3-43.9,10.5c-11.7,2.5-23.5,4.3-35.2,6.4
	c-3.6,0.6-6.4-0.4-7.4-4.5c-0.4-1.4-1.3-2.8-2.2-4c-6-7.7-5.3-9.7,3.8-12.5c6.3-1.9,12.5-3.8,18.7-6.1c6.2-2.3,12.3-5,18.5-7.4
	c5.5-2.2,11.1-4.2,16.6-6.3c3.6-1.4,8.7-7.9,8.1-11.3c-0.3-1.7-2.4-3.5-4.1-4.5c-3.7-2-8.1-2.9-11.5-5.3
	c-12.7-9-18.4-22.5-19.4-37.2c-0.6-8.3-3.4-14.1-8.3-20.4c-5.9-7.6-9.9-16.8-15.2-26.3c-2.2,0.6-5.5,1.7-8.8,2.4
	c-5.6,1.2-11.5,1.6-16.9,3.4c-5.8,1.8-11.4,4.3-16.6,7.3c-5.9,3.4-7.9,3.4-13.1-1.2c-2.7-2.4-5.9-3.3-8.8,0.1
	c-4.2,4.6-7.9,9.1-7.1,16.2c0.5,4.6-2.3,8.3-6.7,10.7c-7,3.7-14.3,3.8-21.1,0.6c-2.8-1.3-4.7-5.1-6.4-8.1c-1.1-1.8-1.2-4.2-1.5-5.3
	c-5.6,0-11.1,1.5-15-0.3c-7-3.3-11.9,1.8-18.3,1.2c5.4,10.4,18,17,21.9,13.2c2.5,0.6,4.5,0.7,6.1,1.5c2,1,5.6,2.8,5.4,3.8
	c-0.4,2.4-2,5.8-4,6.6c-5.3,2.1-19.3-3.5-23-8.4c-0.3-0.4-0.7-0.9-1.1-1c-8.1-1.7-11.7-8.5-16-14.4c-2.4-3.3-4.9-3.6-9.8-0.2
	c4.4,6.4,8,13.6,13.4,19c5.2,5.2,12.2,8.5,18.2,12.4c2-0.3,4.3-0.7,6.8-1c1-0.1,2.1,0.1,3,0.3c2,0.6,5.2,0.7,5.8,2
	c1,2,1.1,5.6-0.1,7.1c-1.3,1.6-4.7,2.4-6.9,2c-4.5-0.9-8.8-2.7-13-4.4c-1.4-0.6-2.1-2.5-3.3-3.7c-1-0.9-2.2-1.7-3.4-2.3
	c-5.5-2.8-10.9-5.6-16.5-8.1c-1.7-0.7-4.3-1.2-5.6-0.4c-4.2,2.7-8.2,5.9-12,9.2c-5.3,4.5-10.3,9.4-15.7,13.7
	c-9.8,7.8-20,15.1-29.7,23.1c-4.9,4.1-8.9,9.2-13.3,13.8C494.6,883.1,494.7,883,494.7,883z M654,259.9c4.7-1.7,8.3-3.5,12.2-4.4
	c5.2-1.2,8.2-3.7,8-9.1c-0.6-17.3,2.8-34.7-1.4-52c-1.2-4.8-3.1-7-7.2-7.4c-12.7-1.3-25.4-2.4-38.6-3.6c0.4,5,0.9,8.9,0.9,12.8
	c0.1,15.9,0,31.8,0.2,47.7c0.1,8.5,1.1,9.4,9.7,10.8c2.8,0.5,5.7,1.2,8.5,1.5c2.7,0.3,5.3,0.7,5.4,4.2c0.1,3.8-2.7,5.4-5.7,5.3
	c-7.1-0.2-14.3-0.9-21.3-2c-1.8-0.3-4.2-2.3-4.7-4c-1.3-4.9-2.4-10.1-2.5-15.1c-0.3-14.2,0-28.4,0-42.6c0-2.9-0.6-5.7-1-8.6
	c-0.4,0-0.9,0-1.3,0c-0.3,0.9-0.8,1.8-0.8,2.6c0.1,12.6,0.2,25.2,0.4,37.8c0,1.3,0.3,2.7,0.8,4c3.9,11.3-1.3,19.8-8.7,27.6
	c-0.8,0.9-2.3,1.4-3.6,1.5c-6.3,0.5-12.6,1-18.8,1.3c-3.7,0.2-7.5,0.1-11.2-0.1c-6.5-0.3-12.9-0.8-19.4-1c-20.5-0.8-41-1.6-61.5-2.2
	c-11.4-0.4-22.8-0.4-34.2-0.7c-5.1-0.1-10.2-0.7-15.3-0.9c-14.1-0.5-28.3-0.7-42.4-1.4c-12-0.6-23.9-2.3-35.8-2.9
	c-19.5-1-39-1.3-58.5-2.2c-8.7-0.4-17.4-2.4-26-2c-21.5,1.1-42.8-0.5-64.1-3.4c-6.8-0.9-13.8-0.8-20.7-1.1c0.3,0.6,0.6,1.2,0.9,1.8
	c-2.8,2.7-5.2,6-8.5,7.8c-2.7,1.4-3.4,2.2-2.8,5.2c1.8,10.2-2.3,14.2-12.4,12.3c-0.5-0.1-1.1-0.4-1.5-0.2c-5,1.7-7.6-1.3-9.7-5.1
	c-2.6-4.8-6.4-6.7-11.9-6.5c-4,0.1-8.1-1.2-12.1-1.8c-7.3-1.2-14.6-2.7-21.9-3.4c-1.8-0.2-5,1.2-5.7,2.7c-2.2,4.8-5.3,5.5-10.1,3.2
	c-0.9,10.4-1.9,20.5-2.3,30.5c-0.1,1.6,2.7,4.7,4.4,4.8c8.9,0.7,17.9,0.8,27,1c-1-11.2-10.6-18.2-15.8-27.8c8.7-5,12.3,1.8,17.3,7.5
	c0.2-2.2,0.8-3.8,0.3-4.7c-2.1-3.9,0.1-6,3-7.4c3.3-1.7,5.4,0.9,6.5,3.3c1.5,3.2,2,6.8,3.5,10c3.1,6.9,7.2,13.4,9.7,20.5
	c1.7,4.8,5.1,3.2,7.9,3.4c0.9,0.1,2.4-2.9,3-4.8c0.6-2.1,0.6-4.4,0.7-6.6c0.7-8.8,6.1-11.5,13.5-6.9c3.5,2.1,4.5,4.6,4.1,8.5
	c-1.3,11-0.6,11.5,10.4,11.6c1.4,0,3.6,1.5,4,2.8c0.4,1.2-0.5,3.7-1.6,4.4c-2.4,1.5-5.2,2.3-7.9,3.2c-3,1-6.3,1.5-6.2,5.8
	c0.1,1.9-0.6,3.8-0.5,5.6c0.9,27,1.9,53.9,2.9,80.8c0.2,4.1,0.4,8.2,1.1,12.3c0.9,5.5,1.2,10.7-5.2,13.2c-1.9,0.7-4.7,2-5.9,1.2
	c-2.2-1.5-5.4-2.5-4.7-7c0.6-4.2,0-8.7-5.6-11c-2.5-1-4.2-5-5.3-7.9c-1.1-3.2-1-6.8-1.5-11.5c-0.8,4.7-0.7,8.3-2,11.3
	c-0.9,2.1-3.5,4.9-5.4,4.8c-3.2,0-5.1-2.6-4.8-6.5c0.5-7.5,0.7-15,0.9-22.5c0.1-5.3,0.4-10.7-0.2-15.9c-1.2-9.3-3.9-18.4-4.3-27.7
	c-0.5-11.8-5.1-22.3-8.6-33.2c-0.5-1.5-1.6-2.8-2.4-4.1c0.2,3.8-1.4,5.3-4.8,4.2c-7.2-2.4-14.3-1.8-21.7-0.5
	c-4.1,0.7-5.2,2.1-5.5,5.5c-1.1,12.7-2.6,25.4-3.4,38.1c-0.8,14-1.1,28-1.3,42c-0.3,17-0.3,34-0.7,51c-0.3,13.3-1.1,26.6-1.4,39.9
	c0,1.8,0.9,4.9,1.9,5.1c7.1,1.6,14.4,3,21.6,3.5c7.5,0.5,15.1-0.4,22.6-0.1c5.8,0.2,11.5,1.6,17.3,1.8c9.8,0.2,19.6-1.3,29.5,0.7
	c6.4,1.3,13.2,1,19.7,1.9c12,1.7,23.9,3.8,35.9,5.8c5.6,0.9,11.2,2.7,16.8,3c8,0.4,16.2-0.4,24.2-0.2c4.8,0.2,9.5,1.9,14.2,2
	c11.2,0.3,22.5-0.2,33.8,0.1c7.8,0.2,15.7,1.2,23.5,1.6c11,0.6,22,1.1,32.9,1.4c11.6,0.4,23.2,0.8,34.8,0.9
	c7.5,0.1,14.8-1.5,22.4,0.3c6.9,1.6,14.2,1.2,21.3,1.8c5.7,0.5,7.8-2.4,8.7-7.6c1.5-9.1,11.3-16.1,20.5-15c9.9,1.1,19.7,2.5,29.7,3
	c10.2,0.5,20.6-0.4,30.8,0.2c6.8,0.4,12.7-0.8,18.6-3.9c5.2-2.7,8.1-8.7,6.3-14.4c-12.4,12.7-37.3,17.4-51.3,14.3
	c-6-1.3-8.8-3.5-7.5-7c1.7-4.8,5.8-3.4,9.6-2.9c11.6,1.4,22.6,0,33.1-5.8c12-6.8,18-18.7,23.8-29.9c7.2-14,11.1-29,6.5-45.5
	c-3-10.9-9.3-17.5-17.6-19.3c1.4,4.8,2.7,9.8,4.5,14.7c1.3,3.5,4.9,6.7,4.7,9.9c-0.5,8.4-2.3,16.7-4,25c-0.2,1.2-2.9,2.9-3.9,2.6
	c-1.8-0.6-4.2-2.2-4.6-3.9c-2.1-8.5-3.4-17.1-5.6-25.5c-1.4-5.5-2.9-11.7-6.3-15.9c-5.5-6.8-12.6-12.3-19.2-18.3
	c-2-1.8-4.5-3.2-6.2-5.2c-2.2-2.5-2.8-5.3,1.6-6.5c2.3-0.6,4.6-1.3,7.4-2.2c-2.3-3.7-4.9-7.3-6.8-11.1c-3.7-7.3-9.7-10-17.5-9.8
	c-3.9,0.1-8,0.6-11.7-0.3c-7.3-1.8-14.5-3.3-22.2-2.5c-6.6,0.7-13.3,0.8-20,0.6c-19.2-0.4-38.4-2.9-57.7-1.5
	c-5.4,0.4-10.8,0.1-17.2,0.1c2,2.9,3.3,4.3,4,5.9c1.7,3.5,1.4,6.8-1.2,10c-2.6,3.3-5.5,3.3-9.1,2.1c-5.2-1.7-4.6-5.8-4.6-9.7
	c0.1-8.2,0.2-8.2-8-8.5c-1.2,0-2.4,0.1-3.6-0.2c-6.6-1.6-12.9,0.1-19.1,2c-1.1,0.3-2.6,1.8-2.6,2.8c-0.2,5.3-0.4,10.6,0.1,15.9
	c1,10.5,2.4,21,3.7,31.4c0.5,3.9,1.5,7.8,1.4,11.6c-0.2,6.1-0.8,12.2-1.9,18.1c-0.3,1.5-3.7,3.7-5,3.4c-3.7-1-8.7-2.3-10.1-5.1
	c-2.6-5-3.9-11.2-4.3-17c-0.4-7.3,1.1-14.6,1.1-22c0.1-10.7-0.4-21.4-0.4-32.1c0-7.4-1.4-8.7-8.8-8.7c-9,0-18.1-0.5-27.1-0.8
	c-6.6-0.2-12.7-2.8-19.7-2.3c-8.2,0.5-16.5-2.1-24.7-2.7c-6-0.4-11.9-0.1-14.9-6.8c-6.5,5.5-13.6,2.7-20.4,2.6
	c-2-0.1-4.2-1.3-5.9-2.6c-0.8-0.6-1-2.5-0.8-3.6c0.2-0.8,1.7-1.9,2.5-1.9c6.5,0.4,13,0.8,19.4,1.7c3.6,0.5,7.1,2.3,10.7,2.7
	c6.7,0.7,13.7-0.1,20.2,1.5c6.7,1.6,13.2,2.4,20,2.6c12.8,0.5,25.5,1.7,38.2,2.8c8.5,0.8,10.5-0.9,8.1-8.6c-3-9.7-6.8-19.1-10-28.7
	c-0.5-1.6,0.3-3.7,0.5-5.5c2.1,0.4,4.8,0.3,6.3,1.5c1.7,1.4,2.4,4,3.7,6c2,3,3.8,6.2,8.4,4.3c2.7-1,4.8,0.1,5.4,3
	c1.3,6.7,2.6,13.4,3.8,20.1c0.9,5.1,6.1,9.3,10.3,7.5c5.1-2.1,9.8-4.3,12.5,1c2.5-1.2,4-2.4,5.5-2.5c13-0.3,26.1-0.6,39.1-0.5
	c13.8,0.1,27.7,0.8,41.5,0.9c9.5,0.1,19-0.5,28.6-0.6c5.1-0.1,10.2-0.3,15.2,0.3c6.6,0.7,13,2.6,19.6,3.2c8.2,0.7,16.4,0.7,24.6,0.9
	c4.7,0.1,9.7-0.7,14.2,0.3c15.6,3.6,31.1,1.5,46.6-0.1c5.5-0.6,8.8,1.5,9.8,7.1c0.3,1.9,0.5,3.7,0.8,5.6c0.9,4.7-1.2,7.5-5.6,9
	c-3,1-6.8,1.7-8.6,3.9c-2.8,3.3-5.5,3.1-9,2.6c-3.4-0.5-9.2,4.5-10.8,8.8c-1.5,4.1,2,5.4,4.2,7.2c6.8,5.6,13.1,10.7,16.6,19.8
	c6.5,16.6,6,32.2-0.3,48.3c-2,5.2-4.4,10.6-4.9,16.1c-0.9,11.1-0.7,22.2-0.7,33.3c0,4.3,0.9,8.6,1.6,14.7c3.4-3.6,6.5-5.6,7.9-8.4
	c4.5-9,9-18.1,12.5-27.6c4.7-12.7,5.8-26.1,6.7-39.5c0.7-10.5-3.3-20.8-0.1-31.4c0.9-3.1,1.6-5,4.4-5.7c2.8-0.7,5.7-0.8,8.5-1.3
	c4.6-0.9,9.6,2.2,13.8-1.5c3.4-3.1,7-3.6,11.4-1.8c3,1.3,4.3-0.3,4.4-3.5c0.2-10.2,1.3-20.5,0.6-30.7c-0.4-6,4.5-12.6-1.6-18.3
	c-0.9-0.8,0.1-3.8,0.7-5.7c0.2-0.5,1.7-1.1,2.6-1c5,0.4,9.9,1,14.8,1.4c3.3,0.3,3.9-1.8,4.1-4.5c0.7-11,1.3-21.9,2.3-32.9
	c0.3-4,3.4-5.9,7.2-5.8c3.7,0.1,4.8,2.8,4.7,6.1c-0.1,5.3-0.1,10.6-0.5,15.9c-0.4,4.8-2.1,9.5-2.1,14.2c0,11.2,0.6,22.5,1,33.7
	c0.2,4.4,0.8,8.9,0.6,13.3c-0.8,16.2-2.2,32.4-2.5,48.7c-0.3,12.2,1.1,24.3,0.9,36.5c-0.2,9.2-1.4,18.3-2.6,27.4
	c-0.2,1.3-2.5,2.8-4.1,3.2c-7.6,2.2-16.9,7.7-12.9,17.8c0.6,1.6,0.8,3.3,1.3,5c2.8,9.6-1.5,16.6-11.5,17.4
	c-12.8,1.1-25.6,1.8-38.4,1.9c-12.8,0.1-25.6-0.9-38.4-1.3c-3.8-0.1-7.5,0.1-11.3,0c-15-0.5-30.1-1.2-45.1-1.7
	c-6.1-0.2-12.2-0.1-18.4-0.1c-1.7,0-3.5-0.3-5.1,0.1c-17.3,3.5-34.8,0.6-52.1,0.4c-15.7-0.1-31.2-2.4-47.1-1.9
	c-21.9,0.7-43.8-0.7-65.7-1.6c-9.5-0.4-19-1.8-28.6-2.6c-8.6-0.7-17.3-1.2-26-1.7c-7-0.4-14-1-21-1c-8.8,0-17.5,2.6-26.4-0.4
	c-4-1.3-8.4-2.6-12.4-2.3c-8.6,0.6-16.5-0.7-24.2-4.5c-2.4-1.2-5.5-1.4-8.3-1.5c-7-0.2-14,0-21-0.3c-5.3-0.2-10.6-1.9-15.8-1.4
	c-7.6,0.7-14.7-0.2-21.9-2.4c-3-0.9-6.4-0.9-9.6-1c-12.4-0.1-24.9,0.4-37.2-0.2c-3.9-0.2-4.5,0.9-4.7,3.9c-1,14.1-2.1,28.3-3,42.4
	c-0.5,8-0.6,16-0.9,24c-0.6,16.9-1.4,33.8-1.7,50.7c-0.1,7.1,2.2,13.6,9.3,17c9.2,4.4,18.3,9,27.7,12.6c5.7,2.2,12,3.3,18.2,3.9
	c5.5,0.5,11.3-1.3,16.6-0.4c10.4,1.8,19.1-1.1,27.2-7.3c0.8-0.6,2-1.5,2.7-1.3c3.3,1.2,7.7-0.1,9.6,4.3c3.3,7.9,2.8,11.5-1.6,15.3
	c-5.8,5.1-12.9,7.1-20.1,8c-9.8,1.2-19.6,1.4-29.5,1.4c-3.1,0-6.1-2.1-9.2-2.7c-9.1-1.8-18.2-3.4-27.4-5.2c-6.9-1.3-13.8-2.7-20.8-4
	c-0.6-0.1-1.3,0.3-2.4,0.7c0.4,8.5,1.4,16.9,1.2,25.3c-0.3,12.4,3.5,23.5,8.4,34.5c2,4.7,4.9,8.3,9.8,10.6c2.2,1,4.4,3.2,5.3,5.3
	c2,4.7,3.7,9.7,4.5,14.8c0.9,5.5,1,10.8,4,16.1c2.4,4.3,2.4,9.9,3.5,14.9c0.2,1.1,0.5,2.3,1.1,3.3c2.1,3.5,4.3,6.9,7.1,11.3
	c0.2,0.2,2,0.8,2.9,2.1c1,1.5,1.3,3.5,2,5.3c5.7-3.2,8.7,2.3,12.5,4.2c6.3,3.1,11.8,7.8,17.9,11.2c3.1,1.8,6.9,2.4,10.5,3.5
	c2.3,0.8,4.6,1.5,7.6,2.5c0.2-0.1,1.5-0.9,2.9-0.9c4.8-0.1,9.6,0.2,14.4,0c1.4-0.1,2.9-1.1,4.1-2.1c3.8-3,7.3-6.2,11.1-9.2
	c1.9-1.5,3.9-2.7,6.3-4.2c-8.9-5.1-8.9-7.4-1.6-13.5c1.3-1.1,2.4-2.9,3-4.6c2.8-8.4,4.4-9.7,13.1-9.1c2.4,0.2,5.7,0.2,7,1.7
	c3,3.7,5.3,8,3.2,13.3c-0.6,1.4-0.1,3.3-0.1,5c2.1-0.9,2.5-1.9,3.3-2.5c6.4-4.7,7.5-11.8,8.6-18.9c0.2-1.2-1.4-3.4-2.5-3.8
	c-4-1.3-8.2-2.3-12.4-2.9c-9.8-1.5-19.5-3.2-29.4-4c-3.7-0.3-8.9,0.1-9.1,6.3c0,1.1-0.9,2.2-1.7,3.1c-5.4,6.3-12.7,7.1-20.1,5.9
	c-5.9-0.9-12.9-9.8-14-15.6c-0.4-2.2-1.9-5.5-3.5-5.9c-4.3-1.1-8.9-1-13.2-1.3c-2.8,13.4,7.4,24.9,18.1,26.4
	c0.2,1.7,0.3,3.4,0.4,4.2c2.2-0.5,4-1.1,5.8-1.2c1.3-0.1,2.6,0.7,3.9,0.6c6.1-0.3,12.2-1.1,18.2-0.9c2.2,0.1,5.4,1.6,6.4,3.4
	c1,1.8,0.5,6.2-0.8,6.9c-3.1,1.7-7,2.5-10.6,2.5c-9.1,0-17.6-1.4-26.2-5.8c-7.8-4-15.1-7.9-20.9-14.3c-4.3-4.8-6.5-11-6.4-17
	c0.1-8.6,0.8-8.8-7.5-10.7c-1.3-0.3-2.7-0.2-4.1-0.3c-5.9-0.8-9.9-5.4-8.4-10.7c2,0.8,3.8,1.7,5.8,2.2c8.7,2.2,17.4,4.8,26.2,6.1
	c10.7,1.6,21.6,1.9,32.4,3.1c10.9,1.1,21.7,2.6,32.5,3.9c3.8,0.4,7.6,0.6,11.4,1.1c4,0.5,7.4,4.5,11.9,1.8c0.4-0.2,1.6,1,2.5,1.4
	c0.8,0.4,1.7,0.8,2.5,0.8c6.7,0.4,13.6-0.1,20.1,1.3c8,1.7,15.9,3.1,24.2,3.3c12.2,0.3,24.4,2.5,36.7,3.1
	c15.5,0.8,30.9,0.5,46.4,1.3c6.6,0.3,13,2,19.6,3c1.6,0.2,3.2,0.4,4.8,0.6c4.7,0.3,9.6-0.1,14.2,1c4.1,1,7.7,4.3,11.8-0.3
	c0.8-0.9,3.2-0.7,4.9-0.6c1.7,0.1,3.4,0.5,5,0.9c1.3,0.3,2.9,0.4,3.9,1.2c6.6,5.1,14.4,1.6,21.5,2.8c6.9,1.1,14.3-0.8,21.5-1.4
	c0.7-0.1,1.3,0.3,2,0.5c3,0.7,6,1.5,9,1.8c1.2,0.1,2.5-1.5,3.8-1.4c7.7,0.3,15.4,1.6,23-0.9c0.6-0.2,1.3,0.1,2,0.1
	c7.4,0.2,14.7,0.6,22.1,0.7c7.6,0.1,15.2-0.2,22.8-0.3c0.4,0,0.9,0.5,1.3,0.6c5.3,1.2,10.4,3,16.2,0.8c5.4-2.1,11.1-1.4,16.1,0.4
	c2.4-0.8,4.6-1.9,7-2.2c5-0.6,10-0.5,15-1.3c1.4-0.2,3.4-2.3,3.6-3.7c1.1-7.1,2.1-14.3,2.3-21.5c0.2-5.4-1-10.8-1.5-16.3
	c-0.7-8.3,3.8-12.9,12.2-12.8c3.9,0.1,7.8-0.1,11.8,0c8.5,0.1,12.9-4.2,12.9-12.7c0-10.9,0.3-21.8,0.1-32.7c0-3.1-1.2-6.2-5.5-5.8
	c-9.2,0.8-18.4,1.5-27.6,2.6c-7.5,0.9-14.8,2.5-22.3,3.3c-16.2,1.8-32.4,3.2-48.5,4.8c-4.2,0.4-9.8-0.2-12.2,2.1
	c-2.4,2.4-1.5,8-2.1,12.1c0,0.2,0,0.3-0.1,0.5c-1.5,7.4-3.5,14.8-4.4,22.4c-1.8,15.5-13.5,28.2-28.7,29.8c-2.8,0.3-6.6-0.4-8.5-2.2
	c-2-1.8-3.7-5.7-3.2-8.2c0.8-4,4.4-2.4,7.2-1.5c3.8,1.3,8.3-0.7,9-4.4c1.6-9.2,3-18.3,4.3-27.6c0.5-3.9,1-7.8,1-11.7
	c0-3.3-0.7-6.6-1-8.9c-4.4-0.6-7.5-1.1-10.7-1.3c-6.8-0.5-13.6-1.3-20.4-1c-10.2,0.4-20.3,1.9-30.5,2.6c-4.9,0.3-9.9,0.3-14.8,0
	c-8.4-0.6-16.9-2.3-25.3-2.3c-13.5,0.1-27.1,1.7-40.6,1.8c-12.2,0.1-24.5-0.7-36.8-1.8c-9-0.8-17.9-2.5-26.8-3.9
	c-2.5-0.4-4.1,0.2-4.1,3c0,7.8-0.4,15.7,0,23.5c0.3,5.5,4.3,9.5,8.7,11.7c3.5,1.7,4.7,4,3.6,6.6c-0.8,2-3.6,3.4-5.9,4.4
	c-1.9,0.8-4.5,0.2-6.3,1.1c-7.6,3.9-18-0.1-18.9-8.4c-1.2-11.9-0.8-23.9-1.4-35.9c-0.2-3.2-0.7-8.4-2.5-9.1
	c-6.3-2.4-13.1-3.8-19.8-4.6c-7-0.8-14.3-0.2-21.3-0.9c-8.5-0.9-17-2-25.3-3.9c-5-1.1-11.4-2.6-13.9-6.2c-3-4.3-2.4-11-3.7-18.1
	c12.5,2.4,23.6,4.5,34.6,6.7c14.8,2.9,29.4,7.8,44.9,6.3c5.5-0.5,7.3-2.9,5.6-8.4c-0.5-1.6-1.3-3.7-0.8-4.9c2-4.3-1-4.6-3.7-5.1
	c-2.2-0.4-4.4-0.9-6.6-1.1c-16.8-1.6-33.5-3.1-50.2-4.8c-6.5-0.7-7-1.7-5-7.8c0.8-2.3,2.1-4.2-1.5-5.7c-1.9-0.8-2-3.5,0.9-3.8
	c11.2-1.3,22.4-3.3,33.8-0.8c10.2,2.3,20.6,2.3,31.5,0.5c-0.1-3.1-0.2-6-0.4-8.8c-0.5-7.7-1.5-15.3-1.6-23
	c-0.2-14.2,0.1-28.4-0.1-42.5c-0.1-6.9,7.1-13.2,13-9.8c5.8,3.3,11.8,3.1,17.9,3.2c13.5,0.2,27-0.2,40.4,0.4
	c7.3,0.3,14.5,2.8,21.8,3.3c13.4,1,26.8,1.8,40.2,1.9c9.1,0.1,18.3-0.8,27.5-1.7c6.9-0.7,15.9,3.1,19.5,8.8
	c3.2,5.2,1.9,9.5-4.3,10.1c-11,1-22.1,1.4-33.2,1.4c-16.4-0.1-32.8-0.7-49.2-1.2c-11.6-0.3-23.1-0.6-34.7-1c-7.5-0.2-15-1-22.5-0.8
	c-5.7,0.2-11.3,1.5-17,2.2c0,7.2-0.3,15.1,0.1,23.1c0.5,8.9,1.7,17.7,2.4,26.6c0.6,6.9,0.9,7.4,8,7.2c9.4-0.2,18.7-1.1,28.1-0.9
	c9,0.1,17.6-0.8,26.9,2.2c12.4,4,26.2,3.8,39.5,5.1c3.7,0.4,7.5-0.5,11.2-0.3c7.1,0.4,14.2,1.8,21.3,1.9c16.9,0.3,33.8,0.3,50.7,0.3
	c6,0,11.7-0.6,16.3-5.7c5.2-5.8,8.8-11.4,5.5-19.4c-1.6-3.9-3.3-7.9-4.2-11.9c-1.5-6.2-2.8-7.9-9.2-8.1c-6-0.2-12-0.4-17.9,0.1
	c-31.1,2.2-62.2,1.6-93.2-1.3c-1.2-0.1-2.7,0.1-3.5-0.5c-1.5-1.3-3.5-3-3.5-4.6c0-2.2,0.2-5.3,4.1-5.2c11.9,0.1,23.8-0.2,35.7,0
	c7.3,0.1,14.6,0.9,22,0.9c9.5,0,19.1-0.3,28.6-0.9c10.4-0.7,20.7-1.8,31.1-2.8c2.7-0.2,5.4-0.4,8.4-0.6c1.8-4.6,0.4-6.8-4.9-7
	c-2.1-0.1-4.1-0.1-6.2-0.1c-6-0.2-12.2,0.3-18.1-0.7c-5.7-0.9-6.8-4.9-4.1-10c2.7-4.9,9.1-7.1,14.2-4.9c2.2,0.9,4.3,2.6,6.5,2.8
	c4.6,0.6,9.4,1,13.9,0.3c2-0.3,3.2-3.9,5.1-5.8c1.9-1.9,3.9-4.4,6.2-4.9c5.6-1.2,12,3.7,12.7,9.6c1.2,10.5,1.9,21.1,2.5,31.7
	c0.8,15.7,1.4,31.4,2.1,47.1c0.2,5,0.3,9.9,0.3,14.9c0,4.1,2.4,5.7,6,6.1c1.7,0.2,3.4-0.1,5.1-0.1c9.3,0,18.6,0.1,27.9,0.1
	c9.4,0.1,18.8,0.1,28.2,0.2c3.5,0,7.1-0.1,10.7,0c1.7,0,3.4,0.3,5.1,0.3c4.8-0.1,9.6-0.3,14.4-0.6c11.7-0.7,23.4-0.9,35-2.3
	c3.2-0.4,8.2-4.2,8.5-6.8c1.1-10.6,0.8-21.3,0.8-31.9c0-9.2-0.5-18.4-0.6-27.6c-0.1-4.9-0.1-9.8,0-14.7c0.1-4,0.1-8,0.8-11.9
	c0.2-1.2,2.6-3.2,3.4-2.9c1.5,0.5,2.6,2.2,3.6,3.7c0.5,0.8,0.5,2,0.5,3c0.8,11.1,1.7,22.2,2.1,33.3c0.7,16.4,1.1,32.8,1.7,49.1
	c0.1,3.9,0.3,7.8-3.3,10.2c-5,3.3-4.9,8.2-4.9,13.3c0,2-0.7,4.1-0.5,6.1c0.2,1.6,1.1,3.1,1.8,4.6c0.4,0.8,1.4,1.4,1.6,2.3
	c2.5,11.2,2.1,22.3,0.4,33.6c-1,6.4-1.3,12.9-1.9,19.3c0.5,0.2,1.1,0.5,1.6,0.7c5.8-3.6,11.7-7.2,18.7-11.5c-2.3,0-3.1,0-3.9,0
	c0.7-2.9,1.9-5.7,1.8-8.4c-0.2-5.4-1.2-10.8-1.6-16.2c-0.4-5.3,3-10.5,0.3-15.9c-0.4-0.8,0.2-2,0.3-3c0.8-7.4,1.7-14.8,2.2-22.2
	c0.3-5.6,1.5-11,1.6-16.7c0.1-5.8,0.4-11.2-0.6-17.1c-0.9-5.3-1.2-11.7,1-16.3c1.9-3.9,2.2-6.2,0.1-9.5c-0.5-0.8-0.5-2-0.9-2.9
	c-3.2-7.8,1-15.9-1.3-24.2c-2.1-7.8-0.5-16.5-1.1-24.7c-0.4-5.6,1.1-10.9,0.2-16.7c-1.6-9.6-1.2-19.5-1.2-29.2
	c-0.1-13.7,0-27.3,0.2-41c0.2-10.8,1-21.6,1.4-32.3c0.3-8.1,0.8-16.3,0.8-24.4c0-15.2-0.5-30.3-0.5-45.5c0-18.5,0.4-36.9,0.4-55.4
	c0-5.5-0.7-10.9-1.1-16.5c-1.8,0.2-2.3,0.3-2.8,0.4c-7,1.7-8.5,0.7-9.3-6.2c-0.4-3.7-1-7.4-1.4-10.9c-6.8-0.7-12.8-1.1-19.4,1.1
	C667.7,266.5,660.4,266.7,654,259.9z M1467.1,374.3c0.5-3.4,1-6.2,1.3-9c0.8-5.9,1.9-11.7,2.1-17.6c0.2-6.3-0.9-12.6-0.6-18.9
	c0.9-19.2,2.6-38.5,3.2-57.7c0.4-14.2,2.4-28.4,2.5-42.7c0.1-11.9,2.2-23.8,3.2-35.7c0.2-2.6,0-5.4-0.6-8c-0.7-3.2-2.3-6.3-2.9-9.5
	c-2.4-13.6,0.2-27.7-4.1-41.3c-2.2-7.1-3.4-14.5-4.3-21.9c-1.3-11.1-7.8-16.9-18.7-15.2c-9.2,1.5-18.4,3.5-27.5,5.7
	c-9.9,2.4-10.1,3.2-10.5,13.3c-0.7,17.2-4.1,33.7-14.3,48.1c-2.9,4.1-8.2,7.2-10.4,5.7c-2.7-1.8-2.5-7.2-0.6-12.2
	c2.1-5.5,4.2-11.2,4.7-17c0.9-9.3,0.9-18.7,0.5-28.1c-0.2-4.2-1.6-8.5-6.2-10.8c-11-5.5-22.4-5-34-3.1c-1.3,0.2-3.4,1.4-3.4,2.3
	c-0.8,8.8-2.4,17.8-1.5,26.5c0.8,8.3,2.8,16.4,0.1,24.5c-0.8,2.4-3.2,4.3-4.8,6.4c-2.1-2-5.3-3.7-6-6c-2.2-8-3.4-16.2-4.9-24.4
	c-0.1-0.7-0.1-1.4,0-2c1.1-8.4-4.2-17-12.2-20.4c-2-0.8-4.7-1.5-5.7-3.1c-3.4-5.4-7.8-4.8-13-3.8c-8.9,1.6-17.8,3.7-26.7,3.7
	c-15.4,0-30.8-1.3-46.1-2.3c-3.1-0.2-6.2-1.1-9.1-2.2c-0.7-0.3-0.7-2.7-0.8-4.1c0-0.2,0.7-0.5,1.2-1c0.3,1.2,0.5,2.2,0.7,3.2
	c2.4-1.1,4.3-2.7,6.4-2.8c6.5-0.3,12.9-0.1,19.4,0c7.3,0.1,14.7,1,21.9,0.2c6.3-0.7,12.3-4,18.7-4.9c11-1.5,22.1-2.7,33.1-2.9
	c7.3-0.1,15.1-2.2,21.9,2.8c0.8,0.5,2.3,0.2,3.5-0.1c11.4-2.6,22.9-2.2,34.4-0.8c3.9,0.5,7.8,1.7,11.7,1.6c4.9-0.1,9.6-0.9,14,2.5
	c0.8,0.7,4.3-0.3,4.9-1.5c2.2-3.9,4.7-8.1,5.3-12.5c0.5-3.7,2.4-8.1-2.4-11.7c-3.8-2.8-7.3-6.8-9.3-11c-3-6.4-8.1-9.8-14.2-10.3
	c-11.9-1-23.8-0.8-35.8-1c-2.9,0-5.8,0.8-8.6,0.9c-10.1,0.1-20.2-0.3-30.3-0.1c-11.3,0.2-22.7,2.3-33.9-1.5
	c-0.7-0.2-1.7,0.1-2.5,0.3c-8.8,1.9-17.3,0.8-25.4-3.1c-2.3-1.1-3.8-2.4-4-5.8c-0.1-2.7-2.4-6.8-4.7-7.7c-5.9-2.4-12.3-4.2-18.7-4.8
	c-13.9-1.3-27.9-1.8-41.9-2.5c-2-0.1-4.1,0.5-6.4,0.9c1.9,2.6,3.9,4.2,4.7,6.3c3.7,10,7.2,20,10.7,30.1c1.8,5,2.1,10.5-2.5,13.7
	c-4.6,3.2-10.4,4.4-16.2,2c-2.2-0.9-5.1-1.6-6.1-3.3c-2.1-3.6-3.8-7.7-4.5-11.8c-1.2-6.8-6.5-9.8-11.4-14.5c-4,13.1-7.8,25-1.4,37.6
	c2.7,5.3,5.2,6.6,10.5,3.9c1.1-0.5,1.9-1.5,3-2c6.5-2.9,13.2-5.4,20.3-2.8c6.2,2.2,12.1,5.1,18,7.9c5.7,2.7,5.9,8.4,1.4,12.8
	c-2.2,2.1-4,5.3-4.5,8.2c-1.3,7.9-2,15.9-2.4,23.8c-0.5,9.7-0.6,19.5-0.7,29.2c-0.1,13.3,0.3,26.6,0.2,39.9c-0.1,7-1.2,14-0.9,21
	c0.6,14.2,2.4,28.3,2.5,42.4c0.2,20.3-0.7,40.6-1.1,60.9c-0.1,4.1-0.1,8.2-0.2,12.3c0,3-2.2,4.2-4.4,3.3c-2-0.8-4.8-2.7-5-4.5
	c-0.7-6.2-0.6-12.4-0.6-18.7c0-2.6,1.1-5.2,1.1-7.8c0.1-10.1,0.5-20.3-0.2-30.4c-0.7-9.2,4.7-18.4-0.3-27.5c-0.2-0.4,0-1-0.1-1.5
	c-0.6-6.5-0.7-13.2-1.9-19.6c-1.4-7.8,0.3-12.7,6.5-15.5c-3.5-3.8-7.4-7-6.5-13.4c1.1-7.6,1.1-15.3,1.4-22.9
	c0.5-15.4-2.5-30.8-0.8-46.3c1.3-11.6,1.4-23.2,2-34.8c-1.1-0.1-2.6-0.3-4.1-0.3c-6.1-0.2-8.1,1.6-7.8,7.8
	c0.2,5.3,0.7,10.5,0.8,15.8c0.2,12.1,0.1,24.3,0.2,36.4c0.1,4.6,0.2,9.2,0.7,13.8c1.2,11.4,2.8,22.7,4.1,34.1
	c0.4,3.9-0.8,6.8-5.2,7.3c-3.5,0.4-7.2-2.4-7.5-6.7c-0.5-6.1-0.2-12.3-0.5-18.4c-0.2-4.2-0.8-8.3-1.2-12.4c-0.8,0.1-1.7,0.1-2.5,0.2
	c0,2.8-0.1,5.6,0,8.3c0.2,3.6,0.9,7.2,0.8,10.7c-0.4,19.3-1,38.5-1.6,57.8c-0.1,3.9-0.5,7.8-0.5,11.8c-0.1,5.3,0.1,10.5,0.1,15.8
	c-0.1,9.3-0.1,18.7-0.3,28c-0.2,9-0.8,18.1-1.1,27.1c-0.2,6.9-0.2,13.8-0.2,20.8c0,3.3,0,6.6,0,9.9c0.6,0,1.2,0,1.8,0
	c0.2-0.9,0.7-1.8,0.7-2.7c0-11.4-0.3-22.8,0.1-34.2c0.2-7-2.2-14.8,4.5-20.5c0.7-0.6,0.4-2.5,0.4-3.8c0.2-6.7,0.3-13.5,0.5-20.2
	c0.1-5.2,0.9-10.6,0-15.7c-2.6-14.3-0.8-28.5-0.7-42.8c0-3.8,2.9-5.3,5.9-4.8c1.5,0.3,3.4,3,3.6,4.8c0.6,5.9,0.4,11.8,0.6,17.7
	c0.3,8,1,15.9,1.1,23.9c0.3,14,0.3,28,0.3,42c0,4.9-0.5,9.9-0.3,14.8c0.2,7.5,0.7,15,1.3,22.4c0.5,6,1.8,12,2.2,18
	c0.3,4.9-0.7,9.9-0.6,14.9c0.2,4.6,1.1,9.2,1.7,13.8c1.2-13,1.3-25.9,1.1-38.8c-0.1-4.8,2.6-9.5,6.7-10.1c3.7-0.5,5.9,2.1,6.1,8.2
	c0.2,13.3,0.4,26.7,0.2,40c-0.5,28.5-1.3,57.1-1.8,85.6c-0.2,11.7,0,23.3-0.1,34.9c0,3.4,0.4,5.6,4.8,4.8c10.3-1.9,20.7-3.2,31-5.2
	c25.9-4.8,51.7-9.9,77.6-14.7c7.1-1.3,13.2-3.2,14.9-11.4c0.2-1.1,1-2.2,1.5-3.2c5.5-12.3,12.8-22.8,25.8-28.5
	c2.8-1.2,5.8-3.5,7.3-6.1c3.4-5.9,5.8-12.4,8.9-19.2c-2.6,0.1-5.3-0.1-7.8,0.5c-10.3,2.4-20.5,5.1-30.8,7.5
	c-8.3,1.9-16.7,3.6-25.1,5.4c-7.4,1.6-14.9,3.5-22.4,4.5c-5.8,0.8-8.6-3-9.3-10.9c-0.4-5.1,3.6-5.6,7-6.3
	c14.6-3.3,29.3-6.4,43.9-9.9c11.4-2.7,22.5-7.4,34-8.7c13.7-1.5,26.5-5.5,39.5-9.2c1.2-0.3,2.4-2,2.7-3.3c0.4-1.9,0-3.9-0.2-5.9
	c-0.2-1.5-0.5-2.9-0.8-4.4c-1.6,0.3-3.4,0.2-4.7,1c-6.2,3.6-11.3,1.2-12.1-5.9c-0.2-2-0.6-4.1-0.6-6.1c0.1-10.2,0.2-20.4,0.3-30.7
	c0.1-12.7,0.2-25.4,0.2-38.2c0-3.6-0.5-7.1-0.7-10.7c-0.7-12.1-1.6-24.2-1.9-36.2c-0.1-2.1,1.8-5.1,3.6-6.2c2.9-1.8,6.6-2.5,10-3.4
	c4.8-1.2,10-1.1,14.3-3.2c9.8-4.8,20-4.5,30.3-4.6c1.5,0,4.1,1.9,4.3,3.1c1,9.3,1.8,18.7,2.2,28.1c0.8,19.3,1.2,38.6,2.2,57.9
	c0.5,8.9,0.7,17.5-6.6,24.1c-5.7,5.2-11.6,10.2-17.3,15.5c-3.2,3-6,6.3-9,9.5c-4.1,4.3-2.6,9.5-2.7,14.6
	c-0.1,14.8-0.8,29.6-0.7,44.5c0,6.3,1.5,12.6,2,18.9c0.3,3.9-0.4,7.9,0.2,11.7c1.8,11.1,4.4,22,5.9,33.1c1.9,14.2,3.1,28.5,4.7,42.8
	c0.3,2.8,0.9,5.6,1.5,9.1c16.1-8.6,20.7-24.8,29.8-38.1c-0.9,0.1-1.5-0.1-1.9,0.1c-3.8,1.9-7.5,4-11.3,5.9
	c-5.8,2.9-10.2,0.9-11.3-5.5c-0.6-3.3-0.3-6.8-0.3-10.2c0-3.9,3-6.1,6-5.4c3.8,0.8,5.9-1,8.6-2.8c4.1-2.6,9.2-4.8,13.5-1.7
	c3.9,2.8,4.1,7.9,2.8,12.7c-0.2,0.6-0.3,1.2-0.4,1.8c0.5,0,0.9,0.1,1.4,0.1c0.2-10.1,4.1-19.9,1.1-29.5c-9.4,2.7-18.5,5.4-27.5,8
	c-5.7,1.6-9.2-0.5-9.8-6.2c-0.3-3.4-0.1-6.9,0.5-10.2c0.8-4.2,6-7.7,9.2-5.6c5.2,3.4,8.5,0.3,12.6-1.7c5.6-2.8,11.2-8.4,17.6,0.2
	c0-6.6,0-12,0-17.8c-7.7,2-14.6,3.9-21.4,5.6c-2.6,0.7-5.4,1.6-8,1.4c-2.4-0.2-5.4-1.2-6.7-2.9c-2.2-2.9-3.6-6.5-4.8-10
	c-0.4-1.2,0.3-4,1.2-4.4c3.9-1.9,8.4-4.9,12.1-4.2c5.9,1.1,10.7-0.9,15.3-3.1c4.7-2.2,8.6-4.6,12.6,0.9c0-4.4,0-7.9,0-11.3
	c-10.3,2.5-19.9,4.9-29.5,7.3c-0.8,0.2-1.7,0.2-2.6,0.3c-3.1,0.2-6.4-0.1-7-3.7c-0.7-4.2-1.8-9.5,0.2-12.5c1.8-2.8,7.3-3.4,11.2-4.5
	c4-1.1,8.3-1.3,12.3-2.4c5.5-1.5,10.9-3.5,17.4-5.7c0.1-1.4,0.3-4.1,0.5-7.6c-10.1,2.5-19.1,4.8-28.1,7c-3.2,0.8-6.6,1.4-9.9,1.5
	c-5.7,0.2-7.8-1.9-8.5-8.2c1.8-0.2,3.5-0.3,5.9-0.5c-3.5-5.2-0.5-7.5,3.3-9.8c2.5-1.5,2.6-3.5,0-5.1c-3.6-2.1-3.1-4.9-0.8-7.2
	c2.4-2.3,5.3-4.2,8.2-5.8c5.1-2.8,11.5-3.5,15-9c4.7-7.5,4.4-16,4.8-24.2c0.3-7-1-14-0.9-21c0.1-13.5,0.9-26.9,1-40.3
	c0.1-13.7-0.3-27.5-0.5-41.2c0-2.8,0.6-5.7,0.5-8.5c-0.2-6.8-0.8-13.6-1-20.4c-0.2-8,0.1-16.1-0.4-24.1c-0.1-1.5-2.3-4.2-3.5-4.2
	c-6.6,0.1-13.3,1.1-19.9,1.4c-8.6,0.4-17.3,0.7-25.9,0.6c-2.1,0-4.2-1.6-6.2-2.4c0-0.5,0.1-1.1,0.1-1.6c3.3-0.8,6.6-2,10-2.2
	c12-1,24-1.7,36-2.5c4.6-0.3,6.6-3,5.7-7.2c-1.2-5.2,3.7-6.8,5.5-10.2c0.2-0.4,3.4,0.1,4.2,1c1.3,1.6,2.4,3.9,2.6,5.9
	c0.9,14.1,1.8,28.3,2,42.5c0.2,11.5-0.6,22.9-0.5,34.4c0.1,9.2,1.2,18.5,1.1,27.7c-0.1,24-0.4,48-1.1,71.9
	c-0.3,11.6-1.3,23.1-2.2,34.7C1461.7,372.3,1463.4,373.9,1467.1,374.3z M1080.9,782.8c4.7-1.3,8.2-2.5,11.8-3.2
	c1.5-0.3,3.4,1.1,4.9,0.7c11-3,22-5.9,32.8-9.5c8.2-2.7,16.1-6.5,24.2-9.4c6.9-2.4,14.1-3.9,21-6.3c10.8-3.9,21.4-8.5,32.2-12.4
	c5.1-1.9,10.7-2.6,15.7-4.7c5.2-2.2,10.1-5.2,15.1-8c10.2-5.7,20.6-11,30.6-17.2c5.5-3.4,10.4-6.7,17.5-6.6
	c15.1,0.4,30.2,4.2,45.4,0c9.2-2.5,18.6-4,27.8-6.4c2.2-0.6,4-2.9,6.1-4.5c-1-1.1-1.2-1.5-1.4-1.6c-16.9-1.6-27.4-11.2-34.6-26.1
	c-4.5-9.4-8.1-19-11.5-28.7c-0.6-1.6-3.3-3.3-5.1-3.5c-4.4-0.4-8.9,0-13.3,0.1c-12.2,0.3-24.4-1.6-36.5,1c-3.9,0.8-8.2,0.3-12.2,0.2
	c-10.1-0.2-20.1-0.8-30.2-0.7c-8.3,0.1-16.6,1.2-24.9,1.4c-2.9,0-4,1-5.6,3.1c-2.1,2.8-5,5.7-8.2,6.9c-3.5,1.3-7.7,0.6-11.6,1.2
	c-6.5,1.1-13.4,0.7-18.7,6.3c-2.8,3-7.1,4.7-10.5,7.3c-1.7,1.3-3.5,3.2-4,5.1c-2.9,11-4.8,22.3-8.2,33.1
	c-3.2,10.1-6.3,20.8-16.8,26.4c-7.2,3.8-14.6,6.9-22.9,3.6c-2.2-0.9-4.6-1.3-6.7-2.5c-6.5-3.8-14.5-5.2-18.9-12.2
	c-3.8-5.8-7.6-11.6-11.3-17.5c-3-4.7-6-9.5-8.6-13.7c-2.3,2.2-4.7,5.8-6.2,5.5c-3.7-0.8-1.1-4-1-6.4c0-0.8-1.2-2.4-1.7-2.4
	c-3.6,0.4-7.2,0.8-10.6,1.9c-3.7,1.2-7,3.3-10.6,4.8c-8.7,3.5-17.4,7.1-26.2,10.4c-11.7,4.4-23.5,8.4-35.2,12.8
	c-8.5,3.1-16.8,6.6-25.2,9.8c-11.7,4.5-23.3,8.9-35.1,13.2c-5.1,1.9-10.5,3.1-15.5,5.2c-8.5,3.5-16.9,7.3-25.1,11.4
	c-4.5,2.2-9.7,4.5-12.4,8.3c-2.8,4.1-3.1,9.9-4.5,15c-1,3.5,0.8,6,2.6,8.8c3.5,5.4,7,10.9,9.6,16.8c2.8,6.1,8.8,12.6,13.5,11.6
	c9.3-2,17.9,1.5,26.7,2.9c6.6,1,12.4,5.1,14.7,12.1c3.1,9.4,6.7,12.4,16.4,11.3c10.7-1.3,21.3-3.5,31.8-5.7c14.4-3,28.7-6.2,43-9.6
	c3.6-0.8,6.8-2.9,10.3-4.1c1.6-0.5,3.5-0.6,5.2-0.3c3.9,0.7,7.8,1.8,11.8,2.4c2,0.3,4.1,0.1,6.9,0.1c0.3-0.3,1.3-1.6,2.7-2.1
	c6.7-2.8,13.3-5.8,20.2-7.9c3.5-1.1,7.7,0.2,11.1-0.9c8.8-2.6,17.5-5.8,26.1-9.2c1.2-0.4,1.5-2.9,2.3-4.4c-1.4-0.5-2.9-1.7-4.2-1.4
	c-3.3,0.8-6.4,2.3-9.7,3.2c-9.5,2.7-19,5.1-28.5,7.9c-8.8,2.6-17.6,5.5-26.2,8.5c-5.9,2.1-9.8,2.6-12.9-4.8c-3-7-2.8-17,7.3-18.4
	c2.2-0.3,4.4-0.6,6.6-1c2.1-0.4,4.1-1.2,6.2-1.5c1.8-0.2,3.8,0.3,5.6-0.1c11.8-2.7,23.7-5.5,35.4-8.4
	C1074.4,778.6,1079.2,777.1,1080.9,782.8z M564.8,257c-0.1-0.1,0.5,0.5,1.1,0.5c10.5-0.2,21-0.2,31.5-1c4.4-0.3,8.2-2.6,7.3-8.5
	c-0.6-4-0.7-8.1-0.7-12.2c-0.2-16.9-0.2-33.8-0.3-50.7c0-2.9-1.1-3.8-4.1-3.5c-4.6,0.5-9.2,0.7-13.8,0.6
	c-17.6-0.5-35.1-1.2-52.7-1.6c-19.1-0.5-38.3-0.8-57.4-1.2c-9.6-0.2-19.2-0.4-28.7-1c-20.1-1.2-40.2-2.7-60.3-3.8
	c-16.4-0.9-32.7-1.4-49.1-2.2c-7.7-0.3-15.4-1.1-23-1.1c-13.1-0.1-26.3,0.8-39.4,0.2c-16-0.7-32-2.5-47.9-3.6
	c-13.5-1-27-1.8-40.4-2.6c-1-0.1-2.9,1-3,1.8c-0.9,5-1.7,10.2-1.8,15.3c-0.2,8,0.3,15.9,0.3,23.9c0,4.3-0.5,8.5-0.6,12.8
	c0,1.7,0.1,4.2,1.1,4.8c4.6,2.8,9.2,6.6,14.2,7.4c10.8,1.7,21.8,1.6,32.6,2.4c18,1.5,35.9,3.2,53.9,4.7c10.1,0.8,20.2,1.5,30.4,2.2
	c3.9,0.3,7.8,0.3,11.7,0.5c14.1,0.7,28.3,1.7,42.4,2.1c18.8,0.5,37.6,0.5,56.4,0.7c8.9,0.1,17.8,0.3,26.7,0.3
	c7.8,0,15.6-0.7,23.4-0.6c15.1,0.2,30.2,1,45.4,1.1c13.2,0.1,26.3-0.2,39.4-0.8c4.4-0.2,5.8,3,7,5.6
	C567.1,251.2,565.5,254,564.8,257z M909.5,675.8c0.1,0.4,0.3,0.8,0.4,1.2c1.5-0.4,3.1-0.7,4.6-1.2c4-1.3,8-2.7,12-4
	c11-3.5,22-7,33.1-10.5c3.9-1.2,7.9-2.1,11.8-3.3c8.8-2.7,19.1-3.7,21.9-14.9c2-8.2,4.3-16.5,4.9-24.8c0.8-10.5-0.4-21.1-0.1-31.7
	c0.4-13.1,1.2-26.2,2.1-39.3c0.6-9.2,1.6-18.4,2.3-27.7c0.6-8.3,1.2-16.6,1.6-24.9c0.3-6.6,0.5-13.3,0.7-19.9
	c0.1-3.9-1.5-5.2-5.4-3.7c-7.2,2.8-14.4,5.5-21.7,7.9c-7,2.2-14.1,3.9-21.2,5.9c-8.1,2.3-16.1,6-24.3,6.7
	c-13.5,1.1-25.8,6.5-38.7,9.5c-3.3,0.8-5,3.1-4.9,6.8c0.1,7-0.4,14.1-0.2,21.1c0.9,29.4,2.1,58.8,0.1,88.2
	c-1.2,17.4-1.7,34.8-2.4,52.3c-0.2,5,0.9,5.8,5.7,4.6c1.3-0.3,2.7-0.6,3.9-1.2c10.5-5.8,21-11.6,31.5-17.6c4.2-2.4,8.2-5.3,12.2-8
	c2.4-1.6,4.8-3.2,7.3-4.7c2.9-1.7,5.8-3.3,8.8-5c2.3-2,6-2.4,7.6-4.4c4.5-5.4,12.2-6.9,15.9-13.5c0.9-1.6,5.5-1.1,8.4-1.6
	c0.1,2.6,0.7,5.2,0.1,7.6c-0.4,1.8-2.1,3.6-3.7,4.6c-6.2,3.8-12.7,7.1-18.9,10.9c-8,5-15.7,10.3-23.5,15.6c-4.2,2.8-8.1,6-12.4,8.6
	C922.7,669,916,672.3,909.5,675.8z M1314.4,517.7c-5.4,0.5-10.4,0.6-15.2,1.3c-8.1,1.2-16.1,3-24.1,4.3c-12.6,2.1-25.2,3.7-37.8,6.1
	c-13.4,2.5-26.6,5.6-39.8,8.7c-1.3,0.3-2.9,2.6-2.9,3.9c0.3,12.3,1.1,24.6,1.4,36.8c0.2,7.5-0.1,15-0.4,22.6
	c-0.2,6.4-1.2,12.8-1.2,19.2c0.1,4.8,2.8,7.5,8.1,6.9c5.9-0.6,11.9-1.4,17.8-1.5c10.9-0.2,21.9,0.4,32.8,0.1c8-0.3,15.9-2,23.9-2.2
	c9.2-0.2,18.4,0.6,27.6,0.8c6.8,0.2,8.7-2.6,5.9-8.8c-0.8-1.7-2.3-3.4-2.2-5c0.2-4.1-2.1-4.7-5.1-4.4c-8.7,0.7-17.3,1.5-25.9,2.3
	c-6.3,0.6-13,0.1-18.7,2.2c-5.8,2.2-10.8,1.2-15.7-0.7c-2.6-1-5.3-4.1-6-6.7c-0.5-1.7,2.2-4.8,4.1-6.5c1.5-1.4,4-1.7,6.1-2.3
	c5-1.3,9.9-2.6,15-3.5c5.9-1,11.9-1.3,17.8-2.5c9-1.8,17.9-4,26.9-6.2c0.9-0.2,2.1-1.5,2.2-2.5c1.4-7.5,2.6-15,3.7-22.5
	c0.2-1.5,0-3.1,0.1-4.6C1313.2,541.6,1313.7,530.1,1314.4,517.7z M928,332.5c-1.6,0.2-2.6,0.2-3.5,0.5c-18.2,6-36.3,12.5-54.7,18.1
	c-7.8,2.4-10.6,7.1-11.2,14.7c-0.9,13.1-3.8,26.1-1.2,39.3c0.4,2.1,0.4,4.5,0,6.7c-3.2,18.7-0.6,37.1,3.1,55.4
	c0.8,3.7,2.2,4.9,6,3.7c9-2.8,18-5.2,27.1-7.9c11.4-3.3,22.8-6.6,34.2-10.2c1.1-0.3,2.2-2.4,2.4-3.7c0.5-5.2,0.6-10.5,0.9-15.8
	c0.2-3,0.5-6.1,0.5-9.1c-0.2-5.4-0.6-10.7-0.9-16.1c-0.3-4.9-0.5-9.8-0.8-14.7c-0.3-4.7-1.7-9.5-1-13.9
	C931.3,363.8,931.3,348.5,928,332.5z M705.8,128.2c1.2,3.7,2.2,7.1,3.3,10.4c2,6.1,5.2,12,6,18.3c1.5,12.4,1.7,24.9,2.3,37.3
	c0.4,7.5,4.1,11,11.8,10.8c1.7,0,3.7,0.4,5.1,1.2c3.7,2.2,7.1,4.9,11.2,0.6c0.8-0.8,2.9-0.4,4.4-0.3c2.2,0.3,4.3,1.2,6.5,1.2
	c9.4,0.2,18.9-0.6,28.2,0.4c18.9,2,37-3.4,55.5-4.4c0.3,0,0.5-0.4,1.3-1.1c-1.5-1.9-3.6-3.7-4.4-5.9c-4-10.8-7.5-21.7-11.6-32.5
	c-2.1-5.4-4-11.3-7.8-15.5c-7.1-7.8-15.6-14.1-27.3-13.1c-1.6,0.1-3.3-0.8-5-1c-7.4-0.6-15.1-2.7-22.1-1.3
	c-10.6,2-20.3,0.5-30.2-2.7C724.4,128.1,716,124.2,705.8,128.2z M758.6,494.4c3,0,5.5,0.4,7.8-0.1c11.1-2.4,22.1-5,33.1-7.6
	c10.6-2.5,21.2-4.9,31.8-7.8c1.5-0.4,3.2-2.7,3.4-4.4c0.5-3.5-0.4-7.2,0-10.7c0.9-8.5,3.9-16.5,2.5-25.6c-1.7-11-0.9-22.5-1.4-33.7
	c-0.5-11.9-1.3-23.8-2.1-35.7c-0.3-5.1-2-6.3-7-4.9c-6.4,1.8-12.7,3.8-19.1,5.7c-11.6,3.5-23.1,7.2-34.8,10.2
	c-3.6,0.9-4.8,2.4-4.9,5.8c-0.5,9.5-1.2,19-1.8,28.6c-0.8,13.5-1.9,27-2.5,40.5C763,467.8,764.5,480.8,758.6,494.4z M950.9,399.6
	c1.3,12.5,2.5,25.2,4.2,37.9c0.8,6,3.5,7.6,9.4,6.2c7-1.7,13.8-3.9,20.7-5.8c8.8-2.4,17.6-5,26.5-7c6.3-1.4,8.3-3.3,8.4-10
	c0.1-10.9-1.1-21.9,0.5-32.5c1.5-9.8-2.7-18.1-3.7-27.2c-0.1-1.2,0.3-2.5,0.5-3.7c0.7-5.5,1.3-10.9,2-16.3c0-0.1-0.2-0.3-0.3-0.4
	c-1-2.8-2.2-5.6-2.9-8.5c-1.6-6.8-2.9-13.7-4.2-20.5c-0.7-3.3-2.6-4.2-5.6-3.4c-15.3,3.8-30.7,7.5-45.9,11.7
	c-4.3,1.2-7.3,4.2-7.2,9.7c0.1,10-0.7,20-1,29.9C951.6,372.8,951.3,386,950.9,399.6z M1036.7,408.3c-1.2,5,0.7,7.8,5.3,8.3
	c3.9,0.4,8.2,0.9,11.9-0.1c11.7-3,23.3-6.3,34.7-10.4c5.2-1.9,12.3-3.1,12.6-10.9c0.3-9.5,0.3-19.1,0.3-28.6
	c0-5.4-0.7-10.9-0.6-16.3c0.1-4.1,1.1-8.2,1.2-12.3c0.3-8.3,0.3-16.6,0.4-24.9c0.1-8.2,0.1-16.3-0.1-24.5c-0.1-3.7-1.8-6.4-6.2-5.3
	c-10.2,2.5-20.7,4.1-30.6,8.1c-6.1,2.4-12.5,3.9-18.7,5.8c-9.9,3.1-10.3,4-10.5,14.5c-0.2,8.9-0.9,17.8-1.7,26.6
	c-0.8,8.8-2.9,17.5-2.9,26.2c0,10.3,1.7,20.7,2.8,31C1035.1,399.8,1036,404.2,1036.7,408.3z M1329.7,552.6c0.7,0.4,1.4,0.7,2.1,1.1
	c0.6-1.2,1.6-2.4,1.7-3.6c0.4-4.2-0.9-9.3,0.9-12.6c4-6.9,9.5-13.1,14.6-19.3c2-2.5,4.2-4.9,6.8-6.8c8-6,22.8-5.6,29,0.5
	c3,2.9,3.8,7.5,1.2,9.5c-3.2,2.5-6.2,0.8-8.4-2c-2.8-3.4-6.5-3.6-9.7-1.7c-12.1,7.6-20.9,17.5-20.6,33c0.1,5.6-0.9,11.2-1.1,16.9
	c-0.3,9.9-2.1,20.2-0.1,29.6c2.9,13.3,5.3,27.2,14.3,38.5c5.8,7.3,8.7,11.8,19.7,5.8c3.8-2.1,6.8-0.7,7.4,3.5
	c0.4,2.4,0.1,5.2-0.7,7.6c-1.4,4.4-3.3,8.6-5.1,12.8c-0.3,0.7-1.1,1.4-1.8,1.6c-5.1,1.1-10.2,1.9-15.2,3.3
	c-6.1,1.7-10.7-0.2-14.5-4.8c-7.2-8.7-9.9-19.2-10.7-30.2c-0.3-3.7-2.7-7.6,0.8-11.2c0.6-0.6-0.3-2.5-0.6-3.8
	c-1.8-8.5-4.3-16.8-5.4-25.4c-1.2-10.3-1.2-20.7-1.8-31.1c-0.2-2.8-0.8-5.5-1.2-8.2c-1.1,4.3-0.8,8.4-1.1,12.5
	c-0.5,7.5-1.7,14.9-1.9,22.3c-0.4,15.7-0.3,31.4,2.4,47c2.8,16.1,8.8,30.1,21.1,41c5,4.4,17.2,5.2,22.8,1.6
	c11.3-7.2,15.6-19,17.9-30.9c3.3-17.6,5.2-35.5,6.7-53.4c1-11.7,0.4-23.6,0.2-35.3c-0.1-7.3-0.8-14.7-1.5-22
	c-1.2-13.3-3.5-26.3-11.8-37.4c-2.7-3.6-4.9-7.5-7.9-10.8c-1.9-2.1-4.6-4.3-7.2-4.8c-14.4-2.9-32,8.5-35.1,23.8
	C1333.1,523.5,1331.7,538.1,1329.7,552.6z M516.7,661c-3.7-0.3-7.1-0.5-10.4-0.9c-4-0.6-8-1.9-12-2c-9.4-0.2-18.9,0.2-28.3,0.1
	c-12-0.2-24-0.8-36-1.2c-0.9,0-1.8,0-2.5-0.4c-1.1-0.7-2.5-1.5-2.8-2.5c-0.2-0.7,1.3-2.4,2.2-2.7c4.9-1.3,9.9-3,14.9-3.1
	c14.3-0.2,28.7,0.3,43,0.7c6.6,0.2,13.2,0.3,19.7,1.3c12.5,2,14.8,0,12.7-12.6c-0.1-0.7,0-1.8-0.4-1.9c-1.2-0.6-3.1-1.6-3.7-1.1
	c-7.6,6.5-16.5,7.5-26,7.1c-11.2-0.5-22.5-0.6-33.8-0.8c-8.7-0.2-17.4-0.3-26.1-0.7c-7-0.3-13.9-0.9-20.9-1.2c-3.3-0.1-5.4,1-3.8,5
	c1.7,4.5-0.9,7.8-5.9,7.6c-14-0.6-28-1.3-42-2c-6.3-0.3-12.6-0.2-18.9-0.8c-8.2-0.9-16.4-2.4-24.6-3.5c-3.1-0.4-5.5,0.7-5.4,4.4
	c0.1,4.1,0,8.2,0.5,12.3c0.2,1.8,1.5,4.6,2.9,5c8.6,2.8,17.2,6.2,26.1,7.2c16.3,1.8,32.7,2.2,49.1,3c8.7,0.4,17.3,3.9,26,1.3
	c3.5-1.1,6.2,0.2,9.2,1.1c3.9,1.2,7.7,2.6,11.7,3.4c10.5,2.3,21.1,2.5,31.9,1.6c16.8-1.5,33.9,0.3,50.4-4.8c3.7-1.1,5.3-3,4.9-6.5
	C517.9,669,517.2,664.8,516.7,661z M814,735c0.4-1.3,0.7-3.1,1.5-4.5c3-5.2,2.3-9.4-2.2-12.9c-1.3-1-2.5-2.2-3.4-3.6
	c-6.3-9.1-7.6-19.3-5.7-29.8c1.3-7.4,2.9-15.2,12.5-17.2c1.4-0.3,2.8-3.5,3.1-5.5c0.3-2.4-0.6-5-1-7.6c-0.8-4.3-9.4-10.8-13.8-10.4
	c-7.5,0.5-11.5,4.7-12.1,12.6c-0.7,9.3-2.5,18.2-8.1,25.9c-3.8,5.3-13,5.4-14.7-0.3c-2.1-6.8-3.7-14-3.6-21c0.1-7.7,1.5-15.7,3.9-23
	c2.3-7.1,5.6-14.6,10.5-20c5.1-5.7,13.9-7,21-4.6c6.6,2.2,14.5,6.2,17.6,11.7c5.4,9.8,8,21.2,10.9,32.2c1.7,6.6,1.8,13.7,2.6,20.5
	c2.1-2.9,3.6-5.9,3.6-8.9c0-5.5-0.9-11-1.4-16.5c-2.1-21.6-5.7-42.6-18.5-60.9c-3.5-5-10.7-8.1-16.8-6.7
	c-8.6,1.9-14.6,7.5-20.4,13.5c-2.5,2.6-5.7,4.8-7.2,7.9c-3.4,7.2-6.4,14.7-8.7,22.4c-2.5,8.3-4.4,16.9-6,25.5
	c-1.4,7.3-2.4,14.7-2.7,22.1c-0.2,4.9,1.1,9.8,2.1,14.7c1.9,9.1,3.4,18.2,8.3,26.7c3.9,6.8,5.8,14.8,8.2,22.4
	c1,3.3,0.6,7.1,1.3,10.6c1,5.2-0.9,9.2-5.9,11.3c-2.3,1-4.6,2.4-7,3.2c-3,1.1-3.5,3.1-2.7,5.7c1.2,3.7,2.3,7.6,4.2,10.9
	c1.3,2.2,4.1,3.6,6.2,5.3c0.7-2,1.4-4,2.2-6.1c0.1-0.2,0.2-0.3,0.6-1.2c1.8,0,4.3-0.7,6.1,0.1c8.6,4.3,15.6,1.7,21.3-4.8
	c1.9-2.2,2.6-5.8,3-8.8c0.1-0.8-3.2-2.1-5.1-2.9c-9.8-4-11.5-11.6-5.4-20.2C796.9,735.9,805.9,736.3,814,735z M730,596.3
	c-0.8-3.7-1.7-6.5-1.9-9.4c-0.2-4.7,0.1-9.4,0.1-14.2c0-11.2-0.2-22.5,0-33.7c0.1-5.6,1.1-11.1,1.1-16.7
	c-0.1-13.3-0.8-26.5-0.7-39.8c0.2-13.6,1.4-27.2,1.7-40.8c0.2-10.7-0.4-21.3-0.4-32c0-3.5,1-7,1-10.6c-0.2-8.4-0.8-16.7-1.1-25.1
	c-0.5-15-0.7-29.9-1.2-44.8c-0.4-12.8-0.7-25.7-1.7-38.4c-0.8-10.1,3.7-16.4,11.8-21.2c1.3-0.8,2.5-3.3,2.3-4.8
	c-0.7-4.7-2.3-9.3-3-14c-1-6.7-1.7-13.2-11.2-11.2c-0.4,0.1-0.9-0.5-1.4-0.6c-4.6-1.4-6.6-0.4-6.7,4.6c-0.3,17.4-0.3,34.8-0.5,52.3
	c-0.1,15.7-0.4,31.4-0.5,47.2c-0.2,20.3-0.1,40.5-0.4,60.8c-0.1,6.4-1.4,12.9-1.5,19.3c-0.3,9.5,0,19,0,28.5
	c-0.1,12.6-0.6,25.2-0.5,37.8c0.1,10.8,0.8,21.5,1,32.3c0.1,6.1-0.5,12.2-0.2,18.3c0.8,18.3,2.3,36.6,2.7,55
	c0.3,14.8-0.7,29.7-1.1,44.6c-0.1,4.3,0,8.7,0,13.3c6.8-2.3,7.9-3.5,8.2-10.1c0.4-12.4,0.5-24.8,0.9-37.3
	C726.7,601.9,725.6,597.5,730,596.3z M413.1,880.8c9.2,5.9,17.5,2.3,25.2,2.6c7.8,0.3,15.6-1.7,23.5-2.6c1.4-0.2,2.9,0.4,4.4,0.5
	c1.1,0.1,2.2,0.4,3.3,0.1c4.8-1.2,8.8-5.2,14.3-4.3c0.7,0.1,1.8-0.9,2.5-1.6c8.8-7.3,17.5-14.6,26.3-21.8c2.8-2.3,5.8-4.2,8.5-6.5
	c4.5-3.9,8.8-7.9,13.2-11.9c6.7-6.2,13.5-12.3,20.1-18.6c0.7-0.7,1-1.9,1.7-3.4c-12.2,0.6-23.7,1.2-35.2,1.8
	c-6.7,0.3-13.5,0.5-20.2,1c-9.5,0.8-19,1.9-28.5,3.1c-1.2,0.1-2.5,1-3.4,1.8c-4.9,4.7-9.7,9.5-14.4,14.3c-4.3,4.3-8.7,8.6-12.8,13.2
	C432.3,859.1,423,869.7,413.1,880.8z M1389.2,374.7c5.5-1.3,11.1-2.6,16.7-4c1.1-0.3,2.3-0.9,3.2-1.6c6.1-4.5,12.6-8.7,18.2-13.7
	c6.2-5.6,10.1-12.5,5.9-21.3c-0.6-1.3-0.2-3-0.2-4.5c0.3-5.1,1-10.2,0.8-15.3c-0.2-6.8-1.8-13.5-1.7-20.3
	c0.1-12.1-0.2-24.2-2.6-36.1c-0.6-3.1-1.1-6.2-5.9-4.1c-3,1.3-6.6,1.4-9.8,2.1c-7.9,1.8-15.9,3.5-23.8,5.6c-1.4,0.4-3.3,2.6-3.4,4
	c-0.2,5.4,0.1,10.9,0.4,16.3c0.6,9.2,1.8,18.4,1.9,27.6C1389.4,331.3,1389.2,353.2,1389.2,374.7z M152.4,243.2
	c2.3-9.5,4.5-18.2,6.6-27c0.9-3.9,2.1-7.8,2.2-11.8c0.2-10.3-0.3-20.7-0.3-31c0-6.3-1.7-7.8-7.9-7c-4.7,0.6-9.6,0.9-14.2,0.2
	c-3.8-0.5-6.8,0-9.3,2.5c-6.9,7.1-12,15.3-13.2,25.3c-1,8.6-4.1,10.8-12.6,6.8c-0.8,6.2-1.6,12.1-2.4,18.2c5.8-0.9,6.2-0.8,6.7,4
	c0.6,5.6,0.8,11.2,1.1,15.6C124.2,240.6,138.4,241.9,152.4,243.2z M1123.6,579.9c0.2-1.7,0.5-3.4,0.6-5c0.4-9.4-7.5-11.2-13.5-14.5
	c-3.3-1.8-6.9-2.6-10.6,0.2c-1.9,1.5-4.7,2.1-7.2,2.5c-3.6,0.6-6.5-1.9-5.5-4.6c1.1-2.8,2.5-5.8,4.6-7.9c4.7-4.6,9.9-8.7,14.9-12.9
	c4.5-3.8,3.8-10.7-1.6-13.2c-11.6-5.4-19.9-2.6-26.6,9c-3.8,6.6-6,14.1-8.3,21.4c-2.1,6.6-4.3,13.4-4.8,20.3
	c-1.4,17.3-5.2,34.5-2.7,52.1c1.6,11.5,2.5,23,3.8,34.6c0.1,1.2,0.9,2.3,2.1,4.9c0.9-2.8,1.9-4.1,1.8-5.3c-0.8-5.6-2-11.2-2.9-16.8
	c-3.2-20.3-1.1-39.2,11.4-56.7c6.8-9.4,15.7-12.2,25.8-12.3C1110.9,575.6,1116.8,578.3,1123.6,579.9z M1410.9,619
	c10.1-1.6,19-2.6,27.8-4.5c15-3.2,29.9-6.6,44.7-10.6c14.5-3.9,28.9-8.5,43.2-13.1c6.6-2.1,12.9-4.9,19.2-7.7c1.2-0.5,1.6-2.6,2.3-4
	c-1.4-0.7-2.9-2-4.3-2c-5.6,0.2-11.3,0.9-16.9,1.1c-33.3,1.2-65.4,8.9-97.2,18c-1.6,0.5-3,2.1-4.2,3.4c-4,4.3-7.9,8.7-11.6,13.2
	C1412.8,614.4,1412.2,616.4,1410.9,619z M841.4,743c3.4-0.7,6.6-1.2,9.7-2.1c2.1-0.6,3.9-2.2,6-2.9c1.9-0.7,4.1-0.4,5.8-1.2
	c3.6-1.7,6.8-4,10.4-5.7c11.9-5.6,25.1-7.7,36.9-13.7c3.3-1.7,6.8-3.1,10.3-4.3c8.5-3.1,17.2-5.9,25.7-9c6.6-2.4,13.1-5.2,19.7-7.7
	c3.1-1.2,6.2-2,9.3-3.2c4.2-1.6,8.5-3.1,12.7-4.9c6-2.6,11.9-5.6,17.9-8.2c6.7-2.9,13.4-5.7,20.2-8.3c4.7-1.8,5-4.8,3.1-10.1
	c-6.4,2.2-12.6,4.3-18.7,6.6c-17.6,6.4-35.2,12.8-52.7,19.4c-16.1,6-32.8,10.2-48.1,18.4c-9.7,5.2-20,9.9-30.5,13
	c-10.8,3.1-21.8,4.8-31.5,11.1C842.2,733.5,840.6,735.4,841.4,743z M647.4,417.4c-0.9,13.3-1.9,26.4-2.5,39.5
	c-0.4,9.9-0.2,19.9-0.2,29.8c0,5.3,0.5,10.6,0.6,15.8c0.1,4.4-0.2,8.9,0.3,13.3c0.2,1.7,2.1,3.2,3.2,4.7c1.2-1.3,2.6-2.5,3.5-4
	c0.6-0.9,0.8-2.3,0.7-3.5c-0.3-6.3-0.8-12.6-1-18.9c-0.2-6-0.4-11.9-0.4-17.9c0-6.8,4.9-10.4,9.7-14c1.2-0.9,2.6-2.3,2.8-3.6
	c0.3-3.2-0.4-6.5,0-9.7c0.2-1.8,1.7-3.4,2.6-5.1c1.8,1.4,4.9,2.6,5.1,4.3c1,6,1,12.2,1.3,18.3c0.1,2-0.3,4.1-0.3,6.1
	c0,4.3,1.5,7.6,6.2,7.7c4.3,0.1,5.6-3.4,5.1-9.2c-0.3-4.1,0.6-8.3,1.1-12.5c0.4-3,1.3-6,1.5-9c0.3-4.9,0.1-9.9,0.2-14.8
	c0.2-6.9-0.2-7.3-7-7.4c-1.7,0-3.4,0-5.1-0.1C665.1,426.5,656.1,423.4,647.4,417.4z M709.4,758.9c6.7-3.2,12.6-5.9,18.3-9
	c3.5-1.9,6.4-4,6-9.3c-0.9-10.6-0.5-21.3-1-31.9c-0.4-7.5-1-15-2.3-22.4c-0.5-2.7-1.4-4,1.8-5.3c3.3-1.4,5.6-1.2,7.2,2
	c0.6,1.2,1,2.6,1.5,3.9c0.5-0.1,1-0.1,1.5-0.2c0-10,0-20.1,0-30.9c-5.7,1.8-11.4,3.2-16.8,5.2c-5.6,2-10,5.2-9.4,12.2
	c0.1,1.4-1.3,3-2,4.5c-0.4,0.9-1.2,2.1-0.9,2.7c4.5,9,2,18.7,1.7,27.8c-0.5,15.1-1,30.4-5.8,45C708.5,755,709.3,757,709.4,758.9z
	 M1001.4,650.1c3.3-0.5,5.9-0.3,8.1-1.2c9-4,17.7-8.5,26.7-12.5c2.6-1.2,3.1-2.3,2.7-5c-0.5-4.4-0.7-8.8-0.5-13.2
	c0.4-8.9,3.7-17.8,1.1-26.9c-0.4-1.6-0.2-3.4,0-5.1c0.8-5.3,0-6.6-5.2-5.3c-7.6,1.9-14.9,4.7-22.3,7.2c-0.9,0.3-1.8,1.6-2,2.5
	c-0.6,4.4-1.1,8.8-1.4,13.2c-0.7,10.3-1.1,20.6-1.8,31c-0.1,1.2-0.6,2.3-1,3.4C1004.6,641.9,1003.2,645.4,1001.4,650.1z M256.9,53.3
	c8.9,0,17.2-0.7,25.4,0.2c10.4,1.2,20.7,2.7,31.3,2.6c9.3-0.1,9.3,0.7,10.8-8.7c0.1-0.7,0.1-1.4,0.3-2c1.8-6.1-0.2-8.9-6.5-9.3
	c-6.7-0.5-13.7-0.1-20-2c-6.6-2-13.4,2.2-19.6-1.9c-0.7-0.4-2.1-0.2-2.9,0.2c-6.1,3-12.9,5.2-18.1,9.4c-6,4.9-13,8.8-16.9,16.7
	c-2.4,4.9-5,8-2.1,13.5c2.8,5.5,2.2,5.8,7.3,2.4c1-0.7,2-1.7,2.6-2.8C251.2,65.5,253.9,59.6,256.9,53.3z M1050.2,593.7
	c0.6,0.1,1.1,0.2,1.6,0.3c0.5-2.2,1.3-4.4,1.5-6.6c0.5-4.8,0.1-9.7,1.1-14.3c3.6-15.5,6.3-31.2,15.5-44.9
	c5.7-8.4,12.9-14.2,22.8-15.4c5.7-0.7,11.8,1.1,18.8,1.8c-3.8-6.2-7.1-12-10.8-17.5c-4.7-7.1-13.3-8.6-20.3-3.9
	c-1.2,0.8-2.7,1.5-4.2,1.9c-4.8,1.2-7.5,4.5-8.9,9c-3.4,10.9-7.5,21.6-9.7,32.7c-2.9,14.7-4.4,29.7-6.3,44.6
	C1050.7,585.4,1050.5,589.6,1050.2,593.7z M740.3,353c0,0-0.1,0-0.2,0c0.1,2.4,0,4.8,0.4,7.2c0.5,3.5,6.2,8.3,8.7,6.7
	c2.3-1.5,3.4-5.1,4.5-8c0.7-1.8,0.1-4,0.2-6c0.7-9.8,2.2-19.6,2-29.4c-0.2-8.2-2.1-16.4-3.5-24.6c-0.6-3.7-1.1-7.8-3.1-10.6
	c-1.4-1.9-5.5-2.1-8.4-2.5c-0.7-0.1-2.4,1.9-2.4,3c-0.3,9.4-0.8,18.8-0.5,28.1C738.3,328.8,739.5,340.9,740.3,353z M1121.7,606.1
	c0.3-0.4,0.6-0.8,0.9-1.2c-0.6-2.4-1.1-4.9-2-7.3c-0.7-1.9-2.1-3.6-2.7-5.5c-2.3-6.7-16.7-8.9-21.6-5.8
	c-9.6,6.1-15.3,15.5-17.3,25.7c-2.9,14.7-2.3,29.8,1.5,44.6c1.5,5.8,6.2,7.4,10.7,9.2c0.8,0.3,3.1-0.9,3.6-1.9
	c2.1-4.7,4.1-9.5,5.6-14.4c1.1-3.5,1.5-7.2,2.3-11.2c-2.7-0.3-4.7-0.4-6.7-0.9c-6.9-1.8-12.2-6-14-13.2c-2.6-10.1-0.6-17.3,8.7-22.9
	c6.8-4,13.8-4.4,20.4-0.1C1114.4,603.3,1118.2,604.5,1121.7,606.1z M878,532.2c-4.7,0.3-9.8-1.1-11,4.7c-1.5,7.5-2.4,15.1-3.4,22.7
	c-1.2,9.9-2.4,19.9-3.3,29.9c-0.4,4.4-0.1,8.8-0.1,14.6c6-2.3,11-3.9,15.7-6.1c5-2.4,5.3-5.3,3.6-10.5c-1.1-3.4-1.5-7.3-1-10.9
	c1-6.3,3.4-12.4,0.9-18.8c-0.5-1.3-0.2-3-0.3-4.5C878.8,546.2,878.4,539.3,878,532.2z M258.3,75.6c5,0,9.5-0.3,14,0.1
	c10,0.8,19.9,2,29.9,2.8c8.7,0.7,17.4,1,26,1.6c2.8,0.2,5.9,2,7.1-2.3c0.9-3.3-1.6-8.3-4.5-9c-7.6-1.7-15.2-3.3-22.9-4.9
	c-0.8-0.2-1.7,0.1-2.6,0c-10.5-0.4-21-1.2-31.5-1.3C262.9,62.6,260.2,63.5,258.3,75.6z M1086.1,676.9c1,3.3,1.1,6.9,2.9,9
	c2.7,3.1,6.5,5.3,10,7.6c0.4,0.3,2-0.6,2.5-1.2c3.4-4.2,7.4-8,9.7-12.7c3.8-7.9,6.5-16.3,9.7-24.5c0.6-1.5,1.2-3.8,2.3-4.2
	c5.3-2,5.5-5.8,5.1-10.6c-0.5-5.5-0.1-11.1-0.1-17.3c-3.2,0.4-5.7,0.9-8.2,1.1c-3.9,0.3-4.8,2.8-5.3,6.2
	c-1.9,10.7-3.6,21.4-6.3,31.9C1105.5,672.9,1097,678.2,1086.1,676.9z M1120.2,696.1c-0.6-0.2-1.2-0.5-1.8-0.7
	c-2.4,1.8-5.3,3.2-7.2,5.4c-7.5,8.9-17.1,7.8-26.4,5.2c-5.5-1.5-10.7-5-13.1-11.2c-2.2-5.7-5-11.1-11.2-13.9
	c-1.5-0.7-2.5-3.5-2.9-5.5c-2.3-13.4-4.3-26.8-6.4-40.2c-0.6,7.1-0.4,14.1,0.2,21.1c1.5,19.6,10.2,36.3,20.8,52.2
	c4.5,6.8,12.4,9.2,19.2,12.8c6.4,3.3,12.5,2.2,16.9-3.3c3.3-4.1,6-8.9,8.7-13.5C1118.5,701.9,1119.2,698.9,1120.2,696.1z
	 M542.2,667.6c0.1,2,0.1,4.1,0.3,6.1c0.5,5.9,2.3,7.1,8.3,5.8c8.5-1.8,17-3.2,25.3-5.5c5.2-1.5,10.2-4.2,15-6.7
	c1.1-0.6,2.1-3.6,1.5-4.3c-1.4-1.8-3.6-4.2-5.5-4.3c-11.6-0.2-23.2,0.5-34.8,0.5C542.8,659.2,542.8,658.9,542.2,667.6z
	 M1146.4,100.9c-0.5,0-1,0-1.5,0c-0.2,1.2-0.6,2.5-0.6,3.7c0.3,10.9,0.8,21.7,1.2,32.6c0,1,0.1,2,0,3c-0.6,4.2-1.9,8.5-1.8,12.7
	c0.4,17.6,1.4,35.1,1.9,52.7c0.3,10-0.2,20.1-0.2,30.1c0.1,9.7,0.2,19.4,0.6,29.1c0.3,6.9,1.4,13.8,2.1,20.7c0.6,0,1.2-0.1,1.7-0.2
	c0-8.3-0.1-16.6,0-24.9c0.1-6.6,0.7-13.1,0.7-19.7c0.1-12.8,0-25.7-0.1-38.5c0-3.3-0.4-6.7-0.4-10c0-8.2,0.3-16.3,0-24.5
	c-0.6-17.2-1.4-34.5-2.3-51.7C1147.6,110.8,1146.9,105.9,1146.4,100.9z M1399.4,481.6c0.6-0.2,1.1-0.4,1.7-0.7
	c-1.2-6.3-2.5-12.7-3.6-19.1c-1.3-7.6-4.3-14.2-10.4-19.2c-0.4-0.3,0.6-3.4,1.2-3.5c3-0.4,6-0.2,9.2-0.2c1.9-8.1-4.6-12.3-13.2-10.9
	c-2.5,0.4-4.2,1.1-3.5,4.2c0.7,3.2-0.8,5-4.1,5.8c-6,1.4-8.1,4.3-8.3,10.8C1386.5,452.2,1392.6,467.2,1399.4,481.6z M643.2,780
	c2.9-2.9,6.5-5.1,7.7-8.1c3-7.2,5-14.8,7.1-22.3c0.5-1.7,0.4-3.8-0.2-5.5c-0.4-1.2-2.2-2.6-3.3-2.7c-4.8-0.1-9.6,0.8-14.4,0.6
	c-4.4-0.2-4.7,2.1-4.6,5.3c0.2,6.6,0.8,13.3,0.1,19.8C634.8,773.3,639.8,775,643.2,780z M679.5,675.7c-2,0.4-3.5,0.9-5,0.9
	c-3.8-0.1-4.9,2.2-4.4,5.3c1.9,12.1-0.3,24-0.7,36c-0.3,9.4-0.6,18.8-1.1,28.2c-0.2,3.5-1,6.9-1.7,11.9c2.2-2,3.7-2.7,4-3.8
	C677.1,728.6,682.1,702.9,679.5,675.7z M687.4,201.3c-0.8,1.8-1.2,2.4-1.2,3c-0.4,13.9-0.8,27.7-1.1,41.6c0,2.2,0,5.2,3.2,4.4
	c1.3-0.3,2.9-3,2.9-4.6c0.1-4.4,2.2-6,6.3-6.2c2.5-0.1,5.1-1,6.6-1.4c-0.9-4.7-1.8-8.4-2.3-12.2
	C700.8,215.8,694.3,209.1,687.4,201.3z M746,770.3c-0.6,0.2-1.1,0.4-1.7,0.6c0,1.8-0.2,3.7,0,5.5c1,7.8,5.6,13.7,10.4,19.4
	c7.1,8.4,13.8,17.6,26.7,16.9c1.3-0.1,2.7,0.5,4,0.9c8.8,3.1,15.3-0.1,20.5-7.2c0.8-1.2,1.5-2.4,2.4-4
	C777.3,810.7,756.1,801.4,746,770.3z M697.6,742.7c-2.3,0-4.8-0.5-7,0.1c-2.2,0.6-5.2,1.9-5.9,3.7c-4.1,9.7-7.1,19.8-13.9,28.2
	c-0.6,0.7-0.2,2.2-0.3,3.4c1.3,0.1,2.8,0.7,3.7,0.2c2.6-1.5,4.7-3.9,7.3-5.2c7.3-3.5,11.6-9.1,15.5-16.3
	C699.8,751.5,700,747.7,697.6,742.7z M1138.7,22.2c3,1.6,4.7,2.8,6.6,3.5c11.2,4.5,17.2,14,23,23.7c2.2,3.6,3.8,7.6,6.1,11.2
	c0.6,0.9,2.7,1,4.1,1.1c0.4,0,1.3-1.7,1.2-2.4c-1.8-8.8-3.5-17.5-9.2-25.1c-5.8-7.7-15.2-8.9-22.6-13.6
	C1146.2,19.6,1143,21.3,1138.7,22.2z M977.3,118.9c5.4,5.9,10.2,10.9,14.8,16.2c2.1,2.4,4.3,4.9,5.3,7.7c2.6,7.4,4.7,14.9,6.8,22.5
	c0.7,2.6,1.8,4.9,4.7,3.7c1.6-0.6,3.7-3,3.5-4.4c-0.4-4.3-1.6-8.6-2.8-12.8c-4.4-15.1-14.2-25.6-28.1-32.4
	C980.6,118.9,979.4,119.1,977.3,118.9z M904.1,694.7c-0.2-0.8-0.4-1.7-0.7-2.5c-5.1,0.9-10.2,1.4-15.2,2.9
	c-11.5,3.4-22.6,8-34.2,10.6c-7.2,1.6-10.2,4.5-9.8,11.4c0,0.1,0.1,0.3,0.6,1.2C864.6,710.4,884.3,702.6,904.1,694.7z M1422.1,90.5
	c14.1-2.3,27.4-4.5,40.8-6.7c0-0.7,0-1.4,0-2.1c-11.5-4.6-26.1-0.7-35.3-14.1C1425.6,75.9,1424,82.4,1422.1,90.5z M751.1,450.6
	c0.7,0,1.4,0,2.2,0c0.6-2.7,1.7-5.3,1.8-8c0.1-3.7-1.3-7.5-0.7-11c1.4-8.3,1.4-16.6,1.9-24.9c0.5-7.4,1.2-14.8,1.3-22.3
	c0-1.6-1.9-3.2-3-4.8c-1,1.5-2.8,2.9-2.8,4.4c-0.4,8.9-0.4,17.8-0.5,26.6c-0.1,9.7-0.2,19.3-0.3,29
	C751.1,443.4,751.1,447,751.1,450.6z M759,732.7c-2.1,5.5-3,11.7-6.5,15.8c-3.6,4.2-9.7,6.3-14.7,9.3c0.1,0.4,0.2,0.8,0.4,1.3
	c2.9-0.7,5.9-1.2,8.8-2c5.1-1.4,10.2-2.8,15.2-4.4c0.9-0.3,2.1-1.7,2.1-2.4C763.6,744,762.9,737.6,759,732.7z M1040.3,563.4
	c-3.4,0-6.4,0-9.4,0c-3.2,0-6.5-0.2-9.7,0.1c-10.2,0.8-13.5,2.5-10.3,11.7C1023.2,574.1,1039.1,567.7,1040.3,563.4z M1169.5,554.4
	c-0.7,0-1.5,0-2.2,0c0.7,26.8,1.4,53.7,2.1,80.5c0.7,0,1.4,0.1,2.1,0.1c0.3-3.3,0.9-6.7,1-10.1c0.2-8.5,0.3-16.9,0.2-25.4
	c0-2.9-0.3-5.8-0.6-8.7c-0.8-7.7-1.9-15.4-2.6-23.1C1169.2,563.3,1169.5,558.9,1169.5,554.4z M769.1,220.5c2.6,5.9,6.7,5.8,12,4.5
	c6.6-1.6,13.4-2.5,20.2-3.1c12-1,24.1-1.1,33.3-5.2C814.3,217.9,791.8,219.2,769.1,220.5z M1172,485.2c-0.8,0-1.6,0-2.4,0
	c-0.1,1.8-0.2,3.6-0.2,5.3c-0.2,8.2,0.7,16.5-0.8,24.4c-2,10.9-3.6,21.3,1.3,32.5c0.5-3.3,1.2-6,1.2-8.8c0.1-11-0.1-22-0.1-33
	c0-2.2,0.2-4.4,0.3-6.6C1171.5,494.4,1171.8,489.8,1172,485.2z M1170.7,480.7c2.4-17.2,5.1-34.6,1.6-52.1c-0.5,0-1.1,0-1.6,0
	C1170.7,445.9,1170.7,463.3,1170.7,480.7z M164.4,352.2c0.2,0,0.4-0.1,0.6-0.1c0-11.2,0-22.4,0-34.2c-2.8,0.4-4.4,0.6-6.8,1
	C160.4,330.2,162.4,341.2,164.4,352.2z M833,697.9c-2.8,15.8-5.7,31.5-8.6,47.3c0.7,0.1,1.3,0.2,2,0.3
	C830.9,730,834,714.2,833,697.9z M676.6,660.8c-3-0.5-4.8-1.5-6.2-1c-6,2.1-11.9,4.6-17.7,7.2c-0.6,0.3-0.8,1.5-1.3,2.3
	c0.9,0.3,1.8,1.1,2.6,0.9c6-1.2,12.1-2.4,18-4.1C673.4,665.7,674.3,663.6,676.6,660.8z M829.3,143.6c-8.2-16.2-17.4-22.5-24.5-18
	C812.5,131.3,820.3,137,829.3,143.6z M1183.1,588.9c-0.9-11,3.6-22.3-1.4-33.1C1177.8,567,1182.9,577.8,1183.1,588.9z M961.4,34.7
	c0.2,0.7,0.3,1.3,0.5,2c9.1-2.4,18.2-4.8,27.4-7.3c-0.2-0.8-0.4-1.5-0.6-2.2C979.7,30.1,969.4,28,961.4,34.7z M1161.1,158.1
	c0.5,0,1.1,0.1,1.6,0.1c0-12.5,0-25,0-37.5c-0.5,0-1.1,0-1.6,0C1161.1,133.2,1161.1,145.7,1161.1,158.1z M1075.9,175.8
	c0,0.3,0.1,0.6,0.1,0.9c1.8-0.3,3.6-0.6,5.5-0.9c2.8-0.5,5.7-1.6,8.4-1.2c8.4,1.2,11-1,19.1-6.9
	C1097.1,170.5,1086.5,173.1,1075.9,175.8z M172.7,175.4c-0.5,0-1-0.1-1.5-0.2c-1.1,10.6-2.2,21.1-3.2,31.7c1,0.1,1.9,0.2,2.9,0.2
	C171.5,196.5,172.1,186,172.7,175.4z M1050.4,630.8c0.7-0.1,1.4-0.1,2.1-0.1c-0.5-9.9-1-19.9-1.5-29.8
	C1050.4,610.9,1046.9,620.9,1050.4,630.8z M83.4,647.4c0.3,4.2,0.7,6.5,5.2,6.5c3.2,0,6.4,2.1,9.6,3.2c1.3,0.4,2.6,0.7,3.9,1
	c0.2-0.6,0.5-1.2,0.7-1.8C96.5,653.5,90.3,650.6,83.4,647.4z M1422.1,581.1c-0.2-0.7-0.3-1.3-0.5-2c-2.5,0.7-6.1,0.6-7.1,2.3
	c-1.7,2.7-2.4,6.5,0.7,9.7C1417.7,587.5,1419.9,584.3,1422.1,581.1z M822.7,752.3c-1.4,3.2-2.8,6.3-4.1,9.5c0.5,0.4,1.1,0.9,1.6,1.3
	c1.9-1.3,4.7-2.1,5.5-3.9C826.6,757.2,827.8,753.7,822.7,752.3z M297.1,702.2c-1.8,10.3,1.3,24,5.2,26.8
	C300.7,720.5,298.9,711.7,297.1,702.2z M750.7,475.5c0.6,0.1,1.2,0.1,1.8,0.1c0-7,0-14,0-21c-0.6,0-1.2,0-1.8,0
	C750.7,461.6,750.7,468.5,750.7,475.5z M1107.9,437.1c0.3,0.7,0.5,1.4,0.8,2.1c5.7-2.2,11.4-4.3,17.1-6.5c-0.2-0.7-0.5-1.3-0.8-2
	C1119.3,432.8,1113.6,434.9,1107.9,437.1z M1333.2,106.3c2.4-4.4,1.6-8.1-1.7-9.3c-0.8-0.3-2.2-0.3-2.7,0.2c-0.5,0.5-0.8,2-0.4,2.7
	C1329.8,102,1331.5,104,1333.2,106.3z M231.6,629c-0.1,0.7-0.1,1.4-0.2,2.1c5.2,0.5,10.4,1.1,15.5,1.6c0.1-0.8,0.1-1.6,0.2-2.4
	C241.9,629.9,236.7,629.5,231.6,629z M741.1,398.2c2.6-5.8,0.9-13.9-2.8-16C739.2,387.3,740,392,741.1,398.2z M780.6,792.9
	c0.8,1.2,1.2,2.1,1.6,2.2c2.1,0.2,4.2,0.3,6.3,0.3c0.3,0,0.5-1.4,0.8-2.1c-1.9-0.4-3.8-0.9-5.6-1.1
	C782.9,791.9,782.1,792.4,780.6,792.9z M846.4,360.6c-0.3,0-0.7,0-1,0c0,5.3,0,10.7,0,16c0.3,0,0.7,0,1,0
	C846.4,371.3,846.4,365.9,846.4,360.6z M799.3,788.4c-2.8,1.6-5.2,2.9-7.5,4.4c0,0,0.5,1.1,0.8,1.6c2.3-1.2,4.7-2.5,7-3.8
	C799.6,790.6,799.5,790,799.3,788.4z M787.2,520.5c0.1,0.5,0.3,0.9,0.4,1.4c3.6,0.1,7.3,0.5,9.9-2.7c-0.2-0.6-0.3-1.1-0.5-1.7
	C793.7,518.5,790.4,519.5,787.2,520.5z M1023,316.2c0.7-0.1,1.3-0.2,2-0.3c-0.4-3.8-0.8-7.5-1.2-11.3c-0.6,0.1-1.2,0.2-1.8,0.2
	C1022.4,308.7,1022.7,312.5,1023,316.2z M1181.9,536.1c0.5,0,1,0,1.4,0c0-4,0-7.9,0-11.9c-0.5,0-1,0-1.4,0
	C1181.9,528.2,1181.9,532.1,1181.9,536.1z"/>
<path d="M400.6,814.5c-0.5,0.7-1.6,2.8-3.3,4.2c-2.4,1.9-5.6,2.8-7.8,4.9c-12.9,12.4-25.5,25.1-38.4,37.6
	c-6,5.8-12.5,11.2-18.7,16.9c-2,1.8-3.2,4.4-5.4,6c-2,1.5-4.5,2.6-6.9,3c-3.2,0.6-6.6,0.3-9.9,0.5c-2.4,0.1-4.8,0.2-7.1,0.4
	c-4.6,0.2-9.1,0.4-13.7,0.7c-11,0.7-21.4,4.8-32.8,4.1c-9.2-0.5-18.7-2.2-27.7,2.3c-1.4,0.7-4.7,0.1-5.5-1c-1-1.5-1.2-4.5-0.3-6.1
	c1.2-2.3,3.8-3.8,5.7-5.7c4.2-4.3,8.4-8.6,12.6-12.9c0.3-0.3,0.7-0.9,0.7-1.3c-0.2-6.9,5.9-9.2,9.8-13c8.4-8.3,16.9-16.6,25-25.2
	c5.3-5.6,9.6-12.2,15.2-17.4c2.6-2.5,7.1-4.3,10.8-4.3c13.3-0.1,26.6,1.2,39.9,1c16.6-0.2,33.4,1,49.8-3.2
	C396.9,804.7,400.6,808.2,400.6,814.5z M244.2,879.5c0.2,0.6,0.4,1.3,0.5,1.9c4.4,0.8,8.8,2.5,13,2.2c13.4-1.1,26.8-2.9,40.2-4.5
	c8.2-1,17.1,0.1,24.3-5c7.3-5.2,12.6-12.7,20.1-18.1c6.6-4.8,11.4-12.1,17.1-18.2c1.5-1.6,3.1-3.6,5.1-4.2c6.9-2.2,7.2-8,8.9-13.9
	c-7.9-0.3-15-0.7-22.2-1c-2.5-0.1-4.9-0.3-7.4-0.1c-9.1,0.7-18.1,2.4-27.4-0.3c-4.1-1.2-10.3-0.7-13.5,1.7
	c-7.1,5.6-12.9,12.8-19.3,19.3C270.5,852.8,257.3,866.1,244.2,879.5z"/>
<path d="M29.2,890.6c4.9-1.6,9.8-2.9,14.5-4.9c5-2.1,9.9-4.6,14.6-7.5c7.6-4.7,15-9.8,22.2-15c1.4-1,2.1-2.9,3.1-4.5
	c1.8-2.9,3.6-5.7,5.2-8.7c1.2-2.2,2.5-4.5,2.9-6.9c0.8-4,0.7-8.1,1.5-12.1c0.2-1.4,1.8-3.3,2.9-3.4c1.3-0.2,3.4,1,4.2,2.2
	c4.4,6.8,10.5,10.9,18.2,13.6c5.1,1.8,9.7,4.9,15.5,4.5c1-0.1,2.9,1.3,2.9,2.1c0,1.5-0.5,3.6-1.6,4.4c-5.7,4.6-19.7,0.9-22.4-5.3
	c-2.7-0.6-5.6-0.4-7.5-1.7c-4.1-2.8-4.7-0.3-6.6,2.5c-6,8.6-9.8,19.1-19.1,25.2c-6.8,4.5-13.9,8.6-20.9,12.9
	c0.2,0.6,0.3,1.1,0.4,1.6c4.8-1,9.5-1.9,14.3-2.9c6.8-1.5,13.6-3.7,20.4-4.4c8.8-0.9,17.7-0.9,26.5-0.7c9.5,0.2,19,0.2,28.3-2
	c2.4-0.6,4.6-2.5,6.9-3.7c3.2-1.7,6.5-3.1,9.5-5.1c3.1-2,6.7-5.7,4.4-8.6c-1.9-2.5-7.1-2.8-10.9-3.3c-5.5-0.7-11.1-0.1-16.5-0.9
	c-3.3-0.5-5-7.1-2.7-9.6c0.7-0.7,2.6-1,3.6-0.5c5.7,2.7,11.6,3.2,17.9,2.4c4.4-0.6,8.9,0.4,13.3,0.3c4.4-0.1,8.8-1.4,13.1-1
	c2.6,0.2,5.6,2.2,7.2,4.2c0.8,0.9-0.5,5.1-1.9,6c-4.5,2.7-7.6,6-10.6,10.4c-2.7,4-8.7,5.8-13,8.8c-4.2,2.9-8.5,5.8-12.2,9.2
	c-2.7,2.5-5,3.7-9,3c-4.1-0.8-8.5,0.1-12.8,0.2c-1,0-2,0.4-3,0.3c-15.8-1.3-31.6-2.6-47.2,1.3c-8.9,2.2-17.9,4.5-26.9,6.4
	c-4,0.8-7.9,4.9-12.4,1.1c-0.1-0.1-0.7,0.1-0.9,0.3c-8.8,5.4-18.5,6.3-28.5,5.6c-1.5-0.1-3,1.6-4.6,1.8c-3.1,0.3-7,1.2-9.1-0.3
	c-1.7-1.2-2.3-5.8-1.5-8.3c0.8-2.4,3.6-5,6-5.9c5.2-1.9,10.8-3,16.3-3.9c2.2-0.4,4.7,0.7,7.1,1.2C29.6,891.1,29.4,890.8,29.2,890.6z
	"/>
<path d="M913.8,238.8c0.8,6.9,1.8,15.2,2.8,23.5c0.5,4.4,1.5,8.9,1.3,13.2c-0.1,2.7-2,5.3-3.1,8c-0.1,0.3-0.6,0.5-0.6,0.8
	c-1.2,10.8-10.9,9.6-17.6,11.5c-15.1,4.1-30.6,7-45.8,10.6c-2,0.5-3.7,2.4-5.8,3.2c-1.5,0.6-4.1,1-5,0.2c-1.3-1.2-1.8-3.5-2.1-5.4
	c-0.5-3.4-0.7-6.8-0.7-10.2c-0.2-12.8-0.2-25.6-0.4-38.4c0-1-0.1-2-0.1-3.1c0-3.8-1.6-9.7,0.2-11.1c4.9-3.8,11.1-6.4,17.2-8
	c10-2.6,20.4-4,30.6-6.1c7.1-1.5,14.1-3.5,21.2-5.1c5.2-1.2,8.8,2.8,8.6,9.2C914.5,233.7,914.2,235.5,913.8,238.8z M848.7,277.6
	c-0.2,0-0.4,0-0.5,0c0.2,4.4,0.5,8.9,0.7,13.3c0.1,3.4,0.9,5,5,3.9c5.8-1.5,11.7-2.2,17.6-3.2c11.3-1.8,22.3-4.5,32.5-9.9
	c1.1-0.6,2.2-2.6,2.1-3.9c-0.6-7.8-1.5-15.7-2.3-23.5c-0.5-5.1-0.8-10.2-1.6-15.2c-0.2-1.3-1.8-3.5-2.7-3.4
	c-4.8,0.2-9.5,0.8-14.2,1.8c-9.3,1.9-18.5,4.6-27.8,6c-7.7,1.2-11,4.3-10.3,12.2C847.5,263,848.1,270.3,848.7,277.6z"/>
<path d="M923.2,277.1c0-13.7,0-26-0.1-38.2c0-1.4-0.7-3.1-1.7-4.2c-3.4-3.7-2-6.2,1.9-7.7c6.4-2.6,12.9-5.3,19.6-7.1
	c8.3-2.2,16.8-3.3,25.2-5.1c3.5-0.8,6.7-2.5,10.1-3.3c5.7-1.3,8.8,0.7,9.7,6.6c1.1,7.9,2,15.8,2.6,23.8c0.5,7.5,0.5,15,0.8,22.5
	c0.2,3.5,0.5,7,1,10.5c0.8,5.7-2.6,7.8-7.2,8.6c-8.5,1.4-17.1,2.4-25.6,4c-6.1,1.1-12.5,2.1-18.1,4.5c-10.5,4.5-20.8,1-18.3-13.6
	C923.2,277.5,923.3,276.6,923.2,277.1z M980.3,273.9c0-7.1,0.3-12.2-0.1-17.3c-0.8-9.6-2.1-19.2-3.1-28.9c-0.3-3.2-2.3-4.2-4.9-3.7
	c-9,1.7-18.2,3-27,5.8c-11.5,3.6-11.3,4.1-11.2,16.1c0,0.8-0.1,1.7-0.1,2.6c0.2,9.5,0.2,19.1,0.6,28.6c0.2,5.8,1.3,6.5,6.9,5.6
	c2.5-0.4,4.9-1.1,7.4-1.7C959.3,278.7,969.8,276.3,980.3,273.9z"/>
<path d="M770.2,298.1c-1.7-9.8-3.5-19.6-5.1-29.5c-0.5-3-0.8-6.2-0.4-9.1c0.2-1.5,1.8-3.5,3.3-3.9c10.5-3.4,21-6.5,31.6-9.7
	c3.1-0.9,6.3-1.5,9.3-2.7c6.1-2.3,12.2-3,18,0.6c1.5,0.9,2.9,3,3.1,4.7c1.1,10.5,2.2,21,2.5,31.6c0.2,7.3-0.8,14.6-1.7,21.8
	c-0.4,3.1-9.5,8.4-12.8,9c-4.1,0.7-8,2.4-12.1,3.6c-6.2,1.9-12.3,4.2-18.6,5.4c-4,0.8-8.5,0.5-12.5-0.5c-3.4-0.8-6.3-3.2-5.9-7.8
	c0.4-4.4,0.1-8.9,0.1-13.3C769.3,298.3,769.8,298.2,770.2,298.1z M818.4,252.2c-1.5-0.3-2.1-0.5-2.5-0.4
	c-11.3,3.1-22.7,5.8-33.7,9.5c-4.7,1.6-7.7,5.7-5.6,11.7c1,2.8,1.4,6,1.7,9c0.8,8.3,1.2,16.6,2,24.9c0.1,1.1,2,3,2.8,2.9
	c7.8-1.5,15.7-3,23.3-5.4c8.5-2.7,14.1-8,13.4-18C819,275,818.8,263.7,818.4,252.2z"/>
<path d="M1004.4,219.3c-1-3.6,0.7-4.9,3.9-6.5c11.4-5.7,23.8-5.5,36-6.6c1.2-0.1,2.6-0.5,3.6-1.1c3.5-1.9,6.5-0.7,7.1,3.2
	c1.4,8.9,3.8,17.8,3.7,26.6c-0.1,6.6,0.4,12.8,2.5,19c0.5,1.3-0.2,4-1.2,4.7c-4.8,3.2-9.5,7.2-14.9,8.6c-7.4,1.9-15.4,1.8-21.7,7.3
	c-4.4,3.8-8.9,1.1-12.9-0.8c-3.9-1.9-3.5-5.7-3.1-9.8c0.5-4.8-0.2-9.8-0.7-14.6c-1.1-10-2.3-19.9-3.5-29.9
	C1003.6,219.3,1004,219.3,1004.4,219.3z M1048.2,246c0.2,0,0.4-0.1,0.7-0.1c-1.2-8.8-2.6-17.5-3.5-26.3c-0.5-5.1-4.6-5.8-7.6-5.5
	c-5.5,0.4-11,2.1-16.2,3.8c-2.4,0.8-5.8,3-6,5c-0.9,7.5-0.9,15.2-0.7,22.7c0.1,5,1.6,10.1,1.8,15.1c0.2,4.3,1,5,5.1,3.4
	c5.4-2,10.8-4.2,16.4-5.4c10-2.2,10.1-2,10-12.2C1048.2,246.3,1048.2,246.2,1048.2,246z"/>
<path d="M1106.7,207.3c0.6,6,2.6,12.2,1.4,17.8c-1.4,6.5,1,12.6,0.2,18.6c-0.4,3.3-3.4,7.4-6.4,9.1c-4.8,2.8-10.5,4.6-16.1,5.6
	c-7.8,1.4-12-2.3-12.9-10.2c-1.6-13.5-3.3-27-5-40.4c-0.5-3.7,1.5-5.2,4.7-6c6.9-1.7,14-2.8,20.6-5.3
	C1105.2,192.1,1108.5,194.2,1106.7,207.3z M1095.8,207c-2.9,1-5.8,1.2-7.5,2.7c-2.8,2.4-6.7,5.5-6.9,8.5c-0.7,9,0.1,18.1,0.6,27.1
	c0.1,1.2,1.1,3,2.1,3.3c7,2.2,13.6-1.6,13.7-8.8C1097.7,229.1,1096.5,218.5,1095.8,207z"/>
<path d="M496.4,29.6c3.4,0.9,6.8,2.1,10.3,2.6c3.5,0.5,7,0.2,10.5,0.7c2.4,0.3,5,0.7,7.2,1.8c3.9,2,3.8,6.6-0.3,8.2
	c-5.1,2-9.8,4.9-16,4.4c-5.5-0.4-11.1,1.8-16.7,2c-2.7,0.1-6.4-1-7.9-2.9c-1.2-1.5,0-5.2,0.5-7.8C485.1,31.5,489.7,29.3,496.4,29.6z
	"/>
<path d="M878.5,492.6c-1.5,4.1-4.4,5.8-8.7,6.7c-10.1,2.1-20.1,4.9-30.1,7.6c-3.6,1-7.1,2.6-10.1-1.2c-2.3-2.9-1.5-6.4,2-7.6
	c11.2-4,22.3-7.9,33.5-11.9c5.6-2,10.7,0.5,13.4,6.7C878.4,492.7,878.5,492.6,878.5,492.6z"/>
<path d="M463.7,47.6c-2.2-0.2-3.2-0.3-4.3-0.4c-9.3-0.6-13.1-7-8.2-15.3c1.2-2,5.9-2.8,8.8-2.6c4.8,0.4,9.7,1.9,14.4,3.2
	c4.2,1.2,5.2,5.1,2.9,8.8C473.8,47,468.8,48.6,463.7,47.6z"/>
<path d="M818.7,550.8c2.9,1.9,7,3.8,9.9,6.8c2.7,2.9,4.5,6.9,5.7,10.7c0.5,1.7-1.3,4.6-2.9,6c-0.7,0.6-4.2-0.7-5.2-2
	c-1.8-2.3-2.2-5.8-4-8c-1.7-2.1-4.5-3.3-7-4.6c-0.7-0.4-2.2,0.6-3,0.3c-2.2-0.9-4.2-2.1-6.3-3.2c1.7-1.3,3.1-3,5-3.9
	C812.8,551.9,815.1,551.7,818.7,550.8z"/>
<path d="M921.4,208c-2.1-2.3-5-4.4-6.4-7.3c-1.7-3.4,2-4.3,4.3-5.6c1.2-0.7,2-2.1,3.2-2.4c3-0.6,6.4-1.8,8.9-0.9
	c2.3,0.9,5.5,4.8,5,6.6c-0.7,2.6-4,4.9-6.6,6.7C927.8,206.5,925.1,206.8,921.4,208z"/>
<path d="M543.8,35.7c4-0.5,7,0.7,7.5,4.9c0.5,4.1-1.7,6.9-5.8,7.5c-4.9,0.8-9.8,1.4-14.7,1.8c-0.9,0.1-2.2-1-2.7-1.9
	c-0.5-1.1-0.6-3.2,0-3.6C533,41,536.5,34.8,543.8,35.7z"/>
<path d="M763.6,46.5c7.3-5.5,14.2-6.8,21.2-6.1c2.4,0.2,5.4,2.8,6.7,5c1.5,2.7-0.7,5.2-3.7,5.1c-5.8-0.3-11.7-1.2-17.5-2
	C768.5,48.2,766.7,47.4,763.6,46.5z"/>
<path d="M494.6,883.1c3.2,0.2,6.5,0.3,9.7,0.7c2.5,0.3,5,0.9,8.2,1.4c-0.6,1.8-1,3.4-1.8,5.9c-3.2-4.9-5.8-4.8-8.6-0.7
	c-1.1,1.5-3.1,2.4-5,3.7c-1.7-2.6-3.1-4.8-4.9-7.7c2.2,0,3.4,0,5.3,0c-1.1-1.4-1.9-2.5-2.8-3.6C494.7,883,494.6,883.1,494.6,883.1z"
	/>
<path d="M914.2,894.1c-4.9-0.5-10.7,1.9-14.6-6.1c4.5,0.2,7.9,0.4,12.8,0.7c-1.9,1.8-2.6,2.4-3.5,3.2c2.1,0.3,3.8,0.6,5.5,0.8
	C914.3,893.2,914.2,893.7,914.2,894.1z"/>
<path d="M579.4,600.3c2.9-1.2,4.4-1.9,5.9-2.4c5.1-1.9,7.9,0.2,7.7,5.6c-0.2,3.4,0,6.8,0,10.1c7.3,0.3,33.6-13,39.4-20
	c-3.4-3.9-13.3-5.3-17.7-2.5c-6.1,3.9-17.9,2.5-23-2.7c-3.7-3.8-2.7-7.9,2.6-9c8-1.8,16.2-3,24.2-4.6c5-1,10.1-1.8,14.7-3.8
	c13.1-5.7,26-3.1,38.8,0.4c5,1.4,7.1,6.4,7.2,11c0.3,9.8,0.2,19.8-0.8,29.5c-0.4,4.5-2.6,9.2-5.2,13c-4.3,6.3-12,7.4-18.7,8.5
	c-11.7,1.9-23.7,2-35.5,3c-8.8,0.8-17.5,2.1-26.3,2.9c-3.5,0.3-7.1,0-10.7-0.1c-3.9-0.2-8,0.2-11.7-0.8c-6-1.7-11.8-4.1-17.3-6.8
	c-1-0.5-1.3-4.1-0.7-5.7c1.7-4,4.1-7.8,6.4-12.1c-7.9-4.8-8-12-7.5-20.1c0.7-9.9,0.1-19.8,0.2-29.8c0.1-11.8,7-18.4,17.9-17.7
	c3.4,0.2,4.9,2.1,5.2,4.5c0.8,5.9,0.9,11.8,1.4,17.7C577.2,578.8,578.2,589,579.4,600.3z M637.7,581.4c2.1,2.7,3.8,4.8,5.5,6.9
	c0-0.6,0-1.2,0-1.8c3-1.8,5.7-4.4,8.9-5.1c3.4-0.7,7.7-0.4,10.5,1.3c2.6,1.5,3.7,5.4,5.8,8.7c-0.3-3.5,0.1-6.9-1-9.7
	c-0.6-1.4-4-1.6-6.2-2.4C653.4,576.5,646,577.2,637.7,581.4z M589.8,628.2c-2.5-7.4-6.5-7.8-14.5-0.8
	C580.6,627.7,585.1,628,589.8,628.2z M566,575.7c-0.7,0.1-1.5,0.2-2.2,0.3c0,5.6-0.1,11.2,0.1,16.7c0,0.9,1.1,1.7,1.7,2.6
	c0.6-0.8,1.9-1.7,1.8-2.5C567.1,587.1,566.5,581.4,566,575.7z"/>
<path d="M140,574.4c-8.3-4.5-16.6-9.5-26.7-7.6c-3.6,0.7-6.6,3.4-11,2.2c-3.5-0.9-6.1-1.3-6.5-5.6c-0.4-4.6,2.8-6.2,6-7
	c13.6-3.3,26.3-1.1,39.2,4.7c8.2,3.7,16.1,7.2,22.5,13.6c2.4,2.4,4.4,5.1,6.5,7.8c4.7,6,9.6,11.8,13.9,18.1c2.3,3.3,4,7.2,5.1,11
	c1.1,3.9-2.2,8.5-6.2,9c-17.6,1.9-35.2,3.1-52.3-3.9c-3.3-1.3-7-1.5-10.3-2.8c-3.5-1.4-7.6-2.9-9.9-5.6c-5-6.1-9.4-12.7-13.2-19.6
	c-1.7-3.1-1.3-7.3-1.8-11c-0.1-0.5,0-1.3,0.3-1.4c3.9-1.5,7.7-3.4,11.7-4.1c1.6-0.3,4.3,1.6,5.5,3.2c2,2.6,3.2,5.8,5.3,8.8
	c0.1-5,1.9-8.5,6.9-9.5c1.5-0.3,3.3,0.1,4.9,0.4c3.3,0.6,6.5,1.2,9.8,1.9C139.7,575.9,139.8,575.2,140,574.4z M121,595.4
	c-0.3,2.8-1.1,5.5-0.4,5.9c1.7,1.1,4,1.2,6.7,1.8c-0.6-2-0.6-2.6-0.9-2.9C125.1,598.9,123.7,597.8,121,595.4z"/>
<path d="M170.9,478.5c-2.3,1.4-4.2,2.8-6.3,4c-4.3,2.5-10.9,0.9-12.6-3.6c-3.9-10.1-5.1-20.5-1.4-31c0.2-0.7,1.1-1.7,1.7-1.7
	c6.9,0,13.9-3.5,20.9,1c1.7,1.1,5.4-0.3,7.9-1.2c3.7-1.3,6.3,0.6,8.8,2.6c3.5,2.8,6.7,5.8,11.8,3.3c1.3-0.6,3.3,0.1,5,0.4
	c2.9,0.5,5.9,1,8.7,1.9c3.2,1,6.3,2.7,5.8,6.7c-0.9,6.8-1.9,13.5-3.6,20.1c-0.8,3.2-3.4,5.6-7.5,4.4c-0.5-0.1-1.1-0.4-1.5-0.2
	c-5.5,2-10.3,0.9-15-2.7c-0.9-0.7-3.5,0.6-5.2,1.3C179.7,487.9,176.6,487,170.9,478.5z M158.5,473.9c5.7-5.5,5.3-12.7-1-17.3
	C157.8,462.5,158.1,467.7,158.5,473.9z M183.6,470.4c0.9-0.2,1.9-0.3,2.8-0.5c-0.6-3.2-1.2-6.3-1.9-9.5c-0.6,0.1-1.3,0.3-1.9,0.4
	C183,464,183.3,467.2,183.6,470.4z"/>
<path d="M97.6,536.6c4.4-0.1,8.6-1,12.4-0.2c15.4,3.1,30.6,7,46,10.1c5.1,1,10.5,0.2,15.7,0.7c6.6,0.7,13.1,1.9,19.6,3.2
	c3.5,0.7,5.3,3.3,6.9,6.8c3.3,7.3,3.6,14.3,0.9,21.8c-2.6,7.2-6.5,9-13.2,5.3c-0.9-0.5-2-0.9-2.6-1.7c-7.9-10.4-20.2-14.5-30.7-21
	c-4.4-2.7-10.4-2.8-15.3-4.8c-7.5-3.1-14.6-7-22.1-10.2c-2.4-1.1-5.3-1.2-8-1.5C102.8,544.7,99,543.6,97.6,536.6z"/>
<path d="M248.3,553.4c2.6-2,5.5-4.1,8.1-6.3c3.5-3,6.7-2.3,10.2,0c4.8,3.2,7.6,7.9,8.4,13.4c0.4,3.4,0.5,7.4-3.5,9.5
	c-5.8,3-11.7,5.3-18,1.8c-2.1-1.2-4.1-2.9-5.4-4.9c-2.7-4.2-4.2-4.6-8.4-1.2c-6.3,5.1-13.7,5.1-18.6,0.9c-7.3-6.3-2.1-18.8,4-22.5
	c8.8-5.4,8.8-5.1,15.7,2.5C243,549.1,245.9,551.2,248.3,553.4z"/>
<path d="M191.3,526.1c-0.1,7.5-3.9,9.6-11.4,8.6c-8.2-1.1-16.7-1.3-25-0.7c-7.2,0.5-12.7-1.5-17-7c-0.8-1-1.2-3.3-0.6-4.1
	c1.3-1.8,3.3-4.2,5.1-4.3c7.9-0.3,15.5-3.5,23.8-1c4.7,1.4,10.3-0.5,15.4-0.7C188.7,516.5,191.5,519.2,191.3,526.1z"/>
<path d="M594,549.4c11.6-0.8,23.2-1.7,34.8-2.4c3.3-0.2,6.6,0.1,8.2,3.7c1.8,4.1,0.1,7.2-4.4,7.7c-13.9,1.6-27.5,4.4-40.6,9.6
	c-4.5,1.8-8.9-0.4-10.4-5c-0.5-1.4-1.4-2.7-2.1-4c-2.5-4.3-0.2-9.3,4.8-9.8c3.2-0.3,6.5-0.1,9.7-0.1C594,549.3,594,549.4,594,549.4z
	"/>
<path d="M498.9,405c-9.1,4.1-17.4,18.6-16.5,28.1c0.5,5.2-1.3,8.5-5.2,8.7c-4.8,0.2-6.7-3-7-7.1c-0.7-9.7,2.5-18,10-24.5
	c2.3-2,4.7-3.9,7-5.9C491.4,400.4,495,399.1,498.9,405z"/>
<path d="M509.8,475.1c-2.9,3.3-4.4,6.3-6.7,7.3c-2.4,1.1-6.2,1.2-8.4,0c-6.3-3.6-6.8-14-1.2-16.8c0.8-0.4,1.9-1.1,2.3-0.8
	C500.1,467.8,504.4,471,509.8,475.1z"/>
<path d="M639.6,340.6c-2.4-0.1-4.9,0.2-7.1-0.6c-1.8-0.6-4.4-2.2-4.7-3.7c-0.5-2.7,0.5-5.3,4.4-5.5c4.4-0.1,8.9-1.2,13.3-0.8
	c2.4,0.2,5.5,2.1,6.8,4.1c1.8,2.8,0.6,5.8-3.4,6.2c-3,0.3-6.2,0-9.2,0C639.6,340.5,639.6,340.6,639.6,340.6z"/>
<path d="M218.1,284.5c-1.3-0.4-3.2-0.5-4.5-1.4c-1.2-0.9-2.2-2.6-2.3-4.1c-0.1-0.7,2-1.9,3.2-2.3c3.1-0.9,6.2-1.7,9.4-2
	c1.9-0.2,3.8,0.5,5.7,0.8c-1.2,2.5-1.9,5.7-3.8,7.4C224.2,284.3,221,284,218.1,284.5z"/>
<path d="M266.5,296.7c-4.2-3.2-7.3-5.6-10.7-8.3c7.5-5.8,10.7-6.4,13.9-3.1C274.8,290.5,267.2,291.6,266.5,296.7z"/>
<path d="M283.7,292.5c-5.2-0.5-8.2-1.9-8.2-5.8c0-3.6,3.2-4.7,6.2-4.8c3.3,0,7.4,0.9,7,4.8C288.4,289.1,284.9,291.1,283.7,292.5z"/>
<path d="M244.9,290.9c-3.1-2.6-7-4.4-7.1-6.4c-0.3-4.2,4.3-4.1,6.9-3.7c2.6,0.3,5,2.6,7.4,4C250.1,286.6,247.9,288.3,244.9,290.9z"
	/>
<path d="M304.5,288.6c-1.9,1-4,3.1-5.5,2.7c-2.7-0.7-4.9-3-7.3-4.6c1.8-1.8,3.8-5.1,5.4-4.9c2.6,0.3,5,2.9,7.5,4.5
	C304.6,287,304.5,287.8,304.5,288.6z"/>
<path d="M1252.4,304c0.7,7.3,1.8,14.6,2.1,21.9c0.4,8.2,0,16.4,0.3,24.6c0.6,17.9,1.3,35.8,1.9,53.7c0.1,3.4-0.3,7-4.6,7.3
	c-3.9,0.2-6.5-1.7-6.4-6.1c0.3-8.5,0.7-17.1,0.6-25.6c-0.1-12.2-0.4-24.4-0.9-36.6c-0.6-16-1.4-32-2.2-48c-0.2-3.4-1-6.8-2-10
	c-0.3-0.9-2.3-1.9-3.4-1.8c-5.8,0.5-11.5,1.2-17.2,2.3c-1.1,0.2-2.5,2.8-2.3,4.2c2.4,22.9,1.3,45.8,0.2,68.8
	c-0.4,9.6,2.3,19.3,2.9,29c0.6,8.2,0.5,16.4,0.3,24.6c-0.1,4.2-2.9,5.7-7.1,5.1c-4.2-0.7-4.8-3.2-3.8-6.7
	c3.6-12.5-0.4-24.8-0.5-37.2c-0.1-6.8-0.6-13.6-0.3-20.3c1-20,1.7-39.9-1-59.8c-0.8-6.4,2.3-9.2,8.6-9.9c3.9-0.4,7.5-3.2,11.3-4.8
	c5-2,10-4.1,15.1-5.6c4.4-1.3,6.5,0.6,6.9,5.5c0.6,8.5,1.8,17,2.8,25.4C1253.3,303.9,1252.8,303.9,1252.4,304z"/>
<path d="M1305.4,287.7c1,17.2,2.1,34.5,3.1,51.7c0.2,3,0.4,6.3-3.6,6.7c-3.9,0.4-6.3-2.2-6.6-5.8c-0.6-6.3-0.6-12.6-0.8-18.9
	c-0.4-9.2-0.9-18.4-1.3-27.6c-0.2-5.4-0.2-10.8-0.3-16.2c-0.1-4.1-0.5-8.2-5.6-8.9c-4.7-0.6-9.4-1.2-14.1-1
	c-4.5,0.2-5.4,3.1-4.6,7.6c1.4,7.1,2.6,14.3,2.9,21.6c0.7,21.7,0.6,43.4,1.3,65.2c0.3,9.7,1.7,19.4,2.8,29c0.2,1.3,1.4,2.9,2.6,3.7
	c1.5,0.9,3.5,1.4,5.3,1.6c3,0.4,5.9,1.1,5.4,4.7c-0.5,3.3-2.8,5.6-6.6,5.9c-2.6,0.2-5.2,0.7-7.8,1c-3.7,0.5-7.3,0-8-4.3
	c-0.7-4-0.3-8.1-0.6-12.1c-0.5-8.7-1.4-17.4-1.6-26.1c-0.3-10.5,0-21-0.1-31.5c-0.1-12.6-0.4-25.2-0.3-37.8c0.1-6.1,1-12.2,1.5-18.4
	c0.1-1.7,0.4-3.4,0.3-5.1c-0.5-8.9,3.4-12.8,12.5-12.7c6.3,0.1,12.5,0.5,18.1,3.6c4.3,2.4,6.3,6.6,6.4,11.4c0.2,4.3,0,8.5,0,12.8
	C1305.5,287.6,1305.4,287.6,1305.4,287.7z"/>
<path d="M1326,267.6c0.6,3.3,1.5,7.4,1.8,11.5c0.6,7.5,0.9,15,1,22.5c0.3,26.9,0.4,53.9,0.5,80.8c0,4.5,1.4,5,5.6,3.7
	c3.6-1.1,7.7-0.8,11.5-0.4c1.1,0.1,2.9,2.5,2.8,3.5c-0.3,1.7-1.9,4.3-3.1,4.4c-5.4,0.4-9.7,2.2-13.8,5.8c-3.2,2.8-11-0.8-11.4-5.1
	c-0.8-7.1-0.9-14.2-1.1-21.4c-0.1-5.9,0.1-11.9,0.1-17.8c0-5.8-0.5-11.7,0.2-17.4c0.8-7.7,0.7-15.1-0.5-22.8
	c-1.3-8.9-0.7-18-0.9-27.1c0-1.9,0.1-3.8-0.3-5.6c-3.3-12.7,3.1-17.6,14.3-19.4c8.3-1.4,16.8-1.8,25.2-2.7
	c8.1-0.8,12.3,3.7,12.1,11.7c-0.2,10,0.2,20.1,0.4,30.2c0,1.2,0.4,2.4,0.2,3.6c-0.3,2.3,1,6-3.1,5.8c-3.5-0.2-7.6-0.6-7.6-5.7
	c-0.1-8.8-0.2-17.7-0.4-26.5c-0.1-3.1-0.4-6.1-1-9.1c-0.2-0.9-1.4-2.2-2.3-2.3c-3.9-0.2-7.8,0-11.7,0
	C1339.1,267.6,1333.5,267.6,1326,267.6z"/>
<path d="M1245.9,245.8c0-11.1,0-22.2,0-33.3c0-1,0-2.1-0.2-3.1c-1.1-7.1-1.6-7.8-8.6-6.6c-5.9,1-11.7,2.5-17.3,4.3
	c-1.2,0.4-2.5,2.6-2.5,4c0.1,10.2,0.5,20.4,1,30.6c0.2,3.2,0.9,6.5,1.7,9.6c0.7,2.8,7,5.2,10.3,4.3c2.6-0.7,5.3-1.8,8-1.8
	c1.9,0,3.9,1.7,5.8,2.6c-1.1,1.9-1.8,5.2-3.3,5.6c-7,2-14.2,3.6-21.4,4.6c-4.1,0.6-6-1.6-6.9-6.5c-2.7-13.9,0.3-27.8-1.3-41.7
	c-0.4-3.7-0.9-7.4-1.4-11.1c-0.6-4,2-7.3,5.8-8c8.8-1.6,17.6-3.2,26.3-5.1c7.6-1.7,12.9,1.9,13.1,9.7c0.2,7.3-0.1,14.6,0.1,21.9
	c0.2,6.7,0.8,13.3,1.2,19.9c0.2,3.5,1.1,7.8-4.1,8.5C1247.4,254.8,1245.2,251.6,1245.9,245.8z"/>
<path d="M1265.4,191.6c7.2-1.9,14.1-3.8,20.9-5.6c0.5-0.1,1-0.3,1.5-0.4c11.1-2.2,16.9,2,17.5,13.2c0.6,12.8,0.9,25.6,1.2,38.5
	c0.1,3,0.9,7-4.1,7.2c-3.8,0.1-5.8-2.7-5.6-7.6c0.4-9.2,1.1-18.3,1.1-27.5c0-4.5-1-9.1-2.1-13.6c-0.3-1.1-3-2.5-4.3-2.3
	c-5.2,1-10.3,2.5-15.4,4.2c-0.9,0.3-1.8,2.4-1.8,3.6c0.3,12.1,0.7,24.2,1.3,36.3c0.1,2.9,0.9,5.7,1.4,8.6c0.6,3.2-0.6,6.1-3.7,6.1
	c-2.3,0-5.2-1.9-6.7-3.8c-1.3-1.7-1.3-4.6-1.3-6.9c-0.2-15.8-0.2-31.7-0.3-47.5C1265.1,193.3,1265.3,192.6,1265.4,191.6z"/>
<path d="M1264.6,145.6c0,4.1-0.2,8.2,0.1,12.3c0.4,5.7,5,10.3,12.6,8.5c8-1.9,16.5-1.5,24.8-1.9c4.3-0.2,3.2,3.8,3.8,6.1
	c0.2,0.7-2.2,2.6-3.5,2.8c-3.3,0.5-6.7,0.3-10,0.5c-8.9,0.5-17.8,0.8-26.7,1.7c-8.1,0.8-16.1,2.4-24.2,3.7c-1.1,0.2-2.3,0.7-3.4,0.6
	c-4.9-0.5-9.8-1.1-14.6-1.7c-5.2-0.7-10.4-1.4-15.6-2.4c-0.8-0.2-1.4-1.5-2.1-2.3c0.9-0.6,1.7-1.8,2.6-1.7c9.7,0,19.3,0.5,29,0.3
	c10.6-0.2,16.3-1.3,15-14.6c-0.9-9.1-0.3-18.3,0.5-27.4c0.2-2.1,3.3-5,5.7-5.6c3.3-1,4.5,2.2,4.7,5.2c0.4,5.3,0.7,10.6,1.1,15.9
	C1264.4,145.6,1264.5,145.6,1264.6,145.6z"/>
<path d="M1331.2,196.6c0,15.4,0.1,30.3-0.1,45.1c0,3.5,1.4,8.7-4.3,8.7c-5.5,0-5.2-4.7-5.1-8.8c0.4-12.2,0.9-24.3,0.9-36.5
	c0-4.7-1.6-9.3-1.8-14c-0.1-1.8,1.3-4,2.7-5.4c0.8-0.7,2.9-0.2,4.4,0.1c2.2,0.5,4.4,1.8,6.6,1.8c8.4,0.2,16.8,0.1,25.2-0.1
	c3.9-0.1,5.2,1.8,6.1,5.3c3.2,13,2.3,26.2,2.3,39.3c0,1.3-0.2,3-1.1,3.9c-1.3,1.3-3.2,2.7-4.8,2.8c-1,0-2.9-2.4-3-3.8
	c-0.6-7.8-0.8-15.7-1.1-23.5c-0.1-2.9-0.1-5.8-0.3-8.7c-0.6-7.5-1.7-8.4-9.2-8.1c-2.8,0.1-5.6,0.2-8.4,0.5
	C1337.5,195.5,1334.6,196.1,1331.2,196.6z"/>
<path d="M1383.2,198.1c0.8-11.4,0.8-11,11-10.5c8.7,0.5,17.3,0.2,25.6-3.6c12-5.4,12.5-1.3,15.9,11.2c2.4,9,2.7,18.6,3.9,27.9
	c0.4,3.2-0.1,6.2-3.8,6.7c-3.6,0.5-5.8-1.6-6.2-5.2c-0.9-7.4-1.9-14.9-2.8-22.3c-0.9-8.2-1.8-9.2-10-8.5c-7.3,0.6-14.6,1.3-21.8,2.2
	c-1,0.1-2.5,2.1-2.4,3.2c0.6,10.1,1.6,20.1,2.3,30.2c0.2,3.4,1.7,8-3.8,8.3c-4.7,0.3-6.2-3.1-6.4-7.5
	C1384.2,219,1383.6,207.9,1383.2,198.1z"/>
<path d="M1216.7,435.9c10.1,0,17.1,7.4,15.3,14.5c-1.1,4.2-8.3,8.5-13.7,7.7c-4.3-0.7-6-4-5.8-8.2c0.2-3.6,0.1-7.3,1-10.8
	C1213.8,437.5,1216.1,436.5,1216.7,435.9z"/>
<path d="M1238,443.8c0.4-6.5,5.6-11.5,11.7-11.2c5,0.2,9.4,5,9.1,9.8c-0.4,7-7.3,12.5-15.2,12C1239.7,454.2,1237.6,450.3,1238,443.8
	z"/>
<path d="M1334,171.8c4.9-6.4,9.8-7.7,13.7-4.3c3.2,2.8,2.6,6.4-1.4,7.8C1341.5,176.9,1337.8,174.7,1334,171.8z"/>
<path d="M902.8,582.7c6.4-1.3,11.4-3.2,16.3-3c5.9,0.2,10.5-0.9,14.7-5.2c0.7-0.7,4.3,1.4,6.5,2.2c-0.1,0.5-0.1,1.1-0.2,1.6
	c2.2-1.9,4.3-4.1,6.7-5.8c1.1-0.8,3.3-1.6,4.1-1c2.1,1.5,4.9,3.4,5.3,5.6c1,5.6-3.5,8.7-7.7,10.7c-2.3,1.1-5.6,0-8.4-0.1
	c0-0.5,0.1-0.9,0.1-1.4c-2.9,2.5-5.5,5.4-8.7,7.5c-1.8,1.2-4.5,1.2-6.8,1.4c-0.8,0.1-1.9-0.9-2.4-0.6c-5.9,3-12,0.3-17.9,0.7
	c-1.6,0.1-3.8-1.2-5-2.6c-1.6-1.9-2.9-4.3,0.2-6.5C901.2,585.1,902.4,583.2,902.8,582.7z"/>
<path d="M968.8,549.9c-1.1,2.6-5.4,5.5-7.7,4.2c-4-2.2-4.8-6.1-2.3-10.9c3.1-6.1,5.4-7.1,9-4.9c5.6-2.5,10.1-5.5,15-6.3
	c2.4-0.4,6.6,2.8,8,5.4c1.9,3.5-2,5.1-4.8,6.4c-2.2,1.1-4.2,2.5-6.5,3.3C976.3,548.2,973,548.9,968.8,549.9z"/>
<path d="M919.1,559.6c0.2-1.9,0.2-2.8,0.5-3.5c1.8-5,12.1-8.7,16.4-5.6c1.7,1.2,3.2,3.9,3.2,6c0,4.3-3.7,6.5-7.3,7.5
	c-3.3,0.9-7.2,3.2-10.3-0.6C920.5,562,919.6,560.5,919.1,559.6z"/>
<path d="M957.9,578.1c0.4-7.3,6.1-12.9,10.9-11.8c1.8,0.4,4,3,4.4,5c1.5,6.7-5.1,12.7-11.5,10.5
	C959.9,581.2,958.6,578.8,957.9,578.1z"/>
<path d="M897.1,564.9c1.8-3.6,2.6-6.9,4.7-8.9c1.5-1.4,5.3-2,7-1c2.5,1.4,5.1,4.2,1.9,7.9c-0.8,0.9-0.5,3-1.4,3.7
	c-1.9,1.4-4.3,3.2-6.3,3C901,569.3,899.3,566.7,897.1,564.9z"/>
<path d="M955.6,529.5c-2.2-1.6-4.5-2.4-4.9-3.8c-0.5-1.6,0.1-3.9,1-5.4c1.1-1.8,2.9-3.3,4.6-4.6c2.7-2,5-1.6,7.4,1.1
	c2.4,2.8,2.2,4.6-0.6,6.7C960.7,525.2,958.3,527.3,955.6,529.5z"/>
<path d="M929.9,526.1c0.8-2.3,0.9-6,5.2-5.6c4,0.4,6,3.3,6,6.9c0,3.7-1.7,6.7-5.9,7.2C932.1,535,929.8,531.5,929.9,526.1z"/>
<path d="M973.3,529.3c-1.5-2-4.7-5.2-4.2-5.9c1.9-2.8,4.7-5.6,7.8-6.9c1.1-0.4,4.9,3.2,5.8,5.6C983.6,524.8,978.1,528.6,973.3,529.3
	z"/>
<path d="M943.9,551.4c-0.5-3.8,0.1-7.2,4.6-7c3.7,0.2,6.3,2.5,6.5,6.6c0.1,3.9-3.3,7.8-6.5,7.1C944.9,557.4,942.5,555.5,943.9,551.4
	z"/>
<path d="M903.8,632.3c2.9-3.3,4.5-6.6,6.9-7.4c3-1.1,8.2,4,7,6.1c-1.6,2.7-4.5,5-7.4,6.3C909.3,637.7,906.7,634.5,903.8,632.3z"/>
<path d="M945.4,611.7c0.1-2.7,2.9-4.2,6-4.4c3.2-0.2,5.4,2,5.8,5.3c0.4,3.3-3.4,7.5-6.4,7.5C947.9,620.1,945.4,616.9,945.4,611.7z"
	/>
<path d="M975.4,591.8c3.8,0.1,7.7,3.3,7.2,6.5c-0.6,4.2-3.9,5.2-7.6,5.4c-4.2,0.3-4.8-2.9-4.9-5.8
	C970.1,594.8,971.2,591.8,975.4,591.8z"/>
<path d="M995.9,592.8c0.6,4.3-2.4,5.5-5.3,5.6c-4.6,0.2-5.1-3.7-5.4-7.1c-0.4-3.7,2.3-5.2,5.4-5.2
	C995.4,586,995.9,589.5,995.9,592.8z"/>
<path d="M926.7,533.3c-2.9,2.4-5.2,5.6-6.3,5.2c-2.8-1-5.1-3.6-7.5-5.6c2.8-1.4,5.5-3.2,8.5-4C922.3,528.6,924.1,531,926.7,533.3z"
	/>
<path d="M1227.5,608.6c-4.4,0-7.8-2.7-7.8-6.3c0-4.6,3.6-8.4,8-8.5c3.9,0,7.8,4,7.7,8C1235.3,604.7,1230.9,608.5,1227.5,608.6z"/>
<path d="M1380.8,589.9c-2.1,0.2-3.1,0.2-4.1,0.4c-11.6,2.8-19.8-5.8-17.7-19.3c0.3-1.9,2.4-4.2,4.3-5.1c4.6-2.2,9.5-3.6,14.7-5.4
	c1.2-5.6-2.7-15.2-7.7-18.2c-3.2-1.9-5.6-4.3-3-8.3c1.9-3,7.2-4,10.5-2.3c5.7,3,8.9,8,10.6,13.8c2.9,10,5.3,20.1,7.4,30.3
	c0.7,3.2-0.6,6.8-0.6,10.1c0.1,12.8,0.3,25.7-4.4,37.9c-0.8,2.1-1.3,4.6-2.8,5.9c-1.8,1.6-4.9,3.3-6.8,2.7c-2.8-0.9-4.6-3.7-3.6-7.5
	c1.3-4.6,2.6-9.3,3-14C1381.2,604.2,1380.8,597.3,1380.8,589.9z"/>
<path d="M798.2,726c-0.1,1.9-0.1,3.8-0.4,5.6c-0.5,3.1-2.4,5.4-5.5,4.7c-7-1.8-15-3.1-17.6-10.9c-1.7-5.1-2-11.1-1.2-16.4
	c1-6.9,8.4-9,14.1-4.8C795.7,710.2,798.5,716,798.2,726z"/>
</svg>
