<?xml version="1.0" encoding="utf-8"?>
<!-- Generator: Adobe Illustrator 25.1.0, SVG Export Plug-In . SVG Version: 6.00 Build 0)  -->
<svg version="1.1" id="Layer_1" xmlns="http://www.w3.org/2000/svg" xmlns:xlink="http://www.w3.org/1999/xlink" x="0px" y="0px"
	 viewBox="0 0 574.2 281.6" style="enable-background:new 0 0 574.2 281.6;" xml:space="preserve">
<style type="text/css">
	.st0{fill:#FFFFFF;}
</style>
<g id="Layer_2_1_">
	<g id="Layer_1-2">
		<path class="st0" d="M479.4,279h94.9v-15.2h-78.4v-46.1H565v-13.9h-69.2v-41.5H572v-14.5h-92.6V279z M385.6,162.1H421
			c16.7,0,26.4,8.3,26.4,24c0,15.1-8.8,24.4-27.4,24.4h-34.5L385.6,162.1z M369.1,279h16.5v-55h35.8c28.6,0,42.4-14.5,42.4-38.5
			c0.2-9.1-3-18-8.8-25c-6.8-8.1-17.4-12.7-31.2-12.7h-54.7V279z M290.5,181.6c2.6-7.5,6.1-18.5,6.1-18.5h0.4c0,0,3.3,11.2,5.9,18.5
			l15,44.1h-42.9L290.5,181.6z M239.1,279H256l14.1-40h52.3l13.9,40h18l-48.5-131.2h-18.5L239.1,279z M121.2,279h16.5v-62h70.1v62
			h16.5V147.8h-16.5v55.8h-70.1v-55.8h-16.5L121.2,279z M56,281.6c28.3,0,48.3-13.8,48.3-38.4c0-29.5-23.3-35.8-48.8-40.9
			c-19.6-3.9-34.3-8.3-34.3-23.1c0-13.6,11.8-21.1,29.5-21.1c19.3,0,31.4,9.4,33.8,28.1H100c-3.3-24.2-16.9-40.9-49.7-40.9
			c-26.6,0-44.6,13-44.6,34.7c0,24.8,19.8,31.4,42.9,36.5c23.5,5.1,39.3,9.4,39.3,27.4c0,16.3-13,24.6-31.2,24.6
			c-24.8,0-38.4-11.6-40.6-33.8H0C1.5,261.1,19.1,281.6,56,281.6"/>
		<path class="st0" d="M408.7,131.2h94.9V116h-78.4V69.9h69.2V56h-69.2V14.5h76.2V0h-92.7V131.2z M292.3,131.2h16.5V84.8l21.1-21.1
			l49.4,67.5h19.3l-57.4-78.7l53-52.5h-20.7l-64.6,65.2V0h-16.5V131.2z M213.7,33.8c2.6-7.5,6.1-18.5,6.1-18.5h0.4
			c0,0,3.3,11.2,5.9,18.5l15.1,44h-42.9L213.7,33.8z M162.3,131.2h16.9l14.1-40h52.3l13.9,40h18L229.1,0h-18.5L162.3,131.2z
			 M70.7,14.5h43.7v116.7h16.5V14.5h43.7V0H70.7V14.5z"/>
	</g>
</g>
</svg>
