<svg xmlns="http://www.w3.org/2000/svg" viewBox="0 0 574.23 281.62"><g id="Layer_2" data-name="Layer 2"><g id="Layer_1-2" data-name="Layer 1"><path d="M479.35,279.05h94.88V263.82H495.87V217.76h69.18V203.81H495.87V162.33H572v-14.5H479.35Zm-93.76-116.9H421c16.7,0,26.43,8.26,26.43,24,0,15.05-8.81,24.41-27.35,24.41h-34.5Zm-16.52,116.9h16.52V224h35.79c28.63,0,42.39-14.5,42.39-38.54a37.87,37.87,0,0,0-8.81-25c-6.79-8.08-17.43-12.67-31.2-12.67H369.07ZM290.45,181.6c2.57-7.52,6.06-18.53,6.06-18.53h.37s3.3,11.19,5.87,18.53l15.05,44.05H274.86Zm-51.38,97.45H256l14.13-40h52.31l13.94,40h18L305.87,147.83H287.34Zm-117.89,0h16.51V217H207.8v62h16.51V147.83H207.8v55.79H137.69V147.83H121.18ZM56,281.62c28.27,0,48.27-13.76,48.27-38.36,0-29.54-23.31-35.78-48.82-40.92-19.63-3.85-34.32-8.26-34.32-23.12,0-13.58,11.75-21.11,29.55-21.11,19.27,0,31.38,9.36,33.77,28.08H100C96.71,162,83.13,145.27,50.28,145.27c-26.61,0-44.59,13-44.59,34.68,0,24.78,19.82,31.38,42.94,36.52,23.49,5.14,39.28,9.36,39.28,27.35,0,16.33-13,24.59-31.2,24.59-24.78,0-38.36-11.56-40.56-33.77H0c1.47,26.43,19.09,47,56,47"/><path d="M408.66,131.22h94.88V116H425.17V69.92h69.19V56H425.17V14.5h76.17V0H408.66Zm-116.35,0h16.51V84.79l21.11-21.11,49.37,67.54h19.27L341.12,52.49,394.16,0H373.42l-64.6,65.15V0H292.31ZM213.69,33.77c2.57-7.53,6.05-18.54,6.05-18.54h.37s3.3,11.2,5.87,18.54l15.05,44H198.09ZM162.3,131.22h16.89l14.13-40h52.3l13.95,40h18L229.1,0H210.57ZM70.69,14.5h43.68V131.22h16.52V14.5h43.67V0H70.69Z"/></g></g></svg>